<?xml version="1.0" encoding="UTF-8"?>
<svg id="Layer_1" xmlns="http://www.w3.org/2000/svg" xmlns:xlink="http://www.w3.org/1999/xlink" version="1.1" viewBox="0 0 200 200">
  <!-- Generator: Adobe Illustrator 30.0.0, SVG Export Plug-In . SVG Version: 2.1.1 Build 123)  -->
  <defs>
    <style>
      .st0 {
        fill: url(#linear-gradient1);
      }

      .st1 {
        fill: url(#linear-gradient);
      }

      .st2 {
        fill: #fff;
      }

      .st3 {
        fill: none;
        stroke: #fff;
        stroke-miterlimit: 10;
        stroke-width: 1.77px;
      }

      .st4 {
        opacity: .42;
      }
    </style>
    <linearGradient id="linear-gradient" x1="34.76" y1="37.57" x2="165.25" y2="168.05" gradientTransform="translate(0 202) scale(1 -1)" gradientUnits="userSpaceOnUse">
      <stop offset="0" stop-color="#000"/>
      <stop offset="0" stop-color="#08090e"/>
      <stop offset="0" stop-color="#323d5b"/>
      <stop offset="0" stop-color="#43527a"/>
      <stop offset=".23" stop-color="#455178"/>
      <stop offset=".39" stop-color="#4f5172"/>
      <stop offset=".54" stop-color="#5f5169"/>
      <stop offset=".67" stop-color="#75515c"/>
      <stop offset=".8" stop-color="#92514c"/>
      <stop offset=".92" stop-color="#b55137"/>
      <stop offset="1" stop-color="#d35127"/>
    </linearGradient>
    <linearGradient id="linear-gradient1" x1="34.76" y1="1042.43" x2="165.25" y2="911.95" gradientTransform="translate(0 -878)" gradientUnits="userSpaceOnUse">
      <stop offset="0" stop-color="#000"/>
      <stop offset="0" stop-color="#08090e"/>
      <stop offset="0" stop-color="#323d5b"/>
      <stop offset="0" stop-color="#446491"/>
      <stop offset=".23" stop-color="#33507a"/>
      <stop offset=".4" stop-color="#304d78"/>
      <stop offset=".54" stop-color="#5f5169"/>
      <stop offset=".67" stop-color="#75515c"/>
      <stop offset=".8" stop-color="#92514c"/>
      <stop offset=".92" stop-color="#b55137"/>
      <stop offset="1" stop-color="#d35127"/>
    </linearGradient>
  </defs>
  <g>
    <path class="st1" d="M147.76,181.91H52.24L4.47,99.19,52.24,16.46h95.53l47.76,82.73-47.76,82.73h-.01Z"/>
    <path class="st0" d="M147.76,181.91H52.24L4.47,99.19,52.24,16.46h95.53l47.76,82.73-47.76,82.73h-.01Z"/>
    <g class="st4">
      <path class="st3" d="M147.76,181.91H52.24L4.47,99.19,52.24,16.46h95.53l47.76,82.73-47.76,82.73h-.01Z"/>
    </g>
  </g>
  <g>
    <path class="st2" d="M46.92,80.55c2.66-4.66,6.28-8.29,10.88-10.88,4.6-2.6,9.75-3.9,15.47-3.9,6.69,0,12.54,1.72,17.57,5.14,5.03,3.43,8.54,8.17,10.54,14.23h-13.8c-1.37-2.86-3.3-5-5.78-6.43-2.49-1.42-5.35-2.14-8.61-2.14-3.49,0-6.59.81-9.3,2.45-2.71,1.63-4.83,3.93-6.34,6.9-1.52,2.97-2.27,6.46-2.27,10.46s.75,7.41,2.27,10.41,3.63,5.31,6.34,6.94c2.71,1.63,5.81,2.45,9.3,2.45,3.26,0,6.12-.73,8.61-2.19s4.42-3.61,5.78-6.47h13.8c-2,6.12-5.5,10.87-10.5,14.27s-10.87,5.09-17.61,5.09c-5.71,0-10.87-1.3-15.47-3.9-4.6-2.6-8.23-6.22-10.88-10.84-2.66-4.62-3.99-9.88-3.99-15.77s1.32-11.15,3.99-15.81h0Z"/>
    <path class="st2" d="M157.07,78.88l-29.39,69.93h-12.77l10.28-23.65-19.03-46.27h13.46l12.26,33.16,12.43-33.16h12.77,0Z"/>
  </g>
</svg>