<?xml version="1.0" encoding="UTF-8"?>
<svg id="Layer_1" xmlns="http://www.w3.org/2000/svg" xmlns:xlink="http://www.w3.org/1999/xlink" version="1.1" viewBox="0 0 200 200">
  <!-- Generator: Adobe Illustrator 30.0.0, SVG Export Plug-In . SVG Version: 2.1.1 Build 123)  -->
  <defs>
    <style>
      .st0 {
        fill: url(#linear-gradient1);
      }

      .st1 {
        fill: url(#linear-gradient);
      }

      .st2 {
        fill: #fff;
      }

      .st3 {
        fill: none;
        stroke: #fff;
        stroke-miterlimit: 10;
        stroke-width: 1.77px;
      }

      .st4 {
        opacity: .42;
      }
    </style>
    <linearGradient id="linear-gradient" x1="34.76" y1="37.57" x2="165.25" y2="168.05" gradientTransform="translate(0 202) scale(1 -1)" gradientUnits="userSpaceOnUse">
      <stop offset="0" stop-color="#000"/>
      <stop offset="0" stop-color="#08090e"/>
      <stop offset="0" stop-color="#323d5b"/>
      <stop offset="0" stop-color="#43527a"/>
      <stop offset=".23" stop-color="#455178"/>
      <stop offset=".39" stop-color="#4f5172"/>
      <stop offset=".54" stop-color="#5f5169"/>
      <stop offset=".67" stop-color="#75515c"/>
      <stop offset=".8" stop-color="#92514c"/>
      <stop offset=".92" stop-color="#b55137"/>
      <stop offset="1" stop-color="#d35127"/>
    </linearGradient>
    <linearGradient id="linear-gradient1" x1="34.76" y1="1042.43" x2="165.25" y2="911.95" gradientTransform="translate(0 -878)" gradientUnits="userSpaceOnUse">
      <stop offset="0" stop-color="#000"/>
      <stop offset="0" stop-color="#08090e"/>
      <stop offset="0" stop-color="#323d5b"/>
      <stop offset="0" stop-color="#446491"/>
      <stop offset=".23" stop-color="#33507a"/>
      <stop offset=".4" stop-color="#304d78"/>
      <stop offset=".54" stop-color="#5f5169"/>
      <stop offset=".67" stop-color="#75515c"/>
      <stop offset=".8" stop-color="#92514c"/>
      <stop offset=".92" stop-color="#b55137"/>
      <stop offset="1" stop-color="#d35127"/>
    </linearGradient>
  </defs>
  <g>
    <path class="st1" d="M147.76,181.91H52.24L4.47,99.19,52.24,16.46h95.53l47.76,82.73-47.76,82.73h-.01Z"/>
    <path class="st0" d="M147.76,181.91H52.24L4.47,99.19,52.24,16.46h95.53l47.76,82.73-47.76,82.73h-.01Z"/>
    <g class="st4">
      <path class="st3" d="M147.76,181.91H52.24L4.47,99.19,52.24,16.46h95.53l47.76,82.73-47.76,82.73h-.01Z"/>
    </g>
  </g>
  <g>
    <path class="st2" d="M100.23,65.77v60.33h-12.1v-25.67h-25.84v25.67h-12.1v-60.33h12.1v24.8h25.84v-24.8s12.1,0,12.1,0Z"/>
    <path class="st2" d="M120.97,123.8c-3.68-2.04-6.58-4.94-8.69-8.69-2.1-3.74-3.15-8.06-3.15-12.96s1.08-9.22,3.24-12.96c2.16-3.74,5.11-6.64,8.86-8.69,3.74-2.04,7.92-3.07,12.53-3.07s8.79,1.02,12.53,3.07c3.74,2.04,6.7,4.94,8.86,8.69,2.16,3.74,3.24,8.07,3.24,12.96s-1.11,9.22-3.33,12.96-5.21,6.64-8.99,8.69c-3.78,2.04-7.99,3.07-12.66,3.07s-8.76-1.02-12.45-3.07h.01ZM139.59,114.73c1.93-1.06,3.47-2.66,4.62-4.8,1.15-2.13,1.73-4.72,1.73-7.78,0-4.55-1.2-8.05-3.59-10.5s-5.32-3.68-8.77-3.68-6.35,1.23-8.69,3.68-3.5,5.95-3.5,10.5,1.14,8.05,3.41,10.5c2.27,2.45,5.15,3.68,8.6,3.68,2.19,0,4.25-.53,6.18-1.6h.01Z"/>
  </g>
</svg>