<?xml version="1.0" encoding="UTF-8"?>
<svg id="Layer_1" xmlns="http://www.w3.org/2000/svg" xmlns:xlink="http://www.w3.org/1999/xlink" version="1.1" viewBox="0 0 200 200">
  <!-- Generator: Adobe Illustrator 30.0.0, SVG Export Plug-In . SVG Version: 2.1.1 Build 123)  -->
  <defs>
    <style>
      .st0 {
        fill: url(#linear-gradient);
      }

      .st1 {
        fill: #fff;
      }

      .st2 {
        fill: none;
        stroke: #fff;
        stroke-miterlimit: 10;
        stroke-width: 1.77px;
      }

      .st3 {
        opacity: .42;
      }
    </style>
    <linearGradient id="linear-gradient" x1="34.76" y1="1042.43" x2="165.25" y2="911.95" gradientTransform="translate(0 -878)" gradientUnits="userSpaceOnUse">
      <stop offset="0" stop-color="#000"/>
      <stop offset="0" stop-color="#08090e"/>
      <stop offset="0" stop-color="#323d5b"/>
      <stop offset="0" stop-color="#446491"/>
      <stop offset=".23" stop-color="#33507a"/>
      <stop offset=".4" stop-color="#304d78"/>
      <stop offset=".54" stop-color="#5f5169"/>
      <stop offset=".67" stop-color="#75515c"/>
      <stop offset=".8" stop-color="#92514c"/>
      <stop offset=".92" stop-color="#b55137"/>
      <stop offset="1" stop-color="#d35127"/>
    </linearGradient>
  </defs>
  <g>
    <path class="st0" d="M147.76,181.91H52.24L4.47,99.19,52.24,16.46h95.53l47.76,82.73-47.76,82.73h-.01Z"/>
    <g class="st3">
      <path class="st2" d="M147.76,181.91H52.24L4.47,99.19,52.24,16.46h95.53l47.76,82.73-47.76,82.73h-.01Z"/>
    </g>
  </g>
  <g>
    <path class="st1" d="M113.58,69.02l-15.21,54.45h-12.88l-10.22-38.77-10.69,38.77-12.79.08-14.67-54.53h11.71l9.59,42.28,11.08-42.28h12.17l10.45,42.04,9.67-42.04s11.79,0,11.79,0Z"/>
    <path class="st1" d="M120.48,90.08c1.74-3.38,4.11-5.98,7.1-7.8,2.99-1.82,6.33-2.73,10.03-2.73,3.22,0,6.04.65,8.46,1.95,2.42,1.3,4.35,2.94,5.81,4.91v-6.16h11v43.21h-11v-6.32c-1.4,2.02-3.35,3.7-5.81,5.03-2.47,1.32-5.32,1.99-8.54,1.99-3.64,0-6.96-.94-9.95-2.81-2.99-1.87-5.36-4.52-7.1-7.92-1.74-3.41-2.61-7.32-2.61-11.74s.87-8.24,2.61-11.62h0ZM150.32,95.04c-1.04-1.9-2.44-3.36-4.21-4.37-1.77-1.02-3.66-1.53-5.7-1.53s-3.9.5-5.61,1.48c-1.72.99-3.11,2.43-4.17,4.33-1.07,1.9-1.6,4.15-1.6,6.74s.53,4.87,1.6,6.82,2.47,3.45,4.21,4.49,3.6,1.56,5.57,1.56,3.93-.51,5.7-1.53,3.17-2.47,4.21-4.36c1.04-1.9,1.56-4.17,1.56-6.82s-.52-4.92-1.56-6.82h0Z"/>
  </g>
</svg>