<?xml version="1.0" encoding="UTF-8"?>
<svg id="Layer_1" data-name="Layer 1" xmlns="http://www.w3.org/2000/svg" viewBox="0 0 500 180.22">
  <defs>
    <style>
      .cls-1 {
        fill: none;
      }

      .cls-2 {
        fill: #1473a0;
      }

      .cls-3 {
        fill: #09668d;
      }

      .cls-4 {
        fill: #f16022;
      }

      .cls-5 {
        fill: #d1d5d7;
      }

      .cls-6 {
        fill: #bfbfbf;
      }
    </style>
  </defs>
  <g>
    <g>
      <g>
        <path class="cls-2" d="M183.66,121.21v-56.49c0-12.95,10.5-23.44,23.44-23.44h42.15c.92,0,1.56.92,1.23,1.78l-2.65,7.05c-.64,1.71-2.28,2.84-4.1,2.84h-35.74c-7.08,0-12.83,5.74-12.83,12.83v8.39h38c.92,0,1.56.92,1.23,1.78l-2.65,7.05c-.64,1.71-2.28,2.84-4.1,2.84h-32.47v36.43h-10.44c-.59,0-1.07-.48-1.07-1.07h0Z"/>
        <path class="cls-2" d="M345.61,56.18h4.91c.92,0,1.56.93,1.22,1.79l-2.61,6.77c-.62,1.61-2.13,2.72-3.85,2.8-14.64.69-21.23,12.48-21.23,21.46v32.01c0,.59-.48,1.07-1.07,1.07h-10.47c-.59,0-1.07-.48-1.07-1.07v-31.71c0-19.28,13.91-33.12,34.17-33.12h0Z"/>
        <path class="cls-2" d="M351.1,113.18l37.29-45.65h-34.52c-.92,0-1.56-.93-1.22-1.79l3.37-8.72c.2-.51.68-.84,1.22-.84h46.73c.59,0,1.07.48,1.07,1.07v7.84l-37.29,45.65h35.37c.92,0,1.56.93,1.22,1.79l-2.61,6.75c-.65,1.69-2.28,2.81-4.09,2.81h-45.48c-.59,0-1.07-.48-1.07-1.07v-7.84h0Z"/>
        <path class="cls-2" d="M473.05,90.11v30.96c0,.59-.48,1.07-1.07,1.07h-4.29c-1.6,0-3.07-.87-3.84-2.27l-3.14-5.68c-4.03,5.93-15.27,9.84-22.98,9.84-19.45,0-34.08-15.18-34.08-33.93s14.63-33.93,34.08-33.93,35.31,15.18,35.31,33.93h0ZM460.73,90.11c0-12.71-10.26-22.98-22.98-22.98s-22.98,10.26-22.98,22.98,10.26,22.98,22.98,22.98,22.98-10.26,22.98-22.98Z"/>
        <path class="cls-2" d="M273.5,124.17c-19.57,0-33.57-15.18-33.57-33.93s14-33.93,33.57-33.93,33.57,15.18,33.57,33.93-13.99,33.93-33.57,33.93h0ZM296.51,90.24c0-12.71-10.26-22.98-22.98-22.98s-22.98,10.26-22.98,22.98,10.26,22.98,22.98,22.98,22.98-10.26,22.98-22.98Z"/>
      </g>
      <g>
        <path class="cls-2" d="M484.93,56.18h-11.65c-.14,0-.22.07-.22.22v2.19c0,.14.07.22.22.22h4.32l.02,5.93c0,.06.02.11.06.15.04.04.1.06.15.06h2.55c.14,0,.22-.07.22-.22v-5.93h4.32c.14,0,.22-.07.22-.22v-2.19c0-.14-.07-.22-.22-.22h0Z"/>
        <path class="cls-2" d="M499.78,56.18h-2.83s-.08.02-.11.04l-3.95,3.55-3.95-3.55s-.06-.04-.11-.04h-2.83c-.14,0-.22.07-.22.22v8.33c0,.14.07.22.22.22h2.55c.14,0,.22-.07.22-.22v-5.11l-.02-.29,3.4,3.32s.06.04.11.04h1.27s.08-.02.11-.04l3.42-3.33-.04.3v5.11c0,.14.07.22.22.22h2.55c.14,0,.22-.07.22-.22v-8.33c0-.14-.07-.22-.22-.22h0Z"/>
      </g>
    </g>
    <g>
      <path class="cls-4" d="M184.26,141.06l.56-2.68c.39-1.84,1.31-2.99,3.33-2.99h3.16c2.02,0,2.87,1.15,2.47,2.99l-.56,2.68c-.38,1.83-1.31,2.98-3.33,2.98h-3.16c-2.04,0-2.86-1.15-2.48-2.98h0ZM190.04,142.41c.89,0,1.28-.33,1.48-1.29l.59-2.81c.21-.98-.02-1.31-.93-1.31h-3.16c-.91,0-1.27.32-1.48,1.31l-.59,2.81c-.21.96.03,1.29.92,1.29h3.16Z"/>
      <path class="cls-4" d="M195.5,141.06l1.14-5.41c.04-.18.16-.27.34-.27h1.08c.21,0,.32.11.27.33l-1.14,5.41c-.22,1.05.1,1.29.92,1.29h2.76c.82,0,1.26-.23,1.48-1.29l1.14-5.47c.04-.18.16-.27.34-.27h1.09c.21,0,.32.11.27.33l-1.13,5.35c-.39,1.83-1.31,2.98-3.34,2.98h-2.74c-2.04,0-2.86-1.15-2.48-2.98h0Z"/>
      <path class="cls-4" d="M215.28,138.5l-.04.2c-.32,1.55-.93,2.57-2.37,2.93l.99,2.05c.1.21,0,.36-.23.36h-1.22c-.17,0-.3-.07-.36-.23l-.89-2.04h-3.12l-.42,1.99c-.04.17-.16.27-.34.27h-1.08c-.21,0-.32-.11-.27-.33l1.71-8.05c.04-.18.16-.27.35-.27h4.26c2.51,0,3.46,1.05,3.01,3.13h0ZM212,137.01h-2.92l-.67,3.14h2.93c1.31,0,1.89-.22,2.2-1.48l.04-.17c.3-1.25-.23-1.5-1.57-1.5h0Z"/>
      <path class="cls-4" d="M222.53,143.71l1.42-6.69h-2.61c-.21,0-.32-.11-.27-.33l.21-1.04c.04-.18.16-.27.34-.27h6.99c.21,0,.32.11.27.33l-.21,1.05c-.04.17-.16.27-.34.27h-2.67l-1.44,6.75c-.04.17-.16.27-.34.27h-1.08c-.21,0-.32-.11-.27-.33h0Z"/>
      <path class="cls-4" d="M229.01,143.71l1.71-8.05c.04-.18.16-.27.34-.27h6.7c.21,0,.32.11.27.33l-.21,1.03c-.04.17-.16.27-.35.27h-5.35l-.39,1.89h3.42c.21,0,.32.11.27.33l-.2.91c-.04.17-.16.27-.34.27h-3.47l-.43,2h5.29c.21,0,.32.11.27.33l-.21,1.03c-.04.17-.16.27-.35.27h-6.7c-.21,0-.32-.11-.27-.33h0Z"/>
      <path class="cls-4" d="M245.8,143.77l-.3-1.22h-4.97l-.87,1.31c-.09.13-.21.2-.37.2h-1.31c-.24,0-.34-.16-.2-.37l5.63-8.1c.09-.13.21-.2.37-.2h1.31c.19,0,.3.07.34.26l2.16,8.06c.06.22-.04.34-.26.34h-1.22c-.19,0-.3-.1-.33-.27h0ZM245.15,141.14l-.98-3.99-2.7,3.99h3.68Z"/>
      <path class="cls-4" d="M249.38,143.71l1.71-8.05c.04-.18.16-.27.35-.27h1.18c.17,0,.3.07.36.24l2,5.03,4.05-5.09c.1-.13.22-.19.38-.19h1.46c.21,0,.32.11.27.33l-1.71,8.05c-.04.17-.16.27-.34.27h-1.06c-.21,0-.32-.11-.27-.33l1.19-5.6-3.56,4.31c-.1.12-.22.17-.38.17h-.69c-.17,0-.3-.07-.36-.25l-1.68-4.22-1.2,5.64c-.04.17-.16.27-.35.27h-1.06c-.21,0-.32-.11-.27-.33h-.02Z"/>
      <path class="cls-4" d="M261.81,143.71l.32-1.5c.04-.17.16-.27.35-.27h1.06c.21,0,.32.11.27.33l-.32,1.49c-.04.17-.16.27-.35.27h-1.06c-.21,0-.32-.11-.27-.33h0Z"/>
      <path class="cls-4" d="M270.22,141.06l.56-2.68c.39-1.84,1.31-2.99,3.33-2.99h3.16c2.02,0,2.87,1.15,2.47,2.99l-.56,2.68c-.38,1.83-1.31,2.98-3.33,2.98h-3.16c-2.04,0-2.86-1.15-2.48-2.98h0ZM276,142.41c.89,0,1.28-.33,1.48-1.29l.59-2.81c.21-.98-.02-1.31-.93-1.31h-3.16c-.91,0-1.27.32-1.48,1.31l-.59,2.81c-.21.96.03,1.29.92,1.29h3.16Z"/>
      <path class="cls-4" d="M281.46,141.06l1.14-5.41c.04-.18.16-.27.34-.27h1.08c.21,0,.32.11.27.33l-1.14,5.41c-.22,1.05.1,1.29.92,1.29h2.76c.82,0,1.26-.23,1.48-1.29l1.14-5.47c.04-.18.16-.27.34-.27h1.09c.21,0,.32.11.27.33l-1.13,5.35c-.39,1.83-1.31,2.98-3.34,2.98h-2.74c-2.04,0-2.86-1.15-2.48-2.98h0Z"/>
      <path class="cls-4" d="M301.24,138.5l-.04.2c-.32,1.55-.93,2.57-2.37,2.93l.99,2.05c.1.21,0,.36-.23.36h-1.22c-.17,0-.3-.07-.36-.23l-.89-2.04h-3.12l-.42,1.99c-.04.17-.16.27-.34.27h-1.08c-.21,0-.32-.11-.27-.33l1.71-8.05c.04-.18.16-.27.35-.27h4.26c2.51,0,3.46,1.05,3.01,3.13h0ZM297.96,137.01h-2.92l-.67,3.14h2.93c1.31,0,1.89-.22,2.2-1.48l.04-.17c.3-1.25-.23-1.5-1.57-1.5h0Z"/>
      <path class="cls-4" d="M306.27,141.4c.03-.19.14-.29.33-.29h1.09c.21,0,.3.13.28.33-.07.7.21.96.98.96h2.4c.93,0,1.31-.23,1.48-.95.14-.69-.13-.86-.92-.92l-2.51-.21c-1.85-.14-2.68-.86-2.34-2.48.36-1.65,1.14-2.48,3.29-2.48h2.24c1.97,0,2.83.89,2.55,2.64-.03.19-.14.28-.33.28h-1.09c-.21,0-.3-.12-.28-.33.07-.7-.21-.96-.99-.96h-2.21c-.95,0-1.31.22-1.48.95-.14.68.11.84.95.91l2.51.19c1.84.13,2.65.88,2.31,2.48-.36,1.65-1.13,2.51-3.27,2.51h-2.41c-1.97,0-2.83-.89-2.55-2.64h-.02Z"/>
      <path class="cls-4" d="M316.51,141.06l.56-2.68c.39-1.84,1.32-2.99,3.34-2.99h2.74c2.04,0,2.86,1.15,2.47,2.99v.06c-.05.19-.16.29-.35.29h-1.08c-.21,0-.33-.07-.3-.21l.04-.2c.23-1.06-.07-1.31-.92-1.31h-2.74c-.85,0-1.25.23-1.48,1.31l-.59,2.81c-.22,1.05.1,1.29.92,1.29h2.74c.83,0,1.26-.23,1.48-1.29l.04-.27c.04-.17.16-.27.35-.27h1.08c.21,0,.32.09.3.23l-.05.25c-.38,1.83-1.22,2.98-3.26,2.98h-2.83c-2.04,0-2.84-1.15-2.47-2.98l.02-.02Z"/>
      <path class="cls-4" d="M326.59,143.71l1.71-8.05c.04-.18.16-.27.35-.27h1.06c.21,0,.32.11.27.33l-1.71,8.05c-.04.17-.16.27-.35.27h-1.06c-.21,0-.32-.11-.27-.33Z"/>
      <path class="cls-4" d="M330.68,143.71l1.71-8.05c.04-.18.16-.27.35-.27h6.7c.21,0,.32.11.27.33l-.21,1.03c-.04.17-.16.27-.35.27h-5.35l-.39,1.89h3.42c.21,0,.32.11.27.33l-.2.91c-.04.17-.16.27-.34.27h-3.47l-.43,2h5.29c.21,0,.32.11.27.33l-.21,1.03c-.04.17-.16.27-.35.27h-6.7c-.21,0-.32-.11-.27-.33h-.02Z"/>
      <path class="cls-4" d="M340.07,143.71l1.71-8.05c.04-.18.16-.27.34-.27h1.12c.16,0,.28.06.37.21l3.45,6.05,1.28-5.99c.04-.18.16-.27.34-.27h1.08c.21,0,.32.11.27.33l-1.71,8.05c-.04.17-.16.27-.34.27h-1.1c-.16,0-.29-.06-.37-.21l-3.47-6.1-1.26,6.03c-.04.17-.16.27-.34.27h-1.08c-.21,0-.32-.11-.27-.33h-.02Z"/>
      <path class="cls-4" d="M351.11,141.06l.56-2.68c.39-1.84,1.32-2.99,3.34-2.99h2.74c2.04,0,2.86,1.15,2.47,2.99l-.02.06c-.04.19-.14.29-.33.29h-1.08c-.21,0-.33-.07-.3-.21l.04-.2c.23-1.06-.07-1.31-.92-1.31h-2.74c-.85,0-1.25.23-1.48,1.31l-.59,2.81c-.22,1.05.1,1.29.92,1.29h2.74c.83,0,1.26-.23,1.48-1.29l.04-.27c.04-.17.16-.27.35-.27h1.08c.21,0,.32.09.3.23l-.05.25c-.38,1.83-1.22,2.98-3.26,2.98h-2.83c-2.04,0-2.84-1.15-2.47-2.98l.02-.02Z"/>
      <path class="cls-4" d="M361.21,143.71l1.71-8.05c.04-.18.16-.27.34-.27h6.7c.21,0,.32.11.27.33l-.21,1.03c-.04.17-.16.27-.35.27h-5.35l-.39,1.89h3.42c.21,0,.32.11.27.33l-.2.91c-.04.17-.16.27-.34.27h-3.47l-.43,2h5.29c.21,0,.32.11.27.33l-.21,1.03c-.04.17-.16.27-.35.27h-6.7c-.21,0-.32-.11-.27-.33h0Z"/>
      <path class="cls-4" d="M370.59,143.71l.32-1.5c.04-.17.16-.27.35-.27h1.06c.21,0,.32.11.27.33l-.32,1.49c-.04.17-.16.27-.35.27h-1.06c-.21,0-.32-.11-.27-.33h0Z"/>
      <path class="cls-4" d="M381.6,143.71l.44-2.06-2.53-5.92c-.09-.21,0-.36.23-.36h1.1c.17,0,.3.07.36.23l1.86,4.47,3.7-4.52c.1-.13.22-.17.38-.17h1.41c.26,0,.35.17.17.38l-4.99,5.89-.46,2.12c-.04.17-.16.27-.34.27h-1.08c-.21,0-.32-.11-.27-.33h0Z"/>
      <path class="cls-4" d="M388.72,141.06l.56-2.68c.39-1.84,1.31-2.99,3.33-2.99h3.16c2.02,0,2.87,1.15,2.47,2.99l-.56,2.68c-.38,1.83-1.31,2.98-3.33,2.98h-3.16c-2.04,0-2.86-1.15-2.48-2.98h0ZM394.51,142.41c.89,0,1.28-.33,1.48-1.29l.59-2.81c.21-.98-.02-1.31-.93-1.31h-3.16c-.91,0-1.27.32-1.48,1.31l-.59,2.81c-.21.96.03,1.29.92,1.29h3.16Z"/>
      <path class="cls-4" d="M399.97,141.06l1.14-5.41c.04-.18.16-.27.34-.27h1.08c.21,0,.32.11.27.33l-1.14,5.41c-.22,1.05.1,1.29.92,1.29h2.76c.82,0,1.26-.23,1.48-1.29l1.14-5.47c.04-.18.16-.27.34-.27h1.09c.21,0,.32.11.27.33l-1.13,5.35c-.39,1.83-1.31,2.98-3.34,2.98h-2.74c-2.04,0-2.86-1.15-2.48-2.98h0Z"/>
      <path class="cls-4" d="M419.75,138.5l-.04.2c-.32,1.55-.93,2.57-2.37,2.93l.99,2.05c.1.21,0,.36-.23.36h-1.22c-.17,0-.3-.07-.36-.23l-.89-2.04h-3.12l-.42,1.99c-.04.17-.16.27-.34.27h-1.08c-.21,0-.32-.11-.27-.33l1.71-8.05c.04-.18.16-.27.35-.27h4.26c2.51,0,3.46,1.05,3.01,3.13h0ZM416.46,137.01h-2.92l-.67,3.14h2.93c1.31,0,1.89-.22,2.2-1.48l.04-.17c.3-1.25-.23-1.5-1.57-1.5h0Z"/>
      <path class="cls-4" d="M424.6,143.71l1.71-8.05c.04-.18.16-.27.34-.27h6.5c.21,0,.32.11.27.33l-.21,1.03c-.04.17-.16.27-.34.27h-5.15l-.39,1.89h3.26c.21,0,.32.11.27.33l-.2.91c-.04.17-.16.27-.35.27h-3.33l-.72,3.36c-.04.17-.16.27-.35.27h-1.06c-.21,0-.32-.11-.27-.33h0Z"/>
      <path class="cls-4" d="M433.71,141.06l.56-2.68c.39-1.84,1.31-2.99,3.33-2.99h3.16c2.02,0,2.87,1.15,2.47,2.99l-.56,2.68c-.38,1.83-1.31,2.98-3.33,2.98h-3.16c-2.04,0-2.86-1.15-2.48-2.98h0ZM439.48,142.41c.89,0,1.28-.33,1.48-1.29l.59-2.81c.21-.98-.02-1.31-.93-1.31h-3.16c-.91,0-1.27.32-1.48,1.31l-.59,2.81c-.21.96.03,1.29.92,1.29h3.16Z"/>
      <path class="cls-4" d="M453.67,138.5l-.04.2c-.32,1.55-.93,2.57-2.37,2.93l.99,2.05c.1.21,0,.36-.23.36h-1.22c-.17,0-.3-.07-.36-.23l-.89-2.04h-3.12l-.42,1.99c-.04.17-.16.27-.34.27h-1.08c-.21,0-.32-.11-.27-.33l1.71-8.05c.04-.18.16-.27.34-.27h4.27c2.51,0,3.46,1.05,3.01,3.13h0ZM450.38,137.01h-2.92l-.67,3.14h2.93c1.31,0,1.89-.22,2.2-1.48l.04-.17c.3-1.25-.23-1.5-1.57-1.5h0Z"/>
      <path class="cls-4" d="M455.01,141.06l.56-2.68c.39-1.84,1.32-2.99,3.34-2.99h2.74c2.04,0,2.86,1.15,2.47,2.99v.06c-.05.19-.16.29-.35.29h-1.08c-.21,0-.33-.07-.3-.21l.04-.2c.23-1.06-.07-1.31-.92-1.31h-2.74c-.85,0-1.25.23-1.48,1.31l-.59,2.81c-.22,1.05.1,1.29.92,1.29h2.74c.83,0,1.26-.23,1.48-1.29l.04-.27c.04-.17.16-.27.35-.27h1.08c.21,0,.32.09.3.23l-.05.25c-.38,1.83-1.22,2.98-3.26,2.98h-2.83c-2.04,0-2.84-1.15-2.47-2.98l.02-.02Z"/>
      <path class="cls-4" d="M465.1,143.71l1.71-8.05c.04-.18.16-.27.34-.27h6.7c.21,0,.32.11.27.33l-.21,1.03c-.04.17-.16.27-.35.27h-5.35l-.39,1.89h3.42c.21,0,.32.11.27.33l-.2.91c-.04.17-.16.27-.34.27h-3.47l-.43,2h5.29c.21,0,.32.11.27.33l-.21,1.03c-.04.17-.16.27-.35.27h-6.7c-.21,0-.32-.11-.27-.33h0Z"/>
      <path class="cls-4" d="M474.49,143.71l.32-1.5c.04-.17.16-.27.35-.27h1.06c.21,0,.32.11.27.33l-.32,1.49c-.04.17-.16.27-.35.27h-1.06c-.21,0-.32-.11-.27-.33h0Z"/>
    </g>
  </g>
  <g>
    <g>
      <g>
        <g>
          <g>
            <path class="cls-4" d="M111.21,66.85l14.02,1.82-10.82,10.2c-1.93.97-5.25,13.51-8.78,16.15-1.47,1.1-13.93,1-13.93,1l.65-7.08s2.42-7.1,18.85-22.09Z"/>
            <path class="cls-4" d="M101.74,78.88c3.33-3.59,6.75-8.12,9.46-11-3.28-1.53-4.32-.85-6.13-1.79-.06-.03-3.19-1.68-5.13-2.66l5.72,1.46s9.95.04,14.24,0c4.86-.04,12.88.52,20.07,1.98,5.72,1.16,17.05,3.92,20.03,9.19.87,1.53,1.59,5.77,1.62,6.93.11,4.28-.52,7.79-1.08,10.09,1.99-1.91,7.2-8.02,9.47-17.93,1.04-4.52,2.43-8.47,2.45-15.85.02-6.8-1.63-11.03-4.88-14.5-4.96-5.29-21.7-9.12-21.7-9.12,0,0-1.06,2.86-1.65,4.59-1.07,3.18-1.8,3.96-2.23,5.23l-4.05,10.85c.31-6.35.85-12.32,1.11-19.48l1.26-.13-6.19-13.9-12.15-4.86c-2.5-3.32-4.14-5.42-6.5-7.68-1.62-1.55-3.87-3.01-5.41-3.76.2,1.2.4,2.41.6,3.61l-7.67-3.19,1.92,3.91s-6.73-3.19-6.73-3.19c0,0-4.15,2.15-4.16,2.15-.1,0-36.77-5.18-37.33-5.24,7.17,2.07,22,5.85,29.36,7.31l-10.5.34c-8.73.97-15.55.53-28.08,4.8-6.08,2.31-10.17,12.04-16.5,18.24-13.47,13.22-19.18,26.28-19.18,26.28,9.52-5.93,23.49-13.75,38.03-17.22l-9.26,14.38,9.9-1.48s-2.22,2.02-3.7,7.23c-.84,2.96-.8,5.94-.38,10.99.45,5.47.77,5.97,1.07,10.82.25,3.99-.79,8.75-.79,8.75l2.05-1.27c3.71,3.23,12.55,11.32,12.55,11.32,0,0-3.36-9.08,6.74-20.37,3.44,3.18,4.76,4.6,6.29,5.93,1.95,1.7,3.27,3.05,4.84,4.42,2.82,2.45,4.42,3.79,5.51,4.6,0,0,6.44-1.91,7.77-4.93.23-.52,5.59,2.94,6.68.78M102.13,16.09l-9.71,1.01-6.01-5.1,15.72,4.09ZM107.69,60.15s.03-.06.03-.06h.28c-.1.02-.2.04-.31.06Z"/>
            <g>
              <g>
                <g>
                  <g>
                    <g>
                      <path class="cls-4" d="M134.14,22.84c3.33,9.15,4.26,11.47,4.95,13.6,1.75-.06,5.96.06,7.71,0-1.75-2.08-10.91-11.52-12.67-13.6Z"/>
                      <path class="cls-4" d="M149.81,28.57c-.83,1.83-2.69,5.19-3.6,7.44,1.29,1.03,6.56,3.95,8.06,5.18-1.29-2.81-3.12-9.03-4.46-12.62Z"/>
                      <path class="cls-4" d="M124.46,26.09c1.89,5.04,2.91,8.68,5.05,12.02,1.71-.2,2.76,0,3.85-.41-2.59-3.29-5.6-7.4-8.9-11.61Z"/>
                      <path class="cls-4" d="M120.61,44.79c.74.26,1.31.4,2.03.52.73.12,1.29.16,1.92.19,1.61-2.46,3.35-4.92,4.95-7.38-2.95,2.25-5.95,4.43-8.9,6.68Z"/>
                      <path class="cls-4" d="M108.89,18.9c4.87,2.02,11.08,4.89,15.58,7.19.79,1.99,1.25,3.05,2.04,5.04-5.45-3.78-12.17-8.45-17.62-12.23Z"/>
                      <path class="cls-4" d="M80.59,37.14c3.89,2.74,11.77,6.77,16.49,8.88-2.6-2.59-5.96-5.73-8.55-8.32-1.29-.15-6.65-.41-7.94-.56Z"/>
                      <path class="cls-4" d="M86.4,11.99c2.01,1.7,4.01,3.4,6.02,5.1,4.21-.44,8.43-.88,12.64-1.32-6.22-1.26-12.44-2.52-18.66-3.78Z"/>
                    </g>
                    <path class="cls-3" d="M97.89,7.84c3.72-2.26,8.31-6.5,11.5-5.93,3.65.66,6.1,2.96,6.1,2.96V1.91c1.62,2.28,3.64,4.85,4.37,6.64.39.96,1.04,2.97,1.44,4.4.65,2.69.46,3.38.67,5.03l-11.77-10.7.48,2.88-7.67-3.19,1.92,3.91s-4.99-2.3-7.03-3.04Z"/>
                    <path class="cls-4" d="M133.37,37.7c2.5,9.79,3.04,13.53,4.59,18.66-1.18-9.21-1.45-13.74-2.13-19.16q-1.09.22-2.46.5Z"/>
                  </g>
                  <g>
                    <path class="cls-3" d="M125.23,68.67c3.49-1.01,10.73-2.52,19.35,0,6.42,1.88,11.94,5.14,14.2,8.22-6.18-.79-13.02-1.47-20.16-3.24-4.6-1.14-9.34-3.63-13.4-4.97Z"/>
                    <path class="cls-3" d="M103.51,65.39c-2.71-1.2-5.04-2.23-5.04-2.23,0,0,28.9.81,44.35,3.58,11.4,2.04,15.13,5.38,17.19,9.32,2.14,4.1,2.21,7.62,1.54,10.62.04-1.72-.56-4.79-2.08-7.91-.56-1.15-1.39-3.55-6.09-5.96-7.79-3.98-15.39-4.61-19.73-4.78-1.9-.07-7.41.42-8.42.64-1.53-.03-3.34,0-5.22.04-5.68.12-11.31-1.01-16.5-3.32Z"/>
                  </g>
                  <path class="cls-4" d="M115.49,1.91c.06.16,3.25,4.02,5.11,8.78,1.37,3.5,1.31,7.14,1.37,7.28,4.06,1.62,8.11,3.24,12.17,4.86L115.49,1.91Z"/>
                  <path class="cls-3" d="M61.35,6.02c-2.8.87-7.56,1.7-13.87,5.49-5.05,3.03-9.5,5.63-14.36,11.32,10.02-2.63,32.58-7.86,42.45-10.59-3.54-1.81-10.01-4.45-14.21-6.22Z"/>
                  <path class="cls-4" d="M56.7,4.59l35.65,6.1L109.39,1.91C97.27.58,94.08.22,86.4.02,84.45-.03,69.52.02,69.52.02l1.65,2.34-14.47,2.23Z"/>
                  <polygon class="cls-4" points="134.14 22.84 146.08 36.17 149.81 28.57 134.14 22.84"/>
                  <polygon class="cls-4" points="139.09 36.44 137.95 56.36 146.21 36.01 139.09 36.44"/>
                  <polygon class="cls-4" points="134.14 22.84 136.92 13.81 149.81 28.57 134.14 22.84"/>
                  <polygon class="cls-4" points="115.49 1.91 134.14 22.84 136.25 15.99 131.63 12.7 126.3 9.1 115.49 1.91"/>
                  <polygon class="cls-4" points="129.52 38.11 124.56 45.5 133.37 37.7 129.52 38.11"/>
                  <polygon class="cls-4" points="75.57 12.25 86.12 11.92 58.7 4.86 75.57 12.25"/>
                  <polygon class="cls-4" points="127.94 48.81 130.63 43.26 133.27 47.21 130.96 45.52 127.94 48.81"/>
                  <polygon class="cls-3" points="129.15 15.82 133.45 17.8 131.82 15.74 132.74 15.94 128.49 11.51 130.82 15.62 129.15 15.82"/>
                </g>
                <path class="cls-5" d="M112.69,62.81c8.99-.91,19-2.17,28.73-.22,8.98,1.79,15.81,6.39,17.56,9.98-3.23-4.53-13.71-7.31-19.3-8-6.68-.82-27.62-1.69-26.99-1.76Z"/>
                <path class="cls-3" d="M152.49,43.58c-1.64.27-3.29.39-4.91.81,1.63.93,2.02,1.12,3.23,1.72.91.45,2.6-.15,2.9-1.12,0,0,0-.01,0-.02.24-.78-.42-1.53-1.22-1.39Z"/>
                <path class="cls-3" d="M98.47,63.15c10.31-1.72,24.49-7.67,34.8-9.39,4.51-5.76,11.05-15.36,19.65-16.06-7.06,2.54-14.76,12.17-18.78,18.26-10.8,1.4-24.87,5.8-35.67,7.19Z"/>
                <path class="cls-5" d="M137.95,17.19c2.67,2.86,7.45,7.51,10.54,11.38.8,1.97,1.12,3.49,1.61,5.24-.84-1.9-2.29-4.46-3.31-5.86-2.29-3.05-6.75-7.64-8.83-10.77Z"/>
                <path class="cls-3" d="M81.26,20.88c-6.1-2.15-9.13-1.78-13.99-.41,2.04.57,3.25,1.24,4.34,1.82-3.61.9-6.42,1.38-9.18,2.73,6.52.85,11.38,1.45,19,2.37-3.36-1.15-5.68-2.03-11.33-3.07,3.78-.58,4.55-.5,8.53-.04-1.72-2-4.93-3.52-6.5-3.71,4.75-.52,6.27,0,9.13.3Z"/>
                <path class="cls-3" d="M52.45,39.99c-11.11,1.09-12.46,1.67-17.06,3.86,6.1-1.39,10.48-2.25,13.17-1.91-4.33,1.85-10.24,4.8-13.92,7.55,6.44-2.47,11.47-4.22,14.74-4.35-2.02,2.13-5.05,7.09-6.01,9.41,5.01-5.55,9.05-7.54,14.55-8.83-1.9,0-5.77.12-7.78.86.64-1.29,2.71-2.77,3.81-3.15-1.87-.36-3.33,0-4.56.26,1-1.84,1.44-2.35,3.08-3.69Z"/>
                <path class="cls-5" d="M13.12,46.33c9.36-11.44,12.16-14.92,16.19-18.62,8.01-.31,11.57-.64,25.25-.64-20.23,3.57-30.14,10.87-41.44,19.26Z"/>
                <path class="cls-5" d="M146.7,43.68c.37-.41,2.7-2.92,5-2.34.81.2,1.37.73,1.72,1.17-.69-.14-1.53-.22-2.5-.13-1.67.15-3.14.74-4.22,1.3Z"/>
                <path class="cls-4" d="M47.49,17.04c-13.61,4.93-16.77,7.4-24.43,11.61,5.09-1.06,20.6-1.2,24.42-1.59.24-1.51-.23-8.51,0-10.02Z"/>
                <path class="cls-3" d="M61.35,6.02c-2.24.23-3.75.3-7.01,1.16-5.14,1.36-7.65,2.4-9.99,3.61,1.51.33,1.92.33,6.37,1.06,1.67.28,3.1.49,4.22.93,1.68-1.76,4.72-5,6.41-6.75Z"/>
                <path class="cls-5" d="M101.45,4.1c-5.57-1.5-8.35-1.46-12.95-1.73-4.65-.27-11.87.09-11.87.09,0,0,3.47.58,7.53.98-1.45.19-2.86.46-4.56.75-3.95.66-9.93,2.41-9.93,2.41,0,0,5.37-.26,10.03-1.06.79-.14,1.62-.29,2.47-.46,4.09-.82,8.27-1.18,12.44-1.11,2.74.05,5.29.06,6.85.13Z"/>
                <path class="cls-3" d="M155.84,46.78c.07-.89,1.24-3.42-.38-5.89-.95-1.45-2.81-2.47-3.56-2.93.44-.19.51-.22.95-.41.47.26,3,1,3.85,3.5.91,2.65-.66,5.29-.87,5.74Z"/>
                <path class="cls-5" d="M158.47,42.22s2.78,1.28,3.39,1.68c.52.34,1.32.82,1.75,1.18.67.56,1.21.98,2.18,1.91,1.49,1.44,1.95,2.27,3.01,4.28.25.48.38.69.58,1.44.25.89.33,1.58.42,2.17l.13,1.72v-1.58c0-.16-.02-.31-.03-.47-.09-1.07-.06-1.27-.24-2.1-.2-.89-.21-1.18-.7-2.27-.85-1.89-1.5-2.82-2.71-3.94-1.04-.95-2.66-1.94-4.51-2.79-.43-.2-3.26-1.23-3.26-1.23Z"/>
              </g>
              <polygon class="cls-4" points="36.13 120.44 29.09 100.92 45.98 101.87 36.13 120.44"/>
            </g>
            <polygon class="cls-3" points="36.15 77.17 29.09 100.92 45.98 101.87 36.15 77.17"/>
            <polygon class="cls-3" points="87.34 115.54 67.55 126.38 61.27 105.1 87.34 115.54"/>
            <path class="cls-3" d="M46.46,99.09c-.17-1.63-.04-8.98.83-12.22.96-3.6,3.53-5.38,6.39-6.14-1.31,1.27-2.97,2.8-3.75,5.43-.52,1.77-.71,2.57-.72,3.75.41-1.51.62-2.12,1.5-3.13,1.09-1.25,2.33-1.83,3.32-2.09-2.09,2.33-2.63,3.39-2.79,5.62-.23,3.15,1.12,6.23,2.79,7.84-1.38,0-6.19.93-7.57.93Z"/>
            <polygon class="cls-3" points="40.59 58.73 25.83 53.39 40.19 46.57 40.59 58.73"/>
            <polygon class="cls-3" points="36.15 77.17 19.73 67.29 25.83 53.39 36.15 77.17"/>
            <polygon class="cls-4" points="36.15 77.17 13.53 80.73 19.73 67.29 36.15 77.17"/>
          </g>
          <polygon class="cls-6" points="47.47 86.29 40.59 58.73 36.15 77.17 47.47 86.29"/>
          <polygon class="cls-4" points="61.27 105.1 67.55 126.38 45.98 101.87 61.27 105.1"/>
          <polygon class="cls-4" points="36.15 77.17 47.47 86.29 45.98 101.87 36.15 77.17"/>
          <polygon class="cls-3" points="47.07 91.47 61.27 105.1 45.79 101.87 47.07 91.47"/>
          <g>
            <path class="cls-1" d="M107.69,60.15c.11-.02.21-.04.31-.06h-.28s-.01.03-.03.06Z"/>
            <polygon class="cls-1" points="102.13 16.09 86.4 11.99 92.41 17.09 102.13 16.09"/>
          </g>
          <path class="cls-6" d="M56.36,55.6c-1.49,1.13-3.81,3.23-5.55,6.58-2.87,5.53-2.29,10.86-1.98,12.79.27-2.81.96-6.73,2.76-11.07,1.48-3.55,3.26-6.31,4.77-8.3Z"/>
          <path class="cls-3" d="M54.81,92.23c-.49.33-1.19.9-1.68,1.81-1.34,2.48.06,5.18.22,5.46l2.15.3c-.36-.35-1.47-1.56-1.71-3.49-.26-2.15.75-3.71,1.02-4.09Z"/>
          <path class="cls-3" d="M66.75,62.45c.42-2.32,2.85-7.08,2.85-7.08l-6.93,5.19s4.04-6.21,9.7-8.7c5.25-2.31,10.08-2.51,10.08-2.51h0s-3.11.97-8.55,4.85c-5.14,3.66-7.15,8.24-7.15,8.24Z"/>
        </g>
        <polygon class="cls-4" points="61.27 105.1 87.34 115.54 84.66 99.68 61.27 105.1"/>
      </g>
      <path class="cls-3" d="M146.32,34.25c-.99-3.07-1.49-4.04-2.51-6.72,1.65,2.47,4.98,8.27,6.43,10.69-3.26,1.37-10.49,7.11-13.05,10.5,1.08-1.5,2.14-2.53,2.97-5.17.67-2.12-.52-4.86-1.6-6.83-.67-1.23-1.09-2.18-3.7-4.8,1.79,1.21,4.65,3.36,6.79,6.74-.86-3.19-2.74-6.6-4.76-8.88,2.87,2.47,4.26,3.64,7.54,7.94-.62-2.26-5.43-9.59-8.44-12.72,3.02,1.9,4.12,3.17,5.81,4.81.41.39.81.81,1.19,1.23,1.3,1.46,2.21,2.29,3.34,3.21Z"/>
      <path class="cls-5" d="M138.04,19.14c2.49,1.83,4.26,2.84,7.35,6.71,1.04,1.46,1.68,2.58,2.5,4.21-1.4-1.3-3-3.25-4.15-4.46-2.76-3.05-3.61-3.33-5.69-6.46Z"/>
      <path class="cls-5" d="M131.76,42.76c1.24-1.33,1.8-3.15,1.75-4.97-.04-1.44-.32-3.23-1.28-4.72-.14-.21-.35-.54-.7-.91-.61-.64-1.69-1.38-4.18-2.11-1.68-.5-2.95-.82-5.94-1.05,4.23,1.49,4.64,1.71,6.62,2.79,1.58.86,2.05,1.3,2.66,1.97.86.94.76,2.48.67,3.29-.53-1.21-.92-1.77-2.1-2.47-.87-.51-1.63-.54-3.03,0,1.49.56,2.75,1.31,3.51,2.41.42.62.61,2.13-.06,2.65-.91.71-2.82-1.41-3.58-2.07-1.93-1.75-3.47-3.47-4.89-4.98-1.02-1.09-2.17-2.04-3.45-2.81-1.07-.64-2.18-1.16-3.77-1.76,2.03,1.98,2.76,2.69,4.25,4.51-5.13-3.24-11.85-7.3-19.88-11.77,4.37,4.19,5.65,5.24,10.26,10.1,2.05,1.9,6.42,3.93,10.65,5.59,3.14,2.27,6.17,7.83,7.84,8.08,1,.15,1.85-.01,1.85-.01,1.2-.26,1.97-.95,2.43-1.38.13-.12.26-.25.38-.37Z"/>
      <g>
        <path class="cls-3" d="M124.54,39.8c1.48,1.75,2.2,3.55,2.56,4.73-.94-.39-2.38-.86-4.13-.82-2.38.05-3.57.99-7.07,2.32-3.08,1.16-4.61,1.75-6.25,1.79-3.64.1-6.43-2.21-8.35-3.8-5.69-4.71-8.8-14.13-9.57-17.38,2.61,2.37,6.78,5.59,10.66,6.62,3.34.88,6.35,1.31,8.87,1.49-.56-.44-1.31-1.14-1.98-2.13-.52-.77-.86-1.49-1.07-2.07.8.65,2.05,1.57,3.71,2.45,2.62,1.39,3.47,1.18,6.18,2.4,1.88.85,4.39,1.98,6.44,4.4ZM118.55,41.37c-.39-.5-1.13-1.33-2.32-1.98-1.06-.58-2.04-.77-2.65-.84.04.25.33,2-.9,3.46-1.13,1.34-2.68,1.46-3.03,1.48-.2,0-.39,0-.58-.01-1.85-.16-3.48-1.54-3.91-3.1-.1-.4-.12-.76-.11-1.03.92.45,1.92.16,2.3-.5.31-.54.32-1.05-.04-1.49-.55-.67-1.73-.82-2.11-.86-1.59-.14-3.47-.34-7.31-1.85,2.13,4.63,4.8,7.3,6.45,8.68,1.92,1.62,3.34,1.68,4.06,1.79.19.03.38.05.56.06,1.62.13,2.95-.42,5.76-1.76,1.66-.79,2.97-1.54,3.8-2.05Z"/>
        <path class="cls-5" d="M116.23,39.38c1.19.65,1.93,1.48,2.32,1.98-.83.51-2.14,1.26-3.8,2.05-2.81,1.34-4.14,1.89-5.76,1.76l.09-1.71c.2.02.39.02.58.01.35-.02,1.9-.14,3.03-1.48,1.22-1.47.94-3.21.9-3.46.61.07,1.59.26,2.65.84Z"/>
        <path class="cls-5" d="M109.07,43.47l-.09,1.71c-.18,0-.37-.03-.56-.06-.73-.11-2.14-.18-4.06-1.79-1.66-1.39-4.33-4.06-6.45-8.68,3.83,1.5,5.72,1.71,7.31,1.85.37.03,1.56.18,2.11.86.36.44.35.96.04,1.49-.39.66-1.39.95-2.3.5-.01.27,0,.63.11,1.03.43,1.56,2.05,2.94,3.91,3.1Z"/>
      </g>
      <path class="cls-3" d="M95.46,36.35c1.31,3.33,2.03,5.05,3.17,6.79,1.51,2.3,3.22,4.04,5.27,5.1,1.58.81,4.11,2.22,8.52.96,3.15-.9,6.78-2.51,7.69-3.36-.35,1.06-1.56,2.12-3.88,3.4-5.5,3.05-10.26,2.39-13.52.97-6.03-2.63-10.28-15.63-10.28-15.63"/>
      <path class="cls-3" d="M79.62,31.59c4.91,1.59,12.63,4.4,17.54,5.99-.64-1.38-1.31-3.62-1.95-5-4.27-.2-11.32-.78-15.59-.99Z"/>
      <path class="cls-3" d="M93.13,34.64c-1.13,2.98,1.6,9.26,4.03,14.07-5.94-5.12-8.88-12.08-9.74-14.9,1.64-.25,4.08,1.08,5.72.83Z"/>
    </g>
    <polygon class="cls-3" points="67.55 126.38 92.92 171.8 93.05 139.42 67.55 126.38"/>
    <polygon class="cls-3" points="0 138.21 36.13 120.44 18.66 105.62 0 138.21"/>
    <polygon class="cls-3" points="128.57 137.63 114.95 107.61 103.68 122.2 128.57 137.63"/>
    <polygon class="cls-6" points="93.05 139.42 121.65 162.61 103.68 122.2 93.05 139.42"/>
    <polygon class="cls-3" points="67.55 126.38 58.43 145.21 45.98 101.87 67.55 126.38"/>
    <polygon class="cls-3" points="36.13 120.44 24.97 155.65 54.87 132.59 36.13 120.44"/>
    <polygon class="cls-6" points="58.43 145.21 62.32 171.8 74.84 139.42 58.43 145.21"/>
    <polygon class="cls-6" points="14.72 131.47 5.91 153.81 29.71 140.68 14.72 131.47"/>
    <polygon class="cls-3" points="35.44 147.58 44.42 169.84 58.43 145.21 35.44 147.58"/>
    <polygon class="cls-3" points="112.13 140.98 125.23 148.59 121.3 133.06 112.13 140.98"/>
    <polygon class="cls-6" points="93.05 155.49 107.09 171.8 107.45 151.27 93.05 155.49"/>
    <polygon class="cls-3" points="66.89 161.01 79.72 180.22 82.53 152.76 66.89 161.01"/>
    <polygon class="cls-6" points="21.76 79.43 4.52 111.62 29.09 101.12 21.76 79.43"/>
    <path class="cls-3" d="M120.61,68.07c-1.14.2-3.08.93-4.68,2.22-2.22,1.79-3.44,3.37-4.22,4.38,1.25-.66,3.58-.4,4.83-1.06-.43.48-1.13,1.23-2.03,2.11-1.54,1.52-3.53,4.64-3.52,5.34,0,.28,2.82-1.18,2.82-1.18,0,0,7.09-1.92,10.73-3.05,5.3-1.64,10.37-2.95,15.13-4-.08-.06-.3-.18-.62-.33-.63-.29-1.13-.47-1.29-.52-2.32-.75-4.44-2.39-6.75-2.95-3.68-.89-7.77-1.23-10.4-.96Z"/>
    <path class="cls-3" d="M112.37,78.36c-.83,1.14-3.39,4.65-4.24,6.25-.89,1.67-1.54,3.24-2.02,4.62-.13-.92-.16-2.52-.14-5.41.03-2.98.7-5.49,1.11-7.67-1.15,1.01-3.66,3.92-6.93,8.85-2.52,3.81-1.29,6.06.09,8.85-9.56,2.04-9.78-11.47-9.78-11.47,0,0-6.02,14.27-5.82,17.29,3.61-.9,9.58-1.31,13.19-2.21,5.24-1.11,10.34-.13,10.34-.13,0,0,.23-2.8.7-5.11,0,0,.39-1.83.53-2.45.35-1.52-.31-1.91,0-3.49.17-.84,1.37-1.99,1.58-2.82.79-3.09,2.82-3.59,2.82-3.59,0,0-.84-.85-1.44-1.52Z"/>
    <path class="cls-3" d="M113.82,79.89l-4.23,18.45-24.92,1.34c4.95-3.36,14.13-3.25,19.09-6.61,4.76-3.23,7.25-13.54,10.06-13.18Z"/>
    <polygon class="cls-4" points="115.5 108.32 113.81 79.89 103.68 122.2 115.5 108.32"/>
    <polygon class="cls-6" points="109.39 98.35 103.68 122.2 87.34 115.54 109.39 98.35"/>
    <polygon class="cls-3" points="93.05 139.42 103.68 122.2 87.34 115.54 93.05 139.42"/>
  </g>
</svg>