<?xml version="1.0" encoding="UTF-8"?>
<svg id="Layer_1" xmlns="http://www.w3.org/2000/svg" version="1.1" viewBox="0 0 500 160">
  <!-- Generator: Adobe Illustrator 29.3.1, SVG Export Plug-In . SVG Version: 2.1.0 Build 151)  -->
  <defs>
    <style>
      .st0 {
        fill: none;
      }

      .st1 {
        fill: #d35127;
      }

      .st2 {
        fill: #dad9d9;
      }

      .st3 {
        fill: #f16022;
      }

      .st4 {
        fill: #09668d;
      }

      .st5 {
        fill: #bfbfbf;
      }
    </style>
  </defs>
  <g>
    <g>
      <g>
        <path class="st4" d="M143.42,111.94v-63.19c0-14.48,11.74-26.22,26.22-26.22h47.15c1.03,0,1.74,1.03,1.38,1.99l-2.96,7.89c-.72,1.91-2.55,3.18-4.59,3.18h-39.98c-7.92,0-14.35,6.42-14.35,14.35v9.38h42.5c1.03,0,1.74,1.03,1.38,1.99l-2.96,7.89c-.72,1.91-2.55,3.18-4.59,3.18h-36.32v40.75h-11.68c-.66,0-1.2-.54-1.2-1.2Z"/>
        <path class="st4" d="M324.58,39.2h5.49c1.03,0,1.74,1.04,1.37,2l-2.92,7.57c-.69,1.8-2.38,3.04-4.31,3.13-16.38.77-23.75,13.96-23.75,24v35.81c0,.66-.54,1.2-1.2,1.2h-11.71c-.66,0-1.2-.54-1.2-1.2v-35.47c0-21.57,15.56-37.05,38.22-37.05Z"/>
        <path class="st4" d="M330.72,102.95l41.71-51.06h-38.61c-1.03,0-1.74-1.04-1.37-2l3.77-9.75c.22-.57.76-.94,1.37-.94h52.27c.66,0,1.2.54,1.2,1.2v8.77l-41.71,51.06h39.56c1.03,0,1.74,1.04,1.37,2l-2.92,7.55c-.73,1.89-2.55,3.14-4.57,3.14h-50.87c-.66,0-1.2-.54-1.2-1.2v-8.77Z"/>
        <path class="st4" d="M467.13,77.15v34.63c0,.66-.54,1.2-1.2,1.2h-4.8c-1.79,0-3.43-.97-4.29-2.54l-3.51-6.35c-4.51,6.63-17.08,11.01-25.7,11.01-21.76,0-38.12-16.98-38.12-37.95s16.36-37.95,38.12-37.95,39.5,16.98,39.5,37.95ZM453.34,77.15c0-14.22-11.48-25.7-25.7-25.7s-25.7,11.48-25.7,25.7,11.48,25.7,25.7,25.7,25.7-11.48,25.7-25.7Z"/>
        <path class="st4" d="M243.91,115.25c-21.89,0-37.55-16.98-37.55-37.95s15.66-37.95,37.55-37.95,37.55,16.98,37.55,37.95-15.65,37.95-37.55,37.95ZM269.65,77.3c0-14.22-11.48-25.7-25.7-25.7s-25.7,11.48-25.7,25.7,11.48,25.7,25.7,25.7,25.7-11.48,25.7-25.7Z"/>
      </g>
      <g>
        <path class="st4" d="M480.41,39.2h-13.03c-.16,0-.25.08-.25.25v2.45c0,.16.08.25.25.25h4.83l.02,6.63c0,.07.02.12.07.17.05.05.11.07.17.07h2.85c.16,0,.25-.08.25-.25v-6.63h4.83c.16,0,.25-.08.25-.25v-2.45c0-.16-.08-.25-.25-.25Z"/>
        <path class="st4" d="M497.02,39.2h-3.17s-.09.02-.12.05l-4.42,3.97-4.42-3.97s-.07-.05-.12-.05h-3.17c-.16,0-.25.08-.25.25v9.32c0,.16.08.25.25.25h2.85c.16,0,.25-.08.25-.25v-5.72l-.02-.32,3.8,3.71s.07.05.12.05h1.42s.09-.02.12-.05l3.83-3.73-.05.34v5.72c0,.16.08.25.25.25h2.85c.16,0,.25-.08.25-.25v-9.32c0-.16-.08-.25-.25-.25Z"/>
      </g>
    </g>
    <g>
      <path class="st3" d="M144.1,134.14l.63-3c.44-2.06,1.47-3.35,3.73-3.35h3.54c2.26,0,3.21,1.29,2.76,3.35l-.63,3c-.43,2.05-1.46,3.33-3.73,3.33h-3.53c-2.28,0-3.2-1.29-2.77-3.33ZM150.56,135.65c1,0,1.43-.37,1.66-1.44l.66-3.14c.23-1.1-.02-1.46-1.04-1.46h-3.53c-1.02,0-1.42.36-1.66,1.46l-.66,3.14c-.23,1.07.03,1.44,1.03,1.44h3.54Z"/>
      <path class="st3" d="M156.67,134.14l1.28-6.05c.04-.2.18-.3.38-.3h1.21c.23,0,.36.12.3.37l-1.28,6.05c-.25,1.18.11,1.44,1.03,1.44h3.09c.92,0,1.41-.26,1.66-1.44l1.28-6.12c.04-.2.18-.3.38-.3h1.22c.23,0,.36.12.3.37l-1.26,5.98c-.44,2.05-1.47,3.33-3.74,3.33h-3.07c-2.28,0-3.2-1.29-2.77-3.33Z"/>
      <path class="st3" d="M178.79,131.28l-.05.22c-.36,1.73-1.04,2.88-2.65,3.28l1.11,2.29c.11.23,0,.4-.26.4h-1.36c-.19,0-.33-.08-.4-.26l-.99-2.28h-3.49l-.47,2.23c-.04.19-.18.3-.38.3h-1.21c-.23,0-.36-.12-.3-.37l1.91-9.01c.04-.2.18-.3.39-.3h4.77c2.81,0,3.87,1.18,3.37,3.5ZM175.12,129.61h-3.27l-.75,3.51h3.28c1.46,0,2.11-.25,2.46-1.65l.04-.19c.33-1.4-.26-1.68-1.76-1.68Z"/>
      <path class="st3" d="M186.9,137.1l1.59-7.48h-2.92c-.23,0-.36-.12-.3-.37l.23-1.16c.04-.2.18-.3.38-.3h7.82c.23,0,.36.12.3.37l-.23,1.17c-.04.19-.18.3-.38.3h-2.99l-1.61,7.55c-.04.19-.18.3-.38.3h-1.21c-.23,0-.36-.12-.3-.37Z"/>
      <path class="st3" d="M194.15,137.1l1.91-9.01c.04-.2.18-.3.38-.3h7.49c.23,0,.36.12.3.37l-.23,1.15c-.04.19-.18.3-.39.3h-5.98l-.44,2.11h3.82c.23,0,.36.12.3.37l-.22,1.02c-.04.19-.18.3-.38.3h-3.88l-.48,2.24h5.92c.23,0,.36.12.3.37l-.23,1.15c-.04.19-.18.3-.39.3h-7.49c-.23,0-.36-.12-.3-.37Z"/>
      <path class="st3" d="M212.93,137.17l-.34-1.37h-5.56l-.97,1.46c-.1.15-.23.22-.41.22h-1.46c-.27,0-.38-.18-.22-.41l6.3-9.06c.1-.15.23-.22.41-.22h1.47c.21,0,.33.08.38.29l2.42,9.02c.07.25-.04.38-.29.38h-1.36c-.21,0-.33-.11-.37-.3ZM212.2,134.23l-1.1-4.46-3.02,4.46h4.12Z"/>
      <path class="st3" d="M216.94,137.1l1.91-9.01c.04-.2.18-.3.39-.3h1.32c.19,0,.33.08.4.27l2.24,5.63,4.53-5.69c.11-.15.25-.21.43-.21h1.63c.23,0,.36.12.3.37l-1.91,9.01c-.04.19-.18.3-.38.3h-1.19c-.23,0-.36-.12-.3-.37l1.33-6.26-3.98,4.82c-.11.13-.25.19-.43.19h-.77c-.19,0-.33-.08-.4-.28l-1.88-4.72-1.34,6.31c-.04.19-.18.3-.39.3h-1.19c-.23,0-.36-.12-.3-.37Z"/>
      <path class="st3" d="M230.84,137.1l.36-1.68c.04-.19.18-.3.39-.3h1.19c.23,0,.36.12.3.37l-.36,1.67c-.04.19-.18.3-.39.3h-1.19c-.23,0-.36-.12-.3-.37Z"/>
      <path class="st3" d="M240.25,134.14l.63-3c.44-2.06,1.47-3.35,3.73-3.35h3.54c2.26,0,3.21,1.29,2.76,3.35l-.63,3c-.43,2.05-1.46,3.33-3.73,3.33h-3.53c-2.28,0-3.2-1.29-2.77-3.33ZM246.71,135.65c1,0,1.43-.37,1.66-1.44l.66-3.14c.23-1.1-.02-1.46-1.04-1.46h-3.53c-1.02,0-1.42.36-1.66,1.46l-.66,3.14c-.23,1.07.03,1.44,1.03,1.44h3.54Z"/>
      <path class="st3" d="M252.82,134.14l1.28-6.05c.04-.2.18-.3.38-.3h1.21c.23,0,.36.12.3.37l-1.28,6.05c-.25,1.18.11,1.44,1.03,1.44h3.09c.92,0,1.41-.26,1.66-1.44l1.28-6.12c.04-.2.18-.3.38-.3h1.22c.23,0,.36.12.3.37l-1.26,5.98c-.44,2.05-1.47,3.33-3.74,3.33h-3.07c-2.28,0-3.2-1.29-2.77-3.33Z"/>
      <path class="st3" d="M274.94,131.28l-.05.22c-.36,1.73-1.04,2.88-2.65,3.28l1.11,2.29c.11.23,0,.4-.26.4h-1.36c-.19,0-.33-.08-.4-.26l-.99-2.28h-3.49l-.47,2.23c-.04.19-.18.3-.38.3h-1.21c-.23,0-.36-.12-.3-.37l1.91-9.01c.04-.2.18-.3.39-.3h4.77c2.81,0,3.87,1.18,3.37,3.5ZM271.27,129.61h-3.27l-.75,3.51h3.28c1.46,0,2.11-.25,2.46-1.65l.04-.19c.33-1.4-.26-1.68-1.76-1.68Z"/>
      <path class="st3" d="M280.57,134.52c.03-.21.16-.32.37-.32h1.22c.23,0,.33.14.31.37-.08.78.23,1.07,1.1,1.07h2.69c1.04,0,1.47-.26,1.65-1.06.16-.77-.14-.96-1.03-1.03l-2.81-.24c-2.07-.16-3-.96-2.62-2.77.4-1.85,1.28-2.77,3.68-2.77h2.5c2.2,0,3.16.99,2.85,2.95-.03.21-.16.31-.37.31h-1.22c-.23,0-.33-.13-.31-.37.08-.78-.23-1.07-1.11-1.07h-2.47c-1.06,0-1.47.25-1.65,1.06-.16.76.12.94,1.06,1.02l2.81.21c2.06.15,2.96.98,2.58,2.77-.4,1.85-1.26,2.81-3.66,2.81h-2.7c-2.2,0-3.16-.99-2.85-2.95Z"/>
      <path class="st3" d="M292.02,134.14l.63-3c.44-2.06,1.48-3.35,3.74-3.35h3.06c2.28,0,3.2,1.29,2.76,3.35v.07c-.06.21-.18.32-.39.32h-1.21c-.23,0-.37-.08-.34-.23l.04-.22c.26-1.19-.08-1.46-1.03-1.46h-3.06c-.95,0-1.4.26-1.66,1.46l-.66,3.14c-.25,1.18.11,1.44,1.03,1.44h3.06c.93,0,1.41-.26,1.66-1.44l.05-.3c.04-.19.18-.3.39-.3h1.21c.23,0,.36.1.33.26l-.06.28c-.42,2.05-1.37,3.33-3.65,3.33h-3.16c-2.28,0-3.18-1.29-2.76-3.33Z"/>
      <path class="st3" d="M303.3,137.1l1.91-9.01c.04-.2.18-.3.39-.3h1.19c.23,0,.36.12.3.37l-1.91,9.01c-.04.19-.18.3-.39.3h-1.19c-.23,0-.36-.12-.3-.37Z"/>
      <path class="st3" d="M307.87,137.1l1.91-9.01c.04-.2.18-.3.39-.3h7.49c.23,0,.36.12.3.37l-.23,1.15c-.04.19-.18.3-.39.3h-5.98l-.44,2.11h3.82c.23,0,.36.12.3.37l-.22,1.02c-.04.19-.18.3-.38.3h-3.88l-.48,2.24h5.92c.23,0,.36.12.3.37l-.23,1.15c-.04.19-.18.3-.39.3h-7.49c-.23,0-.36-.12-.3-.37Z"/>
      <path class="st3" d="M318.38,137.1l1.91-9.01c.04-.2.18-.3.38-.3h1.25c.18,0,.31.07.41.23l3.86,6.77,1.43-6.7c.04-.2.18-.3.38-.3h1.21c.23,0,.36.12.3.37l-1.91,9.01c-.04.19-.18.3-.38.3h-1.23c-.18,0-.32-.07-.41-.23l-3.88-6.82-1.41,6.75c-.04.19-.18.3-.38.3h-1.21c-.23,0-.36-.12-.3-.37Z"/>
      <path class="st3" d="M330.73,134.14l.63-3c.44-2.06,1.48-3.35,3.74-3.35h3.06c2.28,0,3.2,1.29,2.76,3.35l-.02.07c-.04.21-.16.32-.37.32h-1.21c-.23,0-.37-.08-.34-.23l.04-.22c.26-1.19-.08-1.46-1.03-1.46h-3.06c-.95,0-1.4.26-1.66,1.46l-.66,3.14c-.25,1.18.11,1.44,1.03,1.44h3.06c.93,0,1.41-.26,1.66-1.44l.05-.3c.04-.19.18-.3.39-.3h1.21c.23,0,.36.1.33.26l-.06.28c-.42,2.05-1.37,3.33-3.65,3.33h-3.16c-2.28,0-3.18-1.29-2.76-3.33Z"/>
      <path class="st3" d="M342.02,137.1l1.91-9.01c.04-.2.18-.3.38-.3h7.49c.23,0,.36.12.3.37l-.23,1.15c-.04.19-.18.3-.39.3h-5.98l-.44,2.11h3.82c.23,0,.36.12.3.37l-.22,1.02c-.04.19-.18.3-.38.3h-3.88l-.48,2.24h5.92c.23,0,.36.12.3.37l-.23,1.15c-.04.19-.18.3-.39.3h-7.49c-.23,0-.36-.12-.3-.37Z"/>
      <path class="st3" d="M352.52,137.1l.36-1.68c.04-.19.18-.3.39-.3h1.19c.23,0,.36.12.3.37l-.36,1.67c-.04.19-.18.3-.39.3h-1.19c-.23,0-.36-.12-.3-.37Z"/>
      <path class="st3" d="M364.83,137.1l.49-2.3-2.83-6.62c-.1-.23,0-.4.26-.4h1.23c.19,0,.33.08.4.26l2.08,5,4.14-5.06c.11-.14.25-.19.43-.19h1.58c.29,0,.39.19.19.42l-5.58,6.59-.51,2.37c-.04.19-.18.3-.38.3h-1.21c-.23,0-.36-.12-.3-.37Z"/>
      <path class="st3" d="M372.8,134.14l.63-3c.44-2.06,1.47-3.35,3.73-3.35h3.54c2.26,0,3.21,1.29,2.76,3.35l-.63,3c-.43,2.05-1.46,3.33-3.73,3.33h-3.53c-2.28,0-3.2-1.29-2.77-3.33ZM379.27,135.65c1,0,1.43-.37,1.66-1.44l.66-3.14c.23-1.1-.02-1.46-1.04-1.46h-3.53c-1.02,0-1.42.36-1.66,1.46l-.66,3.14c-.23,1.07.03,1.44,1.03,1.44h3.54Z"/>
      <path class="st3" d="M385.38,134.14l1.28-6.05c.04-.2.18-.3.38-.3h1.21c.23,0,.36.12.3.37l-1.28,6.05c-.25,1.18.11,1.44,1.03,1.44h3.09c.92,0,1.41-.26,1.66-1.44l1.28-6.12c.04-.2.18-.3.38-.3h1.22c.23,0,.36.12.3.37l-1.26,5.98c-.44,2.05-1.47,3.33-3.74,3.33h-3.07c-2.28,0-3.2-1.29-2.77-3.33Z"/>
      <path class="st3" d="M407.5,131.28l-.05.22c-.36,1.73-1.04,2.88-2.65,3.28l1.11,2.29c.11.23,0,.4-.26.4h-1.36c-.19,0-.33-.08-.4-.26l-.99-2.28h-3.49l-.47,2.23c-.04.19-.18.3-.38.3h-1.21c-.23,0-.36-.12-.3-.37l1.91-9.01c.04-.2.18-.3.39-.3h4.77c2.81,0,3.87,1.18,3.37,3.5ZM403.82,129.61h-3.27l-.75,3.51h3.28c1.46,0,2.11-.25,2.46-1.65l.04-.19c.33-1.4-.26-1.68-1.76-1.68Z"/>
      <path class="st3" d="M412.93,137.1l1.91-9.01c.04-.2.18-.3.38-.3h7.27c.23,0,.36.12.3.37l-.23,1.15c-.04.19-.18.3-.38.3h-5.76l-.44,2.11h3.65c.23,0,.36.12.3.37l-.22,1.02c-.04.19-.18.3-.39.3h-3.72l-.8,3.76c-.04.19-.18.3-.39.3h-1.19c-.23,0-.36-.12-.3-.37Z"/>
      <path class="st3" d="M423.12,134.14l.63-3c.44-2.06,1.47-3.35,3.73-3.35h3.54c2.26,0,3.21,1.29,2.76,3.35l-.63,3c-.43,2.05-1.46,3.33-3.73,3.33h-3.53c-2.28,0-3.2-1.29-2.77-3.33ZM429.58,135.65c1,0,1.43-.37,1.66-1.44l.66-3.14c.23-1.1-.02-1.46-1.04-1.46h-3.53c-1.02,0-1.42.36-1.66,1.46l-.66,3.14c-.23,1.07.03,1.44,1.03,1.44h3.54Z"/>
      <path class="st3" d="M445.45,131.28l-.05.22c-.36,1.73-1.04,2.88-2.65,3.28l1.11,2.29c.11.23,0,.4-.26.4h-1.36c-.19,0-.33-.08-.4-.26l-.99-2.28h-3.49l-.47,2.23c-.04.19-.18.3-.38.3h-1.21c-.23,0-.36-.12-.3-.37l1.91-9.01c.04-.2.18-.3.38-.3h4.78c2.81,0,3.87,1.18,3.37,3.5ZM441.77,129.61h-3.27l-.75,3.51h3.28c1.46,0,2.11-.25,2.46-1.65l.04-.19c.33-1.4-.26-1.68-1.76-1.68Z"/>
      <path class="st3" d="M446.95,134.14l.63-3c.44-2.06,1.48-3.35,3.74-3.35h3.06c2.28,0,3.2,1.29,2.76,3.35v.07c-.06.21-.18.32-.39.32h-1.21c-.23,0-.37-.08-.34-.23l.04-.22c.26-1.19-.08-1.46-1.03-1.46h-3.06c-.95,0-1.4.26-1.66,1.46l-.66,3.14c-.25,1.18.11,1.44,1.03,1.44h3.06c.93,0,1.41-.26,1.66-1.44l.05-.3c.04-.19.18-.3.39-.3h1.21c.23,0,.36.1.33.26l-.06.28c-.42,2.05-1.37,3.33-3.65,3.33h-3.16c-2.28,0-3.18-1.29-2.76-3.33Z"/>
      <path class="st3" d="M458.23,137.1l1.91-9.01c.04-.2.18-.3.38-.3h7.49c.23,0,.36.12.3.37l-.23,1.15c-.04.19-.18.3-.39.3h-5.98l-.44,2.11h3.82c.23,0,.36.12.3.37l-.22,1.02c-.04.19-.18.3-.38.3h-3.88l-.48,2.24h5.92c.23,0,.36.12.3.37l-.23,1.15c-.04.19-.18.3-.39.3h-7.49c-.23,0-.36-.12-.3-.37Z"/>
      <path class="st3" d="M468.74,137.1l.36-1.68c.04-.19.18-.3.39-.3h1.19c.23,0,.36.12.3.37l-.36,1.67c-.04.19-.18.3-.39.3h-1.19c-.23,0-.36-.12-.3-.37Z"/>
    </g>
  </g>
  <g>
    <polygon class="st0" points="33.49 48.65 22.65 35.99 20.18 51.34 33.49 67.86 33.49 48.65"/>
    <path class="st0" d="M49.8,19.36s-11.48-.86-19.85,3.97l-7.3,12.66,17.6-12.66,9.55-3.97Z"/>
    <polygon class="st0" points="33.49 48.65 60.43 43.79 38.43 43.83 40.14 31.06 47.96 33.55 40.25 23.33 33.49 48.65"/>
    <polygon class="st0" points="51.95 58.26 55.81 50.91 60.43 43.79 50.88 57.13 33.49 67.86 53.13 96.3 57.52 70.46 51.95 58.26"/>
    <polygon class="st0" points="18.57 71.4 25.12 86.64 20.18 51.34 18.57 71.4"/>
    <polygon class="st0" points="25.12 86.64 33.49 101.45 35.86 77.76 43.04 107.78 33.49 67.86 25.12 86.64"/>
    <path class="st3" d="M69.95,72.69s0-.02,0-.02c-4.84-5.39-14.14-21.76-14.14-21.76l1.71,19.55,12.42,2.23Z"/>
    <path class="st3" d="M127.45,74.78c2.57-3.81,2.6-6.95,2.42-8.36-.65.93-1.27,1.63-1.51,1.87-.63.63-1.54,4.56-1.61,5.41-.04.47.42.81.71,1.08Z"/>
    <path class="st3" d="M108.49,104.93c-.91,0-1.47,1.12-4.14.84-2.67-.28-13.46-6.15-15.94-8.78-3.37-3.58-4.68-6.89-2.94-11.46.87-2.3,3.66-5.55,9.95-7.54,2.11-.75,4.46-1.24,6.49-1.55-2.69-1.11-5.34-2.79-7.67-5.29,3.02,1.63,6.77.79,6.77.79-1.97-1.06-5.01-3.71-6.37-7.09,3.43,2.39,6.19,2.28,7.66,2.21-.87-1.04-3.12-2.8-3.84-5.7,3.52,2.3,6,2.67,6.4,2.74.39.07-1.49-1.95,1.53-7.41-1.17,5.35-1.27,8.05,5.95,9.91-3.57.65-7.3-.47-9.47-1.68,1.64,1.93,4.83,3.79,8.64,4.49-4.31.68-6.9-.69-6.9-.69,3.18,2.33,5.84,2.77,9.77,2.99-3.15.66-7.77.99-14.15-2.03,1.22,1.59,4.41,3.31,8.31,3.92-2.85,1.04-9.31-.02-9.31-.02,1.4,1.14,7.85,4.3,14.94,3.9,3.36-.48,6.98-1.72,9.23-2.75.92-.42,1.75-.82,2.44-1.12,2.95-6.25-.21-8.14-2.53-10.04-2.32-1.9-4.77-4.49-5.2-6.88,2.6,4.07,3.35,4.7,5.18,5.05,1.83.35,2.9-1.97,4.58-1.9,1.68.07,2.18,1.79,2.91,1.9.59.08.85-.25,1.09-.53-.04-4.99-20.75-17.44-20.75-17.44l-.66-3.02c-.23-1.06-.78-2.02-1.58-2.76-2.24-2.08-7.32-6.72-13.1-11.61,1.18,1.11,2.11,2.04,2.11,2.04l-7.53-5.29,3.42,5.81-5.79-5.81,3.52,6.51-2.93-2.65c.31.32,1.37,1.97-.6,8.15,1.56-5.83-1.69-12.8-13.21-21.45,5.08,1.5,9.87,4.44,10.95,7.08-1.07-2.65-2.5-5.29-5.01-7.87,6.22,3.65,8.66,6.58,8.66,6.58-2.43-4.86-6.65-9.16-12.52-11.3,5.42,1.98,12.96,3.86,14.93,12.64-2.74-19.45-40.51-13.86-47.13-9.85,0,0,27.19-1.58,40.36,13.94,3.02,3.57,3.71,7.03,2.97,10.24-.09-.59-.2-1.19-.35-1.82-2.11-9.2-13.9-19.92-22.8-13.59-8.91,6.33-4.4,24.04-4.4,24.04l-4.61,7.11,4.61-7.08c1.07,4.83,3.52,13.84,6.53,17.28-3.06-2.98-5.31-5.42-6.16-7.3,2,6.7,6.74,16.31,9.15,18.86.85-3.45.3-10.89-2.84-19.61,3.4,9.44,7.27,7.31,7.27,7.31,0,0-4.58,5.04,5.37,8.84-3.04-.14-7.33-2.58-7.33-2.58,4.15,3.61,3.36,9.96,3.36,9.96-1.4-4.85-2.29-7.3-4.18-7.3,1.39,5.78-2.56,11.34,1.35,18.86-1.05-.71-1.89-1.5-2.56-2.33,1.58,10.92,7,25.1,24.19,27.69-5.79,2.71-9.44,1.75-9.44,1.75,6.01,4.51,8.34,5.53,10.19,6.12-11.12,1.22-25.22-10.69-28.22-13.8,0,0,1.45,17.49-1.17,34.62,9.77-6.62,10-14.82,10-14.82,0,0,2.19,10.85-2.83,22.72,6.62-4.29,13.23-14.53,13.23-14.53,0,0,1.89,11.88,7.31,17.39-.54-3.22,2.84-8.82,3.97-17.45.31-2.38,2.15-11.91-2.47-21.92,0,0,3.15,2.15,3.58,2.58s1.86,1.29,2.65,4.29c1.36-1.93,1.5-4.01,1.36-5.44.64.29,1.07,3.43,1,4.36.79-.57,1.36-3.22,1.5-4.44.36,1.07.29,4.36.36,7.3,0,0,3.22-3.93,3.22-7.94,0,0,.64,1.65,1.07,3.08,1.09-1.22,1.41-5.57,1.49-8.78h.04s-.03-.21-.03-.21c.04-1.87,0-3.3,0-3.44-.78.38-2-.02-2.9-.02ZM122.79,59.48c.6.36,1.01.43,1.66.12.67-.29,1.14-.82,1.85-1.16,1-.47,2.09-.31,3.02.17-.37-.51-.78-1-1.22-1.48,1.19.67,2.22,1.66,2.97,2.81.3.38-.16.9-.57.65-.09-.05-.19-.14-.27-.2-.93-.86-2.24-1.52-3.47-.97-.54.22-1.11.82-1.93,1.12-.44.15-.85.26-1.34.19-.48-.09-.85-.32-1.17-.56-1.22-.98-2.04-2.25-2.71-3.62.98,1.04,1.98,2.18,3.18,2.93ZM51.59,9.91c8.59-2.47,20.26-3.24,28.4.93-9.3-2.43-18.93-1.56-28.4-.93ZM103.74,51.77l1.5,2.43-5.15-3.86c-4.44.57-7.8.09-9.23-3.22-.07,2.43.5,3.29.5,3.29-2.22-1.72-2.72-4.29-2.15-5.29.56-.98-.67.98-5.71-1.43-.12-.04-.22-.09-.3-.14.11.05.2.09.3.14,2.52.9,13.28-.89,16.22-.14-1.79.64-2.5,1.07-2.5,1.07l13.59,11.23-7.08-4.08ZM107.37,37.69c.14.13.51.43.66.55,2.2,1.49,1.91,4.42,2.25,6.74.11,1.08.2,2.16.26,3.25-.3-1.04-.58-2.1-.83-3.15-.12-.47-.24-1-.36-1.53-.26-1.12-.64-2.22-1.19-3.24-.28-.53-.6-1.04-1.03-1.48-3.5-3.22-6.96-6.47-10.34-9.82,3.59,2.82,7.1,5.73,10.59,8.67ZM101.81,39.61c1.93,1.72,6.44,10.23,8.51,11.95-4.44-3.22-7.94-9.23-10.66-9.59-2.72-.36-20.46,1.36-21.53.07,4.72-.14,14.52-1.86,14.52-1.86l-8.37-1.43s15.6-.86,17.53.86ZM77.05,20.9c1.97,1.22,3.65,2.78,5.05,4.54-2.25-1.45-4.39-2.83-6.81-3.78-6.72-2.64-10.99,1.12-14.33,6.78,1.79-7.91,8.76-12.07,16.09-7.55ZM63.54,38.54s-.48-4.02,1.65-6.15c0,0-1.86.6-2.65,2.77,0-3.68,1.48-5.5,4.65-7.06,0,0-1.23-.4-4.29.16,2.86-3,8.16-2.39,8.16-2.39,0,0-1.48-1.07-4.09-1.4,5.59-1.56,8.88,1.04,8.88,1.04,0,0-.53-1.04-2.3-1.84,3.51,0,6.02,2.77,7.59,5.2-.86-1.36-4.44-1.57-7.44-1.72,2.42.59,3.63,2.79,4.14,5.12-.07-.29-2.2-2.47-3.78-3.34,0,0,2.5,3.28,2.07,6.22-.29-1.22-1.14-2.72-3.19-3.7.96,1.04,2.22,2.67,1.98,6.14-.07-.57-.2-1-1.34-2.93,0,0,.78,2.33.34,5.44,0,0-.42-2.67-1.39-3.67,0,0,.19,3.09.05,6.57-.74-3.35-3.56-5.23-3.56-5.23,0,0,.2.22.77,2.79-3.65-4.22-5.26-4.51-6.25-2.04ZM86.61,132.76s-5.14,8.43-10.45,13.12c1.85-8.23,2.25-16.81-.21-21.43-1.47,9.23-5.24,12.54-8.32,15,.23-1.15,1.54-12.54,1.54-27.17,3.69,9.61.8,18.52,1.93,21.34,2.32-3.87,3.81-9.16,3.91-14.5,2.64-.49,6.33,14.48,4.6,21.18,1.84-2.41,5.57-6.92,8.74-12.88,0,0,.43,7.18,2.58,19.34-1.62-1.77-3.15-9.38-4.33-14ZM110.04,115.44c-.07.14-1.86-3.17-1.86-3.17-.29,2.31-.37,5.17-1.94,8.53.58-2.93,1.29-9.99,1.1-11.45,1.12.36,2.27,2.5,2.27,2.5l1.2-4.29s-.7,7.73-.77,7.87Z"/>
    <path class="st4" d="M99.74,43.54c-2.94-.75-13.71,1.04-16.22.14,5.03,2.41,6.27.45,5.71,1.43-.57,1-.07,3.58,2.15,5.29,0,0-.57-.86-.5-3.29,1.43,3.31,4.79,3.79,9.23,3.22l5.15,3.86-1.5-2.43,7.08,4.08-13.59-11.23s.72-.43,2.5-1.07ZM98.5,48.14c-.21.95-1.06,1.59-1.99,1.59-.15,0-.3-.02-.45-.05-.53-.12-.99-.44-1.28-.9-.29-.46-.39-1.01-.27-1.54l1.3.29c-.04.18,0,.37.09.53.1.16.26.27.44.31.38.09.76-.15.85-.54l1.3.29Z"/>
    <path class="st4" d="M83.52,43.69c-.1-.05-.2-.09-.3-.14.08.05.19.1.3.14Z"/>
    <path class="st3" d="M96.35,48.39c-.18-.04-.34-.15-.44-.31-.1-.16-.13-.35-.09-.53l-1.3-.29c-.12.53-.03,1.08.27,1.54.29.46.74.78,1.28.9.15.03.3.05.45.05.93,0,1.78-.65,1.99-1.59l-1.3-.29c-.09.38-.46.62-.85.54Z"/>
    <path class="st2" d="M92.66,40.18s-9.8,1.72-14.52,1.86c1.07,1.29,18.82-.43,21.53-.07,2.72.36,6.22,6.37,10.66,9.59-2.07-1.72-6.58-10.23-8.51-11.95-1.93-1.72-17.53-.86-17.53-.86l8.37,1.43Z"/>
    <path class="st4" d="M69.79,40.57c-.57-2.58-.77-2.79-.77-2.79,0,0,2.82,1.88,3.56,5.23.13-3.49-.05-6.57-.05-6.57.97.99,1.39,3.67,1.39,3.67.44-3.1-.34-5.44-.34-5.44,1.14,1.93,1.27,2.36,1.34,2.93.24-3.47-1.02-5.1-1.98-6.14,2.06.98,2.91,2.49,3.19,3.7.42-2.94-2.07-6.22-2.07-6.22,1.58.87,3.71,3.05,3.78,3.34-.51-2.33-1.72-4.53-4.14-5.12,3,.14,6.58.36,7.44,1.72-1.57-2.43-4.08-5.2-7.59-5.2,1.77.8,2.3,1.84,2.3,1.84,0,0-3.29-2.59-8.88-1.04,2.61.32,4.09,1.4,4.09,1.4,0,0-5.29-.62-8.16,2.39,3.06-.56,4.29-.16,4.29-.16-3.17,1.56-4.65,3.38-4.65,7.06.79-2.17,2.65-2.77,2.65-2.77-2.13,2.13-1.65,6.15-1.65,6.15.99-2.47,2.6-2.18,6.25,2.04Z"/>
    <path class="st4" d="M76.84,8.2c5.87,2.15,10.09,6.44,12.52,11.3,0,0-2.43-2.93-8.66-6.58,2.5,2.58,3.93,5.22,5.01,7.87-1.07-2.65-5.87-5.58-10.95-7.08,11.52,8.66,14.77,15.63,13.21,21.45,1.97-6.18.91-7.82.6-8.15l2.93,2.65-3.52-6.51,5.79,5.81-3.42-5.81,7.53,5.29s-.94-.92-2.11-2.04c-1.21-1.15-2.67-2.5-3.63-3.25-.08-.83-.22-1.59-.38-2.32-1.97-8.78-9.51-10.65-14.93-12.64Z"/>
    <path class="st2" d="M120.35,76.92c-1.56.53-3.04.88-4.43,1.09,1.16,2.7-.79,6.79-1.64,9.31-.04.13-.5,1.04-.4.95,2.82-2.65,6.53-8.35,7.01-11.53-.17.06-.34.12-.53.19Z"/>
    <path class="st2" d="M122.55,76.13c1.03-.31,2.28-.55,1.03,2.24-.65,1.45-3.27,8.5-5.6,10.57,2.08-1.52,5.2-5.35,7.41-13.83-.11.02-.2.05-.31.07-.63.21-1.43.54-2.53.96Z"/>
    <path class="st4" d="M131.87,61.23c-.24.28-.49.61-1.09.53-.74-.11-1.23-1.83-2.91-1.9-1.68-.07-2.76,2.25-4.58,1.9-1.83-.35-2.58-.98-5.18-5.05.42,2.39,2.88,4.98,5.2,6.88,2.32,1.9,5.48,3.79,2.53,10.04-.7.3-1.52.7-2.44,1.12-2.25,1.03-5.87,2.28-9.23,2.75-7.09.4-13.54-2.76-14.94-3.9,0,0,6.46,1.05,9.31.02-3.9-.6-7.09-2.33-8.31-3.92,6.39,3.02,11,2.69,14.15,2.03-3.92-.22-6.59-.66-9.77-2.99,0,0,2.59,1.37,6.9.69-3.81-.7-6.99-2.56-8.64-4.49,2.17,1.21,5.9,2.33,9.47,1.68-7.23-1.87-7.13-4.57-5.95-9.91-3.02,5.46-1.14,7.48-1.53,7.41-.39-.07-2.88-.44-6.4-2.74.72,2.9,2.97,4.65,3.84,5.7-1.47.07-4.23.18-7.66-2.21,1.36,3.38,4.4,6.03,6.37,7.09,0,0-3.75.84-6.77-.79,2.33,2.5,4.98,4.19,7.67,5.29-2.03.31-4.38.8-6.49,1.55-6.29,1.99-9.08,5.24-9.95,7.54-1.73,4.57-.43,7.88,2.94,11.46,2.47,2.63,13.27,8.49,15.94,8.78,2.67.28,3.23-.84,4.14-.84s2.12.4,2.9.02c.02,0,.03-.01.05-.02,0-.49.84-1.26,1.33-2.7.35-1.01-.03-.98-.95-.83,1.15-1.33,2.51-6.11,2.45-9.27,0-.4-.53-.55-.75-.21-.61.97-1.51,2.27-1.91,2.9.06-1.15-.07-2.14-.21-2.83-.06-.29-.46-.33-.57-.06-1.06,2.49-2.65,4.36-4.24,5.72-.09-.25-.2-.47-.35-.62-.55-.53-1.57,0-3.07-1.82-1.65-2-.75-5.69-3.74-9.29-.6-.72-1.63-1.4-2.81-1.94.28.11.53.23.72.35-1.03-1.03-.95-3.66.92-4.97,1.32-.92,2.19-1.8,4.57-2.56,3.51,1.27,7.04,1.58,9.99,1.4.83.02,1.72-.02,2.67-.15-.19.11-.28.33-.21.54.86,2.8-1.04,7.75-1.86,10.18-.05.15.02.2.15.11,1.09-.74,3.19-3.2,4.9-5.78.05.78.14,2.51.07,3.7-.04.67-.08,1.24-.75,2.15-.12.16.08.37.24.26,5.29-3.67,7.88-13.12,8.23-14.32.43-.02.79.1,1.19.4l.24.17c3.47-4.88,2.91-8.73,2.66-9.77.86-1.36,1.63-3.02,1.52-4.47ZM128.36,68.29c.25-.25.86-.95,1.51-1.87.18,1.41.15,4.55-2.42,8.36-.28-.27-.75-.61-.71-1.08.07-.84.98-4.77,1.61-5.41ZM100.7,101.64c-3.7-1.43-4.33-2.08-6.02-3.21-1.25-.84-1.81-2.56-2.01-3.4.36.35.67.56.86.55.15-.01.25-.14.32-.34.43.19.87.35,1.2.35.84,0,.69.56,1.69,0,.64.42.45,2.02,1.32,3.56.99-.14,3.19,2.73,2.63,2.51ZM92.25,91.1c.98.35,1.29-1.05,1.36.35.07,1.4.63,3.7-.14,3.77-.77.07-3.44-3.35-3.72-4.19.73-.59,1.52-.28,2.5.07ZM88.83,87.55c.7.91.74-.04,1.97.3.21.91-.09,2.73-.09,2.73-1.27.3-2.23-1-2.32-1.57-.54-3.21.45-1.46.45-1.46ZM113.31,92.61c.2-.31.68-.18.68.19.06,2.94-1.22,7.41-2.29,8.57-1.98.28-2.65.28-2.89.26,1.92-2.17,2.62-4.49,2.78-6.41.38-.6,1.18-1.74,1.72-2.6ZM110.71,92.58c.11-.25.47-.2.52.06.34,1.77.49,5.62-2.74,8.93-2.08,1.87-3.92,1.84-3.92,1.84,0,0-3.1-.15-3.32-1.87,0,0-.36-.87.27-.87,1.25,0,6.8-2.73,9.19-8.09ZM99.08,86.39c2.9,3.49,2.03,7.06,3.63,9,1.45,1.76,2.44,1.25,2.97,1.76.2.2.34.54.43.91-1.88,1.47-3.69,2.21-4.55,2.33-.66-.08-1.29-.28-1.82-.64-.22-.24-.45-.45-.67-.62-.05-.07-.09-.14-.14-.22-.99-1.19-1.39-3.02-1.78-4.42-.6-2.32-.83-4.96-2.47-6.78-1.77-1.72-4.4-2.74-6.41-.75v-.55s.04-.05.07-.07c.28-.99.77-2.2,1.36-2.58,2.04-1.21,7.61.49,9.38,2.63ZM113.87,88.27c-.1.09.36-.82.4-.95.86-2.52,2.8-6.61,1.64-9.31,1.39-.21,2.88-.55,4.43-1.09.19-.06.35-.12.53-.19-.48,3.18-4.19,8.89-7.01,11.53ZM117.98,88.93c2.33-2.07,4.95-9.12,5.6-10.57,1.26-2.78,0-2.54-1.03-2.24,1.1-.42,1.9-.75,2.53-.96.11-.02.2-.05.31-.07-2.21,8.48-5.33,12.31-7.41,13.83Z"/>
    <path class="st3" d="M89.7,83.76c-.59.38-1.08,1.59-1.36,2.58,1.85-2.26,4.83-.78,6.72.98,1.81,1.9,2.05,4.67,2.54,7.09.35,1.58.62,3.58,1.67,4.88-.12-.11-.23-.24-.34-.37.05.07.09.15.14.22.22.16.45.38.67.62.53.37,1.16.56,1.82.64.86-.12,2.67-.86,4.55-2.33-.09-.37-.23-.71-.43-.91-.53-.51-1.52,0-2.97-1.76-1.6-1.94-.73-5.51-3.63-9-1.78-2.14-7.34-3.84-9.38-2.63ZM99.77,92.69c.16,3.3,1.14,5.99,4.99,4.71-2.11,1-4.12.62-4.95-1.74-.73-1.86-.52-3.9-.93-5.8-.74-4.23-4.81-5.76-8.67-5.89,6.09-.34,9.54,2.51,9.56,8.72Z"/>
    <path class="st1" d="M90.21,83.97c3.87.13,7.93,1.66,8.67,5.89.4,1.9.2,3.94.93,5.8.84,2.36,2.85,2.74,4.95,1.74-3.86,1.28-4.83-1.41-4.99-4.71-.02-6.22-3.47-9.07-9.56-8.72Z"/>
    <path class="st2" d="M111.7,101.38c1.07-1.15,2.35-5.63,2.29-8.57,0-.37-.49-.51-.68-.19-.54.87-1.33,2.01-1.72,2.6-.16,1.93-.86,4.24-2.78,6.41.23.03.91.02,2.89-.26Z"/>
    <path class="st2" d="M101.52,100.67c-.64,0-.27.87-.27.87.22,1.72,3.32,1.87,3.32,1.87,0,0,1.84.03,3.92-1.84,3.23-3.31,3.08-7.16,2.74-8.93-.05-.26-.41-.31-.52-.06-2.39,5.36-7.94,8.1-9.19,8.09Z"/>
    <path class="st2" d="M95.06,95.58c-.33,0-.78-.16-1.2-.35-.07.2-.17.33-.32.34-.19.02-.5-.2-.86-.55.2.84.76,2.56,2.01,3.4,1.68,1.13,2.32,1.79,6.02,3.21.56.22-1.64-2.65-2.63-2.51-.88-1.54-.68-3.13-1.32-3.56-1.01.56-.85,0-1.69,0Z"/>
    <path class="st2" d="M88.38,89.01c.1.57,1.06,1.88,2.32,1.57,0,0,.3-1.82.09-2.73-1.22-.34-1.26.61-1.97-.3,0,0-.98-1.75-.45,1.46Z"/>
    <path class="st2" d="M89.74,91.03c.28.84,2.95,4.26,3.72,4.19.77-.07.21-2.36.14-3.77-.07-1.4-.37,0-1.36-.35s-1.78-.66-2.5-.07Z"/>
    <path class="st1" d="M97.59,94.4c-.49-2.42-.73-5.19-2.54-7.09-1.89-1.76-4.87-3.24-6.72-.98-.02.03-.05.05-.07.07v.55c2-1.99,4.64-.97,6.41.75,1.63,1.82,1.87,4.46,2.47,6.78.38,1.41.79,3.23,1.78,4.42.11.13.22.26.34.37-1.05-1.3-1.32-3.3-1.67-4.88Z"/>
    <path class="st2" d="M122.32,60.17c.32.24.69.47,1.17.56.49.08.9-.04,1.34-.19.82-.3,1.39-.9,1.93-1.12,1.23-.55,2.54.11,3.47.97.08.06.18.15.27.2.41.26.87-.27.57-.65-.75-1.15-1.78-2.14-2.97-2.81.44.47.85.96,1.22,1.48-.94-.48-2.02-.64-3.02-.17-.71.34-1.19.87-1.85,1.16-.65.3-1.06.23-1.66-.12-1.19-.75-2.2-1.88-3.18-2.93.66,1.37,1.48,2.65,2.71,3.62Z"/>
    <path class="st2" d="M109.61,111.87s-1.14-2.15-2.27-2.5c.2,1.45-.52,8.51-1.1,11.45,1.57-3.36,1.65-6.22,1.94-8.53,0,0,1.79,3.31,1.86,3.17.07-.14.77-7.87.77-7.87l-1.2,4.29Z"/>
    <path class="st2" d="M75.29,21.66c2.42.95,4.56,2.33,6.81,3.78-1.4-1.77-3.08-3.33-5.05-4.54-7.33-4.52-14.3-.36-16.09,7.55,3.34-5.66,7.61-9.43,14.33-6.78Z"/>
    <path class="st3" d="M49.8,19.36l-9.55,3.97,7.71,10.22s4.53-10.01,10.11-13.23,10.1-4.4,15.89-2.9c-6.98-2.9-27.59-11.05-44,5.9,8.37-4.83,19.85-3.97,19.85-3.97ZM59.85,14.14c-9.26-.02-18.35,2.33-26.36,6.98,6.79-6.17,17.41-8.94,26.36-6.98Z"/>
    <polygon class="st4" points="50.88 57.13 60.43 43.79 33.49 48.65 50.88 57.13"/>
    <polygon class="st5" points="33.49 67.86 50.88 57.13 33.49 48.65 33.49 67.86"/>
    <polygon class="st5" points="40.25 23.33 22.65 35.99 33.49 48.65 40.25 23.33"/>
    <polygon class="st4" points="2.26 60.78 20.18 51.34 22.65 35.99 2.26 60.78"/>
    <polygon class="st5" points="4.3 78.27 18.57 71.4 20.18 51.34 4.3 78.27"/>
    <polygon class="st4" points="11.38 100.44 25.12 86.64 18.57 71.4 11.38 100.44"/>
    <polygon class="st4" points="20.18 51.34 25.12 86.64 33.49 67.86 20.18 51.34"/>
    <polygon class="st5" points="22.65 112.28 33.49 101.45 25.12 86.64 22.65 112.28"/>
    <polygon class="st5" points="43.04 107.78 53.13 96.3 33.49 67.86 43.04 107.78"/>
    <polygon class="st4" points="33.49 101.45 33.49 118.09 43.04 107.78 35.86 77.76 33.49 101.45"/>
    <polygon class="st4" points="45.92 130.8 53.13 96.3 43.04 107.78 45.92 130.8"/>
    <polygon class="st4" points="57.52 70.46 55.81 50.91 51.95 58.26 57.52 70.46"/>
    <path class="st5" d="M57.52,70.46l7.73,12.54,4.66-10.17s.02-.09.03-.13l-12.42-2.23Z"/>
    <polygon class="st4" points="57.52 70.46 53.13 96.3 65.26 82.99 57.52 70.46"/>
    <polygon class="st5" points="60.43 43.79 47.96 33.55 38.43 43.83 60.43 43.79"/>
    <polygon class="st4" points="6.97 39.91 22.65 35.99 29.95 23.33 6.97 39.91"/>
    <path class="st2" d="M51.59,9.91c9.48-.64,19.1-1.5,28.4.93-8.14-4.17-19.81-3.4-28.4-.93Z"/>
    <path class="st2" d="M33.49,21.11c8.02-4.65,17.11-6.99,26.36-6.98-8.95-1.97-19.57.8-26.36,6.98Z"/>
    <path class="st2" d="M108.16,40.31c.54,1.02.93,2.11,1.19,3.24.12.52.25,1.06.36,1.53.26,1.05.53,2.1.83,3.15-.06-1.09-.15-2.17-.26-3.25-.34-2.33-.05-5.26-2.25-6.74-.14-.12-.51-.42-.66-.55-3.48-2.95-7-5.85-10.59-8.67,3.38,3.35,6.84,6.6,10.34,9.82.43.44.75.94,1.03,1.48Z"/>
    <path class="st4" d="M95.33,121.37c-1.85-.58-4.19-1.61-10.19-6.12,0,0,3.65.97,9.44-1.75-17.2-2.6-22.61-16.77-24.19-27.69.66.83,1.51,1.62,2.56,2.33-3.9-7.53.04-13.08-1.35-18.86,1.89,0,2.78,2.46,4.18,7.3,0,0,.79-6.35-3.36-9.96,0,0,4.29,2.43,7.33,2.58-9.94-3.79-5.37-8.84-5.37-8.84,0,0-3.87,2.14-7.27-7.31,3.14,8.72,3.7,16.16,2.84,19.61-2.42-2.55-7.15-12.15-9.15-18.86.85,1.87,3.1,4.31,6.16,7.3-3.02-3.43-5.46-12.45-6.53-17.28l-4.61,7.08s9.31,16.36,14.14,21.76c0,0,0,.02,0,.02-.01.04-.02.09-.03.13l-4.66,10.17,1.86,24.58c3,3.11,17.1,15.02,28.22,13.8Z"/>
    <polygon class="st4" points="56.55 137.78 67.11 107.57 53.13 96.3 56.55 137.78"/>
    <polygon class="st5" points="53.13 96.3 67.11 107.57 65.26 82.99 53.13 96.3"/>
    <polygon class="st4" points="38.43 43.83 47.96 33.55 40.14 31.06 38.43 43.83"/>
    <path class="st4" d="M79.62,140.29c1.74-6.7-1.96-21.67-4.6-21.18-.1,5.33-1.59,10.62-3.91,14.5-1.13-2.81,1.76-11.73-1.93-21.34,0,14.63-1.31,26.02-1.54,27.17,3.08-2.46,6.85-5.77,8.32-15,2.46,4.62,2.06,13.2.21,21.43,5.31-4.69,10.45-13.12,10.45-13.12,1.18,4.62,2.72,12.23,4.33,14-2.15-12.17-2.58-19.34-2.58-19.34-3.18,5.95-6.9,10.46-8.74,12.88Z"/>
    <path class="st2" d="M93.77,147.49c-.39-5.14,1.57-10.14,2.08-15.2.19-5.01.77-10.26-1.58-14.91,3.36,4.19,3.08,9.96,2.91,15.04-.59,5.23-2.71,9.91-3.41,15.07h0Z"/>
    <path class="st2" d="M104.57,75.48c5.8,1.05,14.44-.26,19.59-3.14,0,0-.15.15-.15.15.27-.38.51-.87.71-1.33.61-1.45.73-3.11.1-4.58,1.05,1.36,1.17,3.24.7,4.85-.16.58-.38,1.13-.7,1.68-.75.55-1.57,1.02-2.41,1.41-5.05,2.34-12.67,3.25-17.85.95h0Z"/>
    <path class="st2" d="M90.02,78.28c-3.96,2.03-6.88,6.21-6.39,10.74.16,2.25.95,4.47,2.45,6.18,2.21,2.63,5.33,4.16,8.28,5.85,2.99,1.71,6.29,3.57,7.95,6.73-2.11-2.82-5.36-4.28-8.43-5.81-4.75-2.24-10.15-5.2-11.2-10.86-.31-1.79-.36-3.66.13-5.44.97-3.49,3.86-6.28,7.22-7.4h0Z"/>
  </g>
</svg>