<?xml version="1.0" encoding="UTF-8"?>
<svg id="Layer_1" xmlns="http://www.w3.org/2000/svg" version="1.1" viewBox="0 0 146.21 134.26">
  <!-- Generator: Adobe Illustrator 30.0.0, SVG Export Plug-In . SVG Version: 2.1.1 Build 123)  -->
  <defs>
    <style>
      .st0 {
        fill: #fff;
      }
    </style>
  </defs>
  <g id="NpsvOW">
    <g>
      <path class="st0" d="M146.21,0v124.6c0,1.93-7.38,9.66-9.66,9.66H24.83c1.66-2.37,6.44-6.67,6.44-9.66V0h114.95ZM133.34,14.71H45.52c-.94,0-1.89,2.89-1.38,3.67.21.31,4.08.91,5.01.97,26.45,1.91,55.19-1.52,81.88-.04l1.9-.86.4-3.74ZM45.52,31.27c-2.13.82-1.4,4.6,0,4.6h86.44c1.73,0,1.73-4.6,0-4.6H45.52ZM133.34,48.74H45.52c-1.73,0-1.73,4.6,0,4.6h86.44l1.38-4.6ZM84.6,69.89l-1.38-4.6h-37.7c-1.73,0-1.73,4.6,0,4.6h39.08ZM132.42,66.21h-35.4l-1.38,1.38v35.4h36.78v-36.78ZM84.6,82.76h-39.08c-1.73,0-1.73,4.6,0,4.6h37.7l1.38-4.6ZM84.6,103.91l-1.38-4.6h-37.7c-1.73,0-1.73,4.6,0,4.6h39.08ZM133.34,116.79H45.52c-1.73,0-1.73,4.6,0,4.6h86.44l1.38-4.6Z"/>
      <path class="st0" d="M27.29,21.72v100.79c0,.55-2.17,4.4-2.77,5.16-5.52,7.02-17.89,6.97-22.63-.89-.35-.58-1.89-4.04-1.89-4.27V21.72h27.29Z"/>
    </g>
  </g>
</svg>