<?xml version="1.0" encoding="UTF-8"?>
<svg id="Layer_1" xmlns="http://www.w3.org/2000/svg" version="1.1" viewBox="0 0 501.99 133.04">
  <!-- Generator: Adobe Illustrator 29.8.2, SVG Export Plug-In . SVG Version: 2.1.1 Build 3)  -->
  <defs>
    <style>
      .st0 {
        fill: none;
      }

      .st1 {
        fill: #047198;
      }

      .st2 {
        fill: #f26b26;
      }

      .st3 {
        fill: #dedddd;
      }

      .st4 {
        fill: #fff;
      }

      .st5 {
        fill: #c5c5c5;
      }

      .st6 {
        fill: #057197;
      }

      .st7 {
        fill: #c7c6c6;
      }
    </style>
  </defs>
  <g>
    <g>
      <path class="st4" d="M152.05,95.81v-62.49c0-14.32,11.61-25.93,25.93-25.93h46.63c1.02,0,1.72,1.02,1.36,1.97l-2.93,7.8c-.71,1.89-2.52,3.14-4.54,3.14h-39.54c-7.83,0-14.19,6.35-14.19,14.19v9.28h42.03c1.02,0,1.72,1.02,1.36,1.97l-2.93,7.8c-.71,1.89-2.52,3.14-4.54,3.14h-35.92v40.3h-11.55c-.65,0-1.19-.53-1.19-1.19h0l.02.02h0Z"/>
      <path class="st4" d="M331.2,23.88h5.43c1.02,0,1.72,1.03,1.35,1.98l-2.89,7.49c-.68,1.78-2.35,3.01-4.26,3.1-16.2.76-23.49,13.81-23.49,23.73v35.41c0,.65-.53,1.19-1.19,1.19h-11.58c-.65,0-1.19-.53-1.19-1.19v-35.08c0-21.33,15.39-36.64,37.8-36.64h.02Z"/>
      <path class="st4" d="M337.27,86.92l41.25-50.49h-38.18c-1.02,0-1.72-1.03-1.35-1.98l3.73-9.64c.22-.56.75-.93,1.35-.93h51.69c.65,0,1.19.53,1.19,1.19v8.67l-41.25,50.49h39.12c1.02,0,1.72,1.03,1.35,1.98l-2.89,7.47c-.72,1.87-2.52,3.11-4.52,3.11h-50.31c-.65,0-1.19-.53-1.19-1.19v-8.67h0Z"/>
      <path class="st4" d="M472.16,61.41v34.25c0,.65-.53,1.19-1.19,1.19h-4.75c-1.77,0-3.39-.96-4.24-2.51l-3.47-6.28c-4.46,6.56-16.89,10.89-25.41,10.89-21.52,0-37.7-16.79-37.7-37.53s16.18-37.53,37.7-37.53,39.06,16.79,39.06,37.53h0ZM458.53,61.41c0-14.06-11.35-25.41-25.41-25.41s-25.41,11.35-25.41,25.41,11.35,25.41,25.41,25.41,25.41-11.35,25.41-25.41Z"/>
      <path class="st4" d="M251.42,99.09c-21.65,0-37.13-16.79-37.13-37.53s15.49-37.53,37.13-37.53,37.13,16.79,37.13,37.53-15.48,37.53-37.13,37.53h0ZM276.88,61.56c0-14.06-11.35-25.41-25.41-25.41s-25.41,11.35-25.41,25.41,11.35,25.41,25.41,25.41,25.41-11.35,25.41-25.41Z"/>
    </g>
    <g>
      <path class="st4" d="M485.3,23.88h-12.89c-.16,0-.25.08-.25.25v2.42c0,.16.08.25.25.25h4.78l.02,6.56c0,.07.02.12.07.17.05.05.11.07.17.07h2.82c.16,0,.25-.08.25-.25v-6.56h4.78c.16,0,.25-.08.25-.25v-2.42c0-.16-.08-.25-.25-.25h0Z"/>
      <path class="st4" d="M501.72,23.88h-3.13s-.09.02-.12.05l-4.37,3.93-4.37-3.93s-.07-.05-.12-.05h-3.13c-.16,0-.25.08-.25.25v9.22c0,.16.08.25.25.25h2.82c.16,0,.25-.08.25-.25v-5.66l-.02-.32,3.76,3.67s.07.05.12.05h1.4s.09-.02.12-.05l3.79-3.69-.05.34v5.66c0,.16.08.25.25.25h2.82c.16,0,.25-.08.25-.25v-9.22c0-.16-.08-.25-.25-.25h-.02Z"/>
    </g>
  </g>
  <g>
    <g>
      <path class="st6" d="M47.47,5.35c-2.47.76-6.65,1.49-12.21,4.83-4.44,2.67-8.36,5.43-12.63,10.43,8.82-2.31,28.67-7.39,37.35-9.79-3.12-1.6-8.81-3.91-12.51-5.47Z"/>
      <path class="st2" d="M45.04,55.39l12.46-8.39s3.18-.22-1.39,5.78c-2.09,2.74-2.67,4.67-3.35,6.48-.79,2.12-1.05,3.6-1.04,5.96s.39,3.51,1.73,6.18c.21.43,7.23,14.79,7.23,14.79-3.1-3.53-4.15-5.98-3.18-10.23,1.04-4.57,3.7-5.74,3.7-5.74,1.22,1.49,2.57,2.73,3.93,4.14,2.84,2.94,3.56,3.69,5.78,5.82,0,0,1.41,6.27,3.27,4.16l-.02.17s1.75.01,3.93-.03c.93.26,1.81.37,2.32-.07,2.71-.11,5.39-.33,5.99-.77,3.1-2.31,6.02-13.35,7.72-14.2l9.53-8.98-12.34-1.61c-.22.2-.45.41-.66.61-2.37-.97-3.27-.53-4.73-1.28-.05-.03-2.81-1.48-4.51-2.34l5.03,1.28s8.75.03,12.53,0c4.28-.04,11.34.46,17.66,1.74,5.03,1.02,15.01,3.44,17.63,8.08.76,1.34,1.41,5.07,1.43,6.09.1,3.77-.46,6.86-.95,8.88,1.74-1.68,6.34-7.06,8.33-15.77.92-3.97,2.14-7.45,2.16-13.95,0-5.98-1.44-9.71-4.3-12.77-2.5-2.66-8.35-4.89-12.94-6.33-.91-2.61-1.91-5.81-2.71-7.95-.24.53-.58,1.22-.97,1.97l.97-1.97-11.34-12.99-.59,1.92-4.07-2.9-4.7-3.17-9.51-6.33,16.4,18.41h0L95.1,1.68c.06.14,2.86,3.54,4.49,7.72,1.18,3.02,1.15,6.14,1.2,6.39-2.19-2.9-3.64-4.75-5.7-6.72-1.43-1.37-3.41-2.65-4.77-3.31.17,1.06.35,2.12.53,3.18l-6.74-2.8,1.69,3.44-5.92-2.81,9.85-5.08C79.08.51,76.27.19,69.51.02,67.8-.02,54.66.02,54.66.02l1.46,2.06-12.74,1.97h0c.97.29,2.11.6,3.35.94l13.24,5.8c-8.51-.64-14.42-1.08-25.44,2.67h0c-11.98,4.34-17.34,9.99-24.76,17.03,6.36-2.71,9.24-4.02,16.05-6.38,8.71-4,16.32-4,16.32-4-3.23,2.02-6.5,4.01-6.5,4.01l6.67,9.25s-1.03-10.27,6.09-11.35l-.65,2.22c-1.01,3.45-.89,7.17.51,10.49,0,.02.02.04.03.06,1.89,4.48,5.63,8.12,5.63,8.12l-8.9,12.43v.05h.01ZM79.87,6.81c-.06.03-3.65,1.88-3.66,1.88h0l3.66-1.88ZM69.22,10.52h-.01.02-.01ZM74.87,15.08c2.82-.3,5.63-.59,8.46-.89h.02l-8.47.89h-.01ZM122.22,31.52h-.02l.22-.46c-.07.16-.13.32-.2.46ZM111.51,20.14l1.08,1.21c-.48-.52-.86-.94-1.08-1.21ZM114.93,48.5c.04-.76.08-1.53.13-2.29l-.13,2.29ZM88.24,52.98l.03-.05h.24c-.08.02-.17.03-.26.05h-.01Z"/>
      <path class="st6" d="M79.62,6.95c3.27-2,7.32-5.72,10.12-5.22,3.21.58,5.37,2.6,5.37,2.6V1.73c1.43,2.01,3.21,4.27,3.84,5.84.35.85.91,2.61,1.27,3.87.57,2.36.41,2.97.59,4.43l-10.36-9.41.42,2.54-6.74-2.8,1.69,3.44s-4.39-2.02-6.18-2.67v-.02h-.01Z"/>
      <path class="st6" d="M84.56,57.58c-2.38-1.06-4.43-1.97-4.43-1.97,0,0,25.42.71,39.02,3.15,10.03,1.79,13.32,4.74,15.12,8.2,1.88,3.61,1.95,6.7,1.36,9.34.04-1.52-.49-4.21-1.83-6.96-.5-1.01-1.22-3.13-5.36-5.24-6.86-3.5-13.54-4.05-17.36-4.2-1.67-.06-5.98,1.73-6.87,1.93-1.34-.02-3.38-.03-5.03,0-4.99.1-10.05-2.22-14.61-4.25h0Z"/>
      <polygon class="st6" points="107.12 13.97 110.9 15.71 109.47 13.9 110.29 14.08 106.54 10.18 108.58 13.79 107.12 13.97"/>
      <path class="st6" d="M127.66,38.39c-1.44.23-2.89.35-4.32.71,1.44.82,1.77.99,2.84,1.51.8.4,2.29-.13,2.56-.99h0c.21-.69-.37-1.36-1.07-1.23h-.01Z"/>
      <path class="st6" d="M80.13,55.61c9.07-1.52,21.55-6.75,30.62-8.26,3.97-5.07,9.72-13.51,17.29-14.13-6.2,2.23-12.99,10.71-16.53,16.07-9.51,1.23-21.88,5.09-31.39,6.33h.01Z"/>
      <path class="st6" d="M64.99,18.42c-5.37-1.88-8.03-1.57-12.31-.36,1.79.5,2.86,1.09,3.82,1.6-3.18.79-5.65,1.21-8.08,2.4,5.74.74,10,1.27,16.72,2.09-2.95-1.01-4.99-1.78-9.96-2.7,3.33-.51,4-.44,7.51-.03-1.52-1.76-4.34-3.1-5.72-3.26,4.18-.46,5.52,0,8.03.26h-.01Z"/>
      <path class="st6" d="M59.71,44.42c-3.61.87-4.54,1.3-7.21,3.33,2.72-1,3.18-1.41,4.96-1.55-2.55,1.78-6.86,4.5-8.87,6.78,3.83-2.47,7.73-4.3,9.82-4.82-1.02,1.65-4.23,7.03-4.53,8.66,2.49-4.26,6.75-7.86,10.13-9.43-1.22.25-3.71.86-4.91,1.6.23-.92,1.38-2.16,2.04-2.55-1.25.02-2.15.45-2.91.78.4-1.32.61-1.71,1.49-2.79h.01Z"/>
      <path class="st6" d="M47.47,5.35c-1.97.2-3.3.26-6.16,1.02-4.52,1.19-6.73,2.11-8.79,3.17,1.32.3,1.69.29,5.6.94,1.48.24,2.73.43,3.72.82,1.49-1.55,4.16-4.4,5.63-5.94Z"/>
      <path class="st6" d="M130.6,41.21c.06-.78,1.09-3.01-.34-5.19-.84-1.27-2.48-2.17-3.13-2.58.39-.16.45-.19.84-.36.41.22,2.64.88,3.39,3.08.79,2.33-.58,4.66-.76,5.04Z"/>
      <path class="st6" d="M52.82,81.78c-.15-1.44-.03-7.9.73-10.75.85-3.17,3.11-4.74,5.62-5.4-1.15,1.12-2.62,2.46-3.3,4.78-.46,1.56-.63,2.26-.63,3.3.36-1.33.54-1.86,1.31-2.75.96-1.1,2.05-1.61,2.91-1.83-1.83,2.05-2.31,2.99-2.46,4.94-.2,2.77,1.08,8.44,2.55,9.85-1.21,0-5.54-2.13-6.75-2.13h.01Z"/>
      <polygon class="st6" points="53.46 71.41 60.68 86.2 49.05 93.01 53.46 71.41"/>
      <path class="st0" d="M88.24,52.98c.09-.02.18-.03.26-.05h-.24s-.01.02-.03.05h.01Z"/>
      <polygon class="st0" points="83.35 14.2 69.51 10.6 74.8 15.09 83.35 14.2"/>
      <path class="st6" d="M60.43,70.73c-.5.28-1.69,1.6-2.23,2.43-1.48,2.29-2.59,7.01-2.47,7.29.68.15,3.81,4.65,4.49,4.8-1.1-2.71-2.37-4.42-1.99-8.54.31-3.28,1.91-5.64,2.19-5.99Z"/>
      <path class="st6" d="M66.23,60.65c.21-1.65,1.5-5.01,1.5-5.01l-3.74,3.64s2.15-4.39,5.23-6.11c2.85-1.6,5.48-1.7,5.48-1.7h0s-1.69.66-4.63,3.38c-2.77,2.57-3.84,5.81-3.84,5.81Z"/>
      <path class="st6" d="M122.23,30.17c-.88-2.7-1.3-3.56-2.2-5.91,1.45,2.17,4.38,7.27,5.65,9.4-2.86,1.21-9.23,6.26-11.48,9.24.95-1.32,1.87-2.23,2.61-4.55.59-1.86-.46-4.28-1.41-6.01-.59-1.08-.96-1.92-3.26-4.23,1.58,1.06,4.1,2.95,5.97,5.93-.75-2.8-2.4-5.81-4.19-7.81,2.53,2.17,3.75,3.2,6.63,6.99-.54-1.99-4.78-8.45-7.43-11.19,2.65,1.67,3.62,2.78,5.11,4.23.36.35.71.71,1.04,1.08,1.15,1.28,1.95,2.02,2.93,2.82h.01Z"/>
      <g>
        <path class="st6" d="M103.06,35.07c1.3,1.54,1.93,3.13,2.25,4.17-.83-.35-2.1-.76-3.64-.72-2.09.05-3.13.88-6.21,2.05-2.71,1.03-4.07,1.54-5.5,1.57-3.2.08-5.64-1.94-7.34-3.34-5.01-4.15-7.74-12.43-8.43-15.29,2.29,2.08,5.96,4.92,9.37,5.82,2.93.77,5.59,1.15,7.8,1.31-.5-.39-1.15-1-1.74-1.87-.46-.67-.75-1.31-.95-1.82.7.57,1.8,1.39,3.26,2.15,2.3,1.22,3.05,1.04,5.44,2.12,1.66.74,3.86,1.73,5.66,3.87h.01ZM97.8,36.45c-.34-.45-1-1.18-2.04-1.75-.94-.51-1.8-.68-2.33-.74.04.21.3,1.75-.78,3.05-.92,1.1-2.19,1.26-2.59,1.29h-.07c-1.83.09-3.55-1.22-3.95-2.74-.1-.35-.11-.66-.1-.91.8.4,1.69.15,2.03-.44.28-.47.29-.92-.03-1.3-.48-.59-1.53-.73-1.85-.76-1.4-.12-3.06-.3-6.43-1.62,1.87,4.07,4.22,6.42,5.67,7.64,1.69,1.43,2.94,1.48,3.58,1.58.45.07.86.09,1.26.06,1.13-.09,2.28-.6,4.3-1.56,1.47-.69,2.61-1.36,3.34-1.8h0Z"/>
        <path class="st3" d="M95.76,34.7c1.04.57,1.7,1.3,2.04,1.75-.73.45-1.88,1.1-3.34,1.8-2.02.96-3.17,1.47-4.3,1.56l-.11-1.52c.41-.03,1.67-.19,2.59-1.29,1.08-1.29.83-2.82.78-3.05.54.06,1.4.23,2.33.74,0,0,.01,0,.01,0Z"/>
        <path class="st3" d="M90.04,38.29l.11,1.52c-.41.03-.82,0-1.26-.06-.64-.1-1.88-.16-3.58-1.58-1.45-1.22-3.8-3.57-5.67-7.64,3.37,1.32,5.03,1.5,6.43,1.62.33.03,1.37.16,1.85.76.32.39.32.84.03,1.3-.34.59-1.22.84-2.03.44-.01.24,0,.55.1.91.41,1.52,2.12,2.83,3.95,2.74h.07-.01Z"/>
      </g>
      <path class="st6" d="M77.48,32.03c1.15,2.92,1.78,4.44,2.79,5.97,1.33,2.02,2.83,3.56,4.64,4.48,1.39.71,3.62,1.96,7.49.85,2.77-.79,5.96-2.21,6.76-2.95-.31.93-1.38,1.86-3.41,3-4.84,2.68-9.03,2.1-11.89.86-5.3-2.31-9.05-13.75-9.05-13.75"/>
      <path class="st6" d="M63.54,27.84c4.32,1.4,11.12,3.87,15.43,5.27-.56-1.21-1.16-3.18-1.71-4.4-3.76-.18-9.95-.69-13.71-.87h-.01Z"/>
      <path class="st6" d="M75.43,30.53c-.99,2.62,1.41,8.14,3.55,12.38-5.23-4.51-7.81-10.63-8.57-13.11,1.45-.22,3.59.95,5.03.73,0,0-.01,0-.01,0Z"/>
      <path class="st2" d="M104.2,131.78c-6.63-9.69-10.59-15.11-13.05-25.52-1.4-5.86-2.37-11.2-1.85-21.01-3.86,8.76-7.04,15.35-10.9,24.12,2.14,6.8,5.53,9.17,9.83,12.99,4.99,4.43,9.83,6.72,15.97,9.42h0Z"/>
      <path class="st6" d="M99.61,59.94c-1.01.18-2.71.82-4.13,1.96-1.96,1.58-3.03,2.96-3.71,3.85,1.1-.58,3.15-.35,4.25-.93-.39.42-1,1.08-1.78,1.85-1.36,1.33-3.11,4.09-3.1,4.7,0,.24,2.48-1.04,2.48-1.04,0,0,3.09-.84,6.03-1.68,2.09-.6,4.2-1.08,6.35-1.41,3.85-.59,7.47-1.36,10.81-2.09-.07-.05-.26-.16-.55-.3-.55-.25-.99-.41-1.13-.46-2.04-.66-6.11-1.98-8.07-2.74-3.11-1.21-5.14-1.96-7.46-1.72h.01Z"/>
      <path class="st6" d="M92.36,68.99c-.73,1.01-2.99,4.09-3.73,5.49-.77,1.47-1.36,2.85-1.78,4.07-.12-.82-.14-2.22-.12-4.76.02-2.63.62-4.83.98-6.74-1.01.89-3.22,3.44-6.09,7.79-2.22,3.35-1.13,5.34.08,7.79-8.41,1.79-8.6-10.1-8.6-10.1,0,0-2.7,9.67-4.4,14.77,3.18-.78,7.71-.71,10.89-1.51,4.62-.98,9.71-.55,9.71-.55,0,0-.41-2.03,0-4.07,0,0,.34-1.61.46-2.15.31-1.33-.28-1.68,0-3.07.14-.74,1.2-1.75,1.4-2.48.69-2.72,2.48-3.16,2.48-3.16,0,0-.73-.74-1.26-1.34Z"/>
      <path class="st6" d="M95.49,69.28l-6.19,15.99-21.31,2.49c4.36-2.95,12.44-2.86,16.79-5.82,4.19-2.84,5.49-13.14,10.72-12.65Z"/>
      <polygon class="st6" points="58.94 128.49 65.13 100.78 49.05 93.01 58.94 128.49"/>
      <path class="st2" d="M65.1,100.4c1.51,7.5,2.2,10.14,4.46,15.55,3.25,7.77,5.79,11.56,10.31,17.1-.7-6.04-.9-7.14-.78-10.37.21-6.4.59-5.89,1.37-10.82.13-.85,8.24-25.1,8.84-26.59-6.54,4.21-18.04,10.97-24.2,15.15h0Z"/>
      <polygon class="st6" points="65.13 100.78 68.7 87.31 89.3 85.25 65.13 100.78"/>
      <path class="st3" d="M117.92,55.12c-8.56-1.71-17.37-.6-25.28.19-.55.06,17.87.83,23.75,1.55,4.91.6,14.14,3.05,16.97,7.04-1.54-3.16-7.55-7.2-15.45-8.78Z"/>
      <path class="st3" d="M128.48,37.46c-.32-.39-.8-.86-1.52-1.03-2.03-.51-4.08,1.69-4.4,2.06.95-.49,2.24-1.01,3.71-1.14.86-.08,1.6,0,2.2.11h.01Z"/>
      <path class="st3" d="M71.36,2.14c-4.09-.23-10.44.08-10.44.08,0,0,3.06.51,6.62.87-1.28.16-2.52.41-4.01.65-3.47.58-8.74,2.12-8.74,2.12,0,0,4.73-.22,8.82-.94.69-.12,1.43-.25,2.17-.41,3.61-.72,7.27-1.04,10.95-.98,2.4.04,4.66.06,6.03.12-4.9-1.32-7.35-1.28-11.39-1.52,0,0-.01,0-.01,0Z"/>
      <path class="st3" d="M142.98,48.04c-.08-.94-.05-1.11-.21-1.84-.17-.78-.18-1.04-.62-2-.75-1.66-1.31-2.49-2.38-3.46-.91-.84-2.34-1.7-3.96-2.46-.38-.17-2.87-1.08-2.87-1.08,0,0,2.45,1.13,2.99,1.48.46.3,1.16.72,1.54,1.04.59.5,1.07.86,1.92,1.68,1.31,1.27,1.72,2,2.65,3.77.22.43.34.61.51,1.26.21.78.3,1.4.37,1.91l.11,1.52v-1.4c0-.13,0-.28-.02-.41h0Z"/>
      <path class="st3" d="M57.99,55.41c-2.78,3.8-2.96,7.86-2.95,9.33.53-2.07,1.49-4.92,3.34-7.96,1.52-2.49,3.17-4.34,4.52-5.65-1.24.67-3.22,1.98-4.91,4.28Z"/>
      <path class="st3" d="M119.94,22.56c1.01,1.06,2.41,2.77,3.65,3.92-.38-.75-.71-1.38-1.08-1.99.04.05.08.1.11.15.9,1.22,2.18,3.47,2.91,5.16-.43-1.55-.7-2.88-1.42-4.62-2.72-3.41-6.93-7.5-9.27-10.01.8,1.21,2.02,2.67,3.29,4.15-1.07-.94-2.06-1.59-3.22-2.45,1.83,2.75,2.58,3.01,5.01,5.68h.01Z"/>
      <path class="st3" d="M105.31,39.23c.88.13,1.63,0,1.63,0,1.05-.22,1.73-.84,2.14-1.21.12-.11.22-.21.33-.33,1.09-1.17,1.59-2.77,1.54-4.37-.04-1.27-.29-2.84-1.13-4.16-.12-.18-.31-.47-.62-.79-.53-.56-1.49-1.21-3.68-1.86-1.48-.44-2.6-.72-5.23-.92,3.72,1.31,4.09,1.51,5.83,2.46,1.39.76,1.8,1.14,2.34,1.73.75.83.67,2.18.59,2.89-.47-1.07-.8-1.56-1.84-2.17-.76-.45-1.44-.48-2.67,0,1.31.49,2.42,1.15,3.09,2.12.37.54.53,1.87-.05,2.33-.8.62-2.48-1.24-3.15-1.81-1.7-1.54-3.06-3.06-4.31-4.38-.9-.96-1.92-1.8-3.04-2.48-.94-.56-1.93-1.02-3.31-1.55,1.78,1.74,2.42,2.37,3.74,3.96-4.51-2.84-10.43-6.43-17.49-10.36,3.84,3.69,4.97,4.62,9.03,8.88,1.8,1.67,5.65,3.45,9.37,4.92,2.76,2,5.42,6.89,6.9,7.1h0Z"/>
      <polygon class="st5" points="65.13 100.78 70.92 80.2 49.05 93.01 65.13 100.78"/>
      <polygon class="st1" points="0 59.06 17.2 49.98 19.25 35.96 0 59.06"/>
      <polygon class="st7" points="1.96 75.87 15.65 69.27 17.2 49.98 1.96 75.87"/>
      <polygon class="st1" points="8.75 97.17 21.92 83.91 15.65 69.27 8.75 97.17"/>
      <polygon class="st1" points="17.2 49.98 21.92 83.91 29.95 65.86 17.2 49.98"/>
      <polygon class="st7" points="19.56 108.55 29.95 98.14 21.92 83.91 19.56 108.55"/>
      <polygon class="st7" points="39.12 104.23 48.79 93.2 29.95 65.86 39.12 104.23"/>
      <polygon class="st1" points="29.95 98.14 29.95 114.13 39.12 104.23 32.22 75.37 29.95 98.14"/>
      <polygon class="st1" points="42.75 122.16 48.79 93.2 39.12 104.23 42.75 122.16"/>
      <polygon class="st1" points="4.63 39.62 19.25 35.96 26.35 23.95 4.63 39.62"/>
      <polygon class="st7" points="35.66 24.16 19.25 35.96 29.35 47.77 35.66 24.16"/>
      <polygon class="st1" points="45.04 55.39 53.95 42.96 29.35 47.77 45.04 55.39"/>
      <polygon class="st7" points="53.95 42.96 42.33 33.41 33.44 42.99 53.95 42.96"/>
      <polygon class="st1" points="33.44 42.99 42.33 33.41 35.05 31.08 33.44 42.99"/>
      <polygon class="st7" points="29.95 65.86 45.04 55.39 29.35 47.77 29.95 65.86"/>
      <path class="st1" d="M53.46,71.41c0-.14-1.14-3.71-1.05-9.1.06-3.82,2.46-7.33,2.47-7.39-3.27.16-6.55.32-9.82.48l8.41,16.01Z"/>
      <path class="st3" d="M37.32,14.02c-7.42,2.14-13.21,6.35-15.26,7.93,3.29-1.85,8.01-4.23,13.64-6.19,4.62-1.61,8.47-2.46,11.33-2.92-1.88-.13-5.2-.11-9.7,1.19h-.01Z"/>
    </g>
    <path class="st6" d="M88.71,85.76c-3.15,2.66-3.23,3.81-4.31,6.47-1.67,4.14-1.27,8.07-1.27,8.07,0,0-1.95-2.56-1.96-5.62,0-1.36.29-2.49.56-3.27-1.08,1.33-2.45,3.39-3.28,6.17-.34,1.11-.52,2.14-.62,3.06-.47-1.03-1.25-3.1-1.13-5.8.15-3.15,1.47-5.39,2.11-6.35,2.33.18,7.56-2.92,9.89-2.74h.01Z"/>
    <path class="st7" d="M87.57,99.73c-.05,2.72.12,7.74,2.03,13.34,2.43,7.16,6.29,11.15,8.02,12.74-1.96-3.22-4.24-7.54-6.29-12.98-1.83-4.88-3-9.38-3.76-13.09Z"/>
    <path class="st6" d="M68.5,106.65c1.2,8.16,6.78,14.98,9.11,19.7-.29-1.45-.02-8.45.6-11.51.4-1.99.83-5.01,1.39-6.07.41,1.07,1.18,2.94,3.16,6.07,1.08,1.7,2.65,2.83,3.57,3.2-2.02-2.07-2.15-2.86-3.83-5.65-.85-1.41-1.93-3.44-2.9-6.63-1.17,2.15-1.42,3.02-1.96,5.52-1.21,5.72-1.2,7.53-1.33,10.33-2.41-4.01-5.92-10.67-7.79-14.97h0Z"/>
    <path class="st2" d="M96.51,58.42c4.4.13,11.89.4,19.68,1.73,6.37,1.09,13.11,3.1,15.11,5.81-5.44-.69-14.07.12-20.35-1.44-4.04-1.01-10.81-3.24-14.45-6.1Z"/>
  </g>
  <g>
    <path class="st2" d="M152.52,126.19c-.37,0-.54-.23-.47-.58l2.39-11.25c.07-.31.26-.47.58-.47h6.04c3.41,0,4.79,1.6,4.16,4.62l-.11.5c-.33,1.57-.91,2.72-1.72,3.45-.8.73-2.04,1.1-3.69,1.1h-4.11l-.45,2.16c-.07.31-.26.47-.57.47h-2.04ZM156.21,120.63h3.48c1.39,0,2.04-.28,2.32-1.65l.1-.45c.3-1.38-.21-1.67-1.62-1.67h-3.48l-.8,3.78Z"/>
    <path class="st2" d="M168.63,126.19c-.37,0-.54-.23-.47-.58l2.39-11.25c.07-.31.26-.47.57-.47h9.34c.37,0,.54.23.47.57l-.4,1.92c-.07.31-.26.47-.57.47h-6.85l-.38,1.81h4.06c.37,0,.54.23.47.57l-.35,1.64c-.07.31-.26.47-.57.47h-4.18l-.4,1.88h6.72c.37,0,.54.23.47.57l-.4,1.92c-.07.31-.26.47-.57.47h-9.34Z"/>
    <path class="st2" d="M192.08,113.89c3.48,0,4.98,1.62,4.36,4.62l-.07.33c-.49,2.28-1.39,3.71-3.15,4.29l1.18,2.46c.16.37.02.61-.38.61h-2.25c-.3,0-.49-.14-.59-.4l-.98-2.4h-3.54l-.49,2.33c-.07.31-.26.47-.57.47h-2.04c-.37,0-.54-.23-.47-.58l2.39-11.25c.07-.31.26-.47.58-.47h6.03ZM193.32,118.52c.35-1.38-.24-1.67-1.78-1.67h-3.48l-.77,3.61h3.48c.73,0,1.29-.1,1.65-.31.37-.21.64-.66.82-1.34l.07-.28Z"/>
    <path class="st2" d="M199.85,126.19c-.37,0-.54-.23-.47-.58l2.39-11.25c.07-.31.26-.47.57-.47h9.06c.37,0,.54.23.47.57l-.4,1.92c-.07.31-.26.47-.57.47h-6.57l-.38,1.81h3.85c.37,0,.54.23.47.57l-.35,1.64c-.07.31-.26.47-.57.47h-3.97l-.92,4.37c-.07.31-.26.47-.58.47h-2.02Z"/>
    <path class="st2" d="M217.87,126.19c-1.38,0-2.37-.38-3.01-1.17-.64-.78-.82-1.79-.56-3.07l.8-3.81c.61-2.84,2.18-4.25,4.69-4.25h4.58c1.38,0,2.39.4,3.03,1.18.64.78.82,1.79.54,3.07l-.8,3.81c-.59,2.82-2.16,4.23-4.69,4.23h-4.58ZM222.73,123.22c.77,0,1.1-.31,1.29-1.17l.85-4.02c.19-.91,0-1.18-.78-1.18h-4.58c-.78,0-1.08.28-1.27,1.18l-.85,4.02c-.19.89,0,1.17.77,1.17h4.58Z"/>
    <path class="st2" d="M239.75,113.89c3.48,0,4.98,1.62,4.36,4.62l-.07.33c-.49,2.28-1.39,3.71-3.15,4.29l1.18,2.46c.16.37.02.61-.38.61h-2.25c-.3,0-.49-.14-.59-.4l-.98-2.4h-3.54l-.49,2.33c-.07.31-.26.47-.57.47h-2.04c-.37,0-.54-.23-.47-.58l2.39-11.25c.07-.31.26-.47.58-.47h6.03ZM240.99,118.52c.35-1.38-.24-1.67-1.78-1.67h-3.48l-.77,3.61h3.48c.73,0,1.29-.1,1.65-.31.37-.21.64-.66.82-1.34l.07-.28Z"/>
    <path class="st2" d="M247.52,126.19c-.37,0-.54-.23-.47-.58l2.39-11.25c.07-.31.26-.47.58-.47h2.21c.3,0,.51.14.59.42l2.44,6.34,4.91-6.45c.16-.21.37-.31.64-.31h2.75c.37,0,.54.23.47.57l-2.39,11.25c-.07.31-.26.47-.57.47h-2.02c-.37,0-.54-.23-.47-.58l1.45-6.78-4.11,5.09c-.16.21-.38.31-.64.31h-1.22c-.3,0-.51-.14-.59-.42l-1.9-4.93-1.45,6.83c-.07.31-.26.47-.57.47h-2.02Z"/>
    <path class="st2" d="M277.09,126.19c-.3,0-.49-.16-.56-.47l-.3-1.45h-5.99l-.99,1.57c-.12.23-.33.35-.63.35h-2.42c-.42,0-.57-.28-.35-.63l7.56-11.34c.16-.23.37-.33.63-.33h2.47c.31,0,.51.16.58.45l2.74,11.27c.09.35-.09.58-.45.58h-2.28ZM271.82,121.76h3.9l-.94-4.7-2.96,4.7Z"/>
    <path class="st2" d="M284.39,126.19c-.37,0-.54-.23-.47-.58l2.39-11.25c.07-.31.26-.47.57-.47h2.07c.26,0,.47.12.61.37l3.99,7.49,1.59-7.39c.07-.31.26-.47.57-.47h2.04c.37,0,.54.23.47.57l-2.39,11.25c-.07.31-.26.47-.58.47h-2.04c-.26,0-.47-.12-.61-.37l-4.04-7.63-1.57,7.53c-.07.31-.26.47-.57.47h-2.04Z"/>
    <path class="st2" d="M305.31,126.19c-1.38,0-2.37-.38-3.01-1.17-.64-.78-.82-1.79-.56-3.07l.8-3.81c.61-2.84,2.18-4.25,4.69-4.25h3.89c1.38,0,2.39.4,3.03,1.18.64.78.82,1.79.54,3.07v.02c-.05.31-.24.47-.57.47h-2.02c-.38,0-.56-.1-.52-.3l.05-.3c.21-.99-.03-1.18-.78-1.18h-3.88c-.75,0-1.06.19-1.27,1.18l-.85,4.02c-.21.96.07,1.17.77,1.17h3.89c.7,0,1.08-.21,1.29-1.17l.07-.31c.07-.31.26-.47.56-.47h2.06c.37,0,.54.1.51.33l-.07.35c-.56,2.7-1.88,4.23-4.51,4.23h-4.06Z"/>
    <path class="st2" d="M317.8,126.19c-.37,0-.54-.23-.47-.58l2.39-11.25c.07-.31.26-.47.57-.47h9.34c.37,0,.54.23.47.57l-.4,1.92c-.07.31-.26.47-.57.47h-6.85l-.38,1.81h4.06c.37,0,.54.23.47.57l-.35,1.64c-.07.31-.26.47-.57.47h-4.18l-.4,1.88h6.72c.37,0,.54.23.47.57l-.4,1.92c-.07.31-.26.47-.57.47h-9.34Z"/>
    <path class="st2" d="M332.79,126.19c-.38,0-.54-.19-.47-.58l.45-2.12c.07-.3.26-.45.58-.45h2.02c.38,0,.54.19.47.58l-.45,2.12c-.07.3-.26.45-.57.45h-2.02Z"/>
    <path class="st2" d="M347.94,126.19c-.37,0-.54-.23-.47-.58l2.39-11.25c.07-.31.26-.47.58-.47h9.34c.37,0,.54.23.47.57l-.4,1.92c-.07.31-.26.47-.57.47h-6.85l-.38,1.81h4.06c.37,0,.54.23.47.57l-.35,1.64c-.07.31-.26.47-.57.47h-4.18l-.4,1.88h6.72c.37,0,.54.23.47.57l-.4,1.92c-.07.31-.26.47-.58.47h-9.34Z"/>
    <path class="st2" d="M362.87,126.19c-.37,0-.54-.23-.47-.58l2.39-11.25c.07-.31.26-.47.57-.47h2.04c.37,0,.54.23.47.57l-1.86,8.76h6.29c.37,0,.54.23.47.57l-.4,1.92c-.07.31-.26.47-.57.47h-8.92Z"/>
    <path class="st2" d="M376.95,126.19c-.37,0-.54-.23-.47-.58l2.39-11.25c.07-.31.26-.47.58-.47h9.34c.37,0,.54.23.47.57l-.4,1.92c-.07.31-.26.47-.57.47h-6.85l-.38,1.81h4.06c.37,0,.54.23.47.57l-.35,1.64c-.07.31-.26.47-.57.47h-4.18l-.4,1.88h6.72c.37,0,.54.23.47.57l-.4,1.92c-.07.31-.26.47-.58.47h-9.34Z"/>
    <path class="st2" d="M395.82,126.19c-.31,0-.51-.16-.58-.47l-2.32-11.25c-.07-.35.11-.57.47-.57h2c.3,0,.49.16.56.47l1.74,8.66,5.37-8.78c.12-.23.33-.35.63-.35h2.39c.42,0,.57.28.35.63l-7.14,11.32c-.16.23-.37.35-.63.35h-2.84Z"/>
    <path class="st2" d="M417.27,126.19c-.3,0-.49-.16-.56-.47l-.3-1.45h-5.99l-.99,1.57c-.12.23-.33.35-.63.35h-2.42c-.42,0-.57-.28-.35-.63l7.56-11.34c.16-.23.37-.33.63-.33h2.47c.31,0,.51.16.58.45l2.74,11.27c.09.35-.09.58-.45.58h-2.28ZM412,121.76h3.9l-.94-4.7-2.96,4.7Z"/>
    <path class="st2" d="M426.13,126.19c-.37,0-.54-.23-.47-.58l1.86-8.74h-3.26c-.37,0-.54-.23-.47-.57l.4-1.93c.07-.31.26-.47.57-.47h9.76c.37,0,.54.23.47.57l-.4,1.93c-.07.31-.26.47-.58.47h-3.38l-1.88,8.85c-.07.31-.26.47-.57.47h-2.06Z"/>
    <path class="st2" d="M437.28,126.19c-.37,0-.54-.23-.47-.58l2.39-11.25c.07-.31.26-.47.58-.47h9.34c.37,0,.54.23.47.57l-.4,1.92c-.07.31-.26.47-.57.47h-6.85l-.38,1.81h4.06c.37,0,.54.23.47.57l-.35,1.64c-.07.31-.26.47-.57.47h-4.18l-.4,1.88h6.72c.37,0,.54.23.47.57l-.4,1.92c-.07.31-.26.47-.58.47h-9.34Z"/>
    <path class="st2" d="M452.22,126.19c-.37,0-.54-.23-.47-.58l2.39-11.25c.07-.31.26-.47.57-.47h7.14c2.79,0,4.11,1.67,3.48,4.62l-.66,3.14c-.64,3.07-2.04,4.55-4.74,4.55h-7.72ZM455.35,123.26h4.48c.92,0,1.5-.31,1.78-1.65l.66-3.08c.28-1.38-.1-1.67-1.08-1.67h-4.48l-1.36,6.41Z"/>
    <path class="st2" d="M469.1,126.19c-.38,0-.54-.19-.47-.58l.45-2.12c.07-.3.26-.45.57-.45h2.02c.38,0,.54.19.47.58l-.45,2.12c-.07.3-.26.45-.58.45h-2.02Z"/>
  </g>
</svg>