<?xml version="1.0" encoding="UTF-8"?>
<svg id="Layer_1" data-name="Layer 1" xmlns="http://www.w3.org/2000/svg" viewBox="0 0 131.88 146.55">
  <defs>
    <style>
      .cls-1 {
        fill: #1b3764;
      }
    </style>
  </defs>
  <path class="cls-1" d="M30.48,19.73l-3.22-3.9,2.18-2.21L17.94,0l-4.42,3.74L11.13.48l-2.93,2.14,2.53,3.47-1.86,1.57-2.96-3.09-2.62,2.51,2.8,2.92L1.27,14.08l11.73,13.89,1.71-1.44,3.34,3.96L0,46.11l84.85,100.44,6.78-3.38c2.85-1.42,5.53-3.19,7.97-5.25,2.38-2.01,4.53-4.3,6.39-6.81l3.61-4.89,7.27-4.01c5.86-3.23,10.47-8.42,12.98-14.62l2.03-5.03L48.64,4.02l-18.16,15.71ZM52.09,13.73l-20.29,17.14-3.65-4.32,20.09-17.38,3.85,4.56ZM80.56,135.86l-5.01-5.93,13.55-12c5.29-4.69,5.86-12.87,1.26-18.25l-42.06-49.13c-4.65-5.43-12.87-6.09-18.33-1.48l-13.27,11.21-5.87-6.95L54.43,16.5l69.72,82.54-43.59,36.82ZM73.21,127.15L19.05,63.04l13.27-11.21c3.94-3.33,9.88-2.85,13.23,1.07l42.06,49.13c3.32,3.88,2.91,9.79-.91,13.17l-13.49,11.95ZM17.51,5.11l6.51,7.7-11.12,9.4-6.51-7.7,11.12-9.4ZM16.94,23.54l7.05-5.96,3.74,4.53-1.93,1.67-2.15-2.55-2.77,2.34,2.18,2.58-2.26,1.96-3.86-4.57ZM25.41,28.92l3.62,4.29-20.53,17.34-3.42-4.04,20.32-17.58ZM103.06,128.94c-3.41,4.62-7.92,8.41-13.06,10.97l-4.23,2.11-2.87-3.4,20.74-17.52,2.84,3.21-3.42,4.63ZM126.48,106.22c-2.2,5.43-6.23,9.98-11.36,12.8l-5.7,3.14-3-3.39,20.08-16.96,1.2,1.42-1.21,3Z"/>
</svg>