<?xml version="1.0" encoding="UTF-8"?>
<svg id="Layer_1" data-name="Layer 1" xmlns="http://www.w3.org/2000/svg" viewBox="0 0 150.52 168.06">
  <defs>
    <style>
      .cls-1 {
        fill: #1b3764;
        stroke: #1b3764;
        stroke-miterlimit: 10;
        stroke-width: .96px;
      }
    </style>
  </defs>
  <g id="fnML7x">
    <g>
      <path class="cls-1" d="M103.1.48c2.42,1.54,4.94,2.66,5.54,5.83,1.4,7.42.02,15.59-9.26,15.05l.12,41.43,49.31,78.8c4.16,11.61-2.65,23.48-14.61,25.98H16.3c-11.96-2.4-18.74-14.45-14.61-25.98L51,62.8l.12-41.43c-4.34.48-8.73-2.21-9.3-6.72-.72-5.63-.33-11.69,5.58-14.17h55.7ZM49.13,5.68c-3.31.76-3.47,10.29.86,10.55l50.58.03c1.69-.07,2.72-.91,2.98-2.59.39-2.49.8-7.91-2.55-8.07l-51.86.07ZM94.28,21.37h-38.06v43.4l-20.42,32.26c24.63.42,47.77,10.89,72.18,13,3.27.28,7.97.69,11.15.49,1.31-.08,2.66-.44,3.92-.71l-28.78-45.49V21.37ZM32.16,102.21l-24.59,39.23c-5.14,9.37.9,20.82,11.73,21.06l112.81-.03c9.71-.96,15.48-10.89,11.47-19.81l-17.26-27.3c-4.4,0-8.83.43-13.25.25-3.29-.13-7.28-.6-10.59-1.01-23.62-2.94-46.26-12.82-70.31-12.39Z"/>
      <path class="cls-1" d="M73.48,138.25l14.22-5.56c-1.24-9.95,9.21-17.22,17.87-11.45,4.61,3.07,4.45,7.03,4.78,12.04l9.77,4.51c3.96-2.69,7.36-4.58,12.32-3.03,8.94,2.8,9.43,17.03.62,20.31s-16.17-3.53-15.18-12.48c-2.17-.44-8.98-5.24-10.58-4.5-.55.25-1.35,1.5-2.18,2.03-3.17,2.02-7.99,2.06-11.31.32l-3.89-3.05-13.74,5.8c-.78.75-.36,3.47-.66,4.91-1.39,6.83-9.53,9.61-15.36,6.49-4.81-2.57-6.52-7.84-5.53-13l-11.55-6.88c-9.93,7.99-23.01-2.39-17.57-13.87,4.49-9.47,19.91-6.61,21.31,3.92.31,2.36-1.01,4.69.41,6.1,2.17,2.16,7.79,4.15,10.24,6.49,4.61-4.21,12.3-4.36,16.02.9ZM41.6,126.3c0-3.34-2.71-6.05-6.05-6.05s-6.05,2.71-6.05,6.05,2.71,6.05,6.05,6.05,6.05-2.71,6.05-6.05ZM94.91,125.96c-8.15,7.79,8.83,16.4,10.02,5.13.63-5.94-6.19-8.8-10.02-5.13ZM69.06,140.82c-3.92-3.74-12.27,1.18-8.4,7.24,4.48,7.02,14.4-1.53,8.4-7.24ZM134.34,145.14c0-3.05-2.47-5.52-5.52-5.52s-5.52,2.47-5.52,5.52,2.47,5.52,5.52,5.52,5.52-2.47,5.52-5.52Z"/>
      <path class="cls-1" d="M87.09,38.25c0,6.57-5.33,11.9-11.9,11.9s-11.9-5.33-11.9-11.9,5.33-11.9,11.9-11.9,11.9,5.33,11.9,11.9ZM81.8,38.23c0-3.67-2.97-6.64-6.64-6.64s-6.64,2.97-6.64,6.64,2.97,6.64,6.64,6.64,6.64-2.97,6.64-6.64Z"/>
      <path class="cls-1" d="M82.18,68.06c0,5.97-4.84,10.8-10.8,10.8s-10.8-4.84-10.8-10.8,4.84-10.8,10.8-10.8,10.8,4.84,10.8,10.8ZM76.95,68.02c0-3.06-2.48-5.54-5.54-5.54s-5.54,2.48-5.54,5.54,2.48,5.54,5.54,5.54,5.54-2.48,5.54-5.54Z"/>
      <path class="cls-1" d="M102.77,90.55c0,5.96-4.83,10.79-10.79,10.79s-10.79-4.83-10.79-10.79,4.83-10.79,10.79-10.79,10.79,4.83,10.79,10.79ZM97.53,90.6c0-3.06-2.48-5.54-5.54-5.54s-5.54,2.48-5.54,5.54,2.48,5.54,5.54,5.54,5.54-2.48,5.54-5.54Z"/>
    </g>
  </g>
</svg>