<?xml version="1.0" encoding="UTF-8"?>
<svg id="Layer_1" data-name="Layer 1" xmlns="http://www.w3.org/2000/svg" viewBox="0 0 168.03 168.05">
  <defs>
    <style>
      .cls-1 {
        fill: #1b3764;
        stroke: #1b3764;
        stroke-miterlimit: 10;
        stroke-width: .95px;
      }
    </style>
  </defs>
  <g id="_0KQEfq" data-name="0KQEfq">
    <path class="cls-1" d="M148.75,23.35c-3.3,3.29-1.05,2.99-1.94,5.67-.74,2.22-4.95,5.13-5.72,7.75,0,1.26,4.51,5.11,5.12,7.01,1.1,3.43-7.96,7.3-10.1,9.89l-3.35-2.47-77.26,58.61c-.36,1.17,1.85,3.53,2.66,4.58,4.76,6.16,13.18,13.68,17.02,19.79,2.24,3.56,2.95,11.54-1.86,12.61l-23.87-20.67,15.1,32.76c1.22,4.23-2.56,8.52-6.8,8.69-4.08.16-6.96-4.57-9.26-7.38-7.26-8.91-13.72-18.71-20.58-27.93-2.41-1.22-3.57,2.42-5.24,1.59l-9.48-12.32c-8.24,1.49-9.49,8.23-3.25,13.64.32,1.42-2.08,2.17-3.22,1.52-6.98-7.98-4.49-13.23,3.89-18.27L.65,104.45l19.28-14.54-1.19-4.51,10.44-7.37,3.27,1.87L108.66,22.4c2.53-1.64-.81-3.32-.07-4.7.31-.57,9.68-7.56,10.42-7.77,2.43-.68,5.19,5.71,7.14,7.04,1.86.56,6.82-2.94,8.77-3.19,1.62-.21,2.24,1.5,3.68,1.16L162.73.8c3.22-1.32,6.24,1.55,4.11,4.81-3.26,4.99-13.41,13.08-18.09,17.74ZM159.46,8.61c1.04-1.02,4.23-2.44,3.4-4.29l-23.08,13.71c1.6,1.05,2.85,5.68,4.88,4.92,1.32-.5,12.59-12.19,14.8-14.34ZM119.29,13.29l-7.13,5.42,23.74,31.24,7.13-5.42-23.74-31.24ZM139.76,33.76c.33-2.4,3.79-3.6,3.24-6.19-.11-.52-5.51-7.9-6.21-8.56-3.06-2.87-5.12.07-8.4.71-.49.64,8.46,12.09,9.38,13.03.63.65.86,1.27,1.98,1.01ZM131.07,49.14l-19.07-25.3-8.03,5.91c-.31,7-.08,12.15-5.37,17.39l-56.88,42.84-.92,1.55c2.11,1.99,11.07,16.03,12.84,15.76l54.64-41.74-3.23-4.14,1.58-2.21,4.04,4.68c1.8-1.17,4.95-2.15,3.83-4.49-.82-1.7-7.06-7.34-4.85-8.89,2.48-1.74,6.66,7.74,8.35,7.87l13.06-9.22ZM100.95,33.09l-65.95,48.85c-1.33,2.07,2.88,4.52,3.06,6.69l59.84-45.55c1.84-2.99,3.21-6.39,3.05-9.99ZM52.76,113.39l-22.75-31.15c-1.22-.77-7.95,3.96-7.06,5.71l22.07,28.84,1.92.55,5.82-3.96ZM25.32,96.66l-3.62-4.64-17.12,12.7,19.07,25.3,16.98-13.02c.22-1.12-2.33-4.42-3.5-4.21l-12.05,8.57c-.84-.16-9.74-11.78-10.75-13.34-.33-.52-.89-1.15-.95-1.75-.14-1.6,9.88-8.42,11.94-9.6ZM27,98.71l-9.69,7.67c1.64,1.42,1.88,4.42,4.47,3.19,2.68-1.27,6.14-4.94,8.89-6.53l-3.67-4.32ZM31.84,106.14l-9.17,7,3.01,4.28,9.39-6.69c.82-1.49-1.37-5.06-3.23-4.59ZM73.51,142.18c.47-3.35-.3-4.99-2.12-7.58-4.54-6.44-11.43-12.28-15.93-18.9-1.3-.85-6.07,3.75-7.36,4.72l25.42,21.75ZM43.37,120.12c-.74-.21-1.3.01-1.96.32-.61.28-10.27,7.53-10.71,8.03-.54.61-.97.9-.58,1.83l24.38,32.56c3.59,3.45,8.51.13,6.51-4.51l-17.64-38.24Z"/>
  </g>
</svg>