<?xml version="1.0" encoding="UTF-8"?>
<svg id="Layer_1" data-name="Layer 1" xmlns="http://www.w3.org/2000/svg" viewBox="0 0 112.52 144.21">
  <defs>
    <style>
      .cls-1 {
        fill: #1b3764;
      }
    </style>
  </defs>
  <g id="isbewR.tif">
    <g>
      <path class="cls-1" d="M60.29,144.21h-7.6C24.96,142.15,1.64,119.53.06,91.4c-1.4-24.89,20.93-51.44,36.03-69.54,5.21-6.25,10.96-13.4,16.45-19.3,2.01-2.16,3.63-3.75,6.45-1.37,25.08,32.15,73.32,72.49,44.76,117.09-9.36,14.61-26.08,24.79-43.46,25.93ZM56.25,9.06c-13.67,16.59-29.35,32.67-40.09,51.43-11.27,19.68-13.36,39.63,1.64,58.23,35.11,43.55,105.05,3.39,84-48-9.36-22.85-29.59-42.06-44.74-61.12l-.81-.54Z"/>
      <path class="cls-1" d="M25.29,86.57c1.2,1.27,1,5.35,1.3,7.28,1.92,12.27,11.62,22.51,23.83,24.87,2.26.44,4.72.33,6.84.76,3.68.74,3.58,6,0,6.63-6.02,1.07-16.65-2.94-21.67-6.35-8.92-6.06-17.82-20.32-16.1-31.44.41-2.67,4-3.65,5.8-1.75Z"/>
    </g>
  </g>
</svg>