<?xml version="1.0" encoding="UTF-8"?>
<svg id="Layer_1" xmlns="http://www.w3.org/2000/svg" version="1.1" viewBox="0 0 391.38 121.31">
  <!-- Generator: Adobe Illustrator 30.0.0, SVG Export Plug-In . SVG Version: 2.1.1 Build 123)  -->
  <defs>
    <style>
      .st0, .st1 {
        fill: none;
      }

      .st2 {
        fill: #007198;
      }

      .st3 {
        fill: #f26b26;
      }

      .st1 {
        stroke: #f16022;
        stroke-miterlimit: 10;
        stroke-width: 1.57px;
      }

      .st4 {
        fill: #dad9d9;
      }

      .st5 {
        fill: #d1181f;
      }

      .st6 {
        fill: #c5c4c4;
      }

      .st7 {
        fill: #fff;
      }

      .st8 {
        fill: #c7c5c4;
      }

      .st9 {
        fill: #dedddc;
      }
    </style>
  </defs>
  <g>
    <g>
      <g>
        <path class="st7" d="M379.77,26.04h-8.98c-.11,0-.17.06-.17.17v1.69c0,.11.06.17.17.17h3.33s.02,4.57.02,4.57c0,.05.02.08.05.12.03.03.07.05.12.05h1.96c.11,0,.17-.06.17-.17v-4.57h3.33c.11,0,.17-.06.17-.17v-1.69c0-.11-.06-.17-.17-.17Z"/>
        <path class="st7" d="M391.22,26.04h-2.18s-.06.01-.08.03l-3.04,2.74-3.04-2.74s-.05-.03-.08-.03h-2.18c-.11,0-.17.06-.17.17v6.43c0,.11.06.17.17.17h1.96c.11,0,.17-.06.17-.17v-3.94s-.02-.22-.02-.22l2.62,2.55s.05.03.08.03h.98s.06-.01.08-.03l2.64-2.57-.03.24v3.94c0,.11.06.17.17.17h1.96c.11,0,.17-.06.17-.17v-6.43c0-.11-.06-.17-.17-.17Z"/>
      </g>
      <path class="st7" d="M213.4,78.35c-15.09,0-27.25-11.71-27.25-26.15,0-14.45,12.16-26.15,27.25-26.15,15.09,0,27.25,11.71,27.25,26.15,0,14.45-12.16,26.15-27.25,26.15ZM213.4,37.09c-8.26,0-14.9,6.75-14.9,15.11,0,8.36,6.65,15.11,14.9,15.11,8.26,0,14.9-6.75,14.9-15.11,0-8.36-6.65-15.11-14.9-15.11Z"/>
      <path class="st7" d="M270.44,26.04h6.97c.64,0,1.04.7.71,1.25l-5.57,9.31c-.22.12-.48.27-.7.4-11.75.21-15.02,8.56-15.02,14.08v24.95c0,.46-.37.82-.82.82h-11.09c-.46,0-.82-.37-.82-.82v-25.27c0-14.87,10.73-24.71,26.34-24.71Z"/>
      <path class="st7" d="M275.23,67.78l24.9-30.8h-22.79c-.64,0-1.04-.7-.71-1.25l5.56-9.3c.15-.25.42-.4.71-.4h33.09c.46,0,.82.37.82.82v8.24s-24.9,30.8-24.9,30.8h24.08c.46,0,.82.37.82.82v9.3c0,.46-.37.82-.82.82h-39.94c-.46,0-.82-.37-.82-.82v-8.24Z"/>
      <path class="st7" d="M370.62,52.2v23.87c0,.46-.37.82-.82.82h-7.32c-.33,0-.64-.2-.76-.51l-2.25-5.61c-3.11,4.57-10.34,7.59-16.28,7.59-15,0-26.61-11.71-26.61-26.15,0-14.45,11.61-26.15,26.61-26.15,15,0,27.44,11.71,27.44,26.15ZM358.29,52.2c0-8.36-6.75-15.11-15.11-15.11s-15.11,6.75-15.11,15.11c0,8.36,6.75,15.11,15.11,15.11,8.36,0,15.11-6.75,15.11-15.11Z"/>
      <path class="st7" d="M143.84,76.17V30.25c0-10.18,8.26-18.44,18.44-18.44h33.02c.7,0,1.2.67.99,1.34l-2.44,8.11c-.44,1.45-1.78,2.45-3.29,2.45h-23.07c-5.57,0-10.08,4.51-10.08,10.08v5.38s25.49,0,25.49,0c.7,0,1.2.67.99,1.34l-2.4,7.96c-.44,1.45-1.78,2.45-3.29,2.45h-20.79s0,26.09,0,26.09h-12.72c-.46,0-.84-.38-.84-.84Z"/>
    </g>
    <g>
      <g>
        <path class="st0" d="M54.69,9.83l-.59-.26c.17.08.34.17.5.26h.09Z"/>
        <path class="st0" d="M54.81,77.51c.33.67.53,1.08.53,1.08,0-.02-.02-.03-.04-.04l.03.05,9.3-5.45s0-.04.02-.06c-2.01-1.92-2.66-2.61-5.25-5.29-1.25-1.29-2.47-2.42-3.58-3.77,0,0-.3.14-.73.48-.28.36-1.71,2.49-1.98,5.44-.34,3.63.73,5.22,1.71,7.55v.02Z"/>
        <path class="st0" d="M91.8,12.96c.03.37.05.72.08,1.13,0-.26-.04-.64-.08-1.13Z"/>
        <polygon class="st0" points="81.42 77.74 81.42 77.74 81.42 77.74 81.42 77.74"/>
        <path class="st0" d="M69.5,7.93s2.37-1.22,3.11-1.6h0l-3.11,1.6Z"/>
        <path class="st0" d="M53.09,43.04h0s0,0,0,0h0Z"/>
        <path class="st0" d="M91.39,10.47c.03.14.05.25.08.36-.03-.12-.05-.25-.08-.36Z"/>
        <path class="st0" d="M90.84,8.67c.19.59.38,1.22.54,1.75-.14-.57-.31-1.16-.54-1.75Z"/>
        <path class="st0" d="M113.63,24.2c.24-.47.45-.91.61-1.27l-.62,1.26h0s0,0,0,0Z"/>
        <path class="st0" d="M81.41,77.74l-1.43.92c.5-.32.99-.63,1.44-.92h0Z"/>
        <path class="st0" d="M48.74,65.1h0v.02h0v-.02Z"/>
        <polygon class="st0" points="27.31 89.48 29.38 68.72 27.31 60.05 19.99 76.51 27.31 89.48"/>
        <polygon class="st0" points="14.27 63.16 19.99 76.51 15.68 45.57 14.27 63.16"/>
        <path class="st0" d="M122.71,61.66c-.09-.25-.19-.47-.28-.64-.03-.05-.05-.08-.08-.13.03.05.05.1.08.16.11.21.19.41.28.61Z"/>
        <path class="st0" d="M72.83,6.16h0s.07-.04.11-.06l-.13.06h0Z"/>
        <polygon class="st0" points="78.21 8.71 78.23 8.72 76.73 5.65 76.7 5.64 78.21 8.71"/>
        <polygon class="st0" points="17.55 32.79 15.68 45.57 27.31 60.05 26.76 43.55 17.55 32.79"/>
        <path class="st0" d="M76,12.94h-.03.03Z"/>
        <path class="st0" d="M80.46,48.3h0c.08-.02.16-.03.24-.05h0c-.07.02-.16.03-.24.05Z"/>
        <path class="st0" d="M102.66,19.46l-.98-1.1c.2.26.55.63.98,1.1Z"/>
        <path class="st0" d="M80.48,48.25l-.03.05c.08-.02.16-.03.24-.05h-.21Z"/>
        <path class="st0" d="M68.28,13.75l7.7-.8h0c-2.57.26-5.12.54-7.7.8h0,0Z"/>
        <path class="st6" d="M59.36,91.55h0s.09-.06.14-.09l3.05-11.52-.57.06c.21-.14.43-.26.65-.39h0-.03c.59-1.79,1.32-4.19,2-6.46l-9.3,5.45h0l-10.6,6.22,14.67,7.08.03-.09c-.02-.08-.04-.16-.05-.25h0Z"/>
        <polygon class="st6" points="55.33 78.59 44.72 84.81 55.33 78.59 55.33 78.59"/>
        <path class="st6" d="M64.66,73.12l-.04.02c-.67,2.28-1.4,4.68-2,6.46h.03c.07-.04.15-.08.22-.12l1.79-6.36h0Z"/>
        <path class="st6" d="M62.65,79.61l.19-.02v-.03c-.05.02-.13.03-.19.04h0Z"/>
        <path class="st6" d="M61.99,80.01l.57-.06.08-.33c-.22.13-.45.26-.65.39Z"/>
        <path class="st6" d="M62.66,79.6c.06-.02.13-.03.19-.04l.02-.08c-.07.04-.15.08-.22.12h0Z"/>
        <polygon class="st6" points="59.36 91.55 59.36 91.55 59.36 91.54 59.36 91.55"/>
        <path class="st6" d="M59.36,91.55c.02.08.04.16.05.25l.09-.34s-.09.06-.14.09Z"/>
        <path class="st6" d="M62.64,79.61h.02-.02Z"/>
        <polygon class="st6" points="62.55 79.94 59.5 91.46 59.51 91.45 62.75 79.92 62.55 79.94"/>
        <polygon class="st6" points="59.41 91.8 59.39 91.89 59.41 91.8 59.41 91.8"/>
        <path class="st6" d="M62.64,79.62l-.08.33.2-.03.09-.33-.19.02h-.02Z"/>
        <polygon class="st6" points="59.41 91.8 59.41 91.8 59.51 91.45 59.5 91.46 59.41 91.8"/>
      </g>
      <g>
        <polygon class="st3" points="49.14 39.18 49.19 39.17 49.15 39.17 49.14 39.18"/>
        <path class="st3" d="M85.18,30.95h0c.49.05,1.27.22,2.12.67h0c.24.13.46.27.65.41-.19-.15-.41-.28-.65-.41-.86-.47-1.64-.62-2.12-.67Z"/>
        <path class="st3" d="M80.16,30.01c.08.11.14.22.17.33-.04-.12-.08-.23-.17-.34-.44-.54-1.4-.67-1.69-.69-1.28-.11-2.79-.27-5.86-1.48h0c3.07,1.21,4.59,1.38,5.85,1.49.3.03,1.25.15,1.69.69h0Z"/>
        <path class="st3" d="M128.51,35.95c-2.28-2.43-7.61-4.46-11.8-5.77-.83-2.38-1.74-5.3-2.47-7.25-.16.36-.37.79-.61,1.27.34,1.03.56,1.95.84,2.97-.67-1.53-1.84-3.58-2.65-4.7-.03-.05-.06-.09-.1-.14.34.56.64,1.12.98,1.81-1.12-1.05-2.41-2.61-3.33-3.57h0c-2.22-2.44-2.9-2.67-4.57-5.18,1.06.78,1.96,1.38,2.94,2.23-1.16-1.35-2.27-2.67-3-3.78,2.13,2.3,5.97,6.02,8.45,9.13.17.43.32.83.45,1.22l.62-1.26-10.34-11.84-.54,1.75-3.71-2.64-4.29-2.89-8.67-5.77c.03.06.61.79,1.39,1.94.9,1.25,1.75,2.48,2.12,3.43.17.41.39,1.07.62,1.77.23.59.4,1.18.54,1.75v.05c.03.13.05.25.08.36.21.96.28,1.59.33,2.13.05.48.06.88.08,1.13,0,.12.03.25.04.37l-9.45-8.58.38,2.32-6.13-2.54,1.51,3.07h-.03l.04.05s-4-1.84-5.63-2.43v-.02h0,0c.08-.05.16-.1.25-.16h0l.13-.07c2.88-1.84,6.34-4.9,8.78-4.53l.07-.04C72.1.46,69.54.17,63.38.02,61.82-.02,49.84.02,49.84.02l1.33,1.88-11.62,1.8c.88.26,1.92.55,3.05.86l2.86,1.25,8.63,3.77.59.26h-.09c-7.71-.58-13.09-.97-23.1,2.44-3.27,1.19-6,2.48-8.41,3.88-5.61,3.27-9.44,7.15-14.17,11.64,5.8-2.47,8.42-3.67,14.63-5.82,7.94-3.65,14.88-3.65,14.88-3.65-2.95,1.84-5.93,3.66-5.93,3.66l6.08,8.43s-.94-9.36,5.55-10.35l-.59,2.02c-.92,3.15-.81,6.54.47,9.56,0,.02.02.04.03.05,1.72,4.08,5.13,7.4,5.13,7.4l-.02.03.03.02-8.11,11.33,3.69-2.49c-.16.1-.3.18-.46.28,1.84-2.07,5.77-4.55,8.09-6.18-1.62.13-2.04.5-4.52,1.41,2.43-1.85,3.29-2.25,6.57-3.04h0c-.79.99-.99,1.35-1.35,2.54h0c.69-.31,1.5-.69,2.64-.71-.6.36-1.64,1.49-1.86,2.33,1.09-.67,3.36-1.22,4.48-1.46-3.07,1.44-6.97,4.72-9.24,8.6,0-.05.03-.1.04-.15-.62,1.27-1.34,3.16-1.38,5.15-.08,4.83.92,8.06.96,8.28h0c.03-.12.05-.24.08-.34.78-2.89,2.84-4.32,5.12-4.92-1.05,1.02-2.39,2.24-3.01,4.36-.42,1.42-.57,2.06-.57,3.01.33-1.21.49-1.7,1.19-2.51.88-1,1.87-1.47,2.65-1.67-1.67,1.87-2.11,2.73-2.24,4.5-.03.41-.02.88.02,1.4.31-.82.67-1.61,1.07-2.22.49-.77,1.58-1.97,2.03-2.22,0,0,0,.02-.02.02.43-.35.73-.48.73-.48,1.11,1.36,2.34,2.49,3.58,3.77,2.58,2.67,3.24,3.36,5.25,5.29,1.08-3.64,2-6.95,2-6.95,0,0,.17,10.84,7.84,9.21-1.1-2.24-2.1-4.05-.07-7.1,2.62-3.97,4.63-6.3,5.55-7.1-.33,1.75-.88,3.76-.89,6.15-.02,2.32,0,3.59.11,4.34.39-1.1.92-2.37,1.62-3.71.67-1.29,2.74-4.08,3.4-5.01l.02.02c.52-.78,1.15-1.58,1.71-2.12.71-.7,1.28-1.31,1.62-1.69-1,.53-2.87.32-3.88.85.62-.81,1.6-2.07,3.38-3.51.13-.1.26-.19.39-.29-3.57-.59-7.09-2.2-10.35-3.64h0c-2.17-.98-4.04-1.81-4.04-1.81h0,.04c8.26-1.4,19.63-6.15,27.88-7.53,1.1-1.4,2.35-3.09,3.76-4.78-.22.26-.43.5-.6.73.87-1.2,1.71-2.03,2.38-4.15.54-1.7-.42-3.9-1.29-5.48-.54-.98-.88-1.75-2.97-3.86,1.44.97,3.74,2.69,5.44,5.41-.68-2.55-2.19-5.3-3.82-7.12,2.31,1.98,3.42,2.92,6.05,6.37-.49-1.81-4.36-7.7-6.77-10.2,2.42,1.52,3.3,2.53,4.66,3.86.33.32.65.65.95.98,1.05,1.17,1.78,1.84,2.67,2.57h0c-.79-2.45-1.19-3.24-2.01-5.38,1.32,1.98,3.99,6.63,5.15,8.57-.03,0-.06.03-.09.05.57-.17,1.14-.3,1.72-.37.14-.05.24-.1.46-.2.37.2,2.41.8,3.09,2.81.72,2.12-.53,4.25-.69,4.6.05-.71.99-2.74-.31-4.73-.71-1.09-2.06-1.87-2.72-2.27-5.46,2.38-11.29,9.67-14.39,14.36-8.65,1.12-19.92,4.63-28.58,5.76h-.03s23.18.65,35.58,2.87c8.99,1.6,12.04,4.23,13.7,7.33.03.05.06.08.08.13.1.17.19.39.28.64,1.42,3.03,1.46,5.65.95,7.91v-.07c-.15,2.12-.48,3.89-.79,5.19,1.59-1.53,5.78-6.44,7.6-14.38.84-3.62,1.95-6.79,1.97-12.72,0-5.45-1.31-8.85-3.92-11.64h.06ZM32.55,14.36c-3.14,1.09-5.94,2.33-8.35,3.5-1.54.76-2.92,1.49-4.08,2.14.53-.41,1.33-1,2.36-1.7,2.62-1.76,6.7-4.13,11.55-5.53h0c4.1-1.19,7.12-1.2,8.84-1.09-2.61.43-6.12,1.19-10.33,2.66ZM100.56,12.84l-.75-.16,1.3,1.64-3.45-1.59,1.34-.16-1.87-3.3,3.42,3.56ZM69.5,7.93l3.11-1.6c-.74.38-3.1,1.6-3.11,1.6ZM49.95,5.34s4.81-1.4,7.97-1.93c1.37-.22,2.49-.45,3.66-.59-3.26-.33-6.04-.79-6.04-.79,0,0,5.8-.29,9.52-.07h0c3.68.21,5.92.17,10.39,1.39-1.26-.05-3.31-.07-5.5-.11-3.36-.05-6.7.23-9.98.89-.67.14-1.35.26-1.98.37-3.74.65-8.04.86-8.04.86h0ZM44.15,20.12c2.21-1.09,4.47-1.47,7.37-2.19-.88-.47-1.85-1-3.48-1.46,3.9-1.1,6.33-1.4,11.22.33h0s0,0,0,0c-2.28-.25-3.51-.66-7.31-.24,1.26.15,3.83,1.37,5.22,2.97-3.19-.37-3.81-.44-6.85.03,4.53.84,6.39,1.54,9.08,2.46-6.12-.75-10.01-1.22-15.25-1.91h0ZM53.23,51.78c-1.69,2.77-2.56,5.37-3.05,7.26,0-1.35.16-5.04,2.69-8.51,1.54-2.1,3.35-3.29,4.48-3.9-1.23,1.19-2.74,2.89-4.12,5.15ZM63.89,50c-2.53,2.34-3.5,5.3-3.5,5.3.19-1.5,1.37-4.57,1.37-4.57l-3.41,3.32s1.96-4,4.77-5.57c2.6-1.46,5-1.55,5-1.55,0,0-1.54.6-4.22,3.08h0ZM80.47,48.3h0l.03-.05h.22c-.07.02-.16.03-.24.05ZM99.76,34.36c-.09.1-.18.19-.3.3-.37.35-.99.9-1.95,1.1,0,0-.68.12-1.49,0h0c-.12,0-.25-.06-.37-.15-.74-.27-1.74-.55-2.95-.52-1.91.05-2.85.8-5.66,1.87-2.47.94-3.71,1.4-5.01,1.43-2.92.07-5.14-1.77-6.69-3.05-1.75-1.45-3.19-3.45-4.34-5.51-.04,0-.07-.03-.11-.04.89,2.26,1.46,3.55,2.3,4.82,1.21,1.84,2.58,3.25,4.23,4.08,1.27.65,3.3,1.79,6.83.78,2.53-.72,5.43-2.02,6.16-2.69-.28.85-1.26,1.7-3.11,2.74-4.41,2.44-8.23,1.91-10.84.78-3.78-1.65-6.69-8.4-7.79-11.25-.04,0-.06-.03-.1-.04-.06,2.63,1.77,6.78,3.44,10.08-4.51-3.89-6.87-9.1-7.69-11.56-2.32-.8-4.59-1.6-6.38-2.18h0c3.04.14,7.82.52,11.26.72-.8-1.96-1.31-3.69-1.55-4.69,2.09,1.9,5.43,4.49,8.54,5.31,2.67.7,5.1,1.05,7.11,1.19-.46-.36-1.05-.91-1.59-1.71-.42-.61-.68-1.19-.87-1.66.08.06.18.14.26.21-3.65-3.84-4.69-4.7-8.17-8.04,6.44,3.58,11.84,6.86,15.95,9.45-1.19-1.45-1.79-2.02-3.41-3.61,1.27.48,2.16.9,3.02,1.41,1.02.61,1.95,1.39,2.77,2.26,1.14,1.2,2.38,2.59,3.93,3.99.61.52,2.13,2.22,2.87,1.65.53-.42.38-1.63.05-2.12-.6-.88-1.61-1.49-2.82-1.93,1.12-.44,1.74-.41,2.43,0,.95.56,1.26,1,1.68,1.98.07-.65.15-1.89-.54-2.64-.49-.54-.88-.88-2.13-1.58-1.59-.87-1.92-1.04-5.32-2.24,2.4.17,3.42.44,4.77.84,2,.59,2.87,1.19,3.36,1.7.29.3.46.56.57.72.78,1.19.99,2.63,1.03,3.79.05,1.46-.41,2.92-1.4,3.98h0ZM117.38,36.12c-.24.78-1.6,1.27-2.33.9-.98-.47-1.29-.63-2.59-1.38,1.3-.34,2.63-.44,3.94-.65h0c.64-.11,1.17.49.98,1.12h0ZM115.76,33.21c.65.16,1.09.58,1.39.94h0c-.55-.1-1.22-.17-2.01-.1-1.34.12-2.52.59-3.38,1.04.3-.34,2.16-2.34,4.01-1.88ZM106.12,51.84c-5.36-.66-22.16-1.36-21.66-1.41,7.21-.72,15.25-1.74,23.05-.17,7.2,1.44,12.68,5.12,14.09,8.01-2.58-3.64-11-5.87-15.47-6.42h0ZM130.39,45.46l-.1-1.39c-.06-.47-.14-1.02-.34-1.74-.16-.59-.26-.77-.47-1.15-.85-1.61-1.21-2.28-2.42-3.44-.78-.76-1.2-1.08-1.75-1.53-.35-.29-.98-.67-1.4-.95-.49-.32-2.73-1.35-2.73-1.35,0,0,2.28.83,2.62.98,1.48.68,2.79,1.48,3.61,2.24.98.89,1.49,1.64,2.17,3.15.4.88.41,1.1.57,1.82.15.67.12.83.19,1.68h0c.02.13.02.26.02.38v1.28h.03Z"/>
        <path class="st3" d="M54.91,77.73l.4.82s.02.03.04.04c0,0-.2-.41-.53-1.08.03.07.06.15.09.22Z"/>
        <path class="st3" d="M82.04,34.91c-1.67.08-3.24-1.11-3.6-2.5-.09-.31-.1-.59-.09-.82h0c0,.22,0,.5.09.83.37,1.39,1.93,2.58,3.6,2.5h.05-.05Z"/>
        <path class="st3" d="M81.42,77.74h0c-.46.29-.94.6-1.44.92l-20.55,13.2c1.33,6.58,1.98,9,4,13.86,2.96,7.08,5.28,10.54,9.4,15.59-.64-5.51-.82-6.51-.71-9.46.16-5.04.45-5.39.98-8.28,1.89,3.46,4.39,5.35,7.36,8,4.55,4.04,8.96,6.13,14.56,8.59-6.05-8.84-9.66-13.78-11.9-23.27-1.28-5.34-2.16-10.2-1.69-19.15h0Z"/>
        <path class="st3" d="M105.95,54.84c-7.1-1.21-13.93-1.46-17.94-1.58,3.32,2.61,9.48,4.64,13.18,5.56,5.73,1.42,13.59.67,18.56,1.31-1.82-2.47-7.97-4.3-13.78-5.3h0Z"/>
      </g>
      <g>
        <path class="st2" d="M23.09,16.15c2.41-1.4,5.13-2.7,8.41-3.88,10.01-3.4,15.4-3.02,23.1-2.44-.16-.08-.33-.16-.5-.26l-8.63-3.77c-.78-.33-1.52-.64-2.19-.92-1.8.18-3.01.24-5.62.93-4.12,1.09-6.14,1.92-8.01,2.89.86.19,1.28.25,2.71.47-.07.04-.14.07-.2.12-3.18,1.91-6.08,3.89-9.06,6.87h0Z"/>
        <path class="st2" d="M72.61,6.35c1.63.59,5.63,2.43,5.63,2.43l-.04-.06-1.51-3.07h.02l6.13,2.55-.38-2.32,9.45,8.58c-.02-.14-.03-.26-.04-.37-.04-.4-.05-.76-.08-1.13-.04-.55-.11-1.17-.33-2.13-.03-.12-.05-.24-.08-.36v-.05c-.16-.53-.35-1.15-.54-1.75-.23-.69-.45-1.35-.62-1.77-.38-.95-1.22-2.17-2.12-3.43-.46-.64-.94-1.28-1.38-1.9v2.37s-1.97-1.84-4.9-2.37h-.07c-2.44-.36-5.9,2.69-8.78,4.53-.04.03-.07.05-.11.07-.08.05-.16.11-.25.16h0,0v.02h0Z"/>
        <path class="st2" d="M122.71,61.66c-.09-.2-.18-.4-.28-.61-.03-.05-.05-.1-.08-.16-1.66-3.09-4.7-5.72-13.7-7.33-12.4-2.22-35.58-2.87-35.58-2.87,0,0,1.87.83,4.04,1.8h0c3.26,1.46,6.78,3.06,10.35,3.65-.13.09-.26.18-.39.29-1.79,1.44-2.76,2.7-3.38,3.51,1-.53,2.87-.32,3.88-.85-.36.38-.91.98-1.62,1.69-.56.55-1.18,1.35-1.71,2.12l-.02-.02c-.67.92-2.73,3.73-3.4,5.01-.7,1.34-1.24,2.6-1.62,3.71-.11-.75-.13-2.02-.11-4.34.02-2.4.57-4.4.89-6.15-.92.81-2.94,3.14-5.55,7.1-2.02,3.05-1.03,4.87.07,7.1-7.67,1.63-7.84-9.21-7.84-9.21,0,0-.92,3.31-2,6.95,0,.02,0,.04-.02.06l.04-.02-1.79,6.36-.02.08v.03l-.1.33-3.25,11.53-.1.35-.03.08.04-.03,10.69-6.87c-.08.47-.16.95-.18,1.48-.11,2.46.6,4.35,1.03,5.29.09-.84.26-1.78.57-2.79.77-2.53,2.01-4.41,2.99-5.63-.26.71-.51,1.75-.51,2.98,0,2.8,1.79,5.12,1.79,5.12,0,0-.36-3.58,1.16-7.36.98-2.43,1.06-3.47,3.93-5.9h0c-.05,0-.11,0-.16,0l.69-.45h0l5.43-14.01c1.07-.29,2.55-.7,4-1.12,1.91-.55,3.83-.98,5.79-1.29,3.51-.54,6.81-1.23,9.86-1.91-.06-.05-.24-.15-.5-.27-.5-.23-.9-.37-1.03-.42-1.86-.6-5.57-1.81-7.36-2.5-.34-.14-.67-.26-.98-.38,1.52-.54,3.62-1.26,4.64-1.22,3.48.13,9.57.63,15.83,3.83,3.77,1.92,4.43,3.86,4.89,4.78,1.2,2.47,1.69,4.88,1.67,6.27v.07c.5-2.25.47-4.88-.95-7.91l.02.03Z"/>
        <polygon class="st2" points="97.67 12.74 101.12 14.32 99.81 12.67 100.56 12.84 97.14 9.28 99 12.57 97.67 12.74"/>
        <path class="st2" d="M116.41,35h0c-1.31.21-2.64.32-3.94.65,1.31.75,1.61.9,2.59,1.38.73.36,2.09-.12,2.33-.9.19-.63-.34-1.24-.98-1.12Z"/>
        <path class="st2" d="M73.05,50.7h.04-.04Z"/>
        <path class="st2" d="M116.05,30.57c.66.4,2.01,1.19,2.72,2.27,1.3,1.99.36,4.01.31,4.73.16-.36,1.42-2.47.69-4.6-.68-2.01-2.73-2.6-3.09-2.81-.22.09-.33.14-.46.2-.58.08-1.16.2-1.72.37.03,0,.06-.03.09-.05-1.16-1.94-3.84-6.59-5.15-8.57.82,2.14,1.2,2.93,2.01,5.38h0c-.9-.73-1.62-1.4-2.67-2.57-.3-.34-.62-.67-.95-.98-1.37-1.32-2.25-2.33-4.66-3.86,2.42,2.5,6.28,8.39,6.77,10.2-2.63-3.46-3.75-4.39-6.05-6.37,1.62,1.83,3.13,4.57,3.82,7.12-1.71-2.71-4-4.44-5.44-5.41,2.1,2.11,2.43,2.87,2.97,3.86.87,1.58,1.82,3.78,1.29,5.48-.67,2.12-1.51,2.95-2.38,4.15.17-.23.38-.47.6-.73-1.4,1.69-2.65,3.37-3.76,4.78-8.26,1.38-19.62,6.14-27.88,7.53,8.66-1.13,19.92-4.64,28.58-5.76,3.09-4.69,8.92-11.98,14.39-14.36h-.04Z"/>
        <path class="st2" d="M48.03,16.46c1.63.46,2.61.99,3.48,1.46-2.9.72-5.15,1.1-7.37,2.19,5.23.67,9.12,1.16,15.25,1.91-2.69-.92-4.55-1.62-9.08-2.46,3.04-.47,3.65-.4,6.85-.03-1.39-1.6-3.96-2.83-5.22-2.97,3.8-.42,5.03,0,7.31.24h0c-4.9-1.72-7.32-1.44-11.22-.34h0Z"/>
        <polygon class="st2" points="59.27 16.8 59.26 16.8 59.26 16.8 59.27 16.8"/>
        <path class="st2" d="M55.3,78.55l-.4-.82c-.03-.07-.06-.15-.09-.22-.98-2.33-2.05-3.92-1.71-7.55.27-2.95,1.7-5.09,1.98-5.44,0,0,0-.02.02-.02-.46.26-1.54,1.46-2.03,2.22-.39.6-.75,1.4-1.07,2.22-.04-.51-.05-.99-.02-1.4.13-1.79.57-2.64,2.24-4.5-.79.2-1.79.67-2.65,1.67-.7.81-.88,1.29-1.19,2.51,0-.95.16-1.59.57-3.01.62-2.12,1.96-3.34,3.01-4.36-2.3.6-4.36,2.03-5.12,4.92-.03.11-.05.23-.08.34h0l-.02.07-.06.31-3.95,19.32,10.6-6.22-.03-.05h0Z"/>
        <path class="st2" d="M63.89,50c2.67-2.48,4.22-3.08,4.22-3.08,0,0-2.4.09-5,1.55-2.81,1.57-4.77,5.57-4.77,5.57l3.41-3.32s-1.17,3.06-1.37,4.57c0,0,.98-2.95,3.5-5.3h0Z"/>
        <path class="st2" d="M57.94,25.38h0c1.8.58,4.08,1.37,6.38,2.18.82,2.46,3.17,7.67,7.69,11.56-1.67-3.3-3.5-7.46-3.44-10.08.04,0,.06.03.1.04,1.09,2.85,4,9.6,7.79,11.25,2.61,1.13,6.43,1.66,10.84-.78,1.86-1.03,2.84-1.89,3.11-2.74-.73.67-3.64,1.97-6.16,2.69-3.53,1.01-5.56-.12-6.83-.78-1.64-.85-3.01-2.25-4.23-4.08-.85-1.28-1.4-2.56-2.3-4.82.04,0,.07.03.11.04,1.15,2.06,2.59,4.06,4.34,5.51,1.54,1.29,3.77,3.12,6.69,3.05,1.31-.03,2.54-.49,5.01-1.43,2.82-1.07,3.77-1.82,5.66-1.87,1.19-.03,2.2.24,2.95.52-1.4-.8-3.61-4.66-5.92-6.33-3.39-1.34-6.9-2.96-8.54-4.49-.02-.02-.04-.04-.05-.06-.09-.07-.19-.15-.26-.21.17.47.45,1.05.87,1.66.54.8,1.13,1.36,1.59,1.71-2.02-.15-4.44-.49-7.11-1.19-3.11-.82-6.46-3.41-8.54-5.31.24,1,.76,2.73,1.55,4.69-3.44-.2-8.22-.58-11.26-.72v.02ZM72.62,27.83c3.07,1.2,4.59,1.37,5.86,1.48.3.03,1.26.16,1.69.69.09.11.14.22.17.34.08.27.04.56-.15.86-.31.54-1.11.77-1.85.4,0,.22,0,.5.09.82.37,1.39,1.93,2.58,3.6,2.5h.05c.37-.03,1.52-.17,2.36-1.18.98-1.18.76-2.57.71-2.78h0c.48.05,1.28.21,2.12.67.24.13.46.27.65.41.58.43.98.88,1.2,1.18h0c-.67.41-1.71,1-3.05,1.64-1.84.88-2.89,1.34-3.92,1.42-.37.03-.75,0-1.15-.05-.58-.09-1.71-.15-3.26-1.44-1.32-1.11-3.46-3.26-5.17-6.97h0s.02,0,.02,0Z"/>
        <polygon class="st2" points="53.74 117.15 59.39 91.89 44.72 84.81 53.74 117.15"/>
        <polygon class="st2" points="0 53.85 15.68 45.57 17.55 32.79 0 53.85"/>
        <polygon class="st2" points="7.98 88.6 19.99 76.51 14.27 63.16 7.98 88.6"/>
        <polygon class="st2" points="15.68 45.57 19.99 76.51 27.31 60.05 15.68 45.57"/>
        <polygon class="st2" points="29.38 68.72 27.31 89.48 27.31 104.06 35.67 95.03 29.38 68.72 29.38 68.72"/>
        <polygon class="st2" points="38.98 111.38 44.49 84.98 35.67 95.03 38.98 111.38"/>
        <polygon class="st2" points="4.22 36.12 17.55 32.79 24.03 21.84 4.22 36.12"/>
        <polygon class="st2" points="41.06 50.5 41.07 50.5 49.19 39.17 49.14 39.18 26.76 43.55 41.06 50.5"/>
        <polygon class="st2" points="30.49 39.2 38.6 30.46 31.96 28.34 30.49 39.2"/>
        <path class="st2" d="M47.79,56.81c.03-1.99.76-3.88,1.38-5.15,0,.05-.03.1-.04.15,2.27-3.88,6.15-7.16,9.24-8.6-1.11.23-3.38.78-4.48,1.46.21-.84,1.26-1.97,1.86-2.33-1.14.02-1.95.4-2.64.71h0c.36-1.2.56-1.56,1.35-2.54h0c-3.29.78-4.14,1.18-6.57,3.03,2.48-.91,2.9-1.29,4.52-1.41-2.33,1.62-6.25,4.1-8.09,6.18.16-.1.3-.19.46-.28,3.35-2.1,6.67-3.66,8.5-4.11-.69,1.12-2.48,4.1-3.46,6.18-2.9.15-5.81.28-8.71.43l7.67,14.6v-.02c-.03-.23-1.04-3.45-.96-8.28h-.02Z"/>
        <path class="st2" d="M72.57,96.42c-1.07,1.96-1.29,2.75-1.79,5.03-1.1,5.22-1.09,6.87-1.21,9.42-2.2-3.66-5.4-9.73-7.1-13.65h0c1.09,7.45,6.18,13.67,8.31,17.97-.26-1.32-.02-7.7.55-10.49.36-1.81.76-4.57,1.27-5.53.37.98,1.08,2.68,2.88,5.53.98,1.55,2.42,2.58,3.26,2.92-1.84-1.89-1.96-2.61-3.49-5.15-.78-1.29-1.76-3.14-2.64-6.05h-.02Z"/>
      </g>
      <g>
        <path class="st9" d="M89.17,33.23h0c-.23-.31-.63-.76-1.2-1.18-.19-.15-.41-.28-.65-.41h0c-.85-.47-1.62-.62-2.12-.67h0c.04.2.27,1.6-.71,2.78-.84,1-1.99,1.15-2.36,1.18h-.05c-1.67.09-3.24-1.1-3.6-2.49-.09-.33-.1-.6-.09-.83h0c.73.36,1.54.14,1.85-.4.18-.3.23-.59.15-.86-.04-.11-.09-.23-.17-.33-.45-.55-1.4-.67-1.69-.69-1.27-.11-2.78-.27-5.85-1.48h0c1.71,3.72,3.86,5.85,5.17,6.97,1.54,1.29,2.67,1.35,3.26,1.44.41.05.78.08,1.15.05,1.03-.08,2.08-.55,3.92-1.42,1.33-.64,2.38-1.23,3.05-1.64l-.03-.02Z"/>
        <path class="st9" d="M107.52,50.26c-7.8-1.56-15.84-.55-23.05.17-.5.05,16.29.76,21.66,1.41,4.48.55,12.89,2.78,15.47,6.42-1.4-2.88-6.88-6.56-14.09-8.01h0Z"/>
        <path class="st9" d="M111.75,35.09c.87-.45,2.04-.92,3.38-1.04.78-.07,1.46,0,2.01.1h0c-.29-.36-.73-.78-1.39-.94-1.85-.47-3.72,1.54-4.01,1.88Z"/>
        <path class="st9" d="M65.07,1.95h0c-3.73-.21-9.52.07-9.52.07,0,0,2.79.47,6.04.79-1.17.15-2.3.37-3.66.59-3.16.53-7.97,1.93-7.97,1.93,0,0,4.31-.2,8.04-.86.63-.11,1.3-.23,1.98-.37,3.29-.66,6.63-.95,9.98-.89,2.19.04,4.25.05,5.5.11-4.47-1.2-6.7-1.17-10.39-1.39h0Z"/>
        <path class="st9" d="M130.37,43.81h0c-.07-.87-.05-1.02-.19-1.69-.16-.71-.16-.95-.57-1.82-.68-1.51-1.19-2.27-2.17-3.15-.83-.77-2.13-1.55-3.61-2.24-.35-.16-2.62-.98-2.62-.98,0,0,2.23,1.03,2.73,1.35.42.27,1.06.66,1.4.95.54.46.98.78,1.75,1.53,1.19,1.16,1.57,1.82,2.42,3.44.2.39.31.56.47,1.15.19.71.27,1.28.34,1.74l.1,1.39v-1.28c0-.12,0-.26-.02-.37h-.03Z"/>
        <path class="st9" d="M52.87,50.52c-2.53,3.46-2.7,7.17-2.69,8.51.48-1.89,1.36-4.49,3.05-7.26,1.39-2.27,2.89-3.96,4.12-5.15-1.13.61-2.94,1.81-4.48,3.9Z"/>
        <path class="st9" d="M104.78,15.39c1.67,2.51,2.35,2.74,4.57,5.18h0c.92.97,2.2,2.53,3.33,3.57-.35-.68-.65-1.26-.98-1.81.04.05.07.09.1.14.82,1.11,1.99,3.16,2.65,4.7-.28-1.02-.49-1.94-.84-2.97h0c-.13-.4-.27-.79-.45-1.23-2.48-3.11-6.32-6.84-8.45-9.13.73,1.1,1.84,2.43,3,3.78-.98-.86-1.88-1.45-2.94-2.23Z"/>
        <path class="st9" d="M88.91,26.17c-4.11-2.59-9.51-5.86-15.95-9.45,3.48,3.35,4.52,4.2,8.17,8.04.02.02.04.04.05.06,1.64,1.52,5.15,3.15,8.54,4.49,2.3,1.67,4.52,5.53,5.92,6.33.13.07.26.14.37.16h0c.8.11,1.49,0,1.49,0,.96-.2,1.58-.77,1.95-1.1.11-.1.2-.19.3-.3.99-1.07,1.45-2.53,1.4-3.98-.04-1.16-.26-2.59-1.03-3.79-.11-.16-.28-.43-.57-.72-.48-.51-1.36-1.1-3.36-1.7-1.35-.4-2.37-.66-4.77-.84,3.39,1.19,3.73,1.38,5.32,2.24,1.27.69,1.64,1.04,2.13,1.58.68.76.61,1.99.54,2.64-.43-.98-.73-1.42-1.68-1.98-.69-.41-1.31-.44-2.43,0,1.19.45,2.21,1.05,2.82,1.93.34.49.48,1.71-.05,2.12-.73.57-2.26-1.13-2.87-1.65-1.55-1.4-2.79-2.79-3.93-3.99-.82-.88-1.75-1.64-2.77-2.26-.86-.51-1.76-.93-3.02-1.41,1.62,1.59,2.21,2.16,3.41,3.61h0Z"/>
        <path class="st9" d="M34.04,12.78h0c-4.86,1.4-8.94,3.77-11.55,5.53-1.03.69-1.83,1.29-2.36,1.7,1.17-.66,2.54-1.4,4.08-2.14,2.41-1.18,5.22-2.41,8.35-3.5,4.21-1.47,7.72-2.24,10.33-2.66-1.71-.12-4.74-.1-8.84,1.09Z"/>
      </g>
      <g>
        <polygon class="st8" points="14.27 63.16 15.68 45.57 1.79 69.18 14.27 63.16"/>
        <polygon class="st8" points="17.83 98.97 27.31 89.48 19.99 76.51 17.83 98.97"/>
        <polygon class="st8" points="29.38 68.72 29.38 68.72 35.67 95.03 44.49 84.98 27.31 60.05 29.38 68.72"/>
        <polygon class="st8" points="17.55 32.79 26.76 43.55 32.51 22.03 17.55 32.79"/>
        <polygon class="st8" points="38.6 30.46 30.49 39.2 49.15 39.17 49.19 39.17 49.16 39.15 38.6 30.46"/>
        <polygon class="st8" points="41.06 50.5 26.76 43.55 27.31 60.05 41.07 50.5 41.06 50.5"/>
        <path class="st8" d="M83.27,102.87c-1.67-4.45-2.74-8.55-3.43-11.94-.05,2.48.11,7.06,1.85,12.16,2.22,6.53,5.74,10.17,7.31,11.62-1.79-2.94-3.87-6.87-5.74-11.84h0Z"/>
      </g>
    </g>
  </g>
  <path class="st5" d="M151.32,108.7v-16.38h-6.2c-.62,0-.97-.35-.97-.97v-3.6c0-.62.35-.97.97-.97h18.19c.62,0,.97.35.97.97v3.6c0,.62-.35.97-.97.97h-6.2v16.38c0,.62-.35.97-.97.97h-3.86c-.62,0-.97-.35-.97-.97Z"/>
  <path class="st5" d="M186.19,108.94l-1.17-2.82h-11.13l-1.17,2.82c-.19.49-.58.74-1.13.74h-4.35c-.74,0-1.04-.45-.74-1.13l9.57-21.02c.23-.52.58-.74,1.13-.74h4.51c.55,0,.91.23,1.13.74l9.57,21.02c.29.68,0,1.13-.74,1.13h-4.35c-.55,0-.94-.26-1.13-.74h0ZM183.11,101.45l-3.63-8.75-3.63,8.75h7.27,0Z"/>
  <path class="st5" d="M198.86,108.7v-20.96c0-.62.35-.97.97-.97h11.81c6.42,0,8.92,3.04,8.92,8.6v.94c0,5.54-2.5,8.46-8.92,8.46h-7v3.92c0,.62-.35.97-.97.97h-3.82c-.62,0-.97-.35-.97-.97h0ZM211.12,99.34c2.27,0,3.67-.33,3.67-3.08v-.84c0-2.75-1.3-3.12-3.67-3.12h-6.49v7.04s6.49,0,6.49,0Z"/>
  <path class="st5" d="M227.78,108.7v-20.96c0-.62.35-.97.97-.97h17.41c.62,0,.97.35.97.97v3.57c0,.62-.35.97-.97.97h-12.65v3.37h7.68c.62,0,.97.35.97.97v3.04c0,.62-.35.97-.97.97h-7.68v3.51h12.65c.62,0,.97.35.97.97v3.57c0,.62-.35.97-.97.97h-17.41c-.62,0-.97-.35-.97-.97,0,0,0,.02,0,.02Z"/>
  <line class="st1" x1="258.91" y1="86" x2="258.91" y2="111.46"/>
  <path class="st4" d="M271.9,96.06l-.24-.98h-3.95l-.69,1.03c-.07.11-.16.15-.29.15h-1.03c-.19,0-.27-.13-.15-.29l4.48-6.44c.07-.11.16-.15.29-.15h1.04c.14,0,.24.05.27.21l1.72,6.41c.05.17-.03.27-.21.27h-.97c-.14,0-.24-.08-.26-.22h0ZM271.38,93.98l-.78-3.17-2.15,3.17h2.93,0Z"/>
  <path class="st4" d="M281.22,96.02l1.36-6.41c.03-.14.13-.22.27-.22h5.17c.16,0,.25.09.22.26l-.16.82c-.03.14-.13.22-.27.22h-4.1l-.31,1.5h2.6c.16,0,.25.09.22.26l-.15.72c-.03.14-.13.22-.27.22h-2.65l-.57,2.67c-.03.14-.13.22-.27.22h-.85c-.16,0-.25-.09-.22-.26h-.02Z"/>
  <path class="st4" d="M289.25,93.91l.44-2.14c.31-1.46,1.04-2.38,2.65-2.38h2.52c1.61,0,2.28.92,1.96,2.38l-.45,2.14c-.3,1.45-1.03,2.37-2.65,2.37h-2.51c-1.62,0-2.27-.92-1.97-2.37h0ZM293.84,94.98c.72,0,1.01-.26,1.18-1.02l.47-2.24c.16-.78,0-1.03-.74-1.03h-2.51c-.72,0-1.01.25-1.18,1.03l-.47,2.24c-.16.76.02,1.02.73,1.02h2.52Z"/>
  <path class="st4" d="M305.92,91.88l-.04.15c-.25,1.23-.74,2.05-1.88,2.33l.79,1.63c.08.16,0,.28-.19.28h-.97c-.14,0-.24-.05-.28-.18l-.7-1.62h-2.48l-.34,1.59c-.03.14-.13.22-.27.22h-.86c-.16,0-.25-.09-.22-.26l1.36-6.41c.03-.14.13-.22.27-.22h3.4c2,0,2.75.84,2.4,2.49h0ZM303.3,90.69h-2.32l-.53,2.5h2.33c1.03,0,1.5-.17,1.75-1.17l.03-.14c.24-1-.18-1.19-1.25-1.19h0Z"/>
  <path class="st4" d="M307.77,93.91l.45-2.14c.31-1.46,1.05-2.38,2.66-2.38h2.17c1.62,0,2.27.92,1.97,2.38v.05c-.04.14-.13.23-.27.23h-.86c-.16,0-.26-.05-.24-.16l.03-.15c.19-.85-.05-1.03-.73-1.03h-2.17c-.67,0-1,.19-1.18,1.03l-.47,2.24c-.17.84.08,1.02.73,1.02h2.17c.66,0,1.01-.18,1.18-1.02l.04-.22c.03-.14.13-.22.27-.22h.86c.16,0,.25.07.24.18l-.04.2c-.3,1.45-.98,2.37-2.6,2.37h-2.25c-1.62,0-2.27-.92-1.96-2.37h0Z"/>
  <path class="st4" d="M316.58,96.02l1.36-6.41c.03-.14.13-.22.27-.22h5.33c.16,0,.25.09.22.26l-.16.82c-.03.14-.13.22-.27.22h-4.26l-.31,1.5h2.71c.16,0,.25.09.22.26l-.15.72c-.03.14-.13.22-.27.22h-2.76l-.34,1.59h4.2c.16,0,.25.09.22.26l-.16.82c-.03.14-.13.22-.27.22h-5.33c-.16,0-.25-.09-.22-.26h0Z"/>
  <path class="st4" d="M332.43,96.02l1.13-5.32h-2.07c-.16,0-.25-.09-.22-.26l.16-.83c.03-.14.13-.22.27-.22h5.56c.16,0,.25.09.22.26l-.16.83c-.03.14-.13.22-.27.22h-2.13l-1.14,5.36c-.03.14-.13.22-.27.22h-.86c-.16,0-.25-.09-.22-.26Z"/>
  <path class="st4" d="M338.61,93.91l.45-2.14c.31-1.46,1.04-2.38,2.65-2.38h2.52c1.61,0,2.28.92,1.96,2.38l-.45,2.14c-.3,1.45-1.03,2.37-2.65,2.37h-2.51c-1.62,0-2.27-.92-1.97-2.37ZM343.21,94.98c.72,0,1.01-.26,1.18-1.02l.47-2.24c.16-.78,0-1.03-.74-1.03h-2.51c-.72,0-1.01.25-1.18,1.03l-.47,2.24c-.16.76.02,1.02.73,1.02h2.52Z"/>
  <path class="st4" d="M353.54,96.02l1.36-6.41c.03-.14.13-.22.27-.22h3.46c1.65,0,2.46.64,2.25,1.89l-.02.11c-.14.81-.62,1.26-1.07,1.44.34.24.66.63.5,1.48l-.02.11c-.24,1.25-.86,1.87-2.51,1.87h-4c-.16,0-.25-.09-.22-.26h0ZM357.82,95c.62,0,.97-.14,1.08-.72l.04-.15c.13-.58-.22-.74-.74-.74h-2.75l-.35,1.62h2.74ZM358.46,92.26c.51,0,.84-.11.96-.67l.03-.15c.13-.59-.23-.74-.85-.74h-2.58l-.33,1.57s2.77,0,2.77,0Z"/>
  <path class="st4" d="M362.43,96.02l1.36-6.41c.03-.14.13-.22.27-.22h5.33c.16,0,.25.09.22.26l-.16.82c-.03.14-.13.22-.27.22h-4.26l-.31,1.5h2.71c.16,0,.25.09.22.26l-.15.72c-.03.14-.13.22-.27.22h-2.76l-.34,1.59h4.2c.16,0,.25.09.22.26l-.16.82c-.03.14-.13.22-.27.22h-5.33c-.16,0-.25-.09-.22-.26h0Z"/>
  <path class="st4" d="M273.44,103.58l-.04.15c-.25,1.23-.74,2.05-1.88,2.33l.79,1.63c.08.16,0,.28-.19.28h-.97c-.14,0-.24-.05-.28-.18l-.7-1.62h-2.48l-.34,1.59c-.03.14-.13.22-.27.22h-.86c-.16,0-.25-.09-.22-.26l1.36-6.41c.03-.14.13-.22.27-.22h3.4c2,0,2.75.84,2.4,2.49h0ZM270.82,102.39h-2.32l-.53,2.5h2.33c1.03,0,1.5-.17,1.75-1.17l.03-.14c.24-1-.18-1.19-1.25-1.19h0Z"/>
  <path class="st4" d="M274.72,107.72l1.36-6.41c.03-.14.13-.22.27-.22h5.33c.16,0,.25.09.22.26l-.16.82c-.03.14-.13.22-.27.22h-4.26l-.31,1.5h2.71c.16,0,.25.09.22.26l-.15.72c-.03.14-.13.22-.27.22h-2.76l-.34,1.59h4.2c.16,0,.25.09.22.26l-.16.82c-.03.14-.13.22-.27.22h-5.33c-.16,0-.25-.09-.22-.26h0Z"/>
  <path class="st4" d="M282.89,105.6l.44-2.14c.31-1.46,1.05-2.38,2.66-2.38h2.17c1.62,0,2.27.92,1.96,2.38v.05c-.04.14-.13.23-.27.23h-.86c-.16,0-.26-.05-.24-.16l.03-.15c.19-.85-.05-1.03-.73-1.03h-2.17c-.67,0-1,.19-1.18,1.03l-.47,2.24c-.17.84.08,1.02.73,1.02h2.17c.66,0,1.01-.18,1.18-1.02l.04-.22c.03-.14.13-.22.27-.22h.86c.16,0,.25.07.24.18l-.04.2c-.3,1.45-.98,2.37-2.6,2.37h-2.25c-1.62,0-2.27-.92-1.96-2.37,0,0,.02,0,.02,0Z"/>
  <path class="st4" d="M291.45,107.72l1.36-6.41c.03-.14.13-.22.27-.22h.86c.16,0,.25.09.22.26l-.54,2.61h1.29l2.76-2.75c.09-.09.19-.13.3-.13h1.15c.22,0,.27.15.12.3l-3.29,3.19,1.95,3.11c.11.16.03.29-.16.29h-.98c-.13,0-.23-.05-.29-.16l-1.69-2.67h-1.4l-.55,2.63c-.03.14-.13.22-.27.22h-.86c-.16,0-.25-.09-.22-.26h0Z"/>
  <path class="st4" d="M299.88,105.6l.44-2.14c.31-1.46,1.04-2.38,2.65-2.38h2.52c1.61,0,2.28.92,1.96,2.38l-.45,2.14c-.3,1.45-1.03,2.37-2.65,2.37h-2.51c-1.62,0-2.27-.92-1.97-2.37h0ZM304.48,106.67c.72,0,1.01-.26,1.18-1.02l.47-2.24c.16-.78,0-1.03-.74-1.03h-2.51c-.72,0-1.01.25-1.18,1.03l-.47,2.24c-.16.76.02,1.02.73,1.02h2.52Z"/>
  <path class="st4" d="M308.87,107.72l1.36-6.41c.03-.14.13-.22.27-.22h.89c.13,0,.23.05.29.16l2.75,4.81,1.01-4.77c.03-.14.13-.22.27-.22h.86c.16,0,.25.09.22.26l-1.36,6.41c-.03.14-.13.22-.27.22h-.88c-.13,0-.23-.05-.29-.16l-2.76-4.85-1.01,4.8c-.03.14-.13.22-.27.22h-.86c-.16,0-.25-.09-.22-.26h0Z"/>
  <path class="st4" d="M317.87,107.72l1.36-6.41c.03-.14.13-.22.27-.22h5.33c.16,0,.25.09.22.26l-.16.82c-.03.14-.13.22-.27.22h-4.26l-.31,1.5h2.71c.16,0,.25.09.22.26l-.15.72c-.03.14-.13.22-.27.22h-2.76l-.34,1.59h4.2c.16,0,.25.09.22.26l-.16.82c-.03.14-.13.22-.27.22h-5.33c-.16,0-.25-.09-.22-.26h0Z"/>
  <path class="st4" d="M325.87,107.72l1.36-6.41c.03-.14.13-.22.27-.22h4.04c1.61,0,2.29.86,1.92,2.58l-.37,1.76c-.36,1.72-1.07,2.55-2.68,2.55h-4.32c-.16,0-.25-.09-.22-.26h0ZM330.36,106.69c.73,0,1.15-.21,1.39-1.28l.37-1.73c.23-1.07-.09-1.3-.85-1.3h-2.92l-.92,4.3s2.93,0,2.93,0Z"/>
  <path class="st4" d="M340.05,107.75l-.78-6.41c-.02-.15.07-.25.24-.25h.88c.14,0,.24.08.25.24l.46,4.87,2.5-4.93c.05-.12.14-.17.28-.17h.93c.14,0,.24.09.25.24l.41,4.87,2.55-4.93c.06-.12.14-.17.28-.17h.97c.19,0,.26.13.17.29l-3.52,6.42c-.05.12-.16.17-.29.17h-.98c-.14,0-.24-.09-.25-.24l-.4-4.77-2.46,4.83c-.06.12-.14.17-.28.17h-.94c-.14,0-.24-.07-.26-.23v.02h0Z"/>
  <path class="st4" d="M349.92,107.72l1.36-6.41c.03-.14.13-.22.27-.22h.85c.16,0,.25.09.22.26l-1.36,6.41c-.03.14-.13.22-.27.22h-.85c-.16,0-.25-.09-.22-.26Z"/>
  <path class="st4" d="M355.6,107.72l1.13-5.32h-2.07c-.16,0-.25-.09-.22-.26l.16-.83c.03-.14.13-.22.27-.22h5.56c.16,0,.25.09.22.26l-.16.83c-.03.14-.13.22-.27.22h-2.13l-1.14,5.36c-.03.14-.13.22-.27.22h-.86c-.16,0-.25-.09-.22-.26Z"/>
  <path class="st4" d="M361.29,107.72l1.36-6.41c.03-.14.13-.22.27-.22h.86c.16,0,.25.09.22.26l-.54,2.57h3.71l.54-2.63c.03-.14.13-.22.27-.22h.87c.16,0,.25.09.22.26l-1.36,6.41c-.03.14-.13.22-.27.22h-.87c-.16,0-.25-.09-.22-.26l.55-2.6h-3.71l-.55,2.65c-.03.14-.13.22-.27.22h-.86c-.16,0-.25-.09-.22-.26h0Z"/>
</svg>