<?xml version="1.0" encoding="UTF-8"?>
<svg id="Layer_1" data-name="Layer 1" xmlns="http://www.w3.org/2000/svg" viewBox="0 0 200 200">
  <defs>
    <style>
      .cls-1 {
        fill: #b3b3b3;
      }

      .cls-2 {
        fill: #fff;
      }
    </style>
  </defs>
  <path class="cls-1" d="M166.81,90.98c-1.79-6.64-1.99-7.55-2.83-14.53-.78-6.53-2.27-13.37-6.44-18.32-.03-.04-.06-.07-.09-.11-.03-.04-.06-.07-.09-.11-.03-.04-.06-.07-.09-.11-.03-.04-.06-.07-.09-.11-.03-.04-.06-.07-.09-.11-.03-.04-.06-.07-.09-.11-.03-.04-.06-.07-.09-.11-.03-.04-.06-.07-.09-.11-.03-.04-.06-.07-.09-.11-.03-.04-.06-.07-.09-.11-.03-.04-.06-.07-.09-.11-.03-.04-.06-.07-.09-.11-.03-.04-.06-.07-.09-.11-.03-.04-.06-.07-.09-.11-.03-.04-.06-.07-.09-.11-.03-.04-.06-.07-.09-.11-.03-.04-.06-.07-.09-.11-.03-.04-.06-.07-.09-.11-.03-.04-.06-.07-.09-.11-.03-.04-.06-.07-.09-.11-.03-.04-.06-.07-.09-.11-.03-.04-.06-.07-.09-.11-.03-.04-.06-.07-.09-.11-.03-.04-.06-.07-.09-.11-.03-.04-.06-.07-.09-.11-.03-.04-.06-.07-.09-.11-.03-.04-.06-.07-.09-.11-.03-.04-.06-.07-.09-.11-.03-.04-.06-.07-.09-.11-.03-.04-.06-.07-.09-.11-.03-.04-.06-.07-.09-.11-.03-.04-.06-.07-.09-.11-.03-.04-.06-.07-.09-.11-.03-.04-.06-.07-.09-.11-.03-.04-.06-.07-.09-.11-.03-.04-.06-.07-.09-.11-.03-.04-.06-.07-.09-.11-.03-.04-.06-.07-.09-.11-.03-.04-.06-.07-.09-.11-.03-.04-.06-.07-.09-.11-.03-.04-.06-.07-.09-.11-.03-.04-.06-.07-.09-.11-.03-.04-.06-.07-.09-.11-.03-.04-.06-.07-.09-.11-.03-.04-.06-.07-.09-.11-.03-.04-.06-.07-.09-.11-.03-.04-.06-.07-.09-.11-.03-.04-.06-.07-.09-.11-.03-.04-.06-.07-.09-.11-.03-.04-.06-.07-.09-.11-.03-.04-.06-.07-.09-.11-.03-.04-.06-.07-.09-.11-.03-.04-.06-.07-.09-.11-.03-.04-.06-.07-.09-.11-.03-.04-.06-.07-.09-.11-.03-.04-.06-.07-.09-.11-.03-.04-.06-.07-.09-.11-.03-.04-.06-.07-.09-.11-.03-.04-.06-.07-.09-.11-.03-.04-.06-.07-.09-.11-.03-.04-.06-.07-.09-.11-.03-.04-.06-.07-.09-.11-.03-.04-.06-.07-.09-.11-.03-.04-.06-.07-.09-.11-.03-.04-.06-.07-.09-.11-.03-.04-.06-.07-.09-.11-.03-.04-.06-.07-.09-.11-.03-.04-.06-.07-.09-.11-.03-.04-.06-.07-.09-.11-.03-.04-.06-.07-.09-.11-.03-.04-.06-.07-.09-.11-.03-.04-.06-.07-.09-.11-.03-.04-.06-.07-.09-.11-.03-.04-.06-.07-.09-.11-.03-.04-.06-.07-.09-.11-.03-.04-.06-.07-.09-.11-.03-.04-.06-.07-.09-.11-.03-.04-.06-.07-.09-.11-.03-.04-.06-.07-.09-.11-.03-.04-.06-.07-.09-.11-.03-.04-.06-.07-.09-.11-.03-.04-.06-.07-.09-.11-.03-.04-.06-.07-.09-.11-.03-.04-.06-.07-.09-.11-.03-.04-.06-.07-.09-.11-.03-.04-.06-.07-.09-.11-.03-.04-.06-.07-.09-.11-.03-.04-.06-.07-.09-.11-1.4-1.69-3.11-3.17-5.21-4.34-1.6-.9-4.25-1.55-5.86-2.12-.03-.04-.06-.07-.09-.11-.03-.04-.06-.08-.09-.11-.03-.04-.06-.08-.09-.11-.03-.04-.06-.08-.09-.11-.03-.04-.06-.08-.09-.11-.03-.04-.06-.08-.09-.11-.03-.04-.06-.08-.09-.11-.03-.04-.06-.08-.09-.11-.03-.04-.06-.08-.09-.11-.03-.04-.06-.08-.09-.11-.03-.04-.06-.08-.09-.11-.03-.04-.06-.08-.09-.11-.03-.04-.06-.08-.09-.11-.03-.04-.06-.08-.09-.11-.03-.04-.06-.08-.09-.11-.03-.04-.06-.08-.09-.11-.03-.04-.06-.08-.09-.11-.03-.04-.06-.08-.09-.11-.03-.04-.06-.08-.09-.11-.03-.04-.06-.08-.09-.11-.03-.04-.06-.08-.09-.11-.03-.04-.06-.08-.09-.11-.03-.04-.06-.08-.09-.11-.03-.04-.06-.08-.09-.11-.03-.04-.06-.08-.09-.11-.03-.04-.06-.08-.09-.11-.03-.04-.06-.08-.09-.11-.03-.04-.06-.08-.09-.11-.03-.04-.06-.08-.09-.11-.03-.04-.06-.08-.09-.11-.03-.04-.06-.08-.09-.11-.03-.04-.06-.08-.09-.11-.03-.04-.06-.08-.09-.11-.03-.04-.06-.08-.09-.11-.03-.04-.06-.08-.09-.11-.03-.04-.06-.08-.09-.11-.03-.04-.06-.08-.09-.11-.03-.04-.06-.08-.09-.11-.03-.04-.06-.08-.09-.11-.03-.04-.06-.08-.09-.11-.03-.04-.06-.08-.09-.11-.03-.04-.06-.08-.09-.11-.03-.04-.06-.08-.09-.11-.03-.04-.06-.08-.09-.11-.03-.04-.06-.08-.09-.11-.03-.04-.06-.08-.09-.11-.03-.04-.06-.08-.09-.11-.09-.12-.19-.23-.27-.32-3.89-4.02-5.7-2.67-9.97-3.8-1.56-.41-4.4-3.41-6.41-4.37-2.09-1-3.99-1.19-6.01-2.07h-4.79l-8.08,3.37-8.08-3.37h-4.79l-6.01,2.07c-3.92,4.57-9.31,3.68-13.35,5.81-3.63,1.91-4.93,6.38-6.4,7.37-1.05.7-4.89,1.45-6.96,2.61-8.2,4.59-10.56,13.88-11.56,22.55-.81,7.03-1.03,7.89-2.83,14.53-2.22,8.21-1.24,15.62,4.31,22.28,0,0,.02.02.02.03.02.03.04.06.07.08,0,0,.02.02.02.03.02.03.04.06.07.08,0,0,.02.02.02.03.02.03.04.06.07.08,0,0,.02.02.02.03.02.03.04.06.07.08,0,0,.02.02.02.03.02.03.04.06.07.08,0,0,.02.02.02.03.02.03.04.06.07.08,0,0,.02.02.02.03.02.03.04.06.07.08,0,0,.02.02.02.03.02.03.04.06.07.08,0,0,.02.02.02.03.02.03.04.06.07.08,0,0,.02.02.02.03.02.03.04.06.07.08,0,0,.02.02.02.03.02.03.04.06.07.08,0,0,.02.02.02.03.02.03.04.06.07.08,0,0,.02.02.02.03.02.03.04.06.07.08,0,0,.02.02.02.03.02.03.04.06.07.08,0,0,.02.02.02.03.02.03.04.06.07.08,0,0,.02.02.02.03.02.03.04.06.07.08,0,0,.02.02.02.03.02.03.04.06.07.08,0,0,.02.02.02.03.02.03.04.06.07.08,0,0,.02.02.02.03.02.03.04.06.07.08,0,0,.02.02.02.03.02.03.04.06.07.08,0,0,.02.02.02.03.02.03.04.06.07.08,0,0,.02.02.02.03.02.03.04.06.07.08,0,0,.02.02.02.03.02.03.04.06.07.08,0,0,.02.02.02.03.02.03.04.06.07.08,0,0,.02.02.02.03.02.03.04.06.07.08,0,0,.02.02.02.03.02.03.04.06.07.08,0,0,.02.02.02.03.02.03.04.06.07.08,0,0,.02.02.02.03.02.03.04.06.07.08,0,0,.02.02.02.03.02.03.04.06.07.08,0,0,.02.02.02.03.02.03.04.06.07.08,0,0,.02.02.02.03.02.03.04.06.07.08,0,0,.02.02.02.03.02.03.04.06.07.08,0,0,.02.02.02.03.02.03.04.06.07.08,0,0,.02.02.02.03.02.03.04.06.07.08,0,0,.02.02.02.03.02.03.04.06.07.08,0,0,.02.02.02.03.02.03.04.06.07.08,0,0,.02.02.02.03.02.03.04.06.07.08,0,0,.02.02.02.03.02.03.04.06.07.08,0,0,.02.02.02.03.02.03.04.06.07.08,0,0,.02.02.02.03.02.03.04.06.07.08,0,0,.02.02.02.03.02.03.04.06.07.08,0,0,.02.02.02.03.02.03.04.06.07.08,0,0,.02.02.02.03.02.03.04.06.07.08,0,0,.02.02.02.03.02.03.04.06.07.08,0,0,.02.02.02.03.02.03.04.06.07.08,0,0,.02.02.02.03.02.03.04.06.07.08,0,0,.02.02.02.03.02.03.04.06.07.08,0,0,.02.02.02.03.02.03.04.06.07.08,0,0,.02.02.02.03.02.03.04.06.07.08,0,0,.02.02.02.03.02.03.04.06.07.08,0,0,.02.02.02.03.02.03.04.06.07.08,0,0,.02.02.02.03.02.03.04.06.07.08,0,0,.02.02.02.03.02.03.04.06.07.08,0,0,.02.02.02.03.02.03.04.06.07.08,0,0,.02.02.02.03.02.03.04.06.07.08,0,0,.02.02.02.03.02.03.04.06.07.08,0,0,.02.02.02.03,0,0,0,0,0,0-.19.99-.61,2.05-.57,3.03.16,4.94,2.24,11.16,5.43,14.98,0,0,.02.02.02.02.02.03.04.06.07.09,0,0,.02.02.02.02.02.03.04.06.07.09,0,0,.02.02.02.02.02.03.04.06.07.09,0,0,.02.02.02.02.02.03.04.06.07.09,0,0,.02.02.02.02.02.03.04.06.07.09,0,0,.02.02.02.02.02.03.04.06.07.09,0,0,.02.02.02.02.02.03.04.06.07.09,0,0,.02.02.02.02.02.03.04.06.07.09,0,0,.02.02.02.02.02.03.04.06.07.09,0,0,.02.02.02.02.02.03.04.06.07.09,0,0,.02.02.02.02.02.03.04.06.07.09,0,0,.02.02.02.02.02.03.04.06.07.09,0,0,.02.02.02.02.02.03.04.06.07.09,0,0,.02.02.02.02.02.03.04.06.07.09,0,0,.02.02.02.02.02.03.04.06.07.09,0,0,.02.02.02.02.02.03.04.06.07.09,0,0,.02.02.02.02.02.03.04.06.07.09,0,0,.02.02.02.02.02.03.04.06.07.09,0,0,.02.02.02.02.02.03.04.06.07.09,0,0,.02.02.02.02.02.03.04.06.07.09,0,0,.02.02.02.02.02.03.04.06.07.09,0,0,.02.02.02.02.02.03.04.06.07.09,0,0,.02.02.02.02.02.03.04.06.07.09,0,0,.02.02.02.02.02.03.04.06.07.09,0,0,.02.02.02.02.02.03.04.06.07.09,0,0,.02.02.02.02.02.03.04.06.07.09,0,0,.02.02.02.02.02.03.04.06.07.09,0,0,.02.02.02.02.02.03.04.06.07.09,0,0,.02.02.02.02.02.03.04.06.07.09,0,0,.02.02.02.02.02.03.04.06.07.09,0,0,.02.02.02.02.02.03.04.06.07.09,0,0,.02.02.02.02.02.03.04.06.07.09,0,0,.02.02.02.02.02.03.04.06.07.09,0,0,.02.02.02.02.02.03.04.06.07.09,0,0,.02.02.02.02.02.03.04.06.07.09,0,0,.02.02.02.02.02.03.04.06.07.09,0,0,.02.02.02.02.02.03.04.06.07.09,0,0,.02.02.02.02.02.03.04.06.07.09,0,0,.02.02.02.02.02.03.04.06.07.09,0,0,.02.02.02.02.02.03.04.06.07.09,0,0,.02.02.02.02.02.03.04.06.07.09,0,0,.02.02.02.02.02.03.04.06.07.09,0,0,.02.02.02.02.02.03.04.06.07.09,0,0,.02.02.02.02.02.03.04.06.07.09,0,0,.02.02.02.02.02.03.04.06.07.09,0,0,.02.02.02.02.02.03.04.06.07.09,0,0,.02.02.02.02.02.03.04.06.07.09,0,0,.02.02.02.02.02.03.04.06.07.09,0,0,.02.02.02.02.02.03.04.06.07.09,0,0,.02.02.02.02.02.03.04.06.07.09,0,0,.02.02.02.02.02.03.04.06.07.09,0,0,.02.02.02.02.02.03.04.06.07.09,0,0,.02.02.02.02.02.03.04.06.07.09,0,0,.02.02.02.02.02.03.04.06.07.09,0,0,.02.02.02.02.02.03.04.06.07.09,0,0,.02.02.02.02.02.03.04.06.07.09,0,0,.02.02.02.02.02.03.04.06.07.09,0,0,.02.02.02.02.02.03.04.06.07.09,0,0,.02.02.02.02.02.03.04.06.07.09,0,0,.02.02.02.02.02.03.04.06.07.09,0,0,.02.02.02.02.02.03.04.06.07.09,0,0,.02.02.02.02.02.03.04.06.07.09,0,0,.02.02.02.02.02.03.04.06.07.09,0,0,.02.02.02.02.02.03.04.06.07.09,0,0,.02.02.02.02.02.03.04.06.07.09,0,0,.02.02.02.02.02.03.04.06.07.09,0,0,.02.02.02.02.02.03.04.06.07.09,0,0,.02.02.02.02.02.03.04.06.07.09,0,0,.02.02.02.02.02.02.03.05.05.07-.06,2.19-.47,4.64,1.09,7.3.33.56.67,1.04,1.03,1.45.03.04.06.07.09.11.03.04.06.08.09.11.03.04.06.08.09.11.03.04.06.07.09.11.03.04.06.08.09.11.03.04.06.07.09.11.03.04.06.08.09.11.03.04.06.07.09.11.03.04.06.08.09.11.03.04.06.07.09.11.03.04.06.08.09.11.03.04.06.08.09.11.03.04.06.07.09.11.03.04.06.08.09.11.03.04.06.07.09.11.03.04.06.08.09.11.03.04.06.07.09.11.03.04.06.08.09.11.03.04.06.07.09.11.03.04.06.08.09.11.03.04.06.08.09.11.03.04.06.07.09.11.03.04.06.08.09.11.03.04.06.07.09.11.03.04.06.08.09.11.03.04.06.07.09.11.03.04.06.08.09.11.03.04.06.08.09.11.03.04.06.07.09.11.03.04.06.08.09.11.03.04.06.07.09.11.03.04.06.08.09.11.03.04.06.07.09.11.03.04.06.08.09.11.03.04.06.07.09.11.03.04.06.08.09.11.03.04.06.08.09.11.03.04.06.07.09.11.03.04.06.08.09.11.03.04.06.07.09.11.03.04.06.08.09.11.03.04.06.07.09.11.03.04.06.08.09.11.03.04.06.07.09.11.03.04.06.08.09.11.03.04.06.08.09.11.03.04.06.07.09.11.03.04.06.08.09.11.03.04.06.07.09.11.03.04.06.08.09.11.03.04.06.07.09.11.03.04.06.08.09.11.03.04.06.08.09.11.03.04.06.07.09.11.03.04.06.08.09.11.03.04.06.07.09.11.03.04.06.08.09.11.03.04.06.07.09.11.03.04.06.08.09.11.03.04.06.07.09.11.03.04.06.08.09.11.03.04.06.08.09.11.03.04.06.07.09.11.03.04.06.08.09.11.03.04.06.07.09.11.03.04.06.08.09.11.03.04.06.07.09.11.03.04.06.08.09.11.03.04.06.07.09.11.03.04.06.08.09.11.03.04.06.08.09.11.03.04.06.07.09.11.03.04.06.08.09.11.03.04.06.07.09.11.03.04.06.08.09.11.03.04.06.07.09.11.03.04.06.08.09.11.03.04.06.08.09.11.03.04.06.07.09.11.03.04.06.08.09.11.03.04.06.07.09.11.03.04.06.08.09.11.03.04.06.07.09.11.03.04.06.08.09.11.03.04.06.07.09.11.03.04.06.08.09.11.03.04.06.08.09.11.03.04.06.07.09.11,2.45,2.95,5.54,2.87,7.92,4.76.06.05.13.11.19.16.03.03.05.06.08.1.03.04.06.07.09.11.03.04.06.07.09.11.03.04.06.07.09.11.03.04.06.07.09.11.03.04.06.07.09.11.03.04.06.07.09.11.03.04.06.07.09.11.03.04.06.07.09.11.03.04.06.07.09.11.03.04.06.07.09.11.03.04.06.07.09.11.03.04.06.07.09.11.03.04.06.07.09.11.03.04.06.07.09.11.03.04.06.07.09.11.03.04.06.07.09.11.03.04.06.07.09.11.03.04.06.07.09.11.03.04.06.07.09.11.03.04.06.07.09.11.03.04.06.07.09.11.03.04.06.07.09.11.03.04.06.07.09.11.03.04.06.07.09.11.03.04.06.07.09.11.03.04.06.07.09.11.03.04.06.07.09.11.03.04.06.07.09.11.03.04.06.07.09.11.03.04.06.07.09.11.03.04.06.07.09.11.03.04.06.07.09.11.03.04.06.07.09.11.03.04.06.07.09.11.03.04.06.07.09.11.03.04.06.07.09.11.03.04.06.07.09.11.03.04.06.07.09.11.03.04.06.07.09.11.03.04.06.07.09.11.03.04.06.07.09.11.03.04.06.07.09.11.03.04.06.07.09.11.03.04.06.07.09.11.03.04.06.07.09.11.73.91,1.5,1.77,2.36,2.48,2.47,2.03,5.39,3.38,8.33,4.54h4.19c4.62-1.31,7.43-4.28,10.48-7.76,3.04,3.48,5.86,6.45,10.48,7.76h4.19c3.25-1.22,6.01-2.53,8.66-4.81,2.46-2.12,4.43-5.92,6.33-7.43,2.69-2.14,6.31-1.75,8.86-6.11,2.23-3.81.43-7.18,1.39-9.99.19-.56,4.65-3.44,5.87-4.9,3.18-3.82,5.26-10.04,5.43-14.98.05-1.54-1.01-3.28-.55-4.65.13-.38,4.12-3.51,5.02-4.59,5.55-6.66,6.53-14.07,4.31-22.28ZM55.02,108.83s0-.02,0-.03c-.03-.03-.06-.05-.09-.08,0-.01,0-.02,0-.03-.03-.03-.06-.05-.09-.08,0-.01,0-.02,0-.03-.03-.03-.06-.05-.09-.08,0-.01,0-.02,0-.03-.03-.03-.06-.05-.09-.08,0-.01,0-.02,0-.03-.03-.03-.06-.05-.09-.08,0-.01,0-.02,0-.03-.03-.03-.06-.05-.09-.08,0-.01,0-.02,0-.03-.03-.03-.06-.05-.09-.08,0-.01,0-.02,0-.03-.03-.03-.06-.05-.09-.08,0-.01,0-.02,0-.03-.03-.03-.06-.05-.09-.08,0-.01,0-.02,0-.03-.03-.03-.06-.05-.09-.08,0-.01,0-.02,0-.03-.03-.03-.06-.05-.09-.08,0-.01,0-.02,0-.03-.03-.03-.06-.05-.09-.08,0-.01,0-.02,0-.03-.03-.03-.06-.05-.09-.08,0-.01,0-.02,0-.03-.03-.03-.06-.05-.09-.08,0-.01,0-.02,0-.03-.03-.03-.06-.05-.09-.08,0-.01,0-.02,0-.03-.03-.03-.06-.05-.09-.08,0-.01,0-.02,0-.03-.03-.03-.06-.05-.09-.08,0-.01,0-.02,0-.03-.03-.03-.06-.05-.09-.08,0-.01,0-.02,0-.03-.03-.03-.06-.05-.09-.08,0-.01,0-.02,0-.03-.03-.03-.06-.05-.09-.08,0-.01,0-.02,0-.03-.03-.03-.06-.05-.09-.08,0-.01,0-.02,0-.03-.03-.03-.06-.05-.09-.08,0-.01,0-.02,0-.03-.03-.03-.06-.05-.09-.08,0-.01,0-.02,0-.03-.44-.36-.87-.72-1.29-1.08-1.53-3.59-1.83-7.69-.51-12.88.03-.14.08-.28.12-.41.27.5.59.96.94,1.37.03.04.06.07.09.11.03.04.06.07.09.11.03.04.06.07.09.11.03.04.06.07.09.11.03.04.06.07.09.11.03.04.06.07.09.11.03.04.06.07.09.11.03.04.06.07.09.11.03.04.06.07.09.11.03.04.06.07.09.11.03.04.06.07.09.11.03.04.06.07.09.11.03.04.06.07.09.11.03.04.06.07.09.11.03.04.06.07.09.11.03.04.06.07.09.11.03.04.06.07.09.11.03.04.06.07.09.11.03.04.06.07.09.11.03.04.06.07.09.11.03.04.06.07.09.11.03.04.06.07.09.11.03.04.06.07.09.11.03.04.06.07.09.11.03.04.06.07.09.11.03.04.06.07.09.11.03.04.06.07.09.11.03.04.06.07.09.11.03.04.06.07.09.11.03.04.06.07.09.11.03.04.06.07.09.11.03.04.06.07.09.11.03.04.06.07.09.11.03.04.06.07.09.11.03.04.06.07.09.11.03.04.06.07.09.11.03.04.06.07.09.11.03.04.06.07.09.11.03.04.06.07.09.11.03.04.06.07.09.11.03.04.06.07.09.11.03.04.06.07.09.11.03.04.06.07.09.11.03.04.06.07.09.11.03.04.06.07.09.11.03.04.06.07.09.11.03.04.06.07.09.11.03.04.06.07.09.11.03.04.06.07.09.11.03.04.06.07.09.11.03.04.06.07.09.11.03.04.06.07.09.11.03.04.06.07.09.11.03.04.06.07.09.11.03.04.06.07.09.11.03.04.06.07.09.11.03.04.06.07.09.11.03.04.06.07.09.11.03.04.06.07.09.11.03.04.06.07.09.11.03.04.06.07.09.11.03.04.06.07.09.11.03.04.06.07.09.11.03.04.06.07.09.11.03.04.06.07.09.11.03.04.06.07.09.11.03.04.06.07.09.11.03.04.06.07.09.11.03.04.06.07.09.11.03.04.06.07.09.11.03.04.06.07.09.11.03.04.06.07.09.11.03.04.06.07.09.11.03.04.06.07.09.11.03.04.06.07.09.11.03.04.06.07.09.11.03.04.06.07.09.11.03.04.06.07.09.11.03.04.06.07.09.11.03.04.06.07.09.11.03.04.06.07.09.11.03.04.06.07.09.11.03.04.06.07.09.11.03.04.06.07.09.11.03.04.06.07.09.11.03.04.06.07.09.11.03.04.06.07.09.11.03.04.06.07.09.11,4.39,5.3,14.59,3.45,15.89-4.09h3.99v.36c-7.15,1.41-8.53,10.06-4.58,14.73.03.04.06.07.09.11.03.04.06.07.09.11.03.04.06.07.09.11.03.04.06.07.09.11.03.04.06.07.09.11.03.04.06.07.09.11.03.04.06.07.09.11.03.04.06.07.09.11.03.04.06.07.09.11.03.04.06.07.09.11.03.04.06.07.09.11.03.04.06.07.09.11.03.04.06.07.09.11.03.04.06.07.09.11.03.04.06.07.09.11.03.04.06.07.09.11.03.04.06.07.09.11.03.04.06.07.09.11.03.04.06.07.09.11.03.04.06.07.09.11.03.04.06.07.09.11.03.04.06.07.09.11.03.04.06.07.09.11.03.04.06.07.09.11.03.04.06.07.09.11.03.04.06.07.09.11.03.04.06.07.09.11.03.04.06.07.09.11.03.04.06.07.09.11.03.04.06.07.09.11.03.04.06.07.09.11.03.04.06.07.09.11.03.04.06.07.09.11.03.04.06.07.09.11.03.04.06.07.09.11.03.04.06.07.09.11.03.04.06.07.09.11.03.04.06.07.09.11.03.04.06.07.09.11.03.04.06.07.09.11.03.04.06.07.09.11.03.04.06.07.09.11.03.04.06.07.09.11.03.04.06.07.09.11.03.04.06.07.09.11.03.04.06.07.09.11.03.04.06.07.09.11.03.04.06.07.09.11.03.04.06.07.09.11.03.04.06.07.09.11.02.02.03.05.05.07l.09,5.06c-7.15,1.87-8.54,10.33-4.59,15.08.03.04.06.07.09.11.03.04.06.07.09.11.03.04.06.07.09.11.03.04.06.07.09.11.03.04.06.07.09.11.03.04.06.07.09.11.03.04.06.07.09.11.03.04.06.07.09.11.03.04.06.07.09.11.03.04.06.07.09.11.03.04.06.07.09.11.03.04.06.07.09.11.03.04.06.07.09.11.03.04.06.07.09.11.03.04.06.07.09.11.03.04.06.07.09.11.03.04.06.07.09.11.03.04.06.07.09.11.03.04.06.07.09.11.03.04.06.07.09.11.03.04.06.07.09.11.03.04.06.07.09.11.03.04.06.07.09.11.03.04.06.07.09.11.03.04.06.07.09.11.03.04.06.07.09.11.03.04.06.07.09.11.03.04.06.07.09.11.03.04.06.07.09.11.03.04.06.07.09.11.03.04.06.07.09.11.03.04.06.07.09.11.03.04.06.07.09.11.03.04.06.07.09.11.03.04.06.07.09.11.03.04.06.07.09.11.03.04.06.07.09.11.03.04.06.07.09.11.03.04.06.07.09.11.03.04.06.07.09.11.03.04.06.07.09.11.03.04.06.07.09.11.03.04.06.07.09.11.03.04.06.07.09.11.03.04.06.07.09.11.03.04.06.07.09.11.03.04.06.07.09.11.03.04.06.07.09.11.03.04.06.07.09.11.03.04.06.07.09.11.03.04.06.07.09.11.03.04.06.07.09.11.03.04.06.07.09.11.03.04.06.07.09.11.03.04.06.07.09.11.03.04.06.07.09.11.03.04.06.07.09.11.03.04.06.07.09.11.03.04.06.07.09.11.03.04.06.07.09.11.03.04.06.07.09.11.03.04.06.07.09.11.03.04.06.07.09.11.03.04.06.07.09.11.03.04.06.07.09.11.03.04.06.07.09.11.03.04.06.07.09.11.03.04.06.07.09.11.03.04.06.07.09.11.03.04.06.07.09.11.03.04.06.07.09.11.03.04.06.07.09.11.03.04.06.07.09.11.03.04.06.07.09.11.03.04.06.07.09.11.03.04.06.07.09.11.03.04.06.07.09.11.03.04.06.07.09.11.03.04.06.07.09.11.03.04.06.07.09.11.03.04.06.07.09.11.03.04.06.07.09.11.03.04.06.07.09.11.03.04.06.07.09.11.03.04.06.07.09.11.03.04.06.07.09.11.03.04.06.07.09.11.03.04.06.07.09.11,1.3,1.62,3.2,2.82,5.69,3.22,1.7.27,3.22.12,4.55-.32-4.01,5.16-9.44,5.14-15.32-.06,0,0,0-.01-.01-.02-.03-.04-.06-.07-.09-.11-.03-.04-.06-.07-.09-.11-.03-.04-.06-.07-.09-.11-.03-.04-.06-.07-.09-.11-.03-.04-.06-.07-.09-.11-.03-.04-.06-.07-.09-.11-.03-.04-.06-.07-.09-.11-.03-.04-.06-.07-.09-.11-.03-.04-.06-.07-.09-.11-.03-.04-.06-.07-.09-.11-.03-.04-.06-.07-.09-.11-.03-.04-.06-.07-.09-.11-.03-.04-.06-.07-.09-.11-.03-.04-.06-.07-.09-.11-.03-.04-.06-.07-.09-.11-.03-.04-.06-.07-.09-.11-.03-.04-.06-.07-.09-.11-.03-.04-.06-.07-.09-.11-.03-.04-.06-.07-.09-.11-.03-.04-.06-.07-.09-.11-.03-.04-.06-.07-.09-.11-.03-.04-.06-.07-.09-.11-.03-.04-.06-.07-.09-.11-.03-.04-.06-.07-.09-.11-.03-.04-.06-.07-.09-.11-.03-.04-.06-.07-.09-.11-.03-.04-.06-.07-.09-.11-.03-.04-.06-.07-.09-.11-.03-.04-.06-.07-.09-.11-.03-.04-.06-.07-.09-.11-.03-.04-.06-.07-.09-.11-.03-.04-.06-.07-.09-.11-.03-.04-.06-.07-.09-.11-.03-.04-.06-.07-.09-.11-.03-.04-.06-.07-.09-.11-.03-.04-.06-.07-.09-.11-.03-.04-.06-.07-.09-.11-.03-.04-.06-.07-.09-.11-.03-.04-.06-.07-.09-.11-.03-.04-.06-.07-.09-.11-.03-.04-.06-.07-.09-.11-.03-.04-.06-.07-.09-.11-.03-.04-.06-.07-.09-.11-.03-.04-.06-.07-.09-.11-.03-.04-.06-.07-.09-.11-.03-.04-.06-.07-.09-.11-.03-.04-.06-.07-.09-.11-.03-.04-.06-.07-.09-.11-.03-.04-.06-.07-.09-.11-.03-.04-.06-.07-.09-.11-.03-.04-.06-.07-.09-.11-.03-.04-.06-.07-.09-.11-.03-.04-.06-.07-.09-.11-.03-.04-.06-.07-.09-.11-.03-.04-.06-.07-.09-.11-.03-.04-.06-.07-.09-.11-.03-.04-.06-.07-.09-.11-.03-.04-.06-.07-.09-.11-.26-.32-.52-.6-.78-.82-.27-.23-.56-.41-.86-.58.27-1.6.73-3.03.31-4.4-.06-.18-.18-.37-.34-.55-.03-.04-.06-.07-.09-.11-.03-.04-.06-.07-.09-.11-.03-.04-.06-.07-.09-.11-.03-.04-.06-.07-.09-.11-.03-.04-.06-.07-.09-.11-.03-.04-.06-.07-.09-.11-.03-.04-.06-.07-.09-.11-.03-.04-.06-.07-.09-.11-.03-.04-.06-.07-.09-.11-.03-.04-.06-.07-.09-.11-.03-.04-.06-.07-.09-.11-.03-.04-.06-.07-.09-.11-.03-.04-.06-.07-.09-.11-.03-.04-.06-.07-.09-.11-.03-.04-.06-.07-.09-.11-.03-.04-.06-.07-.09-.11-.03-.04-.06-.07-.09-.11-.03-.04-.06-.07-.09-.11-.03-.04-.06-.07-.09-.11-.03-.04-.06-.07-.09-.11-.03-.04-.06-.07-.09-.11-.03-.04-.06-.07-.09-.11-.03-.04-.06-.07-.09-.11-.03-.04-.06-.07-.09-.11-.03-.04-.06-.07-.09-.11-.03-.04-.06-.07-.09-.11-.03-.04-.06-.07-.09-.11-.03-.04-.06-.07-.09-.11-.03-.04-.06-.07-.09-.11-.03-.04-.06-.07-.09-.11-.03-.04-.06-.07-.09-.11-.03-.04-.06-.07-.09-.11-.03-.04-.06-.07-.09-.11-.03-.04-.06-.07-.09-.11-.03-.04-.06-.07-.09-.11-.03-.04-.06-.07-.09-.11-.03-.04-.06-.07-.09-.11-.03-.04-.06-.07-.09-.11-.03-.04-.06-.07-.09-.11-.03-.04-.06-.07-.09-.11-.03-.04-.06-.07-.09-.11-.03-.04-.06-.07-.09-.11-.03-.04-.06-.07-.09-.11-.03-.04-.06-.07-.09-.11-.03-.04-.06-.07-.09-.11-.03-.04-.06-.07-.09-.11-.03-.04-.06-.07-.09-.11-.03-.04-.06-.07-.09-.11-.03-.04-.06-.07-.09-.11-.03-.04-.06-.07-.09-.11-.03-.04-.06-.07-.09-.11-.03-.04-.06-.07-.09-.11-.03-.04-.06-.07-.09-.11-.03-.04-.06-.07-.09-.11-.03-.04-.06-.07-.09-.11-.03-.04-.06-.07-.09-.11-.03-.04-.06-.07-.09-.11-.03-.04-.06-.07-.09-.11-.03-.04-.06-.07-.09-.11-.03-.04-.06-.07-.09-.11-.03-.04-.06-.07-.09-.11-.03-.04-.06-.07-.09-.11-.03-.04-.06-.07-.09-.11-.03-.04-.06-.07-.09-.11-.03-.04-.06-.07-.09-.11-.03-.04-.06-.07-.09-.11-.03-.04-.06-.07-.09-.11-.03-.04-.06-.07-.09-.11-.03-.04-.06-.07-.09-.11-.03-.04-.06-.07-.09-.11-.03-.04-.06-.07-.09-.11-.03-.04-.06-.07-.09-.11-.03-.04-.06-.07-.09-.11-.03-.04-.06-.07-.09-.11-.03-.04-.06-.07-.09-.11-.03-.04-.06-.07-.09-.11-.03-.04-.06-.07-.09-.11-.03-.04-.06-.07-.09-.11-.03-.04-.06-.07-.09-.11-.03-.04-.06-.07-.09-.11-.03-.04-.06-.07-.09-.11-.03-.04-.06-.07-.09-.11-.03-.04-.06-.07-.09-.11-.03-.04-.06-.07-.09-.11-.03-.04-.06-.07-.09-.11-.03-.04-.06-.07-.09-.11-.03-.04-.06-.07-.09-.11-.03-.04-.06-.07-.09-.11-.43-.55-1.29-1.12-2.23-1.68-1.05-3.85-.96-8.12-.31-11.99-.03-.03-.06-.05-.09-.08,0-.01,0-.02,0-.03-.03-.03-.06-.05-.09-.08,0-.01,0-.02,0-.03-.03-.03-.06-.05-.09-.08,0-.01,0-.02,0-.03-.03-.03-.06-.05-.09-.08,0-.01,0-.02,0-.03-.03-.03-.06-.05-.09-.08,0-.01,0-.02,0-.03-.03-.03-.06-.05-.09-.08,0-.01,0-.02,0-.03-.03-.03-.06-.05-.09-.08,0-.01,0-.02,0-.03-.03-.03-.06-.05-.09-.08,0-.01,0-.02,0-.03-.03-.03-.06-.05-.09-.08,0-.01,0-.02,0-.03-.03-.03-.06-.05-.09-.08,0-.01,0-.02,0-.03-.03-.03-.06-.05-.09-.08,0-.01,0-.02,0-.03-.03-.03-.06-.05-.09-.08,0-.01,0-.02,0-.03-.03-.03-.06-.05-.09-.08,0-.01,0-.02,0-.03-.03-.03-.06-.05-.09-.08,0-.01,0-.02,0-.03-.03-.03-.06-.05-.09-.08,0-.01,0-.02,0-.03-.03-.03-.06-.05-.09-.08,0-.01,0-.02,0-.03-.03-.03-.06-.05-.09-.08,0-.01,0-.02,0-.03-.03-.03-.06-.05-.09-.08,0-.01,0-.02,0-.03-.03-.03-.06-.05-.09-.08,0-.01,0-.02,0-.03-.03-.03-.06-.05-.09-.08,0-.01,0-.02,0-.03-.03-.03-.06-.05-.09-.08,0-.01,0-.02,0-.03-.03-.03-.06-.05-.09-.08,0-.01,0-.02,0-.03-.03-.03-.06-.05-.09-.08,0-.01,0-.02,0-.03-.03-.03-.06-.05-.09-.08,0-.01,0-.02,0-.03-.03-.03-.06-.05-.09-.08,0-.01,0-.02,0-.03-.03-.03-.06-.05-.09-.08,0-.01,0-.02,0-.03-.03-.03-.06-.05-.09-.08,0-.01,0-.02,0-.03-.03-.03-.06-.05-.09-.08,0-.01,0-.02,0-.03-.03-.03-.06-.05-.09-.08,0-.01,0-.02,0-.03-.03-.03-.06-.05-.09-.08,0-.01,0-.02,0-.03-.03-.03-.06-.05-.09-.08,0-.01,0-.02,0-.03-.03-.03-.06-.05-.09-.08,0-.01,0-.02,0-.03-.03-.03-.06-.05-.09-.08,0-.01,0-.02,0-.03-.03-.03-.06-.05-.09-.08,0-.01,0-.02,0-.03-.03-.03-.06-.05-.09-.08,0-.01,0-.02,0-.03-.03-.03-.06-.05-.09-.08,0-.01,0-.02,0-.03-.03-.03-.06-.05-.09-.08,0-.01,0-.02,0-.03-.03-.03-.06-.05-.09-.08,0-.01,0-.02,0-.03-.03-.03-.06-.05-.09-.08,0-.01,0-.02,0-.03-.03-.03-.06-.05-.09-.08,0-.01,0-.02,0-.03-.03-.03-.06-.05-.09-.08,0-.01,0-.02,0-.03-.03-.03-.06-.05-.09-.08,0-.01,0-.02,0-.03-.03-.03-.06-.05-.09-.08,0-.01,0-.02,0-.03-.03-.03-.06-.05-.09-.08,0-.01,0-.02,0-.03-.03-.03-.06-.05-.09-.08,0-.01,0-.02,0-.03-.03-.03-.06-.05-.09-.08,0-.01,0-.02,0-.03-.03-.03-.06-.05-.09-.08,0-.01,0-.02,0-.03-.03-.03-.06-.05-.09-.08,0-.01,0-.02,0-.03-.03-.03-.06-.05-.09-.08,0-.01,0-.02,0-.03-.03-.03-.06-.05-.09-.08,0-.01,0-.02,0-.03-.03-.03-.06-.05-.09-.08,0-.01,0-.02,0-.03-.03-.03-.06-.05-.09-.08,0-.01,0-.02,0-.03-.03-.03-.06-.05-.09-.08,0-.01,0-.02,0-.03-.03-.03-.06-.05-.09-.08,0-.01,0-.02,0-.03-.03-.03-.06-.05-.09-.08,0-.01,0-.02,0-.03-.03-.03-.06-.05-.09-.08,0-.01,0-.02,0-.03-.03-.03-.06-.05-.09-.08,0-.01,0-.02,0-.03-.03-.03-.06-.05-.09-.08,0-.01,0-.02,0-.03-.03-.03-.06-.05-.09-.08,0-.01,0-.02,0-.03-.03-.03-.06-.05-.09-.08,0-.01,0-.02,0-.03-.03-.03-.06-.05-.09-.08,0-.01,0-.02,0-.03-.03-.03-.06-.05-.09-.08,0-.01,0-.02,0-.03-.03-.03-.06-.05-.09-.08,0-.01,0-.02,0-.03-.03-.03-.06-.05-.09-.08,0-.01,0-.02,0-.03-.03-.03-.06-.05-.09-.08,0-.01,0-.02,0-.03-.03-.03-.06-.05-.09-.08ZM96.78,40.81v69.94s-.07-.07-.09-.1c-.03-.04-.06-.07-.09-.11-.03-.04-.06-.07-.09-.11-.03-.04-.06-.07-.09-.11-.03-.04-.06-.07-.09-.11-.03-.04-.06-.07-.09-.11-.03-.04-.06-.07-.09-.11-.03-.04-.06-.07-.09-.11-.03-.04-.06-.07-.09-.11-.03-.04-.06-.07-.09-.11-.03-.04-.06-.07-.09-.11-.03-.04-.06-.07-.09-.11-.03-.04-.06-.07-.09-.11-.03-.04-.06-.07-.09-.11-.03-.04-.06-.07-.09-.11-.03-.04-.06-.07-.09-.11-.03-.04-.06-.07-.09-.11-.03-.04-.06-.07-.09-.11-.03-.04-.06-.07-.09-.11-.03-.04-.06-.07-.09-.11-.03-.04-.06-.07-.09-.11-.03-.04-.06-.07-.09-.11-.03-.04-.06-.07-.09-.11-.03-.04-.06-.07-.09-.11-.03-.04-.06-.07-.09-.11-.03-.04-.06-.07-.09-.11-.03-.04-.06-.07-.09-.11-.03-.04-.06-.07-.09-.11-.03-.04-.06-.07-.09-.11-.03-.04-.06-.07-.09-.11-.03-.04-.06-.07-.09-.11-.03-.04-.06-.07-.09-.11-.03-.04-.06-.07-.09-.11-.03-.04-.06-.07-.09-.11-.03-.04-.06-.07-.09-.11-.03-.04-.06-.07-.09-.11-.03-.04-.06-.07-.09-.11-.03-.04-.06-.07-.09-.11-.03-.04-.06-.07-.09-.11-.03-.04-.06-.07-.09-.11-.03-.04-.06-.07-.09-.11-.03-.04-.06-.07-.09-.11-.03-.04-.06-.07-.09-.11-.03-.04-.06-.07-.09-.11-.03-.04-.06-.07-.09-.11-.03-.04-.06-.07-.09-.11,0,0-.01-.02-.02-.03.13-3.74.55-9.43-.56-10.89h-.02s-.04-.08-.07-.11h-.02s-.04-.08-.07-.11h-.02s-.04-.08-.07-.11h-.02s-.04-.08-.07-.11h-.02s-.04-.08-.07-.11h-.02s-.04-.08-.07-.11h-.02s-.04-.08-.07-.11h-.02s-.04-.08-.07-.11h-.02s-.04-.08-.07-.11h-.02s-.04-.08-.07-.11h-.02s-.04-.08-.07-.11h-.02s-.04-.08-.07-.11h-.02s-.04-.08-.07-.11h-.02s-.04-.08-.07-.11h-.02s-.04-.08-.07-.11h-.02s-.04-.08-.07-.11h-.02s-.04-.08-.07-.11h-.02s-.04-.08-.07-.11h-.02s-.04-.08-.07-.11h-.02s-.04-.08-.07-.11h-.02s-.04-.08-.07-.11h-.02s-.04-.08-.07-.11h-.02s-.04-.08-.07-.11h-.02s-.04-.08-.07-.11h-.02s-.04-.08-.07-.11h-.02s-.04-.08-.07-.11h-.02s-.04-.08-.07-.11h-.02s-.04-.08-.07-.11h-.02s-.04-.08-.07-.11h-.02s-.04-.08-.07-.11h-.02s-.04-.08-.07-.11h-.02s-.04-.08-.07-.11h-.02s-.04-.08-.07-.11h-.02s-.04-.08-.07-.11h-.02s-.04-.08-.07-.11h-.02s-.04-.08-.07-.11h-.02s-.04-.08-.07-.11h-.02s-.04-.08-.07-.11h-.02s-.04-.08-.07-.11h-.02s-.04-.08-.07-.11h-.02s-.04-.08-.07-.11h-.02s-.04-.08-.07-.11h-.02s-.04-.08-.07-.11h-.02s-.04-.08-.07-.11h-.02s-.04-.08-.07-.11h-.02s-.04-.08-.07-.11h-.02s-.04-.08-.07-.11h-.02s-.04-.08-.07-.11h-.02s-.04-.08-.07-.11h-.02s-.04-.08-.07-.11h-.02s-.04-.08-.07-.11h-.02s-.04-.08-.07-.11h-.02s-.04-.08-.07-.11h-.02s-.04-.08-.07-.11h-.02s-.04-.08-.07-.11h-.02s-.04-.08-.07-.11h-.02s-.04-.08-.07-.11h-.02s-.04-.08-.07-.11h-.02s-.04-.08-.07-.11h-.02s-.04-.08-.07-.11h-.02s-.04-.08-.07-.11h-.02s-.04-.08-.07-.11h-.02s-.04-.08-.07-.11h-.02s-.04-.08-.07-.11h-.02s-.04-.08-.07-.11h-.02s-.04-.08-.07-.11h-.02s-.04-.08-.07-.11h-.02s-.04-.08-.07-.11h-.02s-.04-.08-.07-.11h-.02s-.04-.08-.07-.11h-.02s-.04-.08-.07-.11h-.02s-.04-.08-.07-.11h-.02s-.04-.08-.07-.11h-.02s-.04-.08-.07-.11h-.02s-.02-.04-.03-.05c-.01-4.62.08-10.02.28-10.63,3.38-2.34,6.55-3.85,7.05-8.54.28-2.59-.49-4.86-1.85-6.61-.03-.04-.06-.07-.09-.11-.03-.04-.06-.07-.09-.11-.03-.04-.06-.07-.09-.11-.03-.04-.06-.07-.09-.11-.03-.04-.06-.07-.09-.11-.03-.04-.06-.07-.09-.11-.03-.04-.06-.07-.09-.11-.03-.04-.06-.07-.09-.11-.03-.04-.06-.07-.09-.11-.03-.04-.06-.07-.09-.11-.03-.04-.06-.07-.09-.11-.03-.04-.06-.07-.09-.11-.03-.04-.06-.07-.09-.11-.03-.04-.06-.07-.09-.11-.03-.04-.06-.07-.09-.11-.03-.04-.06-.07-.09-.11-.03-.04-.06-.07-.09-.11-.03-.04-.06-.07-.09-.11-.03-.04-.06-.07-.09-.11-.03-.04-.06-.07-.09-.11-.03-.04-.06-.07-.09-.11-.03-.04-.06-.07-.09-.11-.03-.04-.06-.07-.09-.11-.03-.04-.06-.07-.09-.11-.03-.04-.06-.07-.09-.11-.03-.04-.06-.07-.09-.11-.03-.04-.06-.07-.09-.11-.03-.04-.06-.07-.09-.11-.03-.04-.06-.07-.09-.11-.03-.04-.06-.07-.09-.11-.03-.04-.06-.07-.09-.11-.03-.04-.06-.07-.09-.11-.03-.04-.06-.07-.09-.11-.03-.04-.06-.07-.09-.11-.03-.04-.06-.07-.09-.11-.03-.04-.06-.07-.09-.11-.03-.04-.06-.07-.09-.11-.03-.04-.06-.07-.09-.11-.03-.04-.06-.07-.09-.11-.03-.04-.06-.07-.09-.11-.03-.04-.06-.07-.09-.11-.03-.04-.06-.07-.09-.11-.03-.04-.06-.07-.09-.11-.03-.04-.06-.07-.09-.11-.03-.04-.06-.07-.09-.11-.03-.04-.06-.07-.09-.11-.03-.04-.06-.07-.09-.11-.03-.04-.06-.07-.09-.11-.03-.04-.06-.07-.09-.11-.03-.04-.06-.07-.09-.11-.03-.04-.06-.07-.09-.11-.03-.04-.06-.07-.09-.11-.03-.04-.06-.07-.09-.11-.03-.04-.06-.07-.09-.11-.03-.04-.06-.07-.09-.11-.03-.04-.06-.07-.09-.11-.03-.04-.06-.07-.09-.11-.03-.04-.06-.07-.09-.11-.03-.04-.06-.07-.09-.11-.03-.04-.06-.07-.09-.11-.03-.04-.06-.07-.09-.11-.03-.04-.06-.07-.09-.11-.03-.04-.06-.07-.09-.11-.03-.04-.06-.07-.09-.11-.03-.04-.06-.07-.09-.11-.03-.04-.06-.07-.09-.11-.03-.04-.06-.07-.09-.11-.03-.04-.06-.07-.09-.11-.03-.04-.06-.07-.09-.11-.03-.04-.06-.07-.09-.11-.03-.04-.06-.07-.09-.11-.03-.04-.06-.07-.09-.11-.03-.04-.06-.07-.09-.11-.03-.04-.06-.07-.09-.11-.03-.04-.06-.07-.09-.11-.03-.04-.06-.07-.09-.11-.03-.04-.06-.07-.09-.11-.03-.04-.06-.07-.09-.11-.03-.04-.06-.07-.09-.11-.03-.04-.06-.07-.09-.11-.03-.04-.06-.07-.09-.11-.03-.04-.06-.07-.09-.11-.03-.04-.06-.07-.09-.11-.03-.04-.06-.07-.09-.11-.03-.04-.06-.07-.09-.11-.03-.04-.06-.07-.09-.11-.03-.04-.06-.07-.09-.11-.03-.04-.06-.07-.09-.11-1.3-1.72-3.17-2.94-5.22-3.5,2.53-1.03,4.02-.26,6.2-.89,2.1-.61,4.86-4.98,9.24-5.72.94-.16,2.22-.23,3.58-.15ZM96.76,136.47s-.06-.07-.09-.11c-.03-.04-.06-.07-.09-.11-.03-.04-.06-.07-.09-.11-.03-.04-.06-.07-.09-.11-.03-.04-.06-.07-.09-.11-.03-.04-.06-.07-.09-.11-.03-.04-.06-.07-.09-.11-.03-.04-.06-.07-.09-.11-.03-.04-.06-.07-.09-.11-.03-.04-.06-.07-.09-.11-.03-.04-.06-.07-.09-.11-.03-.04-.06-.07-.09-.11-.03-.04-.06-.07-.09-.11-.03-.04-.06-.07-.09-.11-.03-.04-.06-.07-.09-.11-.03-.04-.06-.07-.09-.11-.03-.04-.06-.07-.09-.11-.03-.04-.06-.07-.09-.11-.03-.04-.06-.07-.09-.11-.03-.04-.06-.07-.09-.11-.03-.04-.06-.07-.09-.11-.03-.04-.06-.07-.09-.11-.03-.04-.06-.07-.09-.11-.03-.04-.06-.07-.09-.11-.03-.04-.06-.07-.09-.11-.03-.04-.06-.07-.09-.11-.03-.04-.06-.07-.09-.11-.03-.04-.06-.07-.09-.11-.03-.04-.06-.07-.09-.11-.03-.04-.06-.07-.09-.11-.03-.04-.06-.07-.09-.11-.03-.04-.06-.07-.09-.11-.03-.04-.06-.07-.09-.11-.03-.04-.06-.07-.09-.11-.03-.04-.06-.07-.09-.11-.03-.04-.06-.07-.09-.11-.03-.04-.06-.07-.09-.11-.03-.04-.06-.07-.09-.11-.03-.04-.06-.07-.09-.11-.03-.04-.06-.07-.09-.11-.03-.04-.06-.07-.09-.11-.03-.04-.06-.07-.09-.11-.03-.04-.06-.07-.09-.11-.03-.04-.06-.07-.09-.11-.03-.04-.06-.07-.09-.11,0,0,0,0,0,0v-4.72c1.62-.37,2.98-1.16,4.05-2.23v11.93s0,0-.01-.01ZM66.14,57.02c.1,2.01.94,3.92,2.31,5.54.03.04.06.07.09.11.03.04.06.07.09.11.03.04.06.07.09.11.03.04.06.07.09.11.03.04.06.07.09.11.03.04.06.07.09.11.03.04.06.07.09.11.03.04.06.07.09.11.03.04.06.07.09.11.03.04.06.07.09.11.03.04.06.07.09.11.03.04.06.07.09.11.03.04.06.07.09.11.03.04.06.07.09.11.03.04.06.07.09.11.03.04.06.07.09.11.03.04.06.07.09.11.03.04.06.07.09.11.03.04.06.07.09.11.03.04.06.07.09.11.03.04.06.07.09.11.03.04.06.07.09.11.03.04.06.07.09.11.03.04.06.07.09.11.03.04.06.07.09.11.03.04.06.07.09.11.03.04.06.07.09.11.03.04.06.07.09.11.03.04.06.07.09.11.03.04.06.07.09.11.03.04.06.07.09.11.03.04.06.07.09.11.03.04.06.07.09.11.03.04.06.07.09.11.03.04.06.07.09.11.03.04.06.07.09.11.03.04.06.07.09.11.03.04.06.07.09.11.03.04.06.07.09.11.03.04.06.07.09.11.03.04.06.07.09.11.03.04.06.07.09.11.03.04.06.07.09.11.03.04.06.07.09.11.03.04.06.07.09.11.03.04.06.07.09.11.03.04.06.07.09.11.03.04.06.07.09.11.03.04.06.07.09.11.03.04.06.07.09.11.03.04.06.07.09.11.03.04.06.07.09.11.03.04.06.07.09.11.03.04.06.07.09.11,0,0,0,.01.01.02l-.16,15.79c-1.77.64-2.86.89-3.58.85,0,0,0,0,0,0-.03-.04-.06-.08-.09-.11-.03-.04-.06-.08-.09-.11-.03-.04-.06-.08-.09-.11-.03-.04-.06-.08-.09-.11-.03-.04-.06-.08-.09-.11-.03-.04-.06-.08-.09-.11-.03-.04-.06-.08-.09-.11-.03-.04-.06-.08-.09-.11-.03-.04-.06-.08-.09-.11-.03-.04-.06-.08-.09-.11-.03-.04-.06-.08-.09-.11-.03-.04-.06-.08-.09-.11-.03-.04-.06-.08-.09-.11-.03-.04-.06-.08-.09-.11-.03-.04-.06-.08-.09-.11-.03-.04-.06-.08-.09-.11-.03-.04-.06-.08-.09-.11-.03-.04-.06-.08-.09-.11-.03-.04-.06-.08-.09-.11-.03-.04-.06-.08-.09-.11-.03-.04-.06-.08-.09-.11-.03-.04-.06-.08-.09-.11-.03-.04-.06-.08-.09-.11-.03-.04-.06-.08-.09-.11-.03-.04-.06-.08-.09-.11-.03-.04-.06-.08-.09-.11-.03-.04-.06-.08-.09-.11-.03-.04-.06-.08-.09-.11-.03-.04-.06-.08-.09-.11-.03-.04-.06-.08-.09-.11-.03-.04-.06-.08-.09-.11-.03-.04-.06-.08-.09-.11-.03-.04-.06-.08-.09-.11-.03-.04-.06-.08-.09-.11-.03-.04-.06-.08-.09-.11-.03-.04-.06-.08-.09-.11-.03-.04-.06-.08-.09-.11-.03-.04-.06-.08-.09-.11-3.21-3.76-7.83-4.1-11.32-2.28.1-5.71-.38-10.74,4.15-16.87,2.53-3.42,4.87-4.2,7.17-4.8ZM119.98,50.07s.06.08.09.11c.03.04.06.08.09.11.03.04.06.08.09.11.03.04.06.08.09.11.03.04.06.08.09.11.03.04.06.08.09.11.03.04.06.08.09.11.03.04.06.08.09.11.03.04.06.08.09.11.03.04.06.08.09.11.03.04.06.08.09.11.03.04.06.08.09.11.03.04.06.08.09.11.03.04.06.08.09.11.03.04.06.08.09.11.03.04.06.08.09.11.03.04.06.08.09.11.03.04.06.08.09.11.03.04.06.08.09.11.03.04.06.08.09.11.03.04.06.08.09.11.03.04.06.08.09.11.03.04.06.08.09.11.03.04.05.07.08.11-.48,1.06-.93,2.27-1.22,3.45-.01-.01-.03-.03-.04-.04-.03-.04-.06-.07-.09-.11-.03-.04-.06-.07-.09-.11-.03-.04-.06-.07-.09-.11-.03-.04-.06-.07-.09-.11-.03-.04-.06-.07-.09-.11-.03-.04-.06-.07-.09-.11-.03-.04-.06-.07-.09-.11-.03-.04-.06-.07-.09-.11-.03-.04-.06-.07-.09-.11-.03-.04-.06-.07-.09-.11-.03-.04-.06-.07-.09-.11-.03-.04-.06-.07-.09-.11-.03-.04-.06-.07-.09-.11-.03-.04-.06-.07-.09-.11-.03-.04-.06-.07-.09-.11-.03-.04-.06-.07-.09-.11-.03-.04-.06-.07-.09-.11-.03-.04-.06-.07-.09-.11-.03-.04-.06-.07-.09-.11-.03-.04-.06-.07-.09-.11-.03-.04-.06-.07-.09-.11-.03-.04-.06-.07-.09-.11-.03-.04-.06-.07-.09-.11-.03-.04-.06-.07-.09-.11-.03-.04-.06-.07-.09-.11-.03-.04-.06-.07-.09-.11-.03-.04-.06-.07-.09-.11-.03-.04-.06-.07-.09-.11-.03-.04-.06-.07-.09-.11-.03-.04-.06-.07-.09-.11-.03-.04-.06-.07-.09-.11-.03-.04-.06-.07-.09-.11-.03-.04-.06-.07-.09-.11-.03-.04-.06-.07-.09-.11-.03-.04-.06-.07-.09-.11-.03-.04-.06-.07-.09-.11-.03-.04-.06-.07-.09-.11-.03-.04-.06-.07-.09-.11-.03-.04-.06-.07-.09-.11-.03-.04-.06-.07-.09-.11-.03-.04-.06-.07-.09-.11-.03-.04-.06-.07-.09-.11-.03-.04-.06-.07-.09-.11-.03-.04-.06-.07-.09-.11-.03-.04-.06-.07-.09-.11-.03-.04-.06-.07-.09-.11-.03-.04-.06-.07-.09-.11-.03-.04-.06-.07-.09-.11-.03-.04-.06-.07-.09-.11-.03-.04-.06-.07-.09-.11-.03-.04-.06-.07-.09-.11-.03-.04-.06-.07-.09-.11-.03-.04-.06-.07-.09-.11-.03-.04-.06-.07-.09-.11-.03-.04-.06-.07-.09-.11-.03-.04-.06-.07-.09-.11-.03-.04-.06-.07-.09-.11-.03-.04-.06-.07-.09-.11-.03-.04-.06-.07-.09-.11-.03-.04-.06-.07-.09-.11-.03-.04-.06-.07-.09-.11-.03-.04-.06-.07-.09-.11-.03-.04-.06-.07-.09-.11-.33-.45-.8-.75-1.44-.84-.94-.08-1.95.37-2.36,1.22-.59,1.21-.68,8.36-1.17,10.8-.28,1.42-.78,3.15-1.33,4.78l-.03-19.87c.34-2.21,2.51-3.52,5.19-4.1-.27.73-.29,1.37.16,1.83.03.04.06.08.09.11.03.04.06.08.09.11.03.04.06.08.09.11.03.04.06.08.09.11.03.04.06.08.09.11.03.04.06.08.09.11.03.04.06.08.09.11.03.04.06.08.09.11.03.04.06.08.09.11.03.04.06.08.09.11.03.04.06.08.09.11.03.04.06.08.09.11.03.04.06.08.09.11.03.04.06.08.09.11.03.04.06.08.09.11.03.04.06.08.09.11.03.04.06.08.09.11.03.04.06.08.09.11.03.04.06.08.09.11.03.04.06.08.09.11.03.04.06.08.09.11.03.04.06.08.09.11.03.04.06.08.09.11.03.04.06.08.09.11.03.04.06.08.09.11.03.04.06.08.09.11.03.04.06.08.09.11.03.04.06.08.09.11.03.04.06.08.09.11.03.04.06.08.09.11.03.04.06.08.09.11.03.04.06.08.09.11.03.04.06.08.09.11.03.04.06.08.09.11.03.04.06.08.09.11.03.04.06.08.09.11.03.04.06.08.09.11.03.04.06.08.09.11.03.04.06.08.09.11.03.04.06.08.09.11.03.04.06.08.09.11.03.04.06.08.09.11.03.04.06.08.09.11.03.04.06.08.09.11.03.04.06.08.09.11.03.04.06.08.09.11.03.04.06.08.09.11.03.04.06.08.09.11.03.04.06.08.09.11.03.04.06.08.09.11.03.04.06.08.09.11.03.04.06.08.09.11.03.04.06.08.09.11.03.04.06.08.09.11.03.04.06.08.09.11.03.04.06.08.09.11.03.04.06.08.09.11.03.04.06.08.09.11.03.04.06.08.09.11.03.04.06.08.09.11.03.04.06.08.09.11.03.04.06.08.09.11.03.04.06.08.09.11.03.04.06.08.09.11ZM109.11,114.84s.02.03.03.04c1.69,2.77,3.14,5.91,3.06,9.22-.03,1.19-1.57,3.41-3.19,5.82l-.02-15.23s.02.02.03.04c.03.04.06.07.09.11ZM151.21,64.84c.66,7.56.02,7.53,2.42,14.94,3.9,12.06.51,21.58-11.07,27.27-3.81,1.87-6.64,1.79-8.94.56,0,0-.01-.02-.02-.03,0,0-.02,0-.03-.01-.02-.03-.04-.06-.06-.1,0,0-.02,0-.03-.01-.02-.03-.04-.06-.06-.1,0,0-.02,0-.03-.01-.02-.03-.04-.06-.06-.1,0,0-.02,0-.03-.01-.02-.03-.04-.06-.06-.1,0,0-.02,0-.03-.01-.02-.03-.04-.06-.06-.1,0,0-.02,0-.03-.01-.02-.03-.04-.06-.06-.1,0,0-.02,0-.03-.01-.02-.03-.04-.06-.06-.1,0,0-.02,0-.03-.01-.02-.03-.04-.06-.06-.1,0,0-.02,0-.03-.01-.02-.03-.04-.06-.06-.1,0,0-.02,0-.03-.01-.02-.03-.04-.06-.06-.1,0,0-.02,0-.03-.01-.02-.03-.04-.06-.06-.1,0,0-.02,0-.03-.01-.02-.03-.04-.06-.06-.1,0,0-.02,0-.03-.01-.02-.03-.04-.06-.06-.1,0,0-.02,0-.03-.01-.02-.03-.04-.06-.06-.1,0,0-.02,0-.03-.01-.02-.03-.04-.06-.06-.1,0,0-.02,0-.03-.01-.02-.03-.04-.06-.06-.1,0,0-.02,0-.03-.01-.02-.03-.04-.06-.06-.1,0,0-.02,0-.03-.01-.02-.03-.04-.06-.06-.1,0,0-.02,0-.03-.01-.02-.03-.04-.06-.06-.1,0,0-.02,0-.03-.01-.02-.03-.04-.06-.06-.1,0,0-.02,0-.03-.01-.02-.03-.04-.06-.06-.1,0,0-.02,0-.03-.01-.02-.03-.04-.06-.06-.1,0,0-.02,0-.03-.01-.02-.03-.04-.06-.06-.1,0,0-.02,0-.03-.01-.02-.03-.04-.06-.06-.1,0,0-.02,0-.03-.01-.02-.03-.04-.06-.06-.1,0,0-.02,0-.03-.01-.02-.03-.04-.06-.06-.1,0,0-.02,0-.03-.01-.02-.03-.04-.06-.06-.1,0,0-.02,0-.03-.01-.02-.03-.04-.06-.06-.1,0,0-.02,0-.03-.01-.02-.03-.04-.06-.06-.1,0,0-.02,0-.03-.01-.02-.03-.04-.06-.06-.1,0,0-.02,0-.03-.01-.02-.03-.04-.06-.06-.1,0,0-.02,0-.03-.01-.02-.03-.04-.06-.06-.1,0,0-.02,0-.03-.01-.02-.03-.04-.06-.06-.1,0,0-.02,0-.03-.01-.02-.03-.04-.06-.06-.1,0,0-.02,0-.03-.01-.02-.03-.04-.06-.06-.1,0,0-.02,0-.03-.01-.02-.03-.04-.06-.06-.1,0,0-.02,0-.03-.01-.02-.03-.04-.06-.06-.1,0,0-.02,0-.03-.01-.02-.03-.04-.06-.06-.1,0,0-.02,0-.03-.01-.02-.03-.04-.06-.06-.1,0,0-.02,0-.03-.01-.02-.03-.04-.06-.06-.1,0,0-.02,0-.03-.01-.02-.03-.04-.06-.06-.1,0,0-.02,0-.03-.01-.02-.03-.04-.06-.06-.1,0,0-.02,0-.03-.01-.02-.03-.04-.06-.06-.1,0,0-.02,0-.03-.01-.02-.03-.04-.06-.06-.1,0,0-.02,0-.03-.01-.02-.03-.04-.06-.06-.1,0,0-.02,0-.03-.01-.02-.03-.04-.06-.06-.1,0,0-.02,0-.03-.01-.02-.03-.04-.06-.06-.1,0,0-.02,0-.03-.01-.02-.03-.04-.06-.06-.1,0,0-.02,0-.03-.01-.02-.03-.04-.06-.06-.1,0,0-.02,0-.03-.01-.02-.03-.04-.06-.06-.1,0,0-.02,0-.03-.01-.02-.03-.04-.06-.06-.1,0,0-.02,0-.03-.01-.02-.03-.04-.06-.06-.1,0,0-.02,0-.03-.01-.02-.03-.04-.06-.06-.1,0,0-.02,0-.03-.01-.02-.03-.04-.06-.06-.1,0,0-.02,0-.03-.01-.02-.03-.04-.06-.06-.1,0,0-.02,0-.03-.01-.02-.03-.04-.06-.06-.1,0,0-.02,0-.03-.01-.02-.03-.04-.06-.06-.1,0,0-.02,0-.03-.01-.02-.03-.04-.06-.06-.1,0,0-.02,0-.03-.01-.02-.03-.04-.06-.06-.1,0,0-.02,0-.03-.01-.02-.03-.04-.06-.06-.1,0,0-.02,0-.03-.01-.02-.03-.04-.06-.06-.1,0,0-.02,0-.03-.01-.02-.03-.04-.06-.06-.1,0,0-.02,0-.03-.01-.02-.03-.04-.06-.06-.1,0,0-.02,0-.03-.01-.02-.03-.04-.06-.06-.1,0,0-.02,0-.03-.01-.02-.03-.04-.06-.06-.1,0,0-.02,0-.03-.01-.02-.03-.04-.06-.06-.1,0,0-.02,0-.03-.01-.02-.03-.04-.06-.06-.1,0,0-.02,0-.03-.01-.02-.03-.04-.06-.06-.1,0,0-.02,0-.03-.01-.02-.03-.04-.06-.06-.1,0,0-.02,0-.03-.01-.02-.03-.04-.06-.06-.1,0,0-.02,0-.03-.01-.02-.03-.04-.06-.06-.1,0,0-.02,0-.03-.01-.02-.03-.04-.06-.06-.1,0,0-.02,0-.03-.01-.02-.03-.04-.06-.06-.1,0,0-.02,0-.03-.01-.02-.03-.04-.06-.06-.1,0,0-.02,0-.03-.01-.02-.03-.04-.06-.06-.1,0,0-.02,0-.03-.01-.02-.03-.04-.06-.06-.1,0,0-.02,0-.03-.01-.02-.03-.04-.06-.06-.1,0,0-.02,0-.03-.01-.02-.03-.04-.06-.06-.1,0,0-.02,0-.03-.01-.02-.03-.04-.06-.06-.1,0,0-.02,0-.03-.01-.02-.03-.04-.06-.06-.1,0,0-.02,0-.03-.01-.02-.03-.04-.06-.06-.1,0,0-.02,0-.03-.01-.02-.03-.04-.06-.06-.1,0,0-.02,0-.03-.01-.02-.03-.04-.06-.06-.1,0,0-.02,0-.03-.01-.02-.03-.04-.06-.06-.1-.81-.44-2.21-.13-2.84.49-1.62,1.58,1.69,6.87,3.71,9.34.03.04.06.07.09.11.03.04.06.07.09.11.03.04.06.07.09.11.03.04.06.07.09.11.03.04.06.07.09.11.03.04.06.07.09.11.03.04.06.07.09.11.03.04.06.07.09.11.03.04.06.07.09.11.03.04.06.07.09.11.03.04.06.07.09.11.03.04.06.07.09.11.03.04.06.07.09.11.03.04.06.07.09.11.03.04.06.07.09.11.03.04.06.07.09.11.03.04.06.07.09.11.03.04.06.07.09.11.03.04.06.07.09.11.03.04.06.07.09.11.03.04.06.07.09.11.03.04.06.07.09.11.03.04.06.07.09.11.03.04.06.07.09.11.03.04.06.07.09.11.03.04.06.07.09.11.03.04.06.07.09.11.03.04.06.07.09.11.03.04.06.07.09.11.03.04.06.07.09.11.03.04.06.07.09.11.03.04.06.07.09.11.03.04.06.07.09.11.03.04.06.07.09.11.03.04.06.07.09.11.03.04.06.07.09.11.03.04.06.07.09.11.03.04.06.07.09.11.03.04.06.07.09.11.03.04.06.07.09.11.03.04.06.07.09.11.03.04.06.07.09.11.03.04.06.07.09.11.03.04.06.07.09.11.03.04.06.07.09.11.03.04.06.07.09.11.03.04.06.07.09.11.03.04.06.07.09.11.03.04.06.07.09.11.03.04.06.07.09.11.03.04.06.07.09.11.03.04.06.07.09.11.03.04.06.07.09.11.03.04.06.07.09.11.03.04.06.07.09.11.03.04.06.07.09.11.03.04.06.07.09.11.03.04.06.07.09.11.03.04.06.07.09.11.03.04.06.07.09.11.03.04.06.07.09.11.03.04.06.07.09.11.03.04.06.07.09.11.03.04.06.07.09.11.03.04.06.07.09.11.03.04.06.07.09.11.03.04.06.07.09.11.03.04.06.07.09.11.03.04.06.07.09.11.03.04.06.07.09.11.03.04.06.07.09.11.03.04.06.07.09.11.03.04.06.07.09.11.03.04.06.07.09.11.03.04.06.07.09.11.03.04.06.07.09.11.03.04.06.07.09.11.03.04.06.07.09.11.03.04.06.07.09.11.03.04.06.07.09.11.03.04.06.07.09.11.03.04.06.07.09.11.03.04.06.07.09.11.03.04.06.07.09.11.03.04.06.07.09.11.03.04.06.07.09.11.03.04.06.07.09.11.03.04.06.07.09.11.39.48.73.87.99,1.11,2.16,2.03,4.44,3.14,6.82,3.59-.39.65-.82,1.27-1.29,1.85-1.64,2-6.76,4.48-7.2,5.37-1.38,2.8,2.24,6.3-1.49,11.07-2.36,3.02-4.62,2.24-6.9,3.88-1.41,1.01-2.83,3.97-4.16,5.41-4.54,4.91-8.78,6.88-12.55,5.73l-.02-12.77s.02.02.03.04c.03.04.06.07.09.11.03.04.06.07.09.11.03.04.06.07.09.11.03.04.06.07.09.11.03.04.06.07.09.11.03.04.06.07.09.11.03.04.06.07.09.11.03.04.06.07.09.11.03.04.06.07.09.11.03.04.06.07.09.11.03.04.06.07.09.11.03.04.06.07.09.11.03.04.06.07.09.11.03.04.06.07.09.11.03.04.06.07.09.11.03.04.06.07.09.11.03.04.06.07.09.11.03.04.06.07.09.11.03.04.06.07.09.11.03.04.06.07.09.11.03.04.06.07.09.11.03.04.06.07.09.11.03.04.06.07.09.11.03.04.06.07.09.11.03.04.06.07.09.11.03.04.06.07.09.11.03.04.06.07.09.11.03.04.06.07.09.11.03.04.06.07.09.11.03.04.06.07.09.11.03.04.06.07.09.11.03.04.06.07.09.11.03.04.06.07.09.11.03.04.06.07.09.11.03.04.06.07.09.11.03.04.06.07.09.11.03.04.06.07.09.11.03.04.06.07.09.11.03.04.06.07.09.11.03.04.06.07.09.11.03.04.06.07.09.11.03.04.06.07.09.11.03.04.06.07.09.11.03.04.06.07.09.11.03.04.06.07.09.11.03.04.06.07.09.11.03.04.06.07.09.11.03.04.06.07.09.11.03.04.06.07.09.11.03.04.06.07.09.11.14.21.33.41.58.57,3.36,2.21,4.84-4.63,6.26-6.84,1.16-1.8,3.56-4.42,5.55-5.23,1.99-.82,5.05.06,4.98-3.16-.01-.6-.18-1.03-.45-1.33-.03-.04-.06-.08-.09-.11-.03-.04-.06-.08-.09-.11-.03-.04-.06-.08-.09-.11-.03-.04-.06-.08-.09-.11-.03-.04-.06-.08-.09-.11-.03-.04-.06-.08-.09-.11-.03-.04-.06-.08-.09-.11-.03-.04-.06-.08-.09-.11-.03-.04-.06-.08-.09-.11-.03-.04-.06-.08-.09-.11-.03-.04-.06-.08-.09-.11-.03-.04-.06-.08-.09-.11-.03-.04-.06-.08-.09-.11-.03-.04-.06-.08-.09-.11-.03-.04-.06-.08-.09-.11-.03-.04-.06-.08-.09-.11-.03-.04-.06-.08-.09-.11-.03-.04-.06-.08-.09-.11-.03-.04-.06-.08-.09-.11-.03-.04-.06-.08-.09-.11-.03-.04-.06-.08-.09-.11-.03-.04-.06-.08-.09-.11-.03-.04-.06-.08-.09-.11-.03-.04-.06-.08-.09-.11-.03-.04-.06-.08-.09-.11-.03-.04-.06-.08-.09-.11-.03-.04-.06-.08-.09-.11-.03-.04-.06-.08-.09-.11-.03-.04-.06-.08-.09-.11-.03-.04-.06-.08-.09-.11-.03-.04-.06-.08-.09-.11-.03-.04-.06-.08-.09-.11-.03-.04-.06-.08-.09-.11-.03-.04-.06-.08-.09-.11-.03-.04-.06-.08-.09-.11-.03-.04-.06-.08-.09-.11-.03-.04-.06-.08-.09-.11-.03-.04-.06-.08-.09-.11-.03-.04-.06-.08-.09-.11-.03-.04-.06-.08-.09-.11-.03-.04-.06-.08-.09-.11-.03-.04-.06-.08-.09-.11-.03-.04-.06-.08-.09-.11-.03-.04-.06-.08-.09-.11-.03-.04-.06-.08-.09-.11-.03-.04-.06-.08-.09-.11-.03-.04-.06-.08-.09-.11-.03-.04-.06-.08-.09-.11-.03-.04-.06-.08-.09-.11-.03-.04-.06-.08-.09-.11-.03-.04-.06-.08-.09-.11-.03-.04-.06-.08-.09-.11-.03-.04-.06-.08-.09-.11-.03-.04-.06-.08-.09-.11-.03-.04-.06-.08-.09-.11-.03-.04-.06-.08-.09-.11-.03-.04-.06-.08-.09-.11-.03-.04-.06-.08-.09-.11-.03-.04-.06-.08-.09-.11-.03-.04-.06-.08-.09-.11-.03-.04-.06-.08-.09-.11-.03-.04-.06-.08-.09-.11-.03-.04-.06-.08-.09-.11-.03-.04-.06-.08-.09-.11-.03-.04-.06-.08-.09-.11-.03-.04-.06-.08-.09-.11-.03-.04-.06-.08-.09-.11-.03-.04-.06-.08-.09-.11-.03-.04-.06-.08-.09-.11-.03-.04-.06-.08-.09-.11-.03-.04-.06-.08-.09-.11-.03-.04-.06-.08-.09-.11-.03-.04-.06-.08-.09-.11-.03-.04-.06-.08-.09-.11-.03-.04-.06-.08-.09-.11-.03-.04-.06-.08-.09-.11-.03-.04-.06-.08-.09-.11-.03-.04-.06-.08-.09-.11-.03-.04-.06-.08-.09-.11-.03-.04-.06-.08-.09-.11-.03-.04-.06-.08-.09-.11-.03-.04-.06-.08-.09-.11-.03-.04-.06-.08-.09-.11-.03-.04-.06-.08-.09-.11-.03-.04-.06-.08-.09-.11-.03-.04-.06-.08-.09-.11-.03-.04-.06-.08-.09-.11-.03-.04-.06-.08-.09-.11-.33-.45-.87-.66-1.49-.72-.58-.94-1.24-1.89-1.94-2.72-.03-.04-.06-.07-.09-.11-.03-.04-.06-.07-.09-.11-.03-.04-.06-.07-.09-.11-.03-.04-.06-.07-.09-.11-.03-.04-.06-.07-.09-.11-.03-.04-.06-.07-.09-.11-.03-.04-.06-.07-.09-.11-.03-.04-.06-.07-.09-.11-.03-.04-.06-.07-.09-.11-.03-.04-.06-.07-.09-.11-.03-.04-.06-.07-.09-.11-.03-.04-.06-.07-.09-.11-.03-.04-.06-.07-.09-.11-.03-.04-.06-.07-.09-.11-.03-.04-.06-.07-.09-.11-.03-.04-.06-.07-.09-.11-.03-.04-.06-.07-.09-.11-.03-.04-.06-.07-.09-.11-.03-.04-.06-.07-.09-.11-.03-.04-.06-.07-.09-.11-.03-.04-.06-.07-.09-.11-.03-.04-.06-.07-.09-.11-.03-.04-.06-.07-.09-.11-.03-.04-.06-.07-.09-.11-.03-.04-.06-.07-.09-.11-.03-.04-.06-.07-.09-.11-.03-.04-.06-.07-.09-.11-.03-.04-.06-.07-.09-.11-.03-.04-.06-.07-.09-.11-.03-.04-.06-.07-.09-.11-.03-.04-.06-.07-.09-.11-.03-.04-.06-.07-.09-.11-.03-.04-.06-.07-.09-.11-.03-.04-.06-.07-.09-.11-.03-.04-.06-.07-.09-.11-.03-.04-.06-.07-.09-.11-.03-.04-.06-.07-.09-.11-.03-.04-.06-.07-.09-.11-.03-.04-.06-.07-.09-.11-.03-.04-.06-.07-.09-.11-.03-.04-.06-.07-.09-.11-.03-.04-.06-.07-.09-.11-.03-.04-.06-.07-.09-.11-.03-.04-.06-.07-.09-.11-.03-.04-.06-.07-.09-.11-.03-.04-.06-.07-.09-.11-.03-.04-.06-.07-.09-.11-.03-.04-.06-.07-.09-.11-.03-.04-.06-.07-.09-.11-.03-.04-.06-.07-.09-.11-.03-.04-.06-.07-.09-.11-.03-.04-.06-.07-.09-.11-.03-.04-.06-.07-.09-.11-.03-.04-.06-.07-.09-.11-.03-.04-.06-.07-.09-.11-.03-.04-.06-.07-.09-.11-.03-.04-.06-.07-.09-.11-.03-.04-.06-.07-.09-.11-.03-.04-.06-.07-.09-.11-.03-.04-.06-.07-.09-.11-.03-.04-.06-.07-.09-.11-.03-.04-.06-.07-.09-.11-.03-.04-.06-.07-.09-.11-.03-.04-.06-.07-.09-.11-.03-.04-.06-.07-.09-.11-.03-.04-.06-.07-.09-.11-.03-.04-.06-.07-.09-.11-.03-.04-.06-.07-.09-.11-.03-.04-.06-.07-.09-.11-.03-.04-.06-.07-.09-.11-.03-.04-.06-.07-.09-.11-.03-.04-.06-.07-.09-.11-.03-.04-.06-.07-.09-.11-.03-.04-.06-.07-.09-.11-.03-.04-.06-.07-.09-.11-.03-.04-.06-.07-.09-.11-.03-.04-.06-.07-.09-.11-.03-.04-.06-.07-.09-.11-.03-.04-.06-.07-.09-.11-.03-.04-.06-.07-.09-.11-.03-.04-.06-.07-.09-.11-.03-.04-.06-.07-.09-.11-.03-.04-.06-.07-.09-.11-.03-.04-.06-.07-.09-.11-.03-.04-.06-.07-.09-.11-.03-.04-.06-.07-.09-.11-.03-.04-.06-.07-.09-.11-.03-.04-.06-.07-.09-.11-.73-.89-1.5-1.66-2.27-2.16l-.04-24.13s0,0,0,0c.03.04.06.08.09.11.03.04.06.08.09.11.03.04.06.08.09.11.03.04.06.08.09.11.03.04.06.08.09.11.03.04.06.08.09.11.03.04.06.08.09.11.03.04.06.08.09.11.03.04.06.08.09.11.03.04.06.08.09.11.03.04.06.08.09.11.03.04.06.08.09.11.03.04.06.08.09.11.03.04.06.08.09.11.03.04.06.08.09.11.03.04.06.08.09.11.03.04.06.08.09.11.03.04.06.08.09.11.03.04.06.08.09.11.03.04.06.08.09.11.03.04.06.08.09.11.03.04.06.08.09.11.03.04.06.08.09.11.03.04.06.08.09.11.03.04.06.08.09.11.03.04.06.08.09.11.03.04.06.08.09.11.03.04.06.08.09.11.03.04.06.08.09.11.03.04.06.08.09.11.03.04.06.08.09.11.03.04.06.08.09.11.03.04.06.08.09.11.03.04.06.08.09.11.03.04.06.08.09.11.03.04.06.08.09.11.03.04.06.08.09.11.9,1.18,3.15.4,4.43-1.58l2.88-5.17c.58.93,1.21,1.83,1.88,2.66.03.04.06.07.09.11.03.04.06.07.09.11.03.04.06.07.09.11.03.04.06.07.09.11.03.04.06.07.09.11.03.04.06.07.09.11.03.04.06.07.09.11.03.04.06.07.09.11.03.04.06.07.09.11.03.04.06.07.09.11.03.04.06.07.09.11.03.04.06.07.09.11.03.04.06.07.09.11.03.04.06.07.09.11.03.04.06.07.09.11.03.04.06.07.09.11.03.04.06.07.09.11.03.04.06.07.09.11.03.04.06.07.09.11.03.04.06.07.09.11.03.04.06.07.09.11.03.04.06.07.09.11.03.04.06.07.09.11.03.04.06.07.09.11.03.04.06.07.09.11.03.04.06.07.09.11.03.04.06.07.09.11.03.04.06.07.09.11.03.04.06.07.09.11.03.04.06.07.09.11.03.04.06.07.09.11.03.04.06.07.09.11.03.04.06.07.09.11.03.04.06.07.09.11.03.04.06.07.09.11.03.04.06.07.09.11.03.04.06.07.09.11.03.04.06.07.09.11.03.04.06.07.09.11.03.04.06.07.09.11.03.04.06.07.09.11.03.04.06.07.09.11.03.04.06.07.09.11.03.04.06.07.09.11.03.04.06.07.09.11.03.04.06.07.09.11.03.04.06.07.09.11.03.04.06.07.09.11.03.04.06.07.09.11.03.04.06.07.09.11.03.04.06.07.09.11.03.04.06.07.09.11.03.04.06.07.09.11.03.04.06.07.09.11.03.04.06.07.09.11.03.04.06.07.09.11.03.04.06.07.09.11.03.04.06.07.09.11.03.04.06.07.09.11.03.04.06.07.09.11.03.04.06.07.09.11.03.04.06.07.09.11.03.04.06.07.09.11.03.04.06.07.09.11.03.04.06.07.09.11.03.04.06.07.09.11.03.04.06.07.09.11.03.04.06.07.09.11.03.04.06.07.09.11.03.04.06.07.09.11.03.04.06.07.09.11.03.04.06.07.09.11.03.04.06.07.09.11.03.04.06.07.09.11.03.04.06.07.09.11.03.04.06.07.09.11.03.04.06.07.09.11.03.04.06.07.09.11.03.04.06.07.09.11.03.04.06.07.09.11.03.04.06.07.09.11.03.04.06.07.09.11.03.04.06.07.09.11.03.04.06.07.09.11.03.04.06.07.09.11.03.04.06.07.09.11.03.04.06.07.09.11.03.04.06.07.09.11,2.7,3.38,6.25,5.83,11.58,6.3,3.52.31,15.76.51,11.3-5.35,0,0,0,0-.01,0-.03-.04-.05-.07-.08-.11,0,0,0,0-.01,0-.03-.04-.05-.07-.08-.11,0,0,0,0-.01,0-.03-.04-.05-.07-.08-.11,0,0,0,0-.01,0-.03-.04-.05-.07-.08-.11,0,0,0,0-.01,0-.03-.04-.05-.07-.08-.11,0,0,0,0-.01,0-.03-.04-.05-.07-.08-.11,0,0,0,0-.01,0-.03-.04-.05-.07-.08-.11,0,0,0,0-.01,0-.03-.04-.05-.07-.08-.11,0,0,0,0-.01,0-.03-.04-.05-.07-.08-.11,0,0,0,0-.01,0-.03-.04-.05-.07-.08-.11,0,0,0,0-.01,0-.03-.04-.05-.07-.08-.11,0,0,0,0-.01,0-.03-.04-.05-.07-.08-.11,0,0,0,0-.01,0-.03-.04-.05-.07-.08-.11,0,0,0,0-.01,0-.03-.04-.05-.07-.08-.11,0,0,0,0-.01,0-.03-.04-.05-.07-.08-.11,0,0,0,0-.01,0-.03-.04-.05-.07-.08-.11,0,0,0,0-.01,0-.03-.04-.05-.07-.08-.11,0,0,0,0-.01,0-.03-.04-.05-.07-.08-.11,0,0,0,0-.01,0-.03-.04-.05-.07-.08-.11,0,0,0,0-.01,0-.03-.04-.05-.07-.08-.11,0,0,0,0-.01,0-.03-.04-.05-.07-.08-.11,0,0,0,0-.01,0-.03-.04-.05-.07-.08-.11,0,0,0,0-.01,0-.03-.04-.05-.07-.08-.11,0,0,0,0-.01,0-.03-.04-.05-.07-.08-.11,0,0,0,0-.01,0-.03-.04-.05-.07-.08-.11,0,0,0,0-.01,0-.03-.04-.05-.07-.08-.11,0,0,0,0-.01,0-.03-.04-.05-.07-.08-.11,0,0,0,0-.01,0-.03-.04-.05-.07-.08-.11,0,0,0,0-.01,0-.03-.04-.05-.07-.08-.11,0,0,0,0-.01,0-.03-.04-.05-.07-.08-.11,0,0,0,0-.01,0-.03-.04-.05-.07-.08-.11,0,0,0,0-.01,0-.03-.04-.05-.07-.08-.11,0,0,0,0-.01,0-.03-.04-.05-.07-.08-.11,0,0,0,0-.01,0-.03-.04-.05-.07-.08-.11,0,0,0,0-.01,0-.03-.04-.05-.07-.08-.11,0,0,0,0-.01,0-.03-.04-.05-.07-.08-.11,0,0,0,0-.01,0-.03-.04-.05-.07-.08-.11,0,0,0,0-.01,0-.03-.04-.05-.07-.08-.11,0,0,0,0-.01,0-.03-.04-.05-.07-.08-.11,0,0,0,0-.01,0-.03-.04-.05-.07-.08-.11,0,0,0,0-.01,0-.03-.04-.05-.07-.08-.11,0,0,0,0-.01,0-.03-.04-.05-.07-.08-.11,0,0,0,0-.01,0-.03-.04-.05-.07-.08-.11,0,0,0,0-.01,0-.03-.04-.05-.07-.08-.11,0,0,0,0-.01,0-.03-.04-.05-.07-.08-.11,0,0,0,0-.01,0-.03-.04-.05-.07-.08-.11,0,0,0,0-.01,0-.03-.04-.05-.07-.08-.11,0,0,0,0-.01,0-.03-.04-.05-.07-.08-.11,0,0,0,0-.01,0-.03-.04-.05-.07-.08-.11,0,0,0,0-.01,0-.03-.04-.05-.07-.08-.11,0,0,0,0-.01,0-.03-.04-.05-.07-.08-.11,0,0,0,0-.01,0-.03-.04-.05-.07-.08-.11,0,0,0,0-.01,0-.03-.04-.05-.07-.08-.11,0,0,0,0-.01,0-.03-.04-.05-.07-.08-.11,0,0,0,0-.01,0-.03-.04-.05-.07-.08-.11,0,0,0,0-.01,0-.03-.04-.05-.07-.08-.11,0,0,0,0-.01,0-.03-.04-.05-.07-.08-.11,0,0,0,0-.01,0-.03-.04-.05-.07-.08-.11,0,0,0,0-.01,0-.03-.04-.05-.07-.08-.11,0,0,0,0-.01,0-.03-.04-.05-.07-.08-.11,0,0,0,0-.01,0-.03-.04-.05-.07-.08-.11,0,0,0,0-.01,0-.03-.04-.05-.07-.08-.11,0,0,0,0-.01,0-.03-.04-.05-.07-.08-.11,0,0,0,0-.01,0-.03-.04-.05-.07-.08-.11,0,0,0,0-.01,0-.03-.04-.05-.07-.08-.11,0,0,0,0-.01,0-.03-.04-.05-.07-.08-.11,0,0,0,0-.01,0-.03-.04-.05-.07-.08-.11,0,0,0,0-.01,0-.03-.04-.05-.07-.08-.11,0,0,0,0-.01,0-.03-.04-.05-.07-.08-.11,0,0,0,0-.01,0-.03-.04-.05-.07-.08-.11,0,0,0,0-.01,0-.03-.04-.05-.07-.08-.11,0,0,0,0-.01,0-.03-.04-.05-.07-.08-.11,0,0,0,0-.01,0-.03-.04-.05-.07-.08-.11,0,0,0,0-.01,0-.03-.04-.05-.07-.08-.11,0,0,0,0-.01,0-.03-.04-.05-.07-.08-.11,0,0,0,0-.01,0-.03-.04-.05-.07-.08-.11,0,0,0,0-.01,0-.03-.04-.05-.07-.08-.11,0,0,0,0-.01,0-.03-.04-.05-.07-.08-.11,0,0,0,0-.01,0-.03-.04-.05-.07-.08-.11,0,0,0,0-.01,0-.03-.04-.05-.07-.08-.11,0,0,0,0-.01,0-.03-.04-.05-.07-.08-.11,0,0,0,0-.01,0-.03-.04-.05-.07-.08-.11,0,0,0,0-.01,0-.03-.04-.05-.07-.08-.11,0,0,0,0-.01,0-.03-.04-.05-.07-.08-.11,0,0,0,0-.01,0-.03-.04-.05-.07-.08-.11,0,0,0,0-.01,0-.03-.04-.05-.07-.08-.11,0,0,0,0-.01,0-.03-.04-.05-.07-.08-.11,0,0,0,0-.01,0-.03-.04-.05-.07-.08-.11,0,0,0,0-.01,0-.03-.04-.05-.07-.08-.11-6.46,1.41-11.28,1.67-15.27-.49-1.15-2.78-1.99-6.04-3.64-8.27-.06-.08-.13-.17-.2-.25-.03-.04-.06-.07-.09-.11-.03-.04-.06-.07-.09-.11-.03-.04-.06-.07-.09-.11-.03-.04-.06-.07-.09-.11-.03-.04-.06-.07-.09-.11-.03-.04-.06-.07-.09-.11-.03-.04-.06-.07-.09-.11-.03-.04-.06-.07-.09-.11-.03-.04-.06-.07-.09-.11-.03-.04-.06-.07-.09-.11-.03-.04-.06-.07-.09-.11-.03-.04-.06-.07-.09-.11-.03-.04-.06-.07-.09-.11-.03-.04-.06-.07-.09-.11-.03-.04-.06-.07-.09-.11-.03-.04-.06-.07-.09-.11-.03-.04-.06-.07-.09-.11-.03-.04-.06-.07-.09-.11-.03-.04-.06-.07-.09-.11-.03-.04-.06-.07-.09-.11-.03-.04-.06-.07-.09-.11-.03-.04-.06-.07-.09-.11-.03-.04-.06-.07-.09-.11-.03-.04-.06-.07-.09-.11-.03-.04-.06-.07-.09-.11-.03-.04-.06-.07-.09-.11-.03-.04-.06-.07-.09-.11-.03-.04-.06-.07-.09-.11-.03-.04-.06-.07-.09-.11-.03-.04-.06-.07-.09-.11-.03-.04-.06-.07-.09-.11-.03-.04-.06-.07-.09-.11-.02-.02-.04-.05-.06-.07.34-1.84,1.3-5.18,1.6-8.1.03.04.06.07.09.11.03.04.06.07.09.11.03.04.06.07.09.11.03.04.06.07.09.11.03.04.06.07.09.11.03.04.06.07.09.11.03.04.06.07.09.11.03.04.06.07.09.11.03.04.06.07.09.11.03.04.06.07.09.11.03.04.06.07.09.11.03.04.06.07.09.11.03.04.06.07.09.11.03.04.06.07.09.11.03.04.06.07.09.11.03.04.06.07.09.11.03.04.06.07.09.11.03.04.06.07.09.11.03.04.06.07.09.11.03.04.06.07.09.11.03.04.06.07.09.11.03.04.06.07.09.11.03.04.06.07.09.11.03.04.06.07.09.11.03.04.06.07.09.11.03.04.06.07.09.11.03.04.06.07.09.11.03.04.06.07.09.11.03.04.06.07.09.11.03.04.06.07.09.11.03.04.06.07.09.11.03.04.06.07.09.11.03.04.06.07.09.11.03.04.06.07.09.11.03.04.06.07.09.11.03.04.06.07.09.11.03.04.06.07.09.11.03.04.06.07.09.11.03.04.06.07.09.11.03.04.06.07.09.11.03.04.06.07.09.11.03.04.06.07.09.11.03.04.06.07.09.11.03.04.06.07.09.11.03.04.06.07.09.11.03.04.06.07.09.11.03.04.06.07.09.11.03.04.06.07.09.11.03.04.06.07.09.11.03.04.06.07.09.11.03.04.06.07.09.11.03.04.06.07.09.11.03.04.06.07.09.11.03.04.06.07.09.11.03.04.06.07.09.11.03.04.06.07.09.11.03.04.06.07.09.11.03.04.06.07.09.11.03.04.06.07.09.11.03.04.06.07.09.11.13.17.28.33.45.47,3.86,1.55,3.45-3.69,4.48-6.19,1.34-3.26,6.82-8.54,10.39-8.66,1.68-.06,3.23.34,4.66,1.07,1.14,2.73,1.84,5.55,2.05,7.9Z"/>
  <g id="pN2O2w">
    <g>
      <path class="cls-2" d="M87.58,25.48l8.08,3.37,8.08-3.37h4.79c2.02.88,3.91,1.07,6.01,2.07s4.85,3.96,6.41,4.37c4.27,1.13,6.08-.22,9.97,3.8,1.1,1.14,2.73,4.57,3.38,5,1.05.7,4.89,1.45,6.96,2.61,8.22,4.6,10.53,13.85,11.56,22.55.83,6.98,1.04,7.9,2.83,14.53,2.22,8.21,1.24,15.62-4.31,22.28-.9,1.08-4.89,4.21-5.02,4.59-.47,1.37.6,3.11.55,4.65-.16,4.93-2.24,11.16-5.43,14.98-1.22,1.47-5.68,4.34-5.87,4.9-.96,2.81.84,6.18-1.39,9.99-2.55,4.36-6.17,3.96-8.86,6.11-1.91,1.52-3.87,5.32-6.33,7.43-2.65,2.28-5.42,3.59-8.66,4.81h-4.19c-4.62-1.31-7.43-4.28-10.48-7.76-3.04,3.48-5.86,6.45-10.48,7.76h-4.19c-2.94-1.16-5.86-2.51-8.33-4.54-2.72-2.23-4.61-6.07-6.66-7.7-2.69-2.14-6.31-1.75-8.86-6.11-2.23-3.81-.43-7.18-1.39-9.99-.19-.56-4.65-3.44-5.87-4.9-3.18-3.82-5.26-10.04-5.43-14.98-.05-1.54,1.01-3.28.55-4.65-.13-.38-4.12-3.51-5.02-4.59-5.55-6.66-6.53-14.07-4.31-22.28,1.79-6.65,2.02-7.5,2.83-14.53,1-8.68,3.36-17.97,11.56-22.55,2.08-1.16,5.92-1.91,6.96-2.61,1.47-.99,2.78-5.45,6.4-7.37,4.04-2.13,9.43-1.24,13.35-5.81l6.01-2.07h4.79ZM82.04,30.41c-4.37.74-7.13,5.11-9.24,5.72-2.42.7-3.98-.33-7.08,1.3-3.88,2.04-3.67,5.72-5.95,7.22-3.92,2.6-7.67.79-11.96,6.6-5.92,8.01-3.28,14.13-4.57,22.37-.33,2.12-2.55,5.39-3.25,8.12-2.81,10.99,1.68,17.12,9.77,23.77-1.17,6.92-.54,15.12,5.2,19.9,1.41,1.17,5.16,2.7,5.57,4.03.83,2.72-1.79,5.69.45,9.7,2.07,3.71,5.76,3.15,8.07,5.1,1.3,1.09,2.55,3.74,3.84,5.14,8.49,9.17,16.32,7.87,20.67-3.88l.02-110.78c-.58-4.31-8.2-4.89-11.56-4.32ZM120.06,98.06c.63-.61,2.02-.93,2.83-.49,4.04,6.85,7.57,13.1,16.49,8.73,11.58-5.68,14.97-15.2,11.07-27.27-2.39-7.41-1.76-7.38-2.42-14.94-.63-7.28-6.01-19.08-14.68-18.79-3.57.12-9.05,5.4-10.39,8.66-1.03,2.5-.62,7.75-4.48,6.19-2.56-1.96.19-7.99,1.54-10.32,2.42-4.18,5.64-5.82,9.42-8.49-1.46-2.98-5.22-5.44-8.65-5.15-4.01.34-4.67,7.98-8.89,6.57s3.95-7.59,2.95-9.51c-2.05-3.94-16.2-4.49-17.13,1.46l.17,111.83c5.27,11,12.4,11.61,20.52,2.84,1.33-1.44,2.76-4.4,4.16-5.41,2.28-1.63,4.53-.86,6.9-3.88,3.74-4.77.12-8.28,1.49-11.07.44-.89,5.56-3.37,7.2-5.37,2.89-3.53,4.31-8.66,3.87-13.18-6.28,2.46-12.17,2.81-17.38-2.07-1.62-1.51-6.52-8.48-4.62-10.34Z"/>
      <path class="cls-2" d="M110.99,62.5c.1.18,2.24,1.25,3.19,2.53,2,2.7,2.8,6.91,4.42,9.95,5.41,10.15,11.63,10.99,22.47,8.63,4.46,5.86-7.78,5.66-11.3,5.35-12.14-1.06-15.03-12.42-19.74-21.57l-4.49,8.07c-1.82,2.83-5.63,3.24-4.67-1.06.31-1.4,2.95-5.05,3.77-7.02.92-2.21,1.97-5.4,2.44-7.74.49-2.44.57-9.59,1.17-10.8.42-.85,1.42-1.31,2.36-1.22,4.94.69-.26,13.76.39,14.9Z"/>
      <path class="cls-2" d="M113.33,121.84c.62.6,6.33-2.06,6.42,1.58.08,3.22-2.98,2.34-4.98,3.16s-4.39,3.44-5.55,5.23c-1.42,2.2-2.9,9.05-6.26,6.84-3.89-2.56,5.99-12.25,6.06-15.3.09-3.81-1.84-7.38-3.83-10.44-1.34-2.05-5.5-4.21-1.62-6.55,3.14-.87,7.43,6.7,8.41,9.33.72,1.94,1.23,4.07,1.34,6.14Z"/>
      <path class="cls-2" d="M64.84,88.33c-1.42,8.27-13.58,9.69-17,2.33-5.19-11.19,9.03-18.9,15.7-9.72,2.04,2.81.84,4.65,6.42,2.63l.18-18.22c-6.29-2.73-9.69-9.38-5.02-15.36,5.74-7.34,17.4-2.19,16.44,6.83-.5,4.69-3.67,6.2-7.05,8.54-.34,1.03-.37,15.75-.1,17.27.13.68.21,1.21.98,1.41l5.52.17c1.62,2.13-.03,13.32.75,14.22.13.15,2.23.47,3.54,1.54,5.64,4.61,3.52,14.62-3.65,16.24v7.65c11.16,3.03,7.8,20.02-3.71,18.18-9.84-1.57-10.51-15.7-1.01-18.18l-.14-7.92c-8.75-2.06-9.03-15.65.1-17.45v-10.18h-11.97ZM70.64,51.34c-4.87,1.46-3.1,10.1,2.13,9.35,6.57-.95,4.75-11.41-2.13-9.35ZM53.88,81.87c-3.7,1.1-3.64,7.81.61,8.73,8.42,1.82,7.88-11.27-.61-8.73ZM77.83,102.83c-4.19.95-4.34,7.35-.46,8.58,8.38,2.65,8.89-10.49.46-8.58ZM77.23,128.56c-3.42,1.01-3.76,7.79.61,8.73,8.41,1.82,7.9-11.25-.61-8.73Z"/>
    </g>
  </g>
</svg>