<?xml version="1.0" encoding="UTF-8"?>
<svg id="Layer_1" data-name="Layer 1" xmlns="http://www.w3.org/2000/svg" viewBox="0 0 200 200">
  <defs>
    <style>
      .cls-1 {
        fill: #b3b3b3;
      }

      .cls-2 {
        fill: #fff;
      }
    </style>
  </defs>
  <g id="pq9pG9">
    <g>
      <path class="cls-1" d="M136.05,60.47l-.1-.33c-6.9-3.9-14.61-6.5-22.51-7.42-17.98-2.1-43.92,4.41-55.94,18.69-8.89,10.57-10.88,24.63-8.43,37.98,8.38-11.06,20.76-18.78,33.65-23.61,1.82-.68,6.7-2.58,8.4-2.61,3.66-.08,4.8,5.14,1.42,6.61-1.75.76-4.24,1.27-6.14,1.96-20.9,7.56-41.73,22.92-37.61,47.98.27,1.62,1.19,4.08.77,5.56-.55,1.93-2.61,2.92-4.49,2.21-1.99-.76-2.17-2.52-2.59-4.37-1.87-8.18-1.36-17.08,1.74-24.89-7.08-24.85-1.16-49.79,22.34-62.69,22.55-12.37,54.04-14.48,75.83.63,2.53,1.75,4.84,3.47,2.49,6.75-7.95,4-13.91,11.72-16.93,19.99-2.33,6.38-3.4,13.18-5.87,19.56-7.32,18.93-22.98,26.61-42.34,28.93-6.19.74-14.37,1.15-20.55.5-4.94-.52-4.29-6.82-.14-6.95,1.08-.03,2.59.29,3.69.32,16.19.36,36.89-1.76,47.54-15.48,8.3-10.69,7.83-24.36,14.23-35.82,2.86-5.11,6.77-10.1,11.53-13.5Z"/>
      <path class="cls-1" d="M136.19,60.58l-.1-.33c-6.9-3.9-14.61-6.5-22.51-7.42-17.98-2.1-43.92,4.41-55.94,18.69-8.89,10.57-10.88,24.63-8.43,37.98,8.38-11.06,20.76-18.78,33.65-23.61,1.82-.68,6.7-2.58,8.4-2.61,3.66-.08,4.8,5.14,1.42,6.61-1.75.76-4.24,1.27-6.14,1.96-20.9,7.56-41.73,22.92-37.61,47.98.27,1.62,1.19,4.08.77,5.56-.55,1.93-2.61,2.92-4.49,2.21-1.99-.76-2.17-2.52-2.59-4.37-1.87-8.18-1.36-17.08,1.74-24.89-7.08-24.85-1.16-49.79,22.34-62.69,22.55-12.37,54.04-14.48,75.83.63,2.53,1.75,4.84,3.47,2.49,6.75-7.95,4-13.91,11.72-16.93,19.99-2.33,6.38-3.4,13.18-5.87,19.56-7.32,18.93-22.98,26.61-42.34,28.93-6.19.74-14.37,1.15-20.55.5-4.94-.52-4.29-6.82-.14-6.95,1.08-.03,2.59.29,3.69.32,16.19.36,36.89-1.76,47.54-15.48,8.3-10.69,7.83-24.36,14.23-35.82,2.86-5.11,6.77-10.1,11.53-13.5Z"/>
      <path class="cls-1" d="M136.34,60.69l-.1-.33c-6.9-3.9-14.61-6.5-22.51-7.42-17.98-2.1-43.92,4.41-55.94,18.69-8.89,10.57-10.88,24.63-8.43,37.98,8.38-11.06,20.76-18.78,33.65-23.61,1.82-.68,6.7-2.58,8.4-2.61,3.66-.08,4.8,5.14,1.42,6.61-1.75.76-4.24,1.27-6.14,1.96-20.9,7.56-41.73,22.92-37.61,47.98.27,1.62,1.19,4.08.77,5.56-.55,1.93-2.61,2.92-4.49,2.21-1.99-.76-2.17-2.52-2.59-4.37-1.87-8.18-1.36-17.08,1.74-24.89-7.08-24.85-1.16-49.79,22.34-62.69,22.55-12.37,54.04-14.48,75.83.63,2.53,1.75,4.84,3.47,2.49,6.75-7.95,4-13.91,11.72-16.93,19.99-2.33,6.38-3.4,13.18-5.87,19.56-7.32,18.93-22.98,26.61-42.34,28.93-6.19.74-14.37,1.15-20.55.5-4.94-.52-4.29-6.82-.14-6.95,1.08-.03,2.59.29,3.69.32,16.19.36,36.89-1.76,47.54-15.48,8.3-10.69,7.83-24.36,14.23-35.82,2.86-5.11,6.77-10.1,11.53-13.5Z"/>
      <path class="cls-1" d="M136.48,60.8l-.1-.33c-6.9-3.9-14.61-6.5-22.51-7.42-17.98-2.1-43.92,4.41-55.94,18.69-8.89,10.57-10.88,24.63-8.43,37.98,8.38-11.06,20.76-18.78,33.65-23.61,1.82-.68,6.7-2.58,8.4-2.61,3.66-.08,4.8,5.14,1.42,6.61-1.75.76-4.24,1.27-6.14,1.96-20.9,7.56-41.73,22.92-37.61,47.98.27,1.62,1.19,4.08.77,5.56-.55,1.93-2.61,2.92-4.49,2.21-1.99-.76-2.17-2.52-2.59-4.37-1.87-8.18-1.36-17.08,1.74-24.89-7.08-24.85-1.16-49.79,22.34-62.69,22.55-12.37,54.04-14.48,75.83.63,2.53,1.75,4.84,3.47,2.49,6.75-7.95,4-13.91,11.72-16.93,19.99-2.33,6.38-3.4,13.18-5.87,19.56-7.32,18.93-22.98,26.61-42.34,28.93-6.19.74-14.37,1.15-20.55.5-4.94-.52-4.29-6.82-.14-6.95,1.08-.03,2.59.29,3.69.32,16.19.36,36.89-1.76,47.54-15.48,8.3-10.69,7.83-24.36,14.23-35.82,2.86-5.11,6.77-10.1,11.53-13.5Z"/>
      <path class="cls-1" d="M136.62,60.92l-.1-.33c-6.9-3.9-14.61-6.5-22.51-7.42-17.98-2.1-43.92,4.41-55.94,18.69-8.89,10.57-10.88,24.63-8.43,37.98,8.38-11.06,20.76-18.78,33.65-23.61,1.82-.68,6.7-2.58,8.4-2.61,3.66-.08,4.8,5.14,1.42,6.61-1.75.76-4.24,1.27-6.14,1.96-20.9,7.56-41.73,22.92-37.61,47.98.27,1.62,1.19,4.08.77,5.56-.55,1.93-2.61,2.92-4.49,2.21-1.99-.76-2.17-2.52-2.59-4.37-1.87-8.18-1.36-17.08,1.74-24.89-7.08-24.85-1.16-49.79,22.34-62.69s54.04-14.48,75.83.63c2.53,1.75,4.84,3.47,2.49,6.75-7.95,4-13.91,11.72-16.93,19.99-2.33,6.38-3.4,13.18-5.87,19.56-7.32,18.93-22.98,26.61-42.34,28.93-6.19.74-14.37,1.15-20.55.5-4.94-.52-4.29-6.82-.14-6.95,1.08-.03,2.59.29,3.69.32,16.19.36,36.89-1.76,47.54-15.48,8.3-10.69,7.83-24.36,14.23-35.82,2.86-5.11,6.77-10.1,11.53-13.5Z"/>
      <path class="cls-1" d="M136.77,61.03l-.1-.33c-6.9-3.9-14.61-6.5-22.51-7.42-17.98-2.1-43.92,4.41-55.94,18.69-8.89,10.57-10.88,24.63-8.43,37.98,8.38-11.06,20.76-18.78,33.65-23.61,1.82-.68,6.7-2.58,8.4-2.61,3.66-.08,4.8,5.14,1.42,6.61-1.75.76-4.24,1.27-6.14,1.96-20.9,7.56-41.73,22.92-37.61,47.98.27,1.62,1.19,4.08.77,5.56-.55,1.93-2.61,2.92-4.49,2.21-1.99-.76-2.17-2.52-2.59-4.37-1.87-8.18-1.36-17.08,1.74-24.89-7.08-24.85-1.16-49.79,22.34-62.69,22.55-12.37,54.04-14.48,75.83.63,2.53,1.75,4.84,3.47,2.49,6.75-7.95,4-13.91,11.72-16.93,19.99-2.33,6.38-3.4,13.18-5.87,19.56-7.32,18.93-22.98,26.61-42.34,28.93-6.19.74-14.37,1.15-20.55.5-4.94-.52-4.29-6.82-.14-6.95,1.08-.03,2.59.29,3.69.32,16.19.36,36.89-1.76,47.54-15.48,8.3-10.69,7.83-24.36,14.23-35.82,2.86-5.11,6.77-10.1,11.53-13.5Z"/>
      <path class="cls-1" d="M136.91,61.14l-.1-.33c-6.9-3.9-14.61-6.5-22.51-7.42-17.98-2.1-43.92,4.41-55.94,18.69-8.89,10.57-10.88,24.63-8.43,37.98,8.38-11.06,20.76-18.78,33.65-23.61,1.82-.68,6.7-2.58,8.4-2.61,3.66-.08,4.8,5.14,1.42,6.61-1.75.76-4.24,1.27-6.14,1.96-20.9,7.56-41.73,22.92-37.61,47.98.27,1.62,1.19,4.08.77,5.56-.55,1.93-2.61,2.92-4.49,2.21-1.99-.76-2.17-2.52-2.59-4.37-1.87-8.18-1.36-17.08,1.74-24.89-7.08-24.85-1.16-49.79,22.34-62.69,22.55-12.37,54.04-14.48,75.83.63,2.53,1.75,4.84,3.47,2.49,6.75-7.95,4-13.91,11.72-16.93,19.99-2.33,6.38-3.4,13.18-5.87,19.56-7.32,18.93-22.98,26.61-42.34,28.93-6.19.74-14.37,1.15-20.55.5-4.94-.52-4.29-6.82-.14-6.95,1.08-.03,2.59.29,3.69.32,16.19.36,36.89-1.76,47.54-15.48,8.3-10.69,7.83-24.36,14.23-35.82,2.86-5.11,6.77-10.1,11.53-13.5Z"/>
      <path class="cls-1" d="M137.05,61.25l-.1-.33c-6.9-3.9-14.61-6.5-22.51-7.42-17.98-2.1-43.92,4.41-55.94,18.69-8.89,10.57-10.88,24.63-8.43,37.98,8.38-11.06,20.76-18.78,33.65-23.61,1.82-.68,6.7-2.58,8.4-2.61,3.66-.08,4.8,5.14,1.42,6.61-1.75.76-4.24,1.27-6.14,1.96-20.9,7.56-41.73,22.92-37.61,47.98.27,1.62,1.19,4.08.77,5.56-.55,1.93-2.61,2.92-4.49,2.21-1.99-.76-2.17-2.52-2.59-4.37-1.87-8.18-1.36-17.08,1.74-24.89-7.08-24.85-1.16-49.79,22.34-62.69,22.55-12.37,54.04-14.48,75.83.63,2.53,1.75,4.84,3.47,2.49,6.75-7.95,4-13.91,11.72-16.93,19.99-2.33,6.38-3.4,13.18-5.87,19.56-7.32,18.93-22.98,26.61-42.34,28.93-6.19.74-14.37,1.15-20.55.5-4.94-.52-4.29-6.82-.14-6.95,1.08-.03,2.59.29,3.69.32,16.19.36,36.89-1.76,47.54-15.48,8.3-10.69,7.83-24.36,14.23-35.82,2.86-5.11,6.77-10.1,11.53-13.5Z"/>
      <path class="cls-1" d="M137.2,61.37l-.1-.33c-6.9-3.9-14.61-6.5-22.51-7.42-17.98-2.1-43.92,4.41-55.94,18.69-8.89,10.57-10.88,24.63-8.43,37.98,8.38-11.06,20.76-18.78,33.65-23.61,1.82-.68,6.7-2.58,8.4-2.61,3.66-.08,4.8,5.14,1.42,6.61-1.75.76-4.24,1.27-6.14,1.96-20.9,7.56-41.73,22.92-37.61,47.98.27,1.62,1.19,4.08.77,5.56-.55,1.93-2.61,2.92-4.49,2.21-1.99-.76-2.17-2.52-2.59-4.37-1.87-8.18-1.36-17.08,1.74-24.89-7.08-24.85-1.16-49.79,22.34-62.69,22.55-12.37,54.04-14.48,75.83.63,2.53,1.75,4.84,3.47,2.49,6.75-7.95,4-13.91,11.72-16.93,19.99-2.33,6.38-3.4,13.18-5.87,19.56-7.32,18.93-22.98,26.61-42.34,28.93-6.19.74-14.37,1.15-20.55.5-4.94-.52-4.29-6.82-.14-6.95,1.08-.03,2.59.29,3.69.32,16.19.36,36.89-1.76,47.54-15.48,8.3-10.69,7.83-24.36,14.23-35.82,2.86-5.11,6.77-10.1,11.53-13.5Z"/>
      <path class="cls-1" d="M137.34,61.48l-.1-.33c-6.9-3.9-14.61-6.5-22.51-7.42-17.98-2.1-43.92,4.41-55.94,18.69-8.89,10.57-10.88,24.63-8.43,37.98,8.38-11.06,20.76-18.78,33.65-23.61,1.82-.68,6.7-2.58,8.4-2.61,3.66-.08,4.8,5.14,1.42,6.61-1.75.76-4.24,1.27-6.14,1.96-20.9,7.56-41.73,22.92-37.61,47.98.27,1.62,1.19,4.08.77,5.56-.55,1.93-2.61,2.92-4.49,2.21-1.99-.76-2.17-2.52-2.59-4.37-1.87-8.18-1.36-17.08,1.74-24.89-7.08-24.85-1.16-49.79,22.34-62.69,22.55-12.37,54.04-14.48,75.83.63,2.53,1.75,4.84,3.47,2.49,6.75-7.95,4-13.91,11.72-16.93,19.99-2.33,6.38-3.4,13.18-5.87,19.56-7.32,18.93-22.98,26.61-42.34,28.93-6.19.74-14.37,1.15-20.55.5-4.94-.52-4.29-6.82-.14-6.95,1.08-.03,2.59.29,3.69.32,16.19.36,36.89-1.76,47.54-15.48,8.3-10.69,7.83-24.36,14.23-35.82,2.86-5.11,6.77-10.1,11.53-13.5Z"/>
      <path class="cls-1" d="M137.48,61.59l-.1-.33c-6.9-3.9-14.61-6.5-22.51-7.42-17.98-2.1-43.92,4.41-55.94,18.69-8.89,10.57-10.88,24.63-8.43,37.98,8.38-11.06,20.76-18.78,33.65-23.61,1.82-.68,6.7-2.58,8.4-2.61,3.66-.08,4.8,5.14,1.42,6.61-1.75.76-4.24,1.27-6.14,1.96-20.9,7.56-41.73,22.92-37.61,47.98.27,1.62,1.19,4.08.77,5.56-.55,1.93-2.61,2.92-4.49,2.21-1.99-.76-2.17-2.52-2.59-4.37-1.87-8.18-1.36-17.08,1.74-24.89-7.08-24.85-1.16-49.79,22.34-62.69,22.55-12.37,54.04-14.48,75.83.63,2.53,1.75,4.84,3.47,2.49,6.75-7.95,4-13.91,11.72-16.93,19.99-2.33,6.38-3.4,13.18-5.87,19.56-7.32,18.93-22.98,26.61-42.34,28.93-6.19.74-14.37,1.15-20.55.5-4.94-.52-4.29-6.82-.14-6.95,1.08-.03,2.59.29,3.69.32,16.19.36,36.89-1.76,47.54-15.48,8.3-10.69,7.83-24.36,14.23-35.82,2.86-5.11,6.77-10.1,11.53-13.5Z"/>
      <path class="cls-1" d="M137.63,61.7l-.1-.33c-6.9-3.9-14.61-6.5-22.51-7.42-17.98-2.1-43.92,4.41-55.94,18.69-8.89,10.57-10.88,24.63-8.43,37.98,8.38-11.06,20.76-18.78,33.65-23.61,1.82-.68,6.7-2.58,8.4-2.61,3.66-.08,4.8,5.14,1.42,6.61-1.75.76-4.24,1.27-6.14,1.96-20.9,7.56-41.73,22.92-37.61,47.98.27,1.62,1.19,4.08.77,5.56-.55,1.93-2.61,2.92-4.49,2.21-1.99-.76-2.17-2.52-2.59-4.37-1.87-8.18-1.36-17.08,1.74-24.89-7.08-24.85-1.16-49.79,22.34-62.69,22.55-12.37,54.04-14.48,75.83.63,2.53,1.75,4.84,3.47,2.49,6.75-7.95,4-13.91,11.72-16.93,19.99-2.33,6.38-3.4,13.18-5.87,19.56-7.32,18.93-22.98,26.61-42.34,28.93-6.19.74-14.37,1.15-20.55.5-4.94-.52-4.29-6.82-.14-6.95,1.08-.03,2.59.29,3.69.32,16.19.36,36.89-1.76,47.54-15.48,8.3-10.69,7.83-24.36,14.23-35.82,2.86-5.11,6.77-10.1,11.53-13.5Z"/>
      <path class="cls-1" d="M137.77,61.82l-.1-.33c-6.9-3.9-14.61-6.5-22.51-7.42-17.98-2.1-43.92,4.41-55.94,18.69-8.89,10.57-10.88,24.63-8.43,37.98,8.38-11.06,20.76-18.78,33.65-23.61,1.82-.68,6.7-2.58,8.4-2.61,3.66-.08,4.8,5.14,1.42,6.61-1.75.76-4.24,1.27-6.14,1.96-20.9,7.56-41.73,22.92-37.61,47.98.27,1.62,1.19,4.08.77,5.56-.55,1.93-2.61,2.92-4.49,2.21-1.99-.76-2.17-2.52-2.59-4.37-1.87-8.18-1.36-17.08,1.74-24.89-7.08-24.85-1.16-49.79,22.34-62.69,22.55-12.37,54.04-14.48,75.83.63,2.53,1.75,4.84,3.47,2.49,6.75-7.95,4-13.91,11.72-16.93,19.99-2.33,6.38-3.4,13.18-5.87,19.56-7.32,18.93-22.98,26.61-42.34,28.93-6.19.74-14.37,1.15-20.55.5-4.94-.52-4.29-6.82-.14-6.95,1.08-.03,2.59.29,3.69.32,16.19.36,36.89-1.76,47.54-15.48,8.3-10.69,7.83-24.36,14.23-35.82,2.86-5.11,6.77-10.1,11.53-13.5Z"/>
      <path class="cls-1" d="M137.91,61.93l-.1-.33c-6.9-3.9-14.61-6.5-22.51-7.42-17.98-2.1-43.92,4.41-55.94,18.69-8.89,10.57-10.88,24.63-8.43,37.98,8.38-11.06,20.76-18.78,33.65-23.61,1.82-.68,6.7-2.58,8.4-2.61,3.66-.08,4.8,5.14,1.42,6.61-1.75.76-4.24,1.27-6.14,1.96-20.9,7.56-41.73,22.92-37.61,47.98.27,1.62,1.19,4.08.77,5.56-.55,1.93-2.61,2.92-4.49,2.21-1.99-.76-2.17-2.52-2.59-4.37-1.87-8.18-1.36-17.08,1.74-24.89-7.08-24.85-1.16-49.79,22.34-62.69,22.55-12.37,54.04-14.48,75.83.63,2.53,1.75,4.84,3.47,2.49,6.75-7.95,4-13.91,11.72-16.93,19.99-2.33,6.38-3.4,13.18-5.87,19.56-7.32,18.93-22.98,26.61-42.34,28.93-6.19.74-14.37,1.15-20.55.5-4.94-.52-4.29-6.82-.14-6.95,1.08-.03,2.59.29,3.69.32,16.19.36,36.89-1.76,47.54-15.48,8.3-10.69,7.83-24.36,14.23-35.82,2.86-5.11,6.77-10.1,11.53-13.5Z"/>
      <path class="cls-1" d="M138.06,62.04l-.1-.33c-6.9-3.9-14.61-6.5-22.51-7.42-17.98-2.1-43.92,4.41-55.94,18.69-8.89,10.57-10.88,24.63-8.43,37.98,8.38-11.06,20.76-18.78,33.65-23.61,1.82-.68,6.7-2.58,8.4-2.61,3.66-.08,4.8,5.14,1.42,6.61-1.75.76-4.24,1.27-6.14,1.96-20.9,7.56-41.73,22.92-37.61,47.98.27,1.62,1.19,4.08.77,5.56-.55,1.93-2.61,2.92-4.49,2.21-1.99-.76-2.17-2.52-2.59-4.37-1.87-8.18-1.36-17.08,1.74-24.89-7.08-24.85-1.16-49.79,22.34-62.69,22.55-12.37,54.04-14.48,75.83.63,2.53,1.75,4.84,3.47,2.49,6.75-7.95,4-13.91,11.72-16.93,19.99-2.33,6.38-3.4,13.18-5.87,19.56-7.32,18.93-22.98,26.61-42.34,28.93-6.19.74-14.37,1.15-20.55.5-4.94-.52-4.29-6.82-.14-6.95,1.08-.03,2.59.29,3.69.32,16.19.36,36.89-1.76,47.54-15.48,8.3-10.69,7.83-24.36,14.23-35.82,2.86-5.11,6.77-10.1,11.53-13.5Z"/>
      <path class="cls-1" d="M138.2,62.15l-.1-.33c-6.9-3.9-14.61-6.5-22.51-7.42-17.98-2.1-43.92,4.41-55.94,18.69-8.89,10.57-10.88,24.63-8.43,37.98,8.38-11.06,20.76-18.78,33.65-23.61,1.82-.68,6.7-2.58,8.4-2.61,3.66-.08,4.8,5.14,1.42,6.61-1.75.76-4.24,1.27-6.14,1.96-20.9,7.56-41.73,22.92-37.61,47.98.27,1.62,1.19,4.08.77,5.56-.55,1.93-2.61,2.92-4.49,2.21-1.99-.76-2.17-2.52-2.59-4.37-1.87-8.18-1.36-17.08,1.74-24.89-7.08-24.85-1.16-49.79,22.34-62.69,22.55-12.37,54.04-14.48,75.83.63,2.53,1.75,4.84,3.47,2.49,6.75-7.95,4-13.91,11.72-16.93,19.99-2.33,6.38-3.4,13.18-5.87,19.56-7.32,18.93-22.98,26.61-42.34,28.93-6.19.74-14.37,1.15-20.55.5-4.94-.52-4.29-6.82-.14-6.95,1.08-.03,2.59.29,3.69.32,16.19.36,36.89-1.76,47.54-15.48,8.3-10.69,7.83-24.36,14.23-35.82,2.86-5.11,6.77-10.1,11.53-13.5Z"/>
      <path class="cls-1" d="M138.34,62.27l-.1-.33c-6.9-3.9-14.61-6.5-22.51-7.42-17.98-2.1-43.92,4.41-55.94,18.69-8.89,10.57-10.88,24.63-8.43,37.98,8.38-11.06,20.76-18.78,33.65-23.61,1.82-.68,6.7-2.58,8.4-2.61,3.66-.08,4.8,5.14,1.42,6.61-1.75.76-4.24,1.27-6.14,1.96-20.9,7.56-41.73,22.92-37.61,47.98.27,1.62,1.19,4.08.77,5.56-.55,1.93-2.61,2.92-4.49,2.21-1.99-.76-2.17-2.52-2.59-4.37-1.87-8.18-1.36-17.08,1.74-24.89-7.08-24.85-1.16-49.79,22.34-62.69,22.55-12.37,54.04-14.48,75.83.63,2.53,1.75,4.84,3.47,2.49,6.75-7.95,4-13.91,11.72-16.93,19.99-2.33,6.38-3.4,13.18-5.87,19.56-7.32,18.93-22.98,26.61-42.34,28.93-6.19.74-14.37,1.15-20.55.5-4.94-.52-4.29-6.82-.14-6.95,1.08-.03,2.59.29,3.69.32,16.19.36,36.89-1.76,47.54-15.48,8.3-10.69,7.83-24.36,14.23-35.82,2.86-5.11,6.77-10.1,11.53-13.5Z"/>
      <path class="cls-1" d="M138.49,62.38l-.1-.33c-6.9-3.9-14.61-6.5-22.51-7.42-17.98-2.1-43.92,4.41-55.94,18.69-8.89,10.57-10.88,24.63-8.43,37.98,8.38-11.06,20.76-18.78,33.65-23.61,1.82-.68,6.7-2.58,8.4-2.61,3.66-.08,4.8,5.14,1.42,6.61-1.75.76-4.24,1.27-6.14,1.96-20.9,7.56-41.73,22.92-37.61,47.98.27,1.62,1.19,4.08.77,5.56-.55,1.93-2.61,2.92-4.49,2.21-1.99-.76-2.17-2.52-2.59-4.37-1.87-8.18-1.36-17.08,1.74-24.89-7.08-24.85-1.16-49.79,22.34-62.69,22.55-12.37,54.04-14.48,75.83.63,2.53,1.75,4.84,3.47,2.49,6.75-7.95,4-13.91,11.72-16.93,19.99-2.33,6.38-3.4,13.18-5.87,19.56-7.32,18.93-22.98,26.61-42.34,28.93-6.19.74-14.37,1.15-20.55.5-4.94-.52-4.29-6.82-.14-6.95,1.08-.03,2.59.29,3.69.32,16.19.36,36.89-1.76,47.54-15.48,8.3-10.69,7.83-24.36,14.23-35.82,2.86-5.11,6.77-10.1,11.53-13.5Z"/>
      <path class="cls-1" d="M138.63,62.49l-.1-.33c-6.9-3.9-14.61-6.5-22.51-7.42-17.98-2.1-43.92,4.41-55.94,18.69-8.89,10.57-10.88,24.63-8.43,37.98,8.38-11.06,20.76-18.78,33.65-23.61,1.82-.68,6.7-2.58,8.4-2.61,3.66-.08,4.8,5.14,1.42,6.61-1.75.76-4.24,1.27-6.14,1.96-20.9,7.56-41.73,22.92-37.61,47.98.27,1.62,1.19,4.08.77,5.56-.55,1.93-2.61,2.92-4.49,2.21-1.99-.76-2.17-2.52-2.59-4.37-1.87-8.18-1.36-17.08,1.74-24.89-7.08-24.85-1.16-49.79,22.34-62.69,22.55-12.37,54.04-14.48,75.83.63,2.53,1.75,4.84,3.47,2.49,6.75-7.95,4-13.91,11.72-16.93,19.99-2.33,6.38-3.4,13.18-5.87,19.56-7.32,18.93-22.98,26.61-42.34,28.93-6.19.74-14.37,1.15-20.55.5-4.94-.52-4.29-6.82-.14-6.95,1.08-.03,2.59.29,3.69.32,16.19.36,36.89-1.76,47.54-15.48,8.3-10.69,7.83-24.36,14.23-35.82,2.86-5.11,6.77-10.1,11.53-13.5Z"/>
      <path class="cls-1" d="M138.77,62.6l-.1-.33c-6.9-3.9-14.61-6.5-22.51-7.42-17.98-2.1-43.92,4.41-55.94,18.69-8.89,10.57-10.88,24.63-8.43,37.98,8.38-11.06,20.76-18.78,33.65-23.61,1.82-.68,6.7-2.58,8.4-2.61,3.66-.08,4.8,5.14,1.42,6.61-1.75.76-4.24,1.27-6.14,1.96-20.9,7.56-41.73,22.92-37.61,47.98.27,1.62,1.19,4.08.77,5.56-.55,1.93-2.61,2.92-4.49,2.21-1.99-.76-2.17-2.52-2.59-4.37-1.87-8.18-1.36-17.08,1.74-24.89-7.08-24.85-1.16-49.79,22.34-62.69,22.55-12.37,54.04-14.48,75.83.63,2.53,1.75,4.84,3.47,2.49,6.75-7.95,4-13.91,11.72-16.93,19.99-2.33,6.38-3.4,13.18-5.87,19.56-7.32,18.93-22.98,26.61-42.34,28.93-6.19.74-14.37,1.15-20.55.5-4.94-.52-4.29-6.82-.14-6.95,1.08-.03,2.59.29,3.69.32,16.19.36,36.89-1.76,47.54-15.48,8.3-10.69,7.83-24.36,14.23-35.82,2.86-5.11,6.77-10.1,11.53-13.5Z"/>
      <path class="cls-1" d="M138.91,62.72l-.1-.33c-6.9-3.9-14.61-6.5-22.51-7.42-17.98-2.1-43.92,4.41-55.94,18.69-8.89,10.57-10.88,24.63-8.43,37.98,8.38-11.06,20.76-18.78,33.65-23.61,1.82-.68,6.7-2.58,8.4-2.61,3.66-.08,4.8,5.14,1.42,6.61-1.75.76-4.24,1.27-6.14,1.96-20.9,7.56-41.73,22.92-37.61,47.98.27,1.62,1.19,4.08.77,5.56-.55,1.93-2.61,2.92-4.49,2.21-1.99-.76-2.17-2.52-2.59-4.37-1.87-8.18-1.36-17.08,1.74-24.89-7.08-24.85-1.16-49.79,22.34-62.69,22.55-12.37,54.04-14.48,75.83.63,2.53,1.75,4.84,3.47,2.49,6.75-7.95,4-13.91,11.72-16.93,19.99-2.33,6.38-3.4,13.18-5.87,19.56-7.32,18.93-22.98,26.61-42.34,28.93-6.19.74-14.37,1.15-20.55.5-4.94-.52-4.29-6.82-.14-6.95,1.08-.03,2.59.29,3.69.32,16.19.36,36.89-1.76,47.54-15.48,8.3-10.69,7.83-24.36,14.23-35.82,2.86-5.11,6.77-10.1,11.53-13.5Z"/>
      <path class="cls-1" d="M139.06,62.83l-.1-.33c-6.9-3.9-14.61-6.5-22.51-7.42-17.98-2.1-43.92,4.41-55.94,18.69-8.89,10.57-10.88,24.63-8.43,37.98,8.38-11.06,20.76-18.78,33.65-23.61,1.82-.68,6.7-2.58,8.4-2.61,3.66-.08,4.8,5.14,1.42,6.61-1.75.76-4.24,1.27-6.14,1.96-20.9,7.56-41.73,22.92-37.61,47.98.27,1.62,1.19,4.08.77,5.56-.55,1.93-2.61,2.92-4.49,2.21-1.99-.76-2.17-2.52-2.59-4.37-1.87-8.18-1.36-17.08,1.74-24.89-7.08-24.85-1.16-49.79,22.34-62.69,22.55-12.37,54.04-14.48,75.83.63,2.53,1.75,4.84,3.47,2.49,6.75-7.95,4-13.91,11.72-16.93,19.99-2.33,6.38-3.4,13.18-5.87,19.56-7.32,18.93-22.98,26.61-42.34,28.93-6.19.74-14.37,1.15-20.55.5-4.94-.52-4.29-6.82-.14-6.95,1.08-.03,2.59.29,3.69.32,16.19.36,36.89-1.76,47.54-15.48,8.3-10.69,7.83-24.36,14.23-35.82,2.86-5.11,6.77-10.1,11.53-13.5Z"/>
      <path class="cls-1" d="M139.2,62.94l-.1-.33c-6.9-3.9-14.61-6.5-22.51-7.42-17.98-2.1-43.92,4.41-55.94,18.69-8.89,10.57-10.88,24.63-8.43,37.98,8.38-11.06,20.76-18.78,33.65-23.61,1.82-.68,6.7-2.58,8.4-2.61,3.66-.08,4.8,5.14,1.42,6.61-1.75.76-4.24,1.27-6.14,1.96-20.9,7.56-41.73,22.92-37.61,47.98.27,1.62,1.19,4.08.77,5.56-.55,1.93-2.61,2.92-4.49,2.21-1.99-.76-2.17-2.52-2.59-4.37-1.87-8.18-1.36-17.08,1.74-24.89-7.08-24.85-1.16-49.79,22.34-62.69,22.55-12.37,54.04-14.48,75.83.63,2.53,1.75,4.84,3.47,2.49,6.75-7.95,4-13.91,11.72-16.93,19.99-2.33,6.38-3.4,13.18-5.87,19.56-7.32,18.93-22.98,26.61-42.34,28.93-6.19.74-14.37,1.15-20.55.5-4.94-.52-4.29-6.82-.14-6.95,1.08-.03,2.59.29,3.69.32,16.19.36,36.89-1.76,47.54-15.48,8.3-10.69,7.83-24.36,14.23-35.82,2.86-5.11,6.77-10.1,11.53-13.5Z"/>
      <path class="cls-1" d="M139.34,63.05l-.1-.33c-6.9-3.9-14.61-6.5-22.51-7.42-17.98-2.1-43.92,4.41-55.94,18.69-8.89,10.57-10.88,24.63-8.43,37.98,8.38-11.06,20.76-18.78,33.65-23.61,1.82-.68,6.7-2.58,8.4-2.61,3.66-.08,4.8,5.14,1.42,6.61-1.75.76-4.24,1.27-6.14,1.96-20.9,7.56-41.73,22.92-37.61,47.98.27,1.62,1.19,4.08.77,5.56-.55,1.93-2.61,2.92-4.49,2.21-1.99-.76-2.17-2.52-2.59-4.37-1.87-8.18-1.36-17.08,1.74-24.89-7.08-24.85-1.16-49.79,22.34-62.69,22.55-12.37,54.04-14.48,75.83.63,2.53,1.75,4.84,3.47,2.49,6.75-7.95,4-13.91,11.72-16.93,19.99-2.33,6.38-3.4,13.18-5.87,19.56-7.32,18.93-22.98,26.61-42.34,28.93-6.19.74-14.37,1.15-20.55.5-4.94-.52-4.29-6.82-.14-6.95,1.08-.03,2.59.29,3.69.32,16.19.36,36.89-1.76,47.54-15.48,8.3-10.69,7.83-24.36,14.23-35.82,2.86-5.11,6.77-10.1,11.53-13.5Z"/>
      <path class="cls-1" d="M139.49,63.17l-.1-.33c-6.9-3.9-14.61-6.5-22.51-7.42-17.98-2.1-43.92,4.41-55.94,18.69-8.89,10.57-10.88,24.63-8.43,37.98,8.38-11.06,20.76-18.78,33.65-23.61,1.82-.68,6.7-2.58,8.4-2.61,3.66-.08,4.8,5.14,1.42,6.61-1.75.76-4.24,1.27-6.14,1.96-20.9,7.56-41.73,22.92-37.61,47.98.27,1.62,1.19,4.08.77,5.56-.55,1.93-2.61,2.92-4.49,2.21-1.99-.76-2.17-2.52-2.59-4.37-1.87-8.18-1.36-17.08,1.74-24.89-7.08-24.85-1.16-49.79,22.34-62.69,22.55-12.37,54.04-14.48,75.83.63,2.53,1.75,4.84,3.47,2.49,6.75-7.95,4-13.91,11.72-16.93,19.99-2.33,6.38-3.4,13.18-5.87,19.56-7.32,18.93-22.98,26.61-42.34,28.93-6.19.74-14.37,1.15-20.55.5-4.94-.52-4.29-6.82-.14-6.95,1.08-.03,2.59.29,3.69.32,16.19.36,36.89-1.76,47.54-15.48,8.3-10.69,7.83-24.36,14.23-35.82,2.86-5.11,6.77-10.1,11.53-13.5Z"/>
      <path class="cls-1" d="M139.63,63.28l-.1-.33c-6.9-3.9-14.61-6.5-22.51-7.42-17.98-2.1-43.92,4.41-55.94,18.69-8.89,10.57-10.88,24.63-8.43,37.98,8.38-11.06,20.76-18.78,33.65-23.61,1.82-.68,6.7-2.58,8.4-2.61,3.66-.08,4.8,5.14,1.42,6.61-1.75.76-4.24,1.27-6.14,1.96-20.9,7.56-41.73,22.92-37.61,47.98.27,1.62,1.19,4.08.77,5.56-.55,1.93-2.61,2.92-4.49,2.21-1.99-.76-2.17-2.52-2.59-4.37-1.87-8.18-1.36-17.08,1.74-24.89-7.08-24.85-1.16-49.79,22.34-62.69,22.55-12.37,54.04-14.48,75.83.63,2.53,1.75,4.84,3.47,2.49,6.75-7.95,4-13.91,11.72-16.93,19.99-2.33,6.38-3.4,13.18-5.87,19.56-7.32,18.93-22.98,26.61-42.34,28.93-6.19.74-14.37,1.15-20.55.5-4.94-.52-4.29-6.82-.14-6.95,1.08-.03,2.59.29,3.69.32,16.19.36,36.89-1.76,47.54-15.48,8.3-10.69,7.83-24.36,14.23-35.82,2.86-5.11,6.77-10.1,11.53-13.5Z"/>
      <path class="cls-1" d="M139.77,63.39l-.1-.33c-6.9-3.9-14.61-6.5-22.51-7.42-17.98-2.1-43.92,4.41-55.94,18.69-8.89,10.57-10.88,24.63-8.43,37.98,8.38-11.06,20.76-18.78,33.65-23.61,1.82-.68,6.7-2.58,8.4-2.61,3.66-.08,4.8,5.14,1.42,6.61-1.75.76-4.24,1.27-6.14,1.96-20.9,7.56-41.73,22.92-37.61,47.98.27,1.62,1.19,4.08.77,5.56-.55,1.93-2.61,2.92-4.49,2.21-1.99-.76-2.17-2.52-2.59-4.37-1.87-8.18-1.36-17.08,1.74-24.89-7.08-24.85-1.16-49.79,22.34-62.69,22.55-12.37,54.04-14.48,75.83.63,2.53,1.75,4.84,3.47,2.49,6.75-7.95,4-13.91,11.72-16.93,19.99-2.33,6.38-3.4,13.18-5.87,19.56-7.32,18.93-22.98,26.61-42.34,28.93-6.19.74-14.37,1.15-20.55.5-4.94-.52-4.29-6.82-.14-6.95,1.08-.03,2.59.29,3.69.32,16.19.36,36.89-1.76,47.54-15.48,8.3-10.69,7.83-24.36,14.23-35.82,2.86-5.11,6.77-10.1,11.53-13.5Z"/>
      <path class="cls-1" d="M139.92,63.5l-.1-.33c-6.9-3.9-14.61-6.5-22.51-7.42-17.98-2.1-43.92,4.41-55.94,18.69-8.89,10.57-10.88,24.63-8.43,37.98,8.38-11.06,20.76-18.78,33.65-23.61,1.82-.68,6.7-2.58,8.4-2.61,3.66-.08,4.8,5.14,1.42,6.61-1.75.76-4.24,1.27-6.14,1.96-20.9,7.56-41.73,22.92-37.61,47.98.27,1.62,1.19,4.08.77,5.56-.55,1.93-2.61,2.92-4.49,2.21-1.99-.76-2.17-2.52-2.59-4.37-1.87-8.18-1.36-17.08,1.74-24.89-7.08-24.85-1.16-49.79,22.34-62.69,22.55-12.37,54.04-14.48,75.83.63,2.53,1.75,4.84,3.47,2.49,6.75-7.95,4-13.91,11.72-16.93,19.99-2.33,6.38-3.4,13.18-5.87,19.56-7.32,18.93-22.98,26.61-42.34,28.93-6.19.74-14.37,1.15-20.55.5-4.94-.52-4.29-6.82-.14-6.95,1.08-.03,2.59.29,3.69.32,16.19.36,36.89-1.76,47.54-15.48,8.3-10.69,7.83-24.36,14.23-35.82,2.86-5.11,6.77-10.1,11.53-13.5Z"/>
      <path class="cls-1" d="M140.06,63.62l-.1-.33c-6.9-3.9-14.61-6.5-22.51-7.42-17.98-2.1-43.92,4.41-55.94,18.69-8.89,10.57-10.88,24.63-8.43,37.98,8.38-11.06,20.76-18.78,33.65-23.61,1.82-.68,6.7-2.58,8.4-2.61,3.66-.08,4.8,5.14,1.42,6.61-1.75.76-4.24,1.27-6.14,1.96-20.9,7.56-41.73,22.92-37.61,47.98.27,1.62,1.19,4.08.77,5.56-.55,1.93-2.61,2.92-4.49,2.21-1.99-.76-2.17-2.52-2.59-4.37-1.87-8.18-1.36-17.08,1.74-24.89-7.08-24.85-1.16-49.79,22.34-62.69,22.55-12.37,54.04-14.48,75.83.63,2.53,1.75,4.84,3.47,2.49,6.75-7.95,4-13.91,11.72-16.93,19.99-2.33,6.38-3.4,13.18-5.87,19.56-7.32,18.93-22.98,26.61-42.34,28.93-6.19.74-14.37,1.15-20.55.5-4.94-.52-4.29-6.82-.14-6.95,1.08-.03,2.59.29,3.69.32,16.19.36,36.89-1.76,47.54-15.48,8.3-10.69,7.83-24.36,14.23-35.82,2.86-5.11,6.77-10.1,11.53-13.5Z"/>
      <path class="cls-1" d="M140.2,63.73l-.1-.33c-6.9-3.9-14.61-6.5-22.51-7.42-17.98-2.1-43.92,4.41-55.94,18.69-8.89,10.57-10.88,24.63-8.43,37.98,8.38-11.06,20.76-18.78,33.65-23.61,1.82-.68,6.7-2.58,8.4-2.61,3.66-.08,4.8,5.14,1.42,6.61-1.75.76-4.24,1.27-6.14,1.96-20.9,7.56-41.73,22.92-37.61,47.98.27,1.62,1.19,4.08.77,5.56-.55,1.93-2.61,2.92-4.49,2.21-1.99-.76-2.17-2.52-2.59-4.37-1.87-8.18-1.36-17.08,1.74-24.89-7.08-24.85-1.16-49.79,22.34-62.69,22.55-12.37,54.04-14.48,75.83.63,2.53,1.75,4.84,3.47,2.49,6.75-7.95,4-13.91,11.72-16.93,19.99-2.33,6.38-3.4,13.18-5.87,19.56-7.32,18.93-22.98,26.61-42.34,28.93-6.19.74-14.37,1.15-20.55.5-4.94-.52-4.29-6.82-.14-6.95,1.08-.03,2.59.29,3.69.32,16.19.36,36.89-1.76,47.54-15.48,8.3-10.69,7.83-24.36,14.23-35.82,2.86-5.11,6.77-10.1,11.53-13.5Z"/>
      <path class="cls-1" d="M140.35,63.84l-.1-.33c-6.9-3.9-14.61-6.5-22.51-7.42-17.98-2.1-43.92,4.41-55.94,18.69-8.89,10.57-10.88,24.63-8.43,37.98,8.38-11.06,20.76-18.78,33.65-23.61,1.82-.68,6.7-2.58,8.4-2.61,3.66-.08,4.8,5.14,1.42,6.61-1.75.76-4.24,1.27-6.14,1.96-20.9,7.56-41.73,22.92-37.61,47.98.27,1.62,1.19,4.08.77,5.56-.55,1.93-2.61,2.92-4.49,2.21-1.99-.76-2.17-2.52-2.59-4.37-1.87-8.18-1.36-17.08,1.74-24.89-7.08-24.85-1.16-49.79,22.34-62.69,22.55-12.37,54.04-14.48,75.83.63,2.53,1.75,4.84,3.47,2.49,6.75-7.95,4-13.91,11.72-16.93,19.99-2.33,6.38-3.4,13.18-5.87,19.56-7.32,18.93-22.98,26.61-42.34,28.93-6.19.74-14.37,1.15-20.55.5-4.94-.52-4.29-6.82-.14-6.95,1.08-.03,2.59.29,3.69.32,16.19.36,36.89-1.76,47.54-15.48,8.3-10.69,7.83-24.36,14.23-35.82,2.86-5.11,6.77-10.1,11.53-13.5Z"/>
      <path class="cls-1" d="M140.49,63.95l-.1-.33c-6.9-3.9-14.61-6.5-22.51-7.42-17.98-2.1-43.92,4.41-55.94,18.69-8.89,10.57-10.88,24.63-8.43,37.98,8.38-11.06,20.76-18.78,33.65-23.61,1.82-.68,6.7-2.58,8.4-2.61,3.66-.08,4.8,5.14,1.42,6.61-1.75.76-4.24,1.27-6.14,1.96-20.9,7.56-41.73,22.92-37.61,47.98.27,1.62,1.19,4.08.77,5.56-.55,1.93-2.61,2.92-4.49,2.21-1.99-.76-2.17-2.52-2.59-4.37-1.87-8.18-1.36-17.08,1.74-24.89-7.08-24.85-1.16-49.79,22.34-62.69,22.55-12.37,54.04-14.48,75.83.63,2.53,1.75,4.84,3.47,2.49,6.75-7.95,4-13.91,11.72-16.93,19.99-2.33,6.38-3.4,13.18-5.87,19.56-7.32,18.93-22.98,26.61-42.34,28.93-6.19.74-14.37,1.15-20.55.5-4.94-.52-4.29-6.82-.14-6.95,1.08-.03,2.59.29,3.69.32,16.19.36,36.89-1.76,47.54-15.48,8.3-10.69,7.83-24.36,14.23-35.82,2.86-5.11,6.77-10.1,11.53-13.5Z"/>
      <path class="cls-1" d="M140.63,64.07l-.1-.33c-6.9-3.9-14.61-6.5-22.51-7.42-17.98-2.1-43.92,4.41-55.94,18.69-8.89,10.57-10.88,24.63-8.43,37.98,8.38-11.06,20.76-18.78,33.65-23.61,1.82-.68,6.7-2.58,8.4-2.61,3.66-.08,4.8,5.14,1.42,6.61-1.75.76-4.24,1.27-6.14,1.96-20.9,7.56-41.73,22.92-37.61,47.98.27,1.62,1.19,4.08.77,5.56-.55,1.93-2.61,2.92-4.49,2.21-1.99-.76-2.17-2.52-2.59-4.37-1.87-8.18-1.36-17.08,1.74-24.89-7.08-24.85-1.16-49.79,22.34-62.69,22.55-12.37,54.04-14.48,75.83.63,2.53,1.75,4.84,3.47,2.49,6.75-7.95,4-13.91,11.72-16.93,19.99-2.33,6.38-3.4,13.18-5.87,19.56-7.32,18.93-22.98,26.61-42.34,28.93-6.19.74-14.37,1.15-20.55.5-4.94-.52-4.29-6.82-.14-6.95,1.08-.03,2.59.29,3.69.32,16.19.36,36.89-1.76,47.54-15.48,8.3-10.69,7.83-24.36,14.23-35.82,2.86-5.11,6.77-10.1,11.53-13.5Z"/>
      <path class="cls-1" d="M140.78,64.18l-.1-.33c-6.9-3.9-14.61-6.5-22.51-7.42-17.98-2.1-43.92,4.41-55.94,18.69-8.89,10.57-10.88,24.63-8.43,37.98,8.38-11.06,20.76-18.78,33.65-23.61,1.82-.68,6.7-2.58,8.4-2.61,3.66-.08,4.8,5.14,1.42,6.61-1.75.76-4.24,1.27-6.14,1.96-20.9,7.56-41.73,22.92-37.61,47.98.27,1.62,1.19,4.08.77,5.56-.55,1.93-2.61,2.92-4.49,2.21-1.99-.76-2.17-2.52-2.59-4.37-1.87-8.18-1.36-17.08,1.74-24.89-7.08-24.85-1.16-49.79,22.34-62.69,22.55-12.37,54.04-14.48,75.83.63,2.53,1.75,4.84,3.47,2.49,6.75-7.95,4-13.91,11.72-16.93,19.99-2.33,6.38-3.4,13.18-5.87,19.56-7.32,18.93-22.98,26.61-42.34,28.93-6.19.74-14.37,1.15-20.55.5-4.94-.52-4.29-6.82-.14-6.95,1.08-.03,2.59.29,3.69.32,16.19.36,36.89-1.76,47.54-15.48,8.3-10.69,7.83-24.36,14.23-35.82,2.86-5.11,6.77-10.1,11.53-13.5Z"/>
      <path class="cls-1" d="M140.92,64.29l-.1-.33c-6.9-3.9-14.61-6.5-22.51-7.42-17.98-2.1-43.92,4.41-55.94,18.69-8.89,10.57-10.88,24.63-8.43,37.98,8.38-11.06,20.76-18.78,33.65-23.61,1.82-.68,6.7-2.58,8.4-2.61,3.66-.08,4.8,5.14,1.42,6.61-1.75.76-4.24,1.27-6.14,1.96-20.9,7.56-41.73,22.92-37.61,47.98.27,1.62,1.19,4.08.77,5.56-.55,1.93-2.61,2.92-4.49,2.21-1.99-.76-2.17-2.52-2.59-4.37-1.87-8.18-1.36-17.08,1.74-24.89-7.08-24.85-1.16-49.79,22.34-62.69,22.55-12.37,54.04-14.48,75.83.63,2.53,1.75,4.84,3.47,2.49,6.75-7.95,4-13.91,11.72-16.93,19.99-2.33,6.38-3.4,13.18-5.87,19.56-7.32,18.93-22.98,26.61-42.34,28.93-6.19.74-14.37,1.15-20.55.5-4.94-.52-4.29-6.82-.14-6.95,1.08-.03,2.59.29,3.69.32,16.19.36,36.89-1.76,47.54-15.48,8.3-10.69,7.83-24.36,14.23-35.82,2.86-5.11,6.77-10.1,11.53-13.5Z"/>
      <path class="cls-1" d="M141.06,64.4l-.1-.33c-6.9-3.9-14.61-6.5-22.51-7.42-17.98-2.1-43.92,4.41-55.94,18.69-8.89,10.57-10.88,24.63-8.43,37.98,8.38-11.06,20.76-18.78,33.65-23.61,1.82-.68,6.7-2.58,8.4-2.61,3.66-.08,4.8,5.14,1.42,6.61-1.75.76-4.24,1.27-6.14,1.96-20.9,7.56-41.73,22.92-37.61,47.98.27,1.62,1.19,4.08.77,5.56-.55,1.93-2.61,2.92-4.49,2.21-1.99-.76-2.17-2.52-2.59-4.37-1.87-8.18-1.36-17.08,1.74-24.89-7.08-24.85-1.16-49.79,22.34-62.69,22.55-12.37,54.04-14.48,75.83.63,2.53,1.75,4.84,3.47,2.49,6.75-7.95,4-13.91,11.72-16.93,19.99-2.33,6.38-3.4,13.18-5.87,19.56-7.32,18.93-22.98,26.61-42.34,28.93-6.19.74-14.37,1.15-20.55.5-4.94-.52-4.29-6.82-.14-6.95,1.08-.03,2.59.29,3.69.32,16.19.36,36.89-1.76,47.54-15.48,8.3-10.69,7.83-24.36,14.23-35.82,2.86-5.11,6.77-10.1,11.53-13.5Z"/>
      <path class="cls-1" d="M141.21,64.52l-.1-.33c-6.9-3.9-14.61-6.5-22.51-7.42-17.98-2.1-43.92,4.41-55.94,18.69-8.89,10.57-10.88,24.63-8.43,37.98,8.38-11.06,20.76-18.78,33.65-23.61,1.82-.68,6.7-2.58,8.4-2.61,3.66-.08,4.8,5.14,1.42,6.61-1.75.76-4.24,1.27-6.14,1.96-20.9,7.56-41.73,22.92-37.61,47.98.27,1.62,1.19,4.08.77,5.56-.55,1.93-2.61,2.92-4.49,2.21-1.99-.76-2.17-2.52-2.59-4.37-1.87-8.18-1.36-17.08,1.74-24.89-7.08-24.85-1.16-49.79,22.34-62.69,22.55-12.37,54.04-14.48,75.83.63,2.53,1.75,4.84,3.47,2.49,6.75-7.95,4-13.91,11.72-16.93,19.99-2.33,6.38-3.4,13.18-5.87,19.56-7.32,18.93-22.98,26.61-42.34,28.93-6.19.74-14.37,1.15-20.55.5-4.94-.52-4.29-6.82-.14-6.95,1.08-.03,2.59.29,3.69.32,16.19.36,36.89-1.76,47.54-15.48,8.3-10.69,7.83-24.36,14.23-35.82,2.86-5.11,6.77-10.1,11.53-13.5Z"/>
      <path class="cls-1" d="M141.35,64.63l-.1-.33c-6.9-3.9-14.61-6.5-22.51-7.42-17.98-2.1-43.92,4.41-55.94,18.69-8.89,10.57-10.88,24.63-8.43,37.98,8.38-11.06,20.76-18.78,33.65-23.61,1.82-.68,6.7-2.58,8.4-2.61,3.66-.08,4.8,5.14,1.42,6.61-1.75.76-4.24,1.27-6.14,1.96-20.9,7.56-41.73,22.92-37.61,47.98.27,1.62,1.19,4.08.77,5.56-.55,1.93-2.61,2.92-4.49,2.21-1.99-.76-2.17-2.52-2.59-4.37-1.87-8.18-1.36-17.08,1.74-24.89-7.08-24.85-1.16-49.79,22.34-62.69,22.55-12.37,54.04-14.48,75.83.63,2.53,1.75,4.84,3.47,2.49,6.75-7.95,4-13.91,11.72-16.93,19.99-2.33,6.38-3.4,13.18-5.87,19.56-7.32,18.93-22.98,26.61-42.34,28.93-6.19.74-14.37,1.15-20.55.5-4.94-.52-4.29-6.82-.14-6.95,1.08-.03,2.59.29,3.69.32,16.19.36,36.89-1.76,47.54-15.48,8.3-10.69,7.83-24.36,14.23-35.82,2.86-5.11,6.77-10.1,11.53-13.5Z"/>
      <path class="cls-1" d="M141.49,64.74l-.1-.33c-6.9-3.9-14.61-6.5-22.51-7.42-17.98-2.1-43.92,4.41-55.94,18.69-8.89,10.57-10.88,24.63-8.43,37.98,8.38-11.06,20.76-18.78,33.65-23.61,1.82-.68,6.7-2.58,8.4-2.61,3.66-.08,4.8,5.14,1.42,6.61-1.75.76-4.24,1.27-6.14,1.96-20.9,7.56-41.73,22.92-37.61,47.98.27,1.62,1.19,4.08.77,5.56-.55,1.93-2.61,2.92-4.49,2.21-1.99-.76-2.17-2.52-2.59-4.37-1.87-8.18-1.36-17.08,1.74-24.89-7.08-24.85-1.16-49.79,22.34-62.69,22.55-12.37,54.04-14.48,75.83.63,2.53,1.75,4.84,3.47,2.49,6.75-7.95,4-13.91,11.72-16.93,19.99-2.33,6.38-3.4,13.18-5.87,19.56-7.32,18.93-22.98,26.61-42.34,28.93-6.19.74-14.37,1.15-20.55.5-4.94-.52-4.29-6.82-.14-6.95,1.08-.03,2.59.29,3.69.32,16.19.36,36.89-1.76,47.54-15.48,8.3-10.69,7.83-24.36,14.23-35.82,2.86-5.11,6.77-10.1,11.53-13.5Z"/>
      <path class="cls-1" d="M141.64,64.85l-.1-.33c-6.9-3.9-14.61-6.5-22.51-7.42-17.98-2.1-43.92,4.41-55.94,18.69-8.89,10.57-10.88,24.63-8.43,37.98,8.38-11.06,20.76-18.78,33.65-23.61,1.82-.68,6.7-2.58,8.4-2.61,3.66-.08,4.8,5.14,1.42,6.61-1.75.76-4.24,1.27-6.14,1.96-20.9,7.56-41.73,22.92-37.61,47.98.27,1.62,1.19,4.08.77,5.56-.55,1.93-2.61,2.92-4.49,2.21-1.99-.76-2.17-2.52-2.59-4.37-1.87-8.18-1.36-17.08,1.74-24.89-7.08-24.85-1.16-49.79,22.34-62.69,22.55-12.37,54.04-14.48,75.83.63,2.53,1.75,4.84,3.47,2.49,6.75-7.95,4-13.91,11.72-16.93,19.99-2.33,6.38-3.4,13.18-5.87,19.56-7.32,18.93-22.98,26.61-42.34,28.93-6.19.74-14.37,1.15-20.55.5-4.94-.52-4.29-6.82-.14-6.95,1.08-.03,2.59.29,3.69.32,16.19.36,36.89-1.76,47.54-15.48,8.3-10.69,7.83-24.36,14.23-35.82,2.86-5.11,6.77-10.1,11.53-13.5Z"/>
      <path class="cls-1" d="M141.78,64.97l-.1-.33c-6.9-3.9-14.61-6.5-22.51-7.42-17.98-2.1-43.92,4.41-55.94,18.69-8.89,10.57-10.88,24.63-8.43,37.98,8.38-11.06,20.76-18.78,33.65-23.61,1.82-.68,6.7-2.58,8.4-2.61,3.66-.08,4.8,5.14,1.42,6.61-1.75.76-4.24,1.27-6.14,1.96-20.9,7.56-41.73,22.92-37.61,47.98.27,1.62,1.19,4.08.77,5.56-.55,1.93-2.61,2.92-4.49,2.21-1.99-.76-2.17-2.52-2.59-4.37-1.87-8.18-1.36-17.08,1.74-24.89-7.08-24.85-1.16-49.79,22.34-62.69,22.55-12.37,54.04-14.48,75.83.63,2.53,1.75,4.84,3.47,2.49,6.75-7.95,4-13.91,11.72-16.93,19.99-2.33,6.38-3.4,13.18-5.87,19.56-7.32,18.93-22.98,26.61-42.34,28.93-6.19.74-14.37,1.15-20.55.5-4.94-.52-4.29-6.82-.14-6.95,1.08-.03,2.59.29,3.69.32,16.19.36,36.89-1.76,47.54-15.48,8.3-10.69,7.83-24.36,14.23-35.82,2.86-5.11,6.77-10.1,11.53-13.5Z"/>
      <path class="cls-1" d="M141.92,65.08l-.1-.33c-6.9-3.9-14.61-6.5-22.51-7.42-17.98-2.1-43.92,4.41-55.94,18.69-8.89,10.57-10.88,24.63-8.43,37.98,8.38-11.06,20.76-18.78,33.65-23.61,1.82-.68,6.7-2.58,8.4-2.61,3.66-.08,4.8,5.14,1.42,6.61-1.75.76-4.24,1.27-6.14,1.96-20.9,7.56-41.73,22.92-37.61,47.98.27,1.62,1.19,4.08.77,5.56-.55,1.93-2.61,2.92-4.49,2.21-1.99-.76-2.17-2.52-2.59-4.37-1.87-8.18-1.36-17.08,1.74-24.89-7.08-24.85-1.16-49.79,22.34-62.69,22.55-12.37,54.04-14.48,75.83.63,2.53,1.75,4.84,3.47,2.49,6.75-7.95,4-13.91,11.72-16.93,19.99-2.33,6.38-3.4,13.18-5.87,19.56-7.32,18.93-22.98,26.61-42.34,28.93-6.19.74-14.37,1.15-20.55.5-4.94-.52-4.29-6.82-.14-6.95,1.08-.03,2.59.29,3.69.32,16.19.36,36.89-1.76,47.54-15.48,8.3-10.69,7.83-24.36,14.23-35.82,2.86-5.11,6.77-10.1,11.53-13.5Z"/>
      <path class="cls-1" d="M142.06,65.19l-.1-.33c-6.9-3.9-14.61-6.5-22.51-7.42-17.98-2.1-43.92,4.41-55.94,18.69-8.89,10.57-10.88,24.63-8.43,37.98,8.38-11.06,20.76-18.78,33.65-23.61,1.82-.68,6.7-2.58,8.4-2.61,3.66-.08,4.8,5.14,1.42,6.61-1.75.76-4.24,1.27-6.14,1.96-20.9,7.56-41.73,22.92-37.61,47.98.27,1.62,1.19,4.08.77,5.56-.55,1.93-2.61,2.92-4.49,2.21-1.99-.76-2.17-2.52-2.59-4.37-1.87-8.18-1.36-17.08,1.74-24.89-7.08-24.85-1.16-49.79,22.34-62.69s54.04-14.48,75.83.63c2.53,1.75,4.84,3.47,2.49,6.75-7.95,4-13.91,11.72-16.93,19.99-2.33,6.38-3.4,13.18-5.87,19.56-7.32,18.93-22.98,26.61-42.34,28.93-6.19.74-14.37,1.15-20.55.5-4.94-.52-4.29-6.82-.14-6.95,1.08-.03,2.59.29,3.69.32,16.19.36,36.89-1.76,47.54-15.48,8.3-10.69,7.83-24.36,14.23-35.82,2.86-5.11,6.77-10.1,11.53-13.5Z"/>
      <path class="cls-1" d="M142.21,65.3l-.1-.33c-6.9-3.9-14.61-6.5-22.51-7.42-17.98-2.1-43.92,4.41-55.94,18.69-8.89,10.57-10.88,24.63-8.43,37.98,8.38-11.06,20.76-18.78,33.65-23.61,1.82-.68,6.7-2.58,8.4-2.61,3.66-.08,4.8,5.14,1.42,6.61-1.75.76-4.24,1.27-6.14,1.96-20.9,7.56-41.73,22.92-37.61,47.98.27,1.62,1.19,4.08.77,5.56-.55,1.93-2.61,2.92-4.49,2.21-1.99-.76-2.17-2.52-2.59-4.37-1.87-8.18-1.36-17.08,1.74-24.89-7.08-24.85-1.16-49.79,22.34-62.69,22.55-12.37,54.04-14.48,75.83.63,2.53,1.75,4.84,3.47,2.49,6.75-7.95,4-13.91,11.72-16.93,19.99-2.33,6.38-3.4,13.18-5.87,19.56-7.32,18.93-22.98,26.61-42.34,28.93-6.19.74-14.37,1.15-20.55.5-4.94-.52-4.29-6.82-.14-6.95,1.08-.03,2.59.29,3.69.32,16.19.36,36.89-1.76,47.54-15.48,8.3-10.69,7.83-24.36,14.23-35.82,2.86-5.11,6.77-10.1,11.53-13.5Z"/>
      <path class="cls-1" d="M142.35,65.42l-.1-.33c-6.9-3.9-14.61-6.5-22.51-7.42-17.98-2.1-43.92,4.41-55.94,18.69-8.89,10.57-10.88,24.63-8.43,37.98,8.38-11.06,20.76-18.78,33.65-23.61,1.82-.68,6.7-2.58,8.4-2.61,3.66-.08,4.8,5.14,1.42,6.61-1.75.76-4.24,1.27-6.14,1.96-20.9,7.56-41.73,22.92-37.61,47.98.27,1.62,1.19,4.08.77,5.56-.55,1.93-2.61,2.92-4.49,2.21-1.99-.76-2.17-2.52-2.59-4.37-1.87-8.18-1.36-17.08,1.74-24.89-7.08-24.85-1.16-49.79,22.34-62.69,22.55-12.37,54.04-14.48,75.83.63,2.53,1.75,4.84,3.47,2.49,6.75-7.95,4-13.91,11.72-16.93,19.99-2.33,6.38-3.4,13.18-5.87,19.56-7.32,18.93-22.98,26.61-42.34,28.93-6.19.74-14.37,1.15-20.55.5-4.94-.52-4.29-6.82-.14-6.95,1.08-.03,2.59.29,3.69.32,16.19.36,36.89-1.76,47.54-15.48,8.3-10.69,7.83-24.36,14.23-35.82,2.86-5.11,6.77-10.1,11.53-13.5Z"/>
      <path class="cls-1" d="M142.49,65.53l-.1-.33c-6.9-3.9-14.61-6.5-22.51-7.42-17.98-2.1-43.92,4.41-55.94,18.69-8.89,10.57-10.88,24.63-8.43,37.98,8.38-11.06,20.76-18.78,33.65-23.61,1.82-.68,6.7-2.58,8.4-2.61,3.66-.08,4.8,5.14,1.42,6.61-1.75.76-4.24,1.27-6.14,1.96-20.9,7.56-41.73,22.92-37.61,47.98.27,1.62,1.19,4.08.77,5.56-.55,1.93-2.61,2.92-4.49,2.21-1.99-.76-2.17-2.52-2.59-4.37-1.87-8.18-1.36-17.08,1.74-24.89-7.08-24.85-1.16-49.79,22.34-62.69,22.55-12.37,54.04-14.48,75.83.63,2.53,1.75,4.84,3.47,2.49,6.75-7.95,4-13.91,11.72-16.93,19.99-2.33,6.38-3.4,13.18-5.87,19.56-7.32,18.93-22.98,26.61-42.34,28.93-6.19.74-14.37,1.15-20.55.5-4.94-.52-4.29-6.82-.14-6.95,1.08-.03,2.59.29,3.69.32,16.19.36,36.89-1.76,47.54-15.48,8.3-10.69,7.83-24.36,14.23-35.82,2.86-5.11,6.77-10.1,11.53-13.5Z"/>
      <path class="cls-1" d="M142.64,65.64l-.1-.33c-6.9-3.9-14.61-6.5-22.51-7.42-17.98-2.1-43.92,4.41-55.94,18.69-8.89,10.57-10.88,24.63-8.43,37.98,8.38-11.06,20.76-18.78,33.65-23.61,1.82-.68,6.7-2.58,8.4-2.61,3.66-.08,4.8,5.14,1.42,6.61-1.75.76-4.24,1.27-6.14,1.96-20.9,7.56-41.73,22.92-37.61,47.98.27,1.62,1.19,4.08.77,5.56-.55,1.93-2.61,2.92-4.49,2.21-1.99-.76-2.17-2.52-2.59-4.37-1.87-8.18-1.36-17.08,1.74-24.89-7.08-24.85-1.16-49.79,22.34-62.69,22.55-12.37,54.04-14.48,75.83.63,2.53,1.75,4.84,3.47,2.49,6.75-7.95,4-13.91,11.72-16.93,19.99-2.33,6.38-3.4,13.18-5.87,19.56-7.32,18.93-22.98,26.61-42.34,28.93-6.19.74-14.37,1.15-20.55.5-4.94-.52-4.29-6.82-.14-6.95,1.08-.03,2.59.29,3.69.32,16.19.36,36.89-1.76,47.54-15.48,8.3-10.69,7.83-24.36,14.23-35.82,2.86-5.11,6.77-10.1,11.53-13.5Z"/>
      <path class="cls-1" d="M142.78,65.75l-.1-.33c-6.9-3.9-14.61-6.5-22.51-7.42-17.98-2.1-43.92,4.41-55.94,18.69-8.89,10.57-10.88,24.63-8.43,37.98,8.38-11.06,20.76-18.78,33.65-23.61,1.82-.68,6.7-2.58,8.4-2.61,3.66-.08,4.8,5.14,1.42,6.61-1.75.76-4.24,1.27-6.14,1.96-20.9,7.56-41.73,22.92-37.61,47.98.27,1.62,1.19,4.08.77,5.56-.55,1.93-2.61,2.92-4.49,2.21-1.99-.76-2.17-2.52-2.59-4.37-1.87-8.18-1.36-17.08,1.74-24.89-7.08-24.85-1.16-49.79,22.34-62.69,22.55-12.37,54.04-14.48,75.83.63,2.53,1.75,4.84,3.47,2.49,6.75-7.95,4-13.91,11.72-16.93,19.99-2.33,6.38-3.4,13.18-5.87,19.56-7.32,18.93-22.98,26.61-42.34,28.93-6.19.74-14.37,1.15-20.55.5-4.94-.52-4.29-6.82-.14-6.95,1.08-.03,2.59.29,3.69.32,16.19.36,36.89-1.76,47.54-15.48,8.3-10.69,7.83-24.36,14.23-35.82,2.86-5.11,6.77-10.1,11.53-13.5Z"/>
      <path class="cls-1" d="M142.92,65.87l-.1-.33c-6.9-3.9-14.61-6.5-22.51-7.42-17.98-2.1-43.92,4.41-55.94,18.69-8.89,10.57-10.88,24.63-8.43,37.98,8.38-11.06,20.76-18.78,33.65-23.61,1.82-.68,6.7-2.58,8.4-2.61,3.66-.08,4.8,5.14,1.42,6.61-1.75.76-4.24,1.27-6.14,1.96-20.9,7.56-41.73,22.92-37.61,47.98.27,1.62,1.19,4.08.77,5.56-.55,1.93-2.61,2.92-4.49,2.21-1.99-.76-2.17-2.52-2.59-4.37-1.87-8.18-1.36-17.08,1.74-24.89-7.08-24.85-1.16-49.79,22.34-62.69,22.55-12.37,54.04-14.48,75.83.63,2.53,1.75,4.84,3.47,2.49,6.75-7.95,4-13.91,11.72-16.93,19.99-2.33,6.38-3.4,13.18-5.87,19.56-7.32,18.93-22.98,26.61-42.34,28.93-6.19.74-14.37,1.15-20.55.5-4.94-.52-4.29-6.82-.14-6.95,1.08-.03,2.59.29,3.69.32,16.19.36,36.89-1.76,47.54-15.48,8.3-10.69,7.83-24.36,14.23-35.82,2.86-5.11,6.77-10.1,11.53-13.5Z"/>
      <path class="cls-1" d="M143.07,65.98l-.1-.33c-6.9-3.9-14.61-6.5-22.51-7.42-17.98-2.1-43.92,4.41-55.94,18.69-8.89,10.57-10.88,24.63-8.43,37.98,8.38-11.06,20.76-18.78,33.65-23.61,1.82-.68,6.7-2.58,8.4-2.61,3.66-.08,4.8,5.14,1.42,6.61-1.75.76-4.24,1.27-6.14,1.96-20.9,7.56-41.73,22.92-37.61,47.98.27,1.62,1.19,4.08.77,5.56-.55,1.93-2.61,2.92-4.49,2.21-1.99-.76-2.17-2.52-2.59-4.37-1.87-8.18-1.36-17.08,1.74-24.89-7.08-24.85-1.16-49.79,22.34-62.69,22.55-12.37,54.04-14.48,75.83.63,2.53,1.75,4.84,3.47,2.49,6.75-7.95,4-13.91,11.72-16.93,19.99-2.33,6.38-3.4,13.18-5.87,19.56-7.32,18.93-22.98,26.61-42.34,28.93-6.19.74-14.37,1.15-20.55.5-4.94-.52-4.29-6.82-.14-6.95,1.08-.03,2.59.29,3.69.32,16.19.36,36.89-1.76,47.54-15.48,8.3-10.69,7.83-24.36,14.23-35.82,2.86-5.11,6.77-10.1,11.53-13.5Z"/>
      <path class="cls-1" d="M143.21,66.09l-.1-.33c-6.9-3.9-14.61-6.5-22.51-7.42-17.98-2.1-43.92,4.41-55.94,18.69-8.89,10.57-10.88,24.63-8.43,37.98,8.38-11.06,20.76-18.78,33.65-23.61,1.82-.68,6.7-2.58,8.4-2.61,3.66-.08,4.8,5.14,1.42,6.61-1.75.76-4.24,1.27-6.14,1.96-20.9,7.56-41.73,22.92-37.61,47.98.27,1.62,1.19,4.08.77,5.56-.55,1.93-2.61,2.92-4.49,2.21-1.99-.76-2.17-2.52-2.59-4.37-1.87-8.18-1.36-17.08,1.74-24.89-7.08-24.85-1.16-49.79,22.34-62.69,22.55-12.37,54.04-14.48,75.83.63,2.53,1.75,4.84,3.47,2.49,6.75-7.95,4-13.91,11.72-16.93,19.99-2.33,6.38-3.4,13.18-5.87,19.56-7.32,18.93-22.98,26.61-42.34,28.93-6.19.74-14.37,1.15-20.55.5-4.94-.52-4.29-6.82-.14-6.95,1.08-.03,2.59.29,3.69.32,16.19.36,36.89-1.76,47.54-15.48,8.3-10.69,7.83-24.36,14.23-35.82,2.86-5.11,6.77-10.1,11.53-13.5Z"/>
      <path class="cls-1" d="M143.35,66.2l-.1-.33c-6.9-3.9-14.61-6.5-22.51-7.42-17.98-2.1-43.92,4.41-55.94,18.69-8.89,10.57-10.88,24.63-8.43,37.98,8.38-11.06,20.76-18.78,33.65-23.61,1.82-.68,6.7-2.58,8.4-2.61,3.66-.08,4.8,5.14,1.42,6.61-1.75.76-4.24,1.27-6.14,1.96-20.9,7.56-41.73,22.92-37.61,47.98.27,1.62,1.19,4.08.77,5.56-.55,1.93-2.61,2.92-4.49,2.21-1.99-.76-2.17-2.52-2.59-4.37-1.87-8.18-1.36-17.08,1.74-24.89-7.08-24.85-1.16-49.79,22.34-62.69,22.55-12.37,54.04-14.48,75.83.63,2.53,1.75,4.84,3.47,2.49,6.75-7.95,4-13.91,11.72-16.93,19.99-2.33,6.38-3.4,13.18-5.87,19.56-7.32,18.93-22.98,26.61-42.34,28.93-6.19.74-14.37,1.15-20.55.5-4.94-.52-4.29-6.82-.14-6.95,1.08-.03,2.59.29,3.69.32,16.19.36,36.89-1.76,47.54-15.48,8.3-10.69,7.83-24.36,14.23-35.82,2.86-5.11,6.77-10.1,11.53-13.5Z"/>
      <path class="cls-1" d="M143.5,66.32l-.1-.33c-6.9-3.9-14.61-6.5-22.51-7.42-17.98-2.1-43.92,4.41-55.94,18.69-8.89,10.57-10.88,24.63-8.43,37.98,8.38-11.06,20.76-18.78,33.65-23.61,1.82-.68,6.7-2.58,8.4-2.61,3.66-.08,4.8,5.14,1.42,6.61-1.75.76-4.24,1.27-6.14,1.96-20.9,7.56-41.73,22.92-37.61,47.98.27,1.62,1.19,4.08.77,5.56-.55,1.93-2.61,2.92-4.49,2.21-1.99-.76-2.17-2.52-2.59-4.37-1.87-8.18-1.36-17.08,1.74-24.89-7.08-24.85-1.16-49.79,22.34-62.69,22.55-12.37,54.04-14.48,75.83.63,2.53,1.75,4.84,3.47,2.49,6.75-7.95,4-13.91,11.72-16.93,19.99-2.33,6.38-3.4,13.18-5.87,19.56-7.32,18.93-22.98,26.61-42.34,28.93-6.19.74-14.37,1.15-20.55.5-4.94-.52-4.29-6.82-.14-6.95,1.08-.03,2.59.29,3.69.32,16.19.36,36.89-1.76,47.54-15.48,8.3-10.69,7.83-24.36,14.23-35.82,2.86-5.11,6.77-10.1,11.53-13.5Z"/>
      <path class="cls-1" d="M143.64,66.43l-.1-.33c-6.9-3.9-14.61-6.5-22.51-7.42-17.98-2.1-43.92,4.41-55.94,18.69-8.89,10.57-10.88,24.63-8.43,37.98,8.38-11.06,20.76-18.78,33.65-23.61,1.82-.68,6.7-2.58,8.4-2.61,3.66-.08,4.8,5.14,1.42,6.61-1.75.76-4.24,1.27-6.14,1.96-20.9,7.56-41.73,22.92-37.61,47.98.27,1.62,1.19,4.08.77,5.56-.55,1.93-2.61,2.92-4.49,2.21-1.99-.76-2.17-2.52-2.59-4.37-1.87-8.18-1.36-17.08,1.74-24.89-7.08-24.85-1.16-49.79,22.34-62.69,22.55-12.37,54.04-14.48,75.83.63,2.53,1.75,4.84,3.47,2.49,6.75-7.95,4-13.91,11.72-16.93,19.99-2.33,6.38-3.4,13.18-5.87,19.56-7.32,18.93-22.98,26.61-42.34,28.93-6.19.74-14.37,1.15-20.55.5-4.94-.52-4.29-6.82-.14-6.95,1.08-.03,2.59.29,3.69.32,16.19.36,36.89-1.76,47.54-15.48,8.3-10.69,7.83-24.36,14.23-35.82,2.86-5.11,6.77-10.1,11.53-13.5Z"/>
      <path class="cls-1" d="M143.78,66.54l-.1-.33c-6.9-3.9-14.61-6.5-22.51-7.42-17.98-2.1-43.92,4.41-55.94,18.69-8.89,10.57-10.88,24.63-8.43,37.98,8.38-11.06,20.76-18.78,33.65-23.61,1.82-.68,6.7-2.58,8.4-2.61,3.66-.08,4.8,5.14,1.42,6.61-1.75.76-4.24,1.27-6.14,1.96-20.9,7.56-41.73,22.92-37.61,47.98.27,1.62,1.19,4.08.77,5.56-.55,1.93-2.61,2.92-4.49,2.21-1.99-.76-2.17-2.52-2.59-4.37-1.87-8.18-1.36-17.08,1.74-24.89-7.08-24.85-1.16-49.79,22.34-62.69,22.55-12.37,54.04-14.48,75.83.63,2.53,1.75,4.84,3.47,2.49,6.75-7.95,4-13.91,11.72-16.93,19.99-2.33,6.38-3.4,13.18-5.87,19.56-7.32,18.93-22.98,26.61-42.34,28.93-6.19.74-14.37,1.15-20.55.5-4.94-.52-4.29-6.82-.14-6.95,1.08-.03,2.59.29,3.69.32,16.19.36,36.89-1.76,47.54-15.48,8.3-10.69,7.83-24.36,14.23-35.82,2.86-5.11,6.77-10.1,11.53-13.5Z"/>
      <path class="cls-1" d="M143.93,66.65l-.1-.33c-6.9-3.9-14.61-6.5-22.51-7.42-17.98-2.1-43.92,4.41-55.94,18.69-8.89,10.57-10.88,24.63-8.43,37.98,8.38-11.06,20.76-18.78,33.65-23.61,1.82-.68,6.7-2.58,8.4-2.61,3.66-.08,4.8,5.14,1.42,6.61-1.75.76-4.24,1.27-6.14,1.96-20.9,7.56-41.73,22.92-37.61,47.98.27,1.62,1.19,4.08.77,5.56-.55,1.93-2.61,2.92-4.49,2.21-1.99-.76-2.17-2.52-2.59-4.37-1.87-8.18-1.36-17.08,1.74-24.89-7.08-24.85-1.16-49.79,22.34-62.69,22.55-12.37,54.04-14.48,75.83.63,2.53,1.75,4.84,3.47,2.49,6.75-7.95,4-13.91,11.72-16.93,19.99-2.33,6.38-3.4,13.18-5.87,19.56-7.32,18.93-22.98,26.61-42.34,28.93-6.19.74-14.37,1.15-20.55.5-4.94-.52-4.29-6.82-.14-6.95,1.08-.03,2.59.29,3.69.32,16.19.36,36.89-1.76,47.54-15.48,8.3-10.69,7.83-24.36,14.23-35.82,2.86-5.11,6.77-10.1,11.53-13.5Z"/>
      <path class="cls-1" d="M144.07,66.77l-.1-.33c-6.9-3.9-14.61-6.5-22.51-7.42-17.98-2.1-43.92,4.41-55.94,18.69-8.89,10.57-10.88,24.63-8.43,37.98,8.38-11.06,20.76-18.78,33.65-23.61,1.82-.68,6.7-2.58,8.4-2.61,3.66-.08,4.8,5.14,1.42,6.61-1.75.76-4.24,1.27-6.14,1.96-20.9,7.56-41.73,22.92-37.61,47.98.27,1.62,1.19,4.08.77,5.56-.55,1.93-2.61,2.92-4.49,2.21-1.99-.76-2.17-2.52-2.59-4.37-1.87-8.18-1.36-17.08,1.74-24.89-7.08-24.85-1.16-49.79,22.34-62.69,22.55-12.37,54.04-14.48,75.83.63,2.53,1.75,4.84,3.47,2.49,6.75-7.95,4-13.91,11.72-16.93,19.99-2.33,6.38-3.4,13.18-5.87,19.56-7.32,18.93-22.98,26.61-42.34,28.93-6.19.74-14.37,1.15-20.55.5-4.94-.52-4.29-6.82-.14-6.95,1.08-.03,2.59.29,3.69.32,16.19.36,36.89-1.76,47.54-15.48,8.3-10.69,7.83-24.36,14.23-35.82,2.86-5.11,6.77-10.1,11.53-13.5Z"/>
      <path class="cls-1" d="M144.21,66.88l-.1-.33c-6.9-3.9-14.61-6.5-22.51-7.42-17.98-2.1-43.92,4.41-55.94,18.69-8.89,10.57-10.88,24.63-8.43,37.98,8.38-11.06,20.76-18.78,33.65-23.61,1.82-.68,6.7-2.58,8.4-2.61,3.66-.08,4.8,5.14,1.42,6.61-1.75.76-4.24,1.27-6.14,1.96-20.9,7.56-41.73,22.92-37.61,47.98.27,1.62,1.19,4.08.77,5.56-.55,1.93-2.61,2.92-4.49,2.21-1.99-.76-2.17-2.52-2.59-4.37-1.87-8.18-1.36-17.08,1.74-24.89-7.08-24.85-1.16-49.79,22.34-62.69,22.55-12.37,54.04-14.48,75.83.63,2.53,1.75,4.84,3.47,2.49,6.75-7.95,4-13.91,11.72-16.93,19.99-2.33,6.38-3.4,13.18-5.87,19.56-7.32,18.93-22.98,26.61-42.34,28.93-6.19.74-14.37,1.15-20.55.5-4.94-.52-4.29-6.82-.14-6.95,1.08-.03,2.59.29,3.69.32,16.19.36,36.89-1.76,47.54-15.48,8.3-10.69,7.83-24.36,14.23-35.82,2.86-5.11,6.77-10.1,11.53-13.5Z"/>
      <path class="cls-1" d="M144.36,66.99l-.1-.33c-6.9-3.9-14.61-6.5-22.51-7.42-17.98-2.1-43.92,4.41-55.94,18.69-8.89,10.57-10.88,24.63-8.43,37.98,8.38-11.06,20.76-18.78,33.65-23.61,1.82-.68,6.7-2.58,8.4-2.61,3.66-.08,4.8,5.14,1.42,6.61-1.75.76-4.24,1.27-6.14,1.96-20.9,7.56-41.73,22.92-37.61,47.98.27,1.62,1.19,4.08.77,5.56-.55,1.93-2.61,2.92-4.49,2.21-1.99-.76-2.17-2.52-2.59-4.37-1.87-8.18-1.36-17.08,1.74-24.89-7.08-24.85-1.16-49.79,22.34-62.69,22.55-12.37,54.04-14.48,75.83.63,2.53,1.75,4.84,3.47,2.49,6.75-7.95,4-13.91,11.72-16.93,19.99-2.33,6.38-3.4,13.18-5.87,19.56-7.32,18.93-22.98,26.61-42.34,28.93-6.19.74-14.37,1.15-20.55.5-4.94-.52-4.29-6.82-.14-6.95,1.08-.03,2.59.29,3.69.32,16.19.36,36.89-1.76,47.54-15.48,8.3-10.69,7.83-24.36,14.23-35.82,2.86-5.11,6.77-10.1,11.53-13.5Z"/>
      <path class="cls-1" d="M144.5,67.1l-.1-.33c-6.9-3.9-14.61-6.5-22.51-7.42-17.98-2.1-43.92,4.41-55.94,18.69-8.89,10.57-10.88,24.63-8.43,37.98,8.38-11.06,20.76-18.78,33.65-23.61,1.82-.68,6.7-2.58,8.4-2.61,3.66-.08,4.8,5.14,1.42,6.61-1.75.76-4.24,1.27-6.14,1.96-20.9,7.56-41.73,22.92-37.61,47.98.27,1.62,1.19,4.08.77,5.56-.55,1.93-2.61,2.92-4.49,2.21-1.99-.76-2.17-2.52-2.59-4.37-1.87-8.18-1.36-17.08,1.74-24.89-7.08-24.85-1.16-49.79,22.34-62.69,22.55-12.37,54.04-14.48,75.83.63,2.53,1.75,4.84,3.47,2.49,6.75-7.95,4-13.91,11.72-16.93,19.99-2.33,6.38-3.4,13.18-5.87,19.56-7.32,18.93-22.98,26.61-42.34,28.93-6.19.74-14.37,1.15-20.55.5-4.94-.52-4.29-6.82-.14-6.95,1.08-.03,2.59.29,3.69.32,16.19.36,36.89-1.76,47.54-15.48,8.3-10.69,7.83-24.36,14.23-35.82,2.86-5.11,6.77-10.1,11.53-13.5Z"/>
      <path class="cls-1" d="M144.64,67.22l-.1-.33c-6.9-3.9-14.61-6.5-22.51-7.42-17.98-2.1-43.92,4.41-55.94,18.69-8.89,10.57-10.88,24.63-8.43,37.98,8.38-11.06,20.76-18.78,33.65-23.61,1.82-.68,6.7-2.58,8.4-2.61,3.66-.08,4.8,5.14,1.42,6.61-1.75.76-4.24,1.27-6.14,1.96-20.9,7.56-41.73,22.92-37.61,47.98.27,1.62,1.19,4.08.77,5.56-.55,1.93-2.61,2.92-4.49,2.21-1.99-.76-2.17-2.52-2.59-4.37-1.87-8.18-1.36-17.08,1.74-24.89-7.08-24.85-1.16-49.79,22.34-62.69,22.55-12.37,54.04-14.48,75.83.63,2.53,1.75,4.84,3.47,2.49,6.75-7.95,4-13.91,11.72-16.93,19.99-2.33,6.38-3.4,13.18-5.87,19.56-7.32,18.93-22.98,26.61-42.34,28.93-6.19.74-14.37,1.15-20.55.5-4.94-.52-4.29-6.82-.14-6.95,1.08-.03,2.59.29,3.69.32,16.19.36,36.89-1.76,47.54-15.48,8.3-10.69,7.83-24.36,14.23-35.82,2.86-5.11,6.77-10.1,11.53-13.5Z"/>
      <path class="cls-1" d="M144.78,67.33l-.1-.33c-6.9-3.9-14.61-6.5-22.51-7.42-17.98-2.1-43.92,4.41-55.94,18.69-8.89,10.57-10.88,24.63-8.43,37.98,8.38-11.06,20.76-18.78,33.65-23.61,1.82-.68,6.7-2.58,8.4-2.61,3.66-.08,4.8,5.14,1.42,6.61-1.75.76-4.24,1.27-6.14,1.96-20.9,7.56-41.73,22.92-37.61,47.98.27,1.62,1.19,4.08.77,5.56-.55,1.93-2.61,2.92-4.49,2.21-1.99-.76-2.17-2.52-2.59-4.37-1.87-8.18-1.36-17.08,1.74-24.89-7.08-24.85-1.16-49.79,22.34-62.69,22.55-12.37,54.04-14.48,75.83.63,2.53,1.75,4.84,3.47,2.49,6.75-7.95,4-13.91,11.72-16.93,19.99-2.33,6.38-3.4,13.18-5.87,19.56-7.32,18.93-22.98,26.61-42.34,28.93-6.19.74-14.37,1.15-20.55.5-4.94-.52-4.29-6.82-.14-6.95,1.08-.03,2.59.29,3.69.32,16.19.36,36.89-1.76,47.54-15.48,8.3-10.69,7.83-24.36,14.23-35.82,2.86-5.11,6.77-10.1,11.53-13.5Z"/>
      <path class="cls-1" d="M144.93,67.44l-.1-.33c-6.9-3.9-14.61-6.5-22.51-7.42-17.98-2.1-43.92,4.41-55.94,18.69-8.89,10.57-10.88,24.63-8.43,37.98,8.38-11.06,20.76-18.78,33.65-23.61,1.82-.68,6.7-2.58,8.4-2.61,3.66-.08,4.8,5.14,1.42,6.61-1.75.76-4.24,1.27-6.14,1.96-20.9,7.56-41.73,22.92-37.61,47.98.27,1.62,1.19,4.08.77,5.56-.55,1.93-2.61,2.92-4.49,2.21-1.99-.76-2.17-2.52-2.59-4.37-1.87-8.18-1.36-17.08,1.74-24.89-7.08-24.85-1.16-49.79,22.34-62.69,22.55-12.37,54.04-14.48,75.83.63,2.53,1.75,4.84,3.47,2.49,6.75-7.95,4-13.91,11.72-16.93,19.99-2.33,6.38-3.4,13.18-5.87,19.56-7.32,18.93-22.98,26.61-42.34,28.93-6.19.74-14.37,1.15-20.55.5-4.94-.52-4.29-6.82-.14-6.95,1.08-.03,2.59.29,3.69.32,16.19.36,36.89-1.76,47.54-15.48,8.3-10.69,7.83-24.36,14.23-35.82,2.86-5.11,6.77-10.1,11.53-13.5Z"/>
      <path class="cls-1" d="M145.07,67.55l-.1-.33c-6.9-3.9-14.61-6.5-22.51-7.42-17.98-2.1-43.92,4.41-55.94,18.69-8.89,10.57-10.88,24.63-8.43,37.98,8.38-11.06,20.76-18.78,33.65-23.61,1.82-.68,6.7-2.58,8.4-2.61,3.66-.08,4.8,5.14,1.42,6.61-1.75.76-4.24,1.27-6.14,1.96-20.9,7.56-41.73,22.92-37.61,47.98.27,1.62,1.19,4.08.77,5.56-.55,1.93-2.61,2.92-4.49,2.21-1.99-.76-2.17-2.52-2.59-4.37-1.87-8.18-1.36-17.08,1.74-24.89-7.08-24.85-1.16-49.79,22.34-62.69,22.55-12.37,54.04-14.48,75.83.63,2.53,1.75,4.84,3.47,2.49,6.75-7.95,4-13.91,11.72-16.93,19.99-2.33,6.38-3.4,13.18-5.87,19.56-7.32,18.93-22.98,26.61-42.34,28.93-6.19.74-14.37,1.15-20.55.5-4.94-.52-4.29-6.82-.14-6.95,1.08-.03,2.59.29,3.69.32,16.19.36,36.89-1.76,47.54-15.48,8.3-10.69,7.83-24.36,14.23-35.82,2.86-5.11,6.77-10.1,11.53-13.5Z"/>
      <path class="cls-1" d="M145.21,67.67l-.1-.33c-6.9-3.9-14.61-6.5-22.51-7.42-17.98-2.1-43.92,4.41-55.94,18.69-8.89,10.57-10.88,24.63-8.43,37.98,8.38-11.06,20.76-18.78,33.65-23.61,1.82-.68,6.7-2.58,8.4-2.61,3.66-.08,4.8,5.14,1.42,6.61-1.75.76-4.24,1.27-6.14,1.96-20.9,7.56-41.73,22.92-37.61,47.98.27,1.62,1.19,4.08.77,5.56-.55,1.93-2.61,2.92-4.49,2.21-1.99-.76-2.17-2.52-2.59-4.37-1.87-8.18-1.36-17.08,1.74-24.89-7.08-24.85-1.16-49.79,22.34-62.69,22.55-12.37,54.04-14.48,75.83.63,2.53,1.75,4.84,3.47,2.49,6.75-7.95,4-13.91,11.72-16.93,19.99-2.33,6.38-3.4,13.18-5.87,19.56-7.32,18.93-22.98,26.61-42.34,28.93-6.19.74-14.37,1.15-20.55.5-4.94-.52-4.29-6.82-.14-6.95,1.08-.03,2.59.29,3.69.32,16.19.36,36.89-1.76,47.54-15.48,8.3-10.69,7.83-24.36,14.23-35.82,2.86-5.11,6.77-10.1,11.53-13.5Z"/>
      <path class="cls-1" d="M145.36,67.78l-.1-.33c-6.9-3.9-14.61-6.5-22.51-7.42-17.98-2.1-43.92,4.41-55.94,18.69-8.89,10.57-10.88,24.63-8.43,37.98,8.38-11.06,20.76-18.78,33.65-23.61,1.82-.68,6.7-2.58,8.4-2.61,3.66-.08,4.8,5.14,1.42,6.61-1.75.76-4.24,1.27-6.14,1.96-20.9,7.56-41.73,22.92-37.61,47.98.27,1.62,1.19,4.08.77,5.56-.55,1.93-2.61,2.92-4.49,2.21-1.99-.76-2.17-2.52-2.59-4.37-1.87-8.18-1.36-17.08,1.74-24.89-7.08-24.85-1.16-49.79,22.34-62.69,22.55-12.37,54.04-14.48,75.83.63,2.53,1.75,4.84,3.47,2.49,6.75-7.95,4-13.91,11.72-16.93,19.99-2.33,6.38-3.4,13.18-5.87,19.56-7.32,18.93-22.98,26.61-42.34,28.93-6.19.74-14.37,1.15-20.55.5-4.94-.52-4.29-6.82-.14-6.95,1.08-.03,2.59.29,3.69.32,16.19.36,36.89-1.76,47.54-15.48,8.3-10.69,7.83-24.36,14.23-35.82,2.86-5.11,6.77-10.1,11.53-13.5Z"/>
      <path class="cls-1" d="M145.5,67.89l-.1-.33c-6.9-3.9-14.61-6.5-22.51-7.42-17.98-2.1-43.92,4.41-55.94,18.69-8.89,10.57-10.88,24.63-8.43,37.98,8.38-11.06,20.76-18.78,33.65-23.61,1.82-.68,6.7-2.58,8.4-2.61,3.66-.08,4.8,5.14,1.42,6.61-1.75.76-4.24,1.27-6.14,1.96-20.9,7.56-41.73,22.92-37.61,47.98.27,1.62,1.19,4.08.77,5.56-.55,1.93-2.61,2.92-4.49,2.21-1.99-.76-2.17-2.52-2.59-4.37-1.87-8.18-1.36-17.08,1.74-24.89-7.08-24.85-1.16-49.79,22.34-62.69,22.55-12.37,54.04-14.48,75.83.63,2.53,1.75,4.84,3.47,2.49,6.75-7.95,4-13.91,11.72-16.93,19.99-2.33,6.38-3.4,13.18-5.87,19.56-7.32,18.93-22.98,26.61-42.34,28.93-6.19.74-14.37,1.15-20.55.5-4.94-.52-4.29-6.82-.14-6.95,1.08-.03,2.59.29,3.69.32,16.19.36,36.89-1.76,47.54-15.48,8.3-10.69,7.83-24.36,14.23-35.82,2.86-5.11,6.77-10.1,11.53-13.5Z"/>
      <path class="cls-1" d="M145.64,68l-.1-.33c-6.9-3.9-14.61-6.5-22.51-7.42-17.98-2.1-43.92,4.41-55.94,18.69-8.89,10.57-10.88,24.63-8.43,37.98,8.38-11.06,20.76-18.78,33.65-23.61,1.82-.68,6.7-2.58,8.4-2.61,3.66-.08,4.8,5.14,1.42,6.61-1.75.76-4.24,1.27-6.14,1.96-20.9,7.56-41.73,22.92-37.61,47.98.27,1.62,1.19,4.08.77,5.56-.55,1.93-2.61,2.92-4.49,2.21-1.99-.76-2.17-2.52-2.59-4.37-1.87-8.18-1.36-17.08,1.74-24.89-7.08-24.85-1.16-49.79,22.34-62.69,22.55-12.37,54.04-14.48,75.83.63,2.53,1.75,4.84,3.47,2.49,6.75-7.95,4-13.91,11.72-16.93,19.99-2.33,6.38-3.4,13.18-5.87,19.56-7.32,18.93-22.98,26.61-42.34,28.93-6.19.74-14.37,1.15-20.55.5-4.94-.52-4.29-6.82-.14-6.95,1.08-.03,2.59.29,3.69.32,16.19.36,36.89-1.76,47.54-15.48,8.3-10.69,7.83-24.36,14.23-35.82,2.86-5.11,6.77-10.1,11.53-13.5Z"/>
      <path class="cls-1" d="M145.79,68.12l-.1-.33c-6.9-3.9-14.61-6.5-22.51-7.42-17.98-2.1-43.92,4.41-55.94,18.69-8.89,10.57-10.88,24.63-8.43,37.98,8.38-11.06,20.76-18.78,33.65-23.61,1.82-.68,6.7-2.58,8.4-2.61,3.66-.08,4.8,5.14,1.42,6.61-1.75.76-4.24,1.27-6.14,1.96-20.9,7.56-41.73,22.92-37.61,47.98.27,1.62,1.19,4.08.77,5.56-.55,1.93-2.61,2.92-4.49,2.21-1.99-.76-2.17-2.52-2.59-4.37-1.87-8.18-1.36-17.08,1.74-24.89-7.08-24.85-1.16-49.79,22.34-62.69,22.55-12.37,54.04-14.48,75.83.63,2.53,1.75,4.84,3.47,2.49,6.75-7.95,4-13.91,11.72-16.93,19.99-2.33,6.38-3.4,13.18-5.87,19.56-7.32,18.93-22.98,26.61-42.34,28.93-6.19.74-14.37,1.15-20.55.5-4.94-.52-4.29-6.82-.14-6.95,1.08-.03,2.59.29,3.69.32,16.19.36,36.89-1.76,47.54-15.48,8.3-10.69,7.83-24.36,14.23-35.82,2.86-5.11,6.77-10.1,11.53-13.5Z"/>
      <path class="cls-1" d="M145.93,68.23l-.1-.33c-6.9-3.9-14.61-6.5-22.51-7.42-17.98-2.1-43.92,4.41-55.94,18.69-8.89,10.57-10.88,24.63-8.43,37.98,8.38-11.06,20.76-18.78,33.65-23.61,1.82-.68,6.7-2.58,8.4-2.61,3.66-.08,4.8,5.14,1.42,6.61-1.75.76-4.24,1.27-6.14,1.96-20.9,7.56-41.73,22.92-37.61,47.98.27,1.62,1.19,4.08.77,5.56-.55,1.93-2.61,2.92-4.49,2.21-1.99-.76-2.17-2.52-2.59-4.37-1.87-8.18-1.36-17.08,1.74-24.89-7.08-24.85-1.16-49.79,22.34-62.69,22.55-12.37,54.04-14.48,75.83.63,2.53,1.75,4.84,3.47,2.49,6.75-7.95,4-13.91,11.72-16.93,19.99-2.33,6.38-3.4,13.18-5.87,19.56-7.32,18.93-22.98,26.61-42.34,28.93-6.19.74-14.37,1.15-20.55.5-4.94-.52-4.29-6.82-.14-6.95,1.08-.03,2.59.29,3.69.32,16.19.36,36.89-1.76,47.54-15.48,8.3-10.69,7.83-24.36,14.23-35.82,2.86-5.11,6.77-10.1,11.53-13.5Z"/>
      <path class="cls-1" d="M146.07,68.34l-.1-.33c-6.9-3.9-14.61-6.5-22.51-7.42-17.98-2.1-43.92,4.41-55.94,18.69-8.89,10.57-10.88,24.63-8.43,37.98,8.38-11.06,20.76-18.78,33.65-23.61,1.82-.68,6.7-2.58,8.4-2.61,3.66-.08,4.8,5.14,1.42,6.61-1.75.76-4.24,1.27-6.14,1.96-20.9,7.56-41.73,22.92-37.61,47.98.27,1.62,1.19,4.08.77,5.56-.55,1.93-2.61,2.92-4.49,2.21-1.99-.76-2.17-2.52-2.59-4.37-1.87-8.18-1.36-17.08,1.74-24.89-7.08-24.85-1.16-49.79,22.34-62.69,22.55-12.37,54.04-14.48,75.83.63,2.53,1.75,4.84,3.47,2.49,6.75-7.95,4-13.91,11.72-16.93,19.99-2.33,6.38-3.4,13.18-5.87,19.56-7.32,18.93-22.98,26.61-42.34,28.93-6.19.74-14.37,1.15-20.55.5-4.94-.52-4.29-6.82-.14-6.95,1.08-.03,2.59.29,3.69.32,16.19.36,36.89-1.76,47.54-15.48,8.3-10.69,7.83-24.36,14.23-35.82,2.86-5.11,6.77-10.1,11.53-13.5Z"/>
      <path class="cls-1" d="M146.22,68.45l-.1-.33c-6.9-3.9-14.61-6.5-22.51-7.42-17.98-2.1-43.92,4.41-55.94,18.69-8.89,10.57-10.88,24.63-8.43,37.98,8.38-11.06,20.76-18.78,33.65-23.61,1.82-.68,6.7-2.58,8.4-2.61,3.66-.08,4.8,5.14,1.42,6.61-1.75.76-4.24,1.27-6.14,1.96-20.9,7.56-41.73,22.92-37.61,47.98.27,1.62,1.19,4.08.77,5.56-.55,1.93-2.61,2.92-4.49,2.21-1.99-.76-2.17-2.52-2.59-4.37-1.87-8.18-1.36-17.08,1.74-24.89-7.08-24.85-1.16-49.79,22.34-62.69,22.55-12.37,54.04-14.48,75.83.63,2.53,1.75,4.84,3.47,2.49,6.75-7.95,4-13.91,11.72-16.93,19.99-2.33,6.38-3.4,13.18-5.87,19.56-7.32,18.93-22.98,26.61-42.34,28.93-6.19.74-14.37,1.15-20.55.5-4.94-.52-4.29-6.82-.14-6.95,1.08-.03,2.59.29,3.69.32,16.19.36,36.89-1.76,47.54-15.48,8.3-10.69,7.83-24.36,14.23-35.82,2.86-5.11,6.77-10.1,11.53-13.5Z"/>
      <path class="cls-1" d="M146.36,68.57l-.1-.33c-6.9-3.9-14.61-6.5-22.51-7.42-17.98-2.1-43.92,4.41-55.94,18.69-8.89,10.57-10.88,24.63-8.43,37.98,8.38-11.06,20.76-18.78,33.65-23.61,1.82-.68,6.7-2.58,8.4-2.61,3.66-.08,4.8,5.14,1.42,6.61-1.75.76-4.24,1.27-6.14,1.96-20.9,7.56-41.73,22.92-37.61,47.98.27,1.62,1.19,4.08.77,5.56-.55,1.93-2.61,2.92-4.49,2.21-1.99-.76-2.17-2.52-2.59-4.37-1.87-8.18-1.36-17.08,1.74-24.89-7.08-24.85-1.16-49.79,22.34-62.69,22.55-12.37,54.04-14.48,75.83.63,2.53,1.75,4.84,3.47,2.49,6.75-7.95,4-13.91,11.72-16.93,19.99-2.33,6.38-3.4,13.18-5.87,19.56-7.32,18.93-22.98,26.61-42.34,28.93-6.19.74-14.37,1.15-20.55.5-4.94-.52-4.29-6.82-.14-6.95,1.08-.03,2.59.29,3.69.32,16.19.36,36.89-1.76,47.54-15.48,8.3-10.69,7.83-24.36,14.23-35.82,2.86-5.11,6.77-10.1,11.53-13.5Z"/>
      <path class="cls-1" d="M146.5,68.68l-.1-.33c-6.9-3.9-14.61-6.5-22.51-7.42-17.98-2.1-43.92,4.41-55.94,18.69-8.89,10.57-10.88,24.63-8.43,37.98,8.38-11.06,20.76-18.78,33.65-23.61,1.82-.68,6.7-2.58,8.4-2.61,3.66-.08,4.8,5.14,1.42,6.61-1.75.76-4.24,1.27-6.14,1.96-20.9,7.56-41.73,22.92-37.61,47.98.27,1.62,1.19,4.08.77,5.56-.55,1.93-2.61,2.92-4.49,2.21-1.99-.76-2.17-2.52-2.59-4.37-1.87-8.18-1.36-17.08,1.74-24.89-7.08-24.85-1.16-49.79,22.34-62.69,22.55-12.37,54.04-14.48,75.83.63,2.53,1.75,4.84,3.47,2.49,6.75-7.95,4-13.91,11.72-16.93,19.99-2.33,6.38-3.4,13.18-5.87,19.56-7.32,18.93-22.98,26.61-42.34,28.93-6.19.74-14.37,1.15-20.55.5-4.94-.52-4.29-6.82-.14-6.95,1.08-.03,2.59.29,3.69.32,16.19.36,36.89-1.76,47.54-15.48,8.3-10.69,7.83-24.36,14.23-35.82,2.86-5.11,6.77-10.1,11.53-13.5Z"/>
      <path class="cls-1" d="M146.65,68.79l-.1-.33c-6.9-3.9-14.61-6.5-22.51-7.42-17.98-2.1-43.92,4.41-55.94,18.69-8.89,10.57-10.88,24.63-8.43,37.98,8.38-11.06,20.76-18.78,33.65-23.61,1.82-.68,6.7-2.58,8.4-2.61,3.66-.08,4.8,5.14,1.42,6.61-1.75.76-4.24,1.27-6.14,1.96-20.9,7.56-41.73,22.92-37.61,47.98.27,1.62,1.19,4.08.77,5.56-.55,1.93-2.61,2.92-4.49,2.21-1.99-.76-2.17-2.52-2.59-4.37-1.87-8.18-1.36-17.08,1.74-24.89-7.08-24.85-1.16-49.79,22.34-62.69,22.55-12.37,54.04-14.48,75.83.63,2.53,1.75,4.84,3.47,2.49,6.75-7.95,4-13.91,11.72-16.93,19.99-2.33,6.38-3.4,13.18-5.87,19.56-7.32,18.93-22.98,26.61-42.34,28.93-6.19.74-14.37,1.15-20.55.5-4.94-.52-4.29-6.82-.14-6.95,1.08-.03,2.59.29,3.69.32,16.19.36,36.89-1.76,47.54-15.48,8.3-10.69,7.83-24.36,14.23-35.82,2.86-5.11,6.77-10.1,11.53-13.5Z"/>
      <path class="cls-1" d="M146.79,68.9l-.1-.33c-6.9-3.9-14.61-6.5-22.51-7.42-17.98-2.1-43.92,4.41-55.94,18.69-8.89,10.57-10.88,24.63-8.43,37.98,8.38-11.06,20.76-18.78,33.65-23.61,1.82-.68,6.7-2.58,8.4-2.61,3.66-.08,4.8,5.14,1.42,6.61-1.75.76-4.24,1.27-6.14,1.96-20.9,7.56-41.73,22.92-37.61,47.98.27,1.62,1.19,4.08.77,5.56-.55,1.93-2.61,2.92-4.49,2.21-1.99-.76-2.17-2.52-2.59-4.37-1.87-8.18-1.36-17.08,1.74-24.89-7.08-24.85-1.16-49.79,22.34-62.69,22.55-12.37,54.04-14.48,75.83.63,2.53,1.75,4.84,3.47,2.49,6.75-7.95,4-13.91,11.72-16.93,19.99-2.33,6.38-3.4,13.18-5.87,19.56-7.32,18.93-22.98,26.61-42.34,28.93-6.19.74-14.37,1.15-20.55.5-4.94-.52-4.29-6.82-.14-6.95,1.08-.03,2.59.29,3.69.32,16.19.36,36.89-1.76,47.54-15.48,8.3-10.69,7.83-24.36,14.23-35.82,2.86-5.11,6.77-10.1,11.53-13.5Z"/>
      <path class="cls-1" d="M146.93,69.02l-.1-.33c-6.9-3.9-14.61-6.5-22.51-7.42-17.98-2.1-43.92,4.41-55.94,18.69-8.89,10.57-10.88,24.63-8.43,37.98,8.38-11.06,20.76-18.78,33.65-23.61,1.82-.68,6.7-2.58,8.4-2.61,3.66-.08,4.8,5.14,1.42,6.61-1.75.76-4.24,1.27-6.14,1.96-20.9,7.56-41.73,22.92-37.61,47.98.27,1.62,1.19,4.08.77,5.56-.55,1.93-2.61,2.92-4.49,2.21-1.99-.76-2.17-2.52-2.59-4.37-1.87-8.18-1.36-17.08,1.74-24.89-7.08-24.85-1.16-49.79,22.34-62.69,22.55-12.37,54.04-14.48,75.83.63,2.53,1.75,4.84,3.47,2.49,6.75-7.95,4-13.91,11.72-16.93,19.99-2.33,6.38-3.4,13.18-5.87,19.56-7.32,18.93-22.98,26.61-42.34,28.93-6.19.74-14.37,1.15-20.55.5-4.94-.52-4.29-6.82-.14-6.95,1.08-.03,2.59.29,3.69.32,16.19.36,36.89-1.76,47.54-15.48,8.3-10.69,7.83-24.36,14.23-35.82,2.86-5.11,6.77-10.1,11.53-13.5Z"/>
      <path class="cls-1" d="M147.08,69.13l-.1-.33c-6.9-3.9-14.61-6.5-22.51-7.42-17.98-2.1-43.92,4.41-55.94,18.69-8.89,10.57-10.88,24.63-8.43,37.98,8.38-11.06,20.76-18.78,33.65-23.61,1.82-.68,6.7-2.58,8.4-2.61,3.66-.08,4.8,5.14,1.42,6.61-1.75.76-4.24,1.27-6.14,1.96-20.9,7.56-41.73,22.92-37.61,47.98.27,1.62,1.19,4.08.77,5.56-.55,1.93-2.61,2.92-4.49,2.21-1.99-.76-2.17-2.52-2.59-4.37-1.87-8.18-1.36-17.08,1.74-24.89-7.08-24.85-1.16-49.79,22.34-62.69,22.55-12.37,54.04-14.48,75.83.63,2.53,1.75,4.84,3.47,2.49,6.75-7.95,4-13.91,11.72-16.93,19.99-2.33,6.38-3.4,13.18-5.87,19.56-7.32,18.93-22.98,26.61-42.34,28.93-6.19.74-14.37,1.15-20.55.5-4.94-.52-4.29-6.82-.14-6.95,1.08-.03,2.59.29,3.69.32,16.19.36,36.89-1.76,47.54-15.48,8.3-10.69,7.83-24.36,14.23-35.82,2.86-5.11,6.77-10.1,11.53-13.5Z"/>
      <path class="cls-1" d="M147.22,69.24l-.1-.33c-6.9-3.9-14.61-6.5-22.51-7.42-17.98-2.1-43.92,4.41-55.94,18.69-8.89,10.57-10.88,24.63-8.43,37.98,8.38-11.06,20.76-18.78,33.65-23.61,1.82-.68,6.7-2.58,8.4-2.61,3.66-.08,4.8,5.14,1.42,6.61-1.75.76-4.24,1.27-6.14,1.96-20.9,7.56-41.73,22.92-37.61,47.98.27,1.62,1.19,4.08.77,5.56-.55,1.93-2.61,2.92-4.49,2.21-1.99-.76-2.17-2.52-2.59-4.37-1.87-8.18-1.36-17.08,1.74-24.89-7.08-24.85-1.16-49.79,22.34-62.69,22.55-12.37,54.04-14.48,75.83.63,2.53,1.75,4.84,3.47,2.49,6.75-7.95,4-13.91,11.72-16.93,19.99-2.33,6.38-3.4,13.18-5.87,19.56-7.32,18.93-22.98,26.61-42.34,28.93-6.19.74-14.37,1.15-20.55.5-4.94-.52-4.29-6.82-.14-6.95,1.08-.03,2.59.29,3.69.32,16.19.36,36.89-1.76,47.54-15.48,8.3-10.69,7.83-24.36,14.23-35.82,2.86-5.11,6.77-10.1,11.53-13.5Z"/>
      <path class="cls-1" d="M147.36,69.35l-.1-.33c-6.9-3.9-14.61-6.5-22.51-7.42-17.98-2.1-43.92,4.41-55.94,18.69-8.89,10.57-10.88,24.63-8.43,37.98,8.38-11.06,20.76-18.78,33.65-23.61,1.82-.68,6.7-2.58,8.4-2.61,3.66-.08,4.8,5.14,1.42,6.61-1.75.76-4.24,1.27-6.14,1.96-20.9,7.56-41.73,22.92-37.61,47.98.27,1.62,1.19,4.08.77,5.56-.55,1.93-2.61,2.92-4.49,2.21-1.99-.76-2.17-2.52-2.59-4.37-1.87-8.18-1.36-17.08,1.74-24.89-7.08-24.85-1.16-49.79,22.34-62.69,22.55-12.37,54.04-14.48,75.83.63,2.53,1.75,4.84,3.47,2.49,6.75-7.95,4-13.91,11.72-16.93,19.99-2.33,6.38-3.4,13.18-5.87,19.56-7.32,18.93-22.98,26.61-42.34,28.93-6.19.74-14.37,1.15-20.55.5-4.94-.52-4.29-6.82-.14-6.95,1.08-.03,2.59.29,3.69.32,16.19.36,36.89-1.76,47.54-15.48,8.3-10.69,7.83-24.36,14.23-35.82,2.86-5.11,6.77-10.1,11.53-13.5Z"/>
      <path class="cls-1" d="M147.51,69.47l-.1-.33c-6.9-3.9-14.61-6.5-22.51-7.42-17.98-2.1-43.92,4.41-55.94,18.69-8.89,10.57-10.88,24.63-8.43,37.98,8.38-11.06,20.76-18.78,33.65-23.61,1.82-.68,6.7-2.58,8.4-2.61,3.66-.08,4.8,5.14,1.42,6.61-1.75.76-4.24,1.27-6.14,1.96-20.9,7.56-41.73,22.92-37.61,47.98.27,1.62,1.19,4.08.77,5.56-.55,1.93-2.61,2.92-4.49,2.21-1.99-.76-2.17-2.52-2.59-4.37-1.87-8.18-1.36-17.08,1.74-24.89-7.08-24.85-1.16-49.79,22.34-62.69,22.55-12.37,54.04-14.48,75.83.63,2.53,1.75,4.84,3.47,2.49,6.75-7.95,4-13.91,11.72-16.93,19.99-2.33,6.38-3.4,13.18-5.87,19.56-7.32,18.93-22.98,26.61-42.34,28.93-6.19.74-14.37,1.15-20.55.5-4.94-.52-4.29-6.82-.14-6.95,1.08-.03,2.59.29,3.69.32,16.19.36,36.89-1.76,47.54-15.48,8.3-10.69,7.83-24.36,14.23-35.82,2.86-5.11,6.77-10.1,11.53-13.5Z"/>
      <path class="cls-1" d="M147.65,69.58l-.1-.33c-6.9-3.9-14.61-6.5-22.51-7.42-17.98-2.1-43.92,4.41-55.94,18.69-8.89,10.57-10.88,24.63-8.43,37.98,8.38-11.06,20.76-18.78,33.65-23.61,1.82-.68,6.7-2.58,8.4-2.61,3.66-.08,4.8,5.14,1.42,6.61-1.75.76-4.24,1.27-6.14,1.96-20.9,7.56-41.73,22.92-37.61,47.98.27,1.62,1.19,4.08.77,5.56-.55,1.93-2.61,2.92-4.49,2.21-1.99-.76-2.17-2.52-2.59-4.37-1.87-8.18-1.36-17.08,1.74-24.89-7.08-24.85-1.16-49.79,22.34-62.69,22.55-12.37,54.04-14.48,75.83.63,2.53,1.75,4.84,3.47,2.49,6.75-7.95,4-13.91,11.72-16.93,19.99-2.33,6.38-3.4,13.18-5.87,19.56-7.32,18.93-22.98,26.61-42.34,28.93-6.19.74-14.37,1.15-20.55.5-4.94-.52-4.29-6.82-.14-6.95,1.08-.03,2.59.29,3.69.32,16.19.36,36.89-1.76,47.54-15.48,8.3-10.69,7.83-24.36,14.23-35.82,2.86-5.11,6.77-10.1,11.53-13.5Z"/>
      <path class="cls-1" d="M147.79,69.69l-.1-.33c-6.9-3.9-14.61-6.5-22.51-7.42-17.98-2.1-43.92,4.41-55.94,18.69-8.89,10.57-10.88,24.63-8.43,37.98,8.38-11.06,20.76-18.78,33.65-23.61,1.82-.68,6.7-2.58,8.4-2.61,3.66-.08,4.8,5.14,1.42,6.61-1.75.76-4.24,1.27-6.14,1.96-20.9,7.56-41.73,22.92-37.61,47.98.27,1.62,1.19,4.08.77,5.56-.55,1.93-2.61,2.92-4.49,2.21-1.99-.76-2.17-2.52-2.59-4.37-1.87-8.18-1.36-17.08,1.74-24.89-7.08-24.85-1.16-49.79,22.34-62.69,22.55-12.37,54.04-14.48,75.83.63,2.53,1.75,4.84,3.47,2.49,6.75-7.95,4-13.91,11.72-16.93,19.99-2.33,6.38-3.4,13.18-5.87,19.56-7.32,18.93-22.98,26.61-42.34,28.93-6.19.74-14.37,1.15-20.55.5-4.94-.52-4.29-6.82-.14-6.95,1.08-.03,2.59.29,3.69.32,16.19.36,36.89-1.76,47.54-15.48,8.3-10.69,7.83-24.36,14.23-35.82,2.86-5.11,6.77-10.1,11.53-13.5Z"/>
      <path class="cls-1" d="M147.93,69.8l-.1-.33c-6.9-3.9-14.61-6.5-22.51-7.42-17.98-2.1-43.92,4.41-55.94,18.69-8.89,10.57-10.88,24.63-8.43,37.98,8.38-11.06,20.76-18.78,33.65-23.61,1.82-.68,6.7-2.58,8.4-2.61,3.66-.08,4.8,5.14,1.42,6.61-1.75.76-4.24,1.27-6.14,1.96-20.9,7.56-41.73,22.92-37.61,47.98.27,1.62,1.19,4.08.77,5.56-.55,1.93-2.61,2.92-4.49,2.21-1.99-.76-2.17-2.52-2.59-4.37-1.87-8.18-1.36-17.08,1.74-24.89-7.08-24.85-1.16-49.79,22.34-62.69,22.55-12.37,54.04-14.48,75.83.63,2.53,1.75,4.84,3.47,2.49,6.75-7.95,4-13.91,11.72-16.93,19.99-2.33,6.38-3.4,13.18-5.87,19.56-7.32,18.93-22.98,26.61-42.34,28.93-6.19.74-14.37,1.15-20.55.5-4.94-.52-4.29-6.82-.14-6.95,1.08-.03,2.59.29,3.69.32,16.19.36,36.89-1.76,47.54-15.48,8.3-10.69,7.83-24.36,14.23-35.82,2.86-5.11,6.77-10.1,11.53-13.5Z"/>
      <path class="cls-1" d="M148.08,69.92l-.1-.33c-6.9-3.9-14.61-6.5-22.51-7.42-17.98-2.1-43.92,4.41-55.94,18.69-8.89,10.57-10.88,24.63-8.43,37.98,8.38-11.06,20.76-18.78,33.65-23.61,1.82-.68,6.7-2.58,8.4-2.61,3.66-.08,4.8,5.14,1.42,6.61-1.75.76-4.24,1.27-6.14,1.96-20.9,7.56-41.73,22.92-37.61,47.98.27,1.62,1.19,4.08.77,5.56-.55,1.93-2.61,2.92-4.49,2.21-1.99-.76-2.17-2.52-2.59-4.37-1.87-8.18-1.36-17.08,1.74-24.89-7.08-24.85-1.16-49.79,22.34-62.69,22.55-12.37,54.04-14.48,75.83.63,2.53,1.75,4.84,3.47,2.49,6.75-7.95,4-13.91,11.72-16.93,19.99-2.33,6.38-3.4,13.18-5.87,19.56-7.32,18.93-22.98,26.61-42.34,28.93-6.19.74-14.37,1.15-20.55.5-4.94-.52-4.29-6.82-.14-6.95,1.08-.03,2.59.29,3.69.32,16.19.36,36.89-1.76,47.54-15.48,8.3-10.69,7.83-24.36,14.23-35.82,2.86-5.11,6.77-10.1,11.53-13.5Z"/>
      <path class="cls-1" d="M148.22,70.03l-.1-.33c-6.9-3.9-14.61-6.5-22.51-7.42-17.98-2.1-43.92,4.41-55.94,18.69-8.89,10.57-10.88,24.63-8.43,37.98,8.38-11.06,20.76-18.78,33.65-23.61,1.82-.68,6.7-2.58,8.4-2.61,3.66-.08,4.8,5.14,1.42,6.61-1.75.76-4.24,1.27-6.14,1.96-20.9,7.56-41.73,22.92-37.61,47.98.27,1.62,1.19,4.08.77,5.56-.55,1.93-2.61,2.92-4.49,2.21-1.99-.76-2.17-2.52-2.59-4.37-1.87-8.18-1.36-17.08,1.74-24.89-7.08-24.85-1.16-49.79,22.34-62.69,22.55-12.37,54.04-14.48,75.83.63,2.53,1.75,4.84,3.47,2.49,6.75-7.95,4-13.91,11.72-16.93,19.99-2.33,6.38-3.4,13.18-5.87,19.56-7.32,18.93-22.98,26.61-42.34,28.93-6.19.74-14.37,1.15-20.55.5-4.94-.52-4.29-6.82-.14-6.95,1.08-.03,2.59.29,3.69.32,16.19.36,36.89-1.76,47.54-15.48,8.3-10.69,7.83-24.36,14.23-35.82,2.86-5.11,6.77-10.1,11.53-13.5Z"/>
      <path class="cls-1" d="M148.36,70.14l-.1-.33c-6.9-3.9-14.61-6.5-22.51-7.42-17.98-2.1-43.92,4.41-55.94,18.69-8.89,10.57-10.88,24.63-8.43,37.98,8.38-11.06,20.76-18.78,33.65-23.61,1.82-.68,6.7-2.58,8.4-2.61,3.66-.08,4.8,5.14,1.42,6.61-1.75.76-4.24,1.27-6.14,1.96-20.9,7.56-41.73,22.92-37.61,47.98.27,1.62,1.19,4.08.77,5.56-.55,1.93-2.61,2.92-4.49,2.21-1.99-.76-2.17-2.52-2.59-4.37-1.87-8.18-1.36-17.08,1.74-24.89-7.08-24.85-1.16-49.79,22.34-62.69,22.55-12.37,54.04-14.48,75.83.63,2.53,1.75,4.84,3.47,2.49,6.75-7.95,4-13.91,11.72-16.93,19.99-2.33,6.38-3.4,13.18-5.87,19.56-7.32,18.93-22.98,26.61-42.34,28.93-6.19.74-14.37,1.15-20.55.5-4.94-.52-4.29-6.82-.14-6.95,1.08-.03,2.59.29,3.69.32,16.19.36,36.89-1.76,47.54-15.48,8.3-10.69,7.83-24.36,14.23-35.82,2.86-5.11,6.77-10.1,11.53-13.5Z"/>
      <path class="cls-1" d="M148.51,70.25l-.1-.33c-6.9-3.9-14.61-6.5-22.51-7.42-17.98-2.1-43.92,4.41-55.94,18.69-8.89,10.57-10.88,24.63-8.43,37.98,8.38-11.06,20.76-18.78,33.65-23.61,1.82-.68,6.7-2.58,8.4-2.61,3.66-.08,4.8,5.14,1.42,6.61-1.75.76-4.24,1.27-6.14,1.96-20.9,7.56-41.73,22.92-37.61,47.98.27,1.62,1.19,4.08.77,5.56-.55,1.93-2.61,2.92-4.49,2.21-1.99-.76-2.17-2.52-2.59-4.37-1.87-8.18-1.36-17.08,1.74-24.89-7.08-24.85-1.16-49.79,22.34-62.69,22.55-12.37,54.04-14.48,75.83.63,2.53,1.75,4.84,3.47,2.49,6.75-7.95,4-13.91,11.72-16.93,19.99-2.33,6.38-3.4,13.18-5.87,19.56-7.32,18.93-22.98,26.61-42.34,28.93-6.19.74-14.37,1.15-20.55.5-4.94-.52-4.29-6.82-.14-6.95,1.08-.03,2.59.29,3.69.32,16.19.36,36.89-1.76,47.54-15.48,8.3-10.69,7.83-24.36,14.23-35.82,2.86-5.11,6.77-10.1,11.53-13.5Z"/>
      <path class="cls-1" d="M148.65,70.37l-.1-.33c-6.9-3.9-14.61-6.5-22.51-7.42-17.98-2.1-43.92,4.41-55.94,18.69-8.89,10.57-10.88,24.63-8.43,37.98,8.38-11.06,20.76-18.78,33.65-23.61,1.82-.68,6.7-2.58,8.4-2.61,3.66-.08,4.8,5.14,1.42,6.61-1.75.76-4.24,1.27-6.14,1.96-20.9,7.56-41.73,22.92-37.61,47.98.27,1.62,1.19,4.08.77,5.56-.55,1.93-2.61,2.92-4.49,2.21-1.99-.76-2.17-2.52-2.59-4.37-1.87-8.18-1.36-17.08,1.74-24.89-7.08-24.85-1.16-49.79,22.34-62.69,22.55-12.37,54.04-14.48,75.83.63,2.53,1.75,4.84,3.47,2.49,6.75-7.95,4-13.91,11.72-16.93,19.99-2.33,6.38-3.4,13.18-5.87,19.56-7.32,18.93-22.98,26.61-42.34,28.93-6.19.74-14.37,1.15-20.55.5-4.94-.52-4.29-6.82-.14-6.95,1.08-.03,2.59.29,3.69.32,16.19.36,36.89-1.76,47.54-15.48,8.3-10.69,7.83-24.36,14.23-35.82,2.86-5.11,6.77-10.1,11.53-13.5Z"/>
      <path class="cls-1" d="M148.79,70.48l-.1-.33c-6.9-3.9-14.61-6.5-22.51-7.42-17.98-2.1-43.92,4.41-55.94,18.69-8.89,10.57-10.88,24.63-8.43,37.98,8.38-11.06,20.76-18.78,33.65-23.61,1.82-.68,6.7-2.58,8.4-2.61,3.66-.08,4.8,5.14,1.42,6.61-1.75.76-4.24,1.27-6.14,1.96-20.9,7.56-41.73,22.92-37.61,47.98.27,1.62,1.19,4.08.77,5.56-.55,1.93-2.61,2.92-4.49,2.21-1.99-.76-2.17-2.52-2.59-4.37-1.87-8.18-1.36-17.08,1.74-24.89-7.08-24.85-1.16-49.79,22.34-62.69s54.04-14.48,75.83.63c2.53,1.75,4.84,3.47,2.49,6.75-7.95,4-13.91,11.72-16.93,19.99-2.33,6.38-3.4,13.18-5.87,19.56-7.32,18.93-22.98,26.61-42.34,28.93-6.19.74-14.37,1.15-20.55.5-4.94-.52-4.29-6.82-.14-6.95,1.08-.03,2.59.29,3.69.32,16.19.36,36.89-1.76,47.54-15.48,8.3-10.69,7.83-24.36,14.23-35.82,2.86-5.11,6.77-10.1,11.53-13.5Z"/>
    </g>
  </g>
  <g id="pq9pG9-2" data-name="pq9pG9">
    <path class="cls-2" d="M136.11,60.49l-.1-.33c-6.9-3.9-14.61-6.5-22.51-7.42-17.98-2.1-43.92,4.41-55.94,18.69-8.89,10.57-10.88,24.63-8.43,37.98,8.38-11.06,20.76-18.78,33.65-23.61,1.82-.68,6.7-2.58,8.4-2.61,3.66-.08,4.8,5.14,1.42,6.61-1.75.76-4.24,1.27-6.14,1.96-20.9,7.56-41.73,22.92-37.61,47.98.27,1.62,1.19,4.08.77,5.56-.55,1.93-2.61,2.92-4.49,2.21-1.99-.76-2.17-2.52-2.59-4.37-1.87-8.18-1.36-17.08,1.74-24.89-7.08-24.85-1.16-49.79,22.34-62.69,22.55-12.37,54.04-14.48,75.83.63,2.53,1.75,4.84,3.47,2.49,6.75-7.95,4-13.91,11.72-16.93,19.99-2.33,6.38-3.4,13.18-5.87,19.56-7.32,18.93-22.98,26.61-42.34,28.93-6.19.74-14.37,1.15-20.55.5-4.94-.52-4.29-6.82-.14-6.95,1.08-.03,2.59.29,3.69.32,16.19.36,36.89-1.76,47.54-15.48,8.3-10.69,7.83-24.36,14.23-35.82,2.86-5.11,6.77-10.1,11.53-13.5Z"/>
  </g>
</svg>