<?xml version="1.0" encoding="UTF-8"?>
<svg id="Layer_1" xmlns="http://www.w3.org/2000/svg" xmlns:xlink="http://www.w3.org/1999/xlink" version="1.1" viewBox="0 0 200 200">
  <!-- Generator: Adobe Illustrator 30.0.0, SVG Export Plug-In . SVG Version: 2.1.1 Build 123)  -->
  <defs>
    <style>
      .st0 {
        fill: url(#linear-gradient1);
      }

      .st1 {
        fill: url(#linear-gradient);
      }

      .st2 {
        fill: #fff;
      }

      .st3 {
        fill: none;
        stroke: #fff;
        stroke-miterlimit: 10;
        stroke-width: 1.77px;
      }

      .st4 {
        opacity: .42;
      }
    </style>
    <linearGradient id="linear-gradient" x1="34.76" y1="37.57" x2="165.25" y2="168.05" gradientTransform="translate(0 202) scale(1 -1)" gradientUnits="userSpaceOnUse">
      <stop offset="0" stop-color="#000"/>
      <stop offset="0" stop-color="#08090e"/>
      <stop offset="0" stop-color="#323d5b"/>
      <stop offset="0" stop-color="#43527a"/>
      <stop offset=".23" stop-color="#455178"/>
      <stop offset=".39" stop-color="#4f5172"/>
      <stop offset=".54" stop-color="#5f5169"/>
      <stop offset=".67" stop-color="#75515c"/>
      <stop offset=".8" stop-color="#92514c"/>
      <stop offset=".92" stop-color="#b55137"/>
      <stop offset="1" stop-color="#d35127"/>
    </linearGradient>
    <linearGradient id="linear-gradient1" x1="34.76" y1="1042.43" x2="165.25" y2="911.95" gradientTransform="translate(0 -878)" gradientUnits="userSpaceOnUse">
      <stop offset="0" stop-color="#000"/>
      <stop offset="0" stop-color="#08090e"/>
      <stop offset="0" stop-color="#323d5b"/>
      <stop offset="0" stop-color="#446491"/>
      <stop offset=".23" stop-color="#33507a"/>
      <stop offset=".4" stop-color="#304d78"/>
      <stop offset=".54" stop-color="#5f5169"/>
      <stop offset=".67" stop-color="#75515c"/>
      <stop offset=".8" stop-color="#92514c"/>
      <stop offset=".92" stop-color="#b55137"/>
      <stop offset="1" stop-color="#d35127"/>
    </linearGradient>
  </defs>
  <g>
    <path class="st1" d="M147.76,181.91H52.24L4.47,99.19,52.24,16.46h95.53l47.76,82.73-47.76,82.73h-.01Z"/>
    <path class="st0" d="M147.76,181.91H52.24L4.47,99.19,52.24,16.46h95.53l47.76,82.73-47.76,82.73h-.01Z"/>
    <g class="st4">
      <path class="st3" d="M147.76,181.91H52.24L4.47,99.19,52.24,16.46h95.53l47.76,82.73-47.76,82.73h-.01Z"/>
    </g>
  </g>
  <g>
    <path class="st2" d="M108.7,65.77v60.32h-12.1v-39.23l-16.16,39.23h-9.16l-16.24-39.23v39.23h-12.1v-60.32h13.74l19.18,44.85,19.18-44.85h13.66Z"/>
    <path class="st2" d="M164.78,105.78h-35c.28,3.46,1.5,6.17,3.63,8.13s4.76,2.94,7.86,2.94c4.49,0,7.69-1.93,9.6-5.79h13.05c-1.38,4.61-4.03,8.4-7.95,11.37s-8.73,4.45-14.44,4.45c-4.61,0-8.74-1.03-12.4-3.07-3.66-2.04-6.52-4.94-8.56-8.68-2.04-3.75-3.07-8.06-3.07-12.97s1.01-9.3,3.02-13.05c2.02-3.75,4.84-6.62,8.47-8.64s7.81-3.02,12.53-3.02,8.63.98,12.23,2.94c3.6,1.96,6.39,4.74,8.38,8.34s2.99,7.73,2.99,12.4c0,1.73-.11,3.29-.35,4.67h0v-.02ZM152.6,97.65c-.06-3.11-1.18-5.6-3.37-7.48-2.19-1.87-4.87-2.81-8.04-2.81-2.99,0-5.52.9-7.56,2.72s-3.3,4.33-3.76,7.56h22.73,0Z"/>
  </g>
</svg>