<?xml version="1.0" encoding="UTF-8"?>
<svg id="Layer_1" xmlns="http://www.w3.org/2000/svg" xmlns:xlink="http://www.w3.org/1999/xlink" version="1.1" viewBox="0 0 200 200">
  <!-- Generator: Adobe Illustrator 30.0.0, SVG Export Plug-In . SVG Version: 2.1.1 Build 123)  -->
  <defs>
    <style>
      .st0 {
        fill: url(#linear-gradient1);
      }

      .st1 {
        fill: url(#linear-gradient);
      }

      .st2 {
        fill: #fff;
      }

      .st3 {
        fill: none;
        stroke: #fff;
        stroke-miterlimit: 10;
        stroke-width: 1.77px;
      }

      .st4 {
        opacity: .42;
      }
    </style>
    <linearGradient id="linear-gradient" x1="34.76" y1="37.57" x2="165.25" y2="168.05" gradientTransform="translate(0 202) scale(1 -1)" gradientUnits="userSpaceOnUse">
      <stop offset="0" stop-color="#000"/>
      <stop offset="0" stop-color="#08090e"/>
      <stop offset="0" stop-color="#323d5b"/>
      <stop offset="0" stop-color="#43527a"/>
      <stop offset=".23" stop-color="#455178"/>
      <stop offset=".39" stop-color="#4f5172"/>
      <stop offset=".54" stop-color="#5f5169"/>
      <stop offset=".67" stop-color="#75515c"/>
      <stop offset=".8" stop-color="#92514c"/>
      <stop offset=".92" stop-color="#b55137"/>
      <stop offset="1" stop-color="#d35127"/>
    </linearGradient>
    <linearGradient id="linear-gradient1" x1="34.76" y1="1042.43" x2="165.25" y2="911.95" gradientTransform="translate(0 -878)" gradientUnits="userSpaceOnUse">
      <stop offset="0" stop-color="#000"/>
      <stop offset="0" stop-color="#08090e"/>
      <stop offset="0" stop-color="#323d5b"/>
      <stop offset="0" stop-color="#446491"/>
      <stop offset=".23" stop-color="#33507a"/>
      <stop offset=".4" stop-color="#304d78"/>
      <stop offset=".54" stop-color="#5f5169"/>
      <stop offset=".67" stop-color="#75515c"/>
      <stop offset=".8" stop-color="#92514c"/>
      <stop offset=".92" stop-color="#b55137"/>
      <stop offset="1" stop-color="#d35127"/>
    </linearGradient>
  </defs>
  <g>
    <path class="st1" d="M147.76,181.91H52.24L4.47,99.19,52.24,16.46h95.53l47.76,82.73-47.76,82.73h-.01Z"/>
    <path class="st0" d="M147.76,181.91H52.24L4.47,99.19,52.24,16.46h95.53l47.76,82.73-47.76,82.73h-.01Z"/>
    <g class="st4">
      <path class="st3" d="M147.76,181.91H52.24L4.47,99.19,52.24,16.46h95.53l47.76,82.73-47.76,82.73h-.01Z"/>
    </g>
  </g>
  <g>
    <path class="st2" d="M112.72,65.81v59.54h-11.94v-38.72l-15.95,38.72h-9.04l-16.04-38.72v38.72h-11.94v-59.54h13.56l18.93,44.27,18.93-44.27h13.49Z"/>
    <path class="st2" d="M132.17,124.02c-3.07-1.39-5.5-3.28-7.3-5.67-1.79-2.39-2.77-5.03-2.94-7.94h12.03c.22,1.82,1.13,3.32,2.69,4.52s3.51,1.79,5.84,1.79,4.05-.46,5.33-1.37,1.92-2.08,1.92-3.5c0-1.53-.79-2.69-2.35-3.46-1.56-.77-4.05-1.6-7.46-2.52-3.53-.85-6.41-1.74-8.66-2.64-2.24-.91-4.18-2.3-5.8-4.18-1.62-1.87-2.43-4.41-2.43-7.59,0-2.61.76-5,2.26-7.17,1.51-2.16,3.67-3.87,6.48-5.12,2.82-1.25,6.13-1.87,9.94-1.87,5.63,0,10.12,1.41,13.47,4.23s5.21,6.61,5.55,11.39h-11.43c-.17-1.87-.95-3.37-2.35-4.48s-3.25-1.66-5.59-1.66c-2.17,0-3.83.4-4.99,1.19s-1.75,1.9-1.75,3.32c0,1.59.8,2.8,2.39,3.62,1.59.83,4.06,1.66,7.42,2.52,3.41.85,6.23,1.74,8.44,2.64,2.21.91,4.14,2.32,5.76,4.23,1.62,1.9,2.46,4.42,2.52,7.55,0,2.73-.76,5.18-2.26,7.33-1.51,2.17-3.67,3.86-6.48,5.07s-6.1,1.84-9.85,1.84-7.33-.7-10.4-2.09v.02h0Z"/>
  </g>
</svg>