<?xml version="1.0" encoding="UTF-8"?>
<svg id="Layer_1" xmlns="http://www.w3.org/2000/svg" xmlns:xlink="http://www.w3.org/1999/xlink" version="1.1" viewBox="0 0 200 200">
  <!-- Generator: Adobe Illustrator 30.0.0, SVG Export Plug-In . SVG Version: 2.1.1 Build 123)  -->
  <defs>
    <style>
      .st0 {
        fill: url(#linear-gradient1);
      }

      .st1 {
        fill: url(#linear-gradient);
      }

      .st2 {
        fill: #fff;
      }

      .st3 {
        fill: none;
        stroke: #fff;
        stroke-miterlimit: 10;
        stroke-width: 1.77px;
      }

      .st4 {
        opacity: .42;
      }
    </style>
    <linearGradient id="linear-gradient" x1="34.76" y1="1042.43" x2="165.25" y2="911.95" gradientTransform="translate(0 -878)" gradientUnits="userSpaceOnUse">
      <stop offset="0" stop-color="#000"/>
      <stop offset="0" stop-color="#08090e"/>
      <stop offset="0" stop-color="#323d5b"/>
      <stop offset="0" stop-color="#43527a"/>
      <stop offset=".23" stop-color="#455178"/>
      <stop offset=".39" stop-color="#4f5172"/>
      <stop offset=".54" stop-color="#5f5169"/>
      <stop offset=".67" stop-color="#75515c"/>
      <stop offset=".8" stop-color="#92514c"/>
      <stop offset=".92" stop-color="#b55137"/>
      <stop offset="1" stop-color="#d35127"/>
    </linearGradient>
    <linearGradient id="linear-gradient1" x1="34.76" y1="1042.43" x2="165.25" y2="911.95" gradientTransform="translate(0 -878)" gradientUnits="userSpaceOnUse">
      <stop offset="0" stop-color="#000"/>
      <stop offset="0" stop-color="#08090e"/>
      <stop offset="0" stop-color="#323d5b"/>
      <stop offset="0" stop-color="#446491"/>
      <stop offset=".23" stop-color="#33507a"/>
      <stop offset=".4" stop-color="#304d78"/>
      <stop offset=".54" stop-color="#5f5169"/>
      <stop offset=".67" stop-color="#75515c"/>
      <stop offset=".8" stop-color="#92514c"/>
      <stop offset=".92" stop-color="#b55137"/>
      <stop offset="1" stop-color="#d35127"/>
    </linearGradient>
  </defs>
  <g>
    <path class="st1" d="M147.76,181.91H52.24L4.47,99.19,52.24,16.46h95.53l47.76,82.73-47.76,82.73h-.01Z"/>
    <path class="st0" d="M147.76,181.91H52.24L4.47,99.19,52.24,16.46h95.53l47.76,82.73-47.76,82.73h-.01Z"/>
    <g class="st4">
      <path class="st3" d="M147.76,181.91H52.24L4.47,99.19,52.24,16.46h95.53l47.76,82.73-47.76,82.73h-.01Z"/>
    </g>
  </g>
  <g>
    <path class="st2" d="M78.28,124.15c-3.2-1.36-5.73-3.34-7.59-5.91-1.86-2.57-2.82-5.61-2.87-9.11h12.31c.16,2.35,1,4.21,2.5,5.59,1.51,1.37,3.57,2.06,6.2,2.06s4.79-.64,6.33-1.93c1.53-1.28,2.3-2.97,2.3-5.05,0-1.69-.52-3.09-1.56-4.19-1.04-1.09-2.34-1.96-3.9-2.58-1.56-.63-3.71-1.32-6.45-2.1-3.72-1.09-6.74-2.18-9.07-3.24-2.33-1.07-4.33-2.68-6-4.84s-2.5-5.05-2.5-8.66c0-3.4.85-6.35,2.54-8.87,1.69-2.52,4.08-4.45,7.14-5.79,3.07-1.34,6.57-2.01,10.51-2.01,5.91,0,10.72,1.44,14.41,4.31,3.69,2.87,5.73,6.89,6.12,12.03h-12.64c-.11-1.97-.95-3.6-2.5-4.89-1.56-1.28-3.63-1.93-6.2-1.93-2.25,0-4.04.58-5.38,1.73s-2.01,2.82-2.01,5.01c0,1.53.51,2.8,1.52,3.82,1.01,1.01,2.27,1.84,3.78,2.46,1.5.63,3.63,1.36,6.37,2.18,3.72,1.09,6.76,2.19,9.11,3.28,2.35,1.1,4.38,2.74,6.08,4.93,1.69,2.19,2.54,5.07,2.54,8.62,0,3.07-.79,5.91-2.38,8.54-1.59,2.63-3.92,4.72-6.98,6.28-3.07,1.56-6.7,2.34-10.92,2.34-4,0-7.59-.68-10.8-2.06v-.02h-.01Z"/>
    <path class="st2" d="M120.07,72.79c-1.34-1.28-2.01-2.89-2.01-4.8s.67-3.52,2.01-4.8c1.34-1.28,3.03-1.93,5.05-1.93s3.71.64,5.05,1.93c1.34,1.29,2.01,2.89,2.01,4.8s-.67,3.52-2.01,4.8c-1.34,1.28-3.03,1.93-5.05,1.93s-3.71-.64-5.05-1.93ZM130.79,80.14v45.48h-11.5v-45.48h11.5Z"/>
  </g>
</svg>