<?xml version="1.0" encoding="UTF-8"?>
<svg id="Layer_1" xmlns="http://www.w3.org/2000/svg" xmlns:xlink="http://www.w3.org/1999/xlink" version="1.1" viewBox="0 0 200 200">
  <!-- Generator: Adobe Illustrator 30.0.0, SVG Export Plug-In . SVG Version: 2.1.1 Build 123)  -->
  <defs>
    <style>
      .st0 {
        fill: url(#linear-gradient1);
      }

      .st1 {
        fill: url(#linear-gradient);
      }

      .st2 {
        fill: #fff;
      }

      .st3 {
        fill: none;
        stroke: #fff;
        stroke-miterlimit: 10;
        stroke-width: 1.77px;
      }

      .st4 {
        opacity: .42;
      }
    </style>
    <linearGradient id="linear-gradient" x1="34.76" y1="1042.43" x2="165.25" y2="911.95" gradientTransform="translate(0 -878)" gradientUnits="userSpaceOnUse">
      <stop offset="0" stop-color="#000"/>
      <stop offset="0" stop-color="#08090e"/>
      <stop offset="0" stop-color="#323d5b"/>
      <stop offset="0" stop-color="#43527a"/>
      <stop offset=".23" stop-color="#455178"/>
      <stop offset=".39" stop-color="#4f5172"/>
      <stop offset=".54" stop-color="#5f5169"/>
      <stop offset=".67" stop-color="#75515c"/>
      <stop offset=".8" stop-color="#92514c"/>
      <stop offset=".92" stop-color="#b55137"/>
      <stop offset="1" stop-color="#d35127"/>
    </linearGradient>
    <linearGradient id="linear-gradient1" x1="34.76" y1="1042.43" x2="165.25" y2="911.95" gradientTransform="translate(0 -878)" gradientUnits="userSpaceOnUse">
      <stop offset="0" stop-color="#000"/>
      <stop offset="0" stop-color="#08090e"/>
      <stop offset="0" stop-color="#323d5b"/>
      <stop offset="0" stop-color="#446491"/>
      <stop offset=".23" stop-color="#33507a"/>
      <stop offset=".4" stop-color="#304d78"/>
      <stop offset=".54" stop-color="#5f5169"/>
      <stop offset=".67" stop-color="#75515c"/>
      <stop offset=".8" stop-color="#92514c"/>
      <stop offset=".92" stop-color="#b55137"/>
      <stop offset="1" stop-color="#d35127"/>
    </linearGradient>
  </defs>
  <g>
    <path class="st1" d="M147.76,181.91H52.24L4.47,99.19,52.24,16.46h95.53l47.76,82.73-47.76,82.73h-.01Z"/>
    <path class="st0" d="M147.76,181.91H52.24L4.47,99.19,52.24,16.46h95.53l47.76,82.73-47.76,82.73h-.01Z"/>
    <g class="st4">
      <path class="st3" d="M147.76,181.91H52.24L4.47,99.19,52.24,16.46h95.53l47.76,82.73-47.76,82.73h-.01Z"/>
    </g>
  </g>
  <g>
    <path class="st2" d="M66.33,123.45c-3.15-1.34-5.64-3.29-7.47-5.81-1.83-2.53-2.77-5.52-2.83-8.96h12.12c.17,2.31.98,4.15,2.46,5.5,1.48,1.35,3.51,2.02,6.1,2.02s4.71-.63,6.22-1.9c1.51-1.26,2.26-2.92,2.26-4.97,0-1.67-.51-3.04-1.53-4.12-1.03-1.07-2.31-1.93-3.84-2.54s-3.65-1.3-6.34-2.06c-3.66-1.07-6.63-2.14-8.92-3.19s-4.26-2.64-5.9-4.76-2.46-4.97-2.46-8.52c0-3.34.84-6.25,2.5-8.73,1.67-2.48,4.01-4.38,7.03-5.69,3.02-1.32,6.46-1.98,10.34-1.98,5.81,0,10.54,1.41,14.18,4.24,3.63,2.83,5.64,6.78,6.02,11.83h-12.44c-.11-1.93-.93-3.54-2.46-4.81-1.53-1.26-3.57-1.9-6.1-1.9-2.21,0-3.97.57-5.29,1.7s-1.98,2.77-1.98,4.93c0,1.51.5,2.76,1.49,3.76,1,1,2.24,1.81,3.72,2.42,1.48.62,3.57,1.33,6.26,2.14,3.66,1.07,6.65,2.16,8.96,3.23,2.31,1.08,4.3,2.69,5.98,4.85,1.67,2.16,2.5,4.98,2.5,8.48,0,3.02-.78,5.81-2.35,8.4-1.56,2.58-3.85,4.64-6.86,6.18-3.02,1.53-6.59,2.31-10.74,2.31-3.93,0-7.47-.67-10.62-2.02v-.02h-.01Z"/>
    <path class="st2" d="M114.92,122.76c-3.44-1.91-6.15-4.62-8.12-8.12s-2.95-7.53-2.95-12.12,1.01-8.62,3.02-12.12c2.02-3.5,4.78-6.21,8.28-8.12s7.4-2.87,11.71-2.87,8.21.96,11.71,2.87,6.26,4.62,8.28,8.12,3.03,7.54,3.03,12.12-1.03,8.62-3.11,12.12-4.87,6.21-8.4,8.12-7.47,2.87-11.83,2.87-8.19-.96-11.63-2.87h.01ZM132.33,114.28c1.8-1,3.25-2.49,4.32-4.49,1.07-1.99,1.62-4.41,1.62-7.27,0-4.26-1.12-7.53-3.36-9.82s-4.97-3.44-8.2-3.44-5.94,1.15-8.12,3.44-3.27,5.56-3.27,9.82,1.07,7.53,3.19,9.82,4.81,3.44,8.04,3.44c2.05,0,3.97-.5,5.77-1.49h0Z"/>
  </g>
</svg>