<?xml version="1.0" encoding="UTF-8"?>
<svg id="Base" xmlns="http://www.w3.org/2000/svg" viewBox="0 0 233.403 191.162">
  <path id="Upholstery_Applications" data-name="Upholstery Applications" d="M79.859,14.101c1.407-.274,2.859.031,4.039.844l35.377,24.368s1.556.917,2.111.806,2.562-1.127,3.556-2.667c1.121-1.736.25-4.069.194-4.792-.082-1.063-.546-.284.111-.889.683-.628,1.332-2.131,1.499-3.044.266-1.456.402-3.615-.249-4.456-1.139-1.472-3.939-2.908-4.861-3.75-.806-.736-23.25-14.486-25.917-15.903-2.634-1.399-4.777-3.063-16.333-4.278-2.302-.242-4.567-.375-6.611-.333l-5.472.159L20.22,7.591s-.583-.167-1.083.917,1.667,12.917,1.917,12.917,3.75,3.083,5,3c1.099-.073,43.588-8.334,53.806-10.323Z" fill="#09668d" opacity="0.6"/>
  <path id="Upholstery_Applications-2" data-name="Upholstery Applications" d="M29.726,36.071s-5.951-4.803-7.312-6.105-1.361-8.542-1.361-8.542l4.306,2.841.694.159,53.806-10.323h2.02l2.019.844,34.726,23.92,2.762,1.254s.698.976.771,2.049-.188,2.427-.99,3.083-3.441,2.149-5.469,2.51-8.604,1.681-10.417,2.056c-1.029.716-2.889-.226-3.312-1.958-2.069-1.613-22.579-17.595-25.431-19.921-.256-.209-.591-.293-.915-.231l-45.047,8.586c-.302.058-.615-.023-.851-.221Z" fill="#09668d" opacity="0.6"/>
  <polygon id="Neoprene_Contact_Adhesive" data-name="Neoprene Contact Adhesive" points="99.275 48.33 78.442 32.08 29.609 41.497 22.942 34.164 22.942 30.446 21.719 28.447 21.053 22.08 0 24.729 31.942 63.497 99.275 48.33" fill="#09668d" opacity="0.6"/>
  <polygon id="Bonding_Decking_to_Metal_Struts" data-name="Bonding Decking to Metal Struts" points="99.867 48.988 67.798 56.572 72.589 62.591 106.417 54.664 99.867 48.988" fill="#09668d" opacity="0.6"/>
  <polygon id="Bonding_Decking_to_Metal_Struts-2" data-name="Bonding Decking to Metal Struts" points="38.442 70.914 72.589 62.591 67.798 56.572 33.025 64.497 38.442 70.914" fill="#09668d" opacity="0.6"/>
  <polygon points="15.164 44.136 18.414 72.469 48.747 113.719 46.081 81.469 15.164 44.136" fill="#09668d" opacity="0.6"/>
  <path id="Bonding_in_Stiffeners" data-name="Bonding in Stiffeners" d="M59.692,134.636c-.104.424.417,2.514.417,2.514.356.393,1.353.29,1.667.139.341-.164,1.424-.66,1.583-.667s-.174.937,0,1.028.808.169,1.222,0l1.972-.806c-.093.033,110.989-35.407,116.361-37.417.234-.088-.417-2.417-.75-2.583-.221-.11-53.804,16.892-90.014,28.125-18.447,5.723-32.354,9.243-32.458,9.667Z" fill="#09668d" opacity="0.6"/>
  <polygon id="Bonding_in_Stiffeners-2" data-name="Bonding in Stiffeners" points="117.984 53.577 120.9 52.744 188.9 104.494 189.4 106.66 187.484 107.41 117.984 53.577" fill="#09668d" opacity="0.6"/>
  <path id="Bonding_in_Stiffeners-3" data-name="Bonding in Stiffeners" d="M74.15,156.882s-5.833,4.833-7.667,9.333-2.333,8.167,0,10.5,2.333,2.875,6.083,4.25,25.542,8.958,27.75,9.708,3.083.542,4,0,3.458-2.625,4.042-3.833-1.375-5.347-1.375-5.347l-1.708-4.319-4.167,1.75-3.708,1.181-4.75,1.417-18.5-24.639Z" fill="#09668d" opacity="0.6"/>
  <path id="Bonding_in_Stiffeners-4" data-name="Bonding in Stiffeners" d="M147.692,161.021l21.111-7.778,3.889,5s1,2.444-1.333,5.333-6,1.667-6,1.667l-17.667-4.222Z" fill="#09668d" opacity="0.6"/>
  <path id="Bonding_in_Stiffeners-5" data-name="Bonding in Stiffeners" d="M201.581,140.688l21.667,2.889s2.222.778,4.111-1.444,1.889-5,1-5.778-4.111-4.111-4.111-4.111l-22.667,8.444Z" fill="#09668d" opacity="0.6"/>
  <polygon id="Binding_Vinyls_and_Carpets" data-name="Binding Vinyls and Carpets" points="71.359 152.188 92.65 181.521 166.051 154.258 140.525 128.855 71.359 152.188" fill="#09668d" opacity="0.6"/>
  <polygon id="Binding_Vinyls_and_Carpets-2" data-name="Binding Vinyls and Carpets" points="233.403 128.855 203.859 107.41 140.525 128.855 166.051 154.258 233.403 128.855" fill="#09668d" opacity="0.6"/>
</svg>