<?xml version="1.0" encoding="UTF-8"?>
<svg id="Marks" xmlns="http://www.w3.org/2000/svg" viewBox="0 0 259.2 259.2">
  <polygon id="seating" points="87.01 119.97 88.84 114.76 95.43 114.97 95.43 116.85 101.26 116.89 101.76 114.97 107.6 114.97 107.6 119.97 87.01 119.97" fill="#09668d" opacity=".6"/>
  <path id="carpeting" d="M10.61,154.39c22.56,7.56,53.72,9.5,53.72,9.5,1.11-2.71,2.67-5.61,3.33-7.06-3.17-.56-40.95-7.44-59.5-10.33.56,6.39.33,6.44,2.44,7.89Z" fill="#09668d" opacity=".6"/>
  <polygon id="lowerbow" points="87.6 160.64 66.14 160.64 71.39 150.39 86.81 150.39 89.56 140.06 90.01 150.22 88.51 150.22 87.35 153.93 87.6 160.64" fill="#09668d" opacity=".6"/>
  <polygon id="counters" points="126.71 102.5 126.71 111.88 126.13 111.88 126.13 117.08 114.67 117.08 114.96 107.17 115.18 102.5 126.71 102.5" fill="#09668d" opacity=".6"/>
  <path id="heeadliner" d="M154.33,86.38s-52.58.58-53.46,1.38,0,1.12,1.21,1.33,17.79,2,24.62,1.79c1.21.88,2.63,2.62,4.29,3.62,5.54.34,24.08,1.23,27.21,1.17-.17-.38-3.88-9.29-3.88-9.29Z" fill="#09668d" opacity=".6"/>
  <path id="headdliner2" d="M153.33,98.46l17.04.96s-1.88-4.29-2.46-5.58-11.29-2.54-11.29-2.54l1.58,4.38h-4.71s-.17,2.79-.17,2.79Z" fill="#09668d" opacity=".6"/>
  <path id="bondingskirt" d="M126.13,111.88h8.53l-.09,6.74h7.21l.04-6.42,8.79.08-.46,10.13h-20.25s1-2.38.75-3.29-.83-1.67-1.54-1.25-2.99,3-2.99,3v-8.99Z" fill="#09668d" opacity=".6"/>
  <path id="general_mounting" data-name="general mounting" d="M126.71,104.57h7.07l.53,4.26s6.27.2,6.27,0-.17-4.83-.17-4.83h8.46l2.17,6.58v1.54l-9.21.08-.03,4.71-7.2.18.07-5.21h-8.17l.22-7.31Z" fill="#09668d" opacity=".6"/>
  <polygon id="interior_cabinets" data-name="interior cabinets" points="124.03 134.44 124.03 146.5 138.76 146.86 138.76 134.44 124.03 134.44" fill="#09668d" opacity=".6"/>
  <path id="external_seating" data-name="external seating" d="M174.86,127.9s6.58.16,9.56.17c.27,0,.2.43.47.44,4.47-.05,11.55-.3,12.78-.31.63-.9-7.89-12.92-8.73-13.24s-10.8.08-10.8.08l4.61,10.17s.65,1.07.75,1.61c-.17.39-7.53.5-7.95.58s-.69.5-.69.5Z" fill="#09668d" opacity=".6"/>
  <path id="bonding_and_mounut_1" data-name="bonding and mounut 1" d="M210.44,122.56c.86.11,10.78,12.67,12.03,14.75,0,.56-21.94,2.92-22.47,2.44-1.22.06-3.78-11.52-3.78-11.52l1.45-.03s.25.19-.28-1.08-3.56-5.79-3.56-5.79c0,0,15.75,1.11,16.61,1.22Z" fill="#09668d" opacity=".6"/>
  <path id="bonding_and_mount2" data-name="bonding and mount2" d="M228.36,136.25l3.42,6.04,15.88-2.23-.33-2.02s-10.75-11.58-13.58-13.25c-3.25,0-23.3-2.23-23.3-2.23l12.03,14.75,5.9-1.06Z" fill="#09668d" opacity=".6"/>
</svg>