<?xml version="1.0" encoding="UTF-8"?><svg id="Layer_1" xmlns="http://www.w3.org/2000/svg" viewBox="0 0 400 130"><defs><style>.cls-1{fill:#f16022;}.cls-2{fill:#d1181f;}.cls-3{fill:#bfbfbf;}.cls-4{fill:#d35127;}.cls-5{fill:#dad9d9;}.cls-6{fill:#09668d;}.cls-7{fill:none;stroke:#f16022;stroke-miterlimit:10;stroke-width:1.73px;}</style></defs><path class="cls-6" d="m387.35,21.12h-9.78c-.12,0-.18.06-.18.18v1.84c0,.12.06.18.18.18h3.63l.02,4.97s.02.09.06.13c.04.04.08.06.13.06h2.14c.12,0,.18-.06.18-.18v-4.97h3.63c.12,0,.18-.06.18-.18v-1.84c0-.12-.06-.18-.18-.18Z"/><path class="cls-6" d="m399.82,21.12h-2.38s-.07.01-.09.04l-3.31,2.98-3.31-2.98s-.06-.04-.09-.04h-2.38c-.12,0-.18.06-.18.18v7c0,.12.06.18.18.18h2.14c.12,0,.18-.06.18-.18v-4.29l-.02-.24,2.85,2.78s.06.04.09.04h1.07s.07-.01.09-.04l2.87-2.8-.04.26v4.29c0,.12.06.18.18.18h2.14c.12,0,.18-.06.18-.18v-7c0-.12-.06-.18-.18-.18Z"/><path class="cls-6" d="m206.22,78.07c-16.43,0-29.67-12.74-29.67-28.48s13.24-28.48,29.67-28.48,29.67,12.74,29.67,28.48-13.24,28.48-29.67,28.48Zm0-44.92c-8.99,0-16.23,7.35-16.23,16.45s7.24,16.45,16.23,16.45,16.23-7.35,16.23-16.45-7.24-16.45-16.23-16.45Z"/><path class="cls-6" d="m268.32,21.12h7.59c.7,0,1.13.76.77,1.36l-6.06,10.14-.76.43c-12.79.23-16.36,9.32-16.36,15.33v27.16c0,.5-.4.9-.9.9h-12.08c-.5,0-.9-.4-.9-.9v-27.51c0-16.18,11.68-26.9,28.68-26.9Z"/><path class="cls-6" d="m273.53,66.57l27.11-33.53h-24.81c-.7,0-1.13-.76-.77-1.36l6.05-10.12c.16-.27.45-.44.77-.44h36.03c.5,0,.9.4.9.9v8.97l-27.11,33.53h26.21c.5,0,.9.4.9.9v10.12c0,.5-.4.9-.9.9h-43.48c-.5,0-.9-.4-.9-.9v-8.97Z"/><path class="cls-6" d="m377.39,49.6v25.99c0,.5-.4.9-.9.9h-7.97c-.36,0-.69-.22-.83-.56l-2.45-6.11c-3.39,4.98-11.25,8.26-17.73,8.26-16.33,0-28.97-12.74-28.97-28.48s12.64-28.48,28.97-28.48,29.87,12.74,29.87,28.48Zm-13.42,0c0-9.1-7.35-16.45-16.45-16.45s-16.45,7.35-16.45,16.45,7.35,16.45,16.45,16.45,16.45-7.35,16.45-16.45Z"/><path class="cls-6" d="m130.48,75.69V25.7c0-11.09,8.99-20.08,20.08-20.08h35.95c.76,0,1.3.73,1.08,1.46l-2.66,8.83c-.48,1.58-1.93,2.67-3.59,2.67h-25.12c-6.06,0-10.97,4.91-10.97,10.97v5.86h27.75c.76,0,1.3.73,1.08,1.46l-2.61,8.67c-.48,1.58-1.93,2.67-3.59,2.67h-22.63v28.4h-13.85c-.51,0-.92-.41-.92-.92Z"/><path class="cls-2" d="m137.18,110.76v-18.08h-6.84c-.68,0-1.07-.39-1.07-1.07v-3.97c0-.68.39-1.07,1.07-1.07h20.08c.68,0,1.07.39,1.07,1.07v3.97c0,.68-.39,1.07-1.07,1.07h-6.84v18.08c0,.68-.39,1.07-1.07,1.07h-4.26c-.68,0-1.07-.39-1.07-1.07Z"/><path class="cls-2" d="m175.66,111.02l-1.29-3.11h-12.28l-1.29,3.11c-.21.54-.64.82-1.25.82h-4.8c-.82,0-1.15-.5-.82-1.25l10.56-23.2c.25-.57.64-.82,1.25-.82h4.98c.61,0,1,.25,1.25.82l10.56,23.2c.32.75,0,1.25-.82,1.25h-4.8c-.61,0-1.04-.29-1.25-.82Zm-3.4-8.27l-4.01-9.66-4.01,9.66h8.02Z"/><path class="cls-2" d="m189.65,110.76v-23.13c0-.68.39-1.07,1.07-1.07h13.03c7.09,0,9.85,3.36,9.85,9.49v1.04c0,6.12-2.76,9.34-9.85,9.34h-7.73v4.33c0,.68-.39,1.07-1.07,1.07h-4.22c-.68,0-1.07-.39-1.07-1.07Zm13.53-10.34c2.51,0,4.05-.36,4.05-3.4v-.93c0-3.04-1.43-3.44-4.05-3.44h-7.16v7.77h7.16Z"/><path class="cls-2" d="m221.57,110.76v-23.13c0-.68.39-1.07,1.07-1.07h19.22c.68,0,1.07.39,1.07,1.07v3.94c0,.68-.39,1.07-1.07,1.07h-13.96v3.72h8.48c.68,0,1.07.39,1.07,1.07v3.36c0,.68-.39,1.07-1.07,1.07h-8.48v3.87h13.96c.68,0,1.07.39,1.07,1.07v3.94c0,.68-.39,1.07-1.07,1.07h-19.22c-.68,0-1.07-.39-1.07-1.07Z"/><line class="cls-7" x1="255.93" y1="85.7" x2="255.93" y2="113.8"/><path class="cls-6" d="m270.26,96.81l-.27-1.08h-4.36l-.76,1.14c-.08.12-.18.17-.32.17h-1.14c-.21,0-.3-.14-.17-.32l4.94-7.11c.08-.12.18-.17.32-.17h1.15c.16,0,.26.06.3.23l1.9,7.08c.05.19-.03.3-.23.3h-1.07c-.16,0-.26-.09-.29-.24Zm-.57-2.3l-.86-3.5-2.37,3.5h3.23Z"/><path class="cls-6" d="m280.55,96.76l1.5-7.08c.03-.15.14-.24.3-.24h5.71c.18,0,.28.1.24.29l-.18.91c-.03.15-.14.24-.3.24h-4.52l-.34,1.66h2.87c.18,0,.28.1.24.29l-.17.8c-.03.15-.14.24-.3.24h-2.92l-.63,2.95c-.03.15-.14.24-.3.24h-.94c-.18,0-.28-.1-.24-.29Z"/><path class="cls-6" d="m289.41,94.43l.49-2.36c.34-1.61,1.15-2.63,2.93-2.63h2.78c1.78,0,2.52,1.01,2.16,2.63l-.5,2.36c-.33,1.6-1.14,2.62-2.93,2.62h-2.77c-1.79,0-2.51-1.01-2.17-2.62Zm5.07,1.18c.79,0,1.12-.29,1.3-1.13l.52-2.47c.18-.86-.01-1.14-.82-1.14h-2.77c-.8,0-1.11.28-1.3,1.14l-.52,2.47c-.18.84.02,1.13.81,1.13h2.78Z"/><path class="cls-6" d="m307.81,92.19l-.04.17c-.28,1.36-.82,2.26-2.08,2.57l.87,1.8c.09.18,0,.31-.21.31h-1.07c-.15,0-.26-.06-.31-.2l-.77-1.79h-2.74l-.37,1.76c-.03.15-.14.24-.3.24h-.95c-.18,0-.28-.1-.24-.29l1.5-7.08c.03-.15.14-.24.3-.24h3.75c2.21,0,3.04.93,2.65,2.75Zm-2.89-1.31h-2.56l-.59,2.76h2.57c1.14,0,1.66-.19,1.93-1.29l.03-.15c.26-1.1-.2-1.31-1.38-1.31Z"/><path class="cls-6" d="m309.86,94.43l.5-2.36c.34-1.61,1.16-2.63,2.94-2.63h2.4c1.79,0,2.51,1.01,2.17,2.63v.05c-.04.16-.14.25-.3.25h-.95c-.18,0-.29-.06-.27-.18l.03-.17c.21-.94-.06-1.14-.81-1.14h-2.4c-.74,0-1.1.21-1.3,1.14l-.52,2.47c-.19.93.09,1.13.81,1.13h2.4c.73,0,1.11-.2,1.3-1.13l.04-.24c.03-.15.14-.24.3-.24h.95c.18,0,.28.08.26.2l-.04.22c-.33,1.6-1.08,2.62-2.87,2.62h-2.48c-1.79,0-2.5-1.01-2.16-2.62Z"/><path class="cls-6" d="m319.58,96.76l1.5-7.08c.03-.15.14-.24.3-.24h5.88c.18,0,.28.1.24.29l-.18.91c-.03.15-.14.24-.3.24h-4.7l-.34,1.66h2.99c.18,0,.28.1.24.29l-.17.8c-.03.15-.14.24-.3.24h-3.05l-.38,1.76h4.64c.18,0,.28.1.24.29l-.18.9c-.03.15-.14.24-.3.24h-5.88c-.18,0-.28-.1-.24-.29Z"/><path class="cls-6" d="m337.07,96.76l1.25-5.87h-2.29c-.18,0-.28-.1-.24-.29l.18-.92c.03-.15.14-.24.3-.24h6.14c.18,0,.28.1.24.29l-.18.92c-.03.15-.14.24-.3.24h-2.35l-1.26,5.92c-.03.15-.14.24-.3.24h-.95c-.18,0-.28-.1-.24-.29Z"/><path class="cls-6" d="m343.9,94.43l.5-2.36c.34-1.61,1.15-2.63,2.93-2.63h2.78c1.78,0,2.52,1.01,2.16,2.63l-.5,2.36c-.33,1.6-1.14,2.62-2.93,2.62h-2.77c-1.79,0-2.51-1.01-2.17-2.62Zm5.07,1.18c.79,0,1.12-.29,1.3-1.13l.52-2.47c.18-.86-.01-1.14-.82-1.14h-2.77c-.8,0-1.11.28-1.3,1.14l-.52,2.47c-.18.84.02,1.13.81,1.13h2.78Z"/><path class="cls-6" d="m360.37,96.76l1.5-7.08c.03-.15.14-.24.3-.24h3.82c1.82,0,2.72.71,2.48,2.09l-.02.12c-.16.89-.68,1.39-1.18,1.59.38.26.73.69.55,1.63l-.02.12c-.26,1.38-.95,2.06-2.77,2.06h-4.42c-.18,0-.28-.1-.24-.29Zm4.73-1.13c.68,0,1.07-.15,1.19-.8l.04-.17c.14-.64-.24-.82-.82-.82h-3.04l-.39,1.79h3Zm.71-3.02c.56,0,.93-.12,1.06-.74l.03-.17c.14-.65-.25-.82-.94-.82h-2.85l-.36,1.73h3.06Z"/><path class="cls-6" d="m370.19,96.76l1.5-7.08c.03-.15.14-.24.3-.24h5.88c.18,0,.28.1.24.29l-.18.91c-.03.15-.14.24-.3.24h-4.7l-.34,1.66h2.99c.18,0,.28.1.24.29l-.17.8c-.03.15-.14.24-.3.24h-3.05l-.38,1.76h4.64c.18,0,.28.1.24.29l-.18.9c-.03.15-.14.24-.3.24h-5.88c-.18,0-.28-.1-.24-.29Z"/><path class="cls-6" d="m271.96,105.1l-.04.17c-.28,1.36-.82,2.26-2.08,2.57l.87,1.8c.09.18,0,.31-.21.31h-1.07c-.15,0-.26-.06-.31-.2l-.77-1.79h-2.74l-.37,1.76c-.03.15-.14.24-.3.24h-.95c-.18,0-.28-.1-.24-.29l1.5-7.08c.03-.15.14-.24.3-.24h3.75c2.21,0,3.04.93,2.65,2.75Zm-2.89-1.31h-2.56l-.59,2.76h2.57c1.14,0,1.66-.19,1.93-1.29l.03-.15c.26-1.1-.2-1.31-1.38-1.31Z"/><path class="cls-6" d="m273.38,109.67l1.5-7.08c.03-.15.14-.24.3-.24h5.88c.18,0,.28.1.24.29l-.18.91c-.03.15-.14.24-.3.24h-4.7l-.34,1.66h2.99c.18,0,.28.1.24.29l-.17.8c-.03.15-.14.24-.3.24h-3.05l-.38,1.76h4.64c.18,0,.28.1.24.29l-.18.9c-.03.15-.14.24-.3.24h-5.88c-.18,0-.28-.1-.24-.29Z"/><path class="cls-6" d="m282.39,107.34l.49-2.36c.34-1.61,1.16-2.63,2.94-2.63h2.4c1.79,0,2.51,1.01,2.16,2.63v.05c-.04.16-.14.25-.3.25h-.95c-.18,0-.29-.06-.27-.18l.03-.17c.21-.94-.06-1.14-.81-1.14h-2.4c-.74,0-1.1.21-1.3,1.14l-.52,2.47c-.19.93.09,1.13.81,1.13h2.4c.73,0,1.11-.2,1.3-1.13l.04-.24c.03-.15.14-.24.3-.24h.95c.18,0,.28.08.26.2l-.04.22c-.33,1.6-1.08,2.62-2.87,2.62h-2.48c-1.79,0-2.5-1.01-2.16-2.62Z"/><path class="cls-6" d="m291.84,109.67l1.5-7.08c.03-.15.14-.24.3-.24h.95c.18,0,.28.1.24.29l-.6,2.88h1.42l3.05-3.03c.1-.1.21-.14.33-.14h1.27c.24,0,.3.17.13.33l-3.63,3.52,2.15,3.43c.12.18.03.32-.18.32h-1.08c-.14,0-.25-.06-.32-.18l-1.87-2.95h-1.55l-.61,2.9c-.03.15-.14.24-.3.24h-.95c-.18,0-.28-.1-.24-.29Z"/><path class="cls-6" d="m301.15,107.34l.49-2.36c.34-1.61,1.15-2.63,2.93-2.63h2.78c1.78,0,2.52,1.01,2.16,2.63l-.5,2.36c-.33,1.6-1.14,2.62-2.93,2.62h-2.77c-1.79,0-2.51-1.01-2.17-2.62Zm5.07,1.18c.79,0,1.12-.29,1.3-1.13l.52-2.47c.18-.86-.01-1.14-.82-1.14h-2.77c-.8,0-1.11.28-1.3,1.14l-.52,2.47c-.18.84.02,1.13.81,1.13h2.78Z"/><path class="cls-6" d="m311.07,109.67l1.5-7.08c.03-.15.14-.24.3-.24h.98c.14,0,.25.05.32.18l3.03,5.31,1.12-5.26c.03-.15.14-.24.3-.24h.95c.18,0,.28.1.24.29l-1.5,7.08c-.03.15-.14.24-.3.24h-.97c-.14,0-.25-.05-.32-.18l-3.05-5.35-1.11,5.3c-.03.15-.14.24-.3.24h-.95c-.18,0-.28-.1-.24-.29Z"/><path class="cls-6" d="m321,109.67l1.5-7.08c.03-.15.14-.24.3-.24h5.88c.18,0,.28.1.24.29l-.18.91c-.03.15-.14.24-.3.24h-4.7l-.34,1.66h2.99c.18,0,.28.1.24.29l-.17.8c-.03.15-.14.24-.3.24h-3.05l-.38,1.76h4.64c.18,0,.28.1.24.29l-.18.9c-.03.15-.14.24-.3.24h-5.88c-.18,0-.28-.1-.24-.29Z"/><path class="cls-6" d="m329.83,109.67l1.5-7.08c.03-.15.14-.24.3-.24h4.46c1.78,0,2.53.95,2.12,2.85l-.41,1.94c-.4,1.9-1.18,2.81-2.96,2.81h-4.77c-.18,0-.28-.1-.24-.29Zm4.96-1.13c.81,0,1.27-.23,1.53-1.41l.41-1.91c.25-1.18-.1-1.43-.94-1.43h-3.22l-1.01,4.75h3.23Z"/><path class="cls-6" d="m345.49,109.71l-.86-7.08c-.02-.17.08-.28.26-.28h.97c.16,0,.27.09.28.26l.51,5.37,2.76-5.44c.06-.13.16-.19.31-.19h1.03c.16,0,.27.1.28.26l.45,5.37,2.81-5.44c.07-.13.16-.19.31-.19h1.07c.21,0,.29.14.19.32l-3.88,7.09c-.06.13-.18.19-.32.19h-1.08c-.16,0-.27-.1-.28-.26l-.44-5.27-2.72,5.33c-.07.13-.16.19-.31.19h-1.04c-.16,0-.27-.08-.29-.25Z"/><path class="cls-6" d="m356.38,109.67l1.5-7.08c.03-.15.14-.24.3-.24h.94c.18,0,.28.1.24.29l-1.5,7.08c-.03.15-.14.24-.3.24h-.94c-.18,0-.28-.1-.24-.29Z"/><path class="cls-6" d="m362.65,109.67l1.25-5.87h-2.29c-.18,0-.28-.1-.24-.29l.18-.92c.03-.15.14-.24.3-.24h6.14c.18,0,.28.1.24.29l-.18.92c-.03.15-.14.24-.3.24h-2.35l-1.26,5.92c-.03.15-.14.24-.3.24h-.95c-.18,0-.28-.1-.24-.29Z"/><path class="cls-6" d="m368.93,109.67l1.5-7.08c.03-.15.14-.24.3-.24h.95c.18,0,.28.1.24.29l-.6,2.84h4.09l.6-2.9c.03-.15.14-.24.3-.24h.96c.18,0,.28.1.24.29l-1.5,7.08c-.03.15-.14.24-.3.24h-.96c-.18,0-.28-.1-.24-.29l.61-2.87h-4.09l-.61,2.92c-.03.15-.14.24-.3.24h-.95c-.18,0-.28-.1-.24-.29Z"/><path class="cls-1" d="m46.24,57.01c5.84-5.32,45.07,28.85,45.07,28.85,0,0,.24,8.74-1.26,10.42-.36-1.2-.9-2.57-.9-2.57,0,3.35-2.69,6.65-2.69,6.65-.06-2.45,0-5.21-.3-6.11-.12,1.02-.6,3.23-1.26,3.71.06-.78-.3-3.41-.84-3.65.12,1.2,0,2.93-1.14,4.55-.66-2.51-1.86-3.23-2.22-3.59-.36-.36-2.99-2.16-2.99-2.16,3.86,8.38,2.33,16.36,2.07,18.35-.95,7.22-3.77,11.91-3.32,14.6-4.54-4.61-6.12-14.55-6.12-14.55,0,0-5.53,8.56-11.07,12.16,4.2-9.94,2.37-19.02,2.37-19.02,0,0-.19,6.86-8.37,12.4,2.19-14.33.98-28.97.98-28.97l-11.7-9.43,3.68-21.63Z"/><path class="cls-1" d="m66.86,74.71c-3.68-3.86-20.62-17.69-20.62-17.69l-1.43-16.36,3.86-5.95s-3.77-14.82,3.68-20.12c7.45-5.3,17.31,3.67,19.08,11.37.81,3.52.52,6.57.52,6.57l-8.47,12.62,3.38,29.56Z"/><path class="cls-1" d="m35.47,7.24c5.75-3.48,39.63-8.39,39.57,10.23,6.09,4.98,11.9,10.28,14.18,12.4.67.62,1.12,1.42,1.32,2.31l.55,2.53s17.33,10.42,17.36,14.59c0,1.06-1.46,3.77-1.46,3.77l.12,3.47-2.29,4.36s-.71-.7-1.52-.61-3.56,1.26-3.56,1.26c0,0-8.02,3.19-13.5,1.03-1.66-.39-2.12-.81-3.93,0s-10.08,4.69-10.08,4.69l-2.11,5.29,1.66,5.21,6.65,5.37,5.84,2.51,4.6-.72,1.89.2.58,3.79-9.89-1.61s-12.15,8.83-15.36,2.25c-3.2-6.59-11.86-46.34-11.86-46.34,0,0,26.02-11.34,15-24.33C58.22,5.92,35.47,7.24,35.47,7.24Z"/><path class="cls-6" d="m67.74,34.49c1.5,1.02,11.26-.66,13.83,0-1.5.54-2.1.9-2.1.9l11.37,9.4-5.93-3.41,1.26,2.04-4.31-3.23c-3.71.48-6.53.08-7.72-2.69-.06,2.04.42,2.75.42,2.75-1.86-1.44-2.27-3.59-1.8-4.43.48-.84-.6.9-5.03-1.32Z"/><path class="cls-1" d="m78.87,39.67c-.12,0-.25-.01-.38-.04-.45-.1-.82-.37-1.07-.75-.24-.39-.32-.84-.22-1.29l1.09.25c-.03.15,0,.31.08.45s.22.23.37.26c.32.07.64-.13.71-.45l1.09.25c-.18.79-.89,1.33-1.67,1.33Z"/><path class="cls-5" d="m68.64,30.48s13.05-.72,14.67.72c1.62,1.44,5.39,8.56,7.12,10-3.71-2.69-6.65-7.72-8.92-8.02s-17.12,1.14-18.02.06c3.95-.12,12.15-1.56,12.15-1.56l-7-1.2Z"/><path class="cls-6" d="m51.28,30.3c.83-2.07,2.18-1.83,5.23,1.71-.48-2.16-.64-2.34-.64-2.34,0,0,2.36,1.57,2.98,4.38.11-2.92-.04-5.5-.04-5.5.81.83,1.16,3.07,1.16,3.07.37-2.6-.28-4.55-.28-4.55.96,1.62,1.06,1.98,1.12,2.45.2-2.9-.85-4.27-1.66-5.13,1.72.82,2.43,2.08,2.67,3.1.35-2.46-1.74-5.21-1.74-5.21,1.32.73,3.11,2.55,3.17,2.79-.43-1.95-1.44-3.79-3.46-4.29,2.51.12,5.51.3,6.23,1.44-1.32-2.04-3.41-4.36-6.35-4.36,1.48.67,1.92,1.54,1.92,1.54,0,0-2.75-2.17-7.43-.87,2.19.27,3.42,1.17,3.42,1.17,0,0-4.43-.52-6.82,2,2.56-.47,3.59-.14,3.59-.14-2.65,1.3-3.89,2.83-3.89,5.91.66-1.82,2.22-2.32,2.22-2.32-1.78,1.78-1.38,5.15-1.38,5.15Z"/><path class="cls-6" d="m71.73,27.48c1.31-4.88-1.41-10.71-11.05-17.95,4.25,1.26,8.26,3.71,9.16,5.93-.9-2.22-2.1-4.43-4.19-6.59,5.21,3.05,7.24,5.51,7.24,5.51-2.04-4.07-5.57-7.66-10.48-9.46,4.91,1.8,11.91,3.47,12.81,12.51,1.58,1.25,4.81,4.43,4.81,4.43l-6.3-4.43,2.86,4.86-4.85-4.86,2.95,5.45-2.51-2.27s1.45.94-.44,6.88Z"/><polygon class="cls-6" points="71.21 69.93 73.99 69.06 77.24 70.16 79.69 73.02 81.39 77.18 81.39 79.56 83.23 81.4 85.03 82.5 84.76 85.1 81.63 84.3 77.87 82.46 75.32 80.66 73.13 78.78 71.21 76.07 70.58 71.37 71.21 69.93"/><path class="cls-6" d="m94.57,63.84c.72,2.34-.87,6.48-1.56,8.52-.04.12.02.17.12.1,1.89-1.29,7.37-8.69,6.17-10.51-1.8.53-3.7,1.15-4.49,1.41-.2.07-.31.29-.25.49Z"/><path class="cls-5" d="m95.08,63.26c1.03,2.26-.62,5.73-1.35,7.87-.04.11-.42.87-.34.79,2.46-2.31,5.73-7.4,5.91-9.98-2.36.7-4.22,1.32-4.22,1.32Z"/><path class="cls-6" d="m103.76,60.74c-.29,1-2.46,8.91-6.89,11.98-.14.1-.31-.08-.2-.21.56-.76.6-1.24.63-1.8.08-1.32-.08-3.44-.08-3.44,0,0,2.05-2.12,2.1-5.33,2.47-.61,3.2-1.42,4.45-1.2Z"/><path class="cls-5" d="m99.94,61.94c.62,0,3-1.44,1.59,1.69-.55,1.21-2.74,7.11-4.69,8.84,1.74-1.27,4.35-4.48,6.2-11.57-2.53.54-3.73,1.04-3.73,1.04h.63Z"/><path class="cls-6" d="m101.36,60.6c-2.96,1.36-8.71,3.15-12.07,2.21,1.76,1,5.42,1.02,9.53-.39,4.11-1.41,4.82-2.17,5.93-1.35.65-.29-.65-.65-.59-1.35s.82-3.99,1.35-4.52c.53-.53,3.11-3.55,2.94-5.9-.2.23-.41.51-.91.44-.62-.09-1.03-1.53-2.44-1.59-1.41-.06-2.31,1.88-3.83,1.59-1.53-.29-2.16-.82-4.33-4.23.35,2,2.41,4.17,4.35,5.76,1.94,1.59,4.58,3.17,2.11,8.4-.58.25-1.27.58-2.04.94"/><path class="cls-6" d="m73.21,67.69c1.76-1.05,6.57.43,8.11,2.27,2.51,3.02,1.75,6.1,3.13,7.78,1.25,1.52,2.11,1.08,2.57,1.52.54.53.54,2.18.54,2.18,0,0-5.21,2.04-6.59-1.02-1.38-3.05-1.54-7.96-3.41-9.6-1.61-1.41-4.52-1.87-5.05-.93-.53.94-1.14-1.1.7-2.19Z"/><path class="cls-6" d="m72.09,70.05c.99-1.08,2.67-1.31,4.07-.91,1.46.41,2.65,1.49,3.44,2.76,1.38,2.33,1.68,5.26.78,7.82-1.31-2.04-2.04-4.25-3.27-6.29-1.21-1.93-2.54-3.1-5.03-3.38h0Z"/><path class="cls-6" d="m84.72,61.84c-4.11.51-11.4,1.97-11.51,5.85,1.88-.39,5.26.24,6.36.95-.86-.86-.8-3.06.77-4.16,1.21-.85,1.95-1.65,4.44-2.33.19-.05.14-.33-.06-.31Z"/><path class="cls-1" d="m73.17,68.15c1.7-1.02,6.36.41,7.85,2.2,2.43,2.92,1.7,5.91,3.03,7.53,1.21,1.47,2.04,1.04,2.49,1.47.52.51.52,2.11.52,2.11,0,0-5.05,1.97-6.38-.99-1.33-2.96-1.49-7.71-3.31-9.3-1.55-1.37-3.54-1.81-4.89-.9-.87.58-1.1-1.06.68-2.12Z"/><path class="cls-6" d="m73.17,68.15c-.76.49-1.34,2.67-1.34,3.19s-.18,9.03,10.92,12.38c2.29.62,4.16.23,5.62-.14.21-.05.36-.3.55-.35.5-.13,1.2-.13,1.59-.16,1.59-.12,2.38-.66,1.96.54-.41,1.2-1.12,1.85-1.12,2.26-.65.35-1.7,0-2.47,0s-1.23.94-3.47.7c-2.23-.23-11.27-5.14-13.34-7.34-2.82-3-3.91-5.77-2.46-9.59.81-2.13,3.58-5.24,10.13-6.81,1.04-.25-6.59,5.32-6.59,5.32Z"/><path class="cls-4" d="m73.6,68.32c5.09-.29,7.98,2.1,8,7.3.14,2.76.95,5.01,4.18,3.94-1.76.84-3.45.52-4.15-1.45-.61-1.56-.44-3.27-.78-4.86-.62-3.54-4.02-4.82-7.26-4.93h0Z"/><path class="cls-6" d="m91.39,77.6c.23-.39,1.14-1.69,1.72-2.62.18-.29.62-.16.62.18.05,2.68-1.11,6.76-2.09,7.81-2.69.37-3.71.52-3.71.52l3.46-5.88Z"/><path class="cls-5" d="m91.35,77.96c.21-.36,1.04-1.55,1.58-2.41.16-.26.57-.15.57.16.05,2.46-1.02,6.2-1.92,7.17-2.47.34-2.52.19-2.52.19l2.29-5.11Z"/><path class="cls-6" d="m82.55,83.16s-.23-1.08.36-1.08c1.15-.01,5.83-2.1,7.95-7.09.1-.23.43-.19.48.05.35,1.63.55,5.18-2.37,8.3-1.89,1.76-3.59,1.76-3.59,1.76,0,0-2.58-.35-2.82-1.94Z"/><path class="cls-6" d="m75.57,77.18s.36,2.3,1.77,3.25,2.11,1.55,5.21,2.74c.47.18-1.34-2.53-2.17-2.41-.31-1.54-.49-2.6-1.03-2.96-.84.47-1,.06-1.7.06s-2.08-.68-2.08-.68Z"/><path class="cls-6" d="m72.5,71.12c.59.76.7-.03,1.73.25.18.76,0,2.58,0,2.58-1.08.63-2.07-.84-2.16-1.42-.43-2.69.43-1.42.43-1.42Z"/><path class="cls-5" d="m82.83,83.03s-.3-.73.23-.73c1.04,0,5.69-2.29,7.69-6.77.09-.21.39-.17.43.05.29,1.48.41,4.7-2.29,7.47-1.74,1.57-3.28,1.54-3.28,1.54,0,0-2.59-.12-2.78-1.56Z"/><path class="cls-5" d="m75.57,77.18s.36,2.3,1.77,3.25,1.94,1.5,5.04,2.69c.47.18-1.37-2.22-2.2-2.1-.73-1.28-.57-2.62-1.11-2.98-.84.47-.71,0-1.42,0s-2.08-.86-2.08-.86Z"/><path class="cls-5" d="m72.44,71.32c.59.76.62-.03,1.64.25.18.76-.08,2.29-.08,2.29-1.06.25-1.86-.84-1.94-1.32-.45-2.69.37-1.22.37-1.22Z"/><path class="cls-6" d="m73.21,74.23c.23.7,2.53,3.86,3.17,3.8.65-.06.24-2.58.18-3.76-.06-1.17-.43.05-1.26-.24-.82-.29-1.49-.29-2.1.21Z"/><path class="cls-5" d="m73.21,74.23c.23.7,2.47,3.56,3.11,3.51s.18-1.98.12-3.15-.31,0-1.14-.29c-.82-.29-1.49-.56-2.1-.06Z"/><path class="cls-4" d="m71.97,70.37c1.55-1.99,4.08-.73,5.68.76,1.51,1.59,1.71,3.91,2.12,5.93.29,1.32.52,2.99,1.4,4.09-1.04-.96-1.41-2.71-1.77-4.01-.51-1.94-.7-4.15-2.07-5.67-1.48-1.44-3.69-2.29-5.36-.63v-.46Z"/><path class="cls-6" d="m104.95,61.22l-.4-.28c3.18-4.47,2.11-7.93,2.1-7.97l.46-.15c.05.15,1.17,3.71-2.17,8.4Z"/><path class="cls-5" d="m98.2,45.38c.82.87,1.66,1.82,2.66,2.45.5.3.85.36,1.39.1.56-.24.95-.68,1.55-.97,1.39-.65,2.99.14,3.86,1.21h0s0,.01,0,.01c-.02-.01-.1-.05-.16-.05-.26,0-.39.25-.28.46l-.02-.05c-.49-.99-1.14-1.86-1.9-2.68.99.56,1.85,1.39,2.48,2.35.25.31-.13.76-.48.54-.07-.04-.16-.11-.23-.17-.78-.72-1.88-1.27-2.91-.81-.45.19-.93.69-1.61.94-.36.13-.71.22-1.12.16-.4-.07-.71-.27-.98-.47-1.02-.82-1.71-1.88-2.26-3.03h0Z"/><path class="cls-6" d="m95.23,63.16c-4.5.94-12.52.6-18.27-5.56,2.53,1.37,5.66.66,5.66.66-1.65-.89-4.19-3.11-5.33-5.94,2.87,2,5.18,1.9,6.41,1.85-.73-.87-2.61-2.34-3.22-4.77,2.94,1.93,5.02,2.24,5.35,2.29.33.06-1.25-1.63,1.28-6.2-.98,4.47-1.06,6.74,4.98,8.3-2.99.54-6.11-.4-7.93-1.41,1.38,1.61,4.04,3.17,7.23,3.76-3.6.57-5.77-.57-5.77-.57,2.66,1.95,4.89,2.31,8.18,2.5-2.64.55-6.5.83-11.84-1.7,1.02,1.33,3.69,2.77,6.95,3.28-2.39.87-7.79-.02-7.79-.02,1.54,1.25,10.4,5.45,18.18,1.91"/><path class="cls-5" d="m90.83,88.07s-.58,6.47-.64,6.59-1.56-2.65-1.56-2.65c-.24,1.93-.31,4.32-1.62,7.14.48-2.45,1.08-8.36.92-9.58.94.3,1.9,2.1,1.9,2.1l1-3.59Z"/><path class="cls-5" d="m49.12,21.86c1.5-6.62,7.33-10.1,13.47-6.32,1.65,1.02,3.05,2.33,4.23,3.8-1.88-1.21-3.68-2.37-5.7-3.16-5.62-2.21-9.2.94-11.99,5.68h0Z"/><path class="cls-6" d="m48.67,34.73c.9,4.04,2.94,11.58,5.47,14.46-3.22-3.14-5.38-5.57-5.47-7.23,1.44,5.61,5.84,14.68,7.99,16.93-4.04-4.49-11.85-18.23-11.85-18.23l3.86-5.93Z"/><path class="cls-1" d="m59.99,12.64c-5.84-2.42-23.08-9.25-36.82,4.94,7-4.04,16.61-3.32,16.61-3.32l-7.99,3.32,6.45,8.56-6.54-2.09-1.44,10.69s6.9-7.25,7.98-8.6c0,0,3.79-8.38,8.46-11.07s8.45-3.68,13.3-2.42Z"/><polygon class="cls-6" points="48.67 34.7 40.68 45.86 26.13 38.77 48.67 34.7"/><polygon class="cls-3" points="26.13 38.77 26.13 54.84 40.68 45.86 26.13 38.77"/><polygon class="cls-3" points="31.79 17.58 26.13 38.77 17.06 28.17 31.79 17.58"/><polygon class="cls-6" points="17.06 28.17 15 41.01 0 48.92 17.06 28.17"/><polygon class="cls-3" points="15 41.01 13.65 57.81 1.71 63.55 15 41.01"/><polygon class="cls-6" points="13.65 57.81 19.13 70.56 7.63 82.11 13.65 57.81"/><polygon class="cls-6" points="15 41.01 19.13 70.56 26.13 54.84 15 41.01"/><polygon class="cls-3" points="19.13 70.56 17.06 92.01 26.13 82.95 19.13 70.56"/><polygon class="cls-3" points="26.13 54.84 34.12 88.25 34.12 88.25 42.57 78.64 26.13 54.84"/><polygon class="cls-6" points="28.11 63.13 26.13 82.95 26.13 96.87 34.12 88.25 28.11 63.13"/><polygon class="cls-6" points="42.57 78.64 36.54 107.51 34.12 88.25 42.57 78.64"/><polygon class="cls-6" points="44.81 40.66 41.58 46.81 46.24 57.01 44.81 40.66"/><polygon class="cls-3" points="46.24 57.01 52.71 67.51 56.66 58.89 46.24 57.01"/><polygon class="cls-6" points="46.24 57.01 42.57 78.64 52.71 67.51 46.24 57.01"/><polygon class="cls-3" points="30.26 34.73 38.24 26.13 48.67 34.7 30.26 34.73"/><polyline class="cls-6" points="23.17 17.58 17.06 28.17 3.94 31.45"/><path class="cls-5" d="m41.28,6.35c7.19-2.06,16.95-2.71,23.77.78-7.78-2.04-15.84-1.31-23.77-.78h0Z"/><path class="cls-5" d="m26.13,15.72c5.68-5.17,14.57-7.48,22.06-5.84-7.75-.01-15.35,1.95-22.06,5.84h0Z"/><path class="cls-5" d="m79.1,22.34c3.01,2.36,5.94,4.79,8.86,7.26.12.11.43.36.55.46,1.84,1.24,1.6,3.7,1.88,5.64.09.9.17,1.81.22,2.72-.25-.87-.48-1.75-.7-2.63-.1-.39-.2-.84-.3-1.28-.22-.94-.54-1.86-.99-2.71-.24-.45-.5-.87-.86-1.24-2.93-2.69-5.83-5.42-8.65-8.22h0Z"/><path class="cls-6" d="m56.66,58.89s-3.39,30.53,20.59,34.15c-4.85,2.27-7.9,1.46-7.9,1.46,5.03,3.77,6.98,4.63,8.53,5.12-9.31,1.02-21.1-8.94-23.62-11.55h0s-2.02-13.69-1.55-20.57l3.95-8.62Z"/><polygon class="cls-6" points="54.27 88.07 42.57 78.64 45.43 113.35 54.27 88.07"/><polygon class="cls-3" points="42.57 78.64 54.27 88.07 52.71 67.51 42.57 78.64"/><polygon class="cls-6" points="31.7 24.04 30.26 34.73 38.24 26.13 31.7 24.04"/><path class="cls-5" d="m76.01,123.31c-.44-3.52,1.14-8.39,1.85-11.83.85-3.87,1.21-7.83.77-11.78,1.22,3.85,1.12,8.09.31,12.01-.75,3.96-2.38,7.61-2.92,11.61h0Z"/><path class="cls-5" d="m85.78,61.22c5.51.8,11.45-.08,16.39-2.63,0,0-.12.12-.12.12.69-1.05,1.14-2.37,1.01-3.65-.04-.44-.18-.87-.33-1.3.26.37.5.78.61,1.24.4,1.34.14,3.17-.7,4.3-4.77,3.07-11.55,4-16.86,1.91h0Z"/><path class="cls-5" d="m106.47,54.66c.05,1.86-.41,3.88-1.68,5.3.83-1.7,1.21-3.48,1.68-5.3h0Z"/><path class="cls-5" d="m73.86,63.55c-8.93,4.8-7.2,15.03,1.32,19.22,2.42,1.38,5.12,2.46,7.33,4.28-2.46-1.45-5.19-2.21-7.75-3.5-9.34-3.88-11.13-16.12-.9-20.01h0Z"/><path class="cls-6" d="m60.35,48.57s-3.83,4.22,4.49,7.39c-2.54-.12-6.14-2.16-6.14-2.16,3.47,3.02,2.81,8.34,2.81,8.34-1.17-4.06-1.92-6.11-3.5-6.11,1.16,4.84-2.14,9.49,1.13,15.78-4.61-3.13-4.46-7.8-2.7-12.3.98-2.51.67-9.16-2.18-17.07,2.85,7.9,6.09,6.12,6.09,6.12Z"/><path class="cls-6" d="m55.99,92.01c0,12.25-1.09,21.77-1.29,22.74,2.57-2.06,5.73-4.83,6.96-12.55,2.06,3.86,1.72,11.04.18,17.93,4.44-3.93,8.74-10.98,8.74-10.98.99,3.86,2.28,10.23,3.63,11.72-1.8-10.18-2.16-16.19-2.16-16.19-2.66,4.98-5.77,8.76-7.32,10.78,1.45-5.61-1.64-18.13-3.85-17.72-.09,4.46-1.33,8.89-3.27,12.13-.95-2.36,1.47-9.81-1.62-17.85Z"/></svg>