<?xml version="1.0" encoding="UTF-8"?>
<svg id="Layer_1" xmlns="http://www.w3.org/2000/svg" xmlns:xlink="http://www.w3.org/1999/xlink" version="1.1" viewBox="0 0 200 200">
  <!-- Generator: Adobe Illustrator 30.0.0, SVG Export Plug-In . SVG Version: 2.1.1 Build 123)  -->
  <defs>
    <style>
      .st0 {
        fill: url(#linear-gradient1);
      }

      .st1 {
        fill: url(#linear-gradient);
      }

      .st2 {
        fill: #fff;
      }

      .st3 {
        fill: none;
        stroke: #fff;
        stroke-miterlimit: 10;
        stroke-width: 1.77px;
      }

      .st4 {
        opacity: .42;
      }
    </style>
    <linearGradient id="linear-gradient" x1="34.76" y1="37.57" x2="165.25" y2="168.05" gradientTransform="translate(0 202) scale(1 -1)" gradientUnits="userSpaceOnUse">
      <stop offset="0" stop-color="#000"/>
      <stop offset="0" stop-color="#08090e"/>
      <stop offset="0" stop-color="#323d5b"/>
      <stop offset="0" stop-color="#43527a"/>
      <stop offset=".23" stop-color="#455178"/>
      <stop offset=".39" stop-color="#4f5172"/>
      <stop offset=".54" stop-color="#5f5169"/>
      <stop offset=".67" stop-color="#75515c"/>
      <stop offset=".8" stop-color="#92514c"/>
      <stop offset=".92" stop-color="#b55137"/>
      <stop offset="1" stop-color="#d35127"/>
    </linearGradient>
    <linearGradient id="linear-gradient1" x1="34.76" y1="1042.43" x2="165.25" y2="911.95" gradientTransform="translate(0 -878)" gradientUnits="userSpaceOnUse">
      <stop offset="0" stop-color="#000"/>
      <stop offset="0" stop-color="#08090e"/>
      <stop offset="0" stop-color="#323d5b"/>
      <stop offset="0" stop-color="#446491"/>
      <stop offset=".23" stop-color="#33507a"/>
      <stop offset=".4" stop-color="#304d78"/>
      <stop offset=".54" stop-color="#5f5169"/>
      <stop offset=".67" stop-color="#75515c"/>
      <stop offset=".8" stop-color="#92514c"/>
      <stop offset=".92" stop-color="#b55137"/>
      <stop offset="1" stop-color="#d35127"/>
    </linearGradient>
  </defs>
  <g>
    <path class="st1" d="M147.76,181.91H52.24L4.47,99.19,52.24,16.46h95.53l47.76,82.73-47.76,82.73h-.01Z"/>
    <path class="st0" d="M147.76,181.91H52.24L4.47,99.19,52.24,16.46h95.53l47.76,82.73-47.76,82.73h-.01Z"/>
    <g class="st4">
      <path class="st3" d="M147.76,181.91H52.24L4.47,99.19,52.24,16.46h95.53l47.76,82.73-47.76,82.73h-.01Z"/>
    </g>
  </g>
  <g>
    <path class="st2" d="M70.84,70.84v15.08h20.25v9.56h-20.25v15.94h22.83v9.82h-34.9v-60.23h34.9v9.82h-22.83Z"/>
    <path class="st2" d="M123.1,74.93c2.73-1.47,5.85-2.2,9.35-2.2,4.08,0,7.77,1,11.07,3.02,3.3,2.01,5.91,4.87,7.84,8.58,1.92,3.71,2.89,8,2.89,12.88s-.96,9.21-2.89,12.97c-1.93,3.77-4.54,6.68-7.84,8.75s-6.99,3.1-11.07,3.1c-3.5,0-6.59-.72-9.26-2.16-2.67-1.43-4.84-3.24-6.5-5.43v29.56h-12.07v-70.49h12.07v6.89c1.55-2.18,3.69-4.01,6.42-5.47h0ZM140.16,89.75c-1.18-2.1-2.73-3.69-4.65-4.79-1.93-1.09-4.01-1.63-6.25-1.63s-4.24.56-6.16,1.68c-1.93,1.12-3.48,2.75-4.65,4.87-1.18,2.12-1.77,4.63-1.77,7.5s.59,5.38,1.77,7.5,2.73,3.75,4.65,4.87,3.98,1.68,6.16,1.68,4.32-.57,6.25-1.73c1.92-1.15,3.47-2.79,4.65-4.91,1.18-2.12,1.77-4.65,1.77-7.58s-.59-5.36-1.77-7.46h0Z"/>
  </g>
</svg>