<?xml version="1.0" encoding="UTF-8"?>
<svg id="Layer_1" xmlns="http://www.w3.org/2000/svg" xmlns:xlink="http://www.w3.org/1999/xlink" version="1.1" viewBox="0 0 200 200">
  <!-- Generator: Adobe Illustrator 30.0.0, SVG Export Plug-In . SVG Version: 2.1.1 Build 123)  -->
  <defs>
    <style>
      .st0 {
        fill: url(#linear-gradient1);
      }

      .st1 {
        fill: url(#linear-gradient);
      }

      .st2 {
        fill: #fff;
      }

      .st3 {
        fill: none;
        stroke: #fff;
        stroke-miterlimit: 10;
        stroke-width: 1.77px;
      }

      .st4 {
        opacity: .42;
      }
    </style>
    <linearGradient id="linear-gradient" x1="34.76" y1="1042.43" x2="165.25" y2="911.95" gradientTransform="translate(0 -878)" gradientUnits="userSpaceOnUse">
      <stop offset="0" stop-color="#000"/>
      <stop offset="0" stop-color="#08090e"/>
      <stop offset="0" stop-color="#323d5b"/>
      <stop offset="0" stop-color="#43527a"/>
      <stop offset=".23" stop-color="#455178"/>
      <stop offset=".39" stop-color="#4f5172"/>
      <stop offset=".54" stop-color="#5f5169"/>
      <stop offset=".67" stop-color="#75515c"/>
      <stop offset=".8" stop-color="#92514c"/>
      <stop offset=".92" stop-color="#b55137"/>
      <stop offset="1" stop-color="#d35127"/>
    </linearGradient>
    <linearGradient id="linear-gradient1" x1="34.76" y1="1042.43" x2="165.25" y2="911.95" gradientTransform="translate(0 -878)" gradientUnits="userSpaceOnUse">
      <stop offset="0" stop-color="#000"/>
      <stop offset="0" stop-color="#08090e"/>
      <stop offset="0" stop-color="#323d5b"/>
      <stop offset="0" stop-color="#446491"/>
      <stop offset=".23" stop-color="#33507a"/>
      <stop offset=".4" stop-color="#304d78"/>
      <stop offset=".54" stop-color="#5f5169"/>
      <stop offset=".67" stop-color="#75515c"/>
      <stop offset=".8" stop-color="#92514c"/>
      <stop offset=".92" stop-color="#b55137"/>
      <stop offset="1" stop-color="#d35127"/>
    </linearGradient>
  </defs>
  <g>
    <path class="st1" d="M147.76,181.91H52.24L4.47,99.19,52.24,16.46h95.53l47.76,82.73-47.76,82.73h-.01Z"/>
    <path class="st0" d="M147.76,181.91H52.24L4.47,99.19,52.24,16.46h95.53l47.76,82.73-47.76,82.73h-.01Z"/>
    <g class="st4">
      <path class="st3" d="M147.76,181.91H52.24L4.47,99.19,52.24,16.46h95.53l47.76,82.73-47.76,82.73h-.01Z"/>
    </g>
  </g>
  <g>
    <path class="st2" d="M97.46,93.24c-1.51,2.79-3.88,5.04-7.09,6.75-3.22,1.7-7.28,2.56-12.17,2.56h-10v22.9h-11.96v-59.64h21.95c4.61,0,8.55.8,11.79,2.39,3.25,1.6,5.68,3.79,7.3,6.58s2.44,5.96,2.44,9.48c0,3.19-.75,6.18-2.26,8.97h0ZM85.03,90.63c1.6-1.51,2.39-3.63,2.39-6.37,0-5.81-3.25-8.71-9.74-8.71h-9.48v17.34h9.48c3.3,0,5.76-.75,7.35-2.26Z"/>
    <path class="st2" d="M116.9,123.19c-3.65-2.02-6.51-4.89-8.59-8.59s-3.12-7.97-3.12-12.82,1.07-9.11,3.2-12.82c2.14-3.7,5.05-6.57,8.76-8.59,3.7-2.02,7.83-3.03,12.39-3.03s8.69,1.01,12.39,3.03,6.62,4.89,8.76,8.59,3.21,7.98,3.21,12.82-1.09,9.11-3.29,12.82c-2.2,3.7-5.15,6.57-8.89,8.59-3.73,2.02-7.9,3.03-12.51,3.03s-8.66-1.01-12.31-3.03h0ZM135.31,114.22c1.9-1.05,3.43-2.63,4.57-4.75,1.14-2.11,1.7-4.67,1.7-7.69,0-4.5-1.19-7.96-3.54-10.38-2.36-2.42-5.25-3.63-8.67-3.63s-6.28,1.21-8.59,3.63-3.46,5.88-3.46,10.38,1.13,7.96,3.38,10.38,5.09,3.63,8.5,3.63c2.16,0,4.2-.53,6.11-1.58h0Z"/>
  </g>
</svg>