<?xml version="1.0" encoding="UTF-8"?>
<svg id="Layer_1" data-name="Layer 1" xmlns="http://www.w3.org/2000/svg" viewBox="0 0 200 200">
  <defs>
    <style>
      .cls-1 {
        fill: #b3b3b3;
      }

      .cls-2 {
        fill: #fff;
      }
    </style>
  </defs>
  <path class="cls-1" d="M184.77,86.61h-.09v-.1h-.09v-.1h-.09v-.1h-.09v-.1h-.09v-.1h-.09v-.1h-.09v-.1h-.09v-.1h-.09v-.1h-.09v-.1h-.09v-.1h-.09v-.1h-.09v-.1h-.09v-.1h-.09v-.1h-.09v-.1h-.09v-.1h-.09v-.1h-.09v-.1h-.09v-.1h-.09v-.1h-.09v-.1h-.09v-.1h-.09v-.1h-.09v-.1h-.09v-.1h-.09v-.1h-.09v-.1h-.09v-.1h-.09v-.1h-.09v-.1h-.09v-.1h-.09v-.1h-.09v-.1h-.09v-.1h-.09v-.1h-.09v-.1h-.09v-.1h-.09v-.1h-.09v-.1h-.09v-.1h-.09v-.1h-.09v-.1h-.09v-.1h-.09v-.1h-.09v-.1h-.09v-.1h-.09v-.1h-.09v-.1h-.09v-.1h-.09v-.1h-.09v-.1h-.09v-.1h-.09v-.1h-.09v-.1h-.09v-.1h-.09v-.1h-.09v-.1h-.09v-.1h-.09v-.1h-.09v-.1h-.09v-.1h-.09v-.1h-.09v-.1h-.09v-.1h-.09v-.1h-.09v-.1h-.09v-.1h-.09v-.1h-.09v-.1h-.09v-.1h-.09v-.1h-.09v-.1h-.09v-.1h-.09v-.1h-.09v-.1h-.09v-.1h-.09v-.1h-.09v-.1h-.09v-.1h-.09v-.1h-.09v-.1h-.09v-.1h-.09v-.1h-.09v-.1h-.09v-.1h-.09v-.1h-.09v-.1h-.09v-.1l-12.48-1.99c-.85-1.87-1.69-3.75-2.57-5.61-.12-.26-.36-1.08-.71-1.41-.03-.04-.06-.07-.09-.1-.03-.04-.06-.07-.09-.1-.03-.04-.06-.07-.09-.1-.03-.04-.06-.07-.09-.1-.03-.04-.06-.07-.09-.1-.03-.04-.06-.07-.09-.1-.03-.04-.06-.07-.09-.1-.03-.04-.06-.07-.09-.1-.03-.04-.06-.07-.09-.1-.03-.04-.06-.07-.09-.1-.03-.04-.06-.07-.09-.1-.03-.04-.06-.07-.09-.1-.03-.04-.06-.07-.09-.1-.03-.04-.06-.07-.09-.1-.03-.04-.06-.07-.09-.1-.03-.04-.06-.07-.09-.1-.03-.04-.06-.07-.09-.1-.03-.04-.06-.07-.09-.1-.03-.04-.06-.07-.09-.1-.03-.04-.06-.07-.09-.1-.03-.04-.06-.07-.09-.1-.03-.04-.06-.07-.09-.1-.03-.04-.06-.07-.09-.1-.03-.04-.06-.07-.09-.1-.03-.04-.06-.07-.09-.1-.03-.04-.06-.07-.09-.1-.03-.04-.06-.07-.09-.1-.03-.04-.06-.07-.09-.1-.03-.04-.06-.07-.09-.1-.03-.04-.06-.07-.09-.1-.03-.04-.06-.07-.09-.1-.03-.04-.06-.07-.09-.1-.03-.04-.06-.07-.09-.1-.03-.04-.06-.07-.09-.1-.03-.04-.06-.07-.09-.1-.03-.04-.06-.07-.09-.1-.03-.04-.06-.07-.09-.1-.03-.04-.06-.07-.09-.1-.03-.04-.06-.07-.09-.1-.03-.04-.06-.07-.09-.1-.03-.04-.06-.07-.09-.1-.03-.04-.06-.07-.09-.1-.03-.04-.06-.07-.09-.1-.03-.04-.06-.07-.09-.1-.03-.04-.06-.07-.09-.1-.03-.04-.06-.07-.09-.1-.03-.04-.06-.07-.09-.1-.03-.04-.06-.07-.09-.1-.03-.04-.06-.07-.09-.1-.03-.04-.06-.07-.09-.1-.03-.04-.06-.07-.09-.1-.03-.04-.06-.07-.09-.1-.03-.04-.06-.07-.09-.1-.03-.04-.06-.07-.09-.1-.03-.04-.06-.07-.09-.1-.03-.04-.06-.07-.09-.1-.03-.04-.06-.07-.09-.1-.03-.04-.06-.07-.09-.1-.03-.04-.06-.07-.09-.1-.03-.04-.06-.07-.09-.1-.03-.04-.06-.07-.09-.1-.03-.04-.06-.07-.09-.1-.03-.04-.06-.07-.09-.1-.03-.04-.06-.07-.09-.1-.03-.04-.06-.07-.09-.1-.03-.04-.06-.07-.09-.1-.03-.04-.06-.07-.09-.1-.03-.04-.06-.07-.09-.1-.03-.04-.06-.07-.09-.1-.03-.04-.06-.07-.09-.1-.03-.04-.06-.07-.09-.1-.03-.04-.06-.07-.09-.1-.03-.04-.06-.07-.09-.1-.03-.04-.06-.07-.09-.1-.03-.04-.06-.07-.09-.1-.03-.04-.06-.07-.09-.1-.03-.04-.06-.07-.09-.1-.03-.04-.06-.07-.09-.1-.03-.04-.06-.07-.09-.1-.03-.04-.06-.07-.09-.1-.03-.04-.06-.07-.09-.1-.03-.04-.06-.07-.09-.1-.03-.04-.06-.07-.09-.1-.03-.04-.06-.07-.09-.1-.03-.04-.06-.07-.09-.1-.03-.04-.06-.07-.09-.1-.03-.04-.06-.07-.09-.1-.03-.04-.06-.07-.09-.1-.14-.18-.31-.28-.49-.23l-7.3,15.33-14.36,2.3,8.48-8.81-.16-.02.07-.07-.16-.02.07-.07-.16-.02.07-.07-.16-.02.07-.07-.16-.02.07-.07-.16-.02.07-.07-.16-.02.07-.07-.16-.02.07-.07-.16-.02.07-.07-.16-.02.07-.07-.16-.02.07-.07-.16-.02.07-.07-.16-.02.07-.07-.16-.02.07-.07-.16-.02.07-.07-.16-.02.07-.07-.16-.02.07-.07-.16-.02.07-.07-.16-.02.07-.07-.16-.02.07-.07-.16-.02.07-.07-.16-.02.07-.07-.16-.02.07-.07-.16-.02.07-.07-.16-.02.07-.07-.16-.02.07-.07-.16-.02.07-.07-.16-.02.07-.07-.16-.02.07-.07-.16-.02.07-.07-.16-.02.07-.07-.16-.02.07-.07-.16-.02.07-.07-.16-.02.07-.07-.16-.02.07-.07-.16-.02.07-.07-.16-.02.07-.07-.16-.02.07-.07-.16-.02.07-.07-.16-.02.07-.07-.16-.02.07-.07-.16-.02.07-.07-.16-.02.07-.07-.16-.02.07-.07-.16-.02.07-.07-.16-.02.07-.07-.16-.02.07-.07-.16-.02.07-.07-.16-.02.07-.07-.16-.02.07-.07-.16-.02.07-.07-.16-.02.07-.07-.16-.02.07-.07-.16-.02.07-.07-.16-.02.07-.07-.16-.02.07-.07-.16-.02.07-.07-.16-.02.07-.07-.16-.02.07-.07-.16-.02.07-.07-.16-.02.07-.07-.16-.02.07-.07-.16-.02.07-.07-.16-.02.07-.07-.16-.02.07-.07-.16-.02.07-.07-.16-.02.07-.07-.16-.02.07-.07-.16-.02.07-.07-.16-.02.07-.07-.16-.02.07-.07-.16-.02.07-.07-.16-.02.07-.07-.16-.02.07-.07-.16-.02.07-.07-.16-.02.07-.07-.16-.02.07-.07-.16-.02.07-.07-.16-.02.07-.07-.16-.02.07-.07-.16-.02.07-.07-.16-.02.07-.07-.16-.02.07-.07-.16-.02.07-.07-.16-.02.07-.07-.16-.02.07-.07-.16-.02.07-.07-.16-.02.07-.07-.16-.02.07-.07-17.99-2.77-5.67-12.37-.03.02-.05-.12-.03.02-.05-.12-.03.02-.05-.12-.03.02-.05-.12-.03.02-.05-.12-.03.02-.05-.12-.03.02-.05-.12-.03.02-.05-.12-.03.02-.05-.12-.03.02-.05-.12-.03.02-.05-.12-.03.02-.05-.12-.03.02-.05-.12-.03.02-.05-.12-.03.02-.05-.12-.03.02-.05-.12-.03.02-.05-.12-.03.02-.05-.12-.03.02-.05-.12-.03.02-.05-.12-.03.02-.05-.12-.03.02-.05-.12-.03.02-.05-.12-.03.02-.05-.12-.03.02-.05-.12-.03.02-.05-.12-.03.02-.05-.12-.03.02-.05-.12-.03.02-.05-.12-.03.02-.05-.12-.03.02-.05-.12-.03.02-.05-.12-.03.02-.05-.12-.03.02-.05-.12-.03.02-.05-.12-.03.02-.05-.12-.03.02-.05-.12-.03.02-.05-.12-.03.02-.05-.12-.03.02-.05-.12-.03.02-.05-.12-.03.02-.05-.12-.03.02-.05-.12-.03.02-.05-.12-.03.02-.05-.12-.03.02-.05-.12-.03.02-.05-.12-.03.02-.05-.12-.03.02-.05-.12-.03.02-.05-.12-.03.02-.05-.12-.03.02-.05-.12-.03.02-.05-.12-.03.02-.05-.12-.03.02-.05-.12-.03.02-.05-.12-.03.02-.05-.12-.03.02-.05-.12-.03.02-.05-.12-.03.02-.05-.12-.03.02-.05-.12-.03.02-.05-.12-.03.02-.05-.12-.03.02-.05-.12-.03.02-.05-.12-.03.02-.05-.12-.03.02-.05-.12-.03.02-.05-.12-.03.02-.05-.12-.03.02-.05-.12-.03.02-.05-.12-.03.02-.05-.12-.03.02-.05-.12-.03.02-.05-.12-.03.02-.05-.12-.03.02-.05-.12-.03.02-.05-.12-.03.02-.05-.12-.03.02-.05-.12-.03.02-.05-.12-.03.02-.05-.12-.03.02-.05-.12-.03.02-.05-.12-.03.02-.05-.12-.03.02-.05-.12-.03.02-.05-.12-.03.02-.05-.12-.03.02-.05-.12-.03.02-.05-.12-.74.43-9.32,20.1-22.2,3.42.09.1h0s.09.1.09.1h0s.09.1.09.1h0s.09.1.09.1h0s.09.1.09.1h0s.09.1.09.1h0s.09.1.09.1h0s.09.1.09.1h0s.09.1.09.1h0s.09.1.09.1h0s.09.1.09.1h0s.09.1.09.1h0s.09.1.09.1h0s.09.1.09.1h0s.09.1.09.1h0s.09.1.09.1h0s.09.1.09.1h0s.09.1.09.1h0s.09.1.09.1h0s.09.1.09.1h0s.09.1.09.1h0s.09.1.09.1h0s.09.1.09.1h0s.09.1.09.1h0s.09.1.09.1h0s.09.1.09.1h0s.09.1.09.1h0s.09.1.09.1h0s.09.1.09.1h0s.09.1.09.1h0s.09.1.09.1h0s.09.1.09.1h0s.09.1.09.1h0s.09.1.09.1h0s.09.1.09.1h0s.09.1.09.1h0s.09.1.09.1h0s.09.1.09.1h0s.09.1.09.1h0s.09.1.09.1h0s.09.1.09.1h0s.09.1.09.1h0s.09.1.09.1h0s.09.1.09.1h0s.09.1.09.1h0s.09.1.09.1h0s.09.1.09.1h0s.09.1.09.1h0s.09.1.09.1h0s.09.1.09.1h0s.09.1.09.1h0s.09.1.09.1h0s.09.1.09.1h0s.09.1.09.1h0s.09.1.09.1h0s.09.1.09.1h0s.09.1.09.1h0s.09.1.09.1h0s.09.1.09.1h0s.09.1.09.1h0s.09.1.09.1h0s.09.1.09.1h0s.09.1.09.1h0s.09.1.09.1h0s.09.1.09.1h0s.09.1.09.1h0s.09.1.09.1h0s.09.1.09.1h0s.09.1.09.1h0s.09.1.09.1h0s.09.1.09.1h0s.09.1.09.1h0s.09.1.09.1h0s.09.1.09.1h0s.09.1.09.1h0s.09.1.09.1h0s.09.1.09.1h0s.09.1.09.1h0s.09.1.09.1h0s.09.1.09.1h0s.09.1.09.1h0s.09.1.09.1h0s.09.1.09.1h0s.09.1.09.1h0s.09.1.09.1h0s.09.1.09.1h0s.09.1.09.1h0s.09.1.09.1h0s.09.1.09.1h0s7.89,8.19,7.89,8.19l-3.54,22.57.11-.06-.03.16.11-.06-.03.16.11-.06-.03.16.11-.06-.03.16.11-.06-.03.16.11-.06-.03.16.11-.06-.03.16.11-.06-.03.16.11-.06-.03.16.11-.06-.03.16.11-.06-.03.16.11-.06-.03.16.11-.06-.03.16.11-.06-.03.16.11-.06-.03.16.11-.06-.03.16.11-.06-.03.16.11-.06-.03.16.11-.06-.03.16.11-.06-.03.16.11-.06-.03.16.11-.06-.03.16.11-.06-.03.16.11-.06-.03.16.11-.06-.03.16.11-.06-.03.16.11-.06-.03.16.11-.06-.03.16.11-.06-.03.16.11-.06-.03.16.11-.06-.03.16.11-.06-.03.16.11-.06-.03.16.11-.06-.03.16.11-.06-.03.16.11-.06-.03.16.11-.06-.03.16.11-.06-.03.16.11-.06-.03.16.11-.06-.03.16.11-.06-.03.16.11-.06-.03.16.11-.06-.03.16.11-.06-.03.16.11-.06-.03.16.11-.06-.03.16.11-.06-.03.16.11-.06-.03.16.11-.06-.03.16.11-.06-.03.16.11-.06-.03.16.11-.06-.03.16.11-.06-.03.16.11-.06-.03.16.11-.06-.03.16.11-.06-.03.16.11-.06-.03.16.11-.06-.03.16.11-.06-.03.16.11-.06-.03.16.11-.06-.03.16.11-.06-.03.16.11-.06-.03.16.11-.06-.03.16.11-.06-.03.16.11-.06-.03.16.11-.06-.03.16.11-.06-.03.16.11-.06-.03.16.11-.06-.03.16.11-.06-.03.16.11-.06-.03.16.11-.06-.03.16.11-.06-.03.16.11-.06-.03.16.11-.06-.03.16.11-.06-.03.16.11-.06-.03.16.11-.06-.03.16.11-.06-.03.16.11-.06-.03.16.11-.06-.03.16.11-.06-.03.16.11-.06-.03.16.11-.06-.03.16.11-.06-.03.16.11-.06-.03.16.11-.06-.03.16.11-.06-.03.16,19.73-10.92,19.52,10.92-3.61-23.04,6.18-6.42.02.02h0s.1.1.1.1h0s.1.1.1.1h0s.1.1.1.1h0s.1.1.1.1h0s.1.1.1.1h0s.1.1.1.1h0s.1.1.1.1h0s.1.1.1.1h0s.1.1.1.1h0s.1.1.1.1h0s.1.1.1.1h0s.1.1.1.1h0s.1.1.1.1h0s.1.1.1.1h0s.1.1.1.1h0s.1.1.1.1h0s.1.1.1.1h0s.1.1.1.1h0s.1.1.1.1h0s.1.1.1.1h0s.1.1.1.1h0s.1.1.1.1h0s.1.1.1.1h0s.1.1.1.1h0s.1.1.1.1h0s.1.1.1.1h0s.1.1.1.1h0s.1.1.1.1h0s.1.1.1.1h0s.1.1.1.1h0s.1.1.1.1h0s.1.1.1.1h0s.1.1.1.1h0s.1.1.1.1h0s.1.1.1.1h0s.1.1.1.1h0s.1.1.1.1h0s.1.1.1.1h0s.1.1.1.1h0s.1.1.1.1h0s.1.1.1.1h0s.1.1.1.1h0s.1.1.1.1h0s.1.1.1.1h0s.1.1.1.1h0s.1.1.1.1h0s.1.1.1.1h0s.1.1.1.1h0s.1.1.1.1h0s.1.1.1.1h0s.1.1.1.1h0s.1.1.1.1h0s.1.1.1.1h0s.1.1.1.1h0s.1.1.1.1h0s.1.1.1.1h0s.1.1.1.1h0s.1.1.1.1h0s.1.1.1.1h0s.1.1.1.1h0s.1.1.1.1h0s.1.1.1.1h0s.1.1.1.1h0s.1.1.1.1h0s.1.1.1.1h0s.1.1.1.1h0s.1.1.1.1h0s.1.1.1.1h0s.1.1.1.1h0s.1.1.1.1h0s.1.1.1.1h0s.1.1.1.1h0s.1.1.1.1h0s.1.1.1.1h0s.1.1.1.1h0s.1.1.1.1h0s.1.1.1.1h0s.1.1.1.1h0s.1.1.1.1h0s3.89,3.98,3.89,3.98l-2.36,16.47.11-.06-.02.16.11-.06-.02.16.11-.06-.02.16.11-.06-.02.16.11-.06-.02.16.11-.06-.02.16.11-.06-.02.16.11-.06-.02.16.11-.06-.02.16.11-.06-.02.16.11-.06-.02.16.11-.06-.02.16.11-.06-.02.16.11-.06-.02.16.11-.06-.02.16.11-.06-.02.16.11-.06-.02.16.11-.06-.02.16.11-.06-.02.16.11-.06-.02.16.11-.06-.02.16.11-.06-.02.16.11-.06-.02.16.11-.06-.02.16.11-.06-.02.16.11-.06-.02.16.11-.06-.02.16.11-.06-.02.16.11-.06-.02.16.11-.06-.02.16.11-.06-.02.16.11-.06-.02.16.11-.06-.02.16.11-.06-.02.16.11-.06-.02.16.11-.06-.02.16.11-.06-.02.16.11-.06-.02.16.11-.06-.02.16.11-.06-.02.16.11-.06-.02.16.11-.06-.02.16.11-.06-.02.16.11-.06-.02.16.11-.06-.02.16.11-.06-.02.16.11-.06-.02.16.11-.06-.02.16.11-.06-.02.16.11-.06-.02.16.11-.06-.02.16.11-.06-.02.16.11-.06-.02.16.11-.06-.02.16.11-.06-.02.16.11-.06-.02.16.11-.06-.02.16.11-.06-.02.16.11-.06-.02.16.11-.06-.02.16.11-.06-.02.16.11-.06-.02.16.11-.06-.02.16.11-.06-.02.16.11-.06-.02.16.11-.06-.02.16.11-.06-.02.16.11-.06-.02.16.11-.06-.02.16.11-.06-.02.16.11-.06-.02.16.11-.06-.02.16.11-.06-.02.16.11-.06-.02.16.11-.06-.02.16.11-.06-.02.16.11-.06-.02.16.11-.06-.02.16.11-.06-.02.16.11-.06-.02.16.11-.06-.02.16.11-.06-.02.16.11-.06-.02.16.11-.06-.02.16.11-.06-.02.16.11-.06-.02.16.11-.06-.02.16.11-.06-.02.16.11-.06-.02.16,14.61-7.65,14.5,7.64-2.61-17.05,11.93-11.88v-.33Z"/>
  <polygon class="cls-1" points="102.09 137.29 102.16 137.22 102 137.19 102.07 137.12 101.91 137.1 101.99 137.02 101.82 137 101.9 136.93 101.74 136.9 101.81 136.83 101.65 136.8 101.72 136.73 101.56 136.7 101.63 136.63 101.47 136.6 101.54 136.53 101.38 136.5 101.45 136.43 101.29 136.4 101.36 136.33 101.2 136.3 101.27 136.23 101.11 136.21 101.18 136.13 101.02 136.11 101.09 136.03 100.93 136.01 101 135.94 100.84 135.91 100.91 135.84 100.75 135.81 100.82 135.74 100.66 135.71 100.73 135.64 100.57 135.61 100.64 135.54 100.48 135.51 100.55 135.44 100.39 135.41 100.47 135.34 100.3 135.31 100.38 135.24 100.22 135.22 100.29 135.14 100.13 135.12 100.2 135.04 100.04 135.02 100.11 134.95 99.95 134.92 100.02 134.85 99.86 134.82 99.93 134.75 99.77 134.72 99.84 134.65 99.68 134.62 99.75 134.55 99.59 134.52 99.66 134.45 99.5 134.42 99.57 134.35 99.41 134.32 99.48 134.25 99.32 134.23 99.39 134.15 99.23 134.13 99.3 134.06 99.14 134.03 99.21 133.96 99.05 133.93 99.12 133.86 98.96 133.83 99.03 133.76 98.87 133.73 98.95 133.66 98.78 133.63 98.86 133.56 98.7 133.53 98.77 133.46 98.61 133.43 98.68 133.36 98.52 133.34 98.59 133.26 98.43 133.24 98.5 133.16 98.34 133.14 98.41 133.07 98.25 133.04 98.32 132.97 98.16 132.94 98.23 132.87 98.07 132.84 98.14 132.77 97.98 132.74 98.05 132.67 97.89 132.64 97.96 132.57 97.8 132.54 97.87 132.47 97.71 132.44 97.78 132.37 97.62 132.35 97.69 132.27 97.53 132.25 97.6 132.18 97.44 132.15 97.51 132.08 97.35 132.05 97.43 131.98 97.26 131.95 97.34 131.88 97.18 131.85 97.25 131.78 97.09 131.75 97.16 131.68 97 131.65 97.07 131.58 96.91 131.55 96.98 131.48 96.82 131.46 96.89 131.38 96.73 131.36 96.8 131.28 96.64 131.26 96.71 131.19 96.55 131.16 96.62 131.09 96.46 131.06 96.53 130.99 96.37 130.96 96.44 130.89 96.28 130.86 96.35 130.79 96.19 130.76 96.26 130.69 96.1 130.66 96.17 130.59 96.01 130.56 96.08 130.49 95.92 130.47 95.99 130.39 95.83 130.37 95.91 130.29 95.74 130.27 95.82 130.2 95.66 130.17 95.73 130.1 95.57 130.07 95.64 130 95.48 129.97 95.55 129.9 95.39 129.87 95.46 129.8 95.3 129.77 95.37 129.7 95.21 129.67 95.28 129.6 95.12 129.57 95.19 129.5 95.03 129.48 95.1 129.4 94.94 129.38 95.01 129.31 94.85 129.28 94.92 129.21 94.76 129.18 94.83 129.11 94.67 129.08 94.74 129.01 94.58 128.98 94.65 128.91 94.49 128.88 94.56 128.81 94.4 128.78 94.47 128.71 94.31 128.68 94.39 128.61 94.23 128.59 94.3 128.51 81.99 126.43 78.63 119.2 78.59 119.22 78.54 119.1 78.5 119.12 78.45 119 78.41 119.02 78.36 118.9 78.32 118.92 78.27 118.81 78.24 118.82 78.18 118.71 78.15 118.73 78.09 118.61 78.06 118.63 78 118.51 77.97 118.53 77.91 118.41 77.88 118.43 77.82 118.31 77.79 118.33 77.73 118.21 77.7 118.23 77.64 118.11 77.61 118.13 77.55 118.01 77.52 118.03 77.46 117.91 77.43 117.93 77.38 117.82 77.34 117.84 77.29 117.72 77.25 117.74 77.2 117.62 77.16 117.64 77.11 117.52 77.07 117.54 77.02 117.42 76.98 117.44 76.93 117.32 76.89 117.34 76.84 117.22 76.81 117.24 76.75 117.12 76.72 117.14 76.66 117.02 76.63 117.04 76.57 116.93 76.54 116.94 76.48 116.83 76.45 116.85 76.39 116.73 76.36 116.75 76.3 116.63 76.27 116.65 76.21 116.53 76.18 116.55 76.12 116.43 76.09 116.45 76.03 116.33 76 116.35 75.95 116.23 75.91 116.25 75.86 116.13 75.82 116.15 75.77 116.03 75.73 116.05 75.68 115.94 75.64 115.96 75.59 115.84 75.55 115.86 75.5 115.74 75.46 115.76 75.41 115.64 75.37 115.66 75.32 115.54 75.29 115.56 75.23 115.44 75.2 115.46 75.14 115.34 75.11 115.36 75.05 115.24 75.02 115.26 74.96 115.14 74.93 115.16 74.87 115.04 74.84 115.06 74.78 114.95 74.75 114.97 74.69 114.85 74.66 114.87 74.6 114.75 74.57 114.77 74.51 114.65 74.48 114.67 74.43 114.55 74.39 114.57 74.34 114.45 74.3 114.47 74.25 114.35 74.21 114.37 74.16 114.25 74.12 114.27 74.07 114.15 74.03 114.17 73.98 114.06 73.94 114.07 73.89 113.96 73.85 113.98 73.8 113.86 73.77 113.88 73.71 113.76 73.68 113.78 73.62 113.66 73.59 113.68 73.53 113.56 73.5 113.58 73.44 113.46 73.41 113.48 73.35 113.36 73.32 113.38 73.26 113.26 73.23 113.28 73.17 113.16 73.14 113.18 73.08 113.07 73.05 113.09 72.99 112.97 72.96 112.99 72.91 112.87 72.87 112.89 72.82 112.77 72.78 112.79 72.73 112.67 72.69 112.69 72.64 112.57 72.6 112.59 72.55 112.47 72.51 112.49 72.46 112.37 72.42 112.39 72.37 112.27 72.33 112.29 72.28 112.17 72.25 112.19 72.19 112.08 72.16 112.1 72.1 111.98 72.07 112 72.01 111.88 71.98 111.9 71.92 111.78 71.89 111.8 71.83 111.68 71.8 111.7 71.74 111.58 71.71 111.6 71.65 111.48 71.62 111.5 71.56 111.38 71.53 111.4 71.47 111.28 71.44 111.3 71.39 111.19 71.35 111.21 71.3 111.09 71.26 111.11 71.21 110.99 71.17 111.01 71.12 110.89 71.08 110.91 71.03 110.79 70.99 110.81 70.94 110.69 70.9 110.71 70.85 110.59 70.81 110.61 70.76 110.49 70.73 110.51 70.67 110.39 69.93 110.82 68.63 113.57 66.37 98.82 78.3 86.78 78.14 86.75 78.21 86.68 78.05 86.65 78.12 86.58 77.96 86.55 78.03 86.48 77.87 86.45 77.94 86.38 77.78 86.35 77.85 86.28 77.69 86.25 77.76 86.18 77.6 86.16 77.67 86.08 77.51 86.06 77.58 85.99 77.42 85.96 77.49 85.89 77.33 85.86 77.4 85.79 77.24 85.76 77.31 85.69 77.15 85.66 77.23 85.59 77.06 85.56 77.14 85.49 76.98 85.46 77.05 85.39 76.89 85.36 76.96 85.29 76.8 85.27 76.87 85.19 76.71 85.17 76.78 85.09 76.62 85.07 76.69 85 76.53 84.97 76.6 84.9 76.44 84.87 76.51 84.8 76.35 84.77 76.42 84.7 76.26 84.67 76.33 84.6 76.17 84.57 76.24 84.5 76.08 84.47 76.15 84.4 75.99 84.37 76.06 84.3 75.9 84.28 75.97 84.2 75.81 84.18 75.88 84.11 75.72 84.08 75.79 84.01 75.63 83.98 75.71 83.91 75.54 83.88 75.62 83.81 75.46 83.78 75.53 83.71 75.37 83.68 75.44 83.61 75.28 83.58 75.35 83.51 75.19 83.48 75.26 83.41 75.1 83.39 75.17 83.31 75.01 83.29 75.08 83.21 74.92 83.19 74.99 83.12 74.83 83.09 74.9 83.02 74.74 82.99 74.81 82.92 74.65 82.89 74.72 82.82 74.56 82.79 74.63 82.72 74.47 82.69 74.54 82.62 74.38 82.59 74.45 82.52 74.29 82.49 74.36 82.42 74.2 82.4 74.27 82.32 74.11 82.3 74.19 82.22 74.02 82.2 74.1 82.13 73.94 82.1 74.01 82.03 73.85 82 73.92 81.93 73.76 81.9 73.83 81.83 73.67 81.8 73.74 81.73 73.58 81.7 73.65 81.63 73.49 81.6 73.56 81.53 73.4 81.5 73.47 81.43 73.31 81.41 73.38 81.33 73.22 81.31 73.29 81.24 73.13 81.21 73.2 81.14 73.04 81.11 73.11 81.04 72.95 81.01 73.02 80.94 72.86 80.91 72.93 80.84 72.77 80.81 72.84 80.74 72.68 80.71 72.75 80.64 72.59 80.61 72.67 80.54 72.51 80.52 72.58 80.44 72.42 80.42 72.49 80.34 72.33 80.32 72.4 80.25 72.24 80.22 72.31 80.15 72.15 80.12 72.22 80.05 72.06 80.02 72.13 79.95 71.97 79.92 72.04 79.85 71.88 79.82 71.95 79.75 71.79 79.72 71.86 79.65 71.7 79.62 71.77 79.55 71.61 79.53 71.68 79.45 71.52 79.43 71.59 79.36 71.43 79.33 71.5 79.26 71.34 79.23 71.41 79.16 71.25 79.13 71.32 79.06 71.16 79.03 71.23 78.96 71.07 78.93 71.15 78.86 70.98 78.83 71.06 78.76 70.9 78.73 70.97 78.66 70.81 78.64 70.88 78.56 70.72 78.54 70.79 78.46 70.63 78.44 70.7 78.37 70.54 78.34 70.61 78.27 70.45 78.24 70.52 78.17 70.36 78.14 70.43 78.07 70.27 78.04 70.34 77.97 58.03 75.88 54.67 68.66 54.64 68.68 54.58 68.56 54.55 68.58 54.49 68.46 54.46 68.48 54.4 68.36 54.37 68.38 54.31 68.26 54.28 68.28 54.22 68.16 54.19 68.18 54.14 68.06 54.1 68.08 54.05 67.96 54.01 67.98 53.96 67.87 53.92 67.89 53.87 67.77 53.83 67.79 53.78 67.67 53.74 67.69 53.69 67.57 53.65 67.59 53.6 67.47 53.56 67.49 53.51 67.37 53.48 67.39 53.42 67.27 53.39 67.29 53.33 67.17 53.3 67.19 53.24 67.07 53.21 67.09 53.15 66.97 53.12 66.99 53.06 66.88 53.03 66.9 52.97 66.78 52.94 66.8 52.88 66.68 52.85 66.7 52.79 66.58 52.76 66.6 52.71 66.48 52.67 66.5 52.62 66.38 52.58 66.4 52.53 66.28 52.49 66.3 52.44 66.18 52.4 66.2 52.35 66.08 52.31 66.1 52.26 65.99 52.22 66 52.17 65.89 52.13 65.91 52.08 65.79 52.05 65.81 51.99 65.69 51.96 65.71 51.9 65.59 51.87 65.61 51.81 65.49 51.78 65.51 51.72 65.39 51.69 65.41 51.63 65.29 51.6 65.31 51.54 65.19 51.51 65.21 51.45 65.09 51.42 65.11 51.36 65 51.33 65.02 51.27 64.9 51.24 64.92 51.19 64.8 51.15 64.82 51.1 64.7 51.06 64.72 51.01 64.6 50.97 64.62 50.92 64.5 50.88 64.52 50.83 64.4 50.79 64.42 50.74 64.3 50.7 64.32 50.65 64.2 50.61 64.22 50.56 64.11 50.53 64.12 50.47 64.01 50.44 64.03 50.38 63.91 50.35 63.93 50.29 63.81 50.26 63.83 50.2 63.71 50.17 63.73 50.11 63.61 50.08 63.63 50.02 63.51 49.99 63.53 49.93 63.41 49.9 63.43 49.84 63.31 49.81 63.33 49.75 63.21 49.72 63.23 49.67 63.12 49.63 63.14 49.58 63.02 49.54 63.04 49.49 62.92 49.45 62.94 49.4 62.82 49.36 62.84 49.31 62.72 49.27 62.74 49.22 62.62 49.18 62.64 49.13 62.52 49.09 62.54 49.04 62.42 49.01 62.44 48.95 62.32 48.92 62.34 48.86 62.22 48.83 62.24 48.77 62.13 48.74 62.15 48.68 62.03 48.65 62.05 48.59 61.93 48.56 61.95 48.5 61.83 48.47 61.85 48.41 61.73 48.38 61.75 48.32 61.63 48.29 61.65 48.23 61.53 48.2 61.55 48.15 61.43 48.11 61.45 48.06 61.33 48.02 61.35 47.97 61.24 47.93 61.25 47.88 61.14 47.84 61.16 47.79 61.04 47.75 61.06 47.7 60.94 47.66 60.96 47.61 60.84 47.57 60.86 47.52 60.74 47.49 60.76 47.43 60.64 47.4 60.66 47.34 60.54 47.31 60.56 47.25 60.44 47.22 60.46 47.16 60.34 47.13 60.36 47.07 60.25 47.04 60.27 46.98 60.15 46.95 60.17 46.89 60.05 46.86 60.07 46.8 59.95 46.77 59.97 46.71 59.85 45.98 60.28 38.93 75.17 22.43 77.81 22.53 77.91 22.52 77.91 22.62 78.01 22.61 78.01 22.71 78.1 22.7 78.11 22.8 78.2 22.79 78.2 22.89 78.3 22.88 78.3 22.97 78.4 22.97 78.4 23.06 78.5 23.06 78.5 23.15 78.6 23.15 78.6 23.24 78.7 23.24 78.7 23.33 78.8 23.33 78.8 23.42 78.9 23.42 78.9 23.51 78.99 23.5 79 23.6 79.09 23.59 79.09 23.69 79.19 23.68 79.19 23.78 79.29 23.77 79.29 23.87 79.39 23.86 79.39 23.96 79.49 23.95 79.49 24.05 79.59 24.04 79.59 24.14 79.69 24.13 79.69 24.23 79.79 24.22 79.79 24.32 79.89 24.31 79.89 24.41 79.98 24.4 79.99 24.49 80.08 24.49 80.08 24.58 80.18 24.58 80.18 24.67 80.28 24.67 80.28 24.76 80.38 24.76 80.38 24.85 80.48 24.85 80.48 24.94 80.58 24.94 80.58 25.03 80.68 25.02 80.68 25.12 80.78 25.11 80.78 25.21 80.88 25.2 80.88 25.3 80.97 25.29 80.98 25.39 81.07 25.38 81.07 25.48 81.17 25.47 81.17 25.57 81.27 25.56 81.27 25.66 81.37 25.65 81.37 25.75 81.47 25.74 81.47 25.84 81.57 25.83 81.57 25.93 81.67 25.92 81.67 26.01 81.77 26.01 81.77 26.1 81.86 26.1 81.87 26.19 81.96 26.19 81.96 26.28 82.06 26.28 82.06 26.37 82.16 26.37 82.16 26.46 82.26 26.46 82.26 26.55 82.36 26.54 82.36 26.64 82.46 26.63 82.46 26.73 82.56 26.72 82.56 26.82 82.66 26.81 82.66 26.91 82.76 26.9 82.76 27 82.85 26.99 82.86 27.09 82.95 27.08 82.95 27.18 83.05 27.17 83.05 27.27 83.15 27.26 83.15 27.36 83.25 27.35 83.25 27.45 83.35 27.44 83.35 27.53 83.45 27.53 83.45 27.62 83.55 27.62 83.55 27.71 83.65 27.71 83.65 27.8 83.74 27.8 83.75 27.89 83.84 27.89 83.84 27.98 83.94 27.98 83.94 28.07 84.04 28.06 84.04 28.16 84.14 28.15 84.14 28.25 84.24 28.24 84.24 28.34 84.34 28.33 84.34 28.43 84.44 28.42 84.44 28.52 84.54 28.51 84.54 28.61 84.64 28.6 84.64 28.7 84.73 28.69 84.74 28.79 84.83 28.78 84.83 28.88 84.93 28.87 84.93 28.97 85.03 28.96 85.03 29.05 85.13 29.05 85.13 29.14 85.23 29.14 85.23 29.23 85.33 29.23 85.33 29.32 85.43 29.32 85.43 29.41 85.53 29.41 85.53 29.5 85.63 29.5 85.63 29.59 85.72 29.58 85.73 29.68 85.82 29.67 85.82 29.77 85.92 29.76 85.92 29.86 86.02 29.85 86.02 29.95 86.12 29.94 86.12 30.04 86.22 30.03 86.22 30.13 86.32 30.12 86.32 30.22 86.42 30.21 86.42 30.31 86.52 30.3 86.52 30.4 86.61 30.39 86.62 34.27 90.59 31.75 107.07 31.86 107.01 31.84 107.16 31.95 107.11 31.93 107.26 32.04 107.2 32.02 107.36 32.13 107.3 32.11 107.46 32.22 107.4 32.2 107.56 32.31 107.5 32.29 107.66 32.4 107.6 32.38 107.76 32.49 107.7 32.46 107.86 32.58 107.8 32.55 107.96 32.67 107.9 32.64 108.06 32.76 108 32.73 108.15 32.85 108.1 32.82 108.25 32.94 108.19 32.91 108.35 33.03 108.29 33 108.45 33.11 108.39 33.09 108.55 33.2 108.49 33.18 108.65 33.29 108.59 33.27 108.75 33.38 108.69 33.36 108.85 33.47 108.79 33.45 108.95 33.56 108.89 33.54 109.04 33.65 108.99 33.63 109.14 33.74 109.09 33.72 109.24 33.83 109.18 33.81 109.34 33.92 109.28 33.9 109.44 34.01 109.38 33.98 109.54 34.1 109.48 34.07 109.64 34.19 109.58 34.16 109.74 34.28 109.68 34.25 109.84 34.37 109.78 34.34 109.94 34.46 109.88 34.43 110.03 34.55 109.98 34.52 110.13 34.63 110.07 34.61 110.23 34.72 110.17 34.7 110.33 34.81 110.27 34.79 110.43 34.9 110.37 34.88 110.53 34.99 110.47 34.97 110.63 35.08 110.57 35.06 110.73 35.17 110.67 35.15 110.83 35.26 110.77 35.24 110.93 35.35 110.87 35.33 111.02 35.44 110.97 35.42 111.12 35.53 111.06 35.5 111.22 35.62 111.16 35.59 111.32 35.71 111.26 35.68 111.42 35.8 111.36 35.77 111.52 35.89 111.46 35.86 111.62 35.98 111.56 35.95 111.72 36.07 111.66 36.04 111.82 36.15 111.76 36.13 111.91 36.24 111.86 36.22 112.01 36.33 111.95 36.31 112.11 36.42 112.05 36.4 112.21 36.51 112.15 36.49 112.31 36.6 112.25 36.58 112.41 36.69 112.35 36.67 112.51 36.78 112.45 36.76 112.61 36.87 112.55 36.85 112.71 36.96 112.65 36.94 112.81 37.05 112.75 37.02 112.9 37.14 112.85 37.11 113 37.23 112.94 37.2 113.1 37.32 113.04 37.29 113.2 37.41 113.14 37.38 113.3 37.5 113.24 37.47 113.4 37.59 113.34 37.56 113.5 37.67 113.44 37.65 113.6 37.76 113.54 37.74 113.7 37.85 113.64 37.83 113.79 37.94 113.74 37.92 113.89 38.03 113.84 38.01 113.99 38.12 113.93 38.1 114.09 38.21 114.03 38.19 114.19 38.3 114.13 38.28 114.29 38.39 114.23 38.37 114.39 38.48 114.33 38.46 114.49 38.57 114.43 38.54 114.59 38.66 114.53 38.63 114.69 38.75 114.63 38.72 114.78 38.84 114.73 38.81 114.88 38.93 114.82 38.9 114.98 39.02 114.92 38.99 115.08 39.11 115.02 39.08 115.18 39.19 115.12 39.17 115.28 39.28 115.22 39.26 115.38 39.37 115.32 39.35 115.48 39.46 115.42 39.44 115.58 39.55 115.52 39.53 115.68 39.64 115.62 39.62 115.77 39.73 115.72 39.71 115.87 54.49 108.23 67.83 115.26 62.88 125.72 46.39 128.35 46.48 128.45 46.48 128.45 46.57 128.55 46.57 128.55 46.66 128.65 46.66 128.65 46.75 128.75 46.74 128.75 46.84 128.85 46.83 128.85 46.93 128.95 46.92 128.95 47.02 129.04 47.01 129.04 47.11 129.14 47.1 129.14 47.2 129.24 47.19 129.24 47.29 129.34 47.28 129.34 47.38 129.44 47.37 129.44 47.47 129.54 47.46 129.54 47.56 129.64 47.55 129.64 47.65 129.74 47.64 129.74 47.73 129.84 47.73 129.84 47.82 129.93 47.82 129.94 47.91 130.03 47.91 130.03 48 130.13 48 130.13 48.09 130.23 48.09 130.23 48.18 130.33 48.18 130.33 48.27 130.43 48.26 130.43 48.36 130.53 48.35 130.53 48.45 130.63 48.44 130.63 48.54 130.73 48.53 130.73 48.63 130.83 48.62 130.83 48.72 130.92 48.71 130.93 48.81 131.02 48.8 131.02 48.9 131.12 48.89 131.12 48.99 131.22 48.98 131.22 49.08 131.32 49.07 131.32 49.17 131.42 49.16 131.42 49.25 131.52 49.25 131.52 49.34 131.62 49.34 131.62 49.43 131.72 49.43 131.72 49.52 131.81 49.52 131.82 49.61 131.91 49.61 131.91 49.7 132.01 49.7 132.01 49.79 132.11 49.78 132.11 49.88 132.21 49.87 132.21 49.97 132.31 49.96 132.31 50.06 132.41 50.05 132.41 50.15 132.51 50.14 132.51 50.24 132.61 50.23 132.61 50.33 132.71 50.32 132.71 50.42 132.8 50.41 132.81 50.51 132.9 50.5 132.9 50.6 133 50.59 133 50.69 133.1 50.68 133.1 50.77 133.2 50.77 133.2 50.86 133.3 50.86 133.3 50.95 133.4 50.95 133.4 51.04 133.5 51.04 133.5 51.13 133.6 51.13 133.6 51.22 133.7 51.22 133.7 51.31 133.79 51.3 133.8 51.4 133.89 51.39 133.89 51.49 133.99 51.48 133.99 51.58 134.09 51.57 134.09 51.67 134.19 51.66 134.19 51.76 134.29 51.75 134.29 51.85 134.39 51.84 134.39 51.94 134.49 51.93 134.49 52.03 134.59 52.02 134.59 52.12 134.68 52.11 134.69 52.21 134.78 52.2 134.78 52.29 134.88 52.29 134.88 52.38 134.98 52.38 134.98 52.47 135.08 52.47 135.08 52.56 135.18 52.56 135.18 52.65 135.28 52.65 135.28 52.74 135.38 52.74 135.38 52.83 135.48 52.82 135.48 52.92 135.58 52.91 135.58 53.01 135.67 53 135.68 53.1 135.77 53.09 135.77 53.19 135.87 53.18 135.87 53.28 135.97 53.27 135.97 53.37 136.07 53.36 136.07 53.46 136.17 53.45 136.17 53.55 136.27 53.54 136.27 53.64 136.37 53.63 136.37 53.72 136.47 53.72 136.47 53.81 136.56 53.81 136.57 53.9 136.66 53.9 136.66 53.99 136.76 53.99 136.76 54.08 136.86 54.08 136.86 54.17 136.96 54.17 136.96 54.26 137.06 54.26 137.06 54.35 137.16 54.34 137.16 58.23 141.14 55.7 157.61 55.82 157.55 55.79 157.71 55.91 157.65 55.88 157.81 56 157.75 55.97 157.91 56.09 157.85 56.06 158.01 56.18 157.95 56.15 158.1 56.27 158.05 56.24 158.2 56.35 158.14 56.33 158.3 56.44 158.24 56.42 158.4 56.53 158.34 56.51 158.5 56.62 158.44 56.6 158.6 56.71 158.54 56.69 158.7 56.8 158.64 56.78 158.8 56.89 158.74 56.87 158.9 56.98 158.84 56.96 159 57.07 158.94 57.05 159.09 57.16 159.04 57.14 159.19 57.25 159.13 57.22 159.29 57.34 159.23 57.31 159.39 57.43 159.33 57.4 159.49 57.52 159.43 57.49 159.59 57.61 159.53 57.58 159.69 57.7 159.63 57.67 159.79 57.79 159.73 57.76 159.89 57.87 159.83 57.85 159.98 57.96 159.93 57.94 160.08 58.05 160.02 58.03 160.18 58.14 160.12 58.12 160.28 58.23 160.22 58.21 160.38 58.32 160.32 58.3 160.48 58.41 160.42 58.39 160.58 58.5 160.52 58.48 160.68 58.59 160.62 58.57 160.78 58.68 160.72 58.66 160.88 58.77 160.82 58.74 160.97 58.86 160.92 58.83 161.07 58.95 161.01 58.92 161.17 59.04 161.11 59.01 161.27 59.13 161.21 59.1 161.37 59.22 161.31 59.19 161.47 59.31 161.41 59.28 161.57 59.39 161.51 59.37 161.67 59.48 161.61 59.46 161.77 59.57 161.71 59.55 161.86 59.66 161.81 59.64 161.96 59.75 161.91 59.73 162.06 59.84 162 59.82 162.16 59.93 162.1 59.91 162.26 60.02 162.2 60 162.36 60.11 162.3 60.09 162.46 60.2 162.4 60.18 162.56 60.29 162.5 60.26 162.66 60.38 162.6 60.35 162.76 60.47 162.7 60.44 162.85 60.56 162.8 60.53 162.95 60.65 162.89 60.62 163.05 60.74 162.99 60.71 163.15 60.83 163.09 60.8 163.25 60.91 163.19 60.89 163.35 61 163.29 60.98 163.45 61.09 163.39 61.07 163.55 61.18 163.49 61.16 163.65 61.27 163.59 61.25 163.75 61.36 163.69 61.34 163.84 61.45 163.79 61.43 163.94 61.54 163.88 61.52 164.04 61.63 163.98 61.61 164.14 61.72 164.08 61.7 164.24 61.81 164.18 61.78 164.34 61.9 164.28 61.87 164.44 61.99 164.38 61.96 164.54 62.08 164.48 62.05 164.64 62.17 164.58 62.14 164.73 62.26 164.68 62.23 164.83 62.35 164.77 62.32 164.93 62.43 164.87 62.41 165.03 62.52 164.97 62.5 165.13 62.61 165.07 62.59 165.23 62.7 165.17 62.68 165.33 62.79 165.27 62.77 165.43 62.88 165.37 62.86 165.53 62.97 165.47 62.95 165.63 63.06 165.57 63.04 165.72 63.15 165.67 63.13 165.82 63.24 165.76 63.22 165.92 63.33 165.86 63.3 166.02 63.42 165.96 63.39 166.12 63.51 166.06 63.48 166.22 63.6 166.16 63.57 166.32 63.69 166.26 63.66 166.42 78.44 158.77 92.94 166.42 90.32 149.37 102.25 137.32 102.09 137.29"/>
  <polygon class="cls-1" points="160.65 137.29 160.72 137.22 160.56 137.19 160.63 137.12 160.47 137.1 160.54 137.02 160.38 137 160.45 136.93 160.29 136.9 160.36 136.83 160.2 136.8 160.27 136.73 160.11 136.7 160.18 136.63 160.02 136.6 160.1 136.53 159.94 136.5 160.01 136.43 159.85 136.4 159.92 136.33 159.76 136.3 159.83 136.23 159.67 136.21 159.74 136.13 159.58 136.11 159.65 136.03 159.49 136.01 159.56 135.94 159.4 135.91 159.47 135.84 159.31 135.81 159.38 135.74 159.22 135.71 159.29 135.64 159.13 135.61 159.2 135.54 159.04 135.51 159.11 135.44 158.95 135.41 159.02 135.34 158.86 135.31 158.93 135.24 158.77 135.22 158.84 135.14 158.68 135.12 158.75 135.04 158.59 135.02 158.66 134.95 158.5 134.92 158.58 134.85 158.42 134.82 158.49 134.75 158.33 134.72 158.4 134.65 158.24 134.62 158.31 134.55 158.15 134.52 158.22 134.45 158.06 134.42 158.13 134.35 157.97 134.32 158.04 134.25 157.88 134.23 157.95 134.15 157.79 134.13 157.86 134.06 157.7 134.03 157.77 133.96 157.61 133.93 157.68 133.86 157.52 133.83 157.59 133.76 157.43 133.73 157.5 133.66 157.34 133.63 157.41 133.56 157.25 133.53 157.32 133.46 157.16 133.43 157.23 133.36 157.07 133.34 157.15 133.26 156.98 133.24 157.06 133.16 156.9 133.14 156.97 133.07 156.81 133.04 156.88 132.97 156.72 132.94 156.79 132.87 156.63 132.84 156.7 132.77 156.54 132.74 156.61 132.67 156.45 132.64 156.52 132.57 156.36 132.54 156.43 132.47 156.27 132.44 156.34 132.37 156.18 132.35 156.25 132.27 156.09 132.25 156.16 132.18 156 132.15 156.07 132.08 155.91 132.05 155.98 131.98 155.82 131.95 155.89 131.88 155.73 131.85 155.8 131.78 155.64 131.75 155.71 131.68 155.55 131.65 155.63 131.58 155.46 131.55 155.54 131.48 155.38 131.46 155.45 131.38 155.29 131.36 155.36 131.28 155.2 131.26 155.27 131.19 155.11 131.16 155.18 131.09 155.02 131.06 155.09 130.99 154.93 130.96 155 130.89 154.84 130.86 154.91 130.79 154.75 130.76 154.82 130.69 154.66 130.66 154.73 130.59 154.57 130.56 154.64 130.49 154.48 130.47 154.55 130.39 154.39 130.37 154.46 130.29 154.3 130.27 154.37 130.2 154.21 130.17 154.28 130.1 154.12 130.07 154.19 130 154.03 129.97 154.11 129.9 153.94 129.87 154.02 129.8 153.86 129.77 153.93 129.7 153.77 129.67 153.84 129.6 153.68 129.57 153.75 129.5 153.59 129.48 153.66 129.4 153.5 129.38 153.57 129.31 153.41 129.28 153.48 129.21 153.32 129.18 153.39 129.11 153.23 129.08 153.3 129.01 153.14 128.98 153.21 128.91 153.05 128.88 153.12 128.81 152.96 128.78 153.03 128.71 152.87 128.68 152.94 128.61 152.78 128.59 152.85 128.51 140.55 126.43 137.18 119.2 137.15 119.22 137.1 119.1 137.06 119.12 137.01 119 136.97 119.02 136.92 118.9 136.88 118.92 136.83 118.81 136.79 118.82 136.74 118.71 136.7 118.73 136.65 118.61 136.61 118.63 136.56 118.51 136.52 118.53 136.47 118.41 136.44 118.43 136.38 118.31 136.35 118.33 136.29 118.21 136.26 118.23 136.2 118.11 136.17 118.13 136.11 118.01 136.08 118.03 136.02 117.91 135.99 117.93 135.93 117.82 135.9 117.84 135.84 117.72 135.81 117.74 135.75 117.62 135.72 117.64 135.66 117.52 135.63 117.54 135.58 117.42 135.54 117.44 135.49 117.32 135.45 117.34 135.4 117.22 135.36 117.24 135.31 117.12 135.27 117.14 135.22 117.02 135.18 117.04 135.13 116.93 135.09 116.94 135.04 116.83 135 116.85 134.95 116.73 134.92 116.75 134.86 116.63 134.83 116.65 134.77 116.53 134.74 116.55 134.68 116.43 134.65 116.45 134.59 116.33 134.56 116.35 134.5 116.23 134.47 116.25 134.41 116.13 134.38 116.15 134.32 116.03 134.29 116.05 134.23 115.94 134.2 115.96 134.14 115.84 134.11 115.86 134.06 115.74 134.02 115.76 133.97 115.64 133.93 115.66 133.88 115.54 133.84 115.56 133.79 115.44 133.75 115.46 133.7 115.34 133.66 115.36 133.61 115.24 133.57 115.26 133.52 115.14 133.48 115.16 133.43 115.04 133.4 115.06 133.34 114.95 133.31 114.97 133.25 114.85 133.22 114.87 133.16 114.75 133.13 114.77 133.07 114.65 133.04 114.67 132.98 114.55 132.95 114.57 132.89 114.45 132.86 114.47 132.8 114.35 132.77 114.37 132.71 114.25 132.68 114.27 132.62 114.15 132.59 114.17 132.54 114.06 132.5 114.07 132.45 113.96 132.41 113.98 132.36 113.86 132.32 113.88 132.27 113.76 132.23 113.78 132.18 113.66 132.14 113.68 132.09 113.56 132.05 113.58 132 113.46 131.96 113.48 131.91 113.36 131.88 113.38 131.82 113.26 131.79 113.28 131.73 113.16 131.7 113.18 131.64 113.07 131.61 113.09 131.55 112.97 131.52 112.99 131.46 112.87 131.43 112.89 131.37 112.77 131.34 112.79 131.28 112.67 131.25 112.69 131.19 112.57 131.16 112.59 131.1 112.47 131.07 112.49 131.02 112.37 130.98 112.39 130.93 112.27 130.89 112.29 130.84 112.17 130.8 112.19 130.75 112.08 130.71 112.1 130.66 111.98 130.62 112 130.57 111.88 130.53 111.9 130.48 111.78 130.44 111.8 130.39 111.68 130.36 111.7 130.3 111.58 130.27 111.6 130.21 111.48 130.18 111.5 130.12 111.38 130.09 111.4 130.03 111.28 130 111.3 129.94 111.19 129.91 111.21 129.85 111.09 129.82 111.11 129.76 110.99 129.73 111.01 129.67 110.89 129.64 110.91 129.59 110.79 129.55 110.81 129.5 110.69 129.46 110.71 129.41 110.59 129.37 110.61 129.32 110.49 129.28 110.51 129.23 110.39 128.49 110.82 121.44 125.72 104.94 128.35 105.04 128.45 105.03 128.45 105.13 128.55 105.12 128.55 105.22 128.65 105.21 128.65 105.31 128.75 105.3 128.75 105.4 128.85 105.39 128.85 105.49 128.95 105.48 128.95 105.58 129.04 105.57 129.04 105.67 129.14 105.66 129.14 105.76 129.24 105.75 129.24 105.84 129.34 105.84 129.34 105.93 129.44 105.93 129.44 106.02 129.54 106.02 129.54 106.11 129.64 106.11 129.64 106.2 129.74 106.2 129.74 106.29 129.84 106.29 129.84 106.38 129.93 106.38 129.94 106.47 130.03 106.46 130.03 106.56 130.13 106.55 130.13 106.65 130.23 106.64 130.23 106.74 130.33 106.73 130.33 106.83 130.43 106.82 130.43 106.92 130.53 106.91 130.53 107.01 130.63 107 130.63 107.1 130.73 107.09 130.73 107.19 130.83 107.18 130.83 107.28 130.92 107.27 130.93 107.36 131.02 107.36 131.02 107.45 131.12 107.45 131.12 107.54 131.22 107.54 131.22 107.63 131.32 107.63 131.32 107.72 131.42 107.72 131.42 107.81 131.52 107.81 131.52 107.9 131.62 107.9 131.62 107.99 131.72 107.98 131.72 108.08 131.81 108.07 131.82 108.17 131.91 108.16 131.91 108.26 132.01 108.25 132.01 108.35 132.11 108.34 132.11 108.44 132.21 108.43 132.21 108.53 132.31 108.52 132.31 108.62 132.41 108.61 132.41 108.71 132.51 108.7 132.51 108.8 132.61 108.79 132.61 108.88 132.71 108.88 132.71 108.97 132.8 108.97 132.81 109.06 132.9 109.06 132.9 109.15 133 109.15 133 109.24 133.1 109.24 133.1 109.33 133.2 109.33 133.2 109.42 133.3 109.42 133.3 109.51 133.4 109.5 133.4 109.6 133.5 109.59 133.5 109.69 133.6 109.68 133.6 109.78 133.7 109.77 133.7 109.87 133.79 109.86 133.8 109.96 133.89 109.95 133.89 110.05 133.99 110.04 133.99 110.14 134.09 110.13 134.09 110.23 134.19 110.22 134.19 110.32 134.29 110.31 134.29 110.4 134.39 110.4 134.39 110.49 134.49 110.49 134.49 110.58 134.59 110.58 134.59 110.67 134.68 110.67 134.69 110.76 134.78 110.76 134.78 110.85 134.88 110.85 134.88 110.94 134.98 110.93 134.98 111.03 135.08 111.02 135.08 111.12 135.18 111.11 135.18 111.21 135.28 111.2 135.28 111.3 135.38 111.29 135.38 111.39 135.48 111.38 135.48 111.48 135.58 111.47 135.58 111.57 135.67 111.56 135.68 111.66 135.77 111.65 135.77 111.75 135.87 111.74 135.87 111.84 135.97 111.83 135.97 111.92 136.07 111.92 136.07 112.01 136.17 112.01 136.17 112.1 136.27 112.1 136.27 112.19 136.37 112.19 136.37 112.28 136.47 112.28 136.47 112.37 136.56 112.37 136.57 112.46 136.66 112.45 136.66 112.55 136.76 112.54 136.76 112.64 136.86 112.63 136.86 112.73 136.96 112.72 136.96 112.82 137.06 112.81 137.06 112.91 137.16 112.9 137.16 116.79 141.14 114.26 157.61 114.38 157.55 114.35 157.71 114.47 157.65 114.44 157.81 114.55 157.75 114.53 157.91 114.64 157.85 114.62 158.01 114.73 157.95 114.71 158.1 114.82 158.05 114.8 158.2 114.91 158.14 114.89 158.3 115 158.24 114.98 158.4 115.09 158.34 115.07 158.5 115.18 158.44 115.16 158.6 115.27 158.54 115.25 158.7 115.36 158.64 115.34 158.8 115.45 158.74 115.42 158.9 115.54 158.84 115.51 159 115.63 158.94 115.6 159.09 115.72 159.04 115.69 159.19 115.81 159.13 115.78 159.29 115.9 159.23 115.87 159.39 115.99 159.33 115.96 159.49 116.07 159.43 116.05 159.59 116.16 159.53 116.14 159.69 116.25 159.63 116.23 159.79 116.34 159.73 116.32 159.89 116.43 159.83 116.41 159.98 116.52 159.93 116.5 160.08 116.61 160.02 116.59 160.18 116.7 160.12 116.68 160.28 116.79 160.22 116.77 160.38 116.88 160.32 116.86 160.48 116.97 160.42 116.94 160.58 117.06 160.52 117.03 160.68 117.15 160.62 117.12 160.78 117.24 160.72 117.21 160.88 117.33 160.82 117.3 160.97 117.42 160.92 117.39 161.07 117.51 161.01 117.48 161.17 117.59 161.11 117.57 161.27 117.68 161.21 117.66 161.37 117.77 161.31 117.75 161.47 117.86 161.41 117.84 161.57 117.95 161.51 117.93 161.67 118.04 161.61 118.02 161.77 118.13 161.71 118.11 161.86 118.22 161.81 118.2 161.96 118.31 161.91 118.29 162.06 118.4 162 118.38 162.16 118.49 162.1 118.46 162.26 118.58 162.2 118.55 162.36 118.67 162.3 118.64 162.46 118.76 162.4 118.73 162.56 118.85 162.5 118.82 162.66 118.94 162.6 118.91 162.76 119.03 162.7 119 162.85 119.11 162.8 119.09 162.95 119.2 162.89 119.18 163.05 119.29 162.99 119.27 163.15 119.38 163.09 119.36 163.25 119.47 163.19 119.45 163.35 119.56 163.29 119.54 163.45 119.65 163.39 119.63 163.55 119.74 163.49 119.72 163.65 119.83 163.59 119.81 163.75 119.92 163.69 119.89 163.84 120.01 163.79 119.98 163.94 120.1 163.88 120.07 164.04 120.19 163.98 120.16 164.14 120.28 164.08 120.25 164.24 120.37 164.18 120.34 164.34 120.46 164.28 120.43 164.44 120.54 164.38 120.52 164.54 120.63 164.48 120.61 164.64 120.72 164.58 120.7 164.73 120.81 164.68 120.79 164.83 120.9 164.77 120.88 164.93 120.99 164.87 120.97 165.03 121.08 164.97 121.06 165.13 121.17 165.07 121.15 165.23 121.26 165.17 121.24 165.33 121.35 165.27 121.33 165.43 121.44 165.37 121.41 165.53 121.53 165.47 121.5 165.63 121.62 165.57 121.59 165.72 121.71 165.67 121.68 165.82 121.8 165.76 121.77 165.92 121.89 165.86 121.86 166.02 121.98 165.96 121.95 166.12 122.06 166.06 122.04 166.22 122.15 166.16 122.13 166.32 122.24 166.26 122.22 166.42 137 158.77 151.49 166.42 148.88 149.37 160.81 137.32 160.65 137.29"/>
  <g>
    <path class="cls-2" d="M177.13,78.67l-11.93,11.88,2.61,17.05-14.5-7.64-14.61,7.65,2.44-17.05-11.93-12.21,16.5-2.64,7.3-15.33c.58-.16.95,1.2,1.11,1.55,2.15,4.6,4.13,9.29,6.51,13.78l16.5,2.63v.33Z"/>
    <polygon class="cls-2" points="100.27 36.44 109.68 56.97 131.88 60.39 115.96 76.92 119.57 99.95 100.05 89.03 80.31 99.95 83.92 76.92 68 60.39 90.21 56.97 99.53 36.87 100.27 36.44"/>
    <polygon class="cls-2" points="70.99 110.93 78.12 126.25 94.62 129.05 82.69 141.09 85.3 158.14 70.8 150.5 56.03 158.14 58.64 141.09 46.71 128.89 63.2 126.25 70.25 111.36 70.99 110.93"/>
    <polygon class="cls-2" points="129.55 110.93 136.68 126.25 153.17 129.05 141.25 141.09 143.86 158.14 129.36 150.5 114.58 158.14 117.19 141.09 105.26 128.89 121.76 126.25 128.81 111.36 129.55 110.93"/>
    <polygon class="cls-2" points="47.03 60.38 54.17 75.71 70.66 78.5 58.73 90.55 61.34 107.6 46.85 99.96 32.07 107.6 34.68 90.55 22.75 78.34 39.25 75.71 46.3 60.81 47.03 60.38"/>
  </g>
</svg>