<?xml version="1.0" encoding="UTF-8"?>
<svg id="Layer_1" data-name="Layer 1" xmlns="http://www.w3.org/2000/svg" viewBox="0 0 200 200">
  <defs>
    <style>
      .cls-1 {
        fill: #b3b3b3;
      }

      .cls-2 {
        fill: #fff;
      }
    </style>
  </defs>
  <g>
    <path class="cls-1" d="M72.1,122.81s.09.07.13.1c.04.03.09.07.13.1.04.03.09.07.13.1.04.03.09.07.13.1.04.03.09.07.13.1.04.03.09.07.13.1.04.03.09.07.13.1.04.03.09.07.13.1.04.03.09.07.13.1.04.03.09.07.13.1.04.03.09.07.13.1.04.03.09.07.13.1.04.03.09.07.13.1.04.03.09.07.13.1.04.03.09.07.13.1.04.03.09.07.13.1.04.03.09.07.13.1.04.03.09.07.13.1.04.03.09.07.13.1.04.03.09.07.13.1.04.03.09.07.13.1.04.03.09.07.13.1.04.03.09.07.13.1.04.03.09.07.13.1.04.03.09.07.13.1.04.03.09.07.13.1.04.03.09.07.13.1.04.03.09.07.13.1.04.03.09.07.13.1.04.03.09.07.13.1.04.03.09.07.13.1.04.03.09.07.13.1.04.03.09.07.13.1.04.03.09.07.13.1.04.03.09.07.13.1.04.03.09.07.13.1.04.03.09.07.13.1.04.03.09.07.13.1.04.03.09.07.13.1.04.03.09.07.13.1.04.03.09.07.13.1.04.03.09.07.13.1.04.03.09.07.13.1.04.03.09.07.13.1.04.03.09.07.13.1.04.03.09.07.13.1.04.03.09.07.13.1.04.03.09.07.13.1.04.03.09.07.13.1.04.03.09.07.13.1.04.03.09.07.13.1.04.03.09.07.13.1.04.03.09.07.13.1.04.03.09.07.13.1.04.03.09.07.13.1.04.03.09.07.13.1.04.03.09.07.13.1.04.03.09.07.13.1.04.03.09.07.13.1.04.03.09.07.13.1.04.03.09.07.13.1.04.03.09.07.13.1.04.03.09.07.13.1.04.03.09.07.13.1.04.03.09.07.13.1.04.03.09.07.13.1.04.03.09.07.13.1.04.03.09.07.13.1.04.03.09.07.13.1.04.03.09.07.13.1.04.03.09.07.13.1.04.03.09.07.13.1.04.03.09.07.13.1.04.03.09.07.13.1.04.03.09.07.13.1.04.03.09.07.13.1.04.03.09.07.13.1.04.03.09.07.13.1.04.03.09.07.13.1.04.03.09.07.13.1.04.03.09.07.13.1.04.03.09.07.13.1.04.03.09.07.13.1.04.03.09.07.13.1.04.03.09.07.13.1.04.03.09.07.13.1.04.03.09.07.13.1,14.86,11.32,38.13,7.93,48.06-10.08,8.2-14.87,3.23-32.13-8.69-41.38-.04-.03-.09-.07-.13-.1-.04-.03-.09-.07-.13-.1-.04-.03-.09-.07-.13-.1-.04-.03-.09-.07-.13-.1-.04-.03-.09-.07-.13-.1-.04-.03-.09-.07-.13-.1-.04-.03-.09-.07-.13-.1-.04-.03-.09-.07-.13-.1-.04-.03-.09-.06-.13-.1-.04-.03-.09-.07-.13-.1-.04-.03-.09-.07-.13-.1-.04-.03-.09-.07-.13-.1-.04-.03-.09-.07-.13-.1-.04-.03-.09-.07-.13-.1-.04-.03-.09-.07-.13-.1-.04-.03-.09-.07-.13-.1-.04-.03-.09-.07-.13-.1-.04-.03-.09-.07-.13-.1-.04-.03-.09-.07-.13-.1-.04-.03-.09-.07-.13-.1-.04-.03-.09-.07-.13-.1-.04-.03-.09-.07-.13-.1-.04-.03-.09-.07-.13-.1-.04-.03-.09-.07-.13-.1-.04-.03-.09-.07-.13-.1-.04-.03-.09-.07-.13-.1-.04-.03-.09-.07-.13-.1-.04-.03-.09-.06-.13-.1-.04-.03-.09-.07-.13-.1-.04-.03-.09-.07-.13-.1-.04-.03-.09-.07-.13-.1-.04-.03-.09-.07-.13-.1-.04-.03-.09-.07-.13-.1-.04-.03-.09-.07-.13-.1-.04-.03-.09-.07-.13-.1-.04-.03-.09-.07-.13-.1-.04-.03-.09-.07-.13-.1-.04-.03-.09-.07-.13-.1-.04-.03-.09-.06-.13-.1-.04-.03-.09-.07-.13-.1-.04-.03-.09-.07-.13-.1-.04-.03-.09-.07-.13-.1-.04-.03-.09-.07-.13-.1-.04-.03-.09-.07-.13-.1-.04-.03-.09-.07-.13-.1-.04-.03-.09-.07-.13-.1-.04-.03-.09-.07-.13-.1-.04-.03-.09-.07-.13-.1-.04-.03-.09-.07-.13-.1-.04-.03-.09-.07-.13-.1-.04-.03-.09-.07-.13-.1-.04-.03-.09-.07-.13-.1-.04-.03-.09-.07-.13-.1-.04-.03-.09-.07-.13-.1-.04-.03-.09-.07-.13-.1-.04-.03-.09-.07-.13-.1-.04-.03-.09-.07-.13-.1-.04-.03-.09-.06-.13-.1-.04-.03-.09-.07-.13-.1-.04-.03-.09-.07-.13-.1-.04-.03-.09-.07-.13-.1-.04-.03-.09-.07-.13-.1-.04-.03-.09-.07-.13-.1-.04-.03-.09-.07-.13-.1-.04-.03-.09-.07-.13-.1-.04-.03-.09-.07-.13-.1-.04-.03-.09-.07-.13-.1-.04-.03-.09-.07-.13-.1-.04-.03-.09-.07-.13-.1-.04-.03-.09-.07-.13-.1-.04-.03-.09-.07-.13-.1-.04-.03-.09-.07-.13-.1-.04-.03-.09-.07-.13-.1-.04-.03-.09-.07-.13-.1-.04-.03-.09-.07-.13-.1-.04-.03-.09-.07-.13-.1-.04-.03-.09-.07-.13-.1-.04-.03-.09-.07-.13-.1-.04-.03-.09-.07-.13-.1-.04-.03-.09-.07-.13-.1-.04-.03-.09-.07-.13-.1-.04-.03-.09-.07-.13-.1-.04-.03-.09-.07-.13-.1-.04-.03-.09-.06-.13-.1-.04-.03-.09-.07-.13-.1-.04-.03-.09-.07-.13-.1-.04-.03-.09-.07-.13-.1-.04-.03-.09-.06-.13-.1-5.38-4.22-12.19-6.8-19.86-6.78-24.52.07-40.05,26.48-28.26,48.05,2.29,4.18,5.29,7.58,8.75,10.18.04.03.09.07.13.1ZM116.03,106.95c-5.8,14.07-21.43,19.44-34.09,14.61-.14-.18-.28-.36-.41-.54-12.14-17.18-.23-41.33,20.82-41.83,3.71-.09,7.2.57,10.37,1.81,5.31,7.06,7.12,16.71,3.31,25.96Z"/>
    <path class="cls-1" d="M170.82,98.17c-.2-2.72-1.25-4.8-3.33-6.52-.04-.03-.08-.05-.11-.08,0,0-.01-.01-.02-.02-.04-.03-.08-.05-.11-.08,0,0-.01-.01-.02-.02-.04-.03-.08-.05-.11-.08,0,0-.01-.01-.02-.02-.04-.03-.08-.05-.11-.08,0,0-.01-.01-.02-.02-.04-.03-.08-.05-.11-.08,0,0-.01-.01-.02-.02-.04-.03-.08-.05-.11-.08,0,0-.01-.01-.02-.02-.04-.03-.08-.05-.11-.08,0,0-.01-.01-.02-.02-.04-.03-.08-.05-.11-.08,0,0-.01-.01-.02-.02-.04-.03-.08-.05-.11-.08,0,0-.01-.01-.02-.02-.04-.03-.08-.05-.11-.08,0,0-.01-.01-.02-.02-.04-.03-.08-.05-.11-.08,0,0-.01-.01-.02-.02-.04-.03-.08-.05-.11-.08,0,0-.01-.01-.02-.02-.04-.03-.08-.05-.11-.08,0,0-.01-.01-.02-.02-.04-.03-.08-.05-.11-.08,0,0-.01-.01-.02-.02-.04-.03-.08-.05-.11-.08,0,0-.01-.01-.02-.02-.04-.03-.08-.05-.11-.08,0,0-.01-.01-.02-.02-.04-.03-.08-.05-.11-.08,0,0-.01-.01-.02-.02-.04-.03-.08-.05-.11-.08,0,0-.01-.01-.02-.02-.04-.03-.08-.05-.11-.08,0,0-.01-.01-.02-.02-.04-.03-.08-.05-.11-.08,0,0-.01-.01-.02-.02-.04-.03-.08-.05-.11-.08,0,0-.01-.01-.02-.02-.04-.03-.08-.05-.11-.08,0,0-.01-.01-.02-.02-.04-.03-.08-.05-.11-.08,0,0-.01-.01-.02-.02-.04-.03-.08-.05-.11-.08,0,0-.01-.01-.02-.02-.04-.03-.08-.05-.11-.08,0,0-.01-.01-.02-.02-.04-.03-.08-.05-.11-.08,0,0-.01-.01-.02-.02-.04-.03-.08-.05-.11-.08,0,0-.01-.01-.02-.02-.04-.03-.08-.05-.11-.08,0,0-.01-.01-.02-.02-.04-.03-.08-.05-.11-.08,0,0-.01-.01-.02-.02-.04-.03-.08-.05-.11-.08,0,0-.01-.01-.02-.02-.04-.03-.08-.05-.11-.08,0,0-.01-.01-.02-.02-.04-.03-.08-.05-.11-.08,0,0-.01-.01-.02-.02-.04-.03-.08-.05-.11-.08,0,0-.01-.01-.02-.02-.04-.03-.08-.05-.11-.08,0,0-.01-.01-.02-.02-.04-.03-.08-.05-.11-.08,0,0-.01-.01-.02-.02-.04-.03-.08-.05-.11-.08,0,0-.01-.01-.02-.02-.04-.03-.08-.05-.11-.08,0,0-.01-.01-.02-.02-.04-.03-.08-.05-.11-.08,0,0-.01-.01-.02-.02-.04-.03-.08-.05-.11-.08,0,0-.01-.01-.02-.02-.04-.03-.08-.05-.11-.08,0,0-.01-.01-.02-.02-.04-.03-.08-.05-.11-.08,0,0-.01-.01-.02-.02-.04-.03-.08-.05-.11-.08,0,0-.01-.01-.02-.02-.04-.03-.08-.05-.11-.08,0,0-.01-.01-.02-.02-.04-.03-.08-.05-.11-.08,0,0-.01-.01-.02-.02-.04-.03-.08-.05-.11-.08,0,0-.01-.01-.02-.02-.04-.03-.08-.05-.11-.08,0,0-.01-.01-.02-.02-.04-.03-.08-.05-.11-.08,0,0-.01-.01-.02-.02-.04-.03-.08-.05-.11-.08,0,0-.01-.01-.02-.02-.04-.03-.08-.05-.11-.08,0,0-.01-.01-.02-.02-.04-.03-.08-.05-.11-.08,0,0-.01-.01-.02-.02-.04-.03-.08-.05-.11-.08,0,0-.01-.01-.02-.02-.04-.03-.08-.05-.11-.08,0,0-.01-.01-.02-.02-.04-.03-.08-.05-.11-.08,0,0-.01-.01-.02-.02-.04-.03-.08-.05-.11-.08,0,0-.01-.01-.02-.02-.04-.03-.08-.05-.11-.08,0,0-.01-.01-.02-.02-.04-.03-.08-.05-.11-.08,0,0-.01-.01-.02-.02-.04-.03-.08-.05-.11-.08,0,0-.01-.01-.02-.02-.04-.03-.08-.05-.11-.08,0,0-.01-.01-.02-.02-.04-.03-.08-.05-.11-.08,0,0-.01-.01-.02-.02-.04-.03-.08-.05-.11-.08,0,0-.01-.01-.02-.02-.04-.03-.08-.05-.11-.08,0,0-.01-.01-.02-.02-.04-.03-.08-.05-.11-.08,0,0-.01-.01-.02-.02-.04-.03-.08-.05-.11-.08,0,0-.01-.01-.02-.02-.04-.03-.08-.05-.11-.08,0,0-.01-.01-.02-.02-.04-.03-.08-.05-.11-.08,0,0-.01-.01-.02-.02-.04-.03-.08-.05-.11-.08,0,0-.01-.01-.02-.02-.04-.03-.08-.05-.11-.08,0,0-.01-.01-.02-.02-.04-.03-.08-.05-.11-.08,0,0-.01-.01-.02-.02-.04-.03-.08-.05-.11-.08,0,0-.01-.01-.02-.02-.04-.03-.08-.05-.11-.08,0,0-.01-.01-.02-.02-.04-.03-.08-.05-.11-.08,0,0-.01-.01-.02-.02-.04-.03-.08-.05-.11-.08,0,0-.01-.01-.02-.02-.04-.03-.08-.05-.11-.08,0,0-.01-.01-.02-.02-.04-.03-.08-.05-.11-.08,0,0-.01-.01-.02-.02-.04-.03-.08-.05-.11-.08,0,0-.01-.01-.02-.02-.04-.03-.08-.05-.11-.08,0,0-.01-.01-.02-.02-.04-.03-.08-.05-.11-.08,0,0-.01-.01-.02-.02-.04-.03-.08-.05-.11-.08,0,0-.01-.01-.02-.02-.04-.03-.08-.05-.11-.08,0,0-.01-.01-.02-.02-.04-.03-.08-.05-.11-.08,0,0-.01-.01-.02-.02-.04-.03-.08-.05-.11-.08,0,0-.01-.01-.02-.02-.04-.03-.08-.05-.11-.08,0,0-.01-.01-.02-.02-.04-.03-.08-.05-.11-.08,0,0-.01-.01-.02-.02-.04-.03-.08-.05-.11-.08,0,0-.01-.01-.02-.02-.04-.03-.08-.05-.11-.08,0,0-.01-.01-.02-.02-.04-.03-.08-.05-.11-.08,0,0-.01-.01-.02-.02-.04-.03-.08-.05-.11-.08,0,0-.01-.01-.02-.02-.04-.03-.08-.05-.11-.08,0,0-.01-.01-.02-.02-.04-.03-.08-.05-.11-.08,0,0-.01-.01-.02-.02-.83-.69-1.85-1.19-2.95-1.59,2.9-5.85,8.94-11.25,3.58-17.77-1.55-1.89-9.39-9.81-12.25-11.94-.04-.03-.09-.07-.13-.1-.04-.03-.09-.07-.13-.1-.04-.03-.09-.07-.13-.1-.04-.03-.09-.07-.13-.1-.04-.03-.09-.07-.13-.1-.04-.03-.09-.07-.13-.1-.04-.03-.09-.07-.13-.1-.04-.03-.09-.07-.13-.1-.04-.03-.09-.07-.13-.1-.04-.03-.09-.07-.13-.1-.04-.03-.09-.07-.13-.1-.04-.03-.09-.07-.13-.1-.04-.03-.09-.07-.13-.1-.04-.03-.09-.07-.13-.1-.04-.03-.09-.07-.13-.1-.04-.03-.09-.07-.13-.1-.04-.03-.09-.07-.13-.1-.04-.03-.09-.07-.13-.1-.04-.03-.09-.07-.13-.1-.04-.03-.09-.07-.13-.1-.04-.03-.09-.07-.13-.1-.04-.03-.09-.07-.13-.1-.04-.03-.09-.07-.13-.1-.04-.03-.09-.07-.13-.1-.04-.03-.09-.07-.13-.1-.04-.03-.09-.07-.13-.1-.04-.03-.09-.07-.13-.1-.04-.03-.09-.07-.13-.1-.04-.03-.09-.07-.13-.1-.04-.03-.09-.07-.13-.1-.04-.03-.09-.07-.13-.1-.04-.03-.09-.07-.13-.1-.04-.03-.09-.07-.13-.1-.04-.03-.09-.07-.13-.1-.04-.03-.09-.07-.13-.1-.04-.03-.09-.07-.13-.1-.04-.03-.09-.07-.13-.1-.04-.03-.09-.07-.13-.1-.04-.03-.09-.07-.13-.1-.04-.03-.09-.07-.13-.1-.04-.03-.09-.07-.13-.1-.04-.03-.09-.07-.13-.1-.04-.03-.09-.07-.13-.1-.04-.03-.09-.07-.13-.1-.04-.03-.09-.07-.13-.1-.04-.03-.09-.07-.13-.1-.04-.03-.09-.07-.13-.1-.04-.03-.09-.07-.13-.1-.04-.03-.09-.07-.13-.1-.04-.03-.09-.07-.13-.1-.04-.03-.09-.07-.13-.1-.04-.03-.09-.07-.13-.1-.04-.03-.09-.07-.13-.1-.04-.03-.09-.07-.13-.1-.04-.03-.09-.07-.13-.1-.04-.03-.09-.07-.13-.1-.04-.03-.09-.07-.13-.1-.04-.03-.09-.07-.13-.1-.04-.03-.09-.07-.13-.1-.04-.03-.09-.07-.13-.1-.04-.03-.09-.07-.13-.1-.04-.03-.09-.07-.13-.1-.04-.03-.09-.07-.13-.1-.04-.03-.09-.07-.13-.1-.04-.03-.09-.07-.13-.1-.04-.03-.09-.07-.13-.1-.04-.03-.09-.07-.13-.1-.04-.03-.09-.07-.13-.1-.04-.03-.09-.07-.13-.1-.04-.03-.09-.07-.13-.1-.04-.03-.09-.07-.13-.1-.04-.03-.09-.07-.13-.1-.04-.03-.09-.07-.13-.1-.04-.03-.09-.07-.13-.1-.04-.03-.09-.07-.13-.1-.04-.03-.09-.07-.13-.1-.04-.03-.09-.07-.13-.1-.04-.03-.09-.07-.13-.1-.04-.03-.09-.07-.13-.1-.04-.03-.09-.07-.13-.1-.04-.03-.09-.07-.13-.1-.04-.03-.09-.07-.13-.1-.04-.03-.09-.07-.13-.1-.04-.03-.09-.07-.13-.1-.04-.03-.09-.07-.13-.1-.04-.03-.09-.07-.13-.1-.04-.03-.09-.07-.13-.1-.04-.03-.09-.07-.13-.1-.35-.26-.63-.46-.83-.55-5.08-2.43-8.9.5-12.95,3.09-.74-2.37-1.79-4.48-3.7-5.83-.04-.03-.09-.07-.13-.1-.04-.03-.09-.07-.13-.1-.04-.03-.09-.07-.13-.1-.04-.03-.09-.07-.13-.1-.04-.03-.09-.07-.13-.1-.04-.03-.09-.07-.13-.1-.04-.03-.09-.07-.13-.1-.04-.03-.09-.07-.13-.1-.04-.03-.09-.07-.13-.1-.04-.03-.09-.07-.13-.1-.04-.03-.09-.07-.13-.1-.04-.03-.09-.07-.13-.1-.04-.03-.09-.07-.13-.1-.04-.03-.09-.07-.13-.1-.04-.03-.09-.07-.13-.1-.04-.03-.09-.07-.13-.1-.04-.03-.09-.07-.13-.1-.04-.03-.09-.07-.13-.1-.04-.03-.09-.07-.13-.1-.04-.03-.09-.07-.13-.1-.04-.03-.09-.07-.13-.1-.04-.03-.09-.07-.13-.1-.04-.03-.09-.07-.13-.1-.04-.03-.09-.07-.13-.1-.04-.03-.09-.07-.13-.1-.04-.03-.09-.07-.13-.1-.04-.03-.09-.07-.13-.1-.04-.03-.09-.07-.13-.1-.04-.03-.09-.07-.13-.1-.04-.03-.09-.07-.13-.1-.04-.03-.09-.07-.13-.1-.04-.03-.09-.07-.13-.1-.04-.03-.09-.07-.13-.1-.04-.03-.09-.07-.13-.1-.04-.03-.09-.07-.13-.1-.04-.03-.09-.07-.13-.1-.04-.03-.09-.07-.13-.1-.04-.03-.09-.07-.13-.1-.04-.03-.09-.07-.13-.1-.04-.03-.09-.07-.13-.1-.04-.03-.09-.07-.13-.1-.04-.03-.09-.07-.13-.1-.04-.03-.09-.07-.13-.1-.04-.03-.09-.07-.13-.1-.04-.03-.09-.07-.13-.1-.04-.03-.09-.07-.13-.1-.04-.03-.09-.07-.13-.1-.04-.03-.09-.07-.13-.1-.04-.03-.09-.07-.13-.1-.04-.03-.09-.07-.13-.1-.04-.03-.09-.07-.13-.1-.04-.03-.09-.07-.13-.1-.04-.03-.09-.07-.13-.1-.04-.03-.09-.07-.13-.1-.04-.03-.09-.07-.13-.1-.04-.03-.09-.07-.13-.1-.04-.03-.09-.07-.13-.1-.04-.03-.09-.07-.13-.1-.04-.03-.09-.07-.13-.1-.04-.03-.09-.07-.13-.1-.04-.03-.09-.07-.13-.1-.04-.03-.09-.07-.13-.1-.04-.03-.09-.07-.13-.1-.04-.03-.09-.07-.13-.1-.04-.03-.09-.07-.13-.1-.04-.03-.09-.07-.13-.1-.04-.03-.09-.07-.13-.1-.04-.03-.09-.07-.13-.1-.04-.03-.09-.07-.13-.1-.04-.03-.09-.07-.13-.1-.04-.03-.09-.07-.13-.1-.04-.03-.09-.07-.13-.1-.04-.03-.09-.07-.13-.1-.04-.03-.09-.07-.13-.1-.04-.03-.09-.07-.13-.1-.04-.03-.09-.07-.13-.1-.04-.03-.09-.07-.13-.1-.04-.03-.09-.07-.13-.1-.04-.03-.09-.07-.13-.1-.04-.03-.09-.07-.13-.1-.04-.03-.09-.07-.13-.1-.04-.03-.09-.07-.13-.1-.04-.03-.09-.07-.13-.1-.04-.03-.09-.07-.13-.1-.04-.03-.09-.07-.13-.1-.04-.03-.09-.07-.13-.1-.04-.03-.09-.07-.13-.1-.04-.03-.09-.07-.13-.1-1.16-.86-2.64-1.44-4.59-1.61-3.5-.3-14.04-.42-17.16.33-7.24,1.72-6.61,9.95-8.81,15.55l-5.73,2.29c-5.39-2.53-10.08-8.16-16.5-5.08-1.92.92-11.24,10.31-12.95,12.39-5.47,6.65.97,12.32,3.89,18.25l-2.59,5.99c-6.12,1.75-13.95,1.72-15.57,9.35v17.22c.53,2.47,1.68,4.12,3.21,5.29.04.03.09.07.13.1.04.03.09.07.13.1.04.03.09.07.13.1.04.03.09.07.13.1.04.03.09.07.13.1.04.03.09.07.13.1.04.03.09.07.13.1.04.03.09.07.13.1.04.03.09.07.13.1.04.03.09.07.13.1.04.03.09.07.13.1.04.03.09.07.13.1.04.03.09.07.13.1.04.03.09.07.13.1.04.03.09.07.13.1.04.03.09.07.13.1.04.03.09.07.13.1.04.03.09.07.13.1.04.03.09.07.13.1.04.03.09.07.13.1.04.03.09.07.13.1.04.03.09.07.13.1.04.03.09.07.13.1.04.03.09.07.13.1.04.03.09.07.13.1.04.03.09.07.13.1.04.03.09.07.13.1.04.03.09.07.13.1.04.03.09.07.13.1.04.03.09.07.13.1.04.03.09.07.13.1.04.03.09.07.13.1.04.03.09.07.13.1.04.03.09.07.13.1.04.03.09.07.13.1.04.03.09.07.13.1.04.03.09.07.13.1.04.03.09.07.13.1.04.03.09.07.13.1.04.03.09.07.13.1.04.03.09.07.13.1.04.03.09.07.13.1.04.03.09.07.13.1.04.03.09.07.13.1.04.03.09.07.13.1.04.03.09.07.13.1.04.03.09.07.13.1.04.03.09.07.13.1.04.03.09.07.13.1.04.03.09.07.13.1.04.03.09.07.13.1.04.03.09.07.13.1.04.03.09.07.13.1.04.03.09.07.13.1.04.03.09.07.13.1.04.03.09.07.13.1.04.03.09.07.13.1.04.03.09.07.13.1.04.03.09.07.13.1.04.03.09.07.13.1.04.03.09.07.13.1.04.03.09.07.13.1.04.03.09.07.13.1.04.03.09.07.13.1.04.03.09.07.13.1.04.03.09.07.13.1.04.03.09.07.13.1.04.03.09.07.13.1.04.03.09.07.13.1.04.03.09.07.13.1.04.03.09.07.13.1.04.03.09.07.13.1.04.03.09.07.13.1.04.03.09.07.13.1.04.03.09.07.13.1.04.03.09.07.13.1.04.03.09.07.13.1.04.03.09.07.13.1.04.03.09.07.13.1.04.03.09.07.13.1.04.03.09.07.13.1.04.03.09.07.13.1.04.03.09.07.13.1.04.03.09.07.13.1.04.03.09.07.13.1.04.03.09.07.13.1.04.03.09.07.13.1.04.03.09.07.13.1.96.76,2.07,1.32,3.27,1.77-3.01,5.78-9,11.33-3.66,17.82,1.55,1.89,9.39,9.81,12.25,11.93.04.03.09.07.13.1.04.03.09.07.13.1.04.03.09.07.13.1.04.03.09.07.13.1.04.03.09.07.13.1.04.03.09.07.13.1.04.03.09.07.13.1.04.03.09.07.13.1.04.03.09.07.13.1.04.03.09.07.13.1.04.03.09.07.13.1.04.03.09.07.13.1.04.03.09.07.13.1.04.03.09.07.13.1.04.03.09.07.13.1.04.03.09.07.13.1.04.03.09.07.13.1.04.03.09.07.13.1.04.03.09.07.13.1.04.03.09.07.13.1.04.03.09.07.13.1.04.03.09.07.13.1.04.03.09.07.13.1.04.03.09.07.13.1.04.03.09.07.13.1.04.03.09.07.13.1.04.03.09.07.13.1.04.03.09.07.13.1.04.03.09.07.13.1.04.03.09.07.13.1.04.03.09.07.13.1.04.03.09.07.13.1.04.03.09.07.13.1.04.03.09.07.13.1.04.03.09.07.13.1.04.03.09.07.13.1.04.03.09.07.13.1.04.03.09.07.13.1.04.03.09.07.13.1.04.03.09.07.13.1.04.03.09.07.13.1.04.03.09.07.13.1.04.03.09.07.13.1.04.03.09.07.13.1.04.03.09.07.13.1.04.03.09.07.13.1.04.03.09.07.13.1.04.03.09.07.13.1.04.03.09.07.13.1.04.03.09.07.13.1.04.03.09.07.13.1.04.03.09.07.13.1.04.03.09.07.13.1.04.03.09.07.13.1.04.03.09.07.13.1.04.03.09.07.13.1.04.03.09.07.13.1.04.03.09.07.13.1.04.03.09.07.13.1.04.03.09.07.13.1.04.03.09.07.13.1.04.03.09.07.13.1.04.03.09.07.13.1.04.03.09.07.13.1.04.03.09.07.13.1.04.03.09.07.13.1.04.03.09.07.13.1.04.03.09.07.13.1.04.03.09.07.13.1.04.03.09.07.13.1.04.03.09.07.13.1.04.03.09.07.13.1.04.03.09.07.13.1.04.03.09.07.13.1.04.03.09.07.13.1.04.03.09.07.13.1.04.03.09.07.13.1.04.03.09.07.13.1.04.03.09.07.13.1.04.03.09.07.13.1.04.03.09.07.13.1.04.03.09.07.13.1.04.03.09.07.13.1.04.03.09.07.13.1.04.03.09.07.13.1.04.03.09.07.13.1.04.03.09.07.13.1.04.03.09.07.13.1.35.26.63.46.83.55,5.04,2.41,8.92-.47,12.96-3.06.73,2.31,1.77,4.38,3.69,5.78.04.03.09.07.13.1.04.03.09.07.13.1.04.03.09.07.13.1.04.03.09.07.13.1.04.03.09.07.13.1.04.03.09.07.13.1.04.03.09.07.13.1.04.03.09.07.13.1.04.03.09.07.13.1.04.03.09.07.13.1.04.03.09.07.13.1.04.03.09.07.13.1.04.03.09.07.13.1.04.03.09.07.13.1.04.03.09.07.13.1.04.03.09.07.13.1.04.03.09.07.13.1.04.03.09.07.13.1.04.03.09.07.13.1.04.03.09.07.13.1.04.03.09.07.13.1.04.03.09.07.13.1.04.03.09.07.13.1.04.03.09.07.13.1.04.03.09.07.13.1.04.03.09.07.13.1.04.03.09.07.13.1.04.03.09.07.13.1.04.03.09.07.13.1.04.03.09.07.13.1.04.03.09.07.13.1.04.03.09.07.13.1.04.03.09.07.13.1.04.03.09.07.13.1.04.03.09.07.13.1.04.03.09.07.13.1.04.03.09.07.13.1.04.03.09.07.13.1.04.03.09.07.13.1.04.03.09.07.13.1.04.03.09.07.13.1.04.03.09.07.13.1.04.03.09.07.13.1.04.03.09.07.13.1.04.03.09.07.13.1.04.03.09.07.13.1.04.03.09.07.13.1.04.03.09.07.13.1.04.03.09.07.13.1.04.03.09.07.13.1.04.03.09.07.13.1.04.03.09.07.13.1.04.03.09.07.13.1.04.03.09.07.13.1.04.03.09.07.13.1.04.03.09.07.13.1.04.03.09.07.13.1.04.03.09.07.13.1.04.03.09.07.13.1.04.03.09.07.13.1.04.03.09.07.13.1.04.03.09.07.13.1.04.03.09.07.13.1.04.03.09.07.13.1.04.03.09.07.13.1.04.03.09.07.13.1.04.03.09.07.13.1.04.03.09.07.13.1.04.03.09.07.13.1.04.03.09.07.13.1.04.03.09.07.13.1.04.03.09.07.13.1.04.03.09.07.13.1.04.03.09.07.13.1.04.03.09.07.13.1.04.03.09.07.13.1.04.03.09.07.13.1.04.03.09.07.13.1.04.03.09.07.13.1.04.03.09.07.13.1.04.03.09.07.13.1.04.03.09.07.13.1.04.03.09.07.13.1.04.03.09.07.13.1.04.03.09.07.13.1.04.03.09.07.13.1.04.03.09.07.13.1.04.03.09.07.13.1.98.74,2.19,1.31,3.73,1.64h17.22c7.64-1.66,7.59-9.41,9.35-15.57l5.99-2.59c6.02,2.82,11.53,9.42,18.25,3.89,2.85-2.35,9.02-8.47,11.32-11.32,5.28-6.56-1.15-12.32-4.01-18.13l2.39-5.82c.38-.46,9.28-2.21,11.01-3.08,2.64-1.32,4.51-4.37,4.76-7.29.35-4.05.3-11.19,0-15.27ZM83.72,148.8s-.09-.07-.13-.1c-.04-.03-.09-.07-.13-.1-.04-.03-.09-.07-.13-.1-.04-.03-.09-.07-.13-.1-.04-.03-.09-.07-.13-.1-.04-.03-.09-.07-.13-.1-.04-.03-.09-.07-.13-.1-.04-.03-.09-.07-.13-.1-.04-.03-.09-.07-.13-.1-.04-.03-.09-.07-.13-.1-.04-.03-.09-.07-.13-.1-.04-.03-.09-.07-.13-.1-.04-.03-.09-.07-.13-.1-.04-.03-.09-.07-.13-.1-.04-.03-.09-.07-.13-.1-.04-.03-.09-.07-.13-.1-.04-.03-.09-.07-.13-.1-.04-.03-.09-.07-.13-.1-.04-.03-.09-.07-.13-.1-.04-.03-.09-.07-.13-.1-.04-.03-.09-.07-.13-.1-.04-.03-.09-.07-.13-.1-.04-.03-.09-.07-.13-.1-.04-.03-.09-.07-.13-.1-.04-.03-.09-.07-.13-.1-.04-.03-.09-.07-.13-.1-.04-.03-.09-.07-.13-.1-.04-.03-.09-.07-.13-.1-.04-.03-.09-.07-.13-.1-.04-.03-.09-.07-.13-.1-.04-.03-.09-.07-.13-.1-.04-.03-.09-.07-.13-.1-.04-.03-.09-.07-.13-.1-.04-.03-.09-.07-.13-.1-.04-.03-.09-.07-.13-.1-.04-.03-.09-.07-.13-.1-.04-.03-.09-.07-.13-.1-.04-.03-.09-.07-.13-.1-.04-.03-.09-.07-.13-.1-.04-.03-.09-.07-.13-.1-.04-.03-.09-.07-.13-.1-.04-.03-.09-.07-.13-.1-.04-.03-.09-.07-.13-.1-.04-.03-.09-.07-.13-.1-.04-.03-.09-.07-.13-.1-.22-.17-.45-.3-.73-.45-1.35-.73-7.59-3.42-8.89-3.66-.76-.14-1.48-.13-2.21.13-2.91,1.04-6.81,4.76-9.86,5.88-.04.02-.08.02-.12.04-.67-.72-1.21-1.33-1.51-1.72-.99-1.26-1.34-2.09-.71-3.66,1.33-3.29,4.7-6.78,5.98-10.25.09-.63.04-1.22-.1-1.83-.29-1.27-3.07-7.9-3.77-9.03-.26-.42-.52-.7-.84-.93-.04-.03-.09-.07-.13-.1-.04-.03-.09-.07-.13-.1-.04-.03-.09-.07-.13-.1-.04-.03-.09-.07-.13-.1-.04-.03-.09-.07-.13-.1-.04-.03-.09-.07-.13-.1-.04-.03-.09-.07-.13-.1-.04-.03-.09-.07-.13-.1-.04-.03-.09-.07-.13-.1-.04-.03-.09-.07-.13-.1-.04-.03-.09-.07-.13-.1-.04-.03-.09-.07-.13-.1-.04-.03-.09-.07-.13-.1-.04-.03-.09-.07-.13-.1-.04-.03-.09-.07-.13-.1-.04-.03-.09-.07-.13-.1-.04-.03-.09-.07-.13-.1-.04-.03-.09-.07-.13-.1-.04-.03-.09-.07-.13-.1-.04-.03-.09-.07-.13-.1-.04-.03-.09-.07-.13-.1-.04-.03-.09-.07-.13-.1-.04-.03-.09-.07-.13-.1-.04-.03-.09-.07-.13-.1-.04-.03-.09-.07-.13-.1-.04-.03-.09-.07-.13-.1-.04-.03-.09-.07-.13-.1-.04-.03-.09-.07-.13-.1-.04-.03-.09-.07-.13-.1-.04-.03-.09-.07-.13-.1-.04-.03-.09-.07-.13-.1-.04-.03-.09-.07-.13-.1-.04-.03-.09-.07-.13-.1-.04-.03-.09-.07-.13-.1-.04-.03-.09-.07-.13-.1-.04-.03-.09-.07-.13-.1-.04-.03-.09-.07-.13-.1-.04-.03-.09-.07-.13-.1-.04-.03-.09-.07-.13-.1-.04-.03-.09-.07-.13-.1-.04-.03-.09-.07-.13-.1-.04-.03-.09-.07-.13-.1-.04-.03-.09-.07-.13-.1-.04-.03-.09-.07-.13-.1-.04-.03-.09-.07-.13-.1-.04-.03-.09-.07-.13-.1-.04-.03-.09-.07-.13-.1-.04-.03-.09-.07-.13-.1-.04-.03-.09-.07-.13-.1-.04-.03-.09-.07-.13-.1-.04-.03-.09-.07-.13-.1-.04-.03-.09-.07-.13-.1-.04-.03-.09-.07-.13-.1-.04-.03-.09-.07-.13-.1-.04-.03-.09-.07-.13-.1-.04-.03-.09-.07-.13-.1-.04-.03-.09-.07-.13-.1-.04-.03-.09-.07-.13-.1-.04-.03-.09-.07-.13-.1-.04-.03-.09-.07-.13-.1-.04-.03-.09-.07-.13-.1-.04-.03-.09-.07-.13-.1-.04-.03-.09-.07-.13-.1-.04-.03-.09-.07-.13-.1-.04-.03-.09-.07-.13-.1-.04-.03-.09-.07-.13-.1-.04-.03-.09-.07-.13-.1-.04-.03-.09-.07-.13-.1-.04-.03-.09-.07-.13-.1-.04-.03-.09-.07-.13-.1-.04-.03-.09-.07-.13-.1-.04-.03-.09-.07-.13-.1-.04-.03-.09-.07-.13-.1-.04-.03-.09-.07-.13-.1-.04-.03-.09-.07-.13-.1-.04-.03-.09-.07-.13-.1-.04-.03-.09-.07-.13-.1-.04-.03-.09-.07-.13-.1-.04-.03-.09-.07-.13-.1-.04-.03-.09-.07-.13-.1-.04-.03-.09-.07-.13-.1-.04-.03-.09-.07-.13-.1-.04-.03-.09-.07-.13-.1-.04-.03-.09-.07-.13-.1-.04-.03-.09-.07-.13-.1-.04-.03-.09-.07-.13-.1-.04-.03-.09-.07-.13-.1-.04-.03-.09-.07-.13-.1-.29-.24-.63-.42-1.07-.59-.29-.11-.68-.23-1.12-.35-.11-3.73-.5-7.66-.09-11.02.17-1.42.9-2.05,2.17-2.51,2.58-.93,10.11-1.9,11.75-3.26.41-.34.58-.69.83-1.14.72-1.34,3.42-7.61,3.66-8.88.15-.77.12-1.46-.13-2.22-.95-2.89-4.77-6.83-5.89-9.86-.49-1.32-.23-2.11.56-3.22,1.3-1.84,8.06-8.51,9.94-9.99,1.15-.9,2.22-1.42,3.66-.71l10.25,5.98c.63.09,1.22.04,1.84-.11,1.33-.3,7.84-3.03,9.03-3.77.76-.47,1.1-.95,1.42-1.78.94-2.4,2.08-10.77,3.45-12.06.33-.31.87-.51,1.29-.68,2.52.13,5.23-.01,7.93-.12.51,2.27,1.07,4.38,1.72,5.15.17.21.35.36.54.48.04.03.09.07.13.1.04.03.09.07.13.1.04.03.09.07.13.1.04.03.09.07.13.1.04.03.09.07.13.1.04.03.09.07.13.1.04.03.09.07.13.1.04.03.09.07.13.1.04.03.09.07.13.1.04.03.09.07.13.1.04.03.09.07.13.1.04.03.09.07.13.1.04.03.09.07.13.1.04.03.09.07.13.1.04.03.09.07.13.1.04.03.09.07.13.1.04.03.09.07.13.1.04.03.09.07.13.1.04.03.09.07.13.1.04.03.09.07.13.1.04.03.09.07.13.1.04.03.09.07.13.1.04.03.09.07.13.1.04.03.09.07.13.1.04.03.09.07.13.1.04.03.09.07.13.1.04.03.09.07.13.1.04.03.09.07.13.1.04.03.09.07.13.1.04.03.09.07.13.1.04.03.09.07.13.1.04.03.09.07.13.1.04.03.09.07.13.1.04.03.09.07.13.1.04.03.09.07.13.1.04.03.09.07.13.1.04.03.09.07.13.1.04.03.09.07.13.1.04.03.09.07.13.1.04.03.09.07.13.1.04.03.09.07.13.1.04.03.09.07.13.1.04.03.09.07.13.1.04.03.09.07.13.1.04.03.09.07.13.1.04.03.09.07.13.1.04.03.09.07.13.1.04.03.09.07.13.1.04.03.09.07.13.1.04.03.09.07.13.1.04.03.09.07.13.1.04.03.09.07.13.1.04.03.09.07.13.1.04.03.09.07.13.1.04.03.09.07.13.1.04.03.09.07.13.1.04.03.09.07.13.1.04.03.09.07.13.1.04.03.09.07.13.1.04.03.09.07.13.1.04.03.09.07.13.1.04.03.09.07.13.1.04.03.09.07.13.1.04.03.09.07.13.1.04.03.09.07.13.1.04.03.09.07.13.1.04.03.09.07.13.1.04.03.09.07.13.1.04.03.09.07.13.1.04.03.09.07.13.1.04.03.09.07.13.1.04.03.09.07.13.1.04.03.09.07.13.1.04.03.09.07.13.1.04.03.09.07.13.1.04.03.09.07.13.1.04.03.09.07.13.1.04.03.09.07.13.1.04.03.09.07.13.1.04.03.09.07.13.1.04.03.09.07.13.1.04.03.09.07.13.1.04.03.09.07.13.1.04.03.09.07.13.1.04.03.09.07.13.1.04.03.09.07.13.1.04.03.09.07.13.1.04.03.09.07.13.1.22.17.45.3.73.44,1.3.7,7.67,3.43,8.88,3.66.77.15,1.46.12,2.22-.13,2.87-.95,6.87-4.78,9.86-5.89.04-.02.08-.02.12-.04.67.72,1.21,1.33,1.51,1.72.99,1.26,1.34,2.09.71,3.66-1.33,3.29-4.7,6.78-5.98,10.25-.09.63-.04,1.22.1,1.83.29,1.27,3.07,7.9,3.77,9.03.26.42.52.7.84.93.04.03.09.07.13.1.04.03.09.07.13.1.04.03.09.07.13.1.04.03.09.07.13.1.04.03.09.07.13.1.04.03.09.07.13.1.04.03.09.07.13.1.04.03.09.07.13.1.04.03.09.07.13.1.04.03.09.07.13.1.04.03.09.07.13.1.04.03.09.07.13.1.04.03.09.07.13.1.04.03.09.07.13.1.04.03.09.07.13.1.04.03.09.07.13.1.04.03.09.07.13.1.04.03.09.07.13.1.04.03.09.07.13.1.04.03.09.07.13.1.04.03.09.07.13.1.04.03.09.07.13.1.04.03.09.07.13.1.04.03.09.07.13.1.04.03.09.07.13.1.04.03.09.07.13.1.04.03.09.07.13.1.04.03.09.07.13.1.04.03.09.07.13.1.04.03.09.07.13.1.04.03.09.07.13.1.04.03.09.07.13.1.04.03.09.07.13.1.04.03.09.07.13.1.04.03.09.07.13.1.04.03.09.07.13.1.04.03.09.07.13.1.04.03.09.07.13.1.04.03.09.07.13.1.04.03.09.07.13.1.04.03.09.07.13.1.04.03.09.07.13.1.04.03.09.07.13.1.04.03.09.07.13.1.04.03.09.07.13.1.04.03.09.07.13.1.04.03.09.07.13.1.04.03.09.07.13.1.04.03.09.07.13.1.04.03.09.07.13.1.04.03.09.07.13.1.04.03.09.07.13.1.04.03.09.07.13.1.04.03.09.07.13.1.04.03.09.07.13.1.04.03.09.07.13.1.04.03.09.07.13.1.04.03.09.07.13.1.04.03.09.07.13.1.04.03.09.07.13.1.04.03.09.07.13.1.04.03.09.07.13.1.04.03.09.07.13.1.04.03.09.07.13.1.04.03.09.07.13.1.04.03.09.07.13.1.04.03.09.07.13.1.04.03.09.07.13.1.04.03.09.07.13.1.04.03.09.07.13.1.04.03.09.07.13.1.04.03.09.07.13.1.04.03.09.07.13.1.04.03.09.07.13.1.04.03.09.07.13.1.04.03.09.07.13.1.04.03.09.07.13.1.04.03.09.07.13.1.04.03.09.07.13.1.04.03.09.07.13.1.04.03.09.07.13.1.04.03.09.07.13.1.04.03.09.07.13.1.04.03.09.07.13.1.04.03.09.07.13.1.04.03.09.07.13.1.04.03.09.07.13.1.04.03.09.07.13.1.29.24.63.42,1.07.59.29.11.68.23,1.12.35.11,3.73.5,7.66.09,11.02-.17,1.42-.9,2.05-2.17,2.51-2.58.93-10.11,1.9-11.75,3.26-.41.34-.58.69-.83,1.14-.72,1.34-3.42,7.61-3.66,8.88-.15.77-.12,1.46.13,2.22.95,2.89,4.77,6.83,5.89,9.86.49,1.32.23,2.11-.56,3.22-1.3,1.84-8.06,8.51-9.94,9.99-1.26.99-2.09,1.34-3.66.71-3.29-1.33-6.78-4.7-10.25-5.98-.63-.09-1.22-.04-1.83.1-1.27.29-7.9,3.07-9.03,3.77-.76.47-1.1.95-1.42,1.78-.94,2.4-2.08,10.77-3.45,12.06-.32.3-1.06.65-1.5.72-2.41-.2-5.08-.05-7.72.08-.51-2.27-1.07-4.37-1.71-5.15-.17-.21-.35-.36-.54-.48-.04-.03-.09-.07-.13-.1-.04-.03-.09-.07-.13-.1-.04-.03-.09-.07-.13-.1-.04-.03-.09-.07-.13-.1-.04-.03-.09-.07-.13-.1-.04-.03-.09-.07-.13-.1-.04-.03-.09-.07-.13-.1-.04-.03-.09-.07-.13-.1-.04-.03-.09-.07-.13-.1-.04-.03-.09-.07-.13-.1-.04-.03-.09-.07-.13-.1-.04-.03-.09-.07-.13-.1-.04-.03-.09-.07-.13-.1-.04-.03-.09-.07-.13-.1-.04-.03-.09-.07-.13-.1-.04-.03-.09-.07-.13-.1-.04-.03-.09-.07-.13-.1-.04-.03-.09-.07-.13-.1-.04-.03-.09-.07-.13-.1-.04-.03-.09-.07-.13-.1-.04-.03-.09-.07-.13-.1-.04-.03-.09-.07-.13-.1-.04-.03-.09-.07-.13-.1-.04-.03-.09-.07-.13-.1-.04-.03-.09-.07-.13-.1-.04-.03-.09-.07-.13-.1-.04-.03-.09-.07-.13-.1-.04-.03-.09-.07-.13-.1-.04-.03-.09-.07-.13-.1-.04-.03-.09-.07-.13-.1-.04-.03-.09-.07-.13-.1-.04-.03-.09-.07-.13-.1-.04-.03-.09-.07-.13-.1-.04-.03-.09-.07-.13-.1-.04-.03-.09-.07-.13-.1-.04-.03-.09-.07-.13-.1-.04-.03-.09-.07-.13-.1-.04-.03-.09-.07-.13-.1-.04-.03-.09-.07-.13-.1-.04-.03-.09-.07-.13-.1-.04-.03-.09-.07-.13-.1-.04-.03-.09-.07-.13-.1-.04-.03-.09-.07-.13-.1Z"/>
  </g>
  <g id="CSPuAu.tif">
    <g>
      <path class="cls-2" d="M23.88,88.17c1.62-7.63,9.44-7.6,15.57-9.35l2.59-5.99c-2.92-5.93-9.36-11.6-3.89-18.25,1.71-2.08,11.03-11.47,12.95-12.39,6.42-3.07,11.1,2.56,16.5,5.08l5.73-2.29c2.21-5.6,1.57-13.82,8.81-15.55,3.12-.74,13.66-.63,17.16-.33,8.62.75,8.22,9.47,10.37,15.77l5.82,2.39c5.51-2.47,9.97-8.2,16.5-5.08,1.92.92,11.25,10.31,12.95,12.39,5.56,6.76-1.14,12.32-3.89,18.42l2.41,5.7c3.75,1.48,9.3,1.48,12.43,4.06,2.08,1.71,3.13,3.8,3.33,6.52.3,4.08.35,11.23,0,15.27-.25,2.92-2.12,5.97-4.76,7.29-1.73.87-10.63,2.62-11.01,3.08l-2.39,5.82c2.86,5.81,9.29,11.57,4.01,18.13-2.3,2.85-8.46,8.97-11.32,11.32-6.72,5.53-12.23-1.07-18.25-3.89l-5.99,2.59c-1.76,6.15-1.71,13.9-9.35,15.57h-17.22c-7.93-1.68-7.35-9.73-9.6-15.86l-5.73-2.29c-5.45,2.54-10.02,8.18-16.5,5.08-1.92-.92-11.24-10.31-12.95-12.39-5.47-6.65.96-12.32,3.89-18.25l-2.57-5.95c-6.12-1.95-13.94-1.65-15.58-9.39v-17.22ZM83.6,35.08c-.42.17-.96.37-1.29.68-1.37,1.28-2.51,9.66-3.45,12.06-.32.83-.66,1.31-1.42,1.78-1.19.73-7.7,3.46-9.03,3.77-.62.14-1.21.19-1.84.11l-10.25-5.98c-1.44-.71-2.52-.19-3.66.71-1.88,1.47-8.64,8.15-9.94,9.99-.79,1.12-1.05,1.91-.56,3.22,1.12,3.03,4.93,6.97,5.89,9.86.25.75.28,1.44.13,2.22-.24,1.28-2.94,7.54-3.66,8.88-.24.45-.42.8-.83,1.14-1.64,1.37-9.17,2.33-11.75,3.26-1.27.46-1.99,1.09-2.17,2.51-.56,4.67.42,10.45.02,15.25.07.44.42,1.18.72,1.5,1.28,1.37,9.66,2.51,12.06,3.45.83.32,1.31.66,1.78,1.42.7,1.13,3.47,7.76,3.77,9.03.14.62.2,1.2.1,1.83-1.28,3.47-4.66,6.96-5.98,10.25-.64,1.58-.28,2.4.71,3.66,1.47,1.88,8.15,8.64,9.99,9.94,1.12.79,1.91,1.05,3.22.56,3.05-1.13,6.95-4.84,9.86-5.88.73-.26,1.46-.28,2.21-.13,1.29.25,7.54,2.93,8.89,3.66.45.25.8.42,1.14.83,1.37,1.64,2.33,9.17,3.26,11.75.46,1.27,1.09,1.99,2.51,2.17,4.67.56,10.45-.42,15.25-.02.44-.07,1.18-.42,1.5-.72,1.37-1.28,2.51-9.66,3.45-12.06.32-.83.66-1.31,1.42-1.78,1.13-.7,7.76-3.47,9.03-3.77.62-.14,1.2-.2,1.83-.1,3.47,1.28,6.96,4.66,10.25,5.98,1.58.64,2.4.28,3.66-.71,1.88-1.47,8.64-8.15,9.94-9.99.79-1.12,1.05-1.91.56-3.22-1.12-3.03-4.93-6.97-5.89-9.86-.25-.75-.28-1.44-.13-2.22.24-1.28,2.94-7.54,3.66-8.88.24-.45.42-.8.83-1.14,1.64-1.37,9.17-2.33,11.75-3.26,1.27-.46,1.99-1.09,2.17-2.51.56-4.67-.42-10.45-.02-15.25-.07-.44-.42-1.18-.72-1.5-1.28-1.37-9.66-2.51-12.06-3.45-.83-.32-1.31-.66-1.78-1.42-.7-1.13-3.47-7.76-3.77-9.03-.14-.62-.2-1.2-.1-1.83,1.28-3.47,4.66-6.96,5.98-10.25.64-1.58.28-2.4-.71-3.66-1.47-1.88-8.15-8.64-9.99-9.94-1.12-.79-1.91-1.05-3.22-.56-2.99,1.1-6.99,4.94-9.86,5.89-.75.25-1.44.28-2.22.13-1.21-.23-7.59-2.96-8.88-3.66-.45-.24-.8-.42-1.14-.83-1.37-1.64-2.33-9.17-3.26-11.75-.52-1.44-1.17-2.02-2.75-2.17-4.78-.46-10.35.32-15.21.07Z"/>
      <path class="cls-2" d="M91.46,64.4c24.53-.07,40.3,26.49,28.42,48.05-12.2,22.14-44.55,22.19-56.68,0-11.79-21.57,3.74-47.98,28.26-48.05ZM90.75,70.28c-21.05.5-32.96,24.65-20.82,41.83,12,16.97,38.17,13.92,46.08-5.25,7.34-17.79-6.11-37.04-25.26-36.58Z"/>
    </g>
  </g>
</svg>