<?xml version="1.0" encoding="UTF-8"?>
<svg id="Layer_1" data-name="Layer 1" xmlns="http://www.w3.org/2000/svg" viewBox="0 0 200 200">
  <defs>
    <style>
      .cls-1 {
        fill: #b3b3b3;
      }

      .cls-2 {
        fill: #fff;
      }
    </style>
  </defs>
  <path class="cls-1" d="M152.15,158.8l-32.42-45.7-.05-33.99c5.03-1.29,5.24-7.4,1.44-9.55-.05-.03-.1-.06-.15-.09-.05-.03-.1-.06-.15-.09-.05-.03-.1-.06-.15-.09-.05-.03-.1-.06-.15-.09-.05-.03-.1-.06-.15-.09-.05-.03-.1-.06-.15-.09-.05-.03-.1-.06-.15-.09-.05-.03-.1-.06-.15-.09-.05-.03-.1-.06-.15-.09-.05-.03-.1-.06-.15-.09-.05-.03-.1-.06-.15-.09-.05-.03-.1-.06-.15-.09-.05-.03-.1-.06-.15-.09-.05-.03-.1-.06-.15-.09-.05-.03-.1-.06-.15-.09-.05-.03-.1-.06-.15-.09-.05-.03-.1-.06-.15-.09-.05-.03-.1-.06-.15-.09-.05-.03-.1-.06-.15-.09-.05-.03-.1-.06-.15-.09-.05-.03-.1-.06-.15-.09-.05-.03-.1-.06-.15-.09-.05-.03-.1-.06-.15-.09-.05-.03-.1-.06-.15-.09-.05-.03-.1-.06-.15-.09-.05-.03-.1-.06-.15-.09-.05-.03-.1-.06-.15-.09-.05-.03-.1-.06-.15-.09-.05-.03-.1-.06-.15-.09-.05-.03-.1-.06-.15-.09-.05-.03-.1-.06-.15-.09-.05-.03-.1-.06-.15-.09-.05-.03-.1-.06-.15-.09-.05-.03-.1-.06-.15-.09-.05-.03-.1-.06-.15-.09-.05-.03-.1-.06-.15-.09-.05-.03-.1-.06-.15-.09-.05-.03-.1-.06-.15-.09-.05-.03-.1-.06-.15-.09-.05-.03-.1-.06-.15-.09-.05-.03-.1-.06-.15-.09-.05-.03-.1-.06-.15-.09-.05-.03-.1-.06-.15-.09-.05-.03-.1-.06-.15-.09-.05-.03-.1-.06-.15-.09-.05-.03-.1-.06-.15-.09-.05-.03-.1-.06-.15-.09-.05-.03-.1-.06-.15-.09-.05-.03-.1-.06-.15-.09-.05-.03-.1-.06-.15-.09-.05-.03-.1-.06-.15-.09-.05-.03-.1-.06-.15-.09-.05-.03-.1-.06-.15-.09-.05-.03-.1-.06-.15-.09-.05-.03-.1-.06-.15-.09-.05-.03-.1-.06-.15-.09-.05-.03-.1-.06-.15-.09-.05-.03-.1-.06-.15-.09-.05-.03-.1-.06-.15-.09-.05-.03-.1-.06-.15-.09-.05-.03-.1-.06-.15-.09-.05-.03-.1-.06-.15-.09-.05-.03-.1-.06-.15-.09-.05-.03-.1-.06-.15-.09-.04-.02-.07-.05-.1-.07,4.2-2.19,4.2-8.89.11-11.12-.05-.03-.1-.06-.15-.09-.05-.03-.1-.06-.15-.09-.05-.03-.1-.06-.15-.09-.05-.03-.1-.06-.15-.09-.05-.03-.1-.06-.15-.09-.05-.03-.1-.06-.15-.09-.05-.03-.1-.06-.15-.09-.05-.03-.1-.06-.15-.09-.05-.03-.1-.06-.15-.09-.05-.03-.1-.06-.15-.09-.05-.03-.1-.06-.15-.09-.05-.03-.1-.06-.15-.09-.05-.03-.1-.06-.15-.09-.05-.03-.1-.06-.15-.09-.05-.03-.1-.06-.15-.09-.05-.03-.1-.06-.15-.09-.05-.03-.1-.06-.15-.09-.05-.03-.1-.06-.15-.09-.05-.03-.1-.06-.15-.09-.05-.03-.1-.06-.15-.09-.05-.03-.1-.06-.15-.09-.05-.03-.1-.06-.15-.09-.05-.03-.1-.06-.15-.09-.05-.03-.1-.06-.15-.09-.05-.03-.1-.06-.15-.09-.05-.03-.1-.06-.15-.09-.05-.03-.1-.06-.15-.09-.05-.03-.1-.06-.15-.09-.05-.03-.1-.06-.15-.09-.05-.03-.1-.06-.15-.09-.05-.03-.1-.06-.15-.09-.05-.03-.1-.06-.15-.09-.05-.03-.1-.06-.15-.09-.05-.03-.1-.06-.15-.09-.05-.03-.1-.06-.15-.09-.05-.03-.1-.06-.15-.09-.05-.03-.1-.06-.15-.09-.05-.03-.1-.06-.15-.09-.05-.03-.1-.06-.15-.09-.05-.03-.1-.06-.15-.09-.05-.03-.1-.06-.15-.09-.05-.03-.1-.06-.15-.09-.05-.03-.1-.06-.15-.09-.05-.03-.1-.06-.15-.09-.05-.03-.1-.06-.15-.09-.05-.03-.1-.06-.15-.09-.05-.03-.1-.06-.15-.09-.05-.03-.1-.06-.15-.09-.05-.03-.1-.06-.15-.09-.05-.03-.1-.06-.15-.09-.05-.03-.1-.06-.15-.09-.05-.03-.1-.06-.15-.09-.05-.03-.1-.06-.15-.09-.05-.03-.1-.06-.15-.09-.05-.03-.1-.06-.15-.09-.05-.03-.1-.06-.15-.09-.05-.03-.1-.06-.15-.09-.05-.03-.1-.06-.15-.09-.05-.03-.1-.06-.15-.09-.05-.03-.1-.06-.15-.09-.05-.03-.1-.06-.15-.09-.05-.03-.1-.06-.15-.09-.05-.03-.1-.06-.15-.09-.05-.03-.1-.06-.15-.09-.05-.03-.1-.06-.15-.09-.05-.03-.1-.06-.15-.09-.05-.03-.1-.06-.15-.09-.05-.03-.1-.06-.15-.09-.05-.03-.1-.06-.15-.09-.05-.03-.1-.06-.15-.09-.05-.03-.1-.06-.15-.09-.05-.03-.1-.06-.15-.09-.05-.03-.1-.06-.15-.09-.05-.03-.1-.06-.15-.09-.04-.03-.09-.06-.13-.08,1.13-2.39.24-5.57-2.14-6.94-.05-.03-.1-.06-.15-.09-.05-.03-.1-.06-.15-.09-.05-.03-.1-.06-.15-.09-.05-.03-.1-.06-.15-.09-.05-.03-.1-.06-.15-.09-.05-.03-.1-.06-.15-.09-.05-.03-.1-.06-.15-.09-.05-.03-.1-.06-.15-.09-.05-.03-.1-.06-.15-.09-.05-.03-.1-.06-.15-.09-.05-.03-.1-.06-.15-.09-.05-.03-.1-.06-.15-.09-.05-.03-.1-.06-.15-.09-.05-.03-.1-.06-.15-.09-.05-.03-.1-.06-.15-.09-.05-.03-.1-.06-.15-.09-.05-.03-.1-.06-.15-.09-.05-.03-.1-.06-.15-.09-.05-.03-.1-.06-.15-.09-.05-.03-.1-.06-.15-.09-.05-.03-.1-.06-.15-.09-.05-.03-.1-.06-.15-.09-.05-.03-.1-.06-.15-.09-.05-.03-.1-.06-.15-.09-.05-.03-.1-.06-.15-.09-.05-.03-.1-.06-.15-.09-.05-.03-.1-.06-.15-.09-.05-.03-.1-.06-.15-.09-.05-.03-.1-.06-.15-.09-.05-.03-.1-.06-.15-.09-.05-.03-.1-.06-.15-.09-.05-.03-.1-.06-.15-.09-.05-.03-.1-.06-.15-.09-.05-.03-.1-.06-.15-.09-.05-.03-.1-.06-.15-.09-.05-.03-.1-.06-.15-.09-.05-.03-.1-.06-.15-.09-.05-.03-.1-.06-.15-.09-.05-.03-.1-.06-.15-.09-.05-.03-.1-.06-.15-.09-.05-.03-.1-.06-.15-.09-.05-.03-.1-.06-.15-.09-.05-.03-.1-.06-.15-.09-.05-.03-.1-.06-.15-.09-.05-.03-.1-.06-.15-.09-.05-.03-.1-.06-.15-.09-.05-.03-.1-.06-.15-.09-.05-.03-.1-.06-.15-.09-.05-.03-.1-.06-.15-.09-.05-.03-.1-.06-.15-.09-.05-.03-.1-.06-.15-.09-.05-.03-.1-.06-.15-.09-.05-.03-.1-.06-.15-.09-.05-.03-.1-.06-.15-.09-.05-.03-.1-.06-.15-.09-.05-.03-.1-.06-.15-.09-.05-.03-.1-.06-.15-.09-.05-.03-.1-.06-.15-.09-.05-.03-.1-.06-.15-.09-.05-.03-.1-.06-.15-.09-.05-.03-.1-.06-.15-.09-.05-.03-.1-.06-.15-.09-.05-.03-.1-.06-.15-.09-.05-.03-.1-.06-.15-.09-.05-.03-.1-.06-.15-.09-.05-.03-.1-.06-.15-.09-.05-.03-.1-.06-.15-.09-.05-.03-.1-.06-.15-.09-.05-.03-.1-.06-.15-.09-.05-.03-.1-.06-.15-.09-.05-.03-.1-.06-.15-.09-.05-.03-.1-.06-.15-.09-.05-.03-.1-.06-.15-.09-.05-.03-.1-.06-.15-.09-.05-.03-.1-.06-.15-.09-.05-.03-.1-.06-.15-.09-.05-.03-.1-.06-.15-.09-.05-.03-.1-.06-.15-.09-.05-.03-.1-.06-.15-.09-.05-.03-.1-.06-.15-.09-.05-.03-.1-.06-.15-.09-.05-.03-.1-.06-.15-.09-.05-.03-.1-.06-.15-.09-.05-.03-.1-.06-.15-.09-.05-.03-.1-.06-.15-.09-.05-.03-.1-.06-.15-.09-.05-.03-.1-.06-.15-.09-.05-.03-.1-.06-.15-.09-.97-.61-2.21-.91-3.67-.71-5.41.74-5.29,7.73-1.67,9.88.05.03.1.06.15.09.05.03.1.06.15.09.05.03.1.06.15.09.05.03.1.06.15.09.05.03.1.06.15.09.05.03.1.06.15.09.05.03.1.06.15.09.05.03.1.06.15.09.05.03.1.06.15.09.05.03.1.06.15.09.05.03.1.06.15.09.05.03.1.06.15.09.05.03.1.06.15.09.05.03.1.06.15.09.05.03.1.06.15.09.05.03.1.06.15.09.05.03.1.06.15.09.05.03.1.06.15.09.05.03.1.06.15.09.05.03.1.06.15.09.05.03.1.06.15.09.05.03.1.06.15.09.05.03.1.06.15.09.05.03.1.06.15.09.05.03.1.06.15.09.05.03.1.06.15.09.05.03.1.06.15.09.05.03.1.06.15.09.05.03.1.06.15.09.05.03.1.06.15.09.05.03.1.06.15.09.05.03.1.06.15.09.05.03.1.06.15.09.05.03.1.06.15.09.05.03.1.06.15.09.05.03.1.06.15.09.05.03.1.06.15.09.05.03.1.06.15.09.05.03.1.06.15.09.05.03.1.06.15.09.05.03.1.06.15.09.05.03.1.06.15.09.05.03.1.06.15.09.05.03.1.06.15.09.05.03.1.06.15.09.05.03.1.06.15.09.05.03.1.06.15.09.05.03.1.06.15.09.05.03.1.06.15.09.05.03.1.06.15.09.05.03.1.06.15.09.05.03.1.06.15.09.05.03.1.06.15.09.05.03.1.06.15.09.05.03.1.06.15.09.05.03.1.06.15.09.05.03.1.06.15.09.05.03.1.06.15.09.05.03.1.06.15.09.05.03.1.06.15.09.05.03.1.06.15.09.05.03.1.06.15.09.05.03.1.06.15.09.05.03.1.06.15.09.05.03.1.06.15.09.05.03.1.06.15.09.05.03.1.06.15.09.05.03.1.06.15.09.04.03.09.06.13.08-1.86,2.8-1.23,7.2,1.71,9.12.05.03.1.06.15.09.05.03.1.06.15.09.05.03.1.06.15.09.05.03.1.06.15.09.05.03.1.06.15.09.05.03.1.06.15.09.05.03.1.06.15.09.05.03.1.06.15.09.05.03.1.06.15.09.05.03.1.06.15.09.05.03.1.06.15.09.05.03.1.06.15.09.05.03.1.06.15.09.05.03.1.06.15.09.05.03.1.06.15.09.05.03.1.06.15.09.05.03.1.06.15.09.05.03.1.06.15.09.05.03.1.06.15.09.05.03.1.06.15.09.05.03.1.06.15.09.05.03.1.06.15.09.05.03.1.06.15.09.05.03.1.06.15.09.05.03.1.06.15.09.05.03.1.06.15.09.05.03.1.06.15.09.05.03.1.06.15.09.05.03.1.06.15.09.05.03.1.06.15.09.05.03.1.06.15.09.05.03.1.06.15.09.05.03.1.06.15.09.05.03.1.06.15.09.05.03.1.06.15.09.05.03.1.06.15.09.05.03.1.06.15.09.05.03.1.06.15.09.05.03.1.06.15.09.05.03.1.06.15.09.05.03.1.06.15.09.05.03.1.06.15.09.05.03.1.06.15.09.05.03.1.06.15.09.05.03.1.06.15.09.05.03.1.06.15.09.05.03.1.06.15.09.05.03.1.06.15.09.05.03.1.06.15.09.05.03.1.06.15.09.05.03.1.06.15.09.05.03.1.06.15.09.05.03.1.06.15.09.05.03.1.06.15.09.05.03.1.06.15.09.05.03.1.06.15.09.05.03.1.06.15.09.03.02.06.04.09.06-5.45,0-11.1.46-16.42.17-5.55.46-6.62,7.33-2.37,9.75.05.03.1.06.15.09.05.03.1.06.15.09.05.03.1.06.15.09.05.03.1.06.15.09.05.03.1.06.15.09.05.03.1.06.15.09.05.03.1.06.15.09.05.03.1.06.15.09.05.03.1.06.15.09.05.03.09.06.14.09l-.04,33.49-32.5,45.9c-1.84,3.7-.93,8.86,2.52,10.93.05.03.1.06.15.09.05.03.1.06.15.09.05.03.1.06.15.09.05.03.1.06.15.09.05.03.1.06.15.09.05.03.1.06.15.09.05.03.1.06.15.09.05.03.1.06.15.09.05.03.1.06.15.09.05.03.1.06.15.09.05.03.1.06.15.09.05.03.1.06.15.09.05.03.1.06.15.09.05.03.1.06.15.09.05.03.1.06.15.09.05.03.1.06.15.09.05.03.1.06.15.09.05.03.1.06.15.09.05.03.1.06.15.09.05.03.1.06.15.09.05.03.1.06.15.09.05.03.1.06.15.09.05.03.1.06.15.09.05.03.1.06.15.09.05.03.1.06.15.09.05.03.1.06.15.09.05.03.1.06.15.09.05.03.1.06.15.09.05.03.1.06.15.09.05.03.1.06.15.09.05.03.1.06.15.09.05.03.1.06.15.09.05.03.1.06.15.09.05.03.1.06.15.09.05.03.1.06.15.09.05.03.1.06.15.09.05.03.1.06.15.09.05.03.1.06.15.09.05.03.1.06.15.09.05.03.1.06.15.09.05.03.1.06.15.09.05.03.1.06.15.09.05.03.1.06.15.09.05.03.1.06.15.09.05.03.1.06.15.09.05.03.1.06.15.09.05.03.1.06.15.09.05.03.1.06.15.09.05.03.1.06.15.09.05.03.1.06.15.09.05.03.1.06.15.09.05.03.1.06.15.09.05.03.1.06.15.09.05.03.1.06.15.09.05.03.1.06.15.09.05.03.1.06.15.09.05.03.1.06.15.09.05.03.1.06.15.09.05.03.1.06.15.09.05.03.1.06.15.09.05.03.1.06.15.09.05.03.1.06.15.09.05.03.1.06.15.09.05.03.1.06.15.09.05.03.1.06.15.09.05.03.1.06.15.09.05.03.1.06.15.09.05.03.1.06.15.09.05.03.1.06.15.09.05.03.1.06.15.09.05.03.1.06.15.09.05.03.1.06.15.09.05.03.1.06.15.09.05.03.1.06.15.09.05.03.1.06.15.09.05.03.1.06.15.09.05.03.1.06.15.09.05.03.1.06.15.09.05.03.1.06.15.09.05.03.1.06.15.09.05.03.1.06.15.09.05.03.1.06.15.09.05.03.1.06.15.09.05.03.1.06.15.09.05.03.1.06.15.09.05.03.1.06.15.09.05.03.1.06.15.09.05.03.1.06.15.09.8.51,1.74.86,2.83.97h77.99c5.63-.59,7.48-7.39,5.15-11.9ZM102.93,91.47s-.07-.04-.1-.06c-.05-.03-.1-.06-.15-.09-.05-.03-.1-.06-.15-.09-.05-.03-.1-.06-.15-.09-.05-.03-.1-.06-.15-.09-.05-.03-.1-.06-.15-.09-.05-.03-.1-.06-.15-.09-.05-.03-.1-.06-.15-.09-.05-.03-.1-.06-.15-.09-.05-.03-.1-.06-.15-.09-.05-.03-.1-.06-.15-.09-.05-.03-.1-.06-.15-.09-.05-.03-.1-.06-.15-.09-.05-.03-.1-.06-.15-.09-.05-.03-.1-.06-.15-.09-.05-.03-.1-.06-.15-.09-.05-.03-.1-.06-.15-.09-.05-.03-.1-.06-.15-.09-.05-.03-.1-.06-.15-.09-.05-.03-.1-.06-.15-.09-.01,0-.02-.02-.04-.03v-10.41h2.93v12.24ZM115.69,128.09c-1.03-.26-2.05-.63-3.07-1.04,1.3-1.09,2-2.7,2.13-4.37l3.92,5.51c-.12.57-2.51.01-2.98-.11ZM100.14,102.24s.1.06.15.09c.05.03.1.06.15.09.05.03.1.06.15.09.05.03.1.06.15.09.05.03.1.06.15.09.05.03.1.06.15.09.05.03.1.06.15.09.05.03.1.06.15.09.05.03.1.06.15.09.05.03.1.06.15.09.05.03.1.06.15.09.05.03.1.06.15.09.05.03.1.06.15.09.05.03.1.06.15.09.05.03.1.06.15.09.05.03.1.06.15.09.05.03.1.06.15.09.05.03.1.06.15.09.05.03.1.06.14.09v1.75c0,.24.56,1.11.73,1.38l5.7,8.02s-.07-.05-.11-.07c-.05-.03-.1-.06-.15-.09-.05-.03-.1-.06-.15-.09-.05-.03-.1-.06-.15-.09-.05-.03-.1-.06-.15-.09-.05-.03-.1-.06-.15-.09-.05-.03-.1-.06-.15-.09-.05-.03-.1-.06-.15-.09-.05-.03-.1-.06-.15-.09-.05-.03-.1-.06-.15-.09-.05-.03-.1-.06-.15-.09-.05-.03-.1-.06-.15-.09-.05-.03-.1-.06-.15-.09-.05-.03-.1-.06-.15-.09-.05-.03-.1-.06-.15-.09-.05-.03-.1-.06-.15-.09-.05-.03-.1-.06-.15-.09-.05-.03-.1-.06-.15-.09-.05-.03-.1-.06-.15-.09-.05-.03-.1-.06-.15-.09-.05-.03-.1-.06-.15-.09-.05-.03-.1-.06-.15-.09-.05-.03-.1-.06-.15-.09-.05-.03-.1-.06-.15-.09-.05-.03-.1-.06-.15-.09-.05-.03-.1-.06-.15-.09-.05-.03-.1-.06-.15-.09-.05-.03-.1-.06-.15-.09-.05-.03-.1-.06-.15-.09-.05-.03-.1-.06-.15-.09-.05-.03-.1-.06-.15-.09-.05-.03-.1-.06-.15-.09-.05-.03-.1-.06-.15-.09-.05-.03-.1-.06-.15-.09-.05-.03-.1-.06-.15-.09-.05-.03-.1-.06-.15-.09-.05-.03-.1-.06-.15-.09-.05-.03-.1-.06-.15-.09-.05-.03-.1-.06-.15-.09-.05-.03-.1-.06-.15-.09-.05-.03-.1-.06-.15-.09-.05-.03-.1-.06-.15-.09-.05-.03-.1-.06-.15-.09-.05-.03-.1-.06-.15-.09-.05-.03-.1-.06-.15-.09-.05-.03-.1-.06-.15-.09-.05-.03-.1-.06-.15-.09-.05-.03-.1-.06-.15-.09-.05-.03-.1-.06-.15-.09-.05-.03-.1-.06-.15-.09-.05-.03-.1-.06-.15-.09-.05-.03-.1-.06-.15-.09-.05-.03-.1-.06-.15-.09-.05-.03-.1-.06-.15-.09-.05-.03-.1-.06-.15-.09-.05-.03-.1-.06-.15-.09-.05-.03-.1-.06-.15-.09-.05-.03-.1-.06-.15-.09-.05-.03-.1-.06-.15-.09-.05-.03-.1-.06-.15-.09-.05-.03-.1-.06-.15-.09-.05-.03-.1-.06-.15-.09-.05-.03-.1-.06-.15-.09-.05-.03-.09-.06-.14-.09v-7.15s.1.06.14.09ZM102.89,152.13s-.1-.06-.15-.09c-.05-.03-.1-.06-.15-.09-.05-.03-.1-.06-.15-.09-.05-.03-.1-.06-.15-.09-.05-.03-.1-.06-.15-.09-.05-.03-.1-.06-.15-.09-.05-.03-.1-.06-.15-.09-.05-.03-.1-.06-.15-.09-.05-.03-.1-.06-.15-.09-.05-.03-.1-.06-.15-.09-.05-.03-.1-.06-.15-.09-.05-.03-.1-.06-.15-.09-.05-.03-.1-.06-.15-.09-.05-.03-.1-.06-.15-.09-.05-.03-.1-.06-.15-.09-.05-.03-.1-.06-.15-.09-.05-.03-.1-.06-.15-.09-.05-.03-.1-.06-.15-.09-.05-.03-.1-.06-.15-.09-.05-.03-.1-.06-.15-.09-.05-.03-.1-.06-.15-.09-.05-.03-.1-.06-.15-.09-.05-.03-.1-.06-.15-.09-.05-.03-.1-.06-.15-.09-.05-.03-.1-.06-.15-.09-.05-.03-.1-.06-.15-.09-.05-.03-.1-.06-.15-.09-.05-.03-.1-.06-.15-.09-.05-.03-.1-.06-.15-.09-.05-.03-.1-.06-.15-.09-.05-.03-.1-.06-.15-.09-.05-.03-.1-.06-.15-.09-.05-.03-.1-.06-.15-.09-.05-.03-.1-.06-.15-.09-.05-.03-.1-.06-.15-.09-.05-.03-.1-.06-.15-.09-.05-.03-.1-.06-.15-.09-.05-.03-.1-.06-.15-.09-.05-.03-.1-.06-.15-.09-.05-.03-.1-.06-.15-.09-.05-.03-.1-.06-.15-.09-.05-.03-.1-.06-.15-.09-.05-.03-.1-.06-.15-.09-.05-.03-.1-.06-.15-.09-.05-.03-.1-.06-.15-.09-.05-.03-.1-.06-.15-.09-.05-.03-.1-.06-.15-.09-.05-.03-.1-.06-.15-.09-.05-.03-.1-.06-.15-.09-.05-.03-.1-.06-.15-.09-.05-.03-.1-.06-.15-.09-.05-.03-.1-.06-.15-.09-.05-.03-.1-.06-.15-.09-.05-.03-.1-.06-.15-.09-.05-.03-.1-.06-.15-.09-.05-.03-.1-.06-.15-.09-.05-.03-.1-.06-.15-.09-.05-.03-.1-.06-.15-.09-.05-.03-.1-.06-.15-.09-.05-.03-.1-.06-.15-.09-.05-.03-.1-.06-.15-.09-.05-.03-.1-.06-.15-.09-.05-.03-.1-.06-.15-.09-.05-.03-.1-.06-.15-.09-.05-.03-.1-.06-.15-.09-.05-.03-.1-.06-.15-.09-.05-.03-.1-.06-.15-.09-.05-.03-.1-.06-.15-.09-.05-.03-.1-.06-.15-.09-.05-.03-.1-.06-.15-.09-.05-.03-.1-.06-.15-.09-.05-.03-.1-.06-.15-.09-.05-.03-.1-.06-.15-.09-.05-.03-.1-.06-.15-.09-.05-.03-.1-.06-.15-.09-.05-.03-.1-.06-.15-.09-.05-.03-.1-.06-.15-.09-.05-.03-.1-.06-.15-.09-.05-.03-.1-.06-.15-.09-.05-.03-.1-.06-.15-.09-.04-.02-.07-.05-.11-.07-.51-.86-1.22-1.6-2.13-2.11-.05-.03-.1-.06-.15-.09-.05-.03-.1-.06-.15-.09-.05-.03-.1-.06-.15-.09-.05-.03-.1-.06-.15-.09-.05-.03-.1-.06-.15-.09-.05-.03-.1-.06-.15-.09-.05-.03-.1-.06-.15-.09-.05-.03-.1-.06-.15-.09-.05-.03-.1-.06-.15-.09-.05-.03-.1-.06-.15-.09-.05-.03-.1-.06-.15-.09-.05-.03-.1-.06-.15-.09-.05-.03-.1-.06-.15-.09-.05-.03-.1-.06-.15-.09-.05-.03-.1-.06-.15-.09-.05-.03-.1-.06-.15-.09-.05-.03-.1-.06-.15-.09-.05-.03-.1-.06-.15-.09-.05-.03-.1-.06-.15-.09-.05-.03-.1-.06-.15-.09-.05-.03-.1-.06-.15-.09-.05-.03-.1-.06-.15-.09-.05-.03-.1-.06-.15-.09-.05-.03-.1-.06-.15-.09-.05-.03-.1-.06-.15-.09-.05-.03-.1-.06-.15-.09-.05-.03-.1-.06-.15-.09-.05-.03-.1-.06-.15-.09-.05-.03-.1-.06-.15-.09-.05-.03-.1-.06-.15-.09-.05-.03-.1-.06-.15-.09-.05-.03-.1-.06-.15-.09-.05-.03-.1-.06-.15-.09-.05-.03-.1-.06-.15-.09-.05-.03-.1-.06-.15-.09-.05-.03-.1-.06-.15-.09-.05-.03-.1-.06-.15-.09-.05-.03-.1-.06-.15-.09-.05-.03-.1-.06-.15-.09-.05-.03-.1-.06-.15-.09-.05-.03-.1-.06-.15-.09-.05-.03-.1-.06-.15-.09-.04-.03-.08-.06-.13-.08l2.23-3.13s0,0,.01,0c.05.03.1.06.15.09.05.03.1.06.15.09.05.03.1.06.15.09.05.03.1.06.15.09.05.03.1.06.15.09.05.03.1.06.15.09.05.03.1.06.15.09.05.03.1.06.15.09.05.03.1.06.15.09.05.03.1.06.15.09.05.03.1.06.15.09.05.03.1.06.15.09.05.03.1.06.15.09.05.03.1.06.15.09.05.03.1.06.15.09.05.03.1.06.15.09.05.03.1.06.15.09.05.03.1.06.15.09.05.03.1.06.15.09.05.03.1.06.15.09.05.03.1.06.15.09.05.03.1.06.15.09.05.03.1.06.15.09.05.03.1.06.15.09.05.03.1.06.15.09.05.03.1.06.15.09.05.03.1.06.15.09.05.03.1.06.15.09.05.03.1.06.15.09.05.03.1.06.15.09.05.03.1.06.15.09.05.03.1.06.15.09.05.03.1.06.15.09.05.03.1.06.15.09.05.03.1.06.15.09.05.03.1.06.15.09.05.03.1.06.15.09.05.03.1.06.15.09.05.03.1.06.15.09.05.03.1.06.15.09.05.03.1.06.15.09.05.03.1.06.15.09.05.03.1.06.15.09.05.03.1.06.15.09,1.19.74,2.44,1.34,3.71,1.72.5.89,1.2,1.66,2.12,2.19.05.03.1.06.15.09.05.03.1.06.15.09.05.03.1.06.15.09.05.03.1.06.15.09.05.03.1.06.15.09.05.03.1.06.15.09.05.03.1.06.15.09.05.03.1.06.15.09.05.03.1.06.15.09.05.03.1.06.15.09.05.03.1.06.15.09.05.03.1.06.15.09.05.03.1.06.15.09.05.03.1.06.15.09.05.03.1.06.15.09.05.03.1.06.15.09.05.03.1.06.15.09.05.03.1.06.15.09.05.03.1.06.15.09.05.03.1.06.15.09.05.03.1.06.15.09.05.03.1.06.15.09.05.03.1.06.15.09.05.03.1.06.15.09.05.03.1.06.15.09.05.03.1.06.15.09.05.03.1.06.15.09.05.03.1.06.15.09.05.03.1.06.15.09.05.03.1.06.15.09.05.03.1.06.15.09.05.03.1.06.15.09.05.03.1.06.15.09.05.03.1.06.15.09.05.03.1.06.15.09.05.03.1.06.15.09.05.03.1.06.15.09.05.03.1.06.15.09.05.03.1.06.15.09.05.03.1.06.15.09.05.03.1.06.15.09.05.03.1.06.15.09.05.03.1.06.15.09.05.03.1.06.15.09.05.03.1.06.15.09.05.03.1.06.15.09.05.03.1.06.15.09.05.03.1.06.15.09.05.03.1.06.15.09.05.03.1.06.15.09.05.03.1.06.15.09.05.03.1.06.15.09.05.03.1.06.15.09.05.03.1.06.15.09.05.03.1.06.15.09.05.03.1.06.15.09.05.03.1.06.15.09.05.03.1.06.15.09.05.03.1.06.15.09.05.03.1.06.15.09.05.03.1.06.15.09.05.03.1.06.15.09.05.03.1.06.15.09.05.03.1.06.15.09.05.03.1.06.15.09.05.03.1.06.15.09.05.03.1.06.15.09.05.03.1.06.15.09.05.03.1.06.15.09.05.03.1.06.15.09.05.03.1.06.15.09.05.03.1.06.15.09.05.03.1.06.15.09.05.03.1.06.15.09.05.03.09.06.14.09.33,1.76,1.33,3.38,2.93,4.29.05.03.1.06.15.09.05.03.1.06.15.09.05.03.1.06.15.09.05.03.1.06.15.09.05.03.1.06.15.09.05.03.1.06.15.09.05.03.1.06.15.09.05.03.1.06.15.09.05.03.1.06.15.09.05.03.1.06.15.09.05.03.1.06.15.09.05.03.1.06.15.09.05.03.1.06.15.09.05.03.1.06.15.09.05.03.1.06.15.09.05.03.1.06.15.09.05.03.1.06.15.09.05.03.1.06.15.09.05.03.1.06.15.09.05.03.1.06.15.09.05.03.1.06.15.09.05.03.1.06.15.09.05.03.1.06.15.09.05.03.1.06.15.09.05.03.1.06.15.09.05.03.1.06.15.09.05.03.1.06.15.09.05.03.1.06.15.09.05.03.1.06.15.09.05.03.1.06.15.09.05.03.1.06.15.09.05.03.1.06.15.09.05.03.1.06.15.09.05.03.1.06.15.09.05.03.1.06.15.09.05.03.1.06.15.09.05.03.1.06.15.09.05.03.1.06.15.09.05.03.1.06.15.09.05.03.1.06.15.09.05.03.1.06.15.09.05.03.1.06.15.09.05.03.1.06.15.09.05.03.1.06.15.09.05.03.1.06.15.09.05.03.1.06.15.09,0,0,0,0,0,0-4.04.01-8.07.02-12.11.03.44-2.56-.53-5.42-2.83-6.78ZM95.12,121.18s.1.06.15.09c.05.03.1.06.15.09.05.03.1.06.15.09.05.03.1.06.15.09.05.03.1.06.15.09.05.03.1.06.15.09.05.03.1.06.15.09.05.03.1.06.15.09.05.03.1.06.15.09.05.03.1.06.15.09.05.03.1.06.15.09.05.03.1.06.15.09.05.03.1.06.15.09.05.03.1.06.15.09.05.03.1.06.15.09.05.03.1.06.15.09.05.03.1.06.15.09.05.03.1.06.15.09.05.03.1.06.15.09.05.03.1.06.15.09.05.03.1.06.15.09.05.03.1.06.15.09.05.03.1.06.15.09.05.03.1.06.15.09.05.03.1.06.15.09.05.03.1.06.15.09.05.03.1.06.15.09.05.03.1.06.15.09.03.02.07.04.1.06-2.57.08-5.12.76-7.75,2.28l3.49-4.93s.03.02.04.02ZM133.26,158.81c.56-2.66-.47-5.71-2.93-7.08-.05-.03-.1-.06-.15-.09-.05-.03-.1-.06-.15-.09-.05-.03-.1-.06-.15-.09-.05-.03-.1-.06-.15-.09-.05-.03-.1-.06-.15-.09-.05-.03-.1-.06-.15-.09-.05-.03-.1-.06-.15-.09-.05-.03-.1-.06-.15-.09-.05-.03-.1-.06-.15-.09-.05-.03-.1-.06-.15-.09-.05-.03-.1-.06-.15-.09-.05-.03-.1-.06-.15-.09-.05-.03-.1-.06-.15-.09-.05-.03-.1-.06-.15-.09-.05-.03-.1-.06-.15-.09-.05-.03-.1-.06-.15-.09-.05-.03-.1-.06-.15-.09-.05-.03-.1-.06-.15-.09-.05-.03-.1-.06-.15-.09-.05-.03-.1-.06-.15-.09-.05-.03-.1-.06-.15-.09-.05-.03-.1-.06-.15-.09-.05-.03-.1-.06-.15-.09-.05-.03-.1-.06-.15-.09-.05-.03-.1-.06-.15-.09-.05-.03-.1-.06-.15-.09-.05-.03-.1-.06-.15-.09-.05-.03-.1-.06-.15-.09-.05-.03-.1-.06-.15-.09-.05-.03-.1-.06-.15-.09-.05-.03-.1-.06-.15-.09-.05-.03-.1-.06-.15-.09-.05-.03-.1-.06-.15-.09-.05-.03-.1-.06-.15-.09-.05-.03-.1-.06-.15-.09-.05-.03-.1-.06-.15-.09-.05-.03-.1-.06-.15-.09-.05-.03-.1-.06-.15-.09-.05-.03-.1-.06-.15-.09-.05-.03-.1-.06-.15-.09-.05-.03-.1-.06-.15-.09-.05-.03-.1-.06-.15-.09-.05-.03-.1-.06-.15-.09-.05-.03-.1-.06-.15-.09-.05-.03-.1-.06-.15-.09-.05-.03-.1-.06-.15-.09-.05-.03-.1-.06-.15-.09-.05-.03-.1-.06-.15-.09-.05-.03-.1-.06-.15-.09-.05-.03-.1-.06-.15-.09-.05-.03-.1-.06-.15-.09-.05-.03-.1-.06-.15-.09-.05-.03-.1-.06-.15-.09-.05-.03-.1-.06-.15-.09-.05-.03-.1-.06-.15-.09-.05-.03-.1-.06-.15-.09-.05-.03-.1-.06-.15-.09-.05-.03-.1-.06-.15-.09-.05-.03-.1-.06-.15-.09-.05-.03-.1-.06-.15-.09-.05-.03-.1-.06-.15-.09-.05-.03-.1-.06-.15-.09-.05-.03-.1-.06-.15-.09-.05-.03-.1-.06-.15-.09-.05-.03-.1-.06-.15-.09-.05-.03-.1-.06-.15-.09-.05-.03-.1-.06-.15-.09-.05-.03-.1-.06-.15-.09-.05-.03-.1-.06-.15-.09-.05-.03-.1-.06-.15-.09-.05-.03-.1-.06-.15-.09-.05-.03-.1-.06-.15-.09-.05-.03-.1-.06-.15-.09-.05-.03-.1-.06-.15-.09-.01,0-.03-.02-.04-.03-.31-1.64-1.19-3.15-2.62-4.09-.05-.03-.1-.06-.15-.09-.05-.03-.1-.06-.15-.09-.05-.03-.1-.06-.15-.09-.05-.03-.1-.06-.15-.09-.05-.03-.1-.06-.15-.09-.05-.03-.1-.06-.15-.09-.05-.03-.1-.06-.15-.09-.05-.03-.1-.06-.15-.09-.05-.03-.1-.06-.15-.09-.05-.03-.1-.06-.15-.09-.05-.03-.1-.06-.15-.09-.05-.03-.1-.06-.15-.09-.05-.03-.1-.06-.15-.09-.05-.03-.1-.06-.15-.09-.05-.03-.1-.06-.15-.09-.05-.03-.1-.06-.15-.09-.05-.03-.1-.06-.15-.09-.05-.03-.1-.06-.15-.09-.05-.03-.1-.06-.15-.09-.05-.03-.1-.06-.15-.09-.05-.03-.1-.06-.15-.09-.05-.03-.1-.06-.15-.09-.05-.03-.1-.06-.15-.09-.05-.03-.1-.06-.15-.09-.05-.03-.1-.06-.15-.09-.05-.03-.1-.06-.15-.09-.05-.03-.1-.06-.15-.09-.05-.03-.1-.06-.15-.09-.05-.03-.1-.06-.15-.09-.05-.03-.1-.06-.15-.09-.05-.03-.1-.06-.15-.09-.05-.03-.1-.06-.15-.09-.05-.03-.1-.06-.15-.09-.05-.03-.1-.06-.15-.09-.05-.03-.1-.06-.15-.09-.05-.03-.1-.06-.15-.09-.05-.03-.1-.06-.15-.09-.05-.03-.1-.06-.15-.09-.05-.03-.1-.06-.15-.09-.05-.03-.1-.06-.15-.09-.05-.03-.1-.06-.15-.09-.05-.03-.1-.06-.15-.09-.05-.03-.1-.06-.15-.09-.05-.03-.1-.06-.15-.09-.05-.03-.1-.06-.15-.09-.05-.03-.1-.06-.15-.09-.05-.03-.1-.06-.15-.09-.05-.03-.1-.06-.15-.09-.05-.03-.1-.06-.15-.09-.05-.03-.1-.06-.15-.09-.05-.03-.1-.06-.15-.09-.02-.01-.04-.02-.06-.04,1.96-.71,4.12-.83,7.23-.25,3.05.58,6.8,2.47,10.25,3.55l9.21,13.08c.95,2.02.6,5.33-1.69,6.28-.33,0-.65,0-.98,0ZM75.32,149.1s.1.06.15.09c.05.03.1.06.15.09.05.03.1.06.15.09.05.03.1.06.15.09.05.03.1.06.15.09.05.03.1.06.15.09.05.03.1.06.15.09.05.03.1.06.15.09.05.03.1.06.15.09.05.03.1.06.15.09.05.03.1.06.15.09.05.03.1.06.15.09.05.03.1.06.15.09.05.03.1.06.15.09.05.03.1.06.15.09.05.03.1.06.15.09.05.03.1.06.15.09.05.03.1.06.15.09.05.03.1.06.15.09.05.03.1.06.15.09.05.03.1.06.15.09.05.03.1.06.15.09.05.03.1.06.15.09.05.03.1.06.15.09.05.03.1.06.15.09.05.03.1.06.15.09.05.03.1.06.15.09.05.03.1.06.15.09.05.03.1.06.15.09.05.03.1.06.15.09.05.03.1.06.15.09.05.03.1.06.15.09.05.03.1.06.15.09.05.03.1.06.15.09.05.03.1.06.15.09.05.03.1.06.15.09.05.03.1.06.15.09.05.03.1.06.15.09.05.03.1.06.15.09.05.03.1.06.15.09.04.03.08.06.13.08.51.86,1.22,1.6,2.14,2.12.05.03.1.06.15.09.05.03.1.06.15.09.05.03.1.06.15.09.05.03.1.06.15.09.05.03.1.06.15.09.05.03.1.06.15.09.05.03.1.06.15.09.05.03.1.06.15.09.05.03.1.06.15.09.05.03.1.06.15.09.05.03.1.06.15.09.05.03.1.06.15.09.05.03.1.06.15.09.05.03.1.06.15.09.05.03.1.06.15.09.05.03.1.06.15.09.05.03.1.06.15.09.05.03.1.06.15.09.05.03.1.06.15.09.05.03.1.06.15.09.05.03.1.06.15.09.05.03.1.06.15.09.05.03.1.06.15.09.05.03.1.06.15.09.05.03.1.06.15.09.05.03.1.06.15.09.05.03.1.06.15.09.05.03.1.06.15.09.05.03.1.06.15.09.05.03.1.06.15.09.05.03.1.06.15.09.05.03.1.06.15.09.05.03.1.06.15.09.05.03.1.06.15.09.05.03.1.06.15.09.05.03.1.06.15.09.05.03.1.06.15.09.05.03.1.06.15.09.05.03.1.06.15.09.05.03.1.06.15.09.05.03.1.06.15.09.05.03.1.06.15.09.05.03.1.06.15.09.02.01.03.02.05.03-7.2,0-14.4-.03-21.59-.07l6.98-9.81s.06.04.09.06Z"/>
  <g id="nMSXPz.tif">
    <g>
      <path class="cls-2" d="M107.14,72.03l.05,33.99,32.42,45.7c2.33,4.52.48,11.32-5.15,11.9H56.47c-5.59-.58-7.45-7.29-5.2-11.81l32.5-45.9.04-33.81c-5.88-1.54-5.21-9.83.91-10.34,6.95.39,14.47-.52,21.36,0,6.21.47,7.02,8.75,1.06,10.28ZM84.61,65.45c-1.52.44-1.69,2.16-.35,2.95h22.41c1.45-.83,1.1-2.78-.59-2.99l-21.47.04ZM103.47,72.16h-16.02v34.63c0,.24-.56,1.11-.73,1.38l-11.78,16.61.02.18c2.63,1.71,4.53,4.26,7.53,5.46,4.91,1.98,5.76-.98,9.32-3.12,5.92-3.55,11.39-2.8,17.62-.65,2.23.77,4.5,1.92,6.78,2.49.47.12,2.86.68,2.98.11l-15.01-21.1c-.16-.27-.73-1.14-.73-1.38v-34.63ZM121.58,132.45c-.88.17-1.67.6-2.58.68-4.36.38-10.5-3.45-15.07-4.31-6.26-1.19-8.68.53-13.31,4.03-4.76,3.6-10.03,1.36-14.18-1.97-.62-.49-3.17-3.11-3.78-2.93l-18.05,25.37c-1.11,2.07-.87,5.39,1.44,6.51,26.21.25,52.51.17,78.73.04,2.29-.95,2.64-4.27,1.69-6.28l-14.9-21.14Z"/>
      <path class="cls-2" d="M94.87,44.8c9.32-1.34,9.86,12.39,1.22,12.47-7.66.07-8.36-11.44-1.22-12.47ZM95.99,48.31c-3.32.11-3.32,5.19-.03,5.31,3.53.12,3.59-5.43.03-5.31Z"/>
      <path class="cls-2" d="M82.5,31.03c6.44-.88,8.5,7.92,2.9,10.06-7.53,2.87-10.07-9.08-2.9-10.06ZM82.92,34.68c-1.78.41-1.29,3.64.89,3.14,1.93-.44,1.55-3.71-.89-3.14Z"/>
      <path class="cls-2" d="M99.79,132.89c8.71-1.18,9.85,11.7,1.63,12.45-8.12.74-9.22-11.42-1.63-12.45ZM100.2,136.54c-2.63.45-2.66,4.68.14,5.13,3.96.64,4.25-5.88-.14-5.13Z"/>
      <path class="cls-2" d="M86.58,144.28c8.16-.7,9.12,11.55,1.49,12.45-8.73,1.03-9.69-11.74-1.49-12.45ZM86.72,147.92c-1.91.3-2.86,2.57-1.71,4.17.8,1.11,2.56,1.37,3.64.57,2.21-1.62.8-5.17-1.93-4.74Z"/>
      <path class="cls-2" d="M72.39,134.86c8.46-1.01,9.57,11.57,1.63,12.45-8.34.92-9.53-11.5-1.63-12.45ZM72.67,138.51c-2.7.47-2.69,4.66,0,5.13,4.19.72,4.16-5.85,0-5.13Z"/>
      <path class="cls-2" d="M113.83,143.99c8.42-1.08,9.67,11.56,1.64,12.45s-9.53-11.44-1.64-12.45ZM114.11,147.64c-.87.15-1.69,1.03-1.92,1.87-.78,2.83,3.03,4.62,4.69,2.16,1.36-2.01-.4-4.43-2.77-4.03Z"/>
      <path class="cls-2" d="M95.01,108.87c9.1-1.23,9.7,12.28,1.22,12.47-7.77.18-8.63-11.47-1.22-12.47ZM95.29,112.52c-.8.16-1.67,1.23-1.78,2.02-.41,2.95,3.13,4.27,4.68,2.02,1.48-2.13-.4-4.55-2.91-4.03Z"/>
      <path class="cls-2" d="M94.73,88.78c7.41-1.01,8.15,9.38,2.04,10.33-7.51,1.17-8.38-9.46-2.04-10.33ZM95.67,92.32c-2.73,0-1.55,4.41.82,3,1.48-.88.78-3-.82-3Z"/>
    </g>
  </g>
</svg>