<?xml version="1.0" encoding="UTF-8"?>
<svg id="Layer_1" data-name="Layer 1" xmlns="http://www.w3.org/2000/svg" viewBox="0 0 200 200">
  <defs>
    <style>
      .cls-1 {
        fill: #b3b3b3;
      }

      .cls-2 {
        fill: #fff;
      }
    </style>
  </defs>
  <g>
    <path class="cls-1" d="M74.67,84.51c-.86-1.68-2.09-3.19-3.54-4.54-.02-.02-.04-.04-.06-.06-.02-.02-.04-.04-.06-.06-.02-.02-.04-.04-.06-.06-.02-.02-.04-.04-.06-.06-.02-.02-.04-.04-.06-.06-.02-.02-.04-.04-.06-.06-.02-.02-.04-.04-.06-.06-.02-.02-.04-.04-.06-.06-.02-.02-.04-.04-.06-.06-.02-.02-.04-.04-.06-.06-.02-.02-.04-.04-.06-.06-.02-.02-.04-.04-.06-.06-.02-.02-.04-.04-.06-.06-.02-.02-.04-.04-.06-.06-.02-.02-.04-.04-.06-.06-.02-.02-.04-.04-.06-.06-.02-.02-.04-.04-.06-.06-.02-.02-.04-.04-.06-.06-.02-.02-.04-.04-.06-.06-.02-.02-.04-.04-.06-.06-.02-.02-.04-.04-.06-.06-.02-.02-.04-.04-.06-.06-.02-.02-.04-.04-.06-.06-.02-.02-.04-.04-.06-.06-.02-.02-.04-.04-.06-.06-.02-.02-.04-.04-.06-.06-.02-.02-.04-.04-.06-.06-.02-.02-.04-.04-.06-.06-.02-.02-.04-.04-.06-.06-.02-.02-.04-.04-.06-.06-.02-.02-.04-.04-.06-.06-.02-.02-.04-.04-.06-.06-.02-.02-.04-.04-.06-.06-.02-.02-.04-.04-.06-.06-.02-.02-.04-.04-.06-.06-.02-.02-.04-.04-.06-.06-.02-.02-.04-.04-.06-.06-.02-.02-.04-.04-.06-.06-.02-.02-.04-.04-.06-.06-.02-.02-.04-.04-.06-.06-.02-.02-.04-.04-.06-.06-.02-.02-.04-.04-.06-.06-.02-.02-.04-.04-.06-.06-.02-.02-.04-.04-.06-.06-.02-.02-.04-.04-.06-.06-.02-.02-.04-.04-.06-.06-.02-.02-.04-.04-.06-.06-.02-.02-.04-.04-.06-.06-.02-.02-.04-.04-.06-.06-.02-.02-.04-.04-.06-.06-.02-.02-.04-.04-.06-.06-.02-.02-.04-.04-.06-.06-.02-.02-.04-.04-.06-.06-.02-.02-.04-.04-.06-.06-.02-.02-.04-.04-.06-.06-.02-.02-.04-.04-.06-.06-.02-.02-.04-.04-.06-.06-.02-.02-.04-.04-.06-.06-.02-.02-.04-.04-.06-.06-.02-.02-.04-.04-.06-.06-.02-.02-.04-.04-.06-.06-.02-.02-.04-.04-.06-.06-.02-.02-.04-.04-.06-.06-.02-.02-.04-.04-.06-.06-.02-.02-.04-.04-.06-.06-.02-.02-.04-.04-.06-.06-.02-.02-.04-.04-.06-.06-.02-.02-.04-.04-.06-.06-.02-.02-.04-.04-.06-.06-.02-.02-.04-.04-.06-.06-.02-.02-.04-.04-.06-.06-.02-.02-.04-.04-.06-.06-.02-.02-.04-.04-.06-.06-.02-.02-.04-.04-.06-.06-.02-.02-.04-.04-.06-.06-.02-.02-.04-.04-.06-.06-.02-.02-.04-.04-.06-.06-.02-.02-.04-.04-.06-.06-.02-.02-.04-.04-.06-.06-.02-.02-.04-.04-.06-.06-.02-.02-.04-.04-.06-.06-.02-.02-.04-.04-.06-.06-.02-.02-.04-.04-.06-.06-.02-.02-.04-.04-.06-.06-.02-.02-.04-.04-.06-.06-.02-.02-.04-.04-.06-.06-.02-.02-.04-.04-.06-.06-.02-.02-.04-.04-.06-.06-1.86-1.74-4.11-3.2-6.46-4.35,3.54-5.18,10.81-14.02,6.9-17.36-.02-.02-.04-.04-.06-.06-.02-.02-.04-.04-.06-.06-.02-.02-.04-.04-.06-.06-.02-.02-.04-.04-.06-.06-.02-.02-.04-.04-.06-.06-.02-.02-.04-.04-.06-.06-.02-.02-.04-.04-.06-.06-.02-.02-.04-.04-.06-.06-.02-.02-.04-.04-.06-.06-.02-.02-.04-.04-.06-.06-.02-.02-.04-.04-.06-.06-.02-.02-.04-.04-.06-.06-.02-.02-.04-.04-.06-.06-.02-.02-.04-.04-.06-.06-.02-.02-.04-.04-.06-.06-.02-.02-.04-.04-.06-.06-.02-.02-.04-.04-.06-.06-.02-.02-.04-.04-.06-.06-.02-.02-.04-.04-.06-.06-.02-.02-.04-.04-.06-.06-.02-.02-.04-.04-.06-.06-.02-.02-.04-.04-.06-.06-.02-.02-.04-.04-.06-.06-.02-.02-.04-.04-.06-.06-.02-.02-.04-.04-.06-.06-.02-.02-.04-.04-.06-.06-.02-.02-.04-.04-.06-.06-.02-.02-.04-.04-.06-.06-.02-.02-.04-.04-.06-.06-.02-.02-.04-.04-.06-.06-.02-.02-.04-.04-.06-.06-.02-.02-.04-.04-.06-.06-.02-.02-.04-.04-.06-.06-.02-.02-.04-.04-.06-.06-.02-.02-.04-.04-.06-.06-.02-.02-.04-.04-.06-.06-.02-.02-.04-.04-.06-.06-.02-.02-.04-.04-.06-.06-.02-.02-.04-.04-.06-.06-.02-.02-.04-.04-.06-.06-.02-.02-.04-.04-.06-.06-.02-.02-.04-.04-.06-.06-.02-.02-.04-.04-.06-.06-.02-.02-.04-.04-.06-.06-.02-.02-.04-.04-.06-.06-.02-.02-.04-.04-.06-.06-.02-.02-.04-.04-.06-.06-.02-.02-.04-.04-.06-.06-.02-.02-.04-.04-.06-.06-.02-.02-.04-.04-.06-.06-.02-.02-.04-.04-.06-.06-.02-.02-.04-.04-.06-.06-.02-.02-.04-.04-.06-.06-.02-.02-.04-.04-.06-.06-.02-.02-.04-.04-.06-.06-.02-.02-.04-.04-.06-.06-.02-.02-.04-.04-.06-.06-.02-.02-.04-.04-.06-.06-.02-.02-.04-.04-.06-.06-.02-.02-.04-.04-.06-.06-.02-.02-.04-.04-.06-.06-.02-.02-.04-.04-.06-.06-.02-.02-.04-.04-.06-.06-.02-.02-.04-.04-.06-.06-.02-.02-.04-.04-.06-.06-.02-.02-.04-.04-.06-.06-.02-.02-.04-.04-.06-.06-.02-.02-.04-.04-.06-.06-.02-.02-.04-.04-.06-.06-.02-.02-.04-.04-.06-.06-.02-.02-.04-.04-.06-.06-.02-.02-.04-.04-.06-.06-.02-.02-.04-.04-.06-.06-.02-.02-.04-.04-.06-.06-.02-.02-.04-.04-.06-.06-.02-.02-.04-.04-.06-.06-.02-.02-.04-.04-.06-.06-.02-.02-.04-.04-.06-.06-.02-.02-.04-.04-.06-.06-.02-.02-.04-.04-.06-.06-.02-.02-.04-.04-.06-.06-.02-.02-.04-.04-.06-.06-.02-.02-.04-.04-.06-.06-.02-.02-.04-.04-.06-.06-.02-.02-.04-.04-.06-.06-.02-.02-.04-.04-.06-.06-.02-.02-.04-.04-.06-.06-.02-.02-.04-.04-.06-.06-.76-.68-1.97-1.15-3.76-1.32-10.09-.94-21.78.42-32.22-.31-1.64-.11-3.29.41-4.5,1.53-5.48,5.12,5.01,15.22,8.04,20.2-9.3,3.57-19.07,8.72-19.88,19.83-1.09,15,1.57,31.3.47,46.48.34,2.88,3.35,6.8,6.86,10.04.02.02.04.04.06.06.02.02.04.04.06.06.02.02.04.04.06.06.02.02.04.04.06.06.02.02.04.04.06.06.02.02.04.04.06.06.02.02.04.04.06.06.02.02.04.04.06.06.02.02.04.04.06.06.02.02.04.04.06.06.02.02.04.04.06.06.02.02.04.04.06.06.02.02.04.04.06.06.02.02.04.04.06.06.02.02.04.04.06.06.02.02.04.04.06.06.02.02.04.04.06.06.02.02.04.04.06.06.02.02.04.04.06.06.02.02.04.04.06.06.02.02.04.04.06.06.02.02.04.04.06.06.02.02.04.04.06.06.02.02.04.04.06.06.02.02.04.04.06.06.02.02.04.04.06.06.02.02.04.04.06.06.02.02.04.04.06.06.02.02.04.04.06.06.02.02.04.04.06.06.02.02.04.04.06.06.02.02.04.04.06.06.02.02.04.04.06.06.02.02.04.04.06.06.02.02.04.04.06.06.02.02.04.04.06.06.02.02.04.04.06.06.02.02.04.04.06.06.02.02.04.04.06.06.02.02.04.04.06.06.02.02.04.04.06.06.02.02.04.04.06.06.02.02.04.04.06.06.02.02.04.04.06.06.02.02.04.04.06.06.02.02.04.04.06.06.02.02.04.04.06.06.02.02.04.04.06.06.02.02.04.04.06.06.02.02.04.04.06.06.02.02.04.04.06.06.02.02.04.04.06.06.02.02.04.04.06.06.02.02.04.04.06.06.02.02.04.04.06.06.02.02.04.04.06.06.02.02.04.04.06.06.02.02.04.04.06.06.02.02.04.04.06.06.02.02.04.04.06.06.02.02.04.04.06.06.02.02.04.04.06.06.02.02.04.04.06.06.02.02.04.04.06.06.02.02.04.04.06.06.02.02.04.04.06.06.02.02.04.04.06.06.02.02.04.04.06.06.02.02.04.04.06.06.02.02.04.04.06.06.02.02.04.04.06.06.02.02.04.04.06.06.02.02.04.04.06.06.02.02.04.04.06.06.02.02.04.04.06.06.02.02.04.04.06.06.02.02.04.04.06.06.02.02.04.04.06.06.02.02.04.04.06.06.02.02.04.04.06.06.02.02.04.04.06.06.02.02.04.04.06.06.02.02.04.04.06.06.02.02.04.04.06.06.02.02.04.04.06.06.02.02.04.04.06.06.02.02.04.04.06.06.02.02.04.04.06.06,3.11,2.88,6.61,5.22,8.99,5.82,4.3,1.08,12.18-2.59,17.34-2.44,3.8.11,10.03,3.7,13.07,2.63.73-.26,1.77-.91,2.33-1.33,4.87-3.62,12.57-8.23,12.82-15.15.36-9.77-.1-19.86.03-29.74.09-7.17,2.14-18.62-1.14-24.99ZM32.15,98.1c.35-1.28,1.19-2.38,2.47-2.69.14-.03.28-.06.42-.08-.33,1.23-1.27,2.31-2.89,2.77ZM67.26,83.02H22.44c4.23-3.84,10.31-6.33,15.46-7.35,8.13-1.61,19.71-1.22,27.46,3.59.77,1.13,1.42,2.38,1.89,3.76ZM33.27,54.27c.08.11.16.21.26.3.02.02.04.04.06.06.02.02.04.04.06.06.02.02.04.04.06.06.02.02.04.04.06.06.02.02.04.04.06.06.02.02.04.04.06.06.02.02.04.04.06.06.02.02.04.04.06.06.02.02.04.04.06.06.02.02.04.04.06.06.02.02.04.04.06.06.02.02.04.04.06.06.02.02.04.04.06.06.02.02.04.04.06.06.02.02.04.04.06.06.02.02.04.04.06.06.02.02.04.04.06.06.02.02.04.04.06.06.02.02.04.04.06.06.02.02.04.04.06.06.02.02.04.04.06.06.02.02.04.04.06.06.02.02.04.04.06.06.02.02.04.04.06.06.02.02.04.04.06.06.02.02.04.04.06.06.02.02.04.04.06.06.02.02.04.04.06.06.02.02.04.04.06.06.02.02.04.04.06.06.02.02.04.04.06.06.02.02.04.04.06.06.02.02.04.04.06.06.02.02.04.04.06.06.02.02.04.04.06.06.02.02.04.04.06.06.02.02.04.04.06.06.02.02.04.04.06.06.02.02.04.04.06.06.02.02.04.04.06.06.02.02.04.04.06.06.02.02.04.04.06.06.02.02.04.04.06.06.02.02.04.04.06.06.02.02.04.04.06.06.02.02.04.04.06.06.02.02.04.04.06.06.02.02.04.04.06.06.02.02.04.04.06.06.02.02.04.04.06.06,0,0,0,0,0,0v9.47h0c0,.19-.16.33-.34.33-1.22-.01-2.23.46-3.27.46-.85-1.16-1.6-2.23-1.92-2.71-1.36-2.06-4.91-7.03-3.74-9.36.69-1.38,3.34-1.51,5.96-1.35ZM49.56,67.15s-.09.04-.14.06c-.24-3.12-.31-6.67-.22-7.53l2.64-.38c.53-.08.92-.52.94-1.05l.02-.56c0-.22-.09-.41-.24-.54-.02-.02-.04-.04-.06-.06-.02-.02-.04-.04-.06-.06-.02-.02-.04-.04-.06-.06-.02-.02-.04-.04-.06-.06-.02-.02-.04-.04-.06-.06-.02-.02-.04-.04-.06-.06-.02-.02-.04-.04-.06-.06-.02-.02-.04-.04-.06-.06-.02-.02-.04-.04-.06-.06-.02-.02-.04-.04-.06-.06-.02-.02-.04-.04-.06-.06-.02-.02-.04-.04-.06-.06-.02-.02-.04-.04-.06-.06-.02-.02-.04-.04-.06-.06-.02-.02-.04-.04-.06-.06-.02-.02-.04-.04-.06-.06-.02-.02-.04-.04-.06-.06-.02-.02-.04-.04-.06-.06-.02-.02-.04-.04-.06-.06-.02-.02-.04-.04-.06-.06-.02-.02-.04-.04-.06-.06-.02-.02-.04-.04-.06-.06-.02-.02-.04-.04-.06-.06-.02-.02-.04-.04-.06-.06-.02-.02-.04-.04-.06-.06-.02-.02-.04-.04-.06-.06-.02-.02-.04-.04-.06-.06-.02-.02-.04-.04-.06-.06-.02-.02-.04-.04-.06-.06-.02-.02-.04-.04-.06-.06-.02-.02-.04-.04-.06-.06-.02-.02-.04-.04-.06-.06-.02-.02-.04-.04-.06-.06-.02-.02-.04-.04-.06-.06-.02-.02-.04-.04-.06-.06-.02-.02-.04-.04-.06-.06-.02-.02-.04-.04-.06-.06-.02-.02-.04-.04-.06-.06-.02-.02-.04-.04-.06-.06-.02-.02-.04-.04-.06-.06-.02-.02-.04-.04-.06-.06-.02-.02-.04-.04-.06-.06-.02-.02-.04-.04-.06-.06-.02-.02-.04-.04-.06-.06-.02-.02-.04-.04-.06-.06-.02-.02-.04-.04-.06-.06-.02-.02-.04-.04-.06-.06,0,0,0,0,0,0,2.75-.09,5.49-.16,8.02-.1-2.5,4.6-7.53,12.46-8.15,12.78ZM17.15,139.74v-24.13h50.69c-.02,1.01-.08,2-.1,2.85-.12,4.28.09,14.28-.78,17.71-.79,3.13-9.4,10.76-12.32,11.61-2.15.62-9.11-2.56-12.88-2.55-4.19.01-12.79,3.04-15.58,2.57-1.41-.24-4.09-1.9-6.77-4.01-1.36-1.58-2.26-3.03-2.26-4.04Z"/>
    <path class="cls-1" d="M107.8,77.62c-.03-.09-.09-.17-.17-.24-.02-.02-.04-.04-.06-.06-.02-.02-.04-.04-.06-.06-.02-.02-.04-.04-.06-.06-.02-.02-.04-.04-.06-.06-.02-.02-.04-.04-.06-.06-.02-.02-.04-.04-.06-.06-.02-.02-.04-.04-.06-.06-.02-.02-.04-.04-.06-.06-.02-.02-.04-.04-.06-.06-.02-.02-.04-.04-.06-.06-.02-.02-.04-.04-.06-.06-.02-.02-.04-.04-.06-.06-.02-.02-.04-.04-.06-.06-.02-.02-.04-.04-.06-.06-.02-.02-.04-.04-.06-.06-.02-.02-.04-.04-.06-.06-.02-.02-.04-.04-.06-.06-.02-.02-.04-.04-.06-.06-.02-.02-.04-.04-.06-.06-.02-.02-.04-.04-.06-.06-.02-.02-.04-.04-.06-.06-.02-.02-.04-.04-.06-.06-.02-.02-.04-.04-.06-.06-.02-.02-.04-.04-.06-.06-.02-.02-.04-.04-.06-.06-.02-.02-.04-.04-.06-.06-.02-.02-.04-.04-.06-.06-.02-.02-.04-.04-.06-.06-.02-.02-.04-.04-.06-.06-.02-.02-.04-.04-.06-.06-.02-.02-.04-.04-.06-.06-.02-.02-.04-.04-.06-.06-.02-.02-.04-.04-.06-.06-.02-.02-.04-.04-.06-.06-.02-.02-.04-.04-.06-.06-.02-.02-.04-.04-.06-.06-.02-.02-.04-.04-.06-.06-.02-.02-.04-.04-.06-.06-.02-.02-.04-.04-.06-.06-.02-.02-.04-.04-.06-.06-.02-.02-.04-.04-.06-.06-.02-.02-.04-.04-.06-.06-.02-.02-.04-.04-.06-.06-.02-.02-.04-.04-.06-.06-.02-.02-.04-.04-.06-.06-.02-.02-.04-.04-.06-.06-.02-.02-.04-.04-.06-.06-.02-.02-.04-.04-.06-.06-.02-.02-.04-.04-.06-.06-.02-.02-.04-.04-.06-.06-.02-.02-.04-.04-.06-.06-.02-.02-.04-.04-.06-.06-.02-.02-.04-.04-.06-.06-.02-.02-.04-.04-.06-.06-.02-.02-.04-.04-.06-.06-.02-.02-.04-.04-.06-.06-.02-.02-.04-.04-.06-.06-.02-.02-.04-.04-.06-.06-.02-.02-.04-.04-.06-.06-.02-.02-.04-.04-.06-.06-.02-.02-.04-.04-.06-.06-.02-.02-.04-.04-.06-.06-.02-.02-.04-.04-.06-.06-.02-.02-.04-.04-.06-.06-.02-.02-.04-.04-.06-.06-.02-.02-.04-.04-.06-.06-.02-.02-.04-.04-.06-.06-.02-.02-.04-.04-.06-.06-.02-.02-.04-.04-.06-.06-.02-.02-.04-.04-.06-.06-.02-.02-.04-.04-.06-.06-.02-.02-.04-.04-.06-.06-.02-.02-.04-.04-.06-.06-.02-.02-.04-.04-.06-.06-.02-.02-.04-.04-.06-.06-.02-.02-.04-.04-.06-.06-.02-.02-.04-.04-.06-.06-.02-.02-.04-.04-.06-.06-.02-.02-.04-.04-.06-.06-.02-.02-.04-.04-.06-.06-.02-.02-.04-.04-.06-.06-.02-.02-.04-.04-.06-.06-.02-.02-.04-.04-.06-.06-.02-.02-.04-.04-.06-.06-.02-.02-.04-.04-.06-.06-.02-.02-.04-.04-.06-.06-.02-.02-.04-.04-.06-.06-.02-.02-.04-.04-.06-.06-.18-.2-.55-.34-1.01-.42-.95-8.18-1.96-18.32-3.45-25.92-.17-.87-.45-1.46-.84-1.79-.02-.02-.03-.03-.05-.05-.02-.02-.04-.04-.06-.06-.02-.02-.04-.04-.06-.06-.02-.02-.04-.04-.06-.06-.02-.02-.04-.04-.06-.06-.02-.02-.04-.04-.06-.06-.02-.02-.04-.04-.06-.06-.02-.02-.04-.04-.06-.06-.02-.02-.04-.04-.06-.06-.02-.02-.04-.04-.06-.06-.02-.02-.04-.04-.06-.06-.02-.02-.04-.04-.06-.06-.02-.02-.04-.04-.06-.06-.02-.02-.04-.04-.06-.06-.02-.02-.04-.04-.06-.06-.02-.02-.04-.04-.06-.06-.02-.02-.04-.04-.06-.06-.02-.02-.04-.04-.06-.06-.02-.02-.04-.04-.06-.06-.02-.02-.04-.04-.06-.06-.02-.02-.04-.04-.06-.06-.02-.02-.04-.04-.06-.06-.02-.02-.04-.04-.06-.06-.02-.02-.04-.04-.06-.06-.02-.02-.04-.04-.06-.06-.02-.02-.04-.04-.06-.06-.02-.02-.04-.04-.06-.06-.02-.02-.04-.04-.06-.06-.02-.02-.04-.04-.06-.06-.02-.02-.04-.04-.06-.06-.02-.02-.04-.04-.06-.06-.02-.02-.04-.04-.06-.06-.02-.02-.04-.04-.06-.06-.02-.02-.04-.04-.06-.06-.02-.02-.04-.04-.06-.06-.02-.02-.04-.04-.06-.06-.02-.02-.04-.04-.06-.06-.02-.02-.04-.04-.06-.06-.02-.02-.04-.04-.06-.06-.02-.02-.04-.04-.06-.06-.02-.02-.04-.04-.06-.06-.02-.02-.04-.04-.06-.06-.02-.02-.04-.04-.06-.06-.02-.02-.04-.04-.06-.06-.02-.02-.04-.04-.06-.06-.02-.02-.04-.04-.06-.06-.02-.02-.04-.04-.06-.06-.02-.02-.04-.04-.06-.06-.02-.02-.04-.04-.06-.06-.02-.02-.04-.04-.06-.06-.02-.02-.04-.04-.06-.06-.02-.02-.04-.04-.06-.06-.02-.02-.04-.04-.06-.06-.02-.02-.04-.04-.06-.06-.02-.02-.04-.04-.06-.06-.02-.02-.04-.04-.06-.06-.02-.02-.04-.04-.06-.06-.02-.02-.04-.04-.06-.06-.02-.02-.04-.04-.06-.06-.02-.02-.04-.04-.06-.06-.02-.02-.04-.04-.06-.06-.02-.02-.04-.04-.06-.06-.02-.02-.04-.04-.06-.06-.02-.02-.04-.04-.06-.06-.02-.02-.04-.04-.06-.06-.02-.02-.04-.04-.06-.06-.02-.02-.04-.04-.06-.06-.02-.02-.04-.04-.06-.06-.02-.02-.04-.04-.06-.06-.02-.02-.04-.04-.06-.06-.02-.02-.04-.04-.06-.06-.02-.02-.04-.04-.06-.06-.02-.02-.04-.04-.06-.06-.02-.02-.04-.04-.06-.06-.02-.02-.04-.04-.06-.06-.02-.02-.04-.04-.06-.06-.02-.02-.04-.04-.06-.06-.02-.02-.04-.04-.06-.06-.02-.02-.04-.04-.06-.06-.02-.02-.04-.04-.06-.06-.02-.02-.04-.04-.06-.06-.02-.02-.04-.04-.06-.06-.02-.02-.04-.04-.06-.06-.02-.02-.04-.04-.06-.06-.02-.02-.04-.04-.06-.06-.02-.02-.04-.04-.06-.06-.02-.02-.04-.04-.06-.06-.02-.02-.04-.04-.06-.05-.63-.6-1.55-.47-2.79.3-.02.01-.04.04-.04.06-2.03,10.69-4.12,21.68-4.49,32.6,0,.04-.03.08-.07.08-1.34.21-5.25-.64-5.73.71,0,.01,0,.04,0,.04l-.08,71.4c0,1.06.19,2.12.55,3.12.14.4.38.74.68,1.01.02.02.04.04.06.06.02.02.04.04.06.06.02.02.04.04.06.06.02.02.04.04.06.06.02.02.04.04.06.06.02.02.04.04.06.06.02.02.04.04.06.06.02.02.04.04.06.06.02.02.04.04.06.06.02.02.04.04.06.06.02.02.04.04.06.06.02.02.04.04.06.06.02.02.04.04.06.06.02.02.04.04.06.06.02.02.04.04.06.06.02.02.04.04.06.06.02.02.04.04.06.06.02.02.04.04.06.06.02.02.04.04.06.06.02.02.04.04.06.06.02.02.04.04.06.06.02.02.04.04.06.06.02.02.04.04.06.06.02.02.04.04.06.06.02.02.04.04.06.06.02.02.04.04.06.06.02.02.04.04.06.06.02.02.04.04.06.06.02.02.04.04.06.06.02.02.04.04.06.06.02.02.04.04.06.06.02.02.04.04.06.06.02.02.04.04.06.06.02.02.04.04.06.06.02.02.04.04.06.06.02.02.04.04.06.06.02.02.04.04.06.06.02.02.04.04.06.06.02.02.04.04.06.06.02.02.04.04.06.06.02.02.04.04.06.06.02.02.04.04.06.06.02.02.04.04.06.06.02.02.04.04.06.06.02.02.04.04.06.06.02.02.04.04.06.06.02.02.04.04.06.06.02.02.04.04.06.06.02.02.04.04.06.06.02.02.04.04.06.06.02.02.04.04.06.06.02.02.04.04.06.06.02.02.04.04.06.06.02.02.04.04.06.06.02.02.04.04.06.06.02.02.04.04.06.06.02.02.04.04.06.06.02.02.04.04.06.06.02.02.04.04.06.06.02.02.04.04.06.06.02.02.04.04.06.06.02.02.04.04.06.06.02.02.04.04.06.06.02.02.04.04.06.06.02.02.04.04.06.06.02.02.04.04.06.06.02.02.04.04.06.06.02.02.04.04.06.06.02.02.04.04.06.06.02.02.04.04.06.06.02.02.04.04.06.06.02.02.04.04.06.06.02.02.04.04.06.06.02.02.04.04.06.06.02.02.04.04.06.06.02.02.04.04.06.06.02.02.04.04.06.06.02.02.04.04.06.06.02.02.04.04.06.06.02.02.04.04.06.06.02.02.04.04.06.06.02.02.04.04.06.06.02.02.04.04.06.06.02.02.04.04.06.06.02.02.04.04.06.06.02.02.04.04.06.06.02.02.04.04.06.06.02.02.04.04.06.06.48.46,1.12.73,1.82.71,5.61-.13,17.95,1.17,20.3-.23.52-.3.98-1,1.09-1.61v-.02l-.42-74.75s0-.03,0-.04ZM93.86,100.12s-.04-.04-.06-.06c-.01-.01-.03-.03-.04-.04h.14s0,.13,0,.13c-.01-.01-.03-.02-.04-.03ZM86.58,146.42s.04-.08.08-.08h12.83c-.27.21-.61.34-.98.34h-11.93v-.26Z"/>
    <path class="cls-1" d="M195.71,106.92s-.04-.04-.06-.06c-.02-.02-.04-.04-.06-.06-.02-.02-.04-.04-.06-.06-.02-.02-.04-.04-.06-.06-.02-.02-.04-.04-.06-.06-.02-.02-.04-.04-.06-.06-.02-.02-.04-.04-.06-.06-.02-.02-.04-.04-.06-.06-.02-.02-.04-.04-.06-.06-.02-.02-.04-.04-.06-.06-.02-.02-.04-.04-.06-.06-.02-.02-.04-.04-.06-.06-.02-.02-.04-.04-.06-.06-.02-.02-.04-.04-.06-.06-.02-.02-.04-.04-.06-.06-.02-.02-.04-.04-.06-.06-.02-.02-.04-.04-.06-.06-.02-.02-.04-.04-.06-.06-.02-.02-.04-.04-.06-.06-.02-.02-.04-.04-.06-.06-.02-.02-.04-.04-.06-.06-.02-.02-.04-.04-.06-.06-.02-.02-.04-.04-.06-.06-.02-.02-.04-.04-.06-.06-.02-.02-.04-.04-.06-.06-.02-.02-.04-.04-.06-.06-.02-.02-.04-.04-.06-.06-.02-.02-.04-.04-.06-.06-.02-.02-.04-.04-.06-.06-.02-.02-.04-.04-.06-.06-.02-.02-.04-.04-.06-.06-.02-.02-.04-.04-.06-.06-.02-.02-.04-.04-.06-.06-.02-.02-.04-.04-.06-.06-.02-.02-.04-.04-.06-.06-.02-.02-.04-.04-.06-.06-.02-.02-.04-.04-.06-.06-.02-.02-.04-.04-.06-.06-.02-.02-.04-.04-.06-.06-.02-.02-.04-.04-.06-.06-.02-.02-.04-.04-.06-.06-.02-.02-.04-.04-.06-.06-.02-.02-.04-.04-.06-.06-.02-.02-.04-.04-.06-.06-.02-.02-.04-.04-.06-.06-.02-.02-.04-.04-.06-.06-.02-.02-.04-.04-.06-.06-.02-.02-.04-.04-.06-.06-.02-.02-.04-.04-.06-.06-.02-.02-.04-.04-.06-.06-.02-.02-.04-.04-.06-.06-.02-.02-.04-.04-.06-.06-.02-.02-.04-.04-.06-.06-.02-.02-.04-.04-.06-.06-.02-.02-.04-.04-.06-.06-.02-.02-.04-.04-.06-.06-.02-.02-.04-.04-.06-.06-.02-.02-.04-.04-.06-.06-.02-.02-.04-.04-.06-.06-.02-.02-.04-.04-.06-.06-.02-.02-.04-.04-.06-.06-.02-.02-.04-.04-.06-.06-.02-.02-.04-.04-.06-.06-.02-.02-.04-.04-.06-.06-.02-.02-.04-.04-.06-.06-.02-.02-.04-.04-.06-.06-.02-.02-.04-.04-.06-.06-.02-.02-.04-.04-.06-.06-.02-.02-.04-.04-.06-.06-.02-.02-.04-.04-.06-.06-.02-.02-.04-.04-.06-.06-.02-.02-.04-.04-.06-.06-.02-.02-.04-.04-.06-.06-.02-.02-.04-.04-.06-.06-.02-.02-.04-.04-.06-.06-.02-.02-.04-.04-.06-.06-.02-.02-.04-.04-.06-.06-.02-.02-.04-.04-.06-.06-.02-.02-.04-.04-.06-.06-.02-.02-.04-.04-.06-.06-.02-.02-.04-.04-.06-.06-.02-.02-.04-.04-.06-.06-.02-.02-.04-.04-.06-.06-.02-.02-.04-.04-.06-.06-.02-.02-.04-.04-.06-.06-.02-.02-.04-.04-.06-.06-.02-.02-.04-.04-.06-.06-.02-.02-.04-.04-.06-.06-.34-.32-.66-.57-.95-.69-1.96-.83-2.99.97-3.8,1.42,0,0-.02-.02-.03-.02-.02-.02-.04-.04-.06-.06-.02-.02-.04-.04-.06-.06-.02-.02-.04-.04-.06-.06-.02-.02-.04-.04-.06-.06-.02-.02-.04-.04-.06-.06-.02-.02-.04-.04-.06-.06-.02-.02-.04-.04-.06-.06-.02-.02-.04-.04-.06-.06-.02-.02-.04-.04-.06-.06-.02-.02-.04-.04-.06-.06-.02-.02-.04-.04-.06-.06-.02-.02-.04-.04-.06-.06-.02-.02-.04-.04-.06-.06-.02-.02-.04-.04-.06-.06-.02-.02-.04-.04-.06-.06-.02-.02-.04-.04-.06-.06-.02-.02-.04-.04-.06-.06-.02-.02-.04-.04-.06-.06-.02-.02-.04-.04-.06-.06-.02-.02-.04-.04-.06-.06-.02-.02-.04-.04-.06-.06-.41-.37-.92-.67-1.39-.9-7.12-3.55-20.17,2.76-27.08,5.7-8.15,3.47-36.06,15.75-40.24,22.03-2.31,3.47-1.1,5.41-1.96,7.97-.54,1.6-4.62,1.57-2.43,6.19.4.84.82,1.42,1.27,1.82.02.02.04.04.06.06.02.02.04.04.06.06.02.02.04.04.06.06.02.02.04.04.06.06.02.02.04.04.06.06.02.02.04.04.06.06.02.02.04.04.06.06.02.02.04.04.06.06.02.02.04.04.06.06.02.02.04.04.06.06.02.02.04.04.06.06.02.02.04.04.06.06.02.02.04.04.06.06.02.02.04.04.06.06.02.02.04.04.06.06.02.02.04.04.06.06.02.02.04.04.06.06.02.02.04.04.06.06.02.02.04.04.06.06.02.02.04.04.06.06.02.02.04.04.06.06.02.02.04.04.06.06.02.02.04.04.06.06.02.02.04.04.06.06.02.02.04.04.06.06.02.02.04.04.06.06.02.02.04.04.06.06.02.02.04.04.06.06.02.02.04.04.06.06.02.02.04.04.06.06.02.02.04.04.06.06.02.02.04.04.06.06.02.02.04.04.06.06.02.02.04.04.06.06.02.02.04.04.06.06.02.02.04.04.06.06.02.02.04.04.06.06.02.02.04.04.06.06.02.02.04.04.06.06.02.02.04.04.06.06.02.02.04.04.06.06.02.02.04.04.06.06.02.02.04.04.06.06.02.02.04.04.06.06.02.02.04.04.06.06.02.02.04.04.06.06.02.02.04.04.06.06.02.02.04.04.06.06.02.02.04.04.06.06.02.02.04.04.06.06.02.02.04.04.06.06.02.02.04.04.06.06.02.02.04.04.06.06.02.02.04.04.06.06.02.02.04.04.06.06.02.02.04.04.06.06.02.02.04.04.06.06.02.02.04.04.06.06.02.02.04.04.06.06.02.02.04.04.06.06.02.02.04.04.06.06.02.02.04.04.06.06.02.02.04.04.06.06.02.02.04.04.06.06.02.02.04.04.06.06.02.02.04.04.06.06.02.02.04.04.06.06.02.02.04.04.06.06.02.02.04.04.06.06.02.02.04.04.06.06.02.02.04.04.06.06.02.02.04.04.06.06.02.02.04.04.06.06.02.02.04.04.06.06.02.02.04.04.06.06.02.02.04.04.06.06.02.02.04.04.06.06.02.02.04.04.06.06.02.02.04.04.06.06.02.02.04.04.06.06.02.02.04.04.06.06.02.02.04.04.06.06.02.02.04.04.06.06.02.02.04.04.06.06.02.02.04.04.06.06.02.02.04.04.06.06.02.02.04.04.06.06.02.02.04.04.06.06,1.91,1.79,4.22.15,6.38.53,1.34.23,3.59,2.67,6.47,3.05,7.87,1.05,16.74-6.05,23.81-9.5,10.59-5.17,23.69-9.95,33.55-16.09,4.18-2.61,7.16-7.18,5.56-12.25,1.51-.51,4.72-.57,4.98-2.51.18-1.36-1.44-4.21-2.86-5.55ZM181.2,107.48h0s.06.06.06.06h0s.06.06.06.06h0s.06.06.06.06h0s.06.06.06.06h0s.06.06.06.06h0s.06.06.06.06h0s.06.06.06.06h0s.06.06.06.06h0s.06.06.06.06h0s.06.06.06.06h0s.06.06.06.06h0s.06.06.06.06h0s.06.06.06.06h0s.06.06.06.06h0s.06.06.06.06h0s.06.06.06.06h0s.06.06.06.06h0s.06.06.06.06h0s.06.06.06.06h0s.06.06.06.06h0s.06.06.06.06h0s.06.06.06.06h0s.06.06.06.06h0s.06.06.06.06h0s.06.06.06.06h0s.06.06.06.06h0s.06.06.06.06h0s.06.06.06.06h0s.06.06.06.06h0s.06.06.06.06h0s.06.06.06.06h0s.06.06.06.06h0s.06.06.06.06h0s.06.06.06.06h0s.06.06.06.06h0s.06.06.06.06h0s.06.06.06.06h0s.06.06.06.06h0s.06.06.06.06h0s.02.03.02.03c-.68,1.04-1.42,2.09-1.27,2.63.1.13.19.24.29.33.02.02.04.04.06.06.02.02.04.04.06.06.02.02.04.04.06.06.02.02.04.04.06.06.02.02.04.04.06.06.02.02.04.04.06.06.02.02.04.04.06.06.02.02.04.04.06.06.02.02.04.04.06.06.02.02.04.04.06.06.02.02.04.04.06.06.02.02.04.04.06.06.02.02.04.04.06.06.02.02.04.04.06.06.02.02.04.04.06.06.02.02.04.04.06.06.02.02.04.04.06.06.02.02.04.04.06.06.02.02.04.04.06.06.02.02.04.04.06.06.02.02.04.04.06.06.02.02.04.04.06.06.02.02.04.04.06.06.02.02.04.04.06.06.02.02.04.04.06.06.02.02.04.04.06.06.02.02.04.04.06.06.02.02.04.04.06.06.02.02.04.04.06.06.02.02.04.04.06.06.02.02.04.04.06.06.02.02.04.04.06.06.02.02.04.04.06.06.02.02.04.04.06.06.02.02.04.04.06.06.02.02.04.04.06.06.02.02.04.04.06.06.02.02.04.04.06.06.02.02.04.04.06.06.02.02.04.04.06.06.02.02.04.04.06.06.02.02.04.04.06.06,0,0,.02.01.02.02-.76,1.76-2.01,3.17-3.57,4.27-.31-1.37-.74-2.7-1.34-3.94-.82-1.66-2-3-3.3-4.23-.02-.02-.04-.04-.06-.06-.02-.02-.04-.04-.06-.06-.02-.02-.04-.04-.06-.06-.02-.02-.04-.04-.06-.06-.02-.02-.04-.04-.06-.06-.02-.02-.04-.04-.06-.06-.02-.02-.04-.04-.06-.06-.02-.02-.04-.04-.06-.06-.02-.02-.04-.04-.06-.06-.02-.02-.04-.04-.06-.06-.02-.02-.04-.04-.06-.06-.02-.02-.04-.04-.06-.06-.02-.02-.04-.04-.06-.06-.02-.02-.04-.04-.06-.06-.02-.02-.04-.04-.06-.06-.02-.02-.04-.04-.06-.06-.02-.02-.04-.04-.06-.06-.02-.02-.04-.04-.06-.06-.02-.02-.04-.04-.06-.06-.02-.02-.04-.04-.06-.06-.02-.02-.04-.04-.06-.06-.02-.02-.04-.04-.06-.06-.02-.02-.04-.04-.06-.06-.02-.02-.04-.04-.06-.06-.02-.02-.04-.04-.06-.06-.02-.02-.04-.04-.06-.06-.02-.02-.04-.04-.06-.06-.02-.02-.04-.04-.06-.06-.02-.02-.04-.04-.06-.06-.02-.02-.04-.04-.06-.06-.02-.02-.04-.04-.06-.06-.02-.02-.04-.04-.06-.06-.02-.02-.04-.04-.06-.06-.02-.02-.04-.04-.06-.06-.02-.02-.04-.04-.06-.06-.02-.02-.04-.04-.06-.06-.02-.02-.04-.04-.06-.06,0,0,0,0,0,0,1.85-.62,4.16-1.38,6.42-1.67h0s0,.01,0,.01l.06.04ZM134.88,127.91c2.5,4.17,3.93,9.77,3.13,12.82-1.49,1.04-3.15,2.06-4.88,2.85-.01-.02-.03-.03-.05-.04-.02-.02-.04-.04-.06-.06-.02-.02-.04-.04-.06-.06-.02-.02-.04-.04-.06-.06-.02-.02-.04-.04-.06-.06-.02-.02-.04-.04-.06-.06-.02-.02-.04-.04-.06-.06-.02-.02-.04-.04-.06-.06-.02-.02-.04-.04-.06-.06-.02-.02-.04-.04-.06-.06-.02-.02-.04-.04-.06-.06-.02-.02-.04-.04-.06-.06-.02-.02-.04-.04-.06-.06-.02-.02-.04-.04-.06-.06-.02-.02-.04-.04-.06-.06-.02-.02-.04-.04-.06-.06-.02-.02-.04-.04-.06-.06-.02-.02-.04-.04-.06-.06-.02-.02-.04-.04-.06-.06-.02-.02-.04-.04-.06-.06-.02-.02-.04-.04-.06-.06-.02-.02-.04-.04-.06-.06-.02-.02-.04-.04-.06-.06-.01-.02-.04-.03-.05-.05,1.3-.66,2.93-1.67,2.12-3.37-.04-.06-.09-.11-.15-.15-.02-.02-.04-.04-.06-.06-.02-.02-.04-.04-.06-.06-.02-.02-.04-.04-.06-.06-.02-.02-.04-.04-.06-.06-.02-.02-.04-.04-.06-.06-.02-.02-.04-.04-.06-.06-.02-.02-.04-.04-.06-.06-.02-.02-.04-.04-.06-.06-.02-.02-.04-.04-.06-.06-.02-.02-.04-.04-.06-.06-.02-.02-.04-.04-.06-.06-.02-.02-.04-.04-.06-.06-.02-.02-.04-.04-.06-.06-.02-.02-.04-.04-.06-.06-.02-.02-.04-.04-.06-.06-.02-.02-.04-.04-.06-.06-.02-.02-.04-.04-.06-.06-.02-.02-.04-.04-.06-.06-.02-.02-.04-.04-.06-.06-.02-.02-.04-.04-.06-.06-.02-.02-.04-.04-.06-.06-.02-.02-.04-.04-.06-.06-.02-.02-.04-.04-.06-.06-.02-.02-.04-.04-.06-.06-.02-.02-.04-.04-.06-.06-.02-.02-.04-.04-.06-.06-.02-.02-.04-.04-.06-.06-.02-.02-.04-.04-.06-.06-.02-.02-.04-.04-.06-.06-.02-.02-.04-.04-.06-.06-.02-.02-.04-.04-.06-.06-.02-.02-.04-.04-.06-.06-.02-.02-.04-.04-.06-.06-.02-.02-.04-.04-.06-.06-.02-.02-.04-.04-.06-.06-.02-.02-.04-.04-.06-.06-.02-.02-.04-.04-.06-.06-.02-.02-.04-.04-.06-.06-.02-.02-.04-.04-.06-.06-.02-.02-.04-.04-.06-.06-.02-.02-.04-.04-.06-.06-.02-.02-.04-.04-.06-.06-.02-.02-.04-.04-.06-.06-.02-.02-.04-.04-.06-.06-.02-.02-.04-.04-.06-.06-.02-.02-.04-.04-.06-.06-.02-.02-.04-.04-.06-.06-.02-.02-.04-.04-.06-.06-.02-.02-.04-.04-.06-.06-.02-.02-.04-.04-.06-.06-.02-.02-.04-.04-.06-.06-.02-.02-.04-.04-.06-.06-.02-.02-.04-.04-.06-.06-.02-.02-.04-.04-.06-.06-.02-.02-.04-.04-.06-.06-.02-.02-.04-.04-.06-.06-.02-.02-.04-.04-.06-.06-.02-.02-.04-.04-.06-.06-.02-.02-.04-.04-.06-.06-.02-.02-.04-.04-.06-.06-.02-.02-.04-.04-.06-.06-.02-.02-.04-.04-.06-.06-.02-.02-.04-.04-.06-.06-.02-.02-.04-.04-.06-.06-.02-.02-.04-.04-.06-.06-.02-.02-.04-.04-.06-.06-.02-.02-.04-.04-.06-.06-.02-.02-.04-.04-.06-.06-.02-.02-.04-.04-.06-.06-.02-.02-.04-.04-.06-.06-.02-.02-.04-.04-.06-.06-.02-.02-.04-.04-.06-.06-.02-.02-.04-.04-.06-.06-.02-.02-.04-.04-.06-.06-.02-.02-.04-.04-.06-.06-.02-.02-.04-.04-.06-.06-.02-.02-.04-.04-.06-.06-.02-.02-.04-.04-.06-.06-.02-.02-.04-.04-.06-.06-.02-.02-.04-.04-.06-.06-.02-.02-.04-.04-.06-.06-.02-.02-.04-.04-.06-.06-.02-.02-.04-.04-.06-.06-.02-.02-.04-.04-.06-.06-.02-.02-.04-.04-.06-.06-.02-.02-.04-.04-.06-.06-.02-.02-.04-.04-.06-.06-.02-.02-.04-.04-.06-.06-.26-.26-.64-.3-1.1-.2,0,0-.02-.02-.03-.02-.02-.02-.04-.04-.06-.06-.02-.02-.04-.04-.06-.06-.02-.02-.04-.04-.06-.06-.02-.02-.04-.04-.06-.06-.02-.02-.04-.04-.06-.06-.02-.02-.04-.04-.06-.06-.02-.02-.04-.04-.06-.06-.02-.02-.04-.04-.06-.06-.02-.02-.04-.04-.06-.06-.02-.02-.04-.04-.06-.06-.02-.02-.04-.04-.06-.06-.02-.02-.04-.04-.06-.06-.02-.02-.04-.04-.06-.06-.02-.02-.04-.04-.06-.06-.02-.02-.04-.04-.06-.06-.02-.02-.04-.04-.06-.06-.02-.02-.04-.04-.06-.06-.02-.02-.04-.04-.06-.06,0,0-.01-.01-.02-.02,2.95-2.61,6.48-4.73,7.63-4.7.39,0,.79.08,1.17.19Z"/>
  </g>
  <g>
    <path class="cls-2" d="M69.16,104.78c.09-7.17,2.14-18.62-1.14-24.99-3.06-5.93-10.62-9.86-16.9-11.31h0c2.04-4.69,17.12-20.05,4.76-21.21-10.09-.94-21.78.42-32.22-.31-1.64-.11-3.29.41-4.5,1.53-5.48,5.12,5.01,15.22,8.04,20.2-9.3,3.57-19.07,8.72-19.88,19.83-1.09,15,1.57,31.3.47,46.48.64,5.41,10.74,14.53,15.79,15.8,4.3,1.08,12.18-2.59,17.34-2.44,3.8.11,10.03,3.7,13.07,2.63.73-.26,1.77-.91,2.33-1.33,4.87-3.62,12.57-8.23,12.82-15.15.36-9.77-.1-19.86.03-29.74ZM27.97,90.69c7.11-1.71,8.44,8.25.85,7.99-4.62-.15-4.42-7.13-.85-7.99ZM37.73,91.09c2.27.58,1.53,6.69-1.44,4.85-.86-.54-.83-5.43,1.44-4.85ZM41.3,92.22c.09-.47.66-.98,1.11-1.11h0c.52-.14,1.04-.19,1.51.13,2.75,4.62-2.68,7.62-2.62.98ZM48.28,91.09c2.4-.57,2.25,3.89,1.43,4.4-2.86,1.77-3.83-3.83-1.43-4.4ZM54.1,91.01c1.63,1.37.53,6.75-2.11,4.36-.79-1.06-.74-4.36.8-4.72h0s1.31.36,1.31.36ZM24.39,60.26c-1.36-2.06-4.91-7.03-3.74-9.36,1.26-2.5,8.96-.91,11.27-.88,7.1.1,17.35-.93,23.96-.04,1.05.14,1.84.39,1.98,1.58.06,1.5-8.72,15.5-9.55,15.94-.74.39-2.68.03-3.96.06-.49.01-.93-.31-1.05-.79-.65-2.63-.91-10.48-.77-11.81l2.64-.38c.53-.08.92-.52.94-1.05l.02-.56c.01-.39-.3-.71-.69-.71h-10.35c-1.11,0-3.68.48-3.29,1.96.61,1.48,2.17,1.24,3.52,1.19v11.83h0c0,.19-.16.33-.34.33-1.92-.02-3.32,1.17-5.11-.17-.89-.66-4.64-5.88-5.48-7.15ZM38.82,60.48l.58.08c.29.04.51.27.55.56l.68,4.94c.07.46-.27.88-.73.92l-1.07.09c-.42.04-.79-.3-.79-.72v-5.17h0c0-.42.37-.75.79-.69ZM38.11,56.84l.09-.91c.03-.31.25-.57.55-.66l.35-.1c.37-.1.73.17.73.56v1.16c0,.44-.35.79-.79.79h-.18c-.45,0-.8-.38-.76-.83ZM31.25,70.96c11.63-2.3,30.29-.53,34.77,12.42H11.86c3.32-6.77,12.24-11,19.39-12.42ZM66.49,118.8c-.12,4.28.09,14.28-.78,17.71-.79,3.13-9.4,10.76-12.32,11.61-2.15.62-9.11-2.56-12.88-2.55-4.19.01-12.79,3.04-15.58,2.57-3.45-.59-14.43-9.59-14.43-13.13v-24.13h55.29c1.12,1.93.77,5.52.7,7.92Z"/>
    <g>
      <path class="cls-2" d="M101.15,72.94s0-.03,0-.04c-.37-1.12-5.06-.65-6.26-.73h0s-.08-.03-.08-.08c-.05-1.09.13-2.22,0-3.3-1.01-8.42-2.05-19.39-3.63-27.49-.45-2.28-1.63-2.61-3.55-1.41-.02.01-.04.04-.04.06-2.03,10.69-4.12,21.68-4.49,32.6,0,.04-.03.08-.07.08-1.34.21-5.25-.64-5.73.71,0,.01,0,.04,0,.04l-.08,71.4c0,1.06.19,2.12.55,3.12.37,1.02,1.35,1.69,2.44,1.66,5.61-.13,17.95,1.17,20.3-.23.52-.3.98-1,1.09-1.61v-.02l-.42-74.75ZM92.56,96.97c.13.48.24,1.02.33,1.61-.09-.59-.19-1.14-.33-1.61l.3,10.85c-.67,3.43.18,9.69.15,10.35-.59.05-5.93-.15-6.53-.09-.06,0,.14.04.44.08-.35.02-.71.14-1.05-.09-.15-.11-.19-1.01-.54-1.25v-3.61c0-2.89.38-6.26-.45-9.02v-8.33c0-.38.32-.68.69-.65l6.7.4c.62.18.18.98.28,1.37ZM85.34,116.87c.07.42-.02.94-.02,1.41-.02-.47.02-.98.02-1.41ZM89.05,118.62s0,0,0,0c-1.24,0-2.48-.02-3.72,0,0,0,0,0,0,0,1.23-.01,2.48.01,3.71,0ZM89.45,118.62c.13,0,.27,0,.4,0,0,0,0,0,0,0,.31,0,.66,0,1.02,0-.04,0-.07,0-.11,0-.3.01-.6,0-.9,0-.23,0-.45,0-.68,0,.08,0,.17,0,.27,0ZM82.96,119.87c.27.58.89.97,1.74,1.21-.85-.25-1.48-.63-1.74-1.21-.28-7.93-1.59-17.08-.81-24.95-.77,7.87.53,17.02.81,24.95ZM80.08,138.92s-.07-.02-.1-.03c0,0,0,0,0,0,.04.01.07.02.11.03ZM81.4,138.93s-.06,0-.08.01c.03,0,.06,0,.08-.01ZM81.18,138.96s-.06,0-.1.01c.03,0,.06,0,.1-.01ZM80.97,138.98s-.06,0-.09,0c.03,0,.06,0,.09,0ZM80.76,138.99s-.06,0-.09,0c.03,0,.06,0,.09,0ZM80.54,138.99s-.07,0-.1,0c.04,0,.07,0,.1,0ZM80.31,138.97s-.08-.01-.12-.02c.04,0,.08.01.12.02ZM88.5,50.97h0c.15-.86.26-1.5.46-2.71h.44c.07.74-.08,1.52,0,2.25.62,5.39,1.44,10.77,2.24,16.14,0,.05-.03.1-.08.1h-5.22s-.09-.04-.08-.09c.59-5.24,1.32-10.51,2.25-15.69ZM85.79,69.54s.04-.08.08-.08h5.25s.08.05.08.09l.03,2.77s-.04.08-.08.08l-5.28.21s-.09-.04-.09-.08v-2.99ZM79.92,75.41s.04-.08.08-.08c5.59-.2,11.26.27,16.84,0h0c.27,0,.9-.66,1.52-.47.04,0,.06.05.07.08v3.01s-.04.08-.08.08c-6.12.03-12.27-.21-18.33.44-.05,0-.09-.04-.09-.08v-2.98ZM98.88,145.42c0,.89-.72,1.62-1.62,1.62h-16.16c-.65,0-1.18-.53-1.18-1.18v-4.15s.04-.08.08-.08h18.79s.08.04.08.08v3.71Z"/>
      <path class="cls-2" d="M90.91,104.98c.64-.94,0-2.21-1.11-2.43-.37-.07-.76-.09-1.17-.05-4.89.55.71,4.76,2.27,2.47Z"/>
      <path class="cls-2" d="M87.8,106.79c-2.79.92,2.28,4.6,4.02,1.64.52-1.82-2.81-2.04-4.02-1.64Z"/>
      <path class="cls-2" d="M91.01,98.97c-.45-.73-4.99-.66-4.56,1.25.44,1.91,6.23,1.42,4.56-1.25Z"/>
      <path class="cls-2" d="M90.97,113.41c.44-.22.63-.72.5-1.17-.11-.41-.48-.7-.92-.76l-2.55-.32h0c-.4-.05-.8.11-1.04.42l-.02.03c-.32.42-.29,1.02.13,1.36.88.73,2.86.95,3.91.43Z"/>
      <path class="cls-2" d="M90.74,114.52l-2.55-.32h0c-.4-.05-.8.11-1.04.42l-.02.03c-.32.42-.29,1.02.13,1.36.88.73,2.86.95,3.91.43.44-.22.63-.72.5-1.17-.11-.41-.48-.7-.92-.76Z"/>
    </g>
    <path class="cls-2" d="M188.16,101.57c-2.43-1.03-3.44,1.99-4.36,1.45h0c-.16-1.04-1.24-1.71-2.14-2.15-7.12-3.55-20.17,2.76-27.08,5.7-8.15,3.47-36.06,15.75-40.24,22.03-2.31,3.47-1.1,5.41-1.96,7.97-.54,1.6-4.62,1.57-2.43,6.19,2.08,4.39,4.95,1.83,7.59,2.3,1.34.23,3.59,2.67,6.47,3.05,7.87,1.05,16.74-6.05,23.81-9.5,10.59-5.17,23.69-9.95,33.55-16.09,4.18-2.61,7.16-7.18,5.56-12.25,1.51-.51,4.72-.57,4.98-2.51.23-1.66-2.24-5.54-3.75-6.18ZM115.19,142.55c-1.62.52-3.47-1.04-2.98-2.08.31-.65,3.47-2.14,4.18-2.15.75,0,1.85,1.11,1.94,1.92-.04.19-2.76,2.19-3.14,2.31ZM136.76,141.08c-5.01,3.5-11.82,6.72-17.07,1.88.83-2.3,8.69.25,7.66-3.14-.49-1.61-4.61.17-5.41-.7h0c-.88-.96,2.25-1.19,2.82-1.47,1.33-.65,3.28-1.68,2.4-3.51-1.11-1.56-5.43,2.67-7.47,1.83l2.66-5.26c-2.18-3.92-4.63,2.33-5.44,4.28l-1.73.08c-1.59-4.12,9.66-12.11,11.88-12.06,5.92.13,11.09,12.86,9.71,18.08ZM142.29,122.24c.83-1.18,3.82-.91,4.8-.12,5.56,4.47-7.36,11.01-4.8.12ZM150.69,117.98c1.89-.46,4.55,6.19,2.1,6.65-2.36,0-4.66-6.02-2.1-6.65ZM154.72,115.71c2.47-.82,4.36,5.66,2.61,6.24-2.45.81-4.49-5.62-2.61-6.24ZM159.7,113.47c2.53-.86,4.25,5.59,2.12,6.23-1.8.54-4.73-5.35-2.12-6.23ZM172.92,120.73c.08-6.34-2.67-14.02-9.45-14.77l-32.94,15.35c6.33,4.15,9.06,10.83,9.02,18.26.04-7.43-2.69-14.11-9.02-18.26l32.94-15.36c6.78.75,9.54,8.43,9.45,14.77ZM175.66,121.98c-.03-3.77-.37-7.85-2.04-11.26-1.29-2.62-3.49-4.45-5.63-6.32,4.07-1.35,10.39-3.49,13.54.44h0l-2.28.21-.38,1.77,1.08.74c7.18-1.75.72,3.66,1.14,5.15,1.24,1.69,2.24,0,3.6-.2-.46,5.11-4.42,8.02-9.02,9.47ZM186.48,107.56c-1.05-3.61,1.53-4.1,2.26-.46l-2.26.46Z"/>
  </g>
</svg>