<?xml version="1.0" encoding="UTF-8"?>
<svg id="Layer_1" data-name="Layer 1" xmlns="http://www.w3.org/2000/svg" viewBox="0 0 200 200">
  <defs>
    <style>
      .cls-1 {
        fill: #b3b3b3;
      }

      .cls-2 {
        fill: #fff;
      }
    </style>
  </defs>
  <path class="cls-1" d="M165.39,41.01s-.07-.06-.1-.09c-.03-.03-.07-.06-.1-.09-.03-.03-.07-.06-.1-.09-.03-.03-.07-.06-.1-.09-.03-.03-.07-.06-.1-.09-.03-.03-.07-.06-.1-.09-.03-.03-.07-.06-.1-.09-.03-.03-.07-.06-.1-.09-.03-.03-.07-.06-.1-.09-.03-.03-.07-.06-.1-.09-.03-.03-.07-.06-.1-.09-.03-.03-.07-.06-.1-.09-.03-.03-.07-.06-.1-.09-.03-.03-.07-.06-.1-.09-.03-.03-.07-.06-.1-.09-.03-.03-.07-.06-.1-.09-.03-.03-.07-.06-.1-.09-.03-.03-.07-.06-.1-.09-.03-.03-.07-.06-.1-.09-.03-.03-.07-.06-.1-.09-.03-.03-.07-.06-.1-.09-.03-.03-.07-.06-.1-.09-.03-.03-.07-.06-.1-.09-.03-.03-.07-.06-.1-.09-.03-.03-.07-.06-.1-.09-.03-.03-.07-.06-.1-.09-.03-.03-.07-.06-.1-.09-.03-.03-.07-.06-.1-.09-.03-.03-.07-.06-.1-.09-.03-.03-.07-.06-.1-.09-.03-.03-.07-.06-.1-.09-.03-.03-.07-.06-.1-.09-.03-.03-.07-.06-.1-.09-.03-.03-.07-.06-.1-.09-.03-.03-.07-.06-.1-.09-.03-.03-.07-.06-.1-.09-.03-.03-.07-.06-.1-.09-.03-.03-.07-.06-.1-.09-.03-.03-.07-.06-.1-.09-.03-.03-.07-.06-.1-.09-.03-.03-.07-.06-.1-.09-.03-.03-.07-.06-.1-.09-.03-.03-.07-.06-.1-.09-.03-.03-.07-.06-.1-.09-.03-.03-.07-.06-.1-.09-.03-.03-.07-.06-.1-.09-.03-.03-.07-.06-.1-.09-.03-.03-.07-.06-.1-.09-.03-.03-.07-.06-.1-.09-.03-.03-.07-.06-.1-.09-.03-.03-.07-.06-.1-.09-.03-.03-.07-.06-.1-.09-.03-.03-.07-.06-.1-.09-.03-.03-.07-.06-.1-.09-.03-.03-.07-.06-.1-.09-.03-.03-.07-.06-.1-.09-.03-.03-.07-.06-.1-.09-.03-.03-.07-.06-.1-.09-.03-.03-.07-.06-.1-.09-.03-.03-.07-.06-.1-.09-.03-.03-.07-.06-.1-.09-.03-.03-.07-.06-.1-.09-.03-.03-.07-.06-.1-.09-.03-.03-.07-.06-.1-.09-.03-.03-.07-.06-.1-.09-.03-.03-.07-.06-.1-.09-.03-.03-.07-.06-.1-.09-.03-.03-.07-.06-.1-.09-.03-.03-.07-.06-.1-.09-.03-.03-.07-.06-.1-.09-.03-.03-.07-.06-.1-.09-.03-.03-.07-.06-.1-.09-.03-.03-.07-.06-.1-.09-.03-.03-.07-.06-.1-.09-.03-.03-.07-.06-.1-.09-.03-.03-.07-.06-.1-.09-.03-.03-.07-.06-.1-.09-.03-.03-.07-.06-.1-.09-.03-.03-.07-.06-.1-.09-.03-.03-.07-.06-.1-.09-.03-.03-.07-.06-.1-.09-.03-.03-.07-.06-.1-.09-.03-.03-.07-.06-.1-.09-.03-.03-.07-.06-.1-.09-.03-.03-.07-.06-.1-.09-.03-.03-.07-.06-.1-.09-.03-.03-.07-.06-.1-.09-.03-.03-.07-.06-.1-.09-.38-.38-.91-.6-1.51-.62-16.89,2.15-34.03,7.89-51.18,5.59-16.76-2.24-31.35-12.27-48.67-4.23-1.58.74-4.79,2.06-4.84,3.97v127.31c.08.62.36,1.07.74,1.37.03.03.07.06.1.09.03.03.07.06.1.09.03.03.07.06.1.09.03.03.07.06.1.09.03.03.07.06.1.09.03.03.07.06.1.09.03.03.07.06.1.09.03.03.07.06.1.09.03.03.07.06.1.09.03.03.07.06.1.09.03.03.07.06.1.09.03.03.07.06.1.09.03.03.07.06.1.09.03.03.07.06.1.09.03.03.07.06.1.09.03.03.07.06.1.09.03.03.07.06.1.09.03.03.07.06.1.09.03.03.07.06.1.09.03.03.07.06.1.09.03.03.07.06.1.09.03.03.07.06.1.09.03.03.07.06.1.09.03.03.07.06.1.09.03.03.07.06.1.09.03.03.07.06.1.09.03.03.07.06.1.09.03.03.07.06.1.09.03.03.07.06.1.09.03.03.07.06.1.09.03.03.07.06.1.09.03.03.07.06.1.09.03.03.07.06.1.09.03.03.07.06.1.09.03.03.07.06.1.09.03.03.07.06.1.09.03.03.07.06.1.09.03.03.07.06.1.09.03.03.07.06.1.09.03.03.07.06.1.09.03.03.07.06.1.09.03.03.07.06.1.09.03.03.07.06.1.09.03.03.07.06.1.09.03.03.07.06.1.09.03.03.07.06.1.09.03.03.07.06.1.09.03.03.07.06.1.09.03.03.07.06.1.09.03.03.07.06.1.09.03.03.07.06.1.09.03.03.07.06.1.09.03.03.07.06.1.09.03.03.07.06.1.09.03.03.07.06.1.09.03.03.07.06.1.09.03.03.07.06.1.09.03.03.07.06.1.09.03.03.07.06.1.09.03.03.07.06.1.09.03.03.07.06.1.09.03.03.07.06.1.09.03.03.07.06.1.09.03.03.07.06.1.09.03.03.07.06.1.09.03.03.07.06.1.09.03.03.07.06.1.09.03.03.07.06.1.09.03.03.07.06.1.09.03.03.07.06.1.09.03.03.07.06.1.09.03.03.07.06.1.09.03.03.07.06.1.09.03.03.07.06.1.09.03.03.07.06.1.09.03.03.07.06.1.09.03.03.07.06.1.09.03.03.07.06.1.09.03.03.07.06.1.09.03.03.07.06.1.09.03.03.07.06.1.09.03.03.07.06.1.09.03.03.07.06.1.09.03.03.07.06.1.09.03.03.07.06.1.09.03.03.07.06.1.09.03.03.07.06.1.09.03.03.07.06.1.09,1.09.99,3.17.52,3.41-1.46l.03-64.44c14.7-9.16,30.82.21,45.78,2.84,8.07,1.42,15.85,1.35,23.94.21,8.98-1.27,18.36-2.98,27.3-4.61,1.92-.35,5.7-.28,5.66-2.78v-61.65c0-.64-.26-1.15-.67-1.5ZM116.89,68.54v-3.46c0-.5,1.24-.09,1.55-.08,2.26.07,4.54-.07,6.8,0,9.35-.82,18.55-2.67,27.78-4.26v2.14l-33.29,5.5c-.95.07-1.9.12-2.84.17ZM101.82,47.73h-.04s0,0,0,0c.01,0,.02,0,.04,0ZM90.1,64.84s0,0-.01,0h.01s0,0,0,0ZM87.43,62.46l.05-.02s-.01.08-.02.12c0-.03-.01-.06-.02-.09ZM89.99,64.8s-.05-.02-.08-.02l.09-.05s0,.05-.01.07ZM85.8,62.43c.48,0,1.21.79,1.74.9.07-.09,0-.4-.08-.75l.12-.06c-.01.05-.02.1-.03.16l.13-.07c-.01.05-.02.1-.03.16l.13-.07c-.01.05-.02.1-.03.16l.13-.07c-.01.05-.02.1-.03.16l.13-.07c-.01.05-.02.1-.03.16l.13-.07c-.01.05-.02.1-.03.16l.13-.07c-.01.05-.02.1-.03.16l.13-.07c-.01.05-.02.1-.03.16l.13-.07c-.01.05-.02.1-.03.16l.13-.07c-.01.05-.02.1-.03.16l.13-.07c-.01.05-.02.1-.03.16l.13-.07c-.01.05-.02.1-.03.16l.13-.07c-.01.05-.02.1-.03.16l.13-.07c-.01.05-.02.1-.03.16l.13-.07c-.01.05-.02.1-.03.16l.13-.07c-.01.05-.02.1-.03.16l.13-.07c-.01.05-.02.1-.03.16l.13-.07c-.01.05-.02.1-.03.16l.13-.07c-.01.05-.02.1-.03.16l.13-.07c-.01.05-.02.1-.03.16l.13-.07c-.01.05-.02.1-.03.16l.13-.07c-.01.05-.02.1-.03.16l.13-.07c-.01.05-.02.1-.03.16l.13-.07s-.02.08-.03.13c-1.88-.56-3.77-1.13-5.66-1.64.56-.13,1.13-.7,1.59-.7ZM63.35,48.95v.08s.05.02.1.01v.08s.05.02.1.01v.08s.05.02.1.01v.08s.05.02.1.01v.08s.05.02.1.01v.08s.05.02.1.01v.08s.05.02.1.01v.08s.05.02.1.01v.08s.05.02.1.01v.08s.05.02.1.01v.08s.05.02.1.01v.08s.05.02.1.01v.08s.05.02.1.01v.08s.05.02.1.01v.08s.05.02.1.01v.08s.05.02.1.01v.08s.05.02.1.01v.08s.05.02.1.01v.08s.05.02.1.01v.08s.05.02.1.01v.08s.05.02.1.01v.08s.05.02.1.01v.08s.05.02.1.01v.08s.05.02.1.01v.08s.05.02.1.01v.08s.05.02.1.01v.08s.05.02.1.01v.08s.05.02.1.01v.08s.05.02.1.01v.08s.05.02.1.01v.08s.05.02.1.01v.08s.05.02.1.01v.08s.05.02.1.01v.08s.05.02.1.01v.08s.05.02.1.01v.08s.05.02.1.01v.08s.05.02.1.01v.08s.05.02.1.01v.08c.14.16,1.36-.71,1.75-.73.56-.04,1.7.9,1.91.73-.11-.45-.45-1.48-.34-1.88.02-.07.09-.16.2-.28l.04-.02c-.01.05-.02.1-.03.16l.13-.07c-.01.05-.02.1-.03.16l.13-.07c-.01.05-.02.1-.03.16l.13-.07c-.01.05-.02.1-.03.16l.13-.07c-.01.05-.02.1-.03.16l.13-.07c-.01.05-.02.1-.03.16l.13-.07c-.01.05-.02.1-.03.16l.13-.07c-.01.05-.02.1-.03.16l.13-.07c-.01.05-.02.1-.03.16l.13-.07c-.01.05-.02.1-.03.16l.13-.07c-.01.05-.02.1-.03.16l.13-.07c-.01.05-.02.1-.03.16l.13-.07c-.01.05-.02.1-.03.16l.13-.07c-.01.05-.02.1-.03.16l.13-.07c-.01.05-.02.1-.03.16l.13-.07c-.01.05-.02.1-.03.16l.13-.07c-.01.05-.02.1-.03.16l.13-.07c-.01.05-.02.1-.03.16l.13-.07c-.01.05-.02.1-.03.16l.13-.07c-.01.05-.02.1-.03.16l.13-.07c-.01.05-.02.1-.03.16l.13-.07c-.01.05-.02.1-.03.16l.13-.07c-.01.05-.02.1-.03.16l.13-.07c-.01.05-.02.1-.03.16l.13-.07c-.01.05-.02.1-.03.16l.13-.07c-.01.05-.02.1-.03.16l.13-.07c-.01.05-.02.1-.03.16l.13-.07c-.01.05-.02.1-.03.16l.13-.07c-.01.05-.02.1-.03.16l.13-.07c-.01.05-.02.1-.03.16l.13-.07c-.01.05-.02.1-.03.16l.13-.07c-.01.05-.02.1-.03.16l.13-.07c-.01.05-.02.1-.03.16l.13-.07c-.01.05-.02.1-.03.16l.13-.07c-.01.05-.02.1-.03.16l.13-.07c-.01.05-.02.1-.03.16l.13-.07c-.01.05-.02.1-.03.16l.13-.07c-.01.05-.02.1-.03.16l.13-.07c-.01.05-.02.1-.03.16l.13-.07c-.01.05-.02.1-.03.16l.13-.07c-.01.05-.02.1-.03.16l.13-.07c-.01.05-.02.1-.03.16l.13-.07c-.01.05-.02.1-.03.16l.12-.06c-.05.21-.12.44-.19.69.04,0,.09,0,.13,0,0,.03-.02.06-.03.09.04,0,.09,0,.13,0,0,.03-.02.06-.03.09.04,0,.09,0,.13,0,0,.03-.02.06-.03.09.04,0,.09,0,.13,0,0,.03-.02.06-.03.09.04,0,.09,0,.13,0,0,.03-.02.06-.03.09.04,0,.09,0,.13,0,0,.03-.02.06-.03.09.04,0,.09,0,.13,0,0,.03-.02.06-.03.09.04,0,.09,0,.13,0,0,.03-.02.06-.03.09.04,0,.09,0,.13,0,0,.03-.02.06-.03.09.04,0,.09,0,.13,0,0,.03-.02.06-.03.09.04,0,.09,0,.13,0,0,.03-.02.06-.03.09.04,0,.09,0,.13,0,0,.03-.02.06-.03.09.04,0,.09,0,.13,0,0,.03-.02.06-.03.09.04,0,.09,0,.13,0,0,.03-.02.06-.03.09.04,0,.09,0,.13,0,0,.03-.02.06-.03.09.04,0,.09,0,.13,0,0,.03-.02.06-.03.09.04,0,.09,0,.13,0,0,.03-.02.06-.03.09.04,0,.09,0,.13,0,0,.03-.02.06-.03.09.04,0,.09,0,.13,0,0,.03-.02.06-.03.09.04,0,.09,0,.13,0,0,.03-.02.06-.03.09.04,0,.09,0,.13,0,0,.03-.02.06-.03.09.04,0,.09,0,.13,0,0,.03-.02.06-.03.09.04,0,.09,0,.13,0,0,.03-.02.06-.03.09.04,0,.09,0,.13,0,0,.03-.02.06-.03.09.04,0,.09,0,.13,0,0,.03-.02.06-.03.09.04,0,.09,0,.13,0,0,.03-.02.06-.03.09.04,0,.09,0,.13,0,0,.03-.02.06-.03.09.04,0,.09,0,.13,0,0,.03-.02.06-.03.09.04,0,.09,0,.13,0,0,.03-.02.06-.03.09.04,0,.09,0,.13,0,0,.03-.02.06-.03.09.04,0,.09,0,.13,0,0,.03-.02.06-.03.09.04,0,.09,0,.13,0,0,.03-.02.06-.03.09.04,0,.09,0,.13,0,0,.03-.02.06-.03.09.04,0,.09,0,.13,0,0,.03-.02.06-.03.09.04,0,.09,0,.13,0,0,.03-.02.06-.03.09.04,0,.09,0,.13,0,0,.03-.02.06-.03.09.04,0,.09,0,.13,0,0,.03-.02.06-.03.09.04,0,.09,0,.13,0,0,.03-.02.06-.03.09.04,0,.09,0,.13,0,0,.03-.02.06-.03.09.04,0,.09,0,.13,0,0,.03-.02.06-.03.09.04,0,.09,0,.13,0,0,.03-.02.06-.03.09.04,0,.09,0,.13,0,0,.03-.02.06-.03.09.04,0,.09,0,.13,0,0,.03-.02.06-.03.09.04,0,.09,0,.13,0,0,.03-.02.06-.03.09.04,0,.09,0,.13,0,0,.03-.02.06-.03.09.04,0,.09,0,.13,0,0,.03-.02.06-.03.09.04,0,.09,0,.13,0,0,.03-.02.06-.03.09.04,0,.09,0,.13,0,0,.03-.02.06-.03.09.04,0,.09,0,.13,0,0,.03-.02.06-.03.09.04,0,.09,0,.13,0,0,.03-.02.06-.03.09.04,0,.09,0,.13,0,0,.03-.02.06-.03.09.04,0,.09,0,.13,0,0,.03-.02.06-.03.09.04,0,.09,0,.13,0,0,.03-.02.06-.03.09.04,0,.09,0,.13,0,0,.03-.02.06-.03.09.04,0,.09,0,.13,0,0,.03-.02.06-.03.09.04,0,.09,0,.13,0,0,.03-.02.06-.03.09.04,0,.09,0,.13,0,0,.03-.02.06-.03.09.04,0,.09,0,.13,0,0,.03-.02.06-.03.09.04,0,.09,0,.13,0,0,.03-.02.06-.03.09.04,0,.09,0,.13,0,0,.03-.02.06-.03.09.04,0,.09,0,.13,0,0,.03-.02.06-.03.09.04,0,.09,0,.13,0,0,.03-.02.06-.03.09.04,0,.09,0,.13,0,0,.03-.02.06-.03.09.04,0,.09,0,.13,0,0,.03-.02.06-.03.09.04,0,.09,0,.13,0,0,.03-.02.06-.03.09.04,0,.09,0,.13,0,0,.03-.02.06-.03.09.04,0,.09,0,.13,0,0,.03-.02.06-.03.09.04,0,.09,0,.13,0,0,.03-.02.06-.03.09.04,0,.09,0,.13,0,0,.03-.02.06-.03.09.04,0,.09,0,.13,0,0,.03-.02.06-.03.09.04,0,.09,0,.13,0,0,.03-.02.06-.03.09.04,0,.09,0,.13,0,0,.03-.02.06-.03.09.04,0,.09,0,.13,0,0,.03-.02.06-.03.09.04,0,.09,0,.13,0,0,.03-.02.06-.03.09.04,0,.09,0,.13,0,0,.03-.02.06-.03.09.04,0,.09,0,.13,0,0,.03-.02.06-.03.09.04,0,.09,0,.13,0,0,.03-.02.06-.03.09.04,0,.09,0,.13,0,0,.03-.02.06-.03.09.04,0,.09,0,.13,0,0,.03-.02.06-.03.09.04,0,.09,0,.13,0,0,.03-.02.06-.03.09.04,0,.09,0,.13,0,0,.03-.02.06-.03.09.04,0,.09,0,.13,0,0,.03-.02.06-.03.09.04,0,.09,0,.13,0,0,.03-.02.06-.03.09.04,0,.09,0,.13,0,0,.03-.02.06-.03.09.04,0,.09,0,.13,0,0,.03-.02.06-.03.09.04,0,.09,0,.13,0,0,.03-.02.06-.03.09.04,0,.09,0,.13,0,0,.03-.02.06-.03.09.04,0,.09,0,.13,0,0,.02,0,.03-.01.05-.82-.22-1.65-.42-2.48-.61-.35-.08-.69-.15-1.03-.23,0-.01-.01-.03-.02-.04h-.07s0-.07-.03-.09h-.07s0-.07-.03-.09h-.07s0-.07-.03-.09h-.07s0-.07-.03-.09h-.07s0-.07-.03-.09h-.07s0-.07-.03-.09h-.07s0-.07-.03-.09h-.07s0-.07-.03-.09h-.07s0-.07-.03-.09h-.07s0-.07-.03-.09h-.07s0-.07-.03-.09h-.07s0-.07-.03-.09h-.07s0-.07-.03-.09h-.07s0-.07-.03-.09h-.07s0-.07-.03-.09h-.07s0-.07-.03-.09h-.07s0-.07-.03-.09h-.07s0-.07-.03-.09h-.07s0-.07-.03-.09h-.07s0-.07-.03-.09h-.07s0-.07-.03-.09h-.07s0-.07-.03-.09h-.07s0-.07-.03-.09h-.07s0-.07-.03-.09h-.07s0-.07-.03-.09h-.07s0-.07-.03-.09h-.07s0-.07-.03-.09h-.07s0-.07-.03-.09h-.07s0-.07-.03-.09h-.07s0-.07-.03-.09h-.07s0-.07-.03-.09h-.07s0-.07-.03-.09h-.07s0-.07-.03-.09h-.07s0-.07-.03-.09h-.07s0-.07-.03-.09h-.07s0-.07-.03-.09h-.07s0-.07-.03-.09h-.07s0-.07-.03-.09h-.07s0-.07-.03-.09h-.07s0-.07-.03-.09h-.07s0-.07-.03-.09h-.07s0-.07-.03-.09h-.07s0-.07-.03-.09h-.07s0-.07-.03-.09h-.07s0-.07-.03-.09h-.07s0-.07-.03-.09h-.07s0-.07-.03-.09h-.07s0-.07-.03-.09h-.07s0-.07-.03-.09h-.07s0-.07-.03-.09h-.07s0-.07-.03-.09h-.07s0-.07-.03-.09h-.07s0-.07-.03-.09h-.07s0-.07-.03-.09h-.07s0-.07-.03-.09h-.07s0-.07-.03-.09h-.07s0-.07-.03-.09h-.07s0-.07-.03-.09h-.07s0-.07-.03-.09h-.07s0-.07-.03-.09h-.07s0-.07-.03-.09h-.07s0-.07-.03-.09h-.07s0-.07-.03-.09h-.07s0-.07-.03-.09h-.07s0-.07-.03-.09h-.07s0-.07-.03-.09h-.07s0-.07-.03-.09h-.07s0-.07-.03-.09h-.07s0-.07-.03-.09h-.07s0-.07-.03-.09h-.07s0-.07-.03-.09h-.07s0-.07-.03-.09h-.07s0-.07-.03-.09h-.07s0-.07-.03-.09h-.07s0-.07-.03-.09h-.07s0-.07-.03-.09h-.07s0-.07-.03-.09h-.07s0-.07-.03-.09h-.07s0-.07-.03-.09h-.07s0-.07-.03-.09h-.07s0-.07-.03-.09h-.07s0-.07-.03-.09h-.07s0-.07-.03-.09h-.07s0-.07-.03-.09l-.99-.11-.04-.06s-.02.02-.03.03l-.07-.12s-.02.02-.03.03l-.07-.12s-.02.02-.03.03l-.07-.12s-.02.02-.03.03l-.07-.12s-.02.02-.03.03l-.07-.12s-.02.02-.03.03l-.07-.12s-.02.02-.03.03l-.07-.12s-.02.02-.03.03l-.07-.12s-.02.02-.03.03l-.07-.12s-.02.02-.03.03l-.07-.12s-.02.02-.03.03l-.07-.12s-.02.02-.03.03l-.07-.12s-.02.02-.03.03l-.07-.12s-.02.02-.03.03l-.07-.12s-.02.02-.03.03l-.07-.12s-.02.02-.03.03l-.07-.12s-.02.02-.03.03l-.07-.12s-.02.02-.03.03l-.07-.12c-.49.35-.41,1.22-.83,1.55-.48.37-1.17.17-1.68.35-.01,0-.03,0-.04-.01l.05-.06s-.1-.02-.15-.04l.05-.06s-.1-.02-.15-.04l.05-.06s-.1-.02-.15-.04l.05-.06s-.1-.02-.15-.04l.05-.06s-.1-.02-.15-.04l.05-.06s-.1-.02-.15-.04l.05-.06s-.1-.02-.15-.04l.05-.06s-.1-.02-.15-.04l.05-.06s-.1-.02-.15-.04l.05-.06s-.1-.02-.15-.04l.05-.06s-.1-.02-.15-.04l.05-.06s-.1-.02-.15-.04l.05-.06s-.1-.02-.15-.04l.05-.06s-.1-.02-.15-.04l.05-.06s-.1-.02-.15-.04l.05-.06s-.1-.02-.15-.04l.05-.06s-.1-.02-.15-.04l.05-.06s-.1-.02-.15-.04l.05-.06s-.1-.02-.15-.04l.05-.06s-.1-.02-.15-.04l.05-.06s-.1-.02-.15-.04l.05-.06s-.1-.02-.15-.04l.05-.06s-.1-.02-.15-.04l.05-.06s-.1-.02-.15-.04l.05-.06s-.1-.02-.15-.04l.05-.06s-.1-.02-.15-.04l.05-.06s-.1-.02-.15-.04l.05-.06s-.1-.02-.15-.04l.05-.06s-.1-.02-.15-.04l.05-.06s-.1-.02-.15-.04l.05-.06s-.04,0-.05-.01v-2.72s.01,0,.02,0ZM94.7,46.37c1.29,1.21,1.49,1.68,1.1,3.48.05-.03.09-.05.14-.08-.01.06-.02.11-.03.17.05-.03.09-.05.14-.08-.01.06-.02.11-.03.17.05-.03.09-.05.14-.08-.01.06-.02.11-.03.17.05-.03.09-.05.14-.08-.01.06-.02.11-.03.17.05-.03.09-.05.14-.08-.01.06-.02.11-.03.17.05-.03.09-.05.14-.08-.01.06-.02.11-.03.17.05-.03.09-.05.14-.08-.01.06-.02.11-.03.17.05-.03.09-.05.14-.08-.01.06-.02.11-.03.17.05-.03.09-.05.14-.08-.01.06-.02.11-.03.17.05-.03.09-.05.14-.08-.01.06-.02.11-.03.17.05-.03.09-.05.14-.08-.01.06-.02.11-.03.17.05-.03.09-.05.14-.08-.01.06-.02.11-.03.17.05-.03.09-.05.14-.08-.01.06-.02.11-.03.17.05-.03.09-.05.14-.08-.01.06-.02.11-.03.17.05-.03.09-.05.14-.08-.01.06-.02.11-.03.17.05-.03.09-.05.14-.08-.01.06-.02.11-.03.17.05-.03.09-.05.14-.08-.01.06-.02.11-.03.17.05-.03.09-.05.14-.08-.01.06-.02.11-.03.17.05-.03.09-.05.14-.08-.01.06-.02.11-.03.17.05-.03.09-.05.14-.08-.01.06-.02.11-.03.17.05-.03.09-.05.14-.08-.01.06-.02.11-.03.17.05-.03.09-.05.14-.08-.01.06-.02.11-.03.17.05-.03.09-.05.14-.08-.01.06-.02.11-.03.17.05-.03.09-.05.14-.08-.01.06-.02.11-.03.17.05-.03.09-.05.14-.08-.01.06-.02.11-.03.17.05-.03.09-.05.14-.08-.01.06-.02.11-.03.17.05-.03.09-.05.14-.08-.01.06-.02.11-.03.17.05-.03.09-.05.14-.08-.01.06-.02.11-.03.17.05-.03.09-.05.14-.08-.01.06-.02.11-.03.17.05-.03.09-.05.14-.08-.01.06-.02.11-.03.17.05-.03.09-.05.14-.08-.01.06-.02.11-.03.17.05-.03.09-.05.14-.08-.01.06-.02.11-.03.17.05-.03.09-.05.14-.08-.01.06-.02.11-.03.17.05-.03.09-.05.14-.08-.01.06-.02.11-.03.17.05-.03.09-.05.14-.08-.01.06-.02.11-.03.17.05-.03.09-.05.14-.08-.01.06-.02.11-.03.17.05-.03.09-.05.14-.08-.01.06-.02.11-.03.17.05-.03.09-.05.14-.08-.01.06-.02.11-.03.17.05-.03.09-.05.14-.08-.01.06-.02.11-.03.17.05-.03.09-.05.14-.08-.01.06-.02.11-.03.17.05-.03.09-.05.14-.08-.01.06-.02.11-.03.17.05-.03.09-.05.14-.08-.01.06-.02.11-.03.17.05-.03.09-.05.14-.08-.01.06-.02.11-.03.17.05-.03.09-.05.14-.08-.01.06-.02.11-.03.17.05-.03.09-.05.14-.08-.01.06-.02.11-.03.17.05-.03.09-.05.14-.08-.01.06-.02.11-.03.17.05-.03.09-.05.14-.08-.01.06-.02.11-.03.17.05-.03.09-.05.14-.08-.01.06-.02.11-.03.17.05-.03.09-.05.14-.08-.01.06-.02.11-.03.17.05-.03.09-.05.14-.08-.01.06-.02.11-.03.17.05-.03.09-.05.14-.08-.01.06-.02.11-.03.17.05-.03.09-.05.14-.08-.01.06-.02.11-.03.17.05-.03.09-.05.14-.08-.01.06-.02.11-.03.17.05-.03.09-.05.14-.08-.01.06-.02.11-.03.17.05-.03.09-.05.14-.08-.01.06-.02.11-.03.17.05-.03.09-.05.14-.08-.01.06-.02.11-.03.17.05-.03.09-.05.14-.08-.01.06-.02.11-.03.17.05-.03.09-.05.14-.08-.01.06-.02.11-.03.17.05-.03.09-.05.14-.08-.01.06-.02.11-.03.17.05-.03.09-.05.14-.08-.01.06-.02.11-.03.17.05-.03.09-.05.14-.08-.01.06-.02.11-.03.17.05-.03.09-.05.14-.08-.01.06-.02.11-.03.17.05-.03.09-.05.14-.08-.01.06-.02.11-.03.17.05-.03.09-.05.14-.08-.01.06-.02.11-.03.17.05-.03.09-.05.14-.08-.01.06-.02.11-.03.17.05-.03.09-.05.14-.08-.01.06-.02.11-.03.17.05-.03.09-.05.14-.08-.01.06-.02.11-.03.17.05-.03.09-.05.14-.08-.01.06-.02.11-.03.17.05-.03.09-.05.14-.08-.01.06-.02.11-.03.17.05-.03.09-.05.14-.08-.01.06-.02.11-.03.17.05-.03.09-.05.14-.08-.01.06-.02.11-.03.17.05-.03.09-.05.14-.08-.01.06-.02.11-.03.17.05-.03.09-.05.14-.08-.01.06-.02.11-.03.17.05-.03.09-.05.14-.08-.01.06-.02.11-.03.17.05-.03.09-.05.14-.08-.01.06-.02.11-.03.17.05-.03.09-.05.14-.08-.01.06-.02.11-.03.17.05-.03.09-.05.14-.08-.01.06-.02.11-.03.17.05-.03.09-.05.14-.08-.01.06-.02.11-.03.17.05-.03.09-.05.14-.08-.01.06-.02.11-.03.17.05-.03.09-.05.14-.08-.01.06-.02.11-.03.17.05-.03.09-.05.14-.08-.01.06-.02.11-.03.17.02-.01.05-.03.07-.04v2.24s0,0,0,0c0-.04,0-.07-.03-.1-.02,0-.05,0-.07,0,0-.04,0-.07-.03-.1-.02,0-.05,0-.07,0,0-.04,0-.07-.03-.1-.02,0-.05,0-.07,0,0-.04,0-.07-.03-.1-.02,0-.05,0-.07,0,0-.04,0-.07-.03-.1-.02,0-.05,0-.07,0,0-.04,0-.07-.03-.1-.02,0-.05,0-.07,0,0-.04,0-.07-.03-.1-.02,0-.05,0-.07,0,0-.04,0-.07-.03-.1-.02,0-.05,0-.07,0,0-.04,0-.07-.03-.1-.02,0-.05,0-.07,0,0-.04,0-.07-.03-.1-.02,0-.05,0-.07,0,0-.04,0-.07-.03-.1-.02,0-.05,0-.07,0,0-.04,0-.07-.03-.1-.02,0-.05,0-.07,0,0-.04,0-.07-.03-.1-.02,0-.05,0-.07,0,0-.04,0-.07-.03-.1-.02,0-.05,0-.07,0,0-.04,0-.07-.03-.1-.02,0-.05,0-.07,0,0-.04,0-.07-.03-.1-.02,0-.05,0-.07,0,0-.04,0-.07-.03-.1-.02,0-.05,0-.07,0,0-.04,0-.07-.03-.1-.02,0-.05,0-.07,0,0-.04,0-.07-.03-.1-.02,0-.05,0-.07,0,0-.04,0-.07-.03-.1-.02,0-.05,0-.07,0,0-.04,0-.07-.03-.1-.02,0-.05,0-.07,0,0-.04,0-.07-.03-.1-.02,0-.05,0-.07,0,0-.04,0-.07-.03-.1-.02,0-.05,0-.07,0,0-.04,0-.07-.03-.1-.02,0-.05,0-.07,0,0-.04,0-.07-.03-.1-.02,0-.05,0-.07,0,0-.04,0-.07-.03-.1-.02,0-.05,0-.07,0,0-.04,0-.07-.03-.1-.02,0-.05,0-.07,0,0-.04,0-.07-.03-.1-.02,0-.05,0-.07,0,0-.04,0-.07-.03-.1-.02,0-.05,0-.07,0,0-.04,0-.07-.03-.1-.02,0-.05,0-.07,0,0-.04,0-.07-.03-.1-.02,0-.05,0-.07,0,0-.04,0-.07-.03-.1-.02,0-.05,0-.07,0,0-.04,0-.07-.03-.1-.02,0-.05,0-.07,0,0-.04,0-.07-.03-.1-.02,0-.05,0-.07,0,0-.04,0-.07-.03-.1-.02,0-.05,0-.07,0,0-.04,0-.07-.03-.1-.02,0-.05,0-.07,0,0-.04,0-.07-.03-.1-.26.03-.49.04-.69.03,0,0-.01-.02-.02-.03v.03s-.01,0-.01,0c-.03-.04-.06-.08-.09-.12v.03s-.07-.08-.1-.12v.03s-.07-.08-.1-.12v.03s-.07-.08-.1-.12v.03s-.07-.08-.1-.12v.03s-.07-.08-.1-.12v.03s-.07-.08-.1-.12v.03s-.07-.08-.1-.12v.03s-.07-.08-.1-.12v.03s-.07-.08-.1-.12v.03s-.03-.02-.04-.03c.33-.25.6-.49.47-.63-.02-.02-.05-.03-.07-.04,0-.02-.01-.04-.03-.05-.02-.02-.05-.03-.07-.04,0-.02-.01-.04-.03-.05-.02-.02-.05-.03-.07-.04,0-.02-.01-.04-.03-.05-.02-.02-.05-.03-.07-.04,0-.02-.01-.04-.03-.05-.02-.02-.05-.03-.07-.04,0-.02-.01-.04-.03-.05-.02-.02-.05-.03-.07-.04,0-.02-.01-.04-.03-.05-.02-.02-.05-.03-.07-.04,0-.02-.01-.04-.03-.05-.02-.02-.05-.03-.07-.04,0-.02-.01-.04-.03-.05-.02-.02-.05-.03-.07-.04,0-.02-.01-.04-.03-.05-.02-.02-.05-.03-.07-.04,0-.02-.01-.04-.03-.05-.02-.02-.05-.03-.07-.04,0-.02-.01-.04-.03-.05-.02-.02-.05-.03-.07-.04,0-.02-.01-.04-.03-.05-.02-.02-.05-.03-.07-.04,0-.02-.01-.04-.03-.05-.02-.02-.05-.03-.07-.04,0-.02-.01-.04-.03-.05-.02-.02-.05-.03-.07-.04,0-.02-.01-.04-.03-.05-.02-.02-.05-.03-.07-.04,0-.02-.01-.04-.03-.05-.02-.02-.05-.03-.07-.04,0-.02-.01-.04-.03-.05-.02-.02-.05-.03-.07-.04,0-.02-.01-.04-.03-.05-.02-.02-.05-.03-.07-.04,0-.02-.01-.04-.03-.05-.02-.02-.05-.03-.07-.04,0-.02-.01-.04-.03-.05-.02-.02-.05-.03-.07-.04,0-.02-.01-.04-.03-.05-.02-.02-.05-.03-.07-.04,0-.02-.01-.04-.03-.05-.02-.02-.05-.03-.07-.04,0-.02-.01-.04-.03-.05-.02-.02-.05-.03-.07-.04,0-.02-.01-.04-.03-.05-.02-.02-.05-.03-.07-.04,0-.02-.01-.04-.03-.05-.02-.02-.05-.03-.07-.04,0-.02-.01-.04-.03-.05-.02-.02-.05-.03-.07-.04,0-.02-.01-.04-.03-.05-.02-.02-.05-.03-.07-.04,0-.02-.01-.04-.03-.05-.02-.02-.05-.03-.07-.04,0-.02-.01-.04-.03-.05-.02-.02-.05-.03-.07-.04,0-.02-.01-.04-.03-.05-.02-.02-.05-.03-.07-.04,0-.02-.01-.04-.03-.05-.02-.02-.05-.03-.07-.04,0-.02-.01-.04-.03-.05-.02-.02-.05-.03-.07-.04,0-.02-.01-.04-.03-.05-.02-.02-.05-.03-.07-.04,0-.02-.01-.04-.03-.05-.02-.02-.05-.03-.07-.04,0-.02-.01-.04-.03-.05-.02-.02-.05-.03-.07-.04,0-.02-.01-.04-.03-.05-.02-.02-.05-.03-.07-.04,0-.02-.01-.04-.03-.05-.02-.02-.05-.03-.07-.04,0-.02-.01-.04-.03-.05-.02-.02-.05-.03-.07-.04,0-.02-.01-.04-.03-.05-.02-.02-.05-.03-.07-.04,0-.02-.01-.04-.03-.05-.02-.02-.05-.03-.07-.04,0-.02-.01-.04-.03-.05-.02-.02-.05-.03-.07-.04,0-.02-.01-.04-.03-.05-.02-.02-.05-.03-.07-.04,0-.02-.01-.04-.03-.05-.02-.02-.05-.03-.07-.04,0-.02-.01-.04-.03-.05-.02-.02-.05-.03-.07-.04,0-.02-.01-.04-.03-.05-.02-.02-.05-.03-.07-.04,0-.02-.01-.04-.03-.05-.02-.02-.05-.03-.07-.04,0-.02-.01-.04-.03-.05-.02-.02-.05-.03-.07-.04,0-.02-.01-.04-.03-.05-.02-.02-.05-.03-.07-.04,0-.02-.01-.04-.03-.05-.02-.02-.05-.03-.07-.04,0-.02-.01-.04-.03-.05-.02-.02-.05-.03-.07-.04,0-.02-.01-.04-.03-.05-.02-.02-.05-.03-.07-.04,0-.02-.01-.04-.03-.05-.02-.02-.05-.03-.07-.04,0-.02-.01-.04-.03-.05-.02-.02-.05-.03-.07-.04,0-.02-.01-.04-.03-.05-.02-.02-.05-.03-.07-.04,0-.02-.01-.04-.03-.05-.02-.02-.05-.03-.07-.04,0-.02-.01-.04-.03-.05-.02-.02-.05-.03-.07-.04,0-.02-.01-.04-.03-.05-.02-.02-.05-.03-.07-.04,0-.02-.01-.04-.03-.05-.02-.02-.05-.03-.07-.04,0-.02-.01-.04-.03-.05-.02-.02-.05-.03-.07-.04,0-.02-.01-.04-.03-.05-.02-.02-.05-.03-.07-.04,0-.02-.01-.04-.03-.05-.02-.02-.05-.03-.07-.04,0-.02-.01-.04-.03-.05-.02-.02-.05-.03-.07-.04,0-.02-.01-.04-.03-.05-.02-.02-.05-.03-.07-.04,0-.02-.01-.04-.03-.05-.02-.02-.05-.03-.07-.04,0-.02-.01-.04-.03-.05-.02-.02-.05-.03-.07-.04,0-.02-.01-.04-.03-.05-.02-.02-.05-.03-.07-.04,0-.02-.01-.04-.03-.05-.02-.02-.05-.03-.07-.04,0-.02-.01-.04-.03-.05-.02-.02-.05-.03-.07-.04,0-.02-.01-.04-.03-.05-.02-.02-.05-.03-.07-.04,0-.02-.01-.04-.03-.05-.02-.02-.05-.03-.07-.04,0-.02-.01-.04-.03-.05-.02-.02-.05-.03-.07-.04,0-.02-.01-.04-.03-.05-.02-.02-.05-.03-.07-.04,0-.02-.01-.04-.03-.05-.02-.02-.05-.03-.07-.04,0-.02-.01-.04-.03-.05-.02-.02-.05-.03-.07-.04,0-.02-.01-.04-.03-.05-.02-.02-.05-.03-.07-.04,0-.02-.01-.04-.03-.05-.02-.02-.05-.03-.07-.04,0-.02-.01-.04-.03-.05-.02-.02-.05-.03-.07-.04,0-.02-.01-.04-.03-.05-.02-.02-.05-.03-.07-.04,0-.02-.01-.04-.03-.05-.02-.02-.05-.03-.07-.04,0-.02-.01-.04-.03-.05-.02-.02-.05-.03-.07-.04,0-.02-.01-.04-.03-.05-.02-.02-.05-.03-.07-.04,0-.02-.01-.04-.03-.05-.02-.02-.05-.03-.07-.04,0-.02-.01-.04-.03-.05-.02-.02-.05-.03-.07-.04,0-.02-.01-.04-.03-.05-.02-.02-.05-.03-.07-.04,0-.02-.01-.04-.03-.05-.02-.02-.05-.03-.07-.04,0-.02-.01-.04-.03-.05-.02-.02-.05-.03-.07-.04,0-.02-.01-.04-.03-.05-.02-.02-.05-.03-.07-.04,0-.02-.01-.04-.03-.05-.02-.02-.05-.03-.07-.04,0-.02-.01-.04-.03-.05-.11-.11-.43-.14-.79-.16-.01,0-.02-.01-.03-.02-.04-.04-.07-.07-.1-.09-.04-.04-.07-.07-.1-.09-.04-.04-.07-.07-.1-.09-.04-.04-.07-.07-.1-.09-.04-.04-.07-.07-.1-.09-.04-.04-.07-.07-.1-.09-.04-.04-.07-.07-.1-.09-.04-.04-.07-.07-.1-.09-.04-.04-.07-.07-.1-.09-.04-.04-.07-.07-.1-.09-.04-.04-.07-.07-.1-.09-.04-.04-.07-.07-.1-.09-.04-.04-.07-.07-.1-.09-.04-.04-.07-.07-.1-.09-.04-.04-.07-.07-.1-.09-.04-.04-.07-.07-.1-.09-.04-.04-.07-.07-.1-.09-.04-.04-.07-.07-.1-.09-.04-.04-.07-.07-.1-.09-.07-.09-.14-.13-.19-.09l-.58,1.1s-.03,0-.05,0l.08-.09s-.11,0-.18,0l.08-.09s-.11,0-.18,0l.08-.09s-.11,0-.18,0l.08-.09s-.11,0-.18,0l.08-.09s-.11,0-.18,0l.08-.09s-.11,0-.18,0l.08-.09s-.11,0-.18,0l.08-.09s-.11,0-.18,0l.08-.09s-.11,0-.18,0l.08-.09s-.11,0-.18,0l.08-.09s-.11,0-.18,0l.08-.09s-.11,0-.18,0l.08-.09s-.11,0-.18,0l.08-.09s-.11,0-.18,0l.08-.09s-.11,0-.18,0l.08-.09s-.11,0-.18,0l.08-.09s-.11,0-.18,0l.08-.09s-.11,0-.18,0l.08-.09s-.11,0-.18,0l.08-.09s-.11,0-.18,0l.08-.09s-.11,0-.18,0l.08-.09s-.11,0-.18,0l.08-.09s-.11,0-.18,0l.06-.07c3.99.6,7.93,1.69,11.87,2.83l-1.45.26ZM104.05,49.75h-.05s.03-.07.02-.08l-.12-.02s.03-.06.02-.07l-.12-.02s.03-.06.02-.07l-.12-.02s.03-.06.02-.07l-.12-.02s.03-.06.02-.07l-.12-.02s.03-.06.02-.07l-.12-.02s.03-.06.02-.07l-.12-.02s.03-.06.02-.07l-.12-.02s.03-.06.02-.07l-.12-.02s.03-.06.02-.07l-.12-.02s.03-.06.02-.07l-.12-.02s.03-.06.02-.07l-.12-.02s.03-.06.02-.07l-.12-.02s.03-.06.02-.07l-.12-.02s.03-.06.02-.07l-.12-.02s.03-.06.02-.07l-.12-.02s.03-.06.02-.07l-.12-.02s.03-.06.02-.07l-.12-.02s.03-.06.02-.07l-.12-.02s.03-.06.02-.07l-.12-.02s.03-.06.02-.07l-.12-.02s.02-.05.02-.06c.72.2,1.43.39,2.15.57v1.43ZM63.33,59.17l.05-.03c-.01.05-.02.1-.04.16l.14-.07c-.01.05-.02.1-.04.16l.14-.07c-.01.05-.02.1-.04.16l.14-.07c-.01.05-.02.1-.04.16l.14-.07c-.01.05-.02.1-.04.16l.14-.07c-.01.05-.02.1-.04.16l.14-.07c-.01.05-.02.1-.04.16l.14-.07c-.01.05-.02.1-.04.16l.14-.07c-.01.05-.02.1-.04.16l.14-.07c-.01.05-.02.1-.04.16l.14-.07c-.01.05-.02.1-.04.16l.14-.07c-.01.05-.02.1-.04.16l.14-.07c-.01.05-.02.1-.04.16l.14-.07c-.01.05-.02.1-.04.16l.14-.07c-.01.05-.02.1-.04.16l.14-.07c-.01.05-.02.1-.04.16l.14-.07c-.01.05-.02.1-.04.16l.14-.07c-.01.05-.02.1-.04.16l.14-.07c-.01.05-.02.1-.04.16l.14-.07c-.01.05-.02.1-.04.16l.14-.07s-.01.05-.02.08c-.68.07-1.37.16-2.06.28v-2.17ZM77.25,42.8c-.07.57-.41,1.47-.34,1.54.03,0,.07-.01.1-.02,0,.06-.01.1,0,.11.03,0,.07-.01.1-.02,0,.06-.01.1,0,.11.03,0,.07-.01.1-.02,0,.06-.01.1,0,.11.03,0,.07-.01.1-.02,0,.06-.01.1,0,.11.03,0,.07-.01.1-.02,0,.06-.01.1,0,.11.03,0,.07-.01.1-.02,0,.06-.01.1,0,.11.03,0,.07-.01.1-.02,0,.06-.01.1,0,.11.03,0,.07-.01.1-.02,0,.06-.01.1,0,.11.03,0,.07-.01.1-.02,0,.06-.01.1,0,.11.03,0,.07-.01.1-.02,0,.06-.01.1,0,.11.03,0,.07-.01.1-.02,0,.06-.01.1,0,.11.03,0,.07-.01.1-.02,0,.06-.01.1,0,.11.03,0,.07-.01.1-.02,0,.06-.01.1,0,.11.03,0,.07-.01.1-.02,0,.06-.01.1,0,.11.03,0,.07-.01.1-.02,0,.06-.01.1,0,.11.03,0,.07-.01.1-.02,0,.06-.01.1,0,.11.03,0,.07-.01.1-.02,0,.06-.01.1,0,.11.03,0,.07-.01.1-.02,0,.06-.01.1,0,.11.03,0,.07-.01.1-.02,0,.06-.01.1,0,.11.03,0,.07-.01.1-.02,0,.06-.01.1,0,.11.03,0,.07-.01.1-.02,0,.06-.01.1,0,.11.03,0,.07-.01.1-.02,0,.06-.01.1,0,.11.03,0,.07-.01.1-.02,0,.06-.01.1,0,.11.03,0,.07-.01.1-.02,0,.06-.01.1,0,.11.03,0,.07-.01.1-.02,0,.06-.01.1,0,.11.03,0,.07-.01.1-.02,0,.06-.01.1,0,.11.03,0,.07-.01.1-.02,0,.06-.01.1,0,.11.03,0,.07-.01.1-.02,0,.06-.01.1,0,.11.03,0,.07-.01.1-.02,0,.06-.01.1,0,.11.03,0,.07-.01.1-.02,0,.06-.01.1,0,.11.03,0,.07-.01.1-.02,0,.06-.01.1,0,.11.03,0,.07-.01.1-.02,0,.06-.01.1,0,.11.03,0,.07-.01.1-.02,0,.06-.01.1,0,.11.03,0,.07-.01.1-.02,0,.06-.01.1,0,.11.03,0,.07-.01.1-.02,0,.06-.01.1,0,.11.03,0,.07-.01.1-.02,0,.06-.01.1,0,.11.03,0,.07-.01.1-.02,0,.06-.01.1,0,.11.03,0,.07-.01.1-.02,0,.06-.01.1,0,.11.03,0,.07-.01.1-.02,0,.06-.01.1,0,.11.03,0,.07-.01.1-.02,0,.06-.01.1,0,.11.03,0,.07-.01.1-.02,0,.06-.01.1,0,.11.03,0,.07-.01.1-.02,0,.06-.01.1,0,.11.03,0,.07-.01.1-.02,0,.06-.01.1,0,.11.03,0,.07-.01.1-.02,0,.06-.01.1,0,.11.03,0,.07-.01.1-.02,0,.06-.01.1,0,.11.03,0,.07-.01.1-.02,0,.06-.01.1,0,.11.03,0,.07-.01.1-.02,0,.06-.01.1,0,.11.03,0,.07-.01.1-.02,0,.06-.01.1,0,.11.03,0,.07-.01.1-.02,0,.06-.01.1,0,.11.03,0,.07-.01.1-.02,0,.06-.01.1,0,.11.03,0,.07-.01.1-.02,0,.06-.01.1,0,.11.03,0,.07-.01.1-.02,0,.06-.01.1,0,.11.03,0,.07-.01.1-.02,0,.06-.01.1,0,.11.03,0,.07-.01.1-.02,0,.06-.01.1,0,.11.03,0,.07-.01.1-.02,0,.06-.01.1,0,.11.03,0,.07-.01.1-.02,0,.06-.01.1,0,.11.03,0,.07-.01.1-.02,0,.06-.01.1,0,.11.03,0,.07-.01.1-.02,0,.06-.01.1,0,.11.03,0,.07-.01.1-.02,0,.06-.01.1,0,.11.03,0,.07-.01.1-.02,0,.06-.01.1,0,.11.03,0,.07-.01.1-.02,0,.06-.01.1,0,.11.03,0,.07-.01.1-.02,0,.06-.01.1,0,.11.03,0,.07-.01.1-.02,0,.06-.01.1,0,.11.03,0,.07-.01.1-.02,0,.06-.01.1,0,.11.03,0,.07-.01.1-.02,0,.06-.01.1,0,.11.03,0,.07-.01.1-.02,0,.06-.01.1,0,.11.03,0,.07-.01.1-.02,0,.06-.01.1,0,.11.03,0,.07-.01.1-.02,0,.06-.01.1,0,.11.03,0,.07-.01.1-.02,0,.06-.01.1,0,.11.03,0,.07-.01.1-.02,0,.06-.01.1,0,.11.03,0,.07-.01.1-.02,0,.06-.01.1,0,.11.03,0,.07-.01.1-.02,0,.06-.01.1,0,.11.03,0,.07-.01.1-.02,0,.06-.01.1,0,.11.03,0,.07-.01.1-.02,0,.06-.01.1,0,.11.03,0,.07-.01.1-.02,0,.06-.01.1,0,.11.03,0,.07-.01.1-.02,0,.06-.01.1,0,.11.03,0,.07-.01.1-.02,0,.06-.01.1,0,.11.03,0,.07-.01.1-.02,0,.06-.01.1,0,.11.03,0,.07-.01.1-.02,0,.06-.01.1,0,.11.03,0,.07-.01.1-.02,0,.06-.01.1,0,.11.03,0,.07-.01.1-.02,0,.06-.01.1,0,.11.03,0,.07-.01.1-.02,0,.06-.01.1,0,.11.03,0,.07-.01.1-.02,0,.06-.01.1,0,.11.03,0,.07-.01.1-.02,0,.06-.01.1,0,.11.03,0,.07-.01.1-.02,0,.06-.01.1,0,.11.03,0,.07-.01.1-.02,0,.06-.01.1,0,.11.03,0,.07-.01.1-.02,0,.06-.01.1,0,.11.03,0,.07-.01.1-.02,0,.06-.01.1,0,.11.03,0,.07-.01.1-.02,0,.06-.01.1,0,.11.64-.03,1.23-.73,1.87-.73v.08s.04,0,.11-.03l-.02.12s.05,0,.12-.03l-.02.12s.05,0,.12-.03l-.02.12s.05,0,.12-.03l-.02.12s.05,0,.12-.03l-.02.12s.05,0,.12-.03l-.02.12s.05,0,.12-.03l-.02.12s.05,0,.12-.03l-.02.12s.05,0,.12-.03l-.02.12s.05,0,.12-.03l-.02.12s.05,0,.12-.03l-.02.12s.05,0,.12-.03l-.02.12s.05,0,.12-.03l-.02.12s.05,0,.12-.03l-.02.12s.05,0,.12-.03l-.02.12s.05,0,.12-.03l-.02.12s.05,0,.12-.03l-.02.12s.05,0,.12-.03l-.02.12s.05,0,.12-.03l-.02.12s.05,0,.12-.03l-.02.12s.05,0,.12-.03l-.02.12s.05,0,.12-.03l-.02.12s.05,0,.12-.03l-.02.12s.05,0,.12-.03l-.02.12s.05,0,.12-.03l-.02.12s.05,0,.12-.03l-.02.12s.05,0,.12-.03l-.02.12s.05,0,.12-.03l-.02.12s.05,0,.12-.03l-.02.12s.05,0,.12-.03l-.02.12s.05,0,.12-.03l-.02.12s.05,0,.12-.03l-.02.12s.05,0,.12-.03l-.02.12s.05,0,.12-.03l-.02.12s.05,0,.12-.03l-.02.12s.05,0,.12-.03l-.02.12s.05,0,.12-.03l-.02.12s.05,0,.12-.03l-.02.12s.05,0,.12-.03l-.02.12s.05,0,.12-.03l-.02.12s.05,0,.12-.03l-.02.12s.05,0,.12-.03l-.02.12s.05,0,.12-.03l-.02.12s.05,0,.12-.03l-.02.12s.05,0,.12-.03l-.02.12s.05,0,.12-.03l-.02.12s.05,0,.12-.03l-.02.12s.05,0,.12-.03l-.02.12s.05,0,.12-.03l-.02.12s.05,0,.12-.03l-.02.12s.05,0,.12-.03l-.02.12s.05,0,.12-.03l-.02.12s.05,0,.12-.03l-.02.12s.05,0,.12-.03l-.02.12s.05,0,.12-.03l-.02.12s.05,0,.12-.03l-.02.12s.05,0,.12-.03l-.02.12s.05,0,.12-.03l-.02.12s.05,0,.12-.03l-.02.12s.05,0,.12-.03l-.02.12s.05,0,.12-.03l-.02.12s.05,0,.12-.03l-.02.12s.05,0,.12-.03l-.02.12s.05,0,.12-.03l-.02.12s.05,0,.12-.03l-.02.12s.05,0,.12-.03l-.02.12s.05,0,.12-.03l-.02.12c.04.06.77-.39,1.29-.67.02.02.04.04.06.06.03.03.07.06.1.09,0,0,.01.01.02.02.15.62-.28,1.41-.19,2.05l.09-.05s0,.09,0,.14l.09-.05s0,.09,0,.14l.09-.05s0,.09,0,.14l.09-.05s0,.09,0,.14l.09-.05s0,.09,0,.14l.09-.05s0,.09,0,.14l.09-.05s0,.09,0,.14l.09-.05s0,.09,0,.14l.09-.05s0,.09,0,.14l.09-.05s0,.09,0,.14l.09-.05s0,.09,0,.14l.09-.05s0,.09,0,.14l.09-.05s0,.09,0,.14l.09-.05s0,.09,0,.14l.09-.05s0,.09,0,.14l.09-.05s0,.09,0,.14l.09-.05s0,.09,0,.14l.09-.05s0,.09,0,.14l.09-.05s0,.09,0,.14l.09-.05s0,.09,0,.14l.09-.05s0,.09,0,.14l.09-.05s0,.09,0,.14l.09-.05s0,.09,0,.14l.09-.05s0,.09,0,.14l.09-.05s0,.09,0,.14l.09-.05s0,.09,0,.14l.09-.05s0,.09,0,.14l.09-.05s0,.09,0,.14l.09-.05s0,.09,0,.14l.09-.05s0,.09,0,.14l.09-.05s0,.09,0,.14l.09-.05s0,.09,0,.14l.09-.05s0,.09,0,.14l.09-.05s0,.09,0,.14l.09-.05s0,.09,0,.14l.09-.05s0,.09,0,.14l.09-.05s0,.09,0,.14l.09-.05s0,.09,0,.14l.09-.05s0,.09,0,.14l.09-.05s0,.09,0,.14l.09-.05s0,.09,0,.14l.09-.05s0,.09,0,.14l.09-.05s0,.09,0,.14l.09-.05s0,.09,0,.14l.09-.05s0,.09,0,.14l.09-.05s0,.09,0,.14l.09-.05s0,.09,0,.14l.09-.05s0,.09,0,.14l.09-.05s0,.09,0,.14l.09-.05s0,.09,0,.14l.09-.05s0,.09,0,.14l.09-.05s0,.09,0,.14l.09-.05s0,.09,0,.14l.09-.05s0,.09,0,.14l.09-.05s0,.09,0,.14l.09-.05s0,.09,0,.14l.09-.05s0,.09,0,.14l.09-.05s0,.09,0,.14l.09-.05s0,.09,0,.14l.09-.05s0,.09,0,.14l.09-.05s0,.09,0,.14l.09-.05s0,.09,0,.14l.09-.05s0,.09,0,.14l.09-.05s0,.09,0,.14l.09-.05s0,.09,0,.14l.09-.05s0,.09,0,.14l.09-.05s0,.09,0,.14l.09-.05s0,.09,0,.14l.09-.05s0,.09,0,.14l.09-.05s0,.09,0,.14l.09-.05s0,.09,0,.14l.09-.05s0,.09,0,.14l.09-.05s0,.09,0,.14l.09-.05s0,.09,0,.14l.09-.05s0,.09,0,.14l.09-.05s0,.09,0,.14l.09-.05s0,.09,0,.14l.09-.05s0,.09,0,.14l.09-.05s0,.09,0,.14l.09-.05s0,.09,0,.14l.09-.05s0,.09,0,.14l.07-.04v1.04c-2.08-.2-4.13-.56-6.15-1.03.25-.66,1.13-.71,1.2-1.44-.03-.01-.08-.02-.12-.03,0-.02.01-.04.02-.06-.03-.01-.08-.02-.12-.03,0-.02.01-.04.02-.06-.03-.01-.08-.02-.12-.03,0-.02.01-.04.02-.06-.03-.01-.08-.02-.12-.03,0-.02.01-.04.02-.06-.03-.01-.08-.02-.12-.03,0-.02.01-.04.02-.06-.03-.01-.08-.02-.12-.03,0-.02.01-.04.02-.06-.03-.01-.08-.02-.12-.03,0-.02.01-.04.02-.06-.03-.01-.08-.02-.12-.03,0-.02.01-.04.02-.06-.03-.01-.08-.02-.12-.03,0-.02.01-.04.02-.06-.03-.01-.08-.02-.12-.03,0-.02.01-.04.02-.06-.03-.01-.08-.02-.12-.03,0-.02.01-.04.02-.06-.03-.01-.08-.02-.12-.03,0-.02.01-.04.02-.06-.03-.01-.08-.02-.12-.03,0-.02.01-.04.02-.06-.03-.01-.08-.02-.12-.03,0-.02.01-.04.02-.06-.03-.01-.08-.02-.12-.03,0-.02.01-.04.02-.06-.03-.01-.08-.02-.12-.03,0-.02.01-.04.02-.06-.03-.01-.08-.02-.12-.03,0-.02.01-.04.02-.06-.03-.01-.08-.02-.12-.03,0-.02.01-.04.02-.06-.03-.01-.08-.02-.12-.03,0-.02.01-.04.02-.06-.03-.01-.08-.02-.12-.03,0-.02.01-.04.02-.06-.03-.01-.08-.02-.12-.03,0-.02.01-.04.02-.06-.03-.01-.08-.02-.12-.03,0-.02.01-.04.02-.06-.03-.01-.08-.02-.12-.03,0-.02.01-.04.02-.06-.03-.01-.08-.02-.12-.03,0-.02.01-.04.02-.06-.03-.01-.08-.02-.12-.03,0-.02.01-.04.02-.06-.03-.01-.08-.02-.12-.03,0-.02.01-.04.02-.06-.03-.01-.08-.02-.12-.03,0-.02.01-.04.02-.06-.03-.01-.08-.02-.12-.03,0-.02.01-.04.02-.06-.03-.01-.08-.02-.12-.03,0-.02.01-.04.02-.06-.03-.01-.08-.02-.12-.03,0-.02.01-.04.02-.06-.03-.01-.08-.02-.12-.03,0-.02.01-.04.02-.06-.03-.01-.08-.02-.12-.03,0-.02.01-.04.02-.06-.03-.01-.08-.02-.12-.03,0-.02.01-.04.02-.06-.03-.01-.08-.02-.12-.03,0-.02.01-.04.02-.06-.03-.01-.08-.02-.12-.03,0-.02.01-.04.02-.06-.03-.01-.08-.02-.12-.03,0-.02.01-.04.02-.06-.03-.01-.08-.02-.12-.03,0-.02.01-.04.02-.06-.03-.01-.08-.02-.12-.03,0-.02.01-.04.02-.06-.03-.01-.08-.02-.12-.03,0-.02.01-.04.02-.06-.03-.01-.08-.02-.12-.03,0-.02.01-.04.02-.06-.03-.01-.08-.02-.12-.03,0-.02.01-.04.02-.06-.03-.01-.08-.02-.12-.03,0-.02.01-.04.02-.06-.03-.01-.08-.02-.12-.03,0-.02.01-.04.02-.06-.03-.01-.08-.02-.12-.03,0-.02.01-.04.02-.06-.03-.01-.08-.02-.12-.03,0-.02.01-.04.02-.06-.03-.01-.08-.02-.12-.03,0-.02.01-.04.02-.06-.03-.01-.08-.02-.12-.03,0-.02.01-.04.02-.06-.03-.01-.08-.02-.12-.03,0-.02.01-.04.02-.06-.03-.01-.08-.02-.12-.03,0-.02.01-.04.02-.06-.03-.01-.08-.02-.12-.03,0-.02.01-.04.02-.06-.03-.01-.08-.02-.12-.03,0-.02.01-.04.02-.06-.03-.01-.08-.02-.12-.03,0-.02.01-.04.02-.06-.03-.01-.08-.02-.12-.03,0-.02.01-.04.02-.06-.03-.01-.08-.02-.12-.03,0-.02.01-.04.02-.06-.03-.01-.08-.02-.12-.03,0-.02.01-.04.02-.06-.03-.01-.08-.02-.12-.03,0-.02.01-.04.02-.06-.03-.01-.08-.02-.12-.03,0-.02.01-.04.02-.06-.03-.01-.08-.02-.12-.03,0-.02.01-.04.02-.06-.03-.01-.08-.02-.12-.03,0-.02.01-.04.02-.06-.03-.01-.08-.02-.12-.03,0-.02.01-.04.02-.06-.03-.01-.08-.02-.12-.03,0-.02.01-.04.02-.06-.03-.01-.08-.02-.12-.03,0-.02.01-.04.02-.06-.03-.01-.08-.02-.12-.03,0-.02.01-.04.02-.06-.03-.01-.08-.02-.12-.03,0-.02.01-.04.02-.06-.03-.01-.08-.02-.12-.03,0-.02.01-.04.02-.06-.03-.01-.08-.02-.12-.03,0-.02.01-.04.02-.06-.03-.01-.08-.02-.12-.03,0-.02.01-.04.02-.06-.03-.01-.08-.02-.12-.03,0-.02.01-.04.02-.06-.03-.01-.08-.02-.12-.03,0-.02.01-.04.02-.06-.03-.01-.08-.02-.12-.03,0-.02.01-.04.02-.06-.03-.01-.08-.02-.12-.03,0-.02.01-.04.02-.06-.03-.01-.08-.02-.12-.03,0-.02.01-.04.02-.06-.03-.01-.08-.02-.12-.03,0-.02.01-.04.02-.06-.03-.01-.08-.02-.12-.03,0-.02.01-.04.02-.06-.03-.01-.08-.02-.12-.03,0-.02.01-.04.02-.06-.03-.01-.08-.02-.12-.03,0-.02.01-.04.02-.06-.03-.01-.08-.02-.12-.03,0-.02.01-.04.02-.06-.03-.01-.08-.02-.12-.03,0-.02.01-.04.02-.06-.03-.01-.08-.02-.12-.03,0-.02.01-.04.02-.06-.03-.01-.08-.02-.12-.03,0-.02.01-.04.02-.06-.03-.01-.08-.02-.12-.03,0-.02.01-.04.02-.06-.03-.01-.08-.02-.12-.03,0-.02.01-.04.02-.06-.03-.01-.08-.02-.12-.03,0-.02.01-.04.02-.06-.03-.01-.08-.02-.12-.03,0-.02.01-.04.02-.06-.03-.01-.08-.02-.12-.03,0-.02.01-.04.02-.06-.03-.01-.08-.02-.12-.03,0-.02.01-.04.02-.06-.03-.01-.08-.02-.12-.03,0-.02.01-.04.02-.06-.03-.01-.08-.02-.12-.03,0-.02.01-.04.02-.06-.03-.01-.08-.02-.12-.03,0-.02.01-.04.02-.06-.18-.06-.46-.09-.75-.12-.03-.03-.05-.05-.07-.06-.04-.04-.07-.07-.1-.09-.04-.04-.07-.07-.1-.09-.04-.04-.07-.07-.1-.09-.04-.04-.07-.07-.1-.09-.04-.04-.07-.07-.1-.09-.04-.04-.07-.07-.1-.09-.04-.04-.07-.07-.1-.09-.04-.04-.07-.07-.1-.09-.04-.04-.07-.07-.1-.09-.04-.04-.07-.07-.1-.09-.04-.04-.07-.07-.1-.09-.04-.04-.07-.07-.1-.09-.04-.04-.07-.07-.1-.09-.04-.04-.07-.07-.1-.09-.04-.04-.07-.07-.1-.09-.04-.04-.07-.07-.1-.09-.04-.04-.07-.07-.1-.09-.04-.04-.07-.07-.1-.09-.04-.04-.07-.07-.1-.09-.07-.09-.14-.13-.19-.09l-.92,1.74-.61.09s-.04,0-.06,0c.02-.03.03-.06.01-.08-.04,0-.08,0-.12-.01.02-.03.03-.06.01-.08-.04,0-.08,0-.12-.01.02-.03.03-.06.01-.08-.04,0-.08,0-.12-.01.02-.03.03-.06.01-.08-.04,0-.08,0-.12-.01.02-.03.03-.06.01-.08-.04,0-.08,0-.12-.01.02-.03.03-.06.01-.08-.04,0-.08,0-.12-.01.02-.03.03-.06.01-.08-.04,0-.08,0-.12-.01.02-.03.03-.06.01-.08-.04,0-.08,0-.12-.01.02-.03.03-.06.01-.08-.04,0-.08,0-.12-.01.02-.03.03-.06.01-.08-.04,0-.08,0-.12-.01.02-.03.03-.06.01-.08-.04,0-.08,0-.12-.01.02-.03.03-.06.01-.08-.04,0-.08,0-.12-.01.02-.03.03-.06.01-.08-.04,0-.08,0-.12-.01.02-.03.03-.06.01-.08-.04,0-.08,0-.12-.01.02-.03.03-.06.01-.08-.04,0-.08,0-.12-.01.02-.03.03-.06.01-.08-.04,0-.08,0-.12-.01.02-.03.03-.06.01-.08-.04,0-.08,0-.12-.01.02-.03.03-.06.01-.08-.04,0-.08,0-.12-.01.02-.03.03-.06.01-.08-.04,0-.08,0-.12-.01.02-.03.03-.06.01-.08-.04,0-.08,0-.12-.01.02-.03.03-.06.01-.08-.04,0-.08,0-.12-.01.02-.03.03-.06.01-.08-.04,0-.08,0-.12-.01.02-.03.03-.06.01-.08-.04,0-.08,0-.12-.01.02-.03.03-.06.01-.08-.04,0-.08,0-.12-.01.02-.03.03-.06.01-.08-.04,0-.08,0-.12-.01.02-.03.03-.06.01-.08-.04,0-.08,0-.12-.01.02-.03.03-.06.01-.08-.04,0-.08,0-.12-.01.02-.03.03-.06.01-.08-.04,0-.08,0-.12-.01.02-.03.03-.06.01-.08-.04,0-.08,0-.12-.01.02-.03.03-.06.01-.08-.04,0-.08,0-.12-.01.02-.03.03-.06.01-.08-.04,0-.08,0-.12-.01.02-.03.03-.06.01-.08-.04,0-.08,0-.12-.01.02-.03.03-.06.01-.08-.04,0-.08,0-.12-.01.02-.03.03-.06.01-.08-.04,0-.08,0-.12-.01.02-.03.03-.06.01-.08-.04,0-.08,0-.12-.01.02-.03.03-.06.01-.08-.04,0-.08,0-.12-.01.02-.03.03-.06.01-.08-.04,0-.08,0-.12-.01.02-.03.03-.06.01-.08-.04,0-.08,0-.12-.01.02-.03.03-.06.01-.08-.04,0-.08,0-.12-.01.02-.03.03-.06.01-.08-.04,0-.08,0-.12-.01.02-.03.03-.06.01-.08-.04,0-.08,0-.12-.01.02-.03.03-.06.01-.08-.04,0-.08,0-.12-.01.02-.03.03-.06.01-.08-.04,0-.08,0-.12-.01.02-.03.03-.06.01-.08-.04,0-.08,0-.12-.01.02-.03.03-.06.01-.08-.04,0-.08,0-.12-.01.02-.03.03-.06.01-.08-.04,0-.08,0-.12-.01.02-.03.03-.06.01-.08-.04,0-.08,0-.12-.01.02-.03.03-.06.01-.08-.04,0-.08,0-.12-.01.02-.03.03-.06.01-.08-.04,0-.08,0-.12-.01.02-.03.03-.06.01-.08-.04,0-.08,0-.12-.01.02-.03.03-.06.01-.08-.01,0-.02,0-.04,0,.15-.16.25-.34.23-.54h-.1s0-.07,0-.09h-.1s0-.07,0-.09h-.1s0-.07,0-.09h-.1s0-.07,0-.09h-.1s0-.07,0-.09h-.1s0-.07,0-.09h-.1s0-.07,0-.09h-.1s0-.07,0-.09h-.1s0-.07,0-.09h-.1s0-.07,0-.09h-.1s0-.07,0-.09h-.1s0-.07,0-.09h-.1s0-.07,0-.09h-.1s0-.07,0-.09h-.1s0-.07,0-.09h-.1s0-.07,0-.09h-.1s0-.07,0-.09h-.1s0-.07,0-.09h-.1s0-.07,0-.09h-.1s0-.07,0-.09h-.1s0-.07,0-.09h-.1s0-.07,0-.09h-.1s0-.07,0-.09h-.1s0-.07,0-.09h-.1s0-.07,0-.09h-.1s0-.07,0-.09h-.1s0-.07,0-.09h-.1s0-.07,0-.09h-.1s0-.07,0-.09h-.1s0-.07,0-.09h-.1s0-.07,0-.09h-.1s0-.07,0-.09h-.1s0-.07,0-.09h-.1s0-.07,0-.09h-.1s0-.07,0-.09h-.1s0-.07,0-.09h-.1s0-.07,0-.09h-.1s0-.07,0-.09h-.1s0-.07,0-.09h-.1s0-.07,0-.09h-.1s0-.07,0-.09h-.1s0-.07,0-.09h-.1s0-.07,0-.09h-.1s0-.07,0-.09h-.1s0-.07,0-.09h-.1s0-.07,0-.09h-.1s0-.07,0-.09h-.1s0-.07,0-.09h-.1s0-.07,0-.09h-.1s0-.07,0-.09h-.1s0-.07,0-.09h-.1s0-.07,0-.09h-.1s0-.07,0-.09h-.1s0-.07,0-.09h-.1s0-.07,0-.09h-.1s0-.07,0-.09h-.1s0-.07,0-.09h-.1s0-.07,0-.09h-.1s0-.07,0-.09h-.1s0-.07,0-.09h-.1s0-.07,0-.09h-.1s0-.07,0-.09h-.1s0-.07,0-.09h-.1s0-.07,0-.09h-.1s0-.07,0-.09h-.1s0-.07,0-.09h-.1s0-.07,0-.09h-.1s0-.07,0-.09h-.1s0-.07,0-.09h-.1s0-.07,0-.09h-.1s0-.07,0-.09h-.1s0-.07,0-.09h-.1s0-.07,0-.09h-.1s0-.07,0-.09h-.1s0-.07,0-.09h-.1s0-.07,0-.09h-.1s0-.07,0-.09h-.1s0-.07,0-.09h-.1s0-.07,0-.09h-.1s0-.07,0-.09h-.1s0-.07,0-.09h-.1s0-.07,0-.09h-.1s0-.07,0-.09h-.1s0-.07,0-.09h-.1s0-.07,0-.09h-.1s0-.07,0-.09h-.1s0-.07,0-.09h-.1s0-.07,0-.09h-.1s0-.07,0-.09l-.88-.13v-.02c.28-.08.58-.15.88-.21,1.84-.39,3.67-.58,5.48-.63ZM70.84,43.66h0s0,0,0,0c0,0,0,0,0,0,0,0,0,0,0,0ZM94.19,75.68c14.52,3.89,23.18,6.47,38.73,4.33l20.11-3.41v2.05c-9.62,1.38-19.15,3.51-28.76,4.9-7.73,1.12-14.91,1.28-22.64,0-7.24-1.2-14.08-4.01-21.24-5.54-5.69-1.22-11.47-1.79-17.06-.88v-.11c9.57-6.05,20.58-4.08,30.86-1.32ZM63.33,92.69c9.56-5.72,20.06-4.09,30.27-1.38,14.87,3.96,23.36,6.65,39.32,4.46,6.72-.92,13.41-2.27,20.11-3.46v2.11l-30.02,5.11c-5.88.84-11.85,1.04-17.76.4-14.18-1.54-27.28-9.34-41.91-7.07v-.17ZM153.03,47.1l-30.38,5.11c-1.91.28-3.83.44-5.75.52v-2.23s6.52.19,6.52.19l7.31-.58,22.31-3.77v.76Z"/>
  <g id="qXR7ch">
    <g>
      <path class="cls-2" d="M54.75,100.02l-.03,64.44c-.31,2.57-3.76,2.6-4.04.18V37.33c.04-1.91,3.25-3.23,4.83-3.97,17.31-8.05,31.9,1.98,48.67,4.23s34.29-3.44,51.18-5.59c1.17.04,2.07.82,2.09,2.03v61.65c.03,2.5-3.74,2.43-5.66,2.78-8.94,1.64-18.32,3.34-27.3,4.61-8.09,1.14-15.87,1.2-23.94-.21-14.96-2.62-31.09-12-45.78-2.84ZM104.42,67.7v-25.96l-.3-.25c-13.78-1.46-26.79-9.5-40.97-6.54-3.04.63-5.67,1.91-8.44,3.21v25.68c1.68-.59,3.28-1.36,5-1.88,7.41-2.25,14.54-1.54,21.97.14s14.93,4.86,22.74,5.6ZM153.39,36.33l-31.3,5.3-7.31.58-6.52-.19v10s.17.38.17.38c4.85.18,9.75.2,14.57-.5l30.38-5.11v-10.46ZM153.39,50.82c-12.28,1.72-24.4,4.61-36.77,5.69-2.26-.07-4.54.07-6.8,0-.31,0-1.55-.41-1.55.08v11.37c.71.53,1.94.22,2.85.27,3.01.17,5.95.05,8.98-.18l33.29-5.5v-11.74ZM153.39,66.6l-29.1,4.93c-15.55,2.15-24.21-.44-38.73-4.33-10.28-2.75-21.29-4.73-30.86,1.32v11.28c8.17-4.37,17.24-4,26.05-2.11,7.16,1.53,14,4.34,21.24,5.54,7.73,1.28,14.91,1.12,22.64,0,9.61-1.39,19.14-3.52,28.76-4.9v-11.74ZM153.39,82.37c-9.72,1.37-19.38,3.59-29.1,4.92-15.96,2.19-24.45-.5-39.32-4.46-10.2-2.72-20.7-4.34-30.27,1.38v11.19c2.59-1.12,5.24-2.18,8.04-2.69,15.02-2.77,28.38,5.33,42.87,6.91,5.91.64,11.89.44,17.76-.4l30.02-5.11v-11.74Z"/>
      <path class="cls-2" d="M100.75,55.78c.28.24-1.16,1.28-1.25,1.6-.14.5.2,1.38.34,1.88l-1.92-.85-1.74.85c-.09-.65.35-1.45.19-2.07-.02-.09-1.54-1.21-1.29-1.41l1.98-.22.77-1.8c.98,1.25.92,2.26,2.93,2.02Z"/>
      <path class="cls-2" d="M70.16,53.9l1.97.23c.28.25-1.17,1.28-1.26,1.6-.11.4.23,1.43.34,1.88-.67.11-1.38-.72-1.93-.72-.34,0-1.67,1-1.74.9.32-1.69.3-2.31-1.1-3.39.48-.52,1.42-.1,2.01-.56.43-.33.35-1.2.83-1.55l.87,1.6Z"/>
      <path class="cls-2" d="M63.15,40.55c.28.25-1.17,1.28-1.26,1.6-.1.4.23,1.43.34,1.88-.21.17-1.36-.77-1.91-.73-.39.03-1.61.89-1.76.73l.14-2.07-1.24-1.41,1.98-.22.77-1.8c.99,1.31.91,2.17,2.93,2.02Z"/>
      <path class="cls-2" d="M80.06,40.32c.3.22,1.55.22,1.97.23l-1.24,1.41.14,2.07c-.15.16-1.36-.71-1.76-.73-.65-.04-1.26.7-1.91.73-.09-.09.46-1.45.34-1.88-.09-.32-1.54-1.35-1.26-1.6,1.91.12,2.03-.59,2.84-2.02.27.28.68,1.65.87,1.79Z"/>
      <path class="cls-2" d="M77.27,49.36c.38,1.75,1.15,1.84,2.75,2.02.11.15-1.28,1.23-1.37,1.46-.14.38.42,1.82.26,2.03-.53-.11-1.26-.9-1.74-.9-.55,0-1.26.84-1.93.72.46-1.55.6-2.16-.92-3.03-.14-.59,1.01-.41,1.34-.5.83-.2.81-.98,1.19-1.56.11-.18-.02-.33.41-.24Z"/>
      <path class="cls-2" d="M61.17,50.41c.32.3,1.5.26,1.97.41l-1.21,1.46.3,2.03-1.9-.88-1.77.88c.46-1.78.14-2.29-1.1-3.48l1.84-.28.92-1.74c.25-.19.84,1.49.96,1.6Z"/>
      <path class="cls-2" d="M72.13,43.49c.08.65-1.14,1.05-1.26,1.41-.16.49.43,1.99.34,2.08l-1.9-.87-1.77.88c.38-1.8.19-2.27-1.1-3.48,1.64-.03,2.37-.35,2.75-2.02l1.1,1.75,1.84.27Z"/>
      <path class="cls-2" d="M88.5,56.65c.32.3,1.5.26,1.97.41-.08.78-1.11.77-1.25,1.6-.1.58.3,1.3.34,1.88l-1.9-.88-1.77.88c.38-1.8.19-2.27-1.1-3.48l1.84-.28.92-1.74c.25-.19.84,1.49.96,1.6Z"/>
      <path class="cls-2" d="M88.5,45.64c.37.36,1.73.16,1.97.42.27.29-1.26,1.02-1.25,1.41-.22.49.35,1.48.33,1.8-.02.35-.25.19-.45.09-.37-.18-1.05-.73-1.44-.7-.29.02-1.71.96-1.77.88l.26-2.03-1.37-1.46,1.84-.28.92-1.74c.25-.19.84,1.49.96,1.6Z"/>
      <path class="cls-2" d="M100.75,46.05c.11.11-1.17,1.13-1.25,1.42-.13.44.52,2.08.06,2.06-1.31-1.27-2.02-.78-3.39,0,.38-1.8.19-2.27-1.1-3.48l1.94-.35.81-1.67,1.1,1.75,1.84.27Z"/>
    </g>
  </g>
</svg>