<?xml version="1.0" encoding="UTF-8"?>
<svg id="Layer_1" data-name="Layer 1" xmlns="http://www.w3.org/2000/svg" viewBox="0 0 200 200">
  <defs>
    <style>
      .cls-1 {
        fill: #b3b3b3;
      }

      .cls-2 {
        fill: #fff;
      }
    </style>
  </defs>
  <g>
    <path class="cls-1" d="M151.23,125.41c-.45-1.46-1.2-2.62-2.14-3.39-.02-.02-.04-.03-.06-.05-.02-.02-.04-.03-.06-.05-.02-.02-.04-.03-.06-.05-.02-.02-.04-.03-.06-.05-.02-.02-.04-.03-.06-.05-.02-.02-.04-.03-.06-.05-.02-.02-.04-.03-.06-.05-.02-.02-.04-.03-.06-.05-.02-.02-.04-.03-.06-.05-.02-.02-.04-.03-.06-.05-.02-.02-.04-.03-.06-.05-.02-.02-.04-.03-.06-.05-.02-.02-.04-.03-.06-.05-.02-.02-.04-.03-.06-.05-.02-.02-.04-.03-.06-.05-.02-.02-.04-.03-.06-.05-.02-.02-.04-.03-.06-.05-.02-.02-.04-.03-.06-.05-.02-.02-.04-.03-.06-.05-.02-.02-.04-.03-.06-.05-.02-.02-.04-.03-.06-.05-.02-.02-.04-.03-.06-.05-.02-.02-.04-.03-.06-.05-.02-.02-.04-.03-.06-.05-.02-.02-.04-.03-.06-.05-.02-.02-.04-.03-.06-.05-.02-.02-.04-.03-.06-.05-.02-.02-.04-.03-.06-.05-.02-.02-.04-.03-.06-.05-.02-.02-.04-.03-.06-.05-.02-.02-.04-.03-.06-.05-.02-.02-.04-.03-.06-.05-.02-.02-.04-.03-.06-.05-.02-.02-.04-.03-.06-.05-.02-.02-.04-.03-.06-.05-.02-.02-.04-.03-.06-.05-.02-.02-.04-.03-.06-.05-.02-.02-.04-.03-.06-.05-.02-.02-.04-.03-.06-.05-.02-.02-.04-.03-.06-.05-.02-.02-.04-.03-.06-.05-.02-.02-.04-.03-.06-.05-.02-.02-.04-.03-.06-.05-.02-.02-.04-.03-.06-.05-.02-.02-.04-.03-.06-.05-.02-.02-.04-.03-.06-.05-.02-.02-.04-.03-.06-.05-.02-.02-.04-.03-.06-.05-.02-.02-.04-.03-.06-.05-.02-.02-.04-.03-.06-.05-.02-.02-.04-.03-.06-.05-.02-.02-.04-.03-.06-.05-.02-.02-.04-.03-.06-.05-.02-.02-.04-.03-.06-.05-.02-.02-.04-.03-.06-.05-.02-.02-.04-.03-.06-.05-.02-.02-.04-.03-.06-.05-.02-.02-.04-.03-.06-.05-.02-.02-.04-.03-.06-.05-.02-.02-.04-.03-.06-.05-.02-.02-.04-.03-.06-.05-.02-.02-.04-.03-.06-.05-.02-.02-.04-.03-.06-.05-.02-.02-.04-.03-.06-.05-.02-.02-.04-.03-.06-.05-.02-.02-.04-.03-.06-.05-.02-.02-.04-.03-.06-.05-.02-.02-.04-.03-.06-.05-.02-.02-.04-.03-.06-.05-.02-.02-.04-.03-.06-.05-.02-.02-.04-.03-.06-.05-.02-.02-.04-.03-.06-.05-.02-.02-.04-.03-.06-.05-.02-.02-.04-.03-.06-.05-.02-.02-.04-.03-.06-.05-.02-.02-.04-.03-.06-.05-.02-.02-.04-.03-.06-.05-.02-.02-.04-.03-.06-.05-.02-.02-.04-.03-.06-.05-.02-.02-.04-.03-.06-.05-.73-.62-1.58-1-2.51-1.09-.77-.07-1.53.06-2.25.36v-6.67c.71-.35,3.01-.89,4.44-1.23,2.15-.51,3.5-.84,4.09-1.17.76-.43,1.29-1.2,1.35-1.96.07-.93-1.28-3.25-5.39-9.76-1.81-2.87-3.69-5.84-4.08-6.84l-.05-.09c-.32-.57-.43-1.16-.34-1.86.12-.94,3.7-4.76,5.62-6.8,1.11-1.18,2.07-2.2,2.56-2.82.15-.18.34-.41.55-.66,1.74-2.06,3.28-4.03,2.91-5.6-.08-.32-.26-.73-.69-1.06-.02-.02-.04-.03-.06-.05-.02-.02-.04-.03-.06-.05-.02-.02-.04-.03-.06-.05-.02-.02-.04-.03-.06-.05-.02-.02-.04-.03-.06-.05-.02-.02-.04-.03-.06-.05-.02-.02-.04-.03-.06-.05-.02-.02-.04-.03-.06-.05-.02-.02-.04-.03-.06-.05-.02-.02-.04-.03-.06-.05-.02-.02-.04-.03-.06-.05-.02-.02-.04-.03-.06-.05-.02-.02-.04-.03-.06-.05-.02-.02-.04-.03-.06-.05-.02-.02-.04-.03-.06-.05-.02-.02-.04-.03-.06-.05-.02-.02-.04-.03-.06-.05-.02-.02-.04-.03-.06-.05-.02-.02-.04-.03-.06-.05-.02-.02-.04-.03-.06-.05-.02-.02-.04-.03-.06-.05-.02-.02-.04-.03-.06-.05-.02-.02-.04-.03-.06-.05-.02-.02-.04-.03-.06-.05-.02-.02-.04-.03-.06-.05-.02-.02-.04-.03-.06-.05-.02-.02-.04-.03-.06-.05-.02-.02-.04-.03-.06-.05-.02-.02-.04-.03-.06-.05-.02-.02-.04-.03-.06-.05-.02-.02-.04-.03-.06-.05-.02-.02-.04-.03-.06-.05-.02-.02-.04-.03-.06-.05-.02-.02-.04-.03-.06-.05-.02-.02-.04-.03-.06-.05-.02-.02-.04-.03-.06-.05-.02-.02-.04-.03-.06-.05-.02-.02-.04-.03-.06-.05-.02-.02-.04-.03-.06-.05-.02-.02-.04-.03-.06-.05-.02-.02-.04-.03-.06-.05-.02-.02-.04-.03-.06-.05-.02-.02-.04-.03-.06-.05-.02-.02-.04-.03-.06-.05-.02-.02-.04-.03-.06-.05-.02-.02-.04-.03-.06-.05-.02-.02-.04-.03-.06-.05-.02-.02-.04-.03-.06-.05-.02-.02-.04-.03-.06-.05-.02-.02-.04-.03-.06-.05-.02-.02-.04-.03-.06-.05-.02-.02-.04-.03-.06-.05-.02-.02-.04-.03-.06-.05-.02-.02-.04-.03-.06-.05-.02-.02-.04-.03-.06-.05-.02-.02-.04-.03-.06-.05-.02-.02-.04-.03-.06-.05-.02-.02-.04-.03-.06-.05-.02-.02-.04-.03-.06-.05-.02-.02-.04-.03-.06-.05-.02-.02-.04-.03-.06-.05-.02-.02-.04-.03-.06-.05-.02-.02-.04-.03-.06-.05-.02-.02-.04-.03-.06-.05-.02-.02-.04-.03-.06-.05-.02-.02-.04-.03-.06-.05-.02-.02-.04-.03-.06-.05-.02-.02-.04-.03-.06-.05-.02-.02-.04-.03-.06-.05-.02-.02-.04-.03-.06-.05-.02-.02-.04-.03-.06-.05-.02-.02-.04-.03-.06-.05-.02-.02-.04-.03-.06-.05-.02-.02-.04-.03-.06-.05-.02-.02-.04-.03-.06-.05-.02-.02-.04-.03-.06-.05-.02-.02-.04-.03-.06-.05-.02-.02-.04-.03-.06-.05-.02-.02-.04-.03-.06-.05-.02-.02-.04-.03-.06-.05-.15-.13-.34-.24-.57-.34l-40.37-10.77-2.05.88-9.37,12.92-8.01-9.3h-.01s-.04-.05-.04-.05h-.01s-.04-.05-.04-.05h-.01s-.04-.05-.04-.05h-.01s-.04-.05-.04-.05h-.01s-.04-.05-.04-.05h-.01s-.04-.05-.04-.05h-.01s-.04-.05-.04-.05h-.01s-.04-.05-.04-.05h-.01s-.04-.05-.04-.05h-.01s-.04-.05-.04-.05h-.01s-.04-.05-.04-.05h-.01s-.04-.05-.04-.05h-.01s-.04-.05-.04-.05h-.01s-.04-.05-.04-.05h-.01s-.04-.05-.04-.05h-.01s-.04-.05-.04-.05h-.01s-.04-.05-.04-.05h-.01s-.04-.05-.04-.05h-.01s-.04-.05-.04-.05h-.01s-.04-.05-.04-.05h-.01s-.04-.05-.04-.05h-.01s-.04-.05-.04-.05h-.01s-.04-.05-.04-.05h-.01s-.04-.05-.04-.05h-.01s-.04-.05-.04-.05h-.01s-.04-.05-.04-.05h-.01s-.04-.05-.04-.05h-.01s-.04-.05-.04-.05h-.01s-.04-.05-.04-.05h-.01s-.04-.05-.04-.05h-.01s-.04-.05-.04-.05h-.01s-.04-.05-.04-.05h-.01s-.04-.05-.04-.05h-.01s-.04-.05-.04-.05h-.01s-.04-.05-.04-.05h-.01s-.04-.05-.04-.05h-.01s-.04-.05-.04-.05h-.01s-.04-.05-.04-.05h-.01s-.04-.05-.04-.05h-.01s-.04-.05-.04-.05h-.01s-.04-.05-.04-.05h-.01s-.04-.05-.04-.05h-.01s-.04-.05-.04-.05h-.01s-.04-.05-.04-.05h-.01s-.04-.05-.04-.05h-.01s-.04-.05-.04-.05h-.01s-.04-.05-.04-.05h-.01s-.04-.05-.04-.05h-.01s-.04-.05-.04-.05h-.01s-.04-.05-.04-.05h-.01s-.04-.05-.04-.05h-.01s-.04-.05-.04-.05h-.01s-.04-.05-.04-.05h-.01s-.04-.05-.04-.05h-.01s-.04-.05-.04-.05h-.01s-.04-.05-.04-.05h-.01s-.04-.05-.04-.05h-.01s-.04-.05-.04-.05h-.01s-.04-.05-.04-.05h-.01s-.04-.05-.04-.05h-.01s-.04-.05-.04-.05h-.01s-.04-.05-.04-.05h-.01s-.04-.05-.04-.05h-.01s-.04-.05-.04-.05h-.01s-.04-.05-.04-.05h-.01s-.04-.05-.04-.05h-.01s-.04-.05-.04-.05h-.01s-.04-.05-.04-.05h-.01s-.04-.05-.04-.05h-.01s-.04-.05-.04-.05h-.01s-.04-.05-.04-.05h-.01s-.04-.05-.04-.05h-.01s-.04-.05-.04-.05h-.01s-.04-.05-.04-.05h-.01s-.04-.05-.04-.05h-.01s-.04-.05-.04-.05h-.01s-.04-.05-.04-.05h-.01s-.04-.05-.04-.05h-.01s-.04-.05-.04-.05h-.01s-.04-.05-.04-.05h-.01s-.04-.05-.04-.05l-39.8,9.66-.19.05-.14.14c-.4.39-1.33,1.45-1.2,2.77.13,1.3,2.23,3.76,5.65,7.66,2.26,2.58,5.35,6.1,5.49,7.12.05.82-2.35,4.88-4.11,7.85-2.61,4.42-5.32,8.99-5.46,11.04v.06s0,.06,0,.06c.06.63.4,1.13.94,1.53.02.02.04.03.06.05.02.02.04.03.06.05.02.02.04.03.06.05.02.02.04.03.06.05.02.02.04.03.06.05.02.02.04.03.06.05.02.02.04.03.06.05.02.02.04.03.06.05.02.02.04.03.06.05.02.02.04.03.06.05.02.02.04.03.06.05.02.02.04.03.06.05.02.02.04.03.06.05.02.02.04.03.06.05.02.02.04.03.06.05.02.02.04.03.06.05.02.02.04.03.06.05.02.02.04.03.06.05.02.02.04.03.06.05.02.02.04.03.06.05.02.02.04.03.06.05.02.02.04.03.06.05.02.02.04.03.06.05.02.02.04.03.06.05.02.02.04.03.06.05.02.02.04.03.06.05.02.02.04.03.06.05.02.02.04.03.06.05.02.02.04.03.06.05.02.02.04.03.06.05.02.02.04.03.06.05.02.02.04.03.06.05.02.02.04.03.06.05.02.02.04.03.06.05.02.02.04.03.06.05.02.02.04.03.06.05.02.02.04.03.06.05.02.02.04.03.06.05.02.02.04.03.06.05.02.02.04.03.06.05.02.02.04.03.06.05.02.02.04.03.06.05.02.02.04.03.06.05.02.02.04.03.06.05.02.02.04.03.06.05.02.02.04.03.06.05.02.02.04.03.06.05.02.02.04.03.06.05.02.02.04.03.06.05.02.02.04.03.06.05.02.02.04.03.06.05.02.02.04.03.06.05.02.02.04.03.06.05.02.02.04.03.06.05.02.02.04.03.06.05.02.02.04.03.06.05.02.02.04.03.06.05.02.02.04.03.06.05.02.02.04.03.06.05.02.02.04.03.06.05.02.02.04.03.06.05.02.02.04.03.06.05.02.02.04.03.06.05.02.02.04.03.06.05.02.02.04.03.06.05.02.02.04.03.06.05.02.02.04.03.06.05.02.02.04.03.06.05.02.02.04.03.06.05.02.02.04.03.06.05.02.02.04.03.06.05.02.02.04.03.06.05.02.02.04.03.06.05.02.02.04.03.06.05.02.02.04.03.06.05.02.02.04.03.06.05.02.02.04.03.06.05.02.02.04.03.06.05.02.02.04.03.06.05.02.02.04.03.06.05.86.68,2.25,1.1,3.76,1.45l.12,10.93s-.01-.01-.02-.02c-.02-.02-.04-.03-.06-.05-.02-.02-.04-.03-.06-.05-.02-.02-.04-.03-.06-.05-.02-.02-.04-.03-.06-.05-.02-.02-.04-.03-.06-.05-.02-.02-.04-.03-.06-.05-.02-.02-.04-.03-.06-.05-.02-.02-.04-.03-.06-.05-.02-.02-.04-.03-.06-.05-.02-.02-.04-.03-.06-.05-.02-.02-.04-.03-.06-.05-.02-.02-.04-.03-.06-.05-.02-.02-.04-.03-.06-.05-.02-.02-.04-.03-.06-.05-.02-.02-.04-.03-.06-.05-.02-.02-.04-.03-.06-.05-.02-.02-.04-.03-.06-.05-.02-.02-.04-.03-.06-.05-.02-.02-.04-.03-.06-.05-.02-.02-.04-.03-.06-.05-.02-.02-.04-.03-.06-.05-.02-.02-.04-.03-.06-.05-.02-.02-.04-.03-.06-.05-.02-.02-.04-.03-.06-.05-.02-.02-.04-.03-.06-.05-.02-.02-.04-.03-.06-.05-.02-.02-.04-.03-.06-.05-.02-.02-.04-.03-.06-.05-.02-.02-.04-.03-.06-.05-.02-.02-.04-.03-.06-.05-.02-.02-.04-.03-.06-.05-.02-.02-.04-.03-.06-.05-.02-.02-.04-.03-.06-.05-.02-.02-.04-.03-.06-.05-.02-.02-.04-.03-.06-.05-.02-.02-.04-.03-.06-.05-.02-.02-.04-.03-.06-.05-.02-.02-.04-.03-.06-.05-.02-.02-.04-.03-.06-.05-.02-.02-.04-.03-.06-.05-.02-.02-.04-.03-.06-.05-.02-.02-.04-.03-.06-.05-.02-.02-.04-.03-.06-.05-.02-.02-.04-.03-.06-.05-.02-.02-.04-.03-.06-.05-.02-.02-.04-.03-.06-.05-.02-.02-.04-.03-.06-.05-.02-.02-.04-.03-.06-.05-.02-.02-.04-.03-.06-.05-.02-.02-.04-.03-.06-.05-.02-.02-.04-.03-.06-.05-.02-.02-.04-.03-.06-.05-.02-.02-.04-.03-.06-.05-.02-.02-.04-.03-.06-.05-.02-.02-.04-.03-.06-.05-.02-.02-.04-.03-.06-.05-1.13-.99-2.45-1.48-3.79-1.34-2.08.2-3.79,1.86-4.59,4.43-1.23,3.98-.67,15.86-.09,20.02,1.26,9.05,6.65,17.58,11.87,25.82,2.39,3.79,4.66,7.37,6.51,10.94l-2.2,1.07h.16l-.1.05h.16l-.1.05h.16l-.1.05h.16l-.1.05h.16l-.1.05h.16l-.1.05h.16l-.1.05h.16l-.1.05h.16l-.1.05h.16l-.1.05h.16l-.1.05h.16l-.1.05h.16l-.1.05h.16l-.1.05h.16l-.1.05h.16l-.1.05h.16l-.1.05h.16l-.1.05h.16l-.1.05h.16l-.1.05h.16l-.1.05h.16l-.1.05h.16l-.1.05h.16l-.1.05h.16l-.1.05h.16l-.1.05h.16l-.1.05h.16l-.1.05h.16l-.1.05h.16l-.1.05h.16l-.1.05h.16l-.1.05h.16l-.1.05h.16l-.1.05h.16l-.1.05h.16l-.1.05h.16l-.1.05h.16l-.1.05h.16l-.1.05h.16l-.1.05h.16l-.1.05h.16l-.1.05h.16l-.1.05h.16l-.1.05h.16l-.1.05h.16l-.1.05h.16l-.1.05h.16l-.1.05h.16l-.1.05h.16l-.1.05h.16l-.1.05h.16l-.1.05h.16l-.1.05h.16l-.1.05h.16l-.1.05h.16l-.1.05h.16l-.1.05h.16l-.1.05h.16l-.1.05h.16l-.1.05h.16l-.1.05h.16l-.1.05h.16l-.1.05h.16l-.1.05h.16l-.1.05h.16l-.1.05h.16l-.1.05h.16l-.1.05h.16l-.1.05h.16l-.1.05h.16l-.1.05h.16l-.1.05h.16l-.1.05h.16l-.1.05h.16l-.1.05h.16l-.1.05h.16l-.1.05h.16l-.1.05h.16l-.1.05h.16l-.1.05h.16l-.1.05h6.24l.05-.67c.07-.93-.29-1.67-.62-2.32l-.03-.07c-1.91-3.83-4.39-7.72-6.78-11.49-3.89-6.11-7.92-12.44-9.89-18.98-.76-2.52-1.36-6.3-1.67-10.19,1.39,5.22,10.77,15.88,14.84,19.31.02.02.04.03.06.05.02.02.04.03.06.05.02.02.04.03.06.05.02.02.04.03.06.05.02.02.04.03.06.05.02.02.04.03.06.05.02.02.04.03.06.05.02.02.04.03.06.05.02.02.04.03.06.05.02.02.04.03.06.05.02.02.04.03.06.05.02.02.04.03.06.05.02.02.04.03.06.05.02.02.04.03.06.05.02.02.04.03.06.05.02.02.04.03.06.05.02.02.04.03.06.05.02.02.04.03.06.05.02.02.04.03.06.05.02.02.04.03.06.05.02.02.04.03.06.05.02.02.04.03.06.05.02.02.04.03.06.05.02.02.04.03.06.05.02.02.04.03.06.05.02.02.04.03.06.05.02.02.04.03.06.05.02.02.04.03.06.05.02.02.04.03.06.05.02.02.04.03.06.05.02.02.04.03.06.05.02.02.04.03.06.05.02.02.04.03.06.05.02.02.04.03.06.05.02.02.04.03.06.05.02.02.04.03.06.05.02.02.04.03.06.05.02.02.04.03.06.05.02.02.04.03.06.05.02.02.04.03.06.05.02.02.04.03.06.05.02.02.04.03.06.05.02.02.04.03.06.05.02.02.04.03.06.05.02.02.04.03.06.05.02.02.04.03.06.05.02.02.04.03.06.05.02.02.04.03.06.05.02.02.04.03.06.05.02.02.04.03.06.05.02.02.04.03.06.05.02.02.04.03.06.05.02.02.04.03.06.05.02.02.04.03.06.05.02.02.04.03.06.05.02.02.04.03.06.05.02.02.04.03.06.05.02.02.04.03.06.05.02.02.04.03.06.05.02.02.04.03.06.05.02.02.04.03.06.05.02.02.04.03.06.05.02.02.04.03.06.05.02.02.04.03.06.05.02.02.04.03.06.05.02.02.04.03.06.05.02.02.04.03.06.05.02.02.04.03.06.05.02.02.04.03.06.05.02.02.04.03.06.05.02.02.04.03.06.05.02.02.04.03.06.05.02.02.04.03.06.05.02.02.04.03.06.05.02.02.04.03.06.05.02.02.04.03.06.05.02.02.04.03.06.05.02.02.04.03.06.05.02.02.04.03.06.05.02.02.04.03.06.05.15.13.3.25.43.36,1.38,1.09,3.15,2.28,4.64,1.81.77-.24,1.31-.87,1.6-1.87.79-2.69-1.59-7.07-3.32-10.28-.31-.56-.58-1.07-.81-1.51-.29-.58-.74-1.31-1.27-2.16-1.57-2.56-4.2-6.84-3.32-8.89.24-.56.77-.95,1.59-1.17,4.27,5.68,10.19,16.42,12.09,22.11,1.85,5.56,2.44,11.11,1.85,17.49l-.07.8h.06v.05s.06,0,.06,0v.05s.06,0,.06,0v.05s.06,0,.06,0v.05s.06,0,.06,0v.05s.06,0,.06,0v.05s.06,0,.06,0v.05s.06,0,.06,0v.05s.06,0,.06,0v.05s.06,0,.06,0v.05s.06,0,.06,0v.05s.06,0,.06,0v.05s.06,0,.06,0v.05s.06,0,.06,0v.05s.06,0,.06,0v.05s.06,0,.06,0v.05s.06,0,.06,0v.05s.06,0,.06,0v.05s.06,0,.06,0v.05s.06,0,.06,0v.05s.06,0,.06,0v.05s.06,0,.06,0v.05s.06,0,.06,0v.05s.06,0,.06,0v.05s.06,0,.06,0v.05s.06,0,.06,0v.05s.06,0,.06,0v.05s.06,0,.06,0v.05s.06,0,.06,0v.05s.06,0,.06,0v.05s.06,0,.06,0v.05s.06,0,.06,0v.05s.06,0,.06,0v.05s.06,0,.06,0v.05s.06,0,.06,0v.05s.06,0,.06,0v.05s.06,0,.06,0v.05s.06,0,.06,0v.05s.06,0,.06,0v.05s.06,0,.06,0v.05s.06,0,.06,0v.05s.06,0,.06,0v.05s.06,0,.06,0v.05s.06,0,.06,0v.05s.06,0,.06,0v.05s.06,0,.06,0v.05s.06,0,.06,0v.05s.06,0,.06,0v.05s.06,0,.06,0v.05s.06,0,.06,0v.05s.06,0,.06,0v.05s.06,0,.06,0v.05s.06,0,.06,0v.05s.06,0,.06,0v.05s.06,0,.06,0v.05s.06,0,.06,0v.05s.06,0,.06,0v.05s.06,0,.06,0v.05s.06,0,.06,0v.05s.06,0,.06,0v.05s.06,0,.06,0v.05s.06,0,.06,0v.05s.06,0,.06,0v.05s.06,0,.06,0v.05s.06,0,.06,0v.05s.06,0,.06,0v.05s.06,0,.06,0v.05s.06,0,.06,0v.05s.06,0,.06,0v.05s.06,0,.06,0v.05s.06,0,.06,0v.05s.06,0,.06,0v.05s.06,0,.06,0v.05s.06,0,.06,0v.05s.06,0,.06,0v.05s.06,0,.06,0v.05s.06,0,.06,0v.05s.06,0,.06,0v.05s.06,0,.06,0v.05s.06,0,.06,0v.05s.06,0,.06,0v.05s3.82,0,3.82,0l.08-.64c.94-7.37-.14-15.26-3.05-22.22-.54-1.29-1.23-2.51-1.91-3.68-.63-1.1-1.24-2.16-1.72-3.27l15.7,4.81,8.07-2.6c-.2.41-.4.83-.58,1.25-2.92,6.99-4,14.74-3.05,21.82l.09.63h.05v.05h.06v.05h.06v.05h.06v.05h.06v.05h.06v.05h.06v.05h.06v.05h.06v.05h.06v.05h.06v.05h.06v.05h.06v.05h.06v.05h.06v.05h.06v.05h.06v.05h.06v.05h.06v.05h.06v.05h.06v.05h.06v.05h.06v.05h.06v.05h.06v.05h.06v.05h.06v.05h.06v.05h.06v.05h.06v.05h.06v.05h.06v.05h.06v.05h.06v.05h.06v.05h.06v.05h.06v.05h.06v.05h.06v.05h.06v.05h.06v.05h.06v.05h.06v.05h.06v.05h.06v.05h.06v.05h.06v.05h.06v.05h.06v.05h.06v.05h.06v.05h.06v.05h.06v.05h.06v.05h.06v.05h.06v.05h.06v.05h.06v.05h.06v.05h.06v.05h.06v.05h.06v.05h.06v.05h.06v.05h.06v.05h.06v.05h.06v.05h.06v.05h.06v.05h.06v.05h.06v.05h.06v.05h.06v.05h.06v.05h.06v.05h.06v.05h.06v.05h.06v.05h.06v.05h.06v.05h.06v.05h3.84l-.08-.8c-.6-6.06-.02-11.49,1.85-17.09,1.52-4.55,5.61-12.33,9.37-18.16-.1.18-.19.34-.27.5-.22.43-.5.94-.8,1.5-1.74,3.21-4.12,7.6-3.33,10.29.19.64.48,1.13.87,1.46.02.02.04.03.06.05.02.02.04.03.06.05.02.02.04.03.06.05.02.02.04.03.06.05.02.02.04.03.06.05.02.02.04.03.06.05.02.02.04.03.06.05.02.02.04.03.06.05.02.02.04.03.06.05.02.02.04.03.06.05.02.02.04.03.06.05.02.02.04.03.06.05.02.02.04.03.06.05.02.02.04.03.06.05.02.02.04.03.06.05.02.02.04.03.06.05.02.02.04.03.06.05.02.02.04.03.06.05.02.02.04.03.06.05.02.02.04.03.06.05.02.02.04.03.06.05.02.02.04.03.06.05.02.02.04.03.06.05.02.02.04.03.06.05.02.02.04.03.06.05.02.02.04.03.06.05.02.02.04.03.06.05.02.02.04.03.06.05.02.02.04.03.06.05.02.02.04.03.06.05.02.02.04.03.06.05.02.02.04.03.06.05.02.02.04.03.06.05.02.02.04.03.06.05.02.02.04.03.06.05.02.02.04.03.06.05.02.02.04.03.06.05.02.02.04.03.06.05.02.02.04.03.06.05.02.02.04.03.06.05.02.02.04.03.06.05.02.02.04.03.06.05.02.02.04.03.06.05.02.02.04.03.06.05.02.02.04.03.06.05.02.02.04.03.06.05.02.02.04.03.06.05.02.02.04.03.06.05.02.02.04.03.06.05.02.02.04.03.06.05.02.02.04.03.06.05.02.02.04.03.06.05.02.02.04.03.06.05.02.02.04.03.06.05.02.02.04.03.06.05.02.02.04.03.06.05.02.02.04.03.06.05.02.02.04.03.06.05.02.02.04.03.06.05.02.02.04.03.06.05.02.02.04.03.06.05.02.02.04.03.06.05.02.02.04.03.06.05.02.02.04.03.06.05.02.02.04.03.06.05.02.02.04.03.06.05.02.02.04.03.06.05.02.02.04.03.06.05.02.02.04.03.06.05.02.02.04.03.06.05.02.02.04.03.06.05.02.02.04.03.06.05.02.02.04.03.06.05.02.02.04.03.06.05.02.02.04.03.06.05.02.02.04.03.06.05.02.02.04.03.06.05.02.02.04.03.06.05.02.02.04.03.06.05.02.02.04.03.06.05.23.21.49.36.78.45,1.49.47,3.26-.72,4.64-1.81,2.8-2.22,8.86-8.78,12.48-14.25-2.2,5.48-5.46,10.73-8.65,15.85-2.7,4.34-5.5,8.82-7.54,13.32l-.47,1.03h.08l-.02.05h.08l-.02.05h.08l-.02.05h.08l-.02.05h.08l-.02.05h.08l-.02.05h.08l-.02.05h.08l-.02.05h.08l-.02.05h.08l-.02.05h.08l-.02.05h.08l-.02.05h.08l-.02.05h.08l-.02.05h.08l-.02.05h.08l-.02.05h.08l-.02.05h.08l-.02.05h.08l-.02.05h.08l-.02.05h.08l-.02.05h.08l-.02.05h.08l-.02.05h.08l-.02.05h.08l-.02.05h.08l-.02.05h.08l-.02.05h.08l-.02.05h.08l-.02.05h.08l-.02.05h.08l-.02.05h.08l-.02.05h.08l-.02.05h.08l-.02.05h.08l-.02.05h.08l-.02.05h.08l-.02.05h.08l-.02.05h.08l-.02.05h.08l-.02.05h.08l-.02.05h.08l-.02.05h.08l-.02.05h.08l-.02.05h.08l-.02.05h.08l-.02.05h.08l-.02.05h.08l-.02.05h.08l-.02.05h.08l-.02.05h.08l-.02.05h.08l-.02.05h.08l-.02.05h.08l-.02.05h.08l-.02.05h.08l-.02.05h.08l-.02.05h.08l-.02.05h.08l-.02.05h.08l-.02.05h.08l-.02.05h.08l-.02.05h.08l-.02.05h.08l-.02.05h.08l-.02.05h.08l-.02.05h.08l-.02.05h.08l-.02.05h.08l-.02.05h.08l-.02.05h.08l-.02.05h.08l-.02.05h.08l-.02.05h.08l-.02.05h.08l-.02.05h.08l-.02.05h.08l-.02.05h.08l-.02.05h.08l-.02.05h.08l-.02.05h.08l-.02.05h4.37l.2-.42c1.92-4.02,4.4-7.98,7.02-12.17,4.94-7.88,10.05-16.03,11.28-24.85.58-4.16,1.14-16.04-.09-20.02ZM89.82,72.39c.06.08.13.17.19.25.16.21.29.38.37.54l-34.51,8.06-6.5-7.95,34.42-8.28c2.13,2.43,4.6,5.4,6.02,7.37ZM101,101.65l33.64-9.41,5.18,9.25-32.67,8.78-6.15-8.62ZM102.02,113.11l.18.22c.27.34.59.73.96,1.04.02.02.04.03.06.05.02.02.04.03.06.05.02.02.04.03.06.05.02.02.04.03.06.05.02.02.04.03.06.05.02.02.04.03.06.05.02.02.04.03.06.05.02.02.04.03.06.05.02.02.04.03.06.05.02.02.04.03.06.05.02.02.04.03.06.05.02.02.04.03.06.05.02.02.04.03.06.05.02.02.04.03.06.05.02.02.04.03.06.05.02.02.04.03.06.05.02.02.04.03.06.05.02.02.04.03.06.05.02.02.04.03.06.05.02.02.04.03.06.05.02.02.04.03.06.05.02.02.04.03.06.05.02.02.04.03.06.05.02.02.04.03.06.05.02.02.04.03.06.05.02.02.04.03.06.05.02.02.04.03.06.05.02.02.04.03.06.05.02.02.04.03.06.05.02.02.04.03.06.05.02.02.04.03.06.05.02.02.04.03.06.05.02.02.04.03.06.05.02.02.04.03.06.05.02.02.04.03.06.05.02.02.04.03.06.05.02.02.04.03.06.05.02.02.04.03.06.05.02.02.04.03.06.05.02.02.04.03.06.05.02.02.04.03.06.05.02.02.04.03.06.05.02.02.04.03.06.05.02.02.04.03.06.05.02.02.04.03.06.05.02.02.04.03.06.05.02.02.04.03.06.05.02.02.04.03.06.05.02.02.04.03.06.05.02.02.04.03.06.05.02.02.04.03.06.05.02.02.04.03.06.05.02.02.04.03.06.05.02.02.04.03.06.05.02.02.04.03.06.05.02.02.04.03.06.05.02.02.04.03.06.05.02.02.04.03.06.05.02.02.04.03.06.05.02.02.04.03.06.05.02.02.04.03.06.05.02.02.04.03.06.05.02.02.04.03.06.05.02.02.04.03.06.05.02.02.04.03.06.05.02.02.04.03.06.05.02.02.04.03.06.05.02.02.04.03.06.05.02.02.04.03.06.05.02.02.04.03.06.05.02.02.04.03.06.05.02.02.04.03.06.05.02.02.04.03.06.05.02.02.04.03.06.05.02.02.04.03.06.05.02.02.04.03.06.05.02.02.04.03.06.05.02.02.04.03.06.05.02.02.04.03.06.05.02.02.04.03.06.05.37.32.8.58,1.33.67l.15.03,22.28-5.78v22.45s0,0-.01-.01c0,0-.01,0-.02-.01-.01-.01-.03-.03-.04-.04,0,0-.01,0-.01-.01-.01-.01-.03-.03-.04-.04,0,0-.01,0-.02-.01-.01-.01-.03-.03-.04-.04,0,0,0,0-.01-.01-.01-.01-.03-.03-.04-.04,0,0-.01,0-.02-.01-.01-.01-.03-.03-.04-.04,0,0-.01,0-.01-.01-.01-.01-.03-.03-.04-.04,0,0-.01,0-.01-.01-.01-.01-.03-.03-.04-.04,0,0-.01,0-.01-.01-.01-.01-.03-.03-.04-.04,0,0-.01,0-.02-.01-.01-.01-.03-.03-.04-.04,0,0,0,0-.01-.01-.01-.01-.03-.03-.04-.04,0,0-.01,0-.02-.01-.01-.01-.03-.03-.04-.04,0,0-.01,0-.01-.01-.01-.01-.03-.03-.04-.04,0,0-.01,0-.02-.01-.01-.01-.03-.03-.04-.04,0,0,0,0-.01-.01-.01-.01-.03-.03-.04-.04,0,0-.01,0-.01-.01-.01-.01-.03-.03-.04-.04,0,0-.01,0-.02-.01-.01-.01-.03-.03-.04-.04,0,0,0,0-.01-.01-.01-.01-.03-.03-.04-.04,0,0-.01,0-.02-.01-.01-.01-.03-.03-.04-.04,0,0-.01,0-.01-.01-.01-.01-.03-.03-.04-.04,0,0-.01,0-.01-.01-.01-.01-.03-.03-.04-.04,0,0-.01,0-.01-.01-.01-.01-.03-.03-.04-.04,0,0-.01,0-.02-.01-.01-.01-.03-.03-.04-.04,0,0-.01,0-.01-.01-.01-.01-.03-.03-.04-.04,0,0-.01,0-.01-.01-.01-.01-.03-.03-.04-.04,0,0-.01,0-.01-.01-.01-.01-.03-.03-.04-.04,0,0-.01,0-.02-.01-.01-.01-.03-.03-.04-.04,0,0,0,0-.01-.01-.01-.01-.03-.03-.04-.04,0,0-.01,0-.02-.01-.01-.01-.03-.03-.04-.04,0,0-.01,0-.01-.01-.01-.01-.03-.03-.04-.04,0,0-.01,0-.01-.01-.01-.01-.03-.03-.04-.04,0,0-.01,0-.01-.01-.01-.01-.03-.03-.04-.04,0,0-.01,0-.01-.01-.01-.01-.03-.03-.04-.04,0,0-.01,0-.02-.01-.01-.01-.03-.03-.04-.04,0,0,0,0-.01-.01-.01-.01-.03-.03-.04-.04,0,0-.01,0-.02-.01-.01-.01-.03-.03-.04-.04,0,0-.01,0-.01-.01-.01-.01-.03-.03-.04-.04,0,0-.01,0-.01-.01-.01-.01-.03-.03-.04-.04,0,0-.01,0-.01-.01-.01-.01-.03-.03-.04-.04,0,0-.01,0-.02-.01-.01-.01-.03-.03-.04-.04,0,0-.01,0-.01-.01-.01-.01-.03-.03-.04-.04,0,0-.01,0-.01-.01-.01-.01-.03-.03-.04-.04,0,0-.01,0-.01-.01-.01-.01-.03-.03-.04-.04,0,0-.01,0-.02-.01-.01-.01-.03-.03-.04-.04,0,0,0,0-.01-.01-.01-.01-.03-.03-.04-.04,0,0-.01,0-.02-.01-.01-.01-.03-.03-.04-.04,0,0-.01,0-.01-.01-.01-.01-.03-.03-.04-.04,0,0,0,0-.01-.01-.01-.01-.03-.03-.04-.04,0,0-.01,0-.02-.01-.01-.01-.03-.03-.04-.04,0,0-.01,0-.01-.01-.01-.01-.03-.03-.04-.04,0,0-.01,0-.02-.01-.01-.01-.03-.03-.04-.04,0,0,0,0-.01-.01-.01-.01-.03-.03-.04-.04,0,0-.01,0-.02-.01-.01-.01-.03-.03-.04-.04,0,0-.01,0-.01-.01-.01-.01-.03-.03-.04-.04,0,0-.01,0-.01-.01-.01-.01-.03-.03-.04-.04,0,0-.01,0-.01-.01-.01-.01-.03-.03-.04-.04,0,0-.01,0-.02-.01-.01-.01-.03-.03-.04-.04,0,0-.01,0-.01-.01-.01-.01-.03-.03-.04-.04,0,0-.01,0-.01-.01-.01-.01-.03-.03-.04-.04,0,0-.01,0-.01-.01-.01-.01-.03-.03-.04-.04,0,0-.01,0-.02-.01-.01-.01-.03-.03-.04-.04,0,0,0,0-.01-.01-.01-.01-.03-.03-.04-.04,0,0-.01,0-.02-.01-.01-.01-.03-.03-.04-.04,0,0-.01,0-.01-.01-.01-.01-.03-.03-.04-.04-1.63-1.32-3.61-1.8-5.45-1.31-3.13.83-6.35,6.12-8.7,9.97-.58.95-1.09,1.79-1.52,2.43l-13,4.3-.61-39.65c1.11,1.72,2.24,3.39,3.43,4.82ZM59.02,144.87c1.36,2.5,3.18,6.03,4.28,8.21-2.53-2.93-5.09-6.28-6.55-8.97.54.25,1.3.48,2.27.76ZM68.12,134.19s-.04-.03-.06-.05c-.02-.02-.04-.03-.06-.05-.02-.02-.04-.03-.06-.05-.02-.02-.04-.03-.06-.05-.02-.02-.04-.03-.06-.05-.02-.02-.04-.03-.06-.05-.02-.02-.04-.03-.06-.05-.02-.02-.04-.03-.06-.05-.02-.02-.04-.03-.06-.05-.02-.02-.04-.03-.06-.05-.02-.02-.04-.03-.06-.05-.02-.02-.04-.03-.06-.05-.02-.02-.04-.03-.06-.05-.02-.02-.04-.03-.06-.05-.02-.02-.04-.03-.06-.05-.02-.02-.04-.03-.06-.05-.02-.02-.04-.03-.06-.05-.02-.02-.04-.03-.06-.05-.02-.02-.04-.03-.06-.05-.02-.02-.04-.03-.06-.05-.02-.02-.04-.03-.06-.05-.02-.02-.04-.03-.06-.05-.02-.02-.04-.03-.06-.05-.02-.02-.04-.03-.06-.05-.02-.02-.04-.03-.06-.05-.02-.02-.04-.03-.06-.05-.02-.02-.04-.03-.06-.05-.02-.02-.04-.03-.06-.05-.02-.02-.04-.03-.06-.05-.02-.02-.04-.03-.06-.05-.02-.02-.04-.03-.06-.05-.02-.02-.04-.03-.06-.05-.02-.02-.04-.03-.06-.05-.02-.02-.04-.03-.06-.05-.02-.02-.04-.03-.06-.05-.02-.02-.04-.03-.06-.05-.02-.02-.04-.03-.06-.05-.02-.02-.04-.03-.06-.05-1.61-1.37-3.38-2.12-5.27-1.61-.42.11-.84.29-1.26.53l-.29-19.34,28,6.9.17-.04c.82-.19,1.68-1.27,2.99-3.49l.56,33.73-14.03-4.39c-.09-.14-.18-.29-.27-.44-1.67-2.72-3.72-6.03-6.07-8.01-.02-.02-.04-.03-.06-.05-.02-.02-.04-.03-.06-.05-.02-.02-.04-.03-.06-.05-.02-.02-.04-.03-.06-.05-.02-.02-.04-.03-.06-.05-.02-.02-.04-.03-.06-.05-.02-.02-.04-.03-.06-.05-.02-.02-.04-.03-.06-.05-.02-.02-.04-.03-.06-.05-.02-.02-.04-.03-.06-.05-.02-.02-.04-.03-.06-.05-.02-.02-.04-.03-.06-.05-.02-.02-.04-.03-.06-.05-.02-.02-.04-.03-.06-.05-.02-.02-.04-.03-.06-.05-.02-.02-.04-.03-.06-.05-.02-.02-.04-.03-.06-.05-.02-.02-.04-.03-.06-.05-.02-.02-.04-.03-.06-.05-.02-.02-.04-.03-.06-.05-.02-.02-.04-.03-.06-.05-.02-.02-.04-.03-.06-.05-.02-.02-.04-.03-.06-.05-.02-.02-.04-.03-.06-.05-.02-.02-.04-.03-.06-.05-.02-.02-.04-.03-.06-.05-.02-.02-.04-.03-.06-.05-.02-.02-.04-.03-.06-.05-.02-.02-.04-.03-.06-.05-.02-.02-.04-.03-.06-.05-.02-.02-.04-.03-.06-.05-.02-.02-.04-.03-.06-.05-.02-.02-.04-.03-.06-.05-.02-.02-.04-.03-.06-.05-.02-.02-.04-.03-.06-.05-.02-.02-.04-.03-.06-.05-.02-.02-.04-.03-.06-.05-.02-.02-.04-.03-.06-.05-.02-.02-.04-.03-.06-.05-.02-.02-.04-.03-.06-.05-.02-.02-.04-.03-.06-.05-.02-.02-.04-.03-.06-.05ZM58.38,91.6c.09-.16.18-.31.25-.44l29.39,7.98-6.55,11.54-29.54-7.46c1.05-2.1,2.97-5.64,6.45-11.62ZM130.95,82.03l-28.47-7.29c.25-.36.53-.76.86-1.22.12-.16.21-.29.27-.38,1.04-1.49,5.71-7.78,6.89-8.94l29.5,7.75-9.05,10.09Z"/>
    <path class="cls-2" d="M146.96,121.17c-.8-2.57-2.51-4.23-4.59-4.43-2.14-.21-4.22,1.14-5.55,3.61-.7,1.29-1.08,2.7-1.29,4.18l.03-17.98c.7-.35,3-.89,4.43-1.23,2.15-.51,3.5-.84,4.09-1.17.76-.43,1.29-1.2,1.35-1.96.07-.93-1.28-3.25-5.39-9.76-1.81-2.87-3.69-5.84-4.08-6.84l-.05-.09c-.32-.57-.43-1.16-.34-1.86.12-.94,3.7-4.76,5.62-6.8,1.11-1.18,2.07-2.2,2.56-2.82.15-.18.34-.41.55-.66,1.74-2.06,3.28-4.03,2.91-5.6-.1-.42-.39-1-1.21-1.35l-40.37-10.77-2.05.88-9.93,13.69-12.02-13.96-39.8,9.66-.19.05-.14.14c-.4.39-1.33,1.45-1.2,2.77.13,1.3,2.23,3.76,5.65,7.66,2.26,2.58,5.35,6.1,5.49,7.12.05.82-2.35,4.88-4.11,7.85-2.61,4.42-5.32,8.99-5.46,11.04v.06s0,.06,0,.06c.2,2.01,3.26,2.65,6.23,3.27,1.13.23,2.28.47,2.95.75l.22,19.9c-.09-2.39-.44-4.68-1.49-6.61-1.33-2.47-3.41-3.82-5.55-3.61-2.08.2-3.79,1.86-4.59,4.43-1.23,3.98-.67,15.86-.09,20.02,1.26,9.05,6.65,17.58,11.87,25.82,2.39,3.79,4.66,7.37,6.51,10.94l-2.2,1.07h6.24l.05-.67c.07-.93-.29-1.67-.62-2.32l-.03-.07c-1.91-3.83-4.39-7.72-6.78-11.49-3.89-6.11-7.92-12.44-9.89-18.98-1.7-5.65-2.61-17.64-1.2-23.06.25-.97.69-1.61,1.13-1.67.36-.05.97.3,1.57,1.39,1.02,1.83,1.03,6.36,1.04,10.36,0,2.26.01,4.4.2,5.93.61,5.03,11.35,17.16,15.38,20.35,1.38,1.09,3.15,2.28,4.64,1.81.77-.24,1.31-.87,1.6-1.87.79-2.69-1.59-7.07-3.32-10.28-.31-.56-.58-1.07-.81-1.51-.29-.58-.74-1.31-1.27-2.16-1.57-2.56-4.2-6.84-3.32-8.89.27-.63.89-1.03,1.89-1.24.87-.18,2.27,1.49,2.87,2.2l.17.2c4.26,5.02,11.23,17.4,13.32,23.66,1.85,5.56,2.44,11.11,1.85,17.49l-.07.8h3.83l.08-.64c.94-7.37-.14-15.26-3.05-22.22-.54-1.29-1.23-2.51-1.91-3.68-.63-1.1-1.24-2.16-1.72-3.27l15.7,4.81,16.08-5.18c-.54,1.27-1.23,2.47-1.95,3.72-.73,1.28-1.49,2.59-2.07,3.99-2.92,6.99-4,14.74-3.05,21.82l.09.63h3.83l-.08-.8c-.6-6.06-.02-11.49,1.85-17.09,2.09-6.27,9.06-18.65,13.32-23.66l.17-.2c.6-.71,2-2.38,2.87-2.2,1,.21,1.62.61,1.89,1.24.88,2.05-1.75,6.34-3.33,8.9-.52.85-.97,1.58-1.26,2.15-.22.43-.5.94-.8,1.5-1.74,3.21-4.12,7.6-3.33,10.29.29.99.83,1.62,1.6,1.86,1.49.47,3.26-.72,4.64-1.81,4.02-3.19,14.76-15.33,15.38-20.35.19-1.54.19-3.68.2-5.95.01-3.99.03-8.52,1.04-10.34.61-1.1,1.22-1.44,1.57-1.39.45.06.88.7,1.13,1.67,1.01,3.88.74,12.53.16,17.02-1.13,8.85-6.19,16.98-11.09,24.83-2.7,4.34-5.5,8.82-7.54,13.32l-.47,1.03h4.37l.2-.42c1.92-4.02,4.4-7.98,7.02-12.17,4.94-7.88,10.05-16.03,11.28-24.85.58-4.16,1.14-16.04-.09-20.02ZM134.8,139.07c-.12.38-.27.76-.44,1.12-1.43,2.97-9,12.06-12.19,14.74l7.1-13.47c.44-.26,1.26-.53,2.05-.8,1.32-.44,2.68-.89,3.49-1.59ZM104.74,114.64l.15.03,26.85-6.96v28.73l-.96.32c-.21-1.71-1.16-3.39-2.6-4.57-1.63-1.32-3.61-1.8-5.45-1.31-3.13.83-6.35,6.12-8.7,9.97-.58.95-1.09,1.79-1.52,2.43l-17.49,5.79-.75-48.27c1.08,1.51,2.14,3.21,3.17,4.85,1.56,2.48,3.16,5.04,4.88,7.1l.18.22c.54.67,1.2,1.5,2.24,1.67ZM140.12,101.14l-34.18,9.19-9.22-12.91,35.71-9.99,7.68,13.71ZM142.26,69.42l-11,12.26-34.52-8.83c.26-.53.91-1.57,2.34-3.56.12-.16.21-.29.27-.38,1.04-1.49,5.71-7.78,6.89-8.94l36.02,9.46ZM56.43,134.43c-.39.83-.55,1.64-.49,2.4l-.62-.12-.43-29,28,6.9.17-.04c1.18-.28,2.43-2.38,5.01-7.11.79-1.45,1.64-3.01,2.36-4.16l.75,45.39-16.54-5.18c-.67-.83-1.44-2.09-2.33-3.54-2.81-4.56-6.66-10.81-11.29-9.57-1.78.48-3.71,2.17-4.58,4.03ZM46.57,101.44c.35-1.1,1.92-4.41,7.54-14.07.09-.16.18-.31.25-.44l35.26,9.57-7.85,13.83-35.2-8.89ZM55.01,81.16l-9.9-12.1,35.08-8.44c.46.17,1.43,1.26,1.76,1.64.1.11.19.22.28.31,2.34,2.54,6.02,6.88,7.9,9.47.06.08.13.17.19.25.16.21.29.38.37.54l-35.68,8.34ZM54.99,140.7c.94.27,2.37.68,2.65.94.59.63,4.26,7.69,6,11.15.12.23.24.46.37.7.19.35.38.71.55,1.07-3.15-2.74-9.43-9.81-12.07-14.69.59.27,1.42.52,2.5.83ZM51.24,131.18c.03-.87.06-1.74.06-2.61l.1,8.71c-.05-.21-.09-.4-.11-.58-.18-1.64-.12-3.52-.05-5.51Z"/>
  </g>
  <g>
    <path class="cls-1" d="M135.7,38.34h-.05v-.05h-.05v-.05h-.05v-.05h-.05v-.05h-.05v-.05h-.05v-.05h-.05v-.05h-.05v-.05h-.05v-.05h-.05v-.05h-.05v-.05h-.05v-.05h-.05v-.05h-.05v-.05h-.05v-.05h-.05v-.05h-.05v-.05h-.05v-.05h-.05v-.05h-.05v-.05h-.05v-.05h-.05v-.05h-.05v-.05h-.05v-.05h-.05v-.05h-.05v-.05h-.05v-.05h-.05v-.05h-.05v-.05h-.05v-.05h-.05v-.05h-.05v-.05h-.05v-.05h-.05v-.05h-.05v-.05h-.05v-.05h-.05v-.05h-.05v-.05h-.05v-.05h-.05v-.05h-.05v-.05h-.05v-.05h-.05v-.05h-.05v-.05h-.05v-.05h-.05v-.05h-.05v-.05h-.05v-.05h-.05v-.05h-.05v-.05h-.05v-.05h-.05v-.05h-.05v-.05h-.05v-.05h-.05v-.05h-.05v-.05h-.05v-.05h-.05v-.05h-.05v-.05h-.05v-.05h-.05v-.05h-.05v-.05h-.05v-.05h-.05v-.05h-.05v-.05h-.05v-.05h-.05v-.05h-.05v-.05h-.05v-.05h-.05v-.05h-.05v-.05h-.05v-.05h-.05v-.05h-.05v-.05h-.05v-.05h-.05v-.05h-.05v-.05h-.05v-.05h-.05v-.05h-.05v-.05h-.05v-.05l-5.55-.89c-.41-.91-.82-1.81-1.24-2.71-.06-.13-.18-.55-.37-.7-.02-.02-.03-.04-.05-.05-.02-.02-.03-.04-.05-.05-.02-.02-.03-.04-.05-.05-.02-.02-.03-.04-.05-.05-.02-.02-.03-.04-.05-.05-.02-.02-.03-.04-.05-.05-.02-.02-.03-.04-.05-.05-.02-.02-.03-.04-.05-.05-.02-.02-.03-.04-.05-.05-.02-.02-.03-.04-.05-.05-.02-.02-.03-.04-.05-.05-.02-.02-.03-.04-.05-.05-.02-.02-.03-.04-.05-.05-.02-.02-.03-.04-.05-.05-.02-.02-.03-.04-.05-.05-.02-.02-.03-.04-.05-.05-.02-.02-.03-.04-.05-.05-.02-.02-.03-.04-.05-.05-.02-.02-.03-.04-.05-.05-.02-.02-.03-.04-.05-.05-.02-.02-.03-.04-.05-.05-.02-.02-.03-.04-.05-.05-.02-.02-.03-.04-.05-.05-.02-.02-.03-.04-.05-.05-.02-.02-.03-.04-.05-.05-.02-.02-.03-.04-.05-.05-.02-.02-.03-.04-.05-.05-.02-.02-.03-.04-.05-.05-.02-.02-.03-.04-.05-.05-.02-.02-.03-.04-.05-.05-.02-.02-.03-.04-.05-.05-.02-.02-.03-.04-.05-.05-.02-.02-.03-.04-.05-.05-.02-.02-.03-.04-.05-.05-.02-.02-.03-.04-.05-.05-.02-.02-.03-.04-.05-.05-.02-.02-.03-.04-.05-.05-.02-.02-.03-.04-.05-.05-.02-.02-.03-.04-.05-.05-.02-.02-.03-.04-.05-.05-.02-.02-.03-.04-.05-.05-.02-.02-.03-.04-.05-.05-.02-.02-.03-.04-.05-.05-.02-.02-.03-.04-.05-.05-.02-.02-.03-.04-.05-.05-.02-.02-.03-.04-.05-.05-.02-.02-.03-.04-.05-.05-.02-.02-.03-.04-.05-.05-.02-.02-.03-.04-.05-.05-.02-.02-.03-.04-.05-.05-.02-.02-.03-.04-.05-.05-.02-.02-.03-.04-.05-.05-.02-.02-.03-.04-.05-.05-.02-.02-.03-.04-.05-.05-.02-.02-.03-.04-.05-.05-.02-.02-.03-.04-.05-.05-.02-.02-.03-.04-.05-.05-.02-.02-.03-.04-.05-.05-.02-.02-.03-.04-.05-.05-.02-.02-.03-.04-.05-.05-.02-.02-.03-.04-.05-.05-.02-.02-.03-.04-.05-.05-.02-.02-.03-.04-.05-.05-.02-.02-.03-.04-.05-.05-.02-.02-.03-.04-.05-.05-.02-.02-.03-.04-.05-.05-.02-.02-.03-.04-.05-.05-.02-.02-.03-.04-.05-.05-.02-.02-.03-.04-.05-.05-.02-.02-.03-.04-.05-.05-.02-.02-.03-.04-.05-.05-.02-.02-.03-.04-.05-.05-.02-.02-.03-.04-.05-.05-.02-.02-.03-.04-.05-.05-.02-.02-.03-.04-.05-.05-.02-.02-.03-.04-.05-.05-.02-.02-.03-.04-.05-.05-.02-.02-.03-.04-.05-.05-.02-.02-.03-.04-.05-.05-.02-.02-.03-.04-.05-.05-.07-.08-.14-.13-.23-.1l-3.53,7.41-6.28,1,3.93-4.08h-.09s.04-.05.04-.05h-.09s.04-.05.04-.05h-.09s.04-.05.04-.05h-.09s.04-.05.04-.05h-.09s.04-.05.04-.05h-.09s.04-.05.04-.05h-.09s.04-.05.04-.05h-.09s.04-.05.04-.05h-.09s.04-.05.04-.05h-.09s.04-.05.04-.05h-.09s.04-.05.04-.05h-.09s.04-.05.04-.05h-.09s.04-.05.04-.05h-.09s.04-.05.04-.05h-.09s.04-.05.04-.05h-.09s.04-.05.04-.05h-.09s.04-.05.04-.05h-.09s.04-.05.04-.05h-.09s.04-.05.04-.05h-.09s.04-.05.04-.05h-.09s.04-.05.04-.05h-.09s.04-.05.04-.05h-.09s.04-.05.04-.05h-.09s.04-.05.04-.05h-.09s.04-.05.04-.05h-.09s.04-.05.04-.05h-.09s.04-.05.04-.05h-.09s.04-.05.04-.05h-.09s.04-.05.04-.05h-.09s.04-.05.04-.05h-.09s.04-.05.04-.05h-.09s.04-.05.04-.05h-.09s.04-.05.04-.05h-.09s.04-.05.04-.05h-.09s.04-.05.04-.05h-.09s.04-.05.04-.05h-.09s.04-.05.04-.05h-.09s.04-.05.04-.05h-.09s.04-.05.04-.05h-.09s.04-.05.04-.05h-.09s.04-.05.04-.05h-.09s.04-.05.04-.05h-.09s.04-.05.04-.05h-.09s.04-.05.04-.05h-.09s.04-.05.04-.05h-.09s.04-.05.04-.05h-.09s.04-.05.04-.05h-.09s.04-.05.04-.05h-.09s.04-.05.04-.05h-.09s.04-.05.04-.05h-.09s.04-.05.04-.05h-.09s.04-.05.04-.05h-.09s.04-.05.04-.05h-.09s.04-.05.04-.05h-.09s.04-.05.04-.05h-.09s.04-.05.04-.05h-.09s.04-.05.04-.05h-.09s.04-.05.04-.05h-.09s.04-.05.04-.05h-.09s.04-.05.04-.05h-.09s.04-.05.04-.05h-.09s.04-.05.04-.05h-.09s.04-.05.04-.05h-.09s.04-.05.04-.05h-.09s.04-.05.04-.05h-.09s.04-.05.04-.05h-.09s.04-.05.04-.05h-.09s.04-.05.04-.05h-.09s.04-.05.04-.05h-.09s.04-.05.04-.05h-.09s.04-.05.04-.05h-.09s.04-.05.04-.05h-.09s.04-.05.04-.05h-.09s.04-.05.04-.05h-.09s.04-.05.04-.05h-.09s.04-.05.04-.05h-.09s.04-.05.04-.05h-.09s.04-.05.04-.05h-.09s.04-.05.04-.05h-.09s.04-.05.04-.05h-.09s.04-.05.04-.05l-8.21-1.26-2.74-5.98h-.02s-.03-.05-.03-.05h-.02s-.03-.05-.03-.05h-.02s-.03-.05-.03-.05h-.02s-.03-.05-.03-.05h-.02s-.03-.05-.03-.05h-.02s-.03-.05-.03-.05h-.02s-.03-.05-.03-.05h-.02s-.03-.05-.03-.05h-.02s-.03-.05-.03-.05h-.02s-.03-.05-.03-.05h-.02s-.03-.05-.03-.05h-.02s-.03-.05-.03-.05h-.02s-.03-.05-.03-.05h-.02s-.03-.05-.03-.05h-.02s-.03-.05-.03-.05h-.02s-.03-.05-.03-.05h-.02s-.03-.05-.03-.05h-.02s-.03-.05-.03-.05h-.02s-.03-.05-.03-.05h-.02s-.03-.05-.03-.05h-.02s-.03-.05-.03-.05h-.02s-.03-.05-.03-.05h-.02s-.03-.05-.03-.05h-.02s-.03-.05-.03-.05h-.02s-.03-.05-.03-.05h-.02s-.03-.05-.03-.05h-.02s-.03-.05-.03-.05h-.02s-.03-.05-.03-.05h-.02s-.03-.05-.03-.05h-.02s-.03-.05-.03-.05h-.02s-.03-.05-.03-.05h-.02s-.03-.05-.03-.05h-.02s-.03-.05-.03-.05h-.02s-.03-.05-.03-.05h-.02s-.03-.05-.03-.05h-.02s-.03-.05-.03-.05h-.02s-.03-.05-.03-.05h-.02s-.03-.05-.03-.05h-.02s-.03-.05-.03-.05h-.02s-.03-.05-.03-.05h-.02s-.03-.05-.03-.05h-.02s-.03-.05-.03-.05h-.02s-.03-.05-.03-.05h-.02s-.03-.05-.03-.05h-.02s-.03-.05-.03-.05h-.02s-.03-.05-.03-.05h-.02s-.03-.05-.03-.05h-.02s-.03-.05-.03-.05h-.02s-.03-.05-.03-.05h-.02s-.03-.05-.03-.05h-.02s-.03-.05-.03-.05h-.02s-.03-.05-.03-.05h-.02s-.03-.05-.03-.05h-.02s-.03-.05-.03-.05h-.02s-.03-.05-.03-.05h-.02s-.03-.05-.03-.05h-.02s-.03-.05-.03-.05h-.02s-.03-.05-.03-.05h-.02s-.03-.05-.03-.05h-.02s-.03-.05-.03-.05h-.02s-.03-.05-.03-.05h-.02s-.03-.05-.03-.05h-.02s-.03-.05-.03-.05h-.02s-.03-.05-.03-.05h-.02s-.03-.05-.03-.05h-.02s-.03-.05-.03-.05h-.02s-.03-.05-.03-.05h-.02s-.03-.05-.03-.05h-.02s-.03-.05-.03-.05h-.02s-.03-.05-.03-.05h-.02s-.03-.05-.03-.05h-.02s-.03-.05-.03-.05h-.02s-.03-.05-.03-.05h-.02s-.03-.05-.03-.05h-.02s-.03-.05-.03-.05h-.02s-.03-.05-.03-.05h-.02s-.03-.05-.03-.05h-.02s-.03-.05-.03-.05h-.02s-.03-.05-.03-.05h-.02s-.03-.05-.03-.05h-.02s-.03-.05-.03-.05l-.36.21-4.51,9.72-10.74,1.65,7.7,8-1.75,11.14.07-.04v.09s.05-.04.05-.04v.09s.05-.04.05-.04v.09s.05-.04.05-.04v.09s.05-.04.05-.04v.09s.05-.04.05-.04v.09s.05-.04.05-.04v.09s.05-.04.05-.04v.09s.05-.04.05-.04v.09s.05-.04.05-.04v.09s.05-.04.05-.04v.09s.05-.04.05-.04v.09s.05-.04.05-.04v.09s.05-.04.05-.04v.09s.05-.04.05-.04v.09s.05-.04.05-.04v.09s.05-.04.05-.04v.09s.05-.04.05-.04v.09s.05-.04.05-.04v.09s.05-.04.05-.04v.09s.05-.04.05-.04v.09s.05-.04.05-.04v.09s.05-.04.05-.04v.09s.05-.04.05-.04v.09s.05-.04.05-.04v.09s.05-.04.05-.04v.09s.05-.04.05-.04v.09s.05-.04.05-.04v.09s.05-.04.05-.04v.09s.05-.04.05-.04v.09s.05-.04.05-.04v.09s.05-.04.05-.04v.09s.05-.04.05-.04v.09s.05-.04.05-.04v.09s.05-.04.05-.04v.09s.05-.04.05-.04v.09s.05-.04.05-.04v.09s.05-.04.05-.04v.09s.05-.04.05-.04v.09s.05-.04.05-.04v.09s.05-.04.05-.04v.09s.05-.04.05-.04v.09s.05-.04.05-.04v.09s.05-.04.05-.04v.09s.05-.04.05-.04v.09s.05-.04.05-.04v.09s.05-.04.05-.04v.09s.05-.04.05-.04v.09s.05-.04.05-.04v.09s.05-.04.05-.04v.09s.05-.04.05-.04v.09s.05-.04.05-.04v.09s.05-.04.05-.04v.09s.05-.04.05-.04v.09s.05-.04.05-.04v.09s.05-.04.05-.04v.09s.05-.04.05-.04v.09s.05-.04.05-.04v.09s.05-.04.05-.04v.09s.05-.04.05-.04v.09s.05-.04.05-.04v.09s.05-.04.05-.04v.09s.05-.04.05-.04v.09s.05-.04.05-.04v.09s.05-.04.05-.04v.09s.05-.04.05-.04v.09s.05-.04.05-.04v.09s.05-.04.05-.04v.09s.05-.04.05-.04v.09s.05-.04.05-.04v.09s.05-.04.05-.04v.09s.05-.04.05-.04v.09s.05-.04.05-.04v.09s.05-.04.05-.04v.09s.05-.04.05-.04v.09s.05-.04.05-.04v.09s.05-.04.05-.04v.09s.05-.04.05-.04v.09s.05-.04.05-.04v.09s.05-.04.05-.04v.09s.05-.04.05-.04v.09s9.53-5.28,9.53-5.28l9.44,5.28-1.75-11.14,2.8-2.91,5.05,5.17-1.18,8.25.07-.03v.09s.05-.03.05-.03v.09s.05-.03.05-.03v.09s.05-.03.05-.03v.09s.05-.03.05-.03v.09s.05-.03.05-.03v.09s.05-.03.05-.03v.09s.05-.03.05-.03v.09s.05-.03.05-.03v.09s.05-.03.05-.03v.09s.05-.03.05-.03v.09s.05-.03.05-.03v.09s.05-.03.05-.03v.09s.05-.03.05-.03v.09s.05-.03.05-.03v.09s.05-.03.05-.03v.09s.05-.03.05-.03v.09s.05-.03.05-.03v.09s.05-.03.05-.03v.09s.05-.03.05-.03v.09s.05-.03.05-.03v.09s.05-.03.05-.03v.09s.05-.03.05-.03v.09s.05-.03.05-.03v.09s.05-.03.05-.03v.09s.05-.03.05-.03v.09s.05-.03.05-.03v.09s.05-.03.05-.03v.09s.05-.03.05-.03v.09s.05-.03.05-.03v.09s.05-.03.05-.03v.09s.05-.03.05-.03v.09s.05-.03.05-.03v.09s.05-.03.05-.03v.09s.05-.03.05-.03v.09s.05-.03.05-.03v.09s.05-.03.05-.03v.09s.05-.03.05-.03v.09s.05-.03.05-.03v.09s.05-.03.05-.03v.09s.05-.03.05-.03v.09s.05-.03.05-.03v.09s.05-.03.05-.03v.09s.05-.03.05-.03v.09s.05-.03.05-.03v.09s.05-.03.05-.03v.09s.05-.03.05-.03v.09s.05-.03.05-.03v.09s.05-.03.05-.03v.09s.05-.03.05-.03v.09s.05-.03.05-.03v.09s.05-.03.05-.03v.09s.05-.03.05-.03v.09s.05-.03.05-.03v.09s.05-.03.05-.03v.09s.05-.03.05-.03v.09s.05-.03.05-.03v.09s.05-.03.05-.03v.09s.05-.03.05-.03v.09s.05-.03.05-.03v.09s.05-.03.05-.03v.09s.05-.03.05-.03v.09s.05-.03.05-.03v.09s.05-.03.05-.03v.09s.05-.03.05-.03v.09s.05-.03.05-.03v.09s.05-.03.05-.03v.09s.05-.03.05-.03v.09s.05-.03.05-.03v.09s.05-.03.05-.03v.09s.05-.03.05-.03v.09s.05-.03.05-.03v.09s.05-.03.05-.03v.09s.05-.03.05-.03v.09s.05-.03.05-.03v.09s.05-.03.05-.03v.09s.05-.03.05-.03v.09s.05-.03.05-.03v.09s.05-.03.05-.03v.09s.05-.03.05-.03v.09s.05-.03.05-.03v.09s7.05-3.7,7.05-3.7l7.01,3.7-1.26-8.25,5.77-5.75v-.16Z"/>
    <polygon class="cls-1" points="84.11 38.41 84.14 38.37 84.05 38.35 84.09 38.32 84 38.3 84.04 38.26 83.95 38.25 83.98 38.21 83.89 38.19 83.93 38.15 83.84 38.14 83.88 38.1 83.78 38.09 83.82 38.05 83.73 38.03 83.77 37.99 83.68 37.98 83.72 37.94 83.62 37.93 83.66 37.89 83.57 37.87 83.61 37.83 83.52 37.82 83.55 37.78 83.46 37.76 83.5 37.73 83.41 37.71 83.45 37.67 83.36 37.66 83.39 37.62 83.3 37.6 83.34 37.57 83.25 37.55 83.29 37.51 83.2 37.5 83.23 37.46 83.14 37.44 83.18 37.41 83.09 37.39 83.13 37.35 83.04 37.34 83.07 37.3 82.98 37.28 83.02 37.24 82.93 37.23 82.97 37.19 82.87 37.18 82.91 37.14 82.82 37.12 82.86 37.08 82.77 37.07 82.81 37.03 82.71 37.01 82.75 36.98 82.66 36.96 82.7 36.92 82.61 36.91 82.64 36.87 82.55 36.85 82.59 36.82 82.5 36.8 82.54 36.76 82.45 36.75 82.48 36.71 82.39 36.69 82.43 36.66 82.34 36.64 82.38 36.6 82.29 36.59 82.32 36.55 82.23 36.53 82.27 36.49 82.18 36.48 82.22 36.44 82.13 36.43 82.16 36.39 82.07 36.37 82.11 36.33 82.02 36.32 82.06 36.28 81.96 36.27 82 36.23 81.91 36.21 81.95 36.17 81.86 36.16 81.9 36.12 81.8 36.1 81.84 36.07 81.75 36.05 81.79 36.01 81.7 36 81.73 35.96 81.64 35.94 81.68 35.91 81.59 35.89 81.63 35.85 81.54 35.84 81.57 35.8 81.48 35.78 81.52 35.75 81.43 35.73 81.47 35.69 81.38 35.68 81.41 35.64 81.32 35.62 81.36 35.58 81.27 35.57 81.31 35.53 81.22 35.52 81.25 35.48 81.16 35.46 81.2 35.42 81.11 35.41 81.15 35.37 81.05 35.35 81.09 35.32 81 35.3 81.04 35.26 80.95 35.25 80.99 35.21 80.89 35.19 80.93 35.16 80.84 35.14 80.88 35.1 80.79 35.09 80.82 35.05 80.73 35.03 80.77 35 80.68 34.98 80.72 34.94 80.63 34.93 80.66 34.89 80.57 34.87 80.61 34.83 80.52 34.82 80.56 34.78 80.47 34.77 80.5 34.73 80.41 34.71 80.45 34.67 80.36 34.66 80.4 34.62 80.31 34.61 80.34 34.57 80.25 34.55 80.29 34.51 80.2 34.5 80.24 34.46 80.14 34.44 80.18 34.41 80.09 34.39 80.13 34.35 80.04 34.34 80.08 34.3 79.98 34.28 80.02 34.25 79.93 34.23 79.97 34.19 79.88 34.18 79.91 34.14 79.82 34.12 79.86 34.09 74.4 33.16 72.77 29.66 72.75 29.67 72.72 29.6 72.69 29.62 72.66 29.55 72.64 29.56 72.61 29.5 72.59 29.51 72.55 29.44 72.53 29.46 72.5 29.39 72.48 29.4 72.45 29.34 72.43 29.35 72.39 29.28 72.37 29.3 72.34 29.23 72.32 29.24 72.29 29.18 72.26 29.19 72.23 29.12 72.21 29.14 72.18 29.07 72.16 29.08 72.13 29.02 72.1 29.03 72.07 28.96 72.05 28.98 72.02 28.91 72 28.92 71.97 28.85 71.94 28.87 71.91 28.8 71.89 28.81 71.86 28.75 71.84 28.76 71.81 28.69 71.78 28.71 71.75 28.64 71.73 28.65 71.7 28.59 71.68 28.6 71.65 28.53 71.62 28.55 71.59 28.48 71.57 28.49 71.54 28.43 71.52 28.44 71.48 28.37 71.46 28.39 71.43 28.32 71.41 28.33 71.38 28.27 71.35 28.28 71.32 28.21 71.3 28.23 71.27 28.16 71.25 28.17 71.22 28.11 71.19 28.12 71.16 28.05 71.14 28.06 71.11 28 71.09 28.01 71.06 27.94 71.03 27.96 71 27.89 70.98 27.9 70.95 27.84 70.93 27.85 70.9 27.78 70.87 27.8 70.84 27.73 70.82 27.74 70.79 27.68 70.77 27.69 70.74 27.62 70.71 27.64 70.68 27.57 70.66 27.58 70.63 27.52 70.61 27.53 70.57 27.46 70.55 27.48 70.52 27.41 70.5 27.42 70.47 27.36 70.44 27.37 70.41 27.3 70.39 27.32 70.36 27.25 70.34 27.26 70.31 27.19 70.28 27.21 70.25 27.14 70.23 27.15 70.2 27.09 70.18 27.1 70.15 27.03 70.12 27.05 70.09 26.98 70.07 26.99 70.04 26.93 70.02 26.94 69.99 26.87 69.96 26.89 69.93 26.82 69.91 26.83 69.88 26.77 69.86 26.78 69.83 26.71 69.8 26.73 69.77 26.66 69.75 26.67 69.72 26.61 69.7 26.62 69.66 26.55 69.64 26.57 69.61 26.5 69.59 26.51 69.56 26.45 69.53 26.46 69.5 26.39 69.48 26.4 69.45 26.34 69.43 26.35 69.4 26.28 69.37 26.3 69.34 26.23 69.32 26.24 69.29 26.18 69.27 26.19 69.24 26.12 69.21 26.14 69.18 26.07 69.16 26.08 69.13 26.02 69.11 26.03 69.08 25.96 69.05 25.98 69.02 25.91 69 25.92 68.97 25.86 68.95 25.87 68.92 25.8 68.89 25.82 68.86 25.75 68.84 25.76 68.81 25.7 68.79 25.71 68.75 25.64 68.73 25.65 68.7 25.59 68.68 25.6 68.65 25.53 68.63 25.55 68.59 25.48 68.57 25.49 68.54 25.43 68.52 25.44 68.49 25.37 68.46 25.39 68.43 25.32 68.08 25.53 64.67 32.73 56.69 34.01 62.46 39.91 61.19 48.16 61.26 48.12 61.25 48.21 61.32 48.18 61.3 48.27 61.37 48.23 61.36 48.32 61.42 48.28 61.41 48.37 61.48 48.34 61.46 48.43 61.53 48.39 61.52 48.48 61.58 48.45 61.57 48.53 61.64 48.5 61.62 48.59 61.69 48.55 61.68 48.64 61.74 48.61 61.73 48.69 61.8 48.66 61.78 48.75 61.85 48.71 61.84 48.8 61.9 48.77 61.89 48.85 61.96 48.82 61.94 48.91 62.01 48.87 62 48.96 62.06 48.93 62.05 49.02 62.12 48.98 62.1 49.07 62.17 49.03 62.16 49.12 62.23 49.09 62.21 49.18 62.28 49.14 62.27 49.23 62.33 49.2 62.32 49.28 62.39 49.25 62.37 49.34 62.44 49.3 62.43 49.39 62.49 49.36 62.48 49.44 62.55 49.41 62.53 49.5 62.6 49.46 62.59 49.55 62.65 49.52 62.64 49.6 62.71 49.57 62.69 49.66 62.76 49.62 62.75 49.71 62.81 49.68 62.8 49.77 62.87 49.73 62.85 49.82 62.92 49.78 62.91 49.87 62.97 49.84 62.96 49.93 63.03 49.89 63.01 49.98 63.08 49.94 63.07 50.03 63.14 50 63.12 50.09 63.19 50.05 63.18 50.14 63.24 50.11 63.23 50.19 63.3 50.16 63.28 50.25 63.35 50.21 63.34 50.3 63.4 50.27 63.39 50.35 63.46 50.32 63.44 50.41 63.51 50.37 63.5 50.46 63.56 50.43 63.55 50.51 63.62 50.48 63.6 50.57 63.67 50.53 63.66 50.62 63.72 50.59 63.71 50.68 63.78 50.64 63.76 50.73 63.83 50.69 63.82 50.78 63.88 50.75 63.87 50.84 63.94 50.8 63.92 50.89 63.99 50.86 63.98 50.94 64.05 50.91 64.03 51 64.1 50.96 64.09 51.05 64.15 51.02 64.14 51.1 64.21 51.07 64.19 51.16 64.26 51.12 64.25 51.21 64.31 51.18 64.3 51.26 64.37 51.23 64.35 51.32 64.42 51.28 64.41 51.37 64.47 51.34 64.46 51.43 64.53 51.39 64.51 51.48 64.58 51.44 64.57 51.53 64.63 51.5 64.62 51.59 64.69 51.55 64.67 51.64 64.74 51.6 64.73 51.69 64.79 51.66 64.78 51.75 64.85 51.71 64.83 51.8 64.9 51.77 64.89 51.85 64.96 51.82 64.94 51.91 65.01 51.87 65 51.96 65.06 51.93 65.05 52.01 65.12 51.98 65.1 52.07 65.17 52.03 65.16 52.12 65.22 52.09 65.21 52.18 65.28 52.14 65.26 52.23 65.33 52.19 65.32 52.28 65.38 52.25 65.37 52.34 65.44 52.3 65.42 52.39 65.49 52.35 65.48 52.44 65.54 52.41 65.53 52.5 72.68 48.8 79.69 52.5 78.43 44.25 84.2 38.42 84.11 38.41"/>
  </g>
  <g>
    <path class="cls-2" d="M131.36,34.17l-5.77,5.75,1.26,8.25-7.01-3.7-7.07,3.7,1.18-8.25-5.77-5.91,7.98-1.28,3.53-7.41c.28-.08.46.58.54.75,1.04,2.23,2,4.49,3.15,6.66l7.98,1.27v.16Z"/>
    <polygon class="cls-2" points="94.18 13.74 98.73 23.67 109.47 25.32 101.77 33.32 103.52 44.46 94.08 39.18 84.53 44.46 86.28 33.32 78.57 25.32 89.31 23.67 93.82 13.95 94.18 13.74"/>
    <polygon class="cls-2" points="68.43 25.32 71.88 32.73 79.86 34.09 74.09 39.91 75.36 48.16 68.34 44.46 61.19 48.16 62.46 39.91 56.69 34.01 64.67 32.73 68.08 25.53 68.43 25.32"/>
  </g>
</svg>